<svg xmlns="http://www.w3.org/2000/svg" width="33.59" height="25.444" viewBox="0 0 33.59 25.444">
  <path id="Icon_map-clothing-store" data-name="Icon map-clothing-store" d="M35.371,10.783a.8.8,0,0,1-.142.644l-4.034,6a.9.9,0,0,1-.727.359,2.087,2.087,0,0,1-.366-.037l-3.233-.793V31.176a.719.719,0,0,1-.748.748H10.406a.719.719,0,0,1-.748-.748V16.957l-2.9.8a.684.684,0,0,1-.816-.322l-4-5.987a.754.754,0,0,1-.1-.629.73.73,0,0,1,.412-.479L10.406,6.48h3.742a.715.715,0,0,1,.748.748c0,1.542,2.163,2.634,3.7,2.634S22.38,8.777,22.38,7.228a.719.719,0,0,1,.748-.748H26.87l8.082,3.787a.805.805,0,0,1,.419.516Z" transform="translate(-1.802 -6.48)" fill="#61d4e8"/>
</svg>
