<svg xmlns="http://www.w3.org/2000/svg" width="29.644" height="29.644" viewBox="0 0 29.644 29.644">
  <path id="Icon_awesome-question-circle" data-name="Icon awesome-question-circle" d="M30.207,15.385A14.822,14.822,0,1,1,15.385.563,14.821,14.821,0,0,1,30.207,15.385ZM15.782,5.463A7.741,7.741,0,0,0,8.817,9.274a.718.718,0,0,0,.162.972l2.074,1.572a.717.717,0,0,0,1-.127c1.068-1.354,1.8-2.139,3.425-2.139,1.221,0,2.731.786,2.731,1.97,0,.9-.739,1.355-1.944,2.031-1.406.788-3.266,1.769-3.266,4.223v.239a.717.717,0,0,0,.717.717h3.347a.717.717,0,0,0,.717-.717v-.08c0-1.7,4.972-1.772,4.972-6.375C22.747,8.093,19.151,5.463,15.782,5.463Zm-.4,14.822a2.749,2.749,0,1,0,2.749,2.749A2.752,2.752,0,0,0,15.385,20.285Z" transform="translate(-0.563 -0.563)" fill="#61d4e8"/>
</svg>
