<svg xmlns="http://www.w3.org/2000/svg" width="26.583" height="30.381" viewBox="0 0 26.583 30.381">
  <path id="Icon_awesome-calendar-alt" data-name="Icon awesome-calendar-alt" d="M0,27.533a2.849,2.849,0,0,0,2.848,2.848H23.735a2.849,2.849,0,0,0,2.848-2.848V11.393H0ZM18.988,15.9a.714.714,0,0,1,.712-.712h2.374a.714.714,0,0,1,.712.712v2.374a.714.714,0,0,1-.712.712H19.7a.714.714,0,0,1-.712-.712Zm0,7.6a.714.714,0,0,1,.712-.712h2.374a.714.714,0,0,1,.712.712v2.374a.714.714,0,0,1-.712.712H19.7a.714.714,0,0,1-.712-.712Zm-7.6-7.6a.714.714,0,0,1,.712-.712h2.374a.714.714,0,0,1,.712.712v2.374a.714.714,0,0,1-.712.712H12.1a.714.714,0,0,1-.712-.712Zm0,7.6a.714.714,0,0,1,.712-.712h2.374a.714.714,0,0,1,.712.712v2.374a.714.714,0,0,1-.712.712H12.1a.714.714,0,0,1-.712-.712ZM3.8,15.9a.714.714,0,0,1,.712-.712H6.883A.714.714,0,0,1,7.6,15.9v2.374a.714.714,0,0,1-.712.712H4.51a.714.714,0,0,1-.712-.712Zm0,7.6a.714.714,0,0,1,.712-.712H6.883A.714.714,0,0,1,7.6,23.5v2.374a.714.714,0,0,1-.712.712H4.51a.714.714,0,0,1-.712-.712ZM23.735,3.8H20.887V.949A.952.952,0,0,0,19.937,0h-1.9a.952.952,0,0,0-.949.949V3.8h-7.6V.949A.952.952,0,0,0,8.545,0h-1.9A.952.952,0,0,0,5.7.949V3.8H2.848A2.849,2.849,0,0,0,0,6.646V9.494H26.583V6.646A2.849,2.849,0,0,0,23.735,3.8Z" fill="#61d4e8"/>
</svg>
