<svg xmlns="http://www.w3.org/2000/svg" width="305.354" height="44.601" viewBox="0 0 305.354 44.601">
  <g id="Group_19" data-name="Group 19" transform="translate(-68.431 -29.955)">
    <g id="Group_14" data-name="Group 14" transform="translate(164.264 65.142)">
      <path id="Path_49" data-name="Path 49" d="M219.957,85.951h2.581c1.366,0,2.884.342,2.884,2.366a1.832,1.832,0,0,1-1.607,1.86V90.2a2.091,2.091,0,0,1,2,2.2c0,2.062-1.784,2.505-3,2.505h-2.859Zm.835,3.871h1.733c1.734,0,2.062-.949,2.062-1.505,0-1.253-.885-1.607-1.949-1.607h-1.847Zm0,4.327H222.7c1.961,0,2.277-1.088,2.277-1.721,0-1.328-1.088-1.847-2.15-1.847h-2.037Z" transform="translate(-219.957 -85.723)" fill="#078fa0"/>
      <path id="Path_50" data-name="Path 50" d="M236.625,85.951h.861l3.769,8.957h-.936l-.974-2.378H234.6l-1.012,2.378h-.873Zm.392.911-2.088,4.908h4.112Z" transform="translate(-224.647 -85.723)" fill="#078fa0"/>
      <path id="Path_51" data-name="Path 51" d="M250.257,85.951h.835v8.2h4.175v.759h-5.01Z" transform="translate(-231.094 -85.723)" fill="#078fa0"/>
      <path id="Path_52" data-name="Path 52" d="M262.257,85.951h.835v8.2h4.175v.759h-5.01Z" transform="translate(-235.504 -85.723)" fill="#078fa0"/>
      <path id="Path_53" data-name="Path 53" d="M274.257,85.951h5.478v.759h-4.643V89.9h4.352v.76h-4.352v3.492h4.845v.759h-5.68Z" transform="translate(-239.915 -85.723)" fill="#078fa0"/>
      <path id="Path_54" data-name="Path 54" d="M289.478,86.71h-3.062v-.759h6.958v.759h-3.062v8.2h-.835Z" transform="translate(-244.384 -85.723)" fill="#078fa0"/>
      <path id="Path_55" data-name="Path 55" d="M308.712,93.119a2.265,2.265,0,0,0,2.05,1.126,1.823,1.823,0,0,0,2.011-1.759c0-2.505-4.617-1.037-4.617-4.44,0-1.594,1.366-2.455,2.872-2.455a2.908,2.908,0,0,1,2.441,1.126l-.72.518A2.007,2.007,0,0,0,311,86.351c-1.075,0-2.011.556-2.011,1.695,0,2.694,4.618,1.075,4.618,4.44A2.565,2.565,0,0,1,310.825,95a3.364,3.364,0,0,1-2.91-1.354Z" transform="translate(-252.286 -85.591)" fill="#078fa0"/>
      <path id="Path_56" data-name="Path 56" d="M328.952,93.372A3.892,3.892,0,0,1,325.626,95a4.707,4.707,0,0,1,0-9.413,3.728,3.728,0,0,1,3.087,1.4l-.683.57a2.857,2.857,0,0,0-2.4-1.214,3.95,3.95,0,0,0,0,7.894,3.227,3.227,0,0,0,2.644-1.392Z" transform="translate(-257.094 -85.591)" fill="#078fa0"/>
      <path id="Path_57" data-name="Path 57" d="M337.995,85.951h.835V89.9h5.01V85.951h.835v8.957h-.835V90.658h-5.01v4.251h-.835Z" transform="translate(-263.342 -85.723)" fill="#078fa0"/>
      <path id="Path_58" data-name="Path 58" d="M358.145,85.591a4.707,4.707,0,1,1-4.631,4.707A4.484,4.484,0,0,1,358.145,85.591Zm0,8.654a3.95,3.95,0,1,0-3.8-3.947A3.7,3.7,0,0,0,358.145,94.245Z" transform="translate(-269.046 -85.591)" fill="#078fa0"/>
      <path id="Path_59" data-name="Path 59" d="M376.826,85.591A4.707,4.707,0,1,1,372.2,90.3,4.485,4.485,0,0,1,376.826,85.591Zm0,8.654a3.95,3.95,0,1,0-3.795-3.947A3.7,3.7,0,0,0,376.826,94.245Z" transform="translate(-275.913 -85.591)" fill="#078fa0"/>
      <path id="Path_60" data-name="Path 60" d="M391.8,85.951h.835v8.2h4.175v.759H391.8Z" transform="translate(-283.117 -85.723)" fill="#078fa0"/>
    </g>
    <g id="Group_18" data-name="Group 18" transform="translate(68.431 29.955)">
      <path id="Path_61" data-name="Path 61" d="M86.135,55.78s-2.062,2.5-6.859,2.5c-6.385,0-10.845-4.426-10.845-12.332,0-6.96,3.311-12.94,10.609-12.94,4.6,0,7.467,2.095,7.467,5.81a4.675,4.675,0,0,1-.675,2.467h-.3a6.335,6.335,0,0,0,.608-2.467c0-3.176-2.264-5.507-7.1-5.507-4.7,0-8.243,5-8.243,12.772,0,6.521,2.467,11.893,8.548,11.893,4.595,0,6.554-2.432,6.554-2.432Z" transform="translate(-68.431 -31.077)" fill="#122e37"/>
      <path id="Path_62" data-name="Path 62" d="M125.239,33.792V57.78H127.6v.3h-7.129v-.3h2.635V45.753H109.731V57.78h2.6v.3h-7.095v-.3H107.6V33.792h-2.365v-.3h7.095v.3h-2.6V45.448h13.379V33.792h-2.635v-.3H127.6v.3Z" transform="translate(-81.959 -31.253)" fill="#122e37"/>
      <path id="Path_63" data-name="Path 63" d="M170.181,58.006h-7.129v-.3h2.264l-3.581-9.325a11.755,11.755,0,0,1-4.866.912,12.151,12.151,0,0,1-4.527-.574L149.3,57.7h2.332v.3h-5.1v-.3H148.9l8.109-24.056,1.317-.371L167.85,57.7h2.332ZM161.6,48.074l-4.764-12.535-4.392,12.839a13.023,13.023,0,0,0,4.426.608A12.806,12.806,0,0,0,161.6,48.074Z" transform="translate(-97.137 -31.175)" fill="#122e37"/>
      <path id="Path_64" data-name="Path 64" d="M209.354,57.78v.3h-2.331c-.642,0-1.048-.473-1.622-1.318L200,46.935a15.437,15.437,0,0,1-1.79.1l-5.406.034V57.78h2.467v.3h-6.961v-.3h2.365V33.792h-2.365v-.3h10.372c5.271,0,7.873,2.974,7.873,6.555a6.311,6.311,0,0,1-4.528,6.419l6.251,11.318ZM192.8,33.792V46.766l5.372-.033c4.561-.034,6.285-2.467,6.285-6.589,0-3.682-2.466-6.352-6.115-6.352Z" transform="translate(-112.491 -31.253)" fill="#122e37"/>
      <path id="Path_65" data-name="Path 65" d="M228.959,33.792v-.3h7.23v.3h-2.737V57.78h10.473c2.535-.1,3.413-2.128,3.413-4.7h.338v5H228.959v-.3h2.364V33.792Z" transform="translate(-127.433 -31.253)" fill="#122e37"/>
      <path id="Path_66" data-name="Path 66" d="M265.231,33.792v-.3h18.717v5h-.338c0-2.635-.911-4.7-3.614-4.7H269.725V45.448h10.2v-2.4h.3v5.136h-.3V45.753h-10.2V57.78H280c2.7,0,3.614-2.061,3.614-4.7h.338v5H265.231v-.3H267.6V33.792Z" transform="translate(-140.765 -31.253)" fill="#122e37"/>
      <path id="Path_67" data-name="Path 67" d="M312.776,33.008c4.629,0,8.008,2.128,8.008,5.946a3.955,3.955,0,0,1-.474,1.79h-.338a3.624,3.624,0,0,0,.473-1.79c0-3.312-2.872-5.643-7.67-5.643-2.871,0-6.25,1.352-6.25,5.068,0,7.027,15.1,5.844,15.1,13.176,0,3.987-4.02,6.724-9.19,6.724-4.628,0-8.852-2.872-8.852-7.872a4.785,4.785,0,0,1,.372-1.791h.474a3.831,3.831,0,0,0-.439,1.791c0,4.189,3.344,7.568,8.446,7.568,2.906,0,7.13-1.453,7.13-5.541,0-6.724-15.035-5.846-15.035-13.075C304.533,34.461,309.533,33.008,312.776,33.008Z" transform="translate(-154.862 -31.077)" fill="#122e37"/>
      <path id="Path_68" data-name="Path 68" d="M392.692,45.948c0-6.96,3.582-12.94,10.879-12.94,7.264,0,10.811,6.014,10.811,12.94,0,7.906-4.459,12.332-10.845,12.332S392.692,53.854,392.692,45.948ZM403.47,57.976c6.589,0,8.548-5.372,8.548-11.893,0-7.771-2.871-12.772-8.48-12.772s-8.48,5.034-8.48,12.772C395.057,52.57,396.881,57.976,403.47,57.976Z" transform="translate(-187.613 -31.077)" fill="#122e37"/>
      <path id="Path_69" data-name="Path 69" d="M456.1,57.78v.3h-2.331c-.643,0-1.048-.473-1.622-1.318l-5.406-9.831a15.448,15.448,0,0,1-1.791.1l-5.406.034V57.78h2.467v.3h-6.96v-.3h2.365V33.792h-2.365v-.3h10.372c5.271,0,7.873,2.974,7.873,6.555a6.311,6.311,0,0,1-4.528,6.419l6.251,11.318ZM439.548,33.792V46.766l5.373-.033c4.56-.034,6.283-2.467,6.283-6.589,0-3.682-2.466-6.352-6.115-6.352Z" transform="translate(-203.184 -31.253)" fill="#122e37"/>
      <path id="Path_70" data-name="Path 70" d="M495.138,33.488v5H494.8c0-2.635-.912-4.7-3.615-4.7h-6.352V57.78h3.075v.3h-8.277v-.3H482.7V33.792h-6.251c-2.7,0-3.615,2.062-3.615,4.7H472.5v-5Z" transform="translate(-216.947 -31.253)" fill="#122e37"/>
      <path id="Path_71" data-name="Path 71" d="M535.88,33.792V57.78h2.365v.3h-7.129v-.3h2.635V45.753H520.372V57.78h2.6v.3h-7.1v-.3h2.365V33.792h-2.365v-.3h7.1v.3h-2.6V45.448h13.379V33.792h-2.635v-.3h7.129v.3Z" transform="translate(-232.89 -31.253)" fill="#122e37"/>
      <g id="Group_17" data-name="Group 17" transform="translate(167.052)">
        <g id="Group_16" data-name="Group 16">
          <path id="Path_72" data-name="Path 72" d="M352.57,51.607c.957.662,3.516,1.133,6.052-.953s3.592-6.658,3.924-7.523,1.143-3.712,2.892-4.562,2.4-.279,2.771.268c.276.4.39,1.142-.678,2.07-.409.357-1.221,0-.911-.381s-.388-.909-.812-.052c-.457.921.809,2.35,2.236.993a2.208,2.208,0,0,0-.972-3.836c-1.421-.257-3.127.741-4.212,2.314-.407.587-.373.1-.35-.382a9.465,9.465,0,0,0-2.37-6.066c-.747-.767-1.92-1.857-2.877-1.2-.544.371-1.128,1.687.25,3.7s4.667,4.526,10.38,3.929c2.136-.224,2.368-2.279,3.16-3.973.774-1.661.027-3.176-1.009-3.492a1.49,1.49,0,0,0-1.91.829c-.1.637.343,1.431.92,1.465a1.111,1.111,0,0,0,.889-.629c.112-.287-.3-.289-.462-.2s-.438-.41.141-.63,1.553.608,1.006,1.95-.607,4.618-5.175,4.025a11.551,11.551,0,0,1-5.217-1.68c-.412-.279-.023-.262.365-.179a4.929,4.929,0,0,0,4.659-.739,1.842,1.842,0,0,0,.444-2.684,1.292,1.292,0,0,0-2.03-.139,1.009,1.009,0,0,0-.06,1.424.858.858,0,0,0,1.253-.053c.323-.441.131-.742-.209-.432s-.97-.08-.554-.617a.753.753,0,0,1,1.267-.036c.357.39.779,1.532-1.2,2.505s-4.445-.051-5.616-1.2-.934-2.076-.646-2.341,1.4.371,2.092,1.332a8.187,8.187,0,0,1,1.706,4.9c.021.6-.359.013-.837.141a.79.79,0,0,0-.321,1.322,4.916,4.916,0,0,1,.512,4.307c-.237.56-.218.136-.183-.3a3.357,3.357,0,0,0-1.1-2.3,1.526,1.526,0,0,0-2.417.56,1.579,1.579,0,0,0,.29,1.512c.386.49.247-.039.133-.4a.978.978,0,0,1,.511-1.248c.4-.144.319.144.1.348a.864.864,0,0,0,0,1.154c.355.425.942-.332,1.315.858a5.747,5.747,0,0,1-.8,4.069c-.366.521-.471.337-.207-.092a3.626,3.626,0,0,0-.292-3.351,2.131,2.131,0,0,0-3.205-.062,1.321,1.321,0,0,0-.173,1.654c.27.192.374.034.374-.309s-.07-1.181.915-1.142c1.212.052-.139.337.244,1.369.181.486,1.374.847.234,2.9a2.988,2.988,0,0,1-4.008.767,2.689,2.689,0,0,1-.925-2.4c.1-1.03.777-.644,1.143.436s-.746,1.843-1.191,2.091a3.083,3.083,0,0,1-4.01-.763c-1.141-2.045.052-2.411.232-2.9.379-1.032-.97-1.384.243-1.366.808.011.915.8.915,1.139s.106.5.374.309a1.323,1.323,0,0,0-.173-1.654,2.134,2.134,0,0,0-3.206.064,3.625,3.625,0,0,0-.287,3.353c.262.428.156.61-.21.09a5.743,5.743,0,0,1-.8-4.068c.371-1.19.958-.433,1.313-.857a.871.871,0,0,0,0-1.157c-.221-.2-.3-.491.1-.346a.978.978,0,0,1,.512,1.246c-.113.365-.252.893.132.4a1.573,1.573,0,0,0,.29-1.514,1.527,1.527,0,0,0-2.418-.556,3.36,3.36,0,0,0-1.1,2.3c.034.438.054.86-.183.3a4.921,4.921,0,0,1,.507-4.309.789.789,0,0,0-.321-1.32c-.481-.13-.86.462-.837-.142a8.167,8.167,0,0,1,1.7-4.9c.691-.959,1.8-1.6,2.09-1.332s.526,1.2-.644,2.341-3.633,2.169-5.616,1.2-1.561-2.111-1.2-2.5a.752.752,0,0,1,1.267.037c.414.534-.214.925-.553.616s-.533-.009-.21.433a.861.861,0,0,0,1.254.053,1.012,1.012,0,0,0-.059-1.427,1.3,1.3,0,0,0-2.032.141,1.841,1.841,0,0,0,.447,2.683,4.92,4.92,0,0,0,4.66.734c.387-.083.777-.1.366.18a11.529,11.529,0,0,1-5.216,1.685c-4.567.6-5.261-2.671-5.81-4.015s.438-2.164,1-1.952.307.718.142.63-.574-.089-.464.2a1.108,1.108,0,0,0,.892.626c.577-.035,1.02-.827.92-1.467a1.492,1.492,0,0,0-1.911-.824c-1.036.315-1.782,1.832-1.007,3.49.792,1.695,1.662,3.748,3.8,3.969,5.714.592,9-1.922,10.378-3.939s.774-3.311.247-3.7c-.808-.6-2.13.439-2.878,1.206a9.458,9.458,0,0,0-2.362,6.068c.021.487.055.968-.35.385-1.088-1.574-2.795-2.571-4.216-2.312a2.209,2.209,0,0,0-.968,3.84c1.429,1.351,2.692-.077,2.236-1-.426-.858-1.124-.325-.813.052s-.5.74-.91.383c-1.069-.928-.956-1.667-.682-2.07.374-.548,1.025-1.121,2.774-.272s2.561,3.7,2.893,4.561,1.4,5.434,3.932,7.519a5.42,5.42,0,0,0,6.053.948,3.369,3.369,0,0,0,1.463-2.216c.054-.419.181-.35.459-.144s.288-.11-.093-.411-.751-2.556.969-5.053,3.21-3.8,4.533-4.041c.727-.131-.553-.88-1.383-1.4s-.905-.545-1.51.118a32.421,32.421,0,0,0-3.374,8.043c-.136.766-.1-.605.1-1.543s1.521-6.271,2.712-7.575c.3-.332.1-.567-.311-.939s-.872-.889-.861-1.207-.2-.505-.555.708-1.593,9.746-1.584,10.9c.007.66-.167-.432-.106-2.341s.114-8.658.9-10.351c.29-.625.314-.65-.1-1.12s-1.12-2.611-1.383-2.991-.353-.276-.514.513a15.524,15.524,0,0,1-1.036,3.026c-.252.379.058.777.353,1.3.477.858,1.6,8.873,1.427,12.1a.263.263,0,0,0,.244.207c.223.032.64.119.631.25s-.254-.014-.474-.026-.515-.083-.7.056-.314-.271-.334-.539-.573-5.072-3.934-8.1c-.618-.555-.678-.433-1.466-.031s-1.99.847-1.016,1.318,4.876,1.862,6.1,7.907c0,0,.038.829-.494.951s-.131.35.212.382S351.43,50.824,352.57,51.607Z" transform="translate(-332.566 -29.955)" fill="#078fa0"/>
          <path id="Path_73" data-name="Path 73" d="M360.428,49.671c-.123-.618-.792-6.14-3.421-9.593-.5-.658-.421-.635-.2-.934a6.292,6.292,0,0,0,1.143-1.964c.053-.553.61.154.837,1.116s2.188,8.008,1.969,11.072C360.691,50.26,360.563,50.345,360.428,49.671Z" transform="translate(-341.413 -32.539)" fill="#078fa0"/>
          <g id="Group_15" data-name="Group 15" transform="translate(8.186 21.869)">
            <path id="Path_74" data-name="Path 74" d="M351.4,67.2a4.384,4.384,0,0,1,2.781-2.412c2.813-.833,5.136.45,5.778,2.616.374,1.262.046,3.2-1.669,3.71-1.547.458-1.995-.434-2.1-.8a1.047,1.047,0,0,1,.517-1.3c.464-.138.723.04.766.188s-.428.412-.368.613c.038.127.271-.119.483-.18a.441.441,0,0,1,.526.2c.029.1-.167.133-.128.268a.493.493,0,0,0,.6.242,1.774,1.774,0,0,0,1.137-1.553c0-.193-.3.073-.475.125-.352.1-.64-.005-.726-.294-.054-.182-.079-.378.064-.42s.21.145.386.092c.317-.095.34-.682.147-1.336a2.236,2.236,0,0,0-.651-.97c-.092-.078-.2-.078-.137.139s-.023.327-.238.393c-.453.133-.363.44-.711.543a.872.872,0,0,1-.82-.331c-.052-.175.009-.314.125-.347s.236.135.359.1c.193-.057.284-.385.207-.644-.161-.544-1.283-1.232-3.044-.709a4.533,4.533,0,0,0-2.589,2.244,3.113,3.113,0,0,0-.411,1.971c.093.306.314.563.684.453a.567.567,0,0,0,.436-.691c-.082-.373-.738-.3-.653-.713.078-.24.172-.311.436-.388s.429.09.482-.252a1.511,1.511,0,0,1,1.014-1.265.987.987,0,0,1,1.267.463c.076.259.039.792-.319.9s-.456-.1-.5-.248c-.063-.21.2-.741-.593-.507-.563.168-.6.958-.552,1.506A1.331,1.331,0,0,1,352,70.115a.781.781,0,0,1-.928-.4c-.04-.136-.139-.235-.245.044a.5.5,0,0,1-.335.324c-.335.1-.811.042-1.443-1.13a2.456,2.456,0,0,0-3.153-1.217s-.355.142-.387.032c-.046-.153.614-.423,1.252-.613s1.487-.337,1.634.156c.081.273.334.429.286.161s-.129-.456.086-.52.517.157.638.564c.09.3-.187.84.087.758.4-.118.365-.452.618-.527s.5.185.55.371c.09.3-.042.57-.169.608s-.17-.113-.312-.07a.442.442,0,0,0-.271.6.468.468,0,0,0,.657.358C351.047,69.346,350.55,68.926,351.4,67.2Z" transform="translate(-345.51 -64.533)" fill="#078fa0"/>
            <path id="Path_75" data-name="Path 75" d="M368.544,67.2a4.384,4.384,0,0,0-2.781-2.412c-2.812-.833-5.137.45-5.778,2.616-.374,1.262-.046,3.2,1.669,3.71,1.548.458,2-.434,2.1-.8a1.044,1.044,0,0,0-.517-1.3c-.464-.138-.722.04-.766.188s.429.412.369.613c-.037.127-.271-.119-.483-.18a.444.444,0,0,0-.527.2c-.028.1.168.133.13.268a.5.5,0,0,1-.6.242,1.773,1.773,0,0,1-1.138-1.553c0-.193.3.073.476.125.351.1.64-.005.725-.294.053-.182.078-.378-.063-.42s-.21.145-.387.092c-.316-.095-.341-.682-.147-1.336a2.242,2.242,0,0,1,.65-.97c.093-.078.2-.078.138.139s.023.327.238.393c.453.133.363.44.711.543a.874.874,0,0,0,.82-.331c.052-.175-.01-.314-.127-.347s-.235.135-.357.1c-.193-.057-.283-.385-.207-.644.161-.544,1.283-1.232,3.043-.709a4.528,4.528,0,0,1,2.589,2.244,3.109,3.109,0,0,1,.411,1.971c-.092.306-.314.563-.683.453a.565.565,0,0,1-.436-.691c.08-.373.737-.3.651-.713-.078-.24-.172-.311-.436-.388s-.428.09-.481-.252a1.509,1.509,0,0,0-1.014-1.265.986.986,0,0,0-1.267.463c-.077.259-.04.792.319.9s.455-.1.5-.248c.063-.21-.2-.741.592-.507.565.168.6.958.552,1.506a1.333,1.333,0,0,0,.912,1.514.779.779,0,0,0,.927-.4c.04-.136.139-.235.245.044a.5.5,0,0,0,.334.324c.337.1.813.042,1.444-1.13a2.454,2.454,0,0,1,3.152-1.217s.355.142.388.032c.046-.153-.614-.423-1.252-.613s-1.487-.337-1.634.156c-.082.273-.334.429-.285.161s.128-.456-.087-.52-.516.157-.637.564c-.089.3.187.84-.087.758-.4-.118-.365-.452-.617-.527s-.5.185-.551.371c-.089.3.043.57.169.608s.17-.113.312-.07a.44.44,0,0,1,.27.6.468.468,0,0,1-.657.358C368.9,69.346,369.4,68.926,368.544,67.2Z" transform="translate(-350.779 -64.533)" fill="#078fa0"/>
          </g>
        </g>
      </g>
    </g>
  </g>
</svg>
