<svg id="Group_399" data-name="Group 399" xmlns="http://www.w3.org/2000/svg" width="222.173" height="318.57" viewBox="0 0 222.173 318.57">
  <g id="Body" transform="translate(0 37.403)">
    <path id="Path_13" data-name="Path 13" d="M474.261,206.353c0,.1,0,.19,0,.286a42.678,42.678,0,0,0,8.93,25.578,47.8,47.8,0,0,0,9.956,9.623c1.757,1.267,3.366,2.71,5.174,3.876,1.783,1.149,3.686,2.893,3.394,5.227-.3,2.375-2.694,3.789-4.328,5.537-3.57,3.822-3.61,9.615-4.97,14.666-1.963,7.289-6.892,13.366-10.164,20.169-4.318,8.977-5.673,19.046-6.974,28.922-5.121,38.908-10.125,79.314,1.768,116.712a3.313,3.313,0,0,0,3.93,3.029l47.275-.478c5.772-.058,11.633-.13,17.169-1.769-5.007-6.314-6.3-14.871-5.761-22.911s2.714-15.875,3.893-23.846c3.1-20.94-.479-43.482,8.928-62.446,3.957-7.977,10.093-14.973,12.357-23.584,3.1-11.8-1.639-24.247-.848-36.427.339-5.218,1.02-11.848-3.6-14.3-1.76-.936-3.951-.951-5.555-2.134-3.137-2.313-2.017-7.441.571-10.355,2.139-2.409,4.957-4.1,7.085-6.516a49.311,49.311,0,0,0,5.583-7.145,42.182,42.182,0,0,0,6.1-21.712c0-25.026-22.366-45.314-49.956-45.314S474.261,181.327,474.261,206.353Z" transform="translate(-436.384 -161.039)" fill="#fff"/>
    <path id="Path_14" data-name="Path 14" d="M648.3,657.548a2.158,2.158,0,0,1-.106-.406,15.981,15.981,0,0,1-.016-2.336q0-8.511.359-17.015c.262-6.216.673-12.656,1.222-19.139.523-6.193,1.188-12.6,1.976-19.076.749-6.135,1.631-12.517,2.623-18.966q1.758-11.411,4.092-22.718c.238-1.15,1.086-2.29,1.126-3.453.012-.382-.124-.752-.116-1.138a10.631,10.631,0,0,1,.373-1.955q.865-3.979,1.787-7.941c1.092-4.693,2.607-10.85,4.637-16.876a84.448,84.448,0,0,1,7.055-15.894,59.365,59.365,0,0,1,9.533-12.417,46.028,46.028,0,0,1,5.921-4.922,39.288,39.288,0,0,1,3.379-2.1c1.077-.6,2.189-1.1,3.294-1.644a6.679,6.679,0,0,0,.839-.589,2.777,2.777,0,0,1,1.272-.358,7.006,7.006,0,0,1,1.623,0,1.989,1.989,0,0,1,.979.322,2.3,2.3,0,0,1,.545,2.112,44.187,44.187,0,0,1-1.659,8.549,9.263,9.263,0,0,0-.575,3.349,3.421,3.421,0,0,0,.48,1.485.461.461,0,0,0,.378.281,4.967,4.967,0,0,0,1.468-.2,9.714,9.714,0,0,1,2.062-.3,6.144,6.144,0,0,1,3.243,1.142c.493.32.936.7,1.415,1.038a1.756,1.756,0,0,0,.553.237,14.165,14.165,0,0,1,2.725,1.425,42.721,42.721,0,0,1,5.741,4.382,34.5,34.5,0,0,1,5.315,5.662,22.837,22.837,0,0,1,3.751,7.935,18.369,18.369,0,0,1,.557,4.376c0,1.471-.411,2.852-.485,4.3-.046.885.138,1.738.052,2.632-.138,1.415-.349,2.827-.565,4.232-.435,2.815-.968,5.611-1.509,8.406-.433,2.234-.872,4.47-1.272,6.712-.754,4.246-1.365,8.518-1.976,12.79q-6.771,47.364-13.539,94.727a17.816,17.816,0,0,1-4.725.162,11.9,11.9,0,0,0-2.6-.185c-1.509,0-3.018-.012-4.53-.012q-6.375-.013-12.754-.038-1.692-.006-3.386-.017c-.719,0-1.431.085-2.15.084a9.126,9.126,0,0,1-1.623-.319c-.635-.109-1.338-.046-1.98-.136a29.339,29.339,0,0,0-3.505-.787,6.469,6.469,0,0,0-2.22.194,5.936,5.936,0,0,1-2.34.444,8.921,8.921,0,0,0-2.108.238,13.887,13.887,0,0,1-3.25.048c-1.709-.033-3.392-.136-5.089-.175a2.963,2.963,0,0,1-1.309-.271c-.241-.119-.445-.35-.687-.456-.128-.056-.281.083-.367.052a8.064,8.064,0,0,1-2.511-2.286,4.485,4.485,0,0,1-.591-1.036c-.1-.244-.1-.517-.192-.746-.054-.125-.2-.258-.238-.383-.11-.333-.29-.675-.407-1.015" transform="translate(-645.425 -383.805)" fill="#3cbbd4"/>
    <path id="Path_15" data-name="Path 15" d="M518.3,453.463a4.065,4.065,0,0,1-1.24-.551L496.2,440.5a4.475,4.475,0,0,1-2.356-3.3c-.152-1.441.9-3.018,1.479-4.267.25-.539.327-1.133.586-1.665a12.213,12.213,0,0,1,1.749-2.319,69.59,69.59,0,0,0,4.4-5.5,24.753,24.753,0,0,0,3.172-6.678,16.092,16.092,0,0,0,.8-3.606,2.538,2.538,0,0,0-.22-1.124,16.882,16.882,0,0,1-.659-4.072c-.07-.648-.143-1.319-.229-1.973-.272-2.114-.549-4.3-.708-6.52a37.537,37.537,0,0,1,.043-6.541.433.433,0,0,1,.427-.391.371.371,0,0,1,.366.284c.688,2.264,1.24,4.609,1.77,6.879.511,2.176,1.037,4.442,1.7,6.628.085.278.171.534.258.785.165.46.357.943.541,1.4.74,1.6,1.576,3.783,1.109,5.555a10.477,10.477,0,0,1-1.9,4.263,94.183,94.183,0,0,0-9.967,15.168c-.695,1.319-1.026,3.14.415,4.1.562.372,1.208.622,1.789.966,4.7,2.777,9.219,5.87,13.753,8.9l2.866,1.917a190.357,190.357,0,0,1-.688-21.91c.053-1.99.156-4.044.31-6.107.056-.727.146-1.481.233-2.21a28.179,28.179,0,0,0,.286-4c-.045-1.533-1.406-2.623-2.612-3.582-.163-.13-.314-.252-.466-.376l-.351-.291c-.4-.336-.834-.669-1.238-.992a23.311,23.311,0,0,1-3.255-2.9.067.067,0,0,1-.013-.077.078.078,0,0,1,.077-.038,16.45,16.45,0,0,1,5.466,2.454l.338.212c.209.124.421.261.648.4a10.573,10.573,0,0,1,3.512,2.871c.5.626.4,1.479.77,2.108.073.122.259.122.344.25a5.323,5.323,0,0,1,.38,1.716,30.155,30.155,0,0,1,.414,3.672c.137,2.477.032,4.959-.075,7.434q-.487,11.216-.97,22.433c-.055,1.24-.389,2.819-1.616,3.027a1.556,1.556,0,0,1-.565-.013" transform="translate(-391.505 -318.501)" fill="#040505"/>
    <path id="Path_16" data-name="Path 16" d="M674.677,474.462c-.644-4.187.906-8.384,2.667-12.235.964-2.107,2-4.187,2.817-6.355a25.4,25.4,0,0,0,1.028-3.337c.126-.549.233-1.107.3-1.667a14.5,14.5,0,0,1,1.364-3.982,17.5,17.5,0,0,1,2.674-4.249,9.8,9.8,0,0,1,3.435-2.251l.154-.073.581-.278a8.6,8.6,0,0,1,3.677-.887,6.648,6.648,0,0,1,.744.041.351.351,0,0,1,.314.314.292.292,0,0,1-.229.314,9.041,9.041,0,0,0-1.988.746,8.947,8.947,0,0,0-.912.541,2.944,2.944,0,0,0-.806.6,1.8,1.8,0,0,0,.344,1.7q.651,1.029,1.3,2.063a12.139,12.139,0,0,1,2.086,4.639,8.756,8.756,0,0,0,.259,1.577c.28.851.633,1.669.893,2.529l3.193,10.487c-.727-.7-2.058-.456-2.731-1.208a2.517,2.517,0,0,1-.441-.875q-.5-1.433-1.007-2.864-1.225-3.495-2.454-6.985l-1.225-3.493a9.34,9.34,0,0,0-.6-1.605,8.326,8.326,0,0,0-1.347-2.054c-.333-.3-.481-.077-.782.184a2.889,2.889,0,0,0-.449.434,12.022,12.022,0,0,0-1.22,2.572,53.358,53.358,0,0,0-1.749,5.136c-.113.366-.229.746-.342,1.114l-.186.59c-1,3.172-2.014,6.348-2.873,9.035l-1.923,6.017c.5-.233,1.041-.43,1.558-.624.322-.12.656-.237.975-.372l4.593-1.879c.526-.214,1.058-.453,1.62-.708.96-.432,1.951-.881,2.965-1.223a11.65,11.65,0,0,1,2.873-.571,4.827,4.827,0,0,0,.632-.079,2.149,2.149,0,0,1,.84-.069c.635.109,4.01,1.7,2.411,2.8a6.206,6.206,0,0,1-2.268.753c-.034.006-.068.013-.1.021-1.593.31-3.136.915-4.718,1.347l-5.354,1.468-5.354,1.466c-.479.132-5.248,1.221-5.248,1.439" transform="translate(-626.291 -350.198)" fill="#040505"/>
    <path id="Path_17" data-name="Path 17" d="M597.339,651.446a72.245,72.245,0,0,0-5.69-10.318,3.044,3.044,0,0,0-1.236-1.235,1.079,1.079,0,0,0-1.462.553,1.505,1.505,0,0,0,.193.973c2.294,4.978,7,8.762,8.343,14.078-.1-.4.524-1.483.684-1.868.265-.65.56-1.287.879-1.913a26.343,26.343,0,0,1,8.1-9.4c.192-.137,1.541-.808,1.37-1.227-.13-.318-1.045-.124-1.268-.09a9.949,9.949,0,0,0-4.792,2.05,14.439,14.439,0,0,0-2.6,3.561,39.6,39.6,0,0,0-2.52,4.837" transform="translate(-508.869 -486.676)" fill="#040505"/>
    <path id="Path_18" data-name="Path 18" d="M613.855,706.212c.872,4.959,2.584,9.73,3.683,14.644a120.845,120.845,0,0,1,1.873,12.293c.426,3.606.842,7.212,1.182,10.827a139.416,139.416,0,0,1,.692,19.24c-.239,5.37-1.454,10.378-2.2,15.63-.282,1.981.19,4.111-.094,6.1-.475,3.326.014,9-4.737,8.054-.259-2.11.673-3.185.921-5.209.128-1.062-.214-2.2-.062-3.262a12.665,12.665,0,0,1,1.238-2.971c.742-1.789.534-3.306.7-5.186.348-3.9.231-7.6.327-11.506.149-5.949.464-11.9.365-17.851-.049-2.96-.2-5.921-.528-8.864a19.673,19.673,0,0,1-.346-2.992c.013-.267.049-.535.068-.8a28.925,28.925,0,0,0,.043-3.074,53.9,53.9,0,0,0-2.221-12.173c-1.1-4.027-2.366-8.02-3.157-12.124a38.518,38.518,0,0,1-.731-6.449,6.654,6.654,0,0,1,.637-3.935c.776-1.261.787-2.944,1.013-4.374a13.851,13.851,0,0,1,.81-3.322c.44-1.024,1.12-1.93,1.571-2.948,1.107-2.5.746-5.44,1.783-7.966.124-.3.306-.622.622-.684.643-.128.868.823.784,1.471-.231,1.763-.56,3.512-.955,5.246-.528,2.315-1.18,4.6-1.885,6.865q-.532,1.7-1.1,3.392-.282.847-.566,1.691c-.1.291-.218.584-.295.878a8.591,8.591,0,0,0-.088,2.179,43.445,43.445,0,0,0,.65,7.18" transform="translate(-528.729 -512.179)" fill="#040505"/>
    <path id="Path_19" data-name="Path 19" d="M216.248,549.69l-.095-2.932c-.033-1.012-.068-2.024-.1-3.037a11.817,11.817,0,0,1,.222-1.632,17.036,17.036,0,0,0,0-3.339c-.2-2.277-.669-4.521-.817-6.8a42.307,42.307,0,0,1,.12-5.608q.281-4.111.657-8.214a32.153,32.153,0,0,1,.929-5.9,26.276,26.276,0,0,1,2.343-5.379q1.127-2.056,2.411-4.018.641-.98,1.32-1.935c.215-.3.471-.594.658-.915.375-.645.957-1.106,1.348-1.737a12.52,12.52,0,0,1,1.449-1.871,5.33,5.33,0,0,1,3.782-1.993c1.8,0,3.136,1.225,4.327,2.418a4.152,4.152,0,0,0,1.484.942,14.028,14.028,0,0,1,1.864,1.056l6.308,3.881c1.98-10.421-.248-21.4,2.407-31.671.467-1.8,1.081-3.564,1.7-5.322a83.26,83.26,0,0,1,8.318,1.275,70.7,70.7,0,0,1,10.159,2.911,77.6,77.6,0,0,1,9.532,4.294,78.749,78.749,0,0,1,16.917,12.147,86.465,86.465,0,0,1,7.113,7.548,100.824,100.824,0,0,1,11.581,17.307c1.587,2.983,3.109,6.15,4.522,9.415q1.468,3.383,2.761,6.842a20.324,20.324,0,0,0,1.037,2.85,8,8,0,0,1,1.06,2.778,48.369,48.369,0,0,0,1.932,6.448c1.147,3.868,2.176,7.769,3.119,11.692,1.314,5.467,2.467,11.068,3.59,16.508.271,1.319.552,2.681.831,4.022l.2.951c1.291,6.23,2.759,13.6,3.848,21.01a151.734,151.734,0,0,1,1.857,22.233,86.742,86.742,0,0,1-.61,10.6,36.755,36.755,0,0,1-1.872,8.842,19.1,19.1,0,0,1-9.04,10.4,26.9,26.9,0,0,1-6.506,2.395,46.054,46.054,0,0,1-6.865,1.033c-1.924.154-3.989.23-6.315.23-1.318,0-2.618-.057-3.931-.147a49.147,49.147,0,0,1-6.774-1.026,7.6,7.6,0,0,0-1.236-.048c-.973-.056-1.946-.112-2.919-.152-1.948-.079-3.9-.115-5.848-.12-3.908-.01-7.815.105-11.72.257s-7.813.341-11.721.478-7.791.222-11.688.166a52.22,52.22,0,0,1-6.97-.286,15.078,15.078,0,0,0-2.508-.487c-1.367.009-2.735.024-4.1.036l-8.2.072a2.186,2.186,0,0,1-2.473-2.093q-.906-2.724-1.57-5.521a8.54,8.54,0,0,0-.723-2.1,9.7,9.7,0,0,1-.513-1.442q-.56-1.7-1.044-3.422-.914-3.257-1.551-6.582-.543-2.834-.881-5.7a11.392,11.392,0,0,0-.174-1.348c-.064-.264-.189-.5-.271-.758a2.569,2.569,0,0,1-.1-.5c-.094-.86-.092-1.741-.134-2.605q-.181-3.74-.347-7.481c-.648-14.613-1.12-29.233-1.591-43.853l-.383-11.892Z" transform="translate(-117.806 -368.247)" fill="#3cbbd4"/>
    <g id="Group_6" data-name="Group 6" transform="translate(96.337 95.103)">
      <path id="Path_20" data-name="Path 20" d="M329.183,631.712a18.5,18.5,0,0,1-3.534,6h-6.03a15.413,15.413,0,0,0,5.737-7.33,32.906,32.906,0,0,0,1.712-7.986l.007-.068.006-.066a82.47,82.47,0,0,0,.6-10.228,148.238,148.238,0,0,0-1.862-21.991c-1.1-7.423-2.595-14.819-3.907-21.072l-.2-.962-.609-2.916-.246-1.169c-1.139-5.463-2.317-11.115-3.655-16.613-1.009-4.147-2.037-7.958-3.144-11.652-.188-.626-.425-1.289-.676-1.99a27.2,27.2,0,0,1-1.436-5.117,4.383,4.383,0,0,0-.6-1.406,12.814,12.814,0,0,1-1.071-2.664c-.083-.267-.162-.536-.261-.793-.883-2.328-1.811-4.6-2.758-6.752-1.4-3.2-2.918-6.314-4.506-9.264a98.274,98.274,0,0,0-11.41-16.848,84.852,84.852,0,0,0-6.968-7.3,76.851,76.851,0,0,0-25.781-15.833,69.536,69.536,0,0,0-9.848-2.787l-1.986-.413-7.163-1.447a15.674,15.674,0,0,1-.41,2.61c-1.259,4.8-.907,8.967-.53,13.372.376,4.433.765,9.018-.3,14.576l-1.1,5.724-4.987-3.031c-1.689-1.028-2.794-1.71-3.9-2.394-1.088-.674-2.176-1.347-3.837-2.358a21,21,0,0,1-2.681-1.975l-.295.46c-4.728,7.37-10.087,15.724-11.009,24.624a58.651,58.651,0,0,0,.013,8.984c.038.746.077,1.49.109,2.234.16,3.739.169,7.533.026,11.276-.071,1.89-.182,3.8-.331,5.686l-.024.306a15.35,15.35,0,0,1-.38,2.71c-.009.139.006.457.017.673.013.235.023.468.028.7.143,7.364.312,14.828.5,22.187s.413,14.828.654,22.186q.109,3.383.229,6.765c.131,3.764.291,7.787.575,11.71a100.666,100.666,0,0,0,2.9,18.979c.444,1.654.945,3.266,1.492,4.795.477,1.333,1,2.629,1.561,3.874H213.5c-.341-.831-.667-1.669-.97-2.515q-.9-2.523-1.588-5.109a105.524,105.524,0,0,1-3.025-19.734c-.286-3.948-.445-7.9-.583-11.859q-.119-3.385-.229-6.774-.366-11.1-.654-22.211t-.507-22.218a8.918,8.918,0,0,1,.068-2.4,13.7,13.7,0,0,0,.3-2.386q.218-2.754.323-5.521.208-5.47-.028-10.949a80.916,80.916,0,0,1-.1-11.805c1-9.653,6.385-18.22,11.628-26.392-1.263-.376-2.862-5.314-4-5.994h.009c.361,0,1.659-.594,2.048-.594h.026c4.1.348,6.9,4.7,10.412,6.829,3.352,2.037,4.382,2.715,7.734,4.752,2.033-10.57-1.834-17.8.891-28.209.479-1.83.254-4.452.893-6.237,2.864.293,10.575,1.971,13.4,2.545a73.316,73.316,0,0,1,10.429,2.952,80.854,80.854,0,0,1,27.153,16.673,88.763,88.763,0,0,1,7.3,7.654,102.018,102.018,0,0,1,11.887,17.551c1.631,3.025,3.194,6.237,4.645,9.55q1.507,3.431,2.834,6.936a20.443,20.443,0,0,0,1.064,2.892,8.047,8.047,0,0,1,1.088,2.815,48.33,48.33,0,0,0,1.984,6.539c1.178,3.922,2.234,7.879,3.2,11.859,1.349,5.545,2.533,11.222,3.683,16.741.28,1.336.569,2.719.855,4.076l.2.964c1.325,6.319,2.832,13.793,3.95,21.309a151.748,151.748,0,0,1,1.9,22.547,86.921,86.921,0,0,1-.624,10.75A36.8,36.8,0,0,1,329.183,631.712Z" transform="translate(-205.896 -458.388)" fill="#040505"/>
      <path id="Path_21" data-name="Path 21" d="M355.368,811.254c-.066-.453-.248-.887-.312-1.338-.113-.8-.079-1.569-.229-2.366-.254-1.357-.226-2.738-.43-4.1a27.34,27.34,0,0,1-.338-4.243c.009-2.21-.485-4.4-.582-6.607-.062-1.4.009-2.828.009-4.234,0-1.877-.115-3.79.043-5.663.141-1.669.182-3.339.3-5.008a48.511,48.511,0,0,0-.158-5.346c-.1-2.582.342-5.181.4-7.757.047-1.992-.009-3.995-.009-5.989,0-4.384.289-8.877-.137-13.238-.338-3.461-1.238-6.949-1.2-10.433a20.871,20.871,0,0,0-.346-3.578c-.282-1.768-.376-3.6-.6-5.384-.193-1.533-.876-3.027-.977-4.57-.047-.743-.193-1.729.673-1.951.609-.156.656.135.844.583a28.259,28.259,0,0,1,1.3,4.965q.593,2.738,1.191,5.477.853,3.924,1.708,7.847.157.718.312,1.434c4.367,20.063,4.083,40.746,3.809,60.749-.066,4.842-.133,9.816-.134,14.743h-5.081A22.616,22.616,0,0,0,355.368,811.254Z" transform="translate(-281.263 -635.918)" fill="#040505"/>
    </g>
    <g id="Group_7" data-name="Group 7" transform="translate(0 102.516)">
      <path id="Path_22" data-name="Path 22" d="M722.137,531.451c-.148,1.454-.372,2.9-.6,4.343-.464,2.888-1.035,5.757-1.614,8.621-.464,2.294-.934,4.587-1.361,6.887-.81,4.356-1.465,8.738-2.116,13.12q-6.643,44.527-13.287,89.051h-4.1l6.126-41.059,7.248-48.588c.648-4.344,1.319-8.835,2.14-13.261.381-2.046.8-4.1,1.2-6.092l.173-.857c.579-2.862,1.135-5.66,1.586-8.464.216-1.334.436-2.749.575-4.108a6.225,6.225,0,0,0-.03-.768,13.3,13.3,0,0,1-.041-1.735,21.089,21.089,0,0,1,.3-2.424,11.628,11.628,0,0,0,.212-1.764,14.1,14.1,0,0,0-.468-3.486,19.041,19.041,0,0,0-3.317-6.7c-2.968-3.89-7-6.815-11.02-9.525a12.36,12.36,0,0,1-2.636-2.121,5.539,5.539,0,0,0-4.644-1.653c-1.605.188-3.285,1.236-4.714.479-1.391-.737-1.511-2.658-1.364-4.225a44.875,44.875,0,0,1,2.461-11.02c-1.179-.379-2.427.267-3.451.962a13.612,13.612,0,0,1-2.839,1.469,12.057,12.057,0,0,0-2.172,1.42,42.967,42.967,0,0,0-5.353,4.312,57.235,57.235,0,0,0-9.527,11.887,81.272,81.272,0,0,0-7.21,15.568c-2.114,6.015-3.7,12.205-4.85,16.927-.635,2.614-1.274,5.333-1.9,8.086-.049.216-.1.434-.162.654-.037.141-.088.334-.116.449a6.475,6.475,0,0,1,.1,1.319,9.162,9.162,0,0,1-1,3.557c-.107.231-.267.584-.3.693-1.648,7.657-3.11,15.427-4.341,23.094-1.054,6.556-1.992,13.058-2.789,19.325-.84,6.592-1.546,13.125-2.1,19.415-.581,6.582-1.017,13.127-1.293,19.456-.28,6.362-.406,12.691-.378,18.779h-4.24c.085-1.479.182-2.953.193-4.462q.036-4.608.177-9.217.08-2.639.2-5.278c.28-6.376.718-12.984,1.306-19.633.562-6.353,1.274-12.932,2.118-19.569.8-6.295,1.744-12.84,2.809-19.456q1.879-11.706,4.382-23.305c.254-1.18,1.163-2.349,1.206-3.542.013-.391-.132-.772-.124-1.167a10.223,10.223,0,0,1,.4-2.005q.923-4.082,1.913-8.149c1.169-4.811,2.79-11.128,4.963-17.312a84.953,84.953,0,0,1,7.556-16.3,61.338,61.338,0,0,1,10.2-12.735,48.913,48.913,0,0,1,6.342-5.049,43.7,43.7,0,0,1,5.659-3.193c.918-.431,1.91-.745,2.8-1.217a3.549,3.549,0,0,1,2.486-.177,2.574,2.574,0,0,1,1.81,1.369,3.2,3.2,0,0,1,.17,1.488,17.059,17.059,0,0,1-.918,3.851,3.05,3.05,0,0,0-.1.607,6.275,6.275,0,0,1-.55,1.576,32.477,32.477,0,0,0-1.2,3.714q-.156.6-.288,1.216a9.087,9.087,0,0,0-.141,1.718,1.574,1.574,0,0,0,.286,1.2,2.856,2.856,0,0,0,2.494.659l3.672-.215,1.836-.108a2.714,2.714,0,0,0,.633-.11,2.138,2.138,0,0,1,1.178.121,2.951,2.951,0,0,1,.866.379c.239.173.188.285.305.5.15.275.868.574,1.134.751l.878.585q1.024.687,2.037,1.389c1.251.87,2.484,1.767,3.68,2.712a37.7,37.7,0,0,1,6.686,6.612,23,23,0,0,1,4.018,8.142,18.2,18.2,0,0,1,.6,4.489c0,1.509-.443,2.924-.522,4.41C722.034,529.66,722.23,530.536,722.137,531.451Z" transform="translate(-638.93 -481.563)" fill="#040505"/>
      <path id="Path_23" data-name="Path 23" d="M775.937,809.226a11.356,11.356,0,0,0,.374-2.091c.13-.793.258-1.578.372-2.369.13-.919.652-1.688.752-2.642.235-2.259.457-4.525.793-6.774.2-1.351.344-2.71.567-4.053.135-.82.458-1.595.545-2.428.145-1.4.156-2.83.22-4.239.051-1.156.41-2.3.551-3.452.1-.859.178-1.7.317-2.559a63.311,63.311,0,0,1,1.9-6.836c.564-2.013,1.441-4,1.817-6.06.464-2.557.793-5.149,1.118-7.736.3-2.381,1.219-4.681,1.4-7.077.235-3.119.77-6.133.761-9.279-.015-4.283,0-8.567,0-12.851,0-3.61-.479-7.325.143-10.895.22-1.253.24-2.552.445-3.792.073-.44.357-1.571.8-1.77,1.249-.571,1.661,2.229,1.68,3.025a6.278,6.278,0,0,0,.2,1.34c.036.171-.006.353.032.528a3.478,3.478,0,0,1,.152.421c.066.451-.026.885.07,1.34a8.206,8.206,0,0,0,.284.926,8.066,8.066,0,0,1,.231,2.4q.087,2.96.062,5.919c-.032,3.959-.205,7.915-.481,11.863-.276,3.927-.654,7.847-1.1,11.759s-.97,7.821-1.529,11.72c-.552,3.856-1.139,7.705-1.731,11.555q-.109.7-.218,1.411c-1.319,8.574-2.685,17.44-3.636,26.12a35.827,35.827,0,0,1-.923,4.679c-.26,1.059-.507,2.083-.657,3.045h-5.672A10.185,10.185,0,0,1,775.937,809.226Z" transform="translate(-751.551 -638.467)" fill="#040505"/>
    </g>
  </g>
  <g id="Head" transform="translate(28.797 0)">
    <g id="Group_8" data-name="Group 8">
      <path id="Path_24" data-name="Path 24" d="M383.663,123.795c-.021-1.682-.391-3.236-.565-4.918a26.3,26.3,0,0,1,.374-5.688c.857-7.432,1.584-14.894,3.144-22.219,2.169-10.194,6.227-19.826,13.313-27.593a59.053,59.053,0,0,1,23.344-15.292c17.147-6.3,36.87-4.878,53.457,2.48a71.4,71.4,0,0,1,35.124,34.9,93.358,93.358,0,0,1,4.6,12.357q.93,3.162,1.633,6.38a44.419,44.419,0,0,1,1.214,4.882,99.622,99.622,0,0,1-7.569,48.426,13.809,13.809,0,0,1-4.354,6.043c-2.7,2-5.166,1.631-8.571,1.746l-11.412.385q-3,.1-6,.2l-2.854.1-1.424.047c-.385.013-1.013.257-1.054-.023a1.179,1.179,0,0,1-.231.1,2,2,0,0,0-.271.169,1.613,1.613,0,0,1-1.642,0l-.135-.083a1.736,1.736,0,0,1-.733-.853,2.2,2.2,0,0,1-3.572-2.586,2,2,0,0,1,.16-.194c1.073-1.34,11.754-34.183,7.33-59.205l-17.718-2.343c-3.243-.327-9.268-.979-9.268-.979s-1.475-4.809-1.892-6.357c-.03-.113-.062-.231-.1-.344q-.635,1.116-1.276,2.225L444.535,100s-32.27-.541-40.181-.487a106.421,106.421,0,0,0-.483,13.836c.584,8.495,1.2,16.98,2.063,25.454a59.252,59.252,0,0,0,3.856,15.745c3.121,7.9,12.18,15.405,21.014,15.405,5.5,0,17.923-4.45,19.734-5.346a1.411,1.411,0,1,1,1.323,2.492c-.028.015-.055.028-.085.041-3.341,1.986-12.547,6.2-20.971,6.2-12.235,0-21.469-11.6-22.6-13.252-7.281-.389-15.166.462-19.811-6.372-2.12-3.121-3.093-6.87-3.751-10.583a85.532,85.532,0,0,1-.985-18.71c.009-.214.01-.423.009-.631" transform="translate(-383.041 -44.096)" fill="#040505"/>
    </g>
  </g>
  <g id="Face" transform="translate(55.585 59.184)">
    <g id="FACE-2" data-name="FACE">
      <path id="_Ink-2" data-name=" Ink-2" d="M597.085,278.952a9.89,9.89,0,0,0,3.75-.749,10.606,10.606,0,0,0,2.448-1.407,10.442,10.442,0,0,0,1.993-2.01,2.06,2.06,0,0,0,.415-1.6,2.3,2.3,0,0,0-.895-1.44,2.2,2.2,0,0,0-1.311-.457,1.866,1.866,0,0,0-.292.022,2.025,2.025,0,0,0-1.352.9l-.08.111a7.005,7.005,0,0,1-2.568,2.16,5.821,5.821,0,0,1-2.542.593,5.594,5.594,0,0,1-.63-.036,6.621,6.621,0,0,1-2.8-.983,13.113,13.113,0,0,1-2.372-1.979c-.17-.173-.349-.361-.582-.614a.921.921,0,0,0-.484-.369.992.992,0,0,0-.315-.05,1.068,1.068,0,0,0-.877.458.981.981,0,0,0-.166.644,5.913,5.913,0,0,0,.7,2.29,7.655,7.655,0,0,0,1.5,1.925,9.632,9.632,0,0,0,2.269,1.583,9.451,9.451,0,0,0,2.519.86A9.259,9.259,0,0,0,597.085,278.952ZM594.445,264h0a9.057,9.057,0,0,0,3.232-.651,16.312,16.312,0,0,0,3.8-2.158,1.46,1.46,0,0,0,.531-.844,1.75,1.75,0,0,0-.075-.947,2.157,2.157,0,0,0-.64-.925,1.56,1.56,0,0,0-1-.39,1.417,1.417,0,0,0-.772.237l-.257.2h0a20.55,20.55,0,0,1-2.379,1.655,5.857,5.857,0,0,1-2.852.909,3.076,3.076,0,0,1-1.205-.237,3.369,3.369,0,0,1-1.122-.8,3.439,3.439,0,0,1-.652-2.771,5.238,5.238,0,0,1,1.388-2.458,10.133,10.133,0,0,1,2.1-1.7.653.653,0,0,0,.177-.75.981.981,0,0,0-.324-.467.993.993,0,0,0-.62-.205,1.33,1.33,0,0,0-.222.02,7.052,7.052,0,0,0-2.48.9,5.629,5.629,0,0,0-1.667,1.538,6.111,6.111,0,0,0-1.064,4.082,6.713,6.713,0,0,0,.546,2.143,6.25,6.25,0,0,0,1.229,1.843A5.873,5.873,0,0,0,594.445,264Zm21.027-14.6a2.118,2.118,0,0,0,1.375-.539,2.144,2.144,0,0,0,.722-1.386,15.627,15.627,0,0,0-.083-4.064c-.049-.395-.1-.8-.135-1.244a2.435,2.435,0,0,0-.922-1.739,2.837,2.837,0,0,0-1.746-.614,2.152,2.152,0,0,0-1.321.415,1.958,1.958,0,0,0-.73,1.3,10.907,10.907,0,0,0,1.138,6.72,2.152,2.152,0,0,0,.761.88A1.754,1.754,0,0,0,615.473,249.4Zm-30.865-.921a1.853,1.853,0,0,0,1.454-.623,5.679,5.679,0,0,0,.886-1.509,6.562,6.562,0,0,0,.452-1.815,3.848,3.848,0,0,0-1.048-3.3,2.2,2.2,0,0,0-.169-.256,2.374,2.374,0,0,0-1.827-1.052,1.968,1.968,0,0,0-.556.082,2.672,2.672,0,0,0-1.785,1.558,5.512,5.512,0,0,0-.221,3.014,10.079,10.079,0,0,0,.914,2.843,1.843,1.843,0,0,0,.79.78,2.392,2.392,0,0,0,1.108.278Zm40.18-9.684a.337.337,0,0,0,.281-.172.376.376,0,0,0,.022-.368,12.812,12.812,0,0,0-2.872-3.637,17.762,17.762,0,0,0-3.849-2.626,16.525,16.525,0,0,0-4.563-1.6l-.492-.085a11.838,11.838,0,0,0-1.981-.211,3.071,3.071,0,0,0-2.457.917,2.088,2.088,0,0,0-.492,1.484,1.358,1.358,0,0,0,.492.969,3.786,3.786,0,0,0,2.6.762c.2,0,.415,0,.614-.01h.017c.2,0,.419-.011.64-.011s.386,0,.555.015a17.534,17.534,0,0,1,3.862.659,26.242,26.242,0,0,1,7.446,3.853A.321.321,0,0,0,624.788,238.79Zm-47-1.966h0l.205-.052a11.615,11.615,0,0,0,2.254-.875l.737-.36a20.286,20.286,0,0,1,2.61-1.115,30.813,30.813,0,0,1,5.954-1.315,2.433,2.433,0,0,0,1.194-.453,1.792,1.792,0,0,0,.669-1.017,1.822,1.822,0,0,0-.209-1.532,1.943,1.943,0,0,0-.942-.812,2.115,2.115,0,0,0-.8-.153,2.348,2.348,0,0,0-.463.047l-.369.076a26.622,26.622,0,0,0-6.429,2.089,13,13,0,0,0-2.826,1.86,8.266,8.266,0,0,0-2,2.58c-.07.54,0,.673.068.764l.013.029.019.025a.517.517,0,0,0,.319.212Z" transform="translate(-577.344 -229.14)" fill="#030504"/>
    </g>
  </g>
</svg>
