<svg id="instagram-seeklogo.com" xmlns="http://www.w3.org/2000/svg" width="46.242" height="46.242" viewBox="0 0 46.242 46.242">
  <path id="Path_135" data-name="Path 135" d="M23.121,4.166c6.174,0,6.9.023,9.343.135a12.8,12.8,0,0,1,4.293.8,7.165,7.165,0,0,1,2.658,1.73,7.163,7.163,0,0,1,1.729,2.658,12.794,12.794,0,0,1,.8,4.293c.111,2.438.135,3.169.135,9.343s-.023,6.9-.135,9.343a12.794,12.794,0,0,1-.8,4.293,7.656,7.656,0,0,1-4.388,4.388,12.794,12.794,0,0,1-4.293.8c-2.438.111-3.169.135-9.343.135s-6.905-.023-9.343-.135a12.793,12.793,0,0,1-4.293-.8,7.163,7.163,0,0,1-2.659-1.729A7.163,7.163,0,0,1,5.1,36.757a12.794,12.794,0,0,1-.8-4.293c-.111-2.438-.135-3.169-.135-9.343s.023-6.9.135-9.343a12.794,12.794,0,0,1,.8-4.293A7.163,7.163,0,0,1,6.826,6.826,7.164,7.164,0,0,1,9.485,5.1a12.8,12.8,0,0,1,4.293-.8c2.438-.111,3.169-.135,9.343-.135m0-4.166c-6.279,0-7.067.027-9.533.139A16.971,16.971,0,0,0,7.976,1.214a11.333,11.333,0,0,0-4.1,2.667,11.333,11.333,0,0,0-2.667,4.1A16.971,16.971,0,0,0,.139,13.588C.027,16.054,0,16.842,0,23.121s.027,7.067.139,9.533a16.971,16.971,0,0,0,1.075,5.612,11.334,11.334,0,0,0,2.667,4.1,11.333,11.333,0,0,0,4.1,2.667A16.971,16.971,0,0,0,13.588,46.1c2.466.113,3.253.139,9.533.139s7.067-.027,9.533-.139a16.971,16.971,0,0,0,5.612-1.075,11.823,11.823,0,0,0,6.762-6.762A16.971,16.971,0,0,0,46.1,32.654c.113-2.466.139-3.253.139-9.533s-.027-7.067-.139-9.533a16.971,16.971,0,0,0-1.075-5.612,11.333,11.333,0,0,0-2.667-4.1,11.333,11.333,0,0,0-4.1-2.667A16.971,16.971,0,0,0,32.654.139C30.188.027,29.4,0,23.121,0Zm0,11.248A11.873,11.873,0,1,0,34.994,23.121,11.873,11.873,0,0,0,23.121,11.248Zm0,19.58a7.707,7.707,0,1,1,7.707-7.707A7.707,7.707,0,0,1,23.121,30.828ZM38.238,10.779A2.775,2.775,0,1,1,35.463,8,2.775,2.775,0,0,1,38.238,10.779Z" fill="#fff"/>
</svg>
