<svg xmlns="http://www.w3.org/2000/svg" width="42.991" height="42.214" viewBox="0 0 42.991 42.214">
  <path id="LinkedIn" d="M81.237,895.882v16.332H72.023V896.975c0-3.828-1.333-6.441-4.669-6.441A5.059,5.059,0,0,0,62.626,894a6.654,6.654,0,0,0-.305,2.308v15.907H53.1s.124-25.809,0-28.484h9.217v4.037c-.019.03-.043.063-.061.092h.061v-.092a9.115,9.115,0,0,1,8.305-4.706C76.691,883.061,81.237,887.133,81.237,895.882ZM43.462,870a4.928,4.928,0,1,0-.122,9.844H43.4A4.929,4.929,0,1,0,43.462,870Zm-4.669,42.214h9.214V883.73H38.793Z" transform="translate(-38.246 -870)" fill="#fff"/>
</svg>
