<svg xmlns="http://www.w3.org/2000/svg" width="388.632" height="350.579" viewBox="0 0 388.632 350.579">
  <path id="Union_3" data-name="Union 3" d="M99.607,352.068l-.468-.811-1.123-1.945-1.561-2.7L64.922,291.992a104.134,104.134,0,0,1,32.23-138.528L97,153.194l58.672-33.874q2.122-1.22,4.277-2.325l96.67-55.813.156.271a103.884,103.884,0,0,1,135.69,41.543l-.046-.081,31.533,54.618,1.561,2.7,1.123,1.946.468.811a103.853,103.853,0,0,1-39.194,139.2l-.865.5c-2.161,1.248-4.406,2.291-19.526,10.8l-25.755,14.87a4.4,4.4,0,0,1-6.053-1.622l-22.889-39.646a4.524,4.524,0,0,1,1.656-6.181l36.133-20.861c33.926-21.749,40.792-49.927,27.977-72.436l-33.219-57.536-.256-.069a49.275,49.275,0,0,0-67.078-18.134l-17.64,10.184a100.1,100.1,0,0,1,32.3,33.926l.027-.015.421.73a21.23,21.23,0,0,1,1.7,2.624l.515.892.858,1.486,14.349,25.227,7.8,13.512a12.482,12.482,0,0,1-4.569,17.051L198.926,283.808a10.234,10.234,0,0,1-13.982-3.747L169.607,253.5a13.73,13.73,0,0,1,5.037-18.8l70.265-40.568a5.867,5.867,0,0,0,2.147-8.014,49.368,49.368,0,0,0-67.08-17.7l-49.7,28.694a49.4,49.4,0,0,0-18.047,67.353l-.069.256,33.219,57.536A49.243,49.243,0,0,0,209.4,341.577l52.159-30.114a4.557,4.557,0,0,1,6.208,1.641l22.64,39.214a4.961,4.961,0,0,1-1.816,6.778l-41.267,23.825c-2.042,1.4-4.067,2.817-6.229,4.065l-.892.515A104.062,104.062,0,0,1,99.607,352.068Z" transform="translate(-50.983 -50.877)" fill="#d5d5d5" opacity="0.083"/>
</svg>
