<svg xmlns="http://www.w3.org/2000/svg" width="1383.573" height="1248" viewBox="0 0 1383.573 1248">
  <path id="Union_5" data-name="Union 5" d="M224.09,1123.067l-1.666-2.886c-1.333-2.308-2.054-3.56-4-6.925s-3.723-6.446-5.557-9.622L100.606,909.205C3.152,740.241,53.312,524.666,215.35,416.07l-.556-.964,208.88-120.585q7.553-4.342,15.228-8.278L783.058,87.559l.556.964C958.47,3.035,1169.665,67.69,1266.683,236.408l-.165-.288L1378.78,430.551l5.557,9.619c1.944,3.368,2.666,4.619,4,6.927l1.666,2.886c95.026,175.739,33.233,395.175-139.535,495.518l-3.081,1.779c-7.7,4.444-15.685,8.157-69.515,38.463l-91.689,52.934a15.667,15.667,0,0,1-21.551-5.774L983.142,891.769a16.1,16.1,0,0,1,5.895-22L1117.674,795.5c120.782-77.424,145.224-177.733,99.6-257.861L1099.012,332.824l-.911-.244a175.431,175.431,0,0,0-238.806-64.552l-62.8,36.254a356.35,356.35,0,0,1,114.98,120.771l.1-.055,1.5,2.6a75.572,75.572,0,0,1,6.036,9.341c.666,1.155,1.223,2.117,1.834,3.176l3.054,5.29,51.083,89.8,27.774,48.1a44.433,44.433,0,0,1-16.265,60.7L577.678,880.072A36.437,36.437,0,0,1,527.9,866.735l-54.6-94.568a48.874,48.874,0,0,1,17.934-66.923L741.384,560.83a20.885,20.885,0,0,0,7.645-28.529,175.763,175.763,0,0,0-238.811-63.009L333.281,571.439A175.844,175.844,0,0,0,269.031,811.2l-.244.911,118.262,204.82a175.318,175.318,0,0,0,227.911,68.788l185.691-107.2a16.223,16.223,0,0,1,22.1,5.842l80.6,139.594a17.661,17.661,0,0,1-6.465,24.129L749.971,1232.9c-7.268,4.967-14.479,10.027-22.177,14.471l-3.176,1.834a368.926,368.926,0,0,1-184.943,49.673C415.3,1298.866,294.027,1236.216,224.09,1123.067Z" transform="translate(-50.983 -50.877)" fill="#fff"/>
</svg>
