<svg xmlns="http://www.w3.org/2000/svg" width="83.671" height="60.741" viewBox="0 0 83.671 60.741">
  <g id="EZL-SPOT-H" transform="translate(-43 -35.62)">
    <path id="Path_6" data-name="Path 6" d="M88.08,35.66H118.2v.069a22.986,22.986,0,0,1,21.4,22.972V58.68h0V73.822h0v.207h0A22.979,22.979,0,0,1,116.7,96.366h-.221c-.552,0-1.1-.048-4.937-.09h-6.58a.974.974,0,0,1-.98-.98V85.167a1,1,0,0,1,1-1h9.232c8.907-.414,13.34-5.054,13.374-10.785V58.68l-.041-.041a10.9,10.9,0,0,0-10.847-10.9H104.057" transform="translate(-12.938 -0.012)" fill="#fff"/>
    <path id="Path_7" data-name="Path 7" d="M101.731,59.289v-.38h0v-.228a4.718,4.718,0,0,0-.035-.69V57.8h-.007a22.24,22.24,0,0,0-22.2-22.185H64.5v.069A23.041,23.041,0,0,0,43,58.668h0V73.81h0v.207h0A23.034,23.034,0,0,0,66.02,96.361h.228c.552,0,1.1-.048,1.643-.09H78.435a1.1,1.1,0,0,0,1.1-1.1V85.154a1.008,1.008,0,0,0-1.008-1H65.2A10.9,10.9,0,0,1,55.069,73.368v-14.7l.041-.041A10.93,10.93,0,0,1,66.02,47.717h12.7a10.923,10.923,0,0,1,10.9,10.813h0a1.3,1.3,0,0,1-1.3,1.3H70.363a3.038,3.038,0,0,0-3.045,3.045V69.66a2.265,2.265,0,0,0,2.265,2.265H98.928a2.762,2.762,0,0,0,2.762-2.762V65.711h0Z" transform="translate(0 0)" fill="#fff"/>
  </g>
</svg>
