<svg xmlns="http://www.w3.org/2000/svg" width="247.285" height="60.741" viewBox="0 0 247.285 60.741">
  <g id="EZL-SPOT-H" transform="translate(-43 -35.62)">
    <path id="Path_1" data-name="Path 1" d="M206.544,76.452h-19.72c.649,3.563,2.81,5.455,6.373,5.455,2.486,0,4.143-.863,4.833-2.644h8c-1.678,5.945-6.38,9.08-13.022,9.08-7.947,0-13.671-5.786-13.671-14.051s5.724-14.051,13.671-14.051,13.671,5.786,13.671,14.051C206.655,75.044,206.6,75.748,206.544,76.452Zm-19.671-4.592h12.214c-.649-3.4-2.81-5.185-6.1-5.185S187.522,68.457,186.873,71.861Z" transform="translate(-42.201 -7.621)" fill="#fff"/>
    <path id="Path_2" data-name="Path 2" d="M244.71,88.032H222v-8l14-12.7H222.283V61h21.349v7.961l-13.947,12.7H244.71Z" transform="translate(-55.406 -7.856)" fill="#fff"/>
    <rect id="Rectangle_1" data-name="Rectangle 1" width="7.837" height="27.018" transform="translate(191.465 53.158)" fill="#fff"/>
    <path id="Path_3" data-name="Path 3" d="M293.725,88.032H274.06V61h7.83V81.12h11.835Z" transform="translate(-71.52 -7.856)" fill="#fff"/>
    <rect id="Rectangle_2" data-name="Rectangle 2" width="7.837" height="27.018" transform="translate(223.827 53.158)" fill="#fff"/>
    <path id="Path_4" data-name="Path 4" d="M328.76,87.789h-7.83V60.757h7.726V64.6a8.762,8.762,0,0,1,7.837-4.378c5.613,0,9.832,3.618,9.832,10.861v16.7h-7.837V72.882c0-4.06-1.781-6.166-4.833-6.166s-4.868,2.106-4.868,6.166Z" transform="translate(-86.028 -7.613)" fill="#fff"/>
    <path id="Path_5" data-name="Path 5" d="M374.277,78.738,369.2,88.032H360.44l8.914-13.913L360.93,61h8.645l5.061,8.665L379.407,61h8.645l-8.486,13.119L388.542,88h-8.7Z" transform="translate(-98.258 -7.856)" fill="#fff"/>
    <path id="Path_6" data-name="Path 6" d="M88.08,35.66H118.2v.069a22.986,22.986,0,0,1,21.4,22.972V58.68h0V73.822h0v.207h0A22.979,22.979,0,0,1,116.7,96.366h-.221c-.552,0-1.1-.048-4.937-.09h-6.58a.974.974,0,0,1-.98-.98V85.167a1,1,0,0,1,1-1h9.232c8.907-.414,13.34-5.054,13.374-10.785V58.68l-.041-.041a10.9,10.9,0,0,0-10.847-10.9H104.057" transform="translate(-12.938 -0.012)" fill="#fff"/>
    <path id="Path_7" data-name="Path 7" d="M101.731,59.289v-.38h0v-.228a4.718,4.718,0,0,0-.035-.69V57.8h-.007a22.24,22.24,0,0,0-22.2-22.185H64.5v.069A23.041,23.041,0,0,0,43,58.668h0V73.81h0v.207h0A23.034,23.034,0,0,0,66.02,96.361h.228c.552,0,1.1-.048,1.643-.09H78.435a1.1,1.1,0,0,0,1.1-1.1V85.154a1.008,1.008,0,0,0-1.008-1H65.2A10.9,10.9,0,0,1,55.069,73.368v-14.7l.041-.041A10.93,10.93,0,0,1,66.02,47.717h12.7a10.923,10.923,0,0,1,10.9,10.813h0a1.3,1.3,0,0,1-1.3,1.3H70.363a3.038,3.038,0,0,0-3.045,3.045V69.66a2.265,2.265,0,0,0,2.265,2.265H98.928a2.762,2.762,0,0,0,2.762-2.762V65.711h0Z" transform="translate(0 0)" fill="#fff"/>
  </g>
</svg>
