<svg xmlns="http://www.w3.org/2000/svg" width="61.149" height="44.391" viewBox="0 0 61.149 44.391">
  <g id="Group_10" data-name="Group 10" transform="translate(-1747.851 -1926.61)">
    <path id="Path_25" data-name="Path 25" d="M87.2,35.66h22.016v.05A16.8,16.8,0,0,1,124.856,52.5v-.015h0V63.55h0V63.7h0a16.794,16.794,0,0,1-16.743,16.324h-.161c-.4,0-.8-.035-3.608-.066H99.535a.711.711,0,0,1-.717-.717v-7.4a.732.732,0,0,1,.732-.732H106.3c6.51-.3,9.749-3.694,9.774-7.882V52.484l-.03-.03a7.968,7.968,0,0,0-7.927-7.963H98.874" transform="translate(1684.144 1890.969)" fill="#00549f"/>
    <path id="Path_26" data-name="Path 26" d="M85.922,52.918v-.278h0v-.167a3.447,3.447,0,0,0-.025-.5v-.136h-.005A16.254,16.254,0,0,0,69.669,35.62H58.714v.05A16.839,16.839,0,0,0,43,52.464h0V63.53h0v.151h0A16.834,16.834,0,0,0,59.824,80.011h.167c.4,0,.8-.035,1.2-.066H68.9a.8.8,0,0,0,.8-.8V71.821a.737.737,0,0,0-.737-.732H59.223a7.963,7.963,0,0,1-7.4-7.882V52.464l.03-.03a7.988,7.988,0,0,1,7.973-7.973H69.1a7.983,7.983,0,0,1,7.963,7.9h0a.949.949,0,0,1-.949.949H63a2.22,2.22,0,0,0-2.225,2.225V60.5a1.655,1.655,0,0,0,1.655,1.655H83.874a2.018,2.018,0,0,0,2.018-2.018V57.611h0Z" transform="translate(1704.851 1890.989)" fill="#f04d98"/>
  </g>
</svg>
