<svg xmlns="http://www.w3.org/2000/svg" width="216.467" height="319.114" viewBox="0 0 216.467 319.114">
  <g id="Group_2" data-name="Group 2" transform="translate(0)">
    <path id="_Background" data-name=" Background" d="M-1697.129,150.447c-1.056-6.387,2.408-7.712,0-13.784-5.356-11.248-19.939-10.762-30.642-11.628-11.939-.463-24.021,1.119-35.026,5.906a56.428,56.428,0,0,0-7.582,4.011,3.308,3.308,0,0,0-1.014,4.567,3.3,3.3,0,0,0,.527.636c-9.53,13.5-4.079,31.626-11.682,45.836-1.4,2.54-3.263,4.821-4.484,7.461-1.855,4.017-1.974,9.779,2.234,12.442,5.928,3.183,9.236-3.119,12.148,6.017,1.853,4.056,4.33,7.616,6.612,11.4a16.2,16.2,0,0,1,1.711,4.132c.151.567.3.965-.062,1.361a5.3,5.3,0,0,1-1.345.618,25.168,25.168,0,0,0-2.609,1.416,10.3,10.3,0,0,0-3.861,3.985,17.111,17.111,0,0,0-1.214,6.19c-1.3,14.974-7.882,29.035-9.881,43.931-.856,6.383-.783,13.2,2.3,18.852,4.752,8.716,15.219,12.413,24.921,14.512a170.772,170.772,0,0,0,36.068,3.843c9.67,0,19.588-.875,28.325-5.017s16.156-12.085,17.46-21.666a16.032,16.032,0,0,0-.8-8.153c-1.26-3.113-3.721-5.55-5.992-8.024a93.881,93.881,0,0,1-20.1-34.494c-1.165-3.606-2.117-7.433-1.422-11.158a10.559,10.559,0,0,1,3.485-6.12,33.115,33.115,0,0,1,2.92-1.727,9.2,9.2,0,0,0,1.8-1.895c3.347-4.067,3.581-9.25,3.612-14.294.005-.847.005-1.694.019-2.541q.076-5.088.026-10.176C-1690.807,183.141-1695.36,164.079-1697.129,150.447Z" transform="translate(1857.912 -103.085)" fill="#fff"/>
    <g id="Group_1" data-name="Group 1" transform="translate(0 120.261)">
      <g id="BODY">
        <path id="_Background-2" data-name=" Background" d="M-1977.2,643.254c35.707,5.426,72.062,5.693,108.07,3.729a251.333,251.333,0,0,1,42.781.1c8.41.626,45.3,3.447,48.315-4.092-1.9-40.141-5.739-80.625-17.525-119.23-4.846-13.714-9.01-25.086-18.469-36.429q-.877-.913-1.766-1.815c-2.228-2.26-4.5-4.483-6.905-6.561a14.455,14.455,0,0,0-3.438-2.545,17.438,17.438,0,0,0-2.14-1,11.073,11.073,0,0,0-2.464-.065,37.414,37.414,0,0,1,2.877,19.879,2.85,2.85,0,0,1-.844,1.986,2.579,2.579,0,0,1-2.159.21c-2.891-.694-5.339-2.68-8.225-3.39-4.236-1.043-8.64.821-12.337,3.137s-7.167,5.167-11.341,6.432c-6.74,2.042-14.054-.444-20.125-4.015a8.618,8.618,0,0,0-3.437-1.439,7.76,7.76,0,0,0-3.653.855,114.06,114.06,0,0,0-17.5,9.246c-.792-5.171.23-10.42.788-15.621a88.139,88.139,0,0,0-.649-23.58,5.048,5.048,0,0,0-1.189-2.946c-.844-.8-1.822-.491-2.806-.232-3.382.892-7.081.391-10.332,1.871-15.048,6.847-28.444,16.781-37.242,31.288-19.734,30.971-33.286,96.21-30.942,132.918-1.027,1.612.388,3.923.754,5.656a3.3,3.3,0,0,0,3.472,2.339C-1983.481,642.262-1980.156,642.779-1977.2,643.254Z" transform="translate(1991.865 -449.27)" fill="#f04d98"/>
        <path id="_Ink" data-name=" Ink" d="M-1781.206,615.033a2.125,2.125,0,0,1-1.743-.924l-.212-.326a6.056,6.056,0,0,1-1.035-2.383,17.878,17.878,0,0,1-.169-1.93c-.014-.276-.029-.56-.049-.837-.068-.937-.129-1.881-.192-2.794v-.022c-.049-.731-.1-1.487-.151-2.229-.246-3.511-.527-7.082-.834-10.608-.956-10.949-1.607-16.927-2.071-20.914-1.394-12.093-3.189-24.533-5.33-36.979-2.119-12.314-4.805-24.439-7.393-35.707l-.282-1.227c-1.437-6.246-2.776-11.285-4.211-15.859a107.132,107.132,0,0,0-6.115-15.546,73.369,73.369,0,0,0-4.056-7.188,58.653,58.653,0,0,0-4.88-6.549,49.572,49.572,0,0,0-5.822-5.725,45.446,45.446,0,0,0-6.875-4.715.169.169,0,0,1-.091-.2.2.2,0,0,1,.244-.144.221.221,0,0,1,.041.015,49.982,49.982,0,0,1,14.042,9.962A64.158,64.158,0,0,1-1808,466a95.717,95.717,0,0,1,7.229,16.5c2.049,6.011,3.663,12.147,4.972,17.355l.1.418c2.828,11.29,5.481,23.537,8.113,37.438,1.175,6.21,2.273,12.633,3.263,19.107.952,6.227,1.836,12.688,2.624,19.207.849,7.016,1.5,13.254,1.987,19.07.267,3.181.518,6.4.728,9.554.1,1.472.177,2.687.239,3.824l.051.957c.006.137.015.277.023.412a7.134,7.134,0,0,1-.092,2.183,8.069,8.069,0,0,1-.735,1.727c-.057.11-.122.234-.184.357A1.658,1.658,0,0,1-1781.206,615.033Zm-167.378-.636a1.436,1.436,0,0,1-.906-.355l-.171-.129-.12-.094h0a4.03,4.03,0,0,1-1.283-1.383,7.764,7.764,0,0,1-.663-3.062v-.026a36.7,36.7,0,0,1-.047-3.7c.008-.388.017-.786.021-1.182.032-3.234.079-6.518.129-9.769.229-13.067.681-24.774,1.379-35.8.373-5.872.872-11.538,1.485-16.839l.129-1.048c.094-.8.186-1.6.274-2.385.1-.855.2-1.739.3-2.615a36.828,36.828,0,0,1-7.92-7.617.233.233,0,0,1-.026-.251.216.216,0,0,1,.186-.13.209.209,0,0,1,.149.07,28.716,28.716,0,0,0,3.707,3.234,31.014,31.014,0,0,0,4.172,2.562,47.8,47.8,0,0,1,2.373-10.273.278.278,0,0,1,.259-.173.206.206,0,0,1,.21.173,50.239,50.239,0,0,1,.875,9.243l.018.569c.093,2.836.111,5.934.056,9.752-.129,9.251-.366,18.649-.59,27.738v.12c-.063,2.6-.129,5.288-.192,7.931-.13,5.255-.267,11.494-.376,17.907-.038,2.2-.072,4.461-.1,6.716l-.032,2.952a36,36,0,0,1-.21,3.9,5.551,5.551,0,0,1-.8,2.411,3.412,3.412,0,0,1-.979.921c-.1.071-.2.144-.3.22l-.086.067A1.467,1.467,0,0,1-1948.584,614.4Zm78.041-1.919a.555.555,0,0,1-.583-.44,96.631,96.631,0,0,1-.906-12.613v-.03c-.017-.6-.034-1.21-.052-1.811l-.031-.964c-.18-5.229-.259-10.453-.243-15.525.054-15.221.4-30.689.726-45.648h0v-.093c.069-3.132.141-6.372.208-9.557.053-2.485.1-5.012.149-7.457v-.066c.129-6.641.259-13.508.485-20.263.167-5.035.341-9.58.532-13.894l.018-.4h0c.084-1.9.171-3.866.3-5.8l.062-.885c.021-.286.04-.573.06-.851h0c.02-.28.039-.569.06-.855a3.182,3.182,0,0,1-1.1.194,7.311,7.311,0,0,1-3.349-1.206c-.259-.145-.536-.3-.8-.432l-1.589-.818-.117-.061c-1.335-.688-2.717-1.4-4.094-2.106l-1.94-.991-3.868-2-.434-.224h0a6.339,6.339,0,0,0-2.846-.979,3.367,3.367,0,0,0-1.669.472,95.5,95.5,0,0,0-18.445,14.018,2.329,2.329,0,0,1-1.589.587,2.275,2.275,0,0,1-1.293-.381,1.706,1.706,0,0,1-.721-1.164,48.409,48.409,0,0,1-.536-5.131c-.086-1.614-.109-3.3-.067-5.152.076-3.437.365-6.928.647-10.3v-.054q.047-.562.092-1.122l.218-2.686c.236-2.866.532-6.249.935-9.61l.018-.146h0c.163-1.356.331-2.757.518-4.133l.145-1.07c.042-.308.084-.621.129-.924v-.008a24.251,24.251,0,0,1,.77-4.06,1.169,1.169,0,0,1-.449-.265,3.21,3.21,0,0,1-.873-2.717,10.045,10.045,0,0,1,.776-2.921,12.937,12.937,0,0,1,3.025-4.426,1.652,1.652,0,0,1,1.087-.464,16.286,16.286,0,0,1,3.512-1.8,11.059,11.059,0,0,1,3.7-.669,9.972,9.972,0,0,1,3.012.47c.129-.587.22-1.035.313-1.45l.111-.481c.061-.259.113-.555.168-.868a12.519,12.519,0,0,1,.4-1.742,2.769,2.769,0,0,1,.848-1.364.129.129,0,0,1,.08-.03.084.084,0,0,1,.065.03,3.579,3.579,0,0,1,.529,2.383v.57c.04,1.219.055,2.511.051,4.193l0,4.454c0,.227-.007.461-.015.688-.012.388-.025.791,0,1.179l.017.238a1.468,1.468,0,0,1,.388,1.357,1.926,1.926,0,0,1-.854,1.529l1.059,1.5,1.061,1.5c2.648,3.752,4.715,6.6,6.7,9.193,2.271,2.976,4.787,5.962,7.478,8.881,1.377,1.495,2.659,2.837,3.917,4.1.375.378.762.754,1.137,1.118l.51.5.546.541c.075.075.152.147.233.224h0a3.34,3.34,0,0,1,.709.827,2.494,2.494,0,0,1,.151.666,1.531,1.531,0,0,0,.049.268,1.553,1.553,0,0,1-.129,1.423,1.035,1.035,0,0,1-.877.518,1.172,1.172,0,0,1-.423-.084l.052-.035c.069-.048.1-.08.094-.1s-.017-.015-.041-.015a2.222,2.222,0,0,0-.456.1,1.827,1.827,0,0,1-.846-.207l-.079-.043a3.721,3.721,0,0,1-.849-.693l-.154-.152-.075-.071c-.583-.547-1.153-1.131-1.7-1.695l-.3-.312c-1.456-1.489-2.774-2.9-4.03-4.324-2.544-2.881-5.035-5.968-7.405-9.175a85.572,85.572,0,0,1-6.493-10.13c-.647-1.21-1.293-2.506-2.018-4.08a1.879,1.879,0,0,1-1.213-1.189,4.909,4.909,0,0,1-.223-2,18.511,18.511,0,0,1-1.109-3.253.182.182,0,0,1,.147-.212l.023,0a.143.143,0,0,1,.108.053,17.838,17.838,0,0,1,1.113,1.423c.122-.6.259-1.164.388-1.656h0c.091-.366.168-.683.223-.942l.547-2.687c-.172-.009-.349-.014-.528-.014a11.67,11.67,0,0,0-4.381.885,10.779,10.779,0,0,0-3.683,2.458,2.792,2.792,0,0,1-.732,1.219h0c-.084.1-.172.2-.259.312a9.448,9.448,0,0,0-1.25,2.035,8.2,8.2,0,0,0-.494,2.083,4.734,4.734,0,0,1-1.205,3.071,1.356,1.356,0,0,1-.472.259,35.455,35.455,0,0,1,.388,7.8h0c-.018.745-.036,1.516-.039,2.258v.289c0,3.831-.129,7.686-.258,11l-.144,3.623a107.057,107.057,0,0,0,.162,14.479c2.14-1.9,4.379-3.726,6.655-5.44,1.5-1.128,3.051-2.234,4.612-3.286l1.273-.851.053-.036a31.155,31.155,0,0,1,4.7-2.772,6.526,6.526,0,0,1,2.669-.573,8.733,8.733,0,0,1,3.7.926c1.44.672,2.871,1.423,4.255,2.159h0c.635.335,1.294.683,1.941,1.015,1.6.824,3.225,1.654,4.8,2.458l.225.115,1.27.647c.336.172.708.339,1.1.517a8.693,8.693,0,0,1,3.344,2.144c.067-.3.145-.592.229-.865a1.913,1.913,0,0,1,.184-1.364c3.334-6.129,6.383-12.311,9.74-19.179.776-1.6,1.553-3.225,2.3-4.8v-.008c.776-1.642,1.583-3.341,2.4-5l1.552-3.171c.312-.635.552-1.124.776-1.583s.462-.916.688-1.362c.167-.326.339-.663.506-1,.077-.154.165-.311.251-.463h0c.1-.175.2-.355.286-.533l.078-.168c0-.008.283-.889.173-1.058a.055.055,0,0,0-.049-.027.1.1,0,0,0-.035.008l-.025.011a.152.152,0,0,1-.074.021.129.129,0,0,1-.116-.078.154.154,0,0,1,.019-.164.531.531,0,0,1,.418-.224,1.054,1.054,0,0,1,.8.636c.518,1.035-.129,2.521-.647,3.719-.129.3-.259.591-.347.844l-.024.068c-1.454,4.118-3.093,8.118-4.648,11.829-3,7.16-6.268,14.335-9.429,21.275l-.45.989-.04.13c.409-.315.834-.611,1.245-.9h0c.314-.22.612-.427.894-.637,1.682-1.251,3.48-2.475,5.061-3.556,2.87-1.961,6-3.935,9.581-6.036l.647-.388a14.4,14.4,0,0,1,2.108-1.05,6.272,6.272,0,0,1,2.249-.441,5.622,5.622,0,0,1,.814.059,14.528,14.528,0,0,1,4.248,1.6c.275.137.559.279.836.412l.167.08,5.009,2.382c-.49-1.959-1.053-4.045-1.719-6.379-1.165-4.069-2.47-8.2-3.881-12.29-1.268-3.658-2.655-7.342-4.24-11.266l-.453-1.116-.049-.129-.015-.038a10.648,10.648,0,0,0-1.042-2.143,3.255,3.255,0,0,0-1.877-1.355,7.577,7.577,0,0,0-1.963-.188h-.524a5.218,5.218,0,0,1-2.872-.583.214.214,0,0,1-.095-.215.191.191,0,0,1,.144-.159l.987-.248a17.96,17.96,0,0,1,4.183-.659,6.462,6.462,0,0,1,1.6.182,6.18,6.18,0,0,1,2.573,1.436,9,9,0,0,1,1.838,2.319,37.9,37.9,0,0,1,2.085,4.743c.146.379.3.776.45,1.156l.129.311c.906,2.258,1.775,4.528,2.588,6.746,1.626,4.46,3.144,9.076,4.51,13.714.622,2.117,1.235,4.309,1.873,6.7.089.338.209.712.336,1.107h0c.118.365.238.743.349,1.132a6.477,6.477,0,0,1,.754.88.941.941,0,0,1,.17.726,1.267,1.267,0,0,1-.546.794,2.9,2.9,0,0,1-.441,1.541,2.42,2.42,0,0,1-2.036,1.073,2.156,2.156,0,0,1-1.569-.629,1.977,1.977,0,0,1-.507-1.507,1.875,1.875,0,0,1,.375-1v-.048l-.024-.087c-.308-.148-.611-.3-.93-.464h0c-.228-.117-.463-.237-.7-.354l-5.275-2.581c-.406-.2-.815-.426-1.25-.665a12.272,12.272,0,0,0-3.654-1.538,2.831,2.831,0,0,0-.471-.039,7.525,7.525,0,0,0-3.4,1.255c-.259.144-.5.278-.732.4l-.088.045c-3.586,1.838-7.106,3.729-9.774,5.175-.92.5-1.849,1.014-2.745,1.515l-.012.006c-.647.358-1.307.728-1.963,1.088-.363.2-.724.417-1.107.647h0a13.078,13.078,0,0,1-3.113,1.523,1.6,1.6,0,0,1-1,.351,1.9,1.9,0,0,1-.991-.3,30.816,30.816,0,0,1,.289,3.858c.014.441.03.9.052,1.347.094,1.933.123,3.9.15,5.806,0,.4.011.811.017,1.216l.016.877c.1,4.955.152,10.034.172,15.525.046,11.744-.023,23.684-.088,35.232-.037,6.576-.077,13.376-.093,20.067-.021,8.1-.159,16.67-.448,27.786-.106,4.1-.338,8.218-.546,11.758l-.129,2.136c-.038.64-.075,1.294-.11,1.92a90.517,90.517,0,0,1-1.152,11.592A.578.578,0,0,1-1870.543,612.478Zm8.41-.66a2.833,2.833,0,0,1-.736-.1,2.774,2.774,0,0,1-1.941-3.409h0l.067-.161a2.853,2.853,0,0,1,1.989-1.99,2.807,2.807,0,0,1,.746-.1,2.835,2.835,0,0,1,2.761,2.12,2.846,2.846,0,0,1-1.891,3.443l-.1.031-.16.068a2.866,2.866,0,0,1-.732.094Zm57.561-6.016a4.81,4.81,0,0,1-.723-.062,2.055,2.055,0,0,1-1.36-.929,3.166,3.166,0,0,1-.542-1.571c-.3-6.368-.72-13.09-1.275-20.548-.6-8.054-1.052-16.256-1.488-24.193v-.018c-.221-4.011-.45-8.166-.7-12.247l-.259-4.246c-.251-4.18-.525-9.039-.61-13.812-.024-1.383,0-2.788.015-4.14.023-1.642.048-3.339-.006-5.007-.016-.476-.038-.97-.058-1.448a27.736,27.736,0,0,1,.3-7.194.13.13,0,0,1,.129-.093.112.112,0,0,1,.106.062,19.076,19.076,0,0,1,1.369,4.342c1.594-2.016,3.314-4.165,5.1-6.22a.176.176,0,0,1,.129-.067.216.216,0,0,1,.176.107.21.21,0,0,1,.012.208c-1.546,3.032-3.25,6.006-4.9,8.882.129.785.259,1.6.419,2.393.228,1.165.476,2.336.717,3.471h0c.449,2.115.914,4.3,1.251,6.493,1.951,12.616,2.919,25.461,3.673,36.512.815,11.94.938,24.093,1.058,35.847l.009.906a2.7,2.7,0,0,1-.535,1.573,2.228,2.228,0,0,1-1.366.926,3.555,3.555,0,0,1-.65.067Zm-188.123-.968a1.244,1.244,0,0,1-.991-.541l-.192-.259-.03-.04a4.509,4.509,0,0,1-1.142-2.352c-.056-.717-.043-1.456-.034-2.171,0-.311.009-.632.008-.948-.008-1.868.01-3.849.058-6.234.08-3.96.238-7.977.47-11.941.48-8.175,1.277-16.295,2.369-24.131.983-7.059,2.232-14.2,3.708-21.23,1.467-6.986,3.2-14.023,5.141-20.93,2.07-7.352,4.087-13.713,6.165-19.432a161.257,161.257,0,0,1,8.06-18.711c1.474-2.874,3.043-5.647,4.657-8.241,1.71-2.738,3.524-5.355,5.395-7.778a82.422,82.422,0,0,1,6.184-7.144,72.3,72.3,0,0,1,7.03-6.339,68.415,68.415,0,0,1,7.257-5,63.63,63.63,0,0,1,7.866-3.978,41.6,41.6,0,0,1,8.553-2.634,42.359,42.359,0,0,1,5.8-.525c.948-.041,1.929-.084,2.9-.16h.017a.149.149,0,0,1,.156.142v.008a.2.2,0,0,1-.171.211,35.184,35.184,0,0,0-8.118,2.329h-.008c-.449.168-.914.343-1.367.509l-.258.1a68.3,68.3,0,0,0-9.067,4.01,69.4,69.4,0,0,0-15.595,11.522,82.505,82.505,0,0,0-6.483,7.116,92.88,92.88,0,0,0-5.631,7.756c-1.691,2.6-3.33,5.382-4.869,8.28-1.454,2.736-2.867,5.661-4.2,8.691a179.134,179.134,0,0,0-6.757,18.172c-1.723,5.445-3.364,11.318-5.175,18.478-1.687,6.676-3.177,13.583-4.426,20.534-1.215,6.765-2.235,13.758-3.035,20.782-.777,6.849-1.337,13.818-1.659,20.711-.164,3.525-.269,7.106-.313,10.646-.021,1.644-.028,3.428-.027,5.455,0,.23.012.473.023.73a6.545,6.545,0,0,1-.1,1.961,5.214,5.214,0,0,1-.917,1.613c-.106.145-.207.282-.3.42a1.156,1.156,0,0,1-.955.541ZM-1862,588.949h-.238l.053.006-.092-.01c-.087-.008-.173-.017-.259-.029l-.074-.009-.1-.012h-.168c-.048,0-.1.006-.147.006a2.592,2.592,0,0,1-1.666-.758,2.5,2.5,0,0,1-.558-.833,2.074,2.074,0,0,1-.193-.981l.026-.246a2.8,2.8,0,0,1,.259-1,3.033,3.033,0,0,1,.736-1.068,3.284,3.284,0,0,1,2.24-.912h.025a2.887,2.887,0,0,1,1.514.4l.592.459c.152.2.31.4.48.621a2.649,2.649,0,0,1,.343,1.842,2.158,2.158,0,0,1-.343,1.074l-.451.585a3.864,3.864,0,0,1-1.322.776,2.078,2.078,0,0,1-.654.083Zm-.083-31.172a2.806,2.806,0,0,1-1.126-.229,2.946,2.946,0,0,1-1.354-1.118l-.053-.087c-.022-.035-.043-.071-.064-.108l-.028-.056a3.016,3.016,0,0,1,.452-3.51,2.662,2.662,0,0,1,2-.825,3.227,3.227,0,0,1,1.51.371,3.653,3.653,0,0,1,.591.432h0l.157.13a2.926,2.926,0,0,1,.861,2.08,2.625,2.625,0,0,1-.226,1.124,2.979,2.979,0,0,1-.635.957l-.13.12a2.4,2.4,0,0,1-1.173.637,4.383,4.383,0,0,1-.781.076Zm-1.242-29.563a2.738,2.738,0,0,1-.726-.1,2.785,2.785,0,0,1-1.941-1.941l-.054-.379a3.314,3.314,0,0,1,.062-1.423,3.893,3.893,0,0,1,.339-.847,3.013,3.013,0,0,1,.785-.906,3.357,3.357,0,0,1,1.066-.544,2.345,2.345,0,0,1,.7-.11,2.3,2.3,0,0,1,.5.056,2.95,2.95,0,0,1,1.423.592,1.518,1.518,0,0,1,.539.54,2.281,2.281,0,0,1,.539,1.023l.107.8-.107.8-.3.719-.252.326a3.356,3.356,0,0,1-1.047.873,2.808,2.808,0,0,1-1.628.512Zm40.2-24.255a12,12,0,0,1-1.338-.1c-.279-.032-.567-.065-.846-.084-1.415-.094-2.865-.176-4.306-.24-2.994-.13-5.724-.2-8.346-.216h-1.334c-2.127,0-4.417.02-7,.062-.789.013-1.6.043-2.387.073-1.059.04-2.155.08-3.234.08a28.489,28.489,0,0,1-2.961-.136.362.362,0,0,1-.335-.317.339.339,0,0,1,.243-.362,37,37,0,0,1,7.513-1.453l.889-.11c2.776-.351,5.671-.615,8.6-.784,3.139-.18,6.044-.277,8.885-.3h1.334c.7,0,1.406,0,2.11.012l.86.012h.551a4.38,4.38,0,0,1,3.26.872,1.342,1.342,0,0,1,.464,1.114,1.856,1.856,0,0,1-.785,1.379A3.072,3.072,0,0,1-1823.125,503.959Zm-40.494-6.889h-.094a3,3,0,0,1-1.513-.41l-.607-.469a3.013,3.013,0,0,1-.776-1.324l-.107-.8a3.1,3.1,0,0,1,2.9-3h.094a2.987,2.987,0,0,1,1.423.357l.094.053.607.468a3.011,3.011,0,0,1,.776,1.324l.107.8a3.106,3.106,0,0,1-2.9,3Zm10.708-61.984h-.071a2.848,2.848,0,0,1-1.907-.809,4.848,4.848,0,0,1-1.114-1.831,17.142,17.142,0,0,1-.784-4.387,12.507,12.507,0,0,1,.317-3.881,10.7,10.7,0,0,1,1.556-3.562.85.85,0,0,1,.714-.417,1,1,0,0,1,.75.388.819.819,0,0,1,.185.682,29.65,29.65,0,0,0,.632,6.234,11.819,11.819,0,0,0,.954,2.765l.186.366a3.21,3.21,0,0,1,.247,3.458,2.227,2.227,0,0,1-.71.714A1.827,1.827,0,0,1-1852.911,435.085Z" transform="translate(1995.092 -417.123)" fill="#030504"/>
      </g>
    </g>
    <path id="_Ink-2" data-name=" Ink" d="M-1741.319,197.131a17.386,17.386,0,0,1-4.737-.6,10.1,10.1,0,0,1-4.4-2.406,5.33,5.33,0,0,1-1.294-2,4.783,4.783,0,0,1-.156-2.524,1.186,1.186,0,0,1,.481-.762,1.445,1.445,0,0,1,.83-.25,1.507,1.507,0,0,1,1.294.672l.138.223a6.89,6.89,0,0,0,2.77,2.8,9.055,9.055,0,0,0,2.344.708,15.755,15.755,0,0,0,2.447.2h.3a53.9,53.9,0,0,0,13.2-2.2,75.583,75.583,0,0,0,12.054-4.2,53.37,53.37,0,0,0,10.958-6.513,18.89,18.89,0,0,0,3.7-3.752,13.724,13.724,0,0,0,1.327-2.232,12.421,12.421,0,0,0,.859-2.515c.806-3.572.35-7.4-.092-11.1-.1-.806-.2-1.64-.278-2.445-.8-7.892-1.783-16.264-3.179-27.157l-.233-1.811q-.12-.929-.241-1.857v-.005c-.884-6.822-1.8-13.875-2.246-20.851a2.138,2.138,0,0,1-.388-.935l-.076-.5a4.116,4.116,0,0,1-.03-1.164c0-1.414.043-2.758.121-4.11.013-.247.024-.494.032-.735-1.331.294-2.741.55-4.308.785a137.773,137.773,0,0,1-20.474,1.52c-3.395,0-6.831-.129-10.22-.379-4.721-.352-9.7-.957-15.216-1.851-2.638-.427-5.225-.893-7.684-1.388-1.5-.3-3-.695-4.456-1.076h-.015l-1-.259a15.552,15.552,0,0,0-2.119,4.475,14.448,14.448,0,0,0-.568,4.9,18.579,18.579,0,0,0,1.07,4.58,26.573,26.573,0,0,1,.885,3.163,8.79,8.79,0,0,1,.068,3.268,5.646,5.646,0,0,1-2.5,3.815,15.367,15.367,0,0,1-4.282,1.785l-1.294.374a3.724,3.724,0,0,0-1.254.544,1.782,1.782,0,0,0-.647,1.222,20.508,20.508,0,0,0,.026,4.543c.052.656.1,1.274.129,1.886.03.75.062,1.507.093,2.239.071,1.666.145,3.389.185,5.086.008.336.018.679.027,1.01v.007c.026.906.052,1.853.049,2.778a3.81,3.81,0,0,1-.484,2.089,7.826,7.826,0,0,1,.722,1.085.129.129,0,0,1,0,.13.138.138,0,0,1-.115.068.116.116,0,0,1-.084-.037,7.156,7.156,0,0,0-.861-.763,7.077,7.077,0,0,1-.538.586l-.016-.022a1.733,1.733,0,0,1-1.229.518,1.939,1.939,0,0,1-1.261-.49l-.212-.184a2.956,2.956,0,0,1-1.165-1.8h0c-.008-.043-.017-.087-.022-.129h-.287a8.471,8.471,0,0,0-4.079,1.036,10.116,10.116,0,0,0-4.537,4.955,5.729,5.729,0,0,0,1.254,1.1.062.062,0,0,1,.027.072.065.065,0,0,1-.062.048.066.066,0,0,1-.031-.008,5.983,5.983,0,0,1-1.332-.862,12.083,12.083,0,0,0-.681,2.633,11.675,11.675,0,0,0,.38,5.13,8.338,8.338,0,0,0,1.126,2.3,6.536,6.536,0,0,0,1.846,1.765,8.077,8.077,0,0,0,4.283,1.257h.022a8.4,8.4,0,0,0,2.086-.3c.114-.028.23-.06.341-.091h0a4.385,4.385,0,0,1,1.143-.2,2.38,2.38,0,0,1,1.216.329l-.1.009a.591.591,0,0,0-.159.023,1.588,1.588,0,0,0,.307.012,1.423,1.423,0,0,1,1.2.709,1.463,1.463,0,0,1,.014,1.413l-.066.149-.017.037-.018.038-.04.259v.029h0l-.006.04-.015.052-.009.025,1.635,2.5a95.443,95.443,0,0,0,6.4,8.9,73.255,73.255,0,0,0,5.215,5.663A16.469,16.469,0,0,0-1764,184.64c.656.374,1.334.759,1.99,1.2a2.076,2.076,0,0,1,.92,1.5,1.787,1.787,0,0,1-.537,1.46,4.047,4.047,0,0,1-2.935,1.237,6.5,6.5,0,0,1-3.069-.884,11.928,11.928,0,0,1-2.611-1.958,37.994,37.994,0,0,1-5.39-6.94,49.717,49.717,0,0,1-3.6-6.764,37.52,37.52,0,0,1-1.327-3.565,32.637,32.637,0,0,1-.931-3.7,4.018,4.018,0,0,1-1.413.768,11.159,11.159,0,0,1-3.234.541h-.376a13.216,13.216,0,0,1-5.643-1.333,11.144,11.144,0,0,1-4.118-3.364,13.149,13.149,0,0,1-2.233-4.736,16.043,16.043,0,0,1-.232-6.661,14.753,14.753,0,0,1,2.516-6.1,36.365,36.365,0,0,1-1.1-4.269c-.089-.418-.173-.811-.259-1.2l-.173-.752c-.56-2.443-.96-4.469-1.26-6.364a51.422,51.422,0,0,1-.647-6.429,29.985,29.985,0,0,1,2.094-12.663,24.341,24.341,0,0,1,1.514-3.083c.151-.259.335-.518.529-.79a5.568,5.568,0,0,0,.962-1.757c.33-1.334-.939-2.726-2.06-3.954a10.583,10.583,0,0,1-1.37-1.7,5.9,5.9,0,0,1-.807-2.924,4.425,4.425,0,0,1,1.628-3.387,7.8,7.8,0,0,1-.987-3.969,6.94,6.94,0,0,1,1.354-3.945,7.763,7.763,0,0,1,4.881-3.032,8.04,8.04,0,0,1,1.366-.111,9.55,9.55,0,0,1,2.551.349,93.854,93.854,0,0,1,11.428-9.076,88.054,88.054,0,0,1,12.725-7.116A101.8,101.8,0,0,1-1742.8,62.3a107.081,107.081,0,0,1,33.01-1.731,103.476,103.476,0,0,1,26.407,6.183l.743.287.369.141a14.824,14.824,0,0,1,5.563,3.1,6.382,6.382,0,0,1,1.13,1.589,6.161,6.161,0,0,1,.584,1.811,5.746,5.746,0,0,1-.666,3.739,7.787,7.787,0,0,1-2.07,2.344,10.187,10.187,0,0,1-2.776,1.5,16.541,16.541,0,0,1,1.971,1.911,3.167,3.167,0,0,1,.811,2.031,2.786,2.786,0,0,1-.191,1.059,2.933,2.933,0,0,1-.62.96,17.027,17.027,0,0,1-7.979,4.67,8.41,8.41,0,0,1-.572,5.083,7.17,7.17,0,0,1-1.841,2.5,8.768,8.768,0,0,1-2.591,1.537,17.161,17.161,0,0,1-6.2.987c-.592,0-1.215-.019-1.85-.059l-.137-.009-.251,2.88a3.467,3.467,0,0,1-.776,1.966,2.945,2.945,0,0,1-1.839.992c-.054.008-.109.014-.164.019a232.342,232.342,0,0,1,5.33,27.257c.629,4.175,1.238,8.6,1.977,14.34l.2,1.6c.149,1.173.309,2.369.464,3.525h0c.53,3.944,1.075,8.021,1.294,12.039a25.821,25.821,0,0,1-.039,3.493,20.561,20.561,0,0,1-.552,3.363,17.5,17.5,0,0,1-1.144,3.194,16.7,16.7,0,0,1-1.811,2.976,27.993,27.993,0,0,1-9.988,7.867,104.736,104.736,0,0,1-13.3,5.536c-2.3.768-4.624,1.444-6.907,2.007-2.355.581-4.737,1.059-7.081,1.423l-.638.1A42.649,42.649,0,0,1-1741.319,197.131Zm-38.021-40.391a1.75,1.75,0,0,1-1.066-.365c-.469-.352-.9-.718-1.308-1.071a9.637,9.637,0,0,0-3.4-2.158,14.812,14.812,0,0,0-4.4-.749,8.837,8.837,0,0,0-1.525.129h-.039a.273.273,0,0,1-.248-.171.19.19,0,0,1,.061-.219,9.872,9.872,0,0,1,2.717-1.753,7.884,7.884,0,0,1,3.1-.621c.258,0,.517.012.776.034a12.981,12.981,0,0,1,4.047,1.016,9.092,9.092,0,0,1,1.821,1.061,6.4,6.4,0,0,1,1.423,1.467,1.94,1.94,0,0,1,.056,2.061A2.415,2.415,0,0,1-1779.34,156.74Z" transform="translate(1865.5 -60.007)" fill="#030504"/>
    <g id="FACE" transform="translate(107.914 56.957)">
      <path id="_Ink-2-2" data-name=" Ink-2" d="M-1645.112,281.587a10.407,10.407,0,0,1-3.948-.789,11.163,11.163,0,0,1-2.577-1.481,10.979,10.979,0,0,1-2.1-2.117,2.169,2.169,0,0,1-.437-1.682,2.421,2.421,0,0,1,.942-1.516,2.319,2.319,0,0,1,1.38-.481,1.966,1.966,0,0,1,.308.023,2.133,2.133,0,0,1,1.423.944l.084.117a7.377,7.377,0,0,0,2.7,2.274,6.125,6.125,0,0,0,2.677.625,5.909,5.909,0,0,0,.664-.037,6.97,6.97,0,0,0,2.947-1.035,13.81,13.81,0,0,0,2.5-2.084c.178-.183.367-.381.613-.647a.969.969,0,0,1,.51-.388,1.044,1.044,0,0,1,.331-.053,1.126,1.126,0,0,1,.924.483,1.034,1.034,0,0,1,.175.678,6.229,6.229,0,0,1-.738,2.411,8.05,8.05,0,0,1-1.578,2.027,10.136,10.136,0,0,1-2.39,1.666,9.942,9.942,0,0,1-2.652.906A9.766,9.766,0,0,1-1645.112,281.587Zm2.779-15.745h0a9.538,9.538,0,0,1-3.4-.686,17.173,17.173,0,0,1-4-2.272,1.537,1.537,0,0,1-.559-.889,1.842,1.842,0,0,1,.079-1,2.274,2.274,0,0,1,.674-.974,1.64,1.64,0,0,1,1.05-.41,1.492,1.492,0,0,1,.813.25l.271.208h0a21.61,21.61,0,0,0,2.5,1.743,6.163,6.163,0,0,0,3,.957,3.237,3.237,0,0,0,1.269-.25,3.55,3.55,0,0,0,1.182-.837,3.624,3.624,0,0,0,.687-2.917,5.518,5.518,0,0,0-1.462-2.588,10.665,10.665,0,0,0-2.214-1.786.687.687,0,0,1-.187-.789,1.039,1.039,0,0,1,.342-.491,1.045,1.045,0,0,1,.653-.216,1.414,1.414,0,0,1,.235.021,7.423,7.423,0,0,1,2.61.943,5.921,5.921,0,0,1,1.756,1.62,6.433,6.433,0,0,1,1.12,4.3,7.074,7.074,0,0,1-.574,2.256,6.6,6.6,0,0,1-1.294,1.941A6.183,6.183,0,0,1-1642.333,265.842Zm-22.14-15.375a2.232,2.232,0,0,1-1.448-.568,2.257,2.257,0,0,1-.759-1.46,16.432,16.432,0,0,1,.087-4.28c.052-.416.1-.846.142-1.309a2.562,2.562,0,0,1,.97-1.831,2.986,2.986,0,0,1,1.838-.647,2.264,2.264,0,0,1,1.391.437,2.061,2.061,0,0,1,.769,1.368,11.484,11.484,0,0,1-1.2,7.076,2.271,2.271,0,0,1-.8.926A1.848,1.848,0,0,1-1664.473,250.467Zm32.5-.97a1.951,1.951,0,0,1-1.531-.656,5.994,5.994,0,0,1-.933-1.589,6.925,6.925,0,0,1-.476-1.911,4.049,4.049,0,0,1,1.1-3.476,2.269,2.269,0,0,1,.177-.269,2.5,2.5,0,0,1,1.924-1.107,2.071,2.071,0,0,1,.585.087,2.813,2.813,0,0,1,1.88,1.64,5.8,5.8,0,0,1,.233,3.174,10.632,10.632,0,0,1-.963,2.994,1.94,1.94,0,0,1-.832.822,2.516,2.516,0,0,1-1.167.292Zm-42.305-10.2a.355.355,0,0,1-.3-.181.4.4,0,0,1-.023-.388,13.478,13.478,0,0,1,3.024-3.83,18.684,18.684,0,0,1,4.052-2.765,17.4,17.4,0,0,1,4.8-1.682l.518-.089a12.47,12.47,0,0,1,2.086-.223,3.235,3.235,0,0,1,2.588.965,2.2,2.2,0,0,1,.517,1.563,1.43,1.43,0,0,1-.517,1.021,3.986,3.986,0,0,1-2.732.8c-.215,0-.437,0-.647-.01h-.018c-.207,0-.441-.012-.674-.012s-.406,0-.585.016a18.469,18.469,0,0,0-4.066.693,27.634,27.634,0,0,0-7.84,4.057A.336.336,0,0,1-1674.281,239.3Zm49.482-2.07h0l-.216-.054a12.242,12.242,0,0,1-2.373-.921l-.776-.379a21.339,21.339,0,0,0-2.748-1.174,32.428,32.428,0,0,0-6.268-1.384,2.562,2.562,0,0,1-1.257-.478,1.883,1.883,0,0,1-.7-1.071,1.918,1.918,0,0,1,.22-1.613,2.044,2.044,0,0,1,.992-.855,2.229,2.229,0,0,1,.846-.162,2.465,2.465,0,0,1,.487.049l.388.08a28.039,28.039,0,0,1,6.769,2.2,13.679,13.679,0,0,1,2.975,1.959,8.694,8.694,0,0,1,2.1,2.717c.074.568,0,.709-.071.8l-.014.031-.02.026a.543.543,0,0,1-.336.224Z" transform="translate(1674.641 -229.14)" fill="#030504"/>
    </g>
  </g>
</svg>
