<svg id="Group_5" data-name="Group 5" xmlns="http://www.w3.org/2000/svg" width="221.781" height="335.797" viewBox="0 0 221.781 335.797">
  <g id="Body" transform="translate(0 37.565)">
    <path id="_Background-2" data-name=" Background-2" d="M557.684,176.437c-.675-8.774.373-17.963-3.007-26.3-5.894-13.832-22.422-18.444-35.234-23.709-5.129-1.517-22.407-1.729-28.416-3.738-13.6-4.549-16.852-9.961-27.662-1.309a11.751,11.751,0,0,0-3.8,5.283l.034.009a2.928,2.928,0,0,0,.553,2.526,17.644,17.644,0,0,0-4.242,18.357c7.846,16.6,7.473,25.575,4.948,43.421a32.024,32.024,0,0,0-.539,10.692c1.064,7.479,6.284,12.73,11.994,17.183,1.721,1.342,3.646,2.518,5.271,3.97,1.323,1.182,1.677,2.974,2.584,4.449a24.265,24.265,0,0,1,3.75,15.153,23.679,23.679,0,0,1-8.986,16.214c-3.2,2.468-7.22,4.31-8.949,7.962-2.255,4.762.374,10.292,2.95,14.888,3.074,5.486,6.182,11.02,10.366,15.715s9.589,8.547,15.762,9.744c5.888,1.142,11.965-.193,17.708-1.924,13.209-3.983,26.529-10.807,33.271-22.843,2.524-4.506,3.991-9.517,5.3-14.511q2.58-9.811,4.473-19.786,1.689-8.9,2.823-17.891.567-4.493.994-9c.062-.658.053-1.327.1-1.975.177-2.423.95-4.872,1.249-7.306a60.762,60.762,0,0,0-.8-20.814A129.8,129.8,0,0,1,557.684,176.437Z" transform="translate(-376.166 -116.789)" fill="#fff"/>
    <g id="Group_4" data-name="Group 4" transform="translate(0 119.626)">
      <path id="Path_8" data-name="Path 8" d="M424.615,607.051c-.05-.18-.1-.358-.15-.538a11.31,11.31,0,0,0-1.636-3.173,22.614,22.614,0,0,1-1.916-4.735q-1.987-5.5-4.344-10.85a49.713,49.713,0,0,0-23.285-23.272c-3.053-1.547-5.4-4.257-8.416-5.841a2.024,2.024,0,0,0-1.86-.211,7.251,7.251,0,0,0-3.1,3.025c-1.6,2.674-2.083,5.863-3.08,8.778-3.306,9.667-13.62,15.7-23.811,16.414s-20.2-2.992-29.226-7.785c-5.119-2.719-10.226-5.985-13.25-10.93-1.565-2.559-2.523-5.5-4.435-7.811a12.324,12.324,0,0,0-13.588-3.337c-1.112.427-2.083,1.089-3.18,1.507-1.6.609-3.171,1.335-4.72,2.065a92.767,92.767,0,0,0-9.064,4.9q-1.231.757-2.437,1.552a113.877,113.877,0,0,0-29.17,28.118q-2.5,3.44-4.772,7.034-1.139,1.8-2.224,3.631c-.266.449-.836,1.08-.867,1.653a7.51,7.51,0,0,0,.16.823,3.206,3.206,0,0,1-.421,1.385q-1.346,3.184-2.583,6.414-2.476,6.456-4.52,13.067a209.559,209.559,0,0,0-6.406,26.887c-.7,4.126-1.106,8.283-1.725,12.418a9.28,9.28,0,0,1-.457,1.971,29.7,29.7,0,0,1-1.528,2.761c-1.671,3.273-2.57,7.152-3.587,10.671a165.271,165.271,0,0,0-4.837,22.518c-.189,1.325-.261,2.917.8,3.738a3.74,3.74,0,0,0,2.572.482c3.592-.239,7.135-.934,10.694-1.474,10.782-1.638,21.722-1.86,32.625-2.079l169.9-3.41c-.335.007-.646-10.8-.657-11.794q-.068-6.028.406-12.046T428,667.619c.544-3.193,1.244-5.982.891-9.2-.407-3.713.361-7.721.424-11.465q.105-6.26-.313-12.514A137.43,137.43,0,0,0,424.615,607.051Z" transform="translate(-210.07 -534.352)" fill="#fa9421"/>
      <g id="Group_3" data-name="Group 3" transform="translate(0.485)">
        <path id="Path_9" data-name="Path 9" d="M623.53,618.021l2.293.049a35.156,35.156,0,0,0,1.323-9.216c.657-12.189,1.294-24.6-1.719-36.429-1.037-4.07-2.95-8.189-2.794-12.426.07-1.917-.927-3.888-1.619-5.635q-1.228-3.1-2.746-6.078a69.837,69.837,0,0,0-4.938-8.247,78.312,78.312,0,0,0-15.445-16.449,96.827,96.827,0,0,0-18.564-11.99l-.041-.019a7.643,7.643,0,0,0-2.51-.66h-.088a2.012,2.012,0,0,0-1.336.494,2.374,2.374,0,0,0-.741,1.563l-.123-.135A8.126,8.126,0,0,0,573.1,511.8a11.225,11.225,0,0,1-.945-.655,17.891,17.891,0,0,1-2.128-2.024,21.431,21.431,0,0,1-3.064-4.56,29.427,29.427,0,0,1-2.66-10.458l-.084-.728a.575.575,0,0,0-.548-.509.454.454,0,0,0-.4.253,11.01,11.01,0,0,0-1.161,3.1,14.355,14.355,0,0,0-.3,3.36,19.106,19.106,0,0,0,1.388,6.561,21.007,21.007,0,0,0,3.6,5.912c1.436,1.679,3.6,3.967,5.784,4.442a2.408,2.408,0,0,0,.511.057,2.089,2.089,0,0,0,.861-.181,27.524,27.524,0,0,1-3.208,7.521,30.856,30.856,0,0,1-5.179,6.344,32.963,32.963,0,0,1-6.649,4.844,32.1,32.1,0,0,1-7.621,3.029,36.206,36.206,0,0,1-8.909,1.105,38.862,38.862,0,0,1-7.8-.81,42.848,42.848,0,0,1-7.51-2.295,46.9,46.9,0,0,1-7.038-3.592,49.563,49.563,0,0,1-6.379-4.711,67.158,67.158,0,0,1-6.973-7.128c-2.363-2.767-4.538-5.654-6.169-7.861l-.5-.683a.349.349,0,0,0,.119.031c.52.044,1.049.066,1.57.066a20.2,20.2,0,0,0,7.535-1.509,27.6,27.6,0,0,0,6.706-3.94,26.04,26.04,0,0,0,3.311-3.1,28.628,28.628,0,0,0,2.709-3.565,36.511,36.511,0,0,0,3.858-8.152,2.246,2.246,0,0,0-.312-2.076,2.91,2.91,0,0,0-2.295-1.18,2.282,2.282,0,0,0-1.712.74,9.623,9.623,0,0,0-1.828,3.569c-.051.149-.109.317-.167.48l-.107.3a24.479,24.479,0,0,1-1.532,3.336,28.485,28.485,0,0,1-4.547,6.156,36.534,36.534,0,0,1-13.277,8.311.3.3,0,0,0-.205.323l-.089-.121-.606-.829a.218.218,0,0,0-.178-.088.208.208,0,0,0-.168.077.181.181,0,0,0-.022.165,40.464,40.464,0,0,0,4.455,9.682,46.074,46.074,0,0,0,6.749,8.349,49.5,49.5,0,0,0,8.463,6.663,48.166,48.166,0,0,0,9.623,4.621,44.2,44.2,0,0,0,7.112,1.836,43.338,43.338,0,0,0,7.269.62,41.311,41.311,0,0,0,7.1-.611,38.743,38.743,0,0,0,6.852-1.855,35.364,35.364,0,0,0,15.861-11.71,34.8,34.8,0,0,0,3.023-4.684,32.7,32.7,0,0,0,2.207-5.109,30.151,30.151,0,0,0,1.268-5.417,2.75,2.75,0,0,0-.016-.877c1.979,1.667,4.028,3.315,6.011,4.907,2.77,2.223,5.634,4.522,8.341,6.919,3.121,2.763,5.638,5.147,7.923,7.5a82.329,82.329,0,0,1,7.1,8.273,65.522,65.522,0,0,1,5.777,9.326,66.6,66.6,0,0,1,4.141,10.159,19.452,19.452,0,0,1,1.348,5.7,7.714,7.714,0,0,0,.25,2.27c.637,2.207,1.309,4.389,1.82,6.632a97.726,97.726,0,0,1,2.037,13.593,159.132,159.132,0,0,1,.2,25.172,22.094,22.094,0,0,1-.68,3.964,22.946,22.946,0,0,0-.8,7.714c.523,8.134.026,16.264-.313,24.394-.136,3.257-.244,6.515-.239,9.775,0,1,.353,2.337,1.347,2.285.911-.048,1.2-1.241,1.214-2.153.03-2.877-.217-5.751-.231-8.628-.066-13.6,5-27.632.515-40.471" transform="translate(-406.398 -488.705)" fill="#040505"/>
        <path id="Path_10" data-name="Path 10" d="M237.243,606.744c.378-.818.714-1.684,1.158-2.466a12.915,12.915,0,0,1,1.092-1.339,54.638,54.638,0,0,0,2.831-4.883c1.919-3.209,3.986-6.317,6.138-9.373a107.46,107.46,0,0,1,24.1-24.62,75.409,75.409,0,0,1,15.625-8.8c2.845-1.16,5.729-2.058,8.428-2.856l1.089-.323c2.589-.766,5.129-1.493,7.694-2.033a.1.1,0,0,0,.087-.108.135.135,0,0,0-.119-.135c-.327-.032-.672-.072-1.011-.108a25.919,25.919,0,0,0-2.867-.216c-.17,0-.337,0-.5.011-1.66.071-3.026.171-4.295.313a40.519,40.519,0,0,0-7.932,1.845,64.822,64.822,0,0,0-7.9,3.187,72.623,72.623,0,0,0-7.437,4.148,85.1,85.1,0,0,0-7.1,5.055c-2.223,1.76-4.436,3.685-6.574,5.722a115.35,115.35,0,0,0-11.626,12.98A148.611,148.611,0,0,0,239,596.094c-1.383,2.277-2.752,4.582-3.972,6.951a7.406,7.406,0,0,0-.59,1.409,13.876,13.876,0,0,1-.547,2.019c-.436.979-1.058,1.894-1.574,2.834a107.185,107.185,0,0,0-5.531,11.738,142.6,142.6,0,0,0-7.273,25c-1.41,7.016-2.411,14.11-3.159,21.225a22.129,22.129,0,0,1-.858,5.133,22.323,22.323,0,0,0-1,6.6,130.623,130.623,0,0,1-2.257,18.329c-.76,3.881-1.447,8.575,1.512,11.2q1.233-12.167,3.216-24.242c.538-3.279.748-6.74,2.455-9.638,1.778-3.018,2.383-6.875,3.243-10.243a152.743,152.743,0,0,0,3.544-17.9c.6-4.576.924-9.191,1.765-13.728,1.686-9.1,5.383-17.658,9.258-26.009Z" transform="translate(-211.576 -529.935)" fill="#040505"/>
      </g>
    </g>
    <path id="Path_11" data-name="Path 11" d="M793.291,802.86c1.016-.434,1.618,1.155,1.582,2.259,0,10.042-.637,20.125-.914,30.165q-.419,15.208-.755,30.417-.083,3.787-.162,7.574c-.018.851.2,2.218-.87,1.639-.863-.468-1.428-2.427-1.726-3.266a14.166,14.166,0,0,1-.763-4.813q-.12-15.105.675-30.2t2.5-30.1Q793.068,804.7,793.291,802.86Z" transform="translate(-603.24 -582.137)" fill="#040505"/>
    <path id="Path_12" data-name="Path 12" d="M424.568,776.14c1.179-.5,1.878,1.34,1.836,2.621,0,11.651-.74,23.349-1.061,35q-.486,17.645-.876,35.291-.1,4.394-.188,8.788c-.021.987.23,2.573-1.009,1.9-1-.543-1.656-2.815-2-3.789a16.434,16.434,0,0,1-.885-5.584q-.139-17.526.783-35.038t2.9-34.927Q424.31,778.271,424.568,776.14Z" transform="translate(-352.722 -564.003)" fill="#040505"/>
  </g>
  <g id="Head" transform="translate(39.638 0)">
    <g id="HEAD-2" data-name="HEAD" transform="translate(0)">
      <path id="_Ink-2" data-name=" Ink-2" d="M442.976,172.507a43.137,43.137,0,0,1-10.294-1.29,52.886,52.886,0,0,1-6.993-2.272,4.175,4.175,0,0,1-1.788-1.224,1.647,1.647,0,0,1-.371-1.3,1.519,1.519,0,0,1,1.6-1.143,2.7,2.7,0,0,1,.856.147,62.46,62.46,0,0,0,6.927,1.89,43,43,0,0,0,8.755.992,28.068,28.068,0,0,0,3.623-.224,41.636,41.636,0,0,0,11.841-3.127,26.951,26.951,0,0,0,5.181-3.059A25.112,25.112,0,0,0,466.8,157.5a29.339,29.339,0,0,0,3.632-5.973,41.437,41.437,0,0,0,2.628-7.807,65.079,65.079,0,0,0,1.471-9.893,105.8,105.8,0,0,0,.16-12.229c-.1-2.358-.286-4.756-.47-7.073-.213-2.7-.435-5.483-.509-8.223-.053-2-.077-4.033-.1-6-.035-2.934-.07-5.97-.2-8.953l-.073-1.7c-.086-2.006-.177-3.973-.325-5.969-.055-.235-.108-.475-.158-.706-.116-.529-.236-1.08-.389-1.6a34.43,34.43,0,0,0-2.341-5.965,1.654,1.654,0,0,1-.713.326,11.523,11.523,0,0,1-2.046.193,8.711,8.711,0,0,1-3.616-.761,8.912,8.912,0,0,1-2.327-1.509,3.543,3.543,0,0,1-.738-.876h-.07a3.666,3.666,0,0,1-1.26-.213,2.46,2.46,0,0,1-1.016-.683,2.431,2.431,0,0,1-.579-1.106,1.993,1.993,0,0,1,.087-1.08l.026-.07-.064-.023a10.975,10.975,0,0,1-3.9,4.822,12.447,12.447,0,0,1-4.292,1.879,21.31,21.31,0,0,1-4.681.54h-.467a64.816,64.816,0,0,1-10.01-1.025c-1.08-.171-1.9-.333-2.666-.525l-.041.042c-.022.023-.043.046-.066.066a9.952,9.952,0,0,1-3.16,2.056,9.524,9.524,0,0,1-3.584.7,10,10,0,0,1-3.978-.834,14.094,14.094,0,0,1-2.97-1.755,20.547,20.547,0,0,1-2.551-2.345c-.024.945-.073,1.822-.146,2.662l-.032.35a6.97,6.97,0,0,1-1.7,4.568,4.186,4.186,0,0,1-3,1.161,7.2,7.2,0,0,1-2.16-.364,12.054,12.054,0,0,1-2.072-.9v.185c.576,1.96,1.165,3.955,1.734,5.884l.012.041.135.449.135.454.135.459h0a20.371,20.371,0,0,1,.961,4.136,5.361,5.361,0,0,1-1.23,4.05,3.42,3.42,0,0,1-2.578,1.143,4.477,4.477,0,0,1-1.29-.2,10.733,10.733,0,0,1-3.862-2.6h0c-.225-.2-.439-.4-.655-.587l-.852-.737a96.443,96.443,0,0,1,2.711,10.981,70.365,70.365,0,0,1,1.165,11.217.74.74,0,0,1-.73.73h-.236a7.026,7.026,0,0,1-2.565-.51,1.512,1.512,0,0,1-.157-.015,10.56,10.56,0,0,1-4.278-1.62,7.946,7.946,0,0,1,.348,2.982.27.27,0,0,1-.27.235.2.2,0,0,1-.205-.173,7.011,7.011,0,0,0-2.723-4.1,8.378,8.378,0,0,0-2.251-1.224,7.348,7.348,0,0,0-2.48-.447,6.276,6.276,0,0,0-1.166.108,9,9,0,0,0-4.959,2.817,10.29,10.29,0,0,0-1.631,2.38,10.438,10.438,0,0,0-.921,2.756,14.1,14.1,0,0,0,.4,6.389,16.147,16.147,0,0,0,1.215,3.034,14.6,14.6,0,0,0,1.77,2.648,8.255,8.255,0,0,0,4.8,3,6.283,6.283,0,0,0,.98.077,5.989,5.989,0,0,0,1.681-.236,8.939,8.939,0,0,0,.871-.326l.183-.076a4.849,4.849,0,0,1,.764-.215,4.235,4.235,0,0,0,.81-.239,1.4,1.4,0,0,1,.572-.127,1.177,1.177,0,0,1,1.056,1.755,4.69,4.69,0,0,1-1.705,2.131,14.943,14.943,0,0,1,1.129,1.674c.135.227.247.4.317.5a50.377,50.377,0,0,0,3.491,4.273,36.44,36.44,0,0,0,4.163,3.825l.622.491a14.665,14.665,0,0,1,3.673,3.8,1.907,1.907,0,0,1,.013,1.954,2.093,2.093,0,0,1-.7.748,1.873,1.873,0,0,1-1.007.3H403.7a8.267,8.267,0,0,1-3.253-.731,11.648,11.648,0,0,1-2.805-1.814,26.024,26.024,0,0,1-4.376-5.174c-.332-.5-.657-1.035-.964-1.6a3.424,3.424,0,0,1-.362.484l.27.713a1.6,1.6,0,0,1-.174,1.532,2.116,2.116,0,0,1-.8.675,2.34,2.34,0,0,1-1.038.25,1.833,1.833,0,0,1-.9-.224,1.663,1.663,0,0,1-.675-.722,29.91,29.91,0,0,0-2.47-4.05,2.1,2.1,0,0,1-1.374-.835c-.243-.353-.5-.711-.749-1.06-.526-.737-1.072-1.5-1.552-2.284-.37-.352-.767-.706-1.215-1.08l-.06.054h0c-.1.087-.2.174-.294.27a15.137,15.137,0,0,1-1.956,3.284l-.17.217a16.656,16.656,0,0,1-2.633,2.724,7.75,7.75,0,0,1-3.336,1.629.869.869,0,0,1-.155.015.955.955,0,0,1-.864-.6.7.7,0,0,1,.212-.81,27.1,27.1,0,0,1,2.273-1.771,19.74,19.74,0,0,0,3.065-2.554,19.227,19.227,0,0,0,2.115-2.768l.135-.227c.093-.152.194-.315.317-.508-.717-.489-1.444-.987-2.148-1.469a18.41,18.41,0,0,1-3.956,2.366,27.607,27.607,0,0,0-2.759,1.485l-.216.142a1.838,1.838,0,0,1-1.03.332,1.8,1.8,0,0,1-1.091-.386,2.352,2.352,0,0,1-.728-.952,1.953,1.953,0,0,1,.385-2.191,43.081,43.081,0,0,0,3.52-4.229h0c.4-.521.81-1.058,1.215-1.578a11.385,11.385,0,0,1-1.2-4.515c-.051-.462-.093-.937-.135-1.35H371.7a5.5,5.5,0,0,1-3.088-1.016l-.356-.254a10.77,10.77,0,0,1-3.233.514h-.261a3.019,3.019,0,0,1-1.659-.524,2.9,2.9,0,0,1-1-1.224,3.128,3.128,0,0,1-.229-1.7,3.263,3.263,0,0,1,.772-1.675,5.981,5.981,0,0,1,4.566-1.959,6.909,6.909,0,0,1,2.565.5c.076-.039.156-.082.233-.125a2.764,2.764,0,0,1,.041-1.419l-.038-.255a6.593,6.593,0,0,1-1-2.7,6.252,6.252,0,0,1,.1-2.295,3.873,3.873,0,0,1,.178-.521c.034-.085.068-.173.1-.261a5.06,5.06,0,0,1-.344-1.509c-.05-.059-.108-.135-.16-.2a4.082,4.082,0,0,1-.777-2.632,4.145,4.145,0,0,1,.959-2.393,1.9,1.9,0,0,1,.024-.256c-.065-.146-.127-.3-.182-.451a5.092,5.092,0,0,1-1.763-4.115,4.283,4.283,0,0,1,1.1-2.515,1.428,1.428,0,0,1,.012-1,11.932,11.932,0,0,1-.683-4.194,18.612,18.612,0,0,1,.551-4.4,3.891,3.891,0,0,1-.217-1.421,4.363,4.363,0,0,1,1.257-2.835,4.245,4.245,0,0,1,1.284-.906,3.727,3.727,0,0,1,1.546-.339h.042a3.721,3.721,0,0,1,.749.088v-.051a5.759,5.759,0,0,1,.518-1.771,1.115,1.115,0,0,1-.347-.2,19.567,19.567,0,0,1-4.454,1.716,1.344,1.344,0,0,1-.328.041,1.569,1.569,0,0,1-1.339-.819,1.25,1.25,0,0,1,.057-1.316,9.629,9.629,0,0,1,1.089-1.359,13.945,13.945,0,0,0-1.7.115,2.011,2.011,0,0,1-.256.016,2.783,2.783,0,0,1-1.429-.441,3.968,3.968,0,0,1-1.169-1.1c-.833.81-1.679,1.628-2.5,2.419h0a3.2,3.2,0,0,1-2.253.953,3.348,3.348,0,0,1-2.222-.871,3.592,3.592,0,0,1-1.171-2.245,4.754,4.754,0,0,1-1.733-.861,28.976,28.976,0,0,1-5.177,1.684,30.5,30.5,0,0,1-5.423.711h-.135a3.018,3.018,0,0,1-1.62-.46,3.373,3.373,0,0,1-1.119-1.17,3.69,3.69,0,0,1-.5-1.722A3.364,3.364,0,0,1,340,73.057a17.133,17.133,0,0,1,3.031-3.89,35.637,35.637,0,0,1-5.669,1.227,1.789,1.789,0,0,1-.231.015,3.157,3.157,0,0,1-1.594-.517,2.876,2.876,0,0,1-1.12-1.187,12.673,12.673,0,0,1,.381-11.15c.057-.115.12-.227.182-.335h0l.045-.079c.193-.482.4-.956.625-1.409a7.207,7.207,0,0,1-1.932-4.2,9.326,9.326,0,0,1,.689-4.635,2.971,2.971,0,0,1-.339-2.62A22.986,22.986,0,0,1,335.8,40.69a22.006,22.006,0,0,1,2.315-3.2,6.929,6.929,0,0,1-.784-3.321,8.464,8.464,0,0,1,.347-2.327A8.653,8.653,0,0,1,340.1,27.9a11.76,11.76,0,0,1,4.825-2.565,13.774,13.774,0,0,1,2.794-3.477v-.007a2.78,2.78,0,0,1,.135-.27,9.822,9.822,0,0,1,3.5-3.761,10.841,10.841,0,0,1,2.265-1.073,12.1,12.1,0,0,1,2.461-.555,3.587,3.587,0,0,1,.7-1.767,3.1,3.1,0,0,1,1.532-1.109,10.457,10.457,0,0,1,1.554-3.1,4.414,4.414,0,0,1,1.35-1.223,3.24,3.24,0,0,1,3.314,0,20.489,20.489,0,0,1,2.7,1.843,3.717,3.717,0,0,1,1.313-.339l.123-.008,2.812-.143c.746-.331,1.5-.675,2.236-1.014.4-.184.853-.39,1.295-.59A9.445,9.445,0,0,1,377.364,7.3a9.6,9.6,0,0,1,2.97-.717A25.522,25.522,0,0,1,382.8,5.9a27.211,27.211,0,0,1,5.8-.649h.236c.042-.54.062-1.072.058-1.6v-.27a3.171,3.171,0,0,1,.837-2.225A3.59,3.59,0,0,1,391.84.039,3.52,3.52,0,0,1,392.356,0,3.066,3.066,0,0,1,394.3.681,4.219,4.219,0,0,1,395.549,2.4l.034.082c.194.5.413,1,.675,1.529a11.882,11.882,0,0,1,2.588-.906,12.532,12.532,0,0,1,2.775-.313,10.862,10.862,0,0,1,4.565.962,8.59,8.59,0,0,1,1.944,1.24,7.966,7.966,0,0,1,1.551,1.782,6.646,6.646,0,0,1,.891,2.16,8.731,8.731,0,0,1,.181,2.268,24.511,24.511,0,0,1-.794,4.605c-.085.355-.171.722-.252,1.08l-.49,2.176A3.726,3.726,0,0,1,410.4,20.28a2.935,2.935,0,0,1,.447,1.6v.086l-.2,3.036a15.767,15.767,0,0,0,1.728-2.086c.363-.665.752-1.31,1.155-1.917a3.358,3.358,0,0,1,2.828-1.62,3.613,3.613,0,0,1,3.024,1.7,3.329,3.329,0,0,1,.035,3.355,20.6,20.6,0,0,1-1.284,2.16,19.229,19.229,0,0,0-1.287,3.141,3,3,0,0,1,1.755,2.719,8.034,8.034,0,0,1-.2,2.32,7.865,7.865,0,0,1-.826,2.076,8.714,8.714,0,0,1-1.367,1.787,10.211,10.211,0,0,1-1.828,1.458,3.082,3.082,0,0,1-1.654.5,2.924,2.924,0,0,1-.709-.093c-.122.163-.259.35-.388.54a17.194,17.194,0,0,1,2.886,2.982,52.135,52.135,0,0,1,7.574-.559,13.868,13.868,0,0,1,6.138-1.276,23.769,23.769,0,0,1,3.978.359,39.613,39.613,0,0,1,3.991.969h0c.753.211,1.531.429,2.3.616a29.843,29.843,0,0,0,4.024.594c.883.089,1.8.181,2.692.328a12.067,12.067,0,0,1,3.914,1.316,9.2,9.2,0,0,1,2.959,2.535,10.192,10.192,0,0,1,5,1.7c2.239,1.428,4.509,2.9,6.7,4.319l.012.008c1.215.782,2.459,1.589,3.694,2.384a3.548,3.548,0,0,1,1.585,3.754l-.016.1-.118.633.27.39.239.337a23.521,23.521,0,0,1,2.666,4.391,50.993,50.993,0,0,1,3.439,5.74,41.774,41.774,0,0,1,3.271,8.388c.178.684.38,1.459.508,2.219a5.817,5.817,0,0,1-.123,2.172h0c-.043.229-.088.466-.124.713-.09.613-.154,1.24-.215,1.848-.067.665-.135,1.35-.242,2.025a1.436,1.436,0,0,1-.574.958,1.869,1.869,0,0,1-1.042.336c.283,2.16.487,4.319.687,6.525.3,3.361.493,6.742.628,9.314a7.384,7.384,0,0,0,3.79,2.516,5.493,5.493,0,0,0,1.42.179,11.206,11.206,0,0,0,3.709-.81,1.046,1.046,0,0,1,.359-.065,1.13,1.13,0,0,1,.962.607,1.233,1.233,0,0,1,.035,1.227,4.329,4.329,0,0,1-1.81,1.729,5.168,5.168,0,0,1-2.349.523,7.744,7.744,0,0,1-3.264-.766,6.968,6.968,0,0,1-2.7-2.176c.041.855.085,1.725.127,2.565v.146l.042.819c.085,1.59.189,3.219.29,4.8.254,3.975.516,8.085.522,12.127,0,2.177-.065,4.153-.209,6.041a53.806,53.806,0,0,1-.776,5.972,37.5,37.5,0,0,1-4.184,11.452,36.9,36.9,0,0,1-7.4,9.271,35.774,35.774,0,0,1-9.928,6.377,34.961,34.961,0,0,1-11.754,2.768C444.491,172.489,443.725,172.507,442.976,172.507Zm-53.108-34.376h0c-.288.062-.572.109-.844.143l.011.027c.079.2.162.4.243.606.235.135.467.255.69.364A5.9,5.9,0,0,1,389.868,138.131Zm-14.443-3.855a6.344,6.344,0,0,1,.725.042v-.042l-.023-.008a1.016,1.016,0,0,1-.135-.05,6.334,6.334,0,0,1-.773-.441l-.19.35-.081.151-.009.017C375.1,134.281,375.261,134.276,375.425,134.276ZM371.695,82.7c-.289.01-.391.146-.39.235a.07.07,0,0,0,.063.077h.008c.031,0,.116-.019.228-.195A.887.887,0,0,1,371.695,82.7ZM404.33,43.464a20.94,20.94,0,0,0-8.427,2.25,39,39,0,0,0-7.35,4.7,50.044,50.044,0,0,0-5.233,4.847,64.175,64.175,0,0,0-4.574,5.479,59.619,59.619,0,0,0-1.9,5.791c-.225.828-.4,1.675-.567,2.5h0c-.095.457-.19.93-.3,1.394l-.092.4a6.27,6.27,0,0,0-.528,1.375,4.057,4.057,0,0,0,1.937,1.072,1.2,1.2,0,0,1,.6.344,12.55,12.55,0,0,0,1.424-3.168l.011-.051a65.559,65.559,0,0,1,3.735-5.474,78.259,78.259,0,0,1,5.872-6.934,56.388,56.388,0,0,1,6.768-6.053,42.73,42.73,0,0,1,5.862-3.72,40.785,40.785,0,0,1,6.385-2.689A13.382,13.382,0,0,0,404.33,43.464Zm-10.348,83.149h-.092c-1.755-.12-2.959-1.463-4.118-2.763-.414-.464-.81-.9-1.223-1.292a27.431,27.431,0,0,0-5.582-4.091.315.315,0,0,1-.151-.359.319.319,0,0,1,.285-.27h.034a22.07,22.07,0,0,1,3.563.46,15.479,15.479,0,0,1,3.392,1.179l.2.1a16.2,16.2,0,0,1,3.415,2.145,5.739,5.739,0,0,1,1.29,1.541,3.132,3.132,0,0,1,.393,1.848,1.933,1.933,0,0,1-.426,1.024A1.269,1.269,0,0,1,393.982,126.613Z" transform="translate(-333.304 0)" fill="#040505"/>
    </g>
    <g id="FACIAL_HAIR" data-name="FACIAL HAIR" transform="translate(62.172 116.396)">
      <path id="_Ink-4" data-name=" Ink-4" d="M579.915,440.066h0a65.966,65.966,0,0,1-12.361-1.193,67.062,67.062,0,0,1-11.9-3.435A56.422,56.422,0,0,1,545.1,430a40.541,40.541,0,0,1-8.336-7.224,19.016,19.016,0,0,1-3.853-3.445,21.368,21.368,0,0,1-2.788-4.236,27.972,27.972,0,0,1-1.866-4.842,39.26,39.26,0,0,1-1.1-5.264c-1.022-7.169-.439-14.911.187-21.606.158-1.434.277-2.926.394-4.371.425-5.25.863-10.677,3.133-15.352a1.511,1.511,0,0,1,.351-1.215,1.542,1.542,0,0,1,1.135-.571,1.1,1.1,0,0,1,1.026.745c1.472,3.412,3.14,7.281,5.009,10.9.99,1.915,1.958,3.618,2.96,5.2a48.044,48.044,0,0,0,3.472,4.839,22.139,22.139,0,0,0,2.866,3.264,28.715,28.715,0,0,0,3.806,3.036,21.971,21.971,0,0,0,4.249,2.239,11.86,11.86,0,0,0,4.2.873,6.122,6.122,0,0,0,4.2-1.494,9.27,9.27,0,0,0,2.63-5.1,10.955,10.955,0,0,1,3.221-4.094,17.736,17.736,0,0,1,4.865-2.7,29.074,29.074,0,0,1,5.736-1.485,37.438,37.438,0,0,1,5.838-.454,32.293,32.293,0,0,1,5.277.4A9.478,9.478,0,0,1,596.667,381,15.815,15.815,0,0,1,599,385.06a11.7,11.7,0,0,0,2.069,3.518,4.68,4.68,0,0,0,1.67,1.1,6.755,6.755,0,0,0,2.478.4,12.168,12.168,0,0,0,1.281-.073.981.981,0,0,0,.278.04h.072a10.6,10.6,0,0,0,1.044-2.061c.124-.293.241-.57.363-.835-.013-.07-.029-.142-.045-.212a3.334,3.334,0,0,1-.074-.42,2.441,2.441,0,0,1,.748-.747,1.874,1.874,0,0,1,1-.282,2.394,2.394,0,0,1,.865.174,1.612,1.612,0,0,1,.1.313,98.572,98.572,0,0,1,2.235,22.574,66.1,66.1,0,0,1-1.239,11.306,49.919,49.919,0,0,1-3.393,10.67,33.829,33.829,0,0,1-12.828,7.231A47.177,47.177,0,0,1,588,439.493,57.036,57.036,0,0,1,579.915,440.066Zm5.841-55.935q-.365.011-.73.03a37.107,37.107,0,0,0-5.732.764,18.539,18.539,0,0,0-5.31,1.78,9.041,9.041,0,0,0-1.757,1.266,6.469,6.469,0,0,0-1.455,1.99,5.336,5.336,0,0,0-.391,1.18,7.993,7.993,0,0,1-.206,1.071,3.641,3.641,0,0,0,.28,2.3,6.625,6.625,0,0,0,1.35,2.106q.111.118.227.231a13.918,13.918,0,0,0,4.254,2.592,4.319,4.319,0,0,0,3.146.439c.877-.291,1.351-1.327,1.808-2.328a6.865,6.865,0,0,1,.889-1.589,5.32,5.32,0,0,1,1.447-1.08,3.131,3.131,0,0,1,1.362-.324,4.354,4.354,0,0,1,2.609,1.06,20.854,20.854,0,0,1,2.359,2.254c.5.525.965,1.02,1.431,1.447a1.17,1.17,0,0,0,.819.3c.161-.027.311-.079.476-.094a4.641,4.641,0,0,0,1.093-.228,5.354,5.354,0,0,0,1.922-1.193,6.228,6.228,0,0,0,1.322-1.817,10.423,10.423,0,0,0,.621-6.087,5.073,5.073,0,0,0-.823-2.316,5.679,5.679,0,0,0-1.242-1.1c-.4-.293-.807-.585-1.218-.867a10.381,10.381,0,0,0-1.123-.637,12.862,12.862,0,0,0-3.266-1.129,4.014,4.014,0,0,0-1.116-.162c-.3.024-.578.129-.886.127C587.2,384.115,586.476,384.111,585.756,384.132Z" transform="translate(-526.595 -361.873)" fill="#040505"/>
    </g>
  </g>
  <g id="Face" transform="translate(77.85 98.232)">
    <g id="FACE-2" data-name="FACE" transform="translate(54.557)">
      <path id="_Ink-2-2" data-name=" Ink-2" d="M649.924,355.5a9.938,9.938,0,0,1-3.771-.754,10.668,10.668,0,0,1-2.462-1.415,10.494,10.494,0,0,1-2-2.022,2.071,2.071,0,0,1-.418-1.607,2.313,2.313,0,0,1,.9-1.448,2.216,2.216,0,0,1,1.319-.46,1.874,1.874,0,0,1,.294.022,2.036,2.036,0,0,1,1.359.9l.08.111A7.045,7.045,0,0,0,647.8,351a5.85,5.85,0,0,0,2.556.6,5.71,5.71,0,0,0,.634-.036,6.66,6.66,0,0,0,2.815-.988,13.189,13.189,0,0,0,2.385-1.991c.171-.174.351-.363.586-.618a.928.928,0,0,1,.487-.371,1,1,0,0,1,.316-.051,1.075,1.075,0,0,1,.882.461.989.989,0,0,1,.167.647,5.946,5.946,0,0,1-.7,2.3,7.685,7.685,0,0,1-1.508,1.936,9.682,9.682,0,0,1-2.282,1.592,9.495,9.495,0,0,1-2.533.865A9.323,9.323,0,0,1,649.924,355.5Zm2.654-15.038h0a9.107,9.107,0,0,1-3.25-.655,16.414,16.414,0,0,1-3.822-2.17,1.47,1.47,0,0,1-.534-.849,1.757,1.757,0,0,1,.075-.953,2.17,2.17,0,0,1,.644-.931,1.566,1.566,0,0,1,1-.391,1.421,1.421,0,0,1,.776.238l.258.2h0a20.731,20.731,0,0,0,2.392,1.664,5.89,5.89,0,0,0,2.868.914,3.093,3.093,0,0,0,1.212-.238,3.391,3.391,0,0,0,1.128-.8,3.46,3.46,0,0,0,.656-2.786,5.265,5.265,0,0,0-1.4-2.471,10.181,10.181,0,0,0-2.115-1.707.657.657,0,0,1-.178-.754.988.988,0,0,1,.326-.47,1,1,0,0,1,.624-.206,1.334,1.334,0,0,1,.224.02,7.085,7.085,0,0,1,2.494.9,5.658,5.658,0,0,1,1.677,1.547,6.147,6.147,0,0,1,1.07,4.1,6.762,6.762,0,0,1-.549,2.155,6.278,6.278,0,0,1-1.236,1.854A5.9,5.9,0,0,1,652.578,340.457Zm-21.146-14.685a2.131,2.131,0,0,1-1.383-.542,2.156,2.156,0,0,1-.725-1.394,15.7,15.7,0,0,1,.083-4.088c.049-.4.1-.808.136-1.251a2.446,2.446,0,0,1,.927-1.749,2.853,2.853,0,0,1,1.756-.618,2.164,2.164,0,0,1,1.328.417,1.973,1.973,0,0,1,.734,1.306,10.972,10.972,0,0,1-1.144,6.758,2.167,2.167,0,0,1-.765.885A1.762,1.762,0,0,1,631.431,325.772Zm31.04-.927a1.863,1.863,0,0,1-1.462-.627,5.7,5.7,0,0,1-.891-1.518,6.594,6.594,0,0,1-.455-1.825,3.87,3.87,0,0,1,1.054-3.32,2.238,2.238,0,0,1,.169-.257,2.389,2.389,0,0,1,1.838-1.058,1.992,1.992,0,0,1,.559.083,2.688,2.688,0,0,1,1.8,1.567,5.543,5.543,0,0,1,.222,3.031,10.146,10.146,0,0,1-.919,2.859,1.855,1.855,0,0,1-.795.785,2.4,2.4,0,0,1-1.115.279Zm-40.408-9.739a.339.339,0,0,1-.283-.173.378.378,0,0,1-.022-.371,12.88,12.88,0,0,1,2.888-3.658,17.856,17.856,0,0,1,3.87-2.641,16.62,16.62,0,0,1,4.59-1.606l.494-.085a11.9,11.9,0,0,1,1.992-.213,3.09,3.09,0,0,1,2.472.922,2.1,2.1,0,0,1,.494,1.493,1.368,1.368,0,0,1-.494.975,3.808,3.808,0,0,1-2.61.766c-.205,0-.418,0-.618-.01h-.017c-.2,0-.421-.011-.644-.011s-.388,0-.559.015a17.637,17.637,0,0,0-3.884.662,26.383,26.383,0,0,0-7.488,3.875A.324.324,0,0,1,622.064,315.107Zm47.262-1.977h0l-.207-.052a11.7,11.7,0,0,1-2.266-.88l-.741-.362a20.445,20.445,0,0,0-2.625-1.121,30.978,30.978,0,0,0-5.987-1.322,2.447,2.447,0,0,1-1.2-.456,1.8,1.8,0,0,1-.672-1.023,1.831,1.831,0,0,1,.21-1.541,1.955,1.955,0,0,1,.948-.817,2.126,2.126,0,0,1,.808-.154,2.386,2.386,0,0,1,.466.047l.371.077a26.775,26.775,0,0,1,6.465,2.1,13.07,13.07,0,0,1,2.842,1.871,8.306,8.306,0,0,1,2.011,2.6c.07.543,0,.677-.068.769l-.014.03-.018.025a.52.52,0,0,1-.321.214Z" transform="translate(-621.72 -305.402)" fill="#030504"/>
    </g>
    <g id="ACCESORIES" transform="translate(0 0.758)">
      <path id="_Ink-5" data-name=" Ink-5" d="M513.25,342.046h0a16.854,16.854,0,0,1-3.453-.362,17.6,17.6,0,0,1-6.36-2.731,17.132,17.132,0,0,1-2.661-2.265,16.078,16.078,0,0,1-3.4-5.319,16.413,16.413,0,0,1-1.069-6.709,2.362,2.362,0,0,1-1.593-.868,4.636,4.636,0,0,1-.644-1.485c-.42-1.373-.9-2.929-4.082-3.458a6.189,6.189,0,0,1-2.651-1.762,72.77,72.77,0,0,0-7.734-.435,56.071,56.071,0,0,0-8.8.675,48.32,48.32,0,0,0-8.7,2.225c-.506.212-1.042.4-1.562.6a18.467,18.467,0,0,0-2.647,1.119,3.84,3.84,0,0,0-1.73,1.71,4.3,4.3,0,0,0,.215,3.385,1.7,1.7,0,0,1-1.663,1.62,1.431,1.431,0,0,1-1.042-.45h0a11.759,11.759,0,0,1-1.5-4.115,5.347,5.347,0,0,1,.441-3.072c.829-1.7,2.69-3,5.693-3.992a57.136,57.136,0,0,1,8.481-1.784l.533-.085a57.2,57.2,0,0,1,12.031-1.259c.42,0,.847,0,1.268.014.517.022,1.062.03,1.639.039h0a19.122,19.122,0,0,1,4.969.479h.021a3.823,3.823,0,0,1,2.195-1.879,22.033,22.033,0,0,1,4.686-1.419,56.458,56.458,0,0,1,6.392-.906c2.358-.21,4.819-.317,7.311-.317a78.106,78.106,0,0,1,7.987.394,48.1,48.1,0,0,1,7.165,1.234,19.059,19.059,0,0,1,5.371,2.16,5.445,5.445,0,0,1,2.6,3.179h.435c.891,0,1.74.07,2.423.126l.094.008c.739.061,1.435.117,2.133.117a8.457,8.457,0,0,0,2.751-.413,5.43,5.43,0,0,1,2.366-3.618,17.993,17.993,0,0,1,5.278-2.589,40.51,40.51,0,0,1,6.85-1.555,50.284,50.284,0,0,1,7.073-.52,29.131,29.131,0,0,1,6.173.568,11.185,11.185,0,0,1,1.706.3,2.115,2.115,0,0,1,.649.232c.225.034.463.07.7.111a1.694,1.694,0,0,1,1.04.6,2.232,2.232,0,0,1,.474,1.1,2.087,2.087,0,0,1-1,2.222,3.18,3.18,0,0,0-1.4,1.293,2.6,2.6,0,0,0-.247,1.878,2.1,2.1,0,0,1-.094,1.323,1.931,1.931,0,0,1-.78.882,40.113,40.113,0,0,1-1.339,9.841,21.532,21.532,0,0,1-1.875,4.589,16.465,16.465,0,0,1-3.069,3.951,17.339,17.339,0,0,1-4.225,2.07,13.243,13.243,0,0,1-4.062.661,11.384,11.384,0,0,1-4.933-1.1,12.012,12.012,0,0,1-3.993-3.1,14.176,14.176,0,0,1-1.89-2.9,16.656,16.656,0,0,1-1.257-3.509,19.848,19.848,0,0,1-.522-4.039,23.828,23.828,0,0,1,.311-4.485,1.455,1.455,0,0,1-.432-.464c-.07-.114-.135-.235-.211-.385a6.906,6.906,0,0,0-3.2-.637,9.779,9.779,0,0,0-1.336.092,5.923,5.923,0,0,0-3.951,2.212c-.149.154-.3.313-.463.475a1.442,1.442,0,0,1-1.022.761l-.063.354a55.7,55.7,0,0,1-1.852,8.081,20.938,20.938,0,0,1-1.666,3.771A15.124,15.124,0,0,1,524,337.794a15.538,15.538,0,0,1-10.745,4.245Zm.718-27.1a37.343,37.343,0,0,0-6.356.444,15.883,15.883,0,0,0-5.909,2.188,5.737,5.737,0,0,0-2.507,3.667,13.408,13.408,0,0,1-.722,1.78,3.843,3.843,0,0,1-1.165,1.4,19.632,19.632,0,0,0,2.046,6.5,17.5,17.5,0,0,0,3.753,4.859,16.172,16.172,0,0,0,4.852,3.045,14.354,14.354,0,0,0,5.344,1.054h0a12.706,12.706,0,0,0,4.33-.748,12.389,12.389,0,0,0,3.914-2.307,14.539,14.539,0,0,0,3.165-3.963,20.708,20.708,0,0,0,2.072-5.718,40.1,40.1,0,0,0,1.134-6.244c-.482-.424-.933-.844-1.367-1.249a19.645,19.645,0,0,0-3.941-3.086,14.407,14.407,0,0,0-6.105-1.6h-.236c-.75-.011-1.526-.022-2.3-.022Zm28.241,6.435a28.436,28.436,0,0,0,.593,4.882,19.151,19.151,0,0,0,1.609,4.7,10.832,10.832,0,0,0,2.894,3.653,8.381,8.381,0,0,0,4.445,1.755c.4.035.822.053,1.228.053a11.784,11.784,0,0,0,4.228-.738,7.35,7.35,0,0,0,3.307-2.43,18.542,18.542,0,0,0,2.024-3.564,23.5,23.5,0,0,0,1.279-3.885,36.111,36.111,0,0,0,.895-8.076,7.465,7.465,0,0,1-1.586-2.677,5.277,5.277,0,0,0-1.188-2.024,4.115,4.115,0,0,0-2.9-.853c-.308,0-.644.015-1,.045a26.713,26.713,0,0,0-6.223,1.05,12.221,12.221,0,0,0-3.754,1.858,8.369,8.369,0,0,0-2.025,2.21,13.873,13.873,0,0,0-1.059,2.1c-.51,1.2-.879,2.073-1.959,2.073A3.031,3.031,0,0,1,542.209,321.38Z" transform="translate(-452.104 -307.757)" fill="#040505"/>
    </g>
  </g>
</svg>
