<svg xmlns="http://www.w3.org/2000/svg" width="216.789" height="339.057" viewBox="0 0 216.789 339.057">
  <g id="Group_401" data-name="Group 401" transform="translate(-218.362 -65.055)">
    <path id="Path_136" data-name="Path 136" d="M435.477,777.879a3.641,3.641,0,0,1-.657,2.833,3.5,3.5,0,0,1-1.608.752l-34.041,9.22a4.648,4.648,0,0,1-2.433.21c-1.505-.419-2.191-2.155-2.646-3.677a205.183,205.183,0,0,1-4.848-97.114c-25.008,4.642-46.282,20.605-68.458,33.275-13.465,7.693-27.749,14.434-38.957,25.254-7.031,6.787-12.625,14.977-19.452,21.979a9.932,9.932,0,0,1-4.167,2.939,9.781,9.781,0,0,1-3.988.022,92.2,92.2,0,0,1-26.929-8.114c11.834-20.948,12.775-46.438,10.9-70.539-.592-7.61-1.185-16.1,3.554-22.01,2.4-3,5.886-4.875,9.4-6.354,7.587-3.2,15.705-4.88,23.836-6.032,28.363-4.018,57.19-1.739,85.794-3.085,9.142-.43,18.389-1.225,27.383.5a50.293,50.293,0,0,1,22.034,10.39,52.021,52.021,0,0,1,8.658,8.928c1.221,1.607,2.32,3.306,3.455,4.976a9.767,9.767,0,0,1,1.758,3.619,27.5,27.5,0,0,1,0,6c-.077,2.481-.067,4.964.017,7.445.169,5.007.639,10,1.293,14.964,1.318,10.012,3.372,19.9,5.3,29.8a271.453,271.453,0,0,1,4.556,30.057Q435.375,776,435.477,777.879Z" transform="translate(-5.9 -390.945)" fill="#fff"/>
    <path id="_Background-2" data-name=" Background-2" d="M440.175,85.24c-42.2-2.157-45.152,10.593-50.948,18.72-2.876,4.034-10.3,10.007-11.534,23.8-.855,9.576,4.588,20.613,4.588,29.17a22.072,22.072,0,0,1-1.337,6.048,50.966,50.966,0,0,0-1.866,7.662c-.217,1.624.048,3.174-.185,4.752a10.59,10.59,0,0,0,1.415,6.683,28.115,28.115,0,0,0,5.311,6.2l8.953,8.588c2.278,2.185,4.714,4.7,4.914,7.914.253,4.064-3.084,7.235-5.4,10.523-4.23,6.013-5.4,14.064-3.7,21.3a33.9,33.9,0,0,0,11.739,18.226,23.973,23.973,0,0,0,7.565,4.359,30.5,30.5,0,0,0,10.2,1.045c8.2-.19,16.691-1.2,23.718-5.595,4.544-2.842,8.227-6.956,11.5-11.295a35.31,35.31,0,0,0,5.2-8.846,22.334,22.334,0,0,0-4.583-22.565c-1.84-1.921-4.029-3.469-5.749-5.507a9.543,9.543,0,0,1-2.5-6.2c.06-2.193,1.449-4.151,2.6-5.9,1.664-2.539,3.922-4.359,6.118-6.37a71.938,71.938,0,0,0,11.181-12.907C472.575,167.3,482.379,87.4,440.175,85.24Z" transform="translate(-105.191 -13.174)" fill="#fff"/>
    <path id="Path_137" data-name="Path 137" d="M248.258,659.116a10.44,10.44,0,0,1-1.819-2.747c-1.334-2.957-1.068-6.289-.292-9.36a57.065,57.065,0,0,0,1.455-7.188c.529-4.254,2.411-8.438,3.431-12.6a164.517,164.517,0,0,0,4.469-47.967q-.327-6.036-1.1-12.034c-.12-.931-1.409-10.753-1.761-10.731a99.51,99.51,0,0,1-18.066-.506c.144-.954.3-1.9.469-2.824-.609-.1-1.6-.18-2.739-.269a56.013,56.013,0,0,1-6.079-.7,11.009,11.009,0,0,1-2.464-.732,2.089,2.089,0,0,1-1.237-1.146.868.868,0,0,1,.534-.609,2.324,2.324,0,0,1,.9-.137c.2,0,.4.011.571.02.2.009.373.019.53.019a2.038,2.038,0,0,0,.374-.029,93,93,0,0,1,.493-11.655c.381-3.864.935-7.793,1.471-11.594.47-3.338.957-6.786,1.333-10.224a61.307,61.307,0,0,1,1.068-6.676,37.8,37.8,0,0,1,1.959-6.339,27.153,27.153,0,0,1,3.195-5.725,23.675,23.675,0,0,1,4.778-4.835,37.562,37.562,0,0,1,5.186-3.51,57.493,57.493,0,0,1,5.787-2.843c4.014-1.723,8.369-3.174,12.582-4.578,5.67-1.889,11.316-4.867,17.076-6.315,3.744-.941,8.71-.932,12.509-.978-.411,8.039-2.667,15.209.437,23.122,4.919,11.793,19.5,16.161,32.01,14.94,7.6-.742,14.423-5,20.615-9.555,8.136-5.979,10.931-14.315,12.144-24.468.269-2.25,1.569-7.269,2.832-9.135.91-1.343,4.983.792,6.6,1.372.756.272.851.863,1.435,1.248a37.957,37.957,0,0,0,5.848,3.047c4.362,1.89,9.3,3.743,15.555,5.835a78.059,78.059,0,0,1,14.038,4.648,47.949,47.949,0,0,1,5.946,3.2,37.373,37.373,0,0,1,5.142,3.921,32.179,32.179,0,0,1,7.6,10.436,38.131,38.131,0,0,1,2.329,6.728,49.978,49.978,0,0,1,1.258,7.876c.495,3.369.836,6.7,1.042,10.178.2,3.286.265,6.611.214,10.164-.09,6.151-.534,12.749-1.441,21.393a5.036,5.036,0,0,1-1.012.184,2.539,2.539,0,0,0-1.713.619,2.5,2.5,0,0,0-.39-.029,4.17,4.17,0,0,0-1.964.543l-1.429.039c-.043.363-.079.731-.116,1.1-6.341-.61-12.665-1.555-18.914-2.658-2.065-.364-4.321-.715-6.149.33s-2.715,3.208-3.425,5.225a148.441,148.441,0,0,0-3.269,87.2,18.375,18.375,0,0,0,.779,2.973,11.025,11.025,0,0,0,1.172,1.509,6.777,6.777,0,0,1,1.139,3.985,9.7,9.7,0,0,1-3.711,7.523c-4,2.976-9.335,3.048-14.286,3l-59.477-.564c-18.6-.176-37.475-.392-55.336-5.688C254.688,663.446,250.789,661.893,248.258,659.116Z" transform="translate(-2.749 -266.685)" fill="#afb1b3"/>
    <path id="Path_138" data-name="Path 138" d="M429.069,602.308c-.005-.047-.01-.094-.015-.141-.559-5.031-1.372-10.5-2.486-16.708-.993-5.541-2.129-11.149-3.228-16.573-1.031-5.093-2.1-10.359-3.044-15.558-1.061-5.83-1.856-10.957-2.431-15.672-.358-2.938-.626-5.585-.818-8.09a110.7,110.7,0,0,1-.574-25.226c-.661-.006-1.329-.009-1.984-.009a225.049,225.049,0,0,0-24.886,1.386c-1.15,10.913-2.455,21.6-3.581,30.621-.551,4.407-1.174,9.638-1.612,15.018-.45,5.524-.643,10.46-.591,15.089a98.231,98.231,0,0,0,1.186,14.812,140.8,140.8,0,0,0,3.192,13.983c.352,1.3.716,2.613,1.068,3.884.906,3.27,1.842,6.652,2.638,10.011q.265.679.543,1.374-2.735.421-5.478.79c-.91-4.216-2.03-8.4-3.033-12.153-1.482-5.543-2.536-10.129-3.315-14.434a101.55,101.55,0,0,1-1.647-14.719,138.139,138.139,0,0,1,.365-15.134c.335-4.479.859-9.261,1.649-15.051,1.236-9.068,2.77-18.713,4.831-30.351.286-1.616.57-3.24.844-4.811.711-4.063,1.446-8.264,2.218-12.393.32-1.714.627-3.468.922-5.169.7-4.041,1.433-8.219,2.427-12.245a.159.159,0,0,1,.161-.122.18.18,0,0,1,.128.054.157.157,0,0,1,.041.116c-.137,3.641-.534,7.345-.916,10.931-.157,1.47-.319,2.989-.461,4.48-.348,3.646-.728,7.329-1.089,10.765a4.591,4.591,0,0,1,1.055-.1c.254,0,.51.012.787.023.206.009.42.018.636.022.864.018,1.735.02,2.552.02h.54c.416,0,.859,0,1.293,0,2.938.012,5.824.025,8.768.04,4.826.022,9.994.094,15.089.468l.03-.007c.3-.072.6-.149.906-.243a2.115,2.115,0,0,0,1.253-.913,3.319,3.319,0,0,0,.41-1.555,46.506,46.506,0,0,0-.117-5.871c-.071-1.143-.144-2.325-.164-3.472-.056-3.3-.035-6.611.064-9.828.01-.345.014-.7.017-1.071.017-1.877.037-4,1.055-5.566-.124-1.806-.267-3.47-.434-5.089a93.977,93.977,0,0,0-3.709-18.83,30.4,30.4,0,0,0-2.776-6.272,25.857,25.857,0,0,0-4.2-5.377,29.822,29.822,0,0,0-5.044-3.929,41.614,41.614,0,0,0-5.646-2.929,108.557,108.557,0,0,0-12.079-4.124l-.96-.287c-5.647-1.689-10.548-3.382-14.982-5.176-2.534-1.025-4.975-2.109-7.255-3.222-2.439-1.189-4.789-2.459-6.983-3.773a.5.5,0,0,1,0,.426.4.4,0,0,1-.291.212,1.954,1.954,0,0,0-1.208.8,10.867,10.867,0,0,1-.574,1.962,1.62,1.62,0,0,1-.2.349c-.079.6-.115,1.2-.147,1.74-.019.322-.037.627-.062.887a39.289,39.289,0,0,1-1.267,6.887,45.236,45.236,0,0,1-2.429,6.651,43.5,43.5,0,0,1-3.446,6.165,41.826,41.826,0,0,1-4.416,5.492,40.743,40.743,0,0,1-5.256,4.639,38.609,38.609,0,0,1-5.963,3.625,36.209,36.209,0,0,1-6.535,2.451,37.607,37.607,0,0,1-9.69,1.269,34.716,34.716,0,0,1-17.749-4.728,34.224,34.224,0,0,1-5.33-3.906,32.967,32.967,0,0,1-4.46-4.873,30.794,30.794,0,0,1-3.361-5.691A28.812,28.812,0,0,1,285.792,432a35.051,35.051,0,0,1-.62-7.113,42.612,42.612,0,0,1,.715-7.109c.155-.84.307-1.6.465-2.311a39.082,39.082,0,0,1-4.614,3.454,51.341,51.341,0,0,1-5.05,2.836A84.98,84.98,0,0,1,266,426.05c-1.345.451-2.718.9-4.047,1.324l-.014,0c-3.111,1.006-6.329,2.046-9.419,3.251a56.576,56.576,0,0,0-8.98,4.343,35.049,35.049,0,0,0-4.611,3.318,24.267,24.267,0,0,0-3.876,4.174,23.069,23.069,0,0,0-3.112,6.184,41.4,41.4,0,0,0-1.6,6.787c-1.045,6.492-1.8,13.129-2.428,18.842-.349,3.193-.671,6.389-.958,9.5-.175,1.923-.314,3.524-.437,5.038a9.692,9.692,0,0,1-.591,3.033c2.408.656,4.813,1.119,6.638,1.448a68.545,68.545,0,0,0,7.994.926c1.387.086,2.75.113,4.14.136.164,0,.338,0,.535,0,.214,0,.436,0,.615,0h.066c.176,0,.359,0,.538,0h.31a3.409,3.409,0,0,1,.793.122c.085.02.173.041.262.06-.176-5.743-.254-10.5-.244-14.983.013-5.4.152-10.3.43-14.973a.261.261,0,0,1,.263-.236.189.189,0,0,1,.195.173c.913,5.463,1.676,11.251,2.333,17.7.53,5.2.994,10.858,1.46,17.8.18,2.664.363,5.373.541,8l0,.029c.6,8.807,1.219,17.915,1.75,26.877.383,6.489.521,11.449.447,16.083a105.727,105.727,0,0,1-1.369,16.012,68.518,68.518,0,0,1-1.742,7.639,65.7,65.7,0,0,1-2.621,7.372,84.112,84.112,0,0,1-4.309,8.355c-.463.82-.933,1.654-1.4,2.5q-2.639-1.025-5.275-2.056c.581-1.056,1.177-2.1,1.77-3.136l.088-.154c1.506-2.632,2.665-4.852,3.65-6.989a52.836,52.836,0,0,0,2.793-7.381,76.593,76.593,0,0,0,2.717-15.736,158.4,158.4,0,0,0,.3-16c-.162-8.018-.528-16.168-.882-24.054-.169-3.751-.343-7.631-.493-11.451-.14-3.551-.276-7.032-.387-10.584-.053.032-.1.066-.15.094a2.733,2.733,0,0,1-.742.363c-.629.188-1.249.339-1.993.517-1.463.35-2.92.574-4.026.73a49.8,49.8,0,0,1-6.92.488c-.234,0-.473,0-.712-.005-.3-.005-.618-.014-.941-.025,1.289,6.668,1.385,13.695,1.478,20.489.013.948.028,2.021.045,3.039.025,1.419.058,2.865.09,4.264v.017c.084,3.718.172,7.563.133,11.344q-.026,5.667-.612,11.311a89.294,89.294,0,0,1-2.445,12.837c-1.161,4.459-2.573,8.824-3.8,12.5-.954,2.864-1.935,5.775-2.882,8.589,0,0-.006.019-.006.021-.356,1.056-.715,2.125-1.075,3.193q-2.454-.893-4.922-1.743.654-1.935,1.3-3.853c.471-1.394,1-2.974,1.52-4.5l.217-.641.083-.243c1.289-3.807,2.622-7.744,3.773-11.665a99.7,99.7,0,0,0,2.805-11.933,87.87,87.87,0,0,0,1.012-10.514c.151-3.528.161-7.121.171-10.6.005-1.737.01-3.532.033-5.29q.012-.988.024-1.976c.051-4.34.1-8.827.327-13.228a89.771,89.771,0,0,1,1.133-11.516,57.973,57.973,0,0,1-5.789-.747c-.241-.043-.513-.085-.809-.129a14.481,14.481,0,0,1-3.68-.9,3.717,3.717,0,0,1-1.4-1.026,2.476,2.476,0,0,1-.525-1.659,2.222,2.222,0,0,1,.6-1.454,2.906,2.906,0,0,1,1.36-.806,2.752,2.752,0,0,1,.743-.1,17.9,17.9,0,0,1,.226-4.307c.075-.57.147-1.109.2-1.646.278-2.946.577-5.862.889-8.667.624-5.645,1.367-11.505,2.208-17.416.737-5.171,1.5-10.517,3.926-15.335a26.835,26.835,0,0,1,3.355-5.083,30.792,30.792,0,0,1,4.333-4.25,41.715,41.715,0,0,1,5.468-3.72,55.964,55.964,0,0,1,5.84-2.891c3.99-1.713,8.217-3.081,12.306-4.4,3.539-1.145,7.2-2.33,10.7-3.735,1.882-.756,3.567-1.514,5.151-2.317a47.07,47.07,0,0,0,4.915-2.855,30.3,30.3,0,0,0,9.008-8.988,23.726,23.726,0,0,0,1.4-2.642,6.161,6.161,0,0,0,.791-2.51c-.011-.555-.235-1.082.008-1.618a2.14,2.14,0,0,1,1.855-1.169,2.755,2.755,0,0,1,2.434,1.848,3.894,3.894,0,0,1-.093,2.933c-.149.307-.365.576-.527.875a5.667,5.667,0,0,0-.289.637c-.088.223-.151.457-.237.681-.1.267-.629.993-.608,1.257a1.722,1.722,0,0,1-.05.568,29.2,29.2,0,0,1-1.411,3.842c-.295.7-.6,1.425-.868,2.15a49.572,49.572,0,0,0-1.76,5.836,35.5,35.5,0,0,0-.846,11.419,24.958,24.958,0,0,0,1.305,5.915,25.98,25.98,0,0,0,2.609,5.335,27.938,27.938,0,0,0,3.717,4.631,29.522,29.522,0,0,0,12.881,7.6,32.4,32.4,0,0,0,8.966,1.249,33.267,33.267,0,0,0,20.07-6.7,40.218,40.218,0,0,0,9.157-9.627,46.1,46.1,0,0,0,6.349-13.628c.274-.984.492-2.01.7-3,.188-.885.383-1.8.616-2.684a1.16,1.16,0,0,1-.535-.589,1.212,1.212,0,0,1,.039-.91,8.162,8.162,0,0,0,.309-5.506q-2.813-1.917-5.433-4.11a69.6,69.6,0,0,1-7.111-6.869,10.92,10.92,0,0,1-.942-1.55A6.215,6.215,0,0,0,341.1,397.4a6.059,6.059,0,0,1-2.152-2.514c-.422-1.345.295-2.768,1.06-3.945a66.368,66.368,0,0,1,5.4-6.9c1.121-1.31,2.684-2.754,4.3-2.189a4.391,4.391,0,0,1-.991,4.334,33.359,33.359,0,0,1-3.455,3.085,7.539,7.539,0,0,0-1.672,2.1,4.52,4.52,0,0,0-.431,1.244c-.2,1.124.922,1.949,1.576,2.753a64.144,64.144,0,0,0,11.7,11.126,79.578,79.578,0,0,0,7.5,4.884c2.473,1.424,5.142,2.794,7.936,4.075a144.011,144.011,0,0,0,16.676,6.3c.913.29,1.875.589,2.725.852,3.9,1.212,7.938,2.465,11.751,4.068a50.188,50.188,0,0,1,5.564,2.723,36.632,36.632,0,0,1,5.149,3.538,26.224,26.224,0,0,1,2.768,2.65,28.08,28.08,0,0,1,2.322,2.955,34.677,34.677,0,0,1,3.5,6.626,51.571,51.571,0,0,1,2.273,7.262c.536,2.232,1,4.685,1.427,7.5a114.6,114.6,0,0,1,1.175,12.734,1.234,1.234,0,0,1,.039,1.116c.118,3.813.085,7.741-.1,12.008-.163,3.714-.441,7.633-.85,11.984a10.677,10.677,0,0,1-.242,2.465c-.088.872-.181,1.757-.276,2.63a.489.489,0,0,1-.334.449,8.624,8.624,0,0,1-2.381.517c-.122.043-.254.085-.415.131a1.213,1.213,0,0,1-1.007.475h-.048l-.436-.012-.39-.011a4.512,4.512,0,0,0-.911.358,1.424,1.424,0,0,1-.635.173,110,110,0,0,0-.37,12.2c.154,2.855.408,5.738.754,8.568.348,2.846.8,5.725,1.343,8.555,1.6,8.328,3.8,16.671,5.924,24.739l.011.042c.573,2.173,1.166,4.42,1.736,6.63,1.354,5.237,2.575,10.691,3.63,16.213,1.008,5.275,1.9,10.782,2.642,16.369q.143,1.073.28,2.159Q432.12,601.4,429.069,602.308ZM359.231,413.416l-.006,0c-.111-.07-.226-.143-.34-.212.005.2.005.41,0,.616a2.882,2.882,0,0,1,.787-.108h.029C359.541,413.612,359.383,413.512,359.231,413.416Z" transform="translate(0 -209.186)" fill="#040505"/>
    <g id="Group_400" data-name="Group 400" transform="translate(268.297 65.055)">
      <g id="head_Medium_1" data-name="head Medium 1" transform="translate(0 0)">
        <path id="_Ink-2" data-name=" Ink-2" d="M370.738,143.247a6.3,6.3,0,0,0,1.877-3.314,13.573,13.573,0,0,0,.164-1.817c-3.7-5.276-7.3-17.739-7.3-24.556a44.637,44.637,0,0,1,9.186-26.523c11.127-14.906,29.649-22.549,47.776-21.948,17.358.571,35.822,7.1,46.65,21.046,35.926,46.281,5.774,96.834-16.311,107.351-1.921.915-8.131.6-7.267-1.358,2.485-5.617,4.443-15.962,4.9-18.291-.707.486-1.42.96-2.136,1.451-1.267.866-2.966,1.857-4.558,1.57a.175.175,0,0,1-.125-.167c-.073-1.525,1-3.093,1.938-4.18,1.306-1.511,2.548-3.059,3.954-4.476.6-.6,1.206-1.2,1.813-1.8a55.67,55.67,0,0,0-.791-10.822,110.168,110.168,0,0,0-5.151-18.382,56.011,56.011,0,0,1-5.2-4.365,51.388,51.388,0,0,1-9.484-13.247l-.095-.045q-7.464-3.54-14.805-7.338c-2.526-1.3-5.034-2.638-7.543-3.973-1.364-.727-2.77-1.389-4.165-2.073a48.6,48.6,0,0,0,1.5,5.808,2,2,0,0,1-2.411,2.462,39.064,39.064,0,0,1-13.229-5.154,41.329,41.329,0,0,1-5.7-4.249,48.017,48.017,0,0,1-6.1,7.4q-2.2,2.2-4.594,4.189c.721,5.063,1.339,10.138,2.122,15.19.409,2.641.9,5.282,1.211,7.937a8.435,8.435,0,0,1-2.47,7.071c-2.612,2.957-2.609,7.233-1.61,10.9.123.454.276.9.434,1.337.033.091.131.338.167.435a.018.018,0,0,0,0,.011s0,.006,0,.008,0,0,.006.006v.008l0,0c.117.278.242.551.368.824.571,1.229,1.208,2.431,1.871,3.612A73.165,73.165,0,0,0,387.7,179.664a43.524,43.524,0,0,0,7.017,5.9c.54.349,1.092.687,1.657,1,.3.168.615.324.927.483a3.616,3.616,0,0,0,.546.253,13.267,13.267,0,0,0,1.545.517q.422.11.852.19l.017,0s.006,0,.008,0a.022.022,0,0,0,.014,0c.106.008.295.025.331.025a46.019,46.019,0,0,0,11.834-1.547,36.7,36.7,0,0,0,6.162-2.135,27.087,27.087,0,0,0,2.921-1.576c.421-.264.819-.582,1.261-.812a4.461,4.461,0,0,1,2.027-.341,1.7,1.7,0,0,1,1.6,2.141,4.305,4.305,0,0,1-1.891,2.723,23.543,23.543,0,0,1-2.64,1.587,40.068,40.068,0,0,1-6.184,2.57,51.5,51.5,0,0,1-12.283,2.372,16.093,16.093,0,0,1-8.389-1.5,34.729,34.729,0,0,1-7.916-5.543,83.218,83.218,0,0,1-14.065-16.539c-3.739-5.657-6.641-11.816-5.686-18.839a13.538,13.538,0,0,1,3.375-7.349" transform="translate(-365.481 -65.055)" fill="#040505"/>
      </g>
      <g id="face_Cute" data-name="face Cute" transform="translate(15.697 59.351)">
        <path id="_Ink-3" data-name=" Ink-3" d="M431.267,289.951a7.189,7.189,0,0,0,3.027-.706,7.6,7.6,0,0,0,2.527-1.9,6.016,6.016,0,0,0,1.155-2,5.185,5.185,0,0,0,.228-2.348.79.79,0,0,0-.851-.717,1.248,1.248,0,0,0-.986.472l-.169.234a9.712,9.712,0,0,1-1.843,2.022,3.872,3.872,0,0,1-2.441.932,3.546,3.546,0,0,1-2.921-1.544,4.421,4.421,0,0,1-.649-1.6,5.464,5.464,0,0,0-.469-1.326,2.252,2.252,0,0,0-2.014-1.132,2.2,2.2,0,0,0-2.227,1.7,4.791,4.791,0,0,0,.087,2.357,6.391,6.391,0,0,0,1.1,2.127,8.9,8.9,0,0,0,6.292,3.429Zm-2.008-15.214a18.081,18.081,0,0,0,6.619-1.5,1.756,1.756,0,0,0,.9-.834,1.7,1.7,0,0,0,.124-1.068,1.747,1.747,0,0,0-.521-.934,1.5,1.5,0,0,0-1.028-.4,1.9,1.9,0,0,0-.607.105l-.336.142h0a15.5,15.5,0,0,1-5.486,1.536,3.953,3.953,0,0,1-1.685-.334,2.915,2.915,0,0,1-1.277-1.173,3.058,3.058,0,0,1,.05-2.5,5.732,5.732,0,0,1,2.245-2.287,13.119,13.119,0,0,1,2.911-1.323.724.724,0,0,0,.414-.808.936.936,0,0,0-1.01-.727c-.08,0-.161,0-.24,0a7.78,7.78,0,0,0-5.316,1.891,6.661,6.661,0,0,0-1.489,1.938,6.325,6.325,0,0,0-.659,2.222,5.6,5.6,0,0,0,.191,2.169,4.987,4.987,0,0,0,1.049,1.906,6.523,6.523,0,0,0,5.159,1.977h0Zm30.84-12.36a.688.688,0,0,0,.613-.454.484.484,0,0,0-.159-.554,23.427,23.427,0,0,0-3.893-2.617,26.529,26.529,0,0,0-4.349-1.876,2.891,2.891,0,0,0,.4-1.157,2.468,2.468,0,0,0-.136-1.2c-.048-.164-.108-.321-.161-.454l-.124-.308a2.24,2.24,0,0,0-.079-.429l-.006-.043,0,0a2.427,2.427,0,0,0-.568-.973,2.122,2.122,0,0,0-.952-.584,2.045,2.045,0,0,0-.555-.077,2.128,2.128,0,0,0-.852.18,2.524,2.524,0,0,0-1.279.682,2.954,2.954,0,0,0-.769,1.249c-.022.081-.047.162-.075.24l-.043.118.115-.3a1.935,1.935,0,0,1-.2.494,2.449,2.449,0,0,0-.176.406,3.292,3.292,0,0,0-.1,1.176c-.354,0-.646.016-.917.04l-.295.027c-1.634.156-3.459.444-4.438,1.9a1.4,1.4,0,0,0-.223.74,1.911,1.911,0,0,0,.153.8,1.428,1.428,0,0,0,1.044.907,3.565,3.565,0,0,0,.551.042,7.229,7.229,0,0,0,2.137-.431,9.708,9.708,0,0,1,1.75-.421,13.426,13.426,0,0,1,1.5-.082,16.117,16.117,0,0,1,2.942.281,37.941,37.941,0,0,1,5.155,1.472c1.129.382,2.3.776,3.473,1.089l.4.1v0A.483.483,0,0,0,460.1,262.376Zm-46.314-2.385a1.129,1.129,0,0,0,1.063-.687l.028-.06c.35-.831,1.312-1.253,2.857-1.253a11.736,11.736,0,0,1,1.385.092,16.231,16.231,0,0,1,2.589.577c.31.091.611.188.89.28l.3.1c.131.043.644.325.633.4,0,.012-.017.018-.046.018a.639.639,0,0,1-.119-.016.129.129,0,0,0-.028,0,.148.148,0,0,0-.137.117.11.11,0,0,0,.063.129.756.756,0,0,0,.333.078.849.849,0,0,0,.613-.287,1.026,1.026,0,0,0,.271-.753c-.062-1.02-1.466-1.633-2.395-2.038-.124-.054-.241-.105-.344-.153l-.052-.024c-.342-.161-.692-.313-1.041-.446a5.169,5.169,0,0,0,.508-1.014A4.506,4.506,0,0,0,421.42,254a1.045,1.045,0,0,0,0-.539l-.007-.052a1.685,1.685,0,0,0,.035-.365l.005-.048h-.005a1.767,1.767,0,0,0-.461-1.147,1.462,1.462,0,0,0-1.061-.457,1.889,1.889,0,0,0-1.135.414l-.088.07a4.281,4.281,0,0,0-2.082,3.338,5.332,5.332,0,0,0-4.149,1.745,1.666,1.666,0,0,0-.414,1.6l.119.33a1.8,1.8,0,0,0,1.608,1.108Zm47.715-8.47a.7.7,0,0,0,.628-.483,3.494,3.494,0,0,0-.071-2.18,9.649,9.649,0,0,0-.937-2.029,10.642,10.642,0,0,0-3.447-3.442,18.389,18.389,0,0,0-4.793-2.01l-.418-.124c-.306-.091-.619-.192-.921-.29a10.076,10.076,0,0,0-2.983-.653,3.455,3.455,0,0,0-2.4.923,2.255,2.255,0,0,0-.671,1.4,2.353,2.353,0,0,0,.3,1.528,3.288,3.288,0,0,0,1.817,1.444,8.472,8.472,0,0,0,2.248.295c.319.014.65.029.982.057a15.742,15.742,0,0,1,7.661,2.99,8.947,8.947,0,0,1,1.258,1.182,7.671,7.671,0,0,0,1.435,1.3A.577.577,0,0,0,461.5,251.521Zm-47.547-3.007a2.55,2.55,0,0,0,1.974-1.082l.044-.057a11.822,11.822,0,0,1,2.01-2.128,11.255,11.255,0,0,1,2.476-1.544,11.683,11.683,0,0,1,2.793-.888l.306-.053a5.893,5.893,0,0,1,.957-.1,2.07,2.07,0,0,1,.358.028,1.489,1.489,0,0,1,.575.205.223.223,0,0,0,.019.214.247.247,0,0,0,.2.119.225.225,0,0,0,.111-.03,1.142,1.142,0,0,0,.641-.849,1.586,1.586,0,0,0-.594-1.278,4.325,4.325,0,0,0-2.152-.951,12.6,12.6,0,0,0-2.385-.2h0a10.686,10.686,0,0,0-5.224,1.42,11.914,11.914,0,0,0-4.013,3.7,2.053,2.053,0,0,0-.265,1.6,2.435,2.435,0,0,0,1.079,1.562A2.1,2.1,0,0,0,413.953,248.514Z" transform="translate(-411.729 -239.913)" fill="#040505"/>
      </g>
    </g>
  </g>
</svg>
