<svg xmlns="http://www.w3.org/2000/svg" width="47.414" height="32.664" viewBox="0 0 47.414 32.664">
  <path id="Twitter_alt_" data-name="Twitter (alt)" d="M1039.9,1496.522c2.663-.22,4.469-1.43,5.164-3.073a8.486,8.486,0,0,1-5.589.621c-.082-.387-.171-.754-.26-1.086-1.255-4.608-5.551-8.32-10.053-7.872.365-.147.734-.284,1.1-.407.5-.178,3.4-.651,2.945-1.677-.387-.9-3.938.682-4.607.89.883-.332,2.343-.9,2.5-1.918a7.049,7.049,0,0,0-3.706,1.755,2.551,2.551,0,0,0,.711-1.408c-3.609,2.3-5.716,6.951-7.421,11.458a17.692,17.692,0,0,0-3.591-2.887,93.574,93.574,0,0,0-12.166-5.355c-.172,1.855.918,4.322,4.057,5.962a9.927,9.927,0,0,0-2.919.35c.406,2.125,1.728,3.876,5.311,4.722a4.337,4.337,0,0,0-3.249,1.283,5.5,5.5,0,0,0,5.836,2.859c-3.638,1.569-1.483,4.473,1.477,4.039a12.571,12.571,0,0,1-17.586.471c11.939,16.268,37.89,9.621,41.757-6.049a7.187,7.187,0,0,0,5.658-2.137A11.547,11.547,0,0,1,1039.9,1496.522Z" transform="translate(-997.853 -1482)" fill="#fff"/>
</svg>
