<?xml version="1.0" encoding="UTF-8"?>
<svg width="74px" height="63px" viewBox="0 0 74 63" version="1.1" xmlns="http://www.w3.org/2000/svg" xmlns:xlink="http://www.w3.org/1999/xlink">
    <title>Path_50</title>
    <g id="Page-1" stroke="none" stroke-width="1" fill="none" fill-rule="evenodd">
        <g id="arrow-right-blue" transform="translate(1.000000, 0.000000)" fill="#255684" fill-rule="nonzero" stroke="#255684" stroke-width="2">
            <g id="Group_37">
                <g id="Group_36" transform="translate(-0.001000, -0.001000)">
                    <path d="M39.929,61.381 C38.8923405,61.381 38.0497805,60.5446224 38.041,59.508 C38.033,58.493 38,57.48 37.966,56.467 C37.7178528,53.0687511 37.8965789,49.6527987 38.498,46.299 C38.5807693,46.0371621 38.5931849,45.7581548 38.534,45.49 L38.534,45.49 C38.2608318,45.4049111 37.9747212,45.3690202 37.689,45.384 C34.413,45.443 31.13,45.394 27.838,45.343 C20.16,45.234 12.218,45.11 4.349,46.498 C3.45089317,46.6585899 2.56660756,46.1532838 2.249,45.298 C-0.727,37.289 -0.097,29.239 0.513,21.455 L0.653,19.644 C0.971,15.498 4.469,15.275 6.347,15.154 L6.921,15.115 C13.359,14.615 19.874,14.655 26.168,14.707 C29.529,14.733 32.888,14.759 36.251,14.699 C36.582,14.699 36.889,14.699 37.202,14.712 C37.6354244,14.7422236 38.0707479,14.7308382 38.502,14.678 C38.607734,12.9254425 38.5114338,11.1665388 38.215,9.436 C38.052,8.191 37.895,6.953 37.853,5.706 C37.8548479,5.11205075 37.9833745,4.52532857 38.23,3.985 C38.2323685,3.97912114 38.2357535,3.97370515 38.24,3.969 C38.0339353,3.56079184 37.9841461,3.09135104 38.1,2.649 C38.2594715,2.0381208 38.7128494,1.54686768 39.309,1.339 C41.0659219,0.623077188 43.0808173,1.03015462 44.422,2.372 C47.047,4.733 49.722,7.035 52.402,9.342 C58.6095665,14.4798314 64.5191558,19.9674025 70.102,25.778 C72.468,28.341 72.456,31.196 70.07,33.821 C61.27,43.521 51.048,51.812 42.034,59.131 C41.9655216,59.1901563 41.8911286,59.2420974 41.812,59.286 C41.817,59.348 41.817,59.415 41.817,59.477 C41.8236529,60.5185591 40.9855477,61.368746 39.944,61.377 L39.929,61.381 Z M37.756,41.607 C39.1555079,41.5042897 40.5231087,42.0587225 41.456,43.107 C42.3200484,44.249138 42.5895626,45.7340646 42.182,47.107 C41.7174618,49.5589724 41.5495891,52.0579262 41.682,54.55 C50.073,47.722 59.309,40.05 67.268,31.284 C68.345,30.101 68.356,29.465 67.32,28.347 C61.8353698,22.6432309 56.0327853,17.253972 49.94,12.205 C47.24,9.885 44.54,7.56 41.893,5.181 C41.875,5.163 41.854,5.145 41.836,5.129 L41.736,5.387 C41.6952912,6.57815653 41.7706467,7.77044711 41.961,8.947 C42.3878038,11.3261098 42.4367382,13.7576448 42.106,16.152 C42.03869,16.522936 41.862553,16.8654634 41.6,17.136 C40.3744232,18.2403957 38.7178193,18.7363124 37.087,18.487 L36.315,18.472 C32.915,18.529 29.526,18.506 26.136,18.48 C19.931,18.428 13.493,18.392 7.215,18.88 L6.582,18.924 C4.482,19.058 4.476,19.157 4.422,19.932 L4.277,21.751 C3.711,28.946 3.177,35.766 5.287,42.517 C12.96,41.342 20.54,41.455 27.895,41.569 C31.145,41.623 34.379,41.669 37.611,41.61 L37.756,41.607 Z" id="Path_50"></path>
                </g>
            </g>
        </g>
    </g>
</svg>