<svg xmlns="http://www.w3.org/2000/svg" width="44.219" height="37.476" viewBox="0 0 44.219 37.476">
  <g id="Group_58" data-name="Group 58" transform="translate(0.914 1)">
    <g id="Group_731" data-name="Group 731">
      <g id="Group_36" data-name="Group 36" transform="translate(0 0)">
        <path id="Path_50" data-name="Path 50" d="M8,12.1A1.11,1.11,0,0,1,6.894,11c0-.6-.024-1.192-.044-1.787a23.96,23.96,0,0,1,.313-5.974.92.92,0,0,0,.021-.475h0a1.419,1.419,0,0,0-.5-.062C4.762,2.74,2.832,2.711.9,2.681a73.114,73.114,0,0,0-13.8.678,1.108,1.108,0,0,1-1.234-.706c-1.749-4.705-1.378-9.435-1.02-14.008l.082-1.064c.187-2.436,2.242-2.567,3.345-2.638l.337-.023c3.782-.294,7.611-.27,11.308-.24,1.975.015,3.948.03,5.924,0,.194,0,.375,0,.559.008a3.994,3.994,0,0,0,.765-.02A13.446,13.446,0,0,0,7-18.416c-.1-.732-.188-1.459-.212-2.192a2.454,2.454,0,0,1,.222-1.011.032.032,0,0,1,.006-.009,1.1,1.1,0,0,1-.082-.776,1.113,1.113,0,0,1,.71-.77,2.77,2.77,0,0,1,3,.607c1.542,1.387,3.115,2.74,4.689,4.1a124.555,124.555,0,0,1,10.4,9.657,3.188,3.188,0,0,1-.017,4.725c-5.173,5.7-11.176,10.57-16.472,14.87a.774.774,0,0,1-.131.091c0,.036,0,.076,0,.112a1.109,1.109,0,0,1-1.1,1.119ZM6.729.486a2.65,2.65,0,0,1,2.175.88,2.647,2.647,0,0,1,.427,2.35,18.281,18.281,0,0,0-.294,4.373A135.858,135.858,0,0,0,24.069-5.581c.633-.7.639-1.069.03-1.726a123.4,123.4,0,0,0-10.214-9.482c-1.586-1.363-3.172-2.729-4.728-4.127l-.033-.03-.058.152A10.789,10.789,0,0,0,9.2-18.7a13.507,13.507,0,0,1,.085,4.233,1.117,1.117,0,0,1-.3.578,3.231,3.231,0,0,1-2.652.794l-.454-.008c-2,.033-3.989.02-5.98,0-3.646-.03-7.428-.052-11.117.232l-.372.026c-1.232.079-1.237.137-1.269.592l-.085,1.069c-.332,4.227-.647,8.234.593,12.2A78.794,78.794,0,0,1,.934.462c1.909.032,3.81.059,5.709.024Z" transform="translate(15.456 23.372)" fill="#fff" stroke="#fff" stroke-width="2"/>
      </g>
    </g>
  </g>
</svg>
