<svg xmlns="http://www.w3.org/2000/svg" xmlns:xlink="http://www.w3.org/1999/xlink" width="23.905" height="27.809" viewBox="0 0 23.905 27.809">
  <defs>
    <clipPath id="clip-path">
      <path id="Path_885" data-name="Path 885" d="M0,0H23.905V-27.809H0Z" fill="#e0cc6b"/>
    </clipPath>
  </defs>
  <g id="Group_741" data-name="Group 741" transform="translate(-1045 -939.809)">
    <g id="Group_728" data-name="Group 728" transform="translate(1045 967.618)">
      <g id="Group_727" data-name="Group 727" clip-path="url(#clip-path)">
        <g id="Group_720" data-name="Group 720" transform="translate(18.831)">
          <path id="Path_878" data-name="Path 878" d="M0,0C-1.958,0-3.931-.091-5.845-.178a73.033,73.033,0,0,0-9.891-.009A2.475,2.475,0,0,1-17.683-.71a2.8,2.8,0,0,1-.805-2.121c-.171-5.83-.35-11.859-.343-17.867,0-2.063.393-3.323,1.265-4.084s2.224-.989,4.336-.7a.731.731,0,0,1,.625.823.728.728,0,0,1-.822.626c-1.632-.223-2.646-.11-3.176.355s-.764,1.4-.766,2.984c-.007,5.987.17,12,.343,17.823a1.62,1.62,0,0,0,.313,1.07,1.143,1.143,0,0,0,.845.161,74.173,74.173,0,0,1,10.09,0c2.042.093,4.15.193,6.224.175,2.491-.018,2.7-.23,2.842-2.84.1-1.977.122-4,.139-5.949.017-2.045.034-4.159.153-6.247A38.327,38.327,0,0,0,3.5-20.771l-.07-1.305c-.076-1.583-.649-2.12-2.272-2.13H-.433a.731.731,0,0,1-.731-.731.731.731,0,0,1,.731-.731H1.162c2.394.014,3.612,1.166,3.723,3.524l.07,1.29a38.955,38.955,0,0,1,.084,4.437c-.115,2.052-.134,4.149-.15,6.176-.017,1.97-.034,4.005-.141,6.014C4.582-1.079,3.938-.027.457,0H0" fill="#e0cc6b"/>
        </g>
        <g id="Group_721" data-name="Group 721" transform="translate(10.063 -5.979)">
          <path id="Path_879" data-name="Path 879" d="M0,0A2.312,2.312,0,0,1-2.27-1.786a2.789,2.789,0,0,0-.149-.36,2.843,2.843,0,0,1-.31-1.048.731.731,0,0,1,.688-.771.716.716,0,0,1,.772.688,1.633,1.633,0,0,0,.18.521A4.506,4.506,0,0,1-.868-2.2a.909.909,0,0,0,1.244.692c.2-.051.679-.171.708-1.386C1.1-3.756.544-4.228-.311-4.85a.729.729,0,0,1-.3-.534A.727.727,0,0,1-.4-5.958c.077-.078.141-.154.2-.223a1.762,1.762,0,0,1,.665-.545c.306-.123.613-.318.416-1.091a1.017,1.017,0,0,0-.917-.874c-.694-.063-.9.113-.987.775-.051.4-.292,1.065-1.366.994a.794.794,0,0,1-.894-.615.7.7,0,0,1,.551-.837,1.661,1.661,0,0,1,.307-.014A2.134,2.134,0,0,1,.1-10.147,2.473,2.473,0,0,1,2.3-8.178a2.178,2.178,0,0,1-1.039,2.7A3.211,3.211,0,0,1,2.546-2.865C2.5-.94,1.534-.295.731-.094A3.024,3.024,0,0,1,0,0" fill="#e0cc6b"/>
        </g>
        <g id="Group_722" data-name="Group 722" transform="translate(15.574 -6.362)">
          <path id="Path_880" data-name="Path 880" d="M0,0C-.023,0-.044,0-.067,0A.732.732,0,0,1-.73-.8,24.937,24.937,0,0,0-.807-8.007a.731.731,0,0,1,.573-.862A.734.734,0,0,1,.627-8.3a26.192,26.192,0,0,1,.1,7.631A.731.731,0,0,1,0,0" fill="#e0cc6b"/>
        </g>
        <g id="Group_723" data-name="Group 723" transform="translate(10.473 -23.976)">
          <path id="Path_881" data-name="Path 881" d="M0,0A4.917,4.917,0,0,1-1.685-.272a.731.731,0,0,1-.441-.935.732.732,0,0,1,.935-.442,5.624,5.624,0,0,0,2.569.075,7.168,7.168,0,0,1,3.053.092.73.73,0,0,1,.483.914A.735.735,0,0,1,4-.086,5.959,5.959,0,0,0,1.549-.121,13.138,13.138,0,0,1,0,0" fill="#e0cc6b"/>
        </g>
        <g id="Group_724" data-name="Group 724" transform="translate(16.339 -22.233)">
          <path id="Path_882" data-name="Path 882" d="M0,0A2.028,2.028,0,0,1-1.722-1.084,2.511,2.511,0,0,1-1.506-4.02a1.893,1.893,0,0,0,.182-.326A1.758,1.758,0,0,1,.537-5.565,1.806,1.806,0,0,1,2.113-4.2a1.717,1.717,0,0,0,.166.36,1.685,1.685,0,0,1,.283.789c.008.057.017.114.03.167a.729.729,0,0,1,.017.27.721.721,0,0,1-.141.526l-.192.242a2.332,2.332,0,0,0-.27.37A2.413,2.413,0,0,1,.063,0H0M.321-4.114c-.118,0-.158.059-.334.416a3.39,3.39,0,0,1-.336.571,1.074,1.074,0,0,0-.14,1.258.9.9,0,0,0,.495.407c.158-.007.438-.193.708-.7a3.78,3.78,0,0,1,.414-.592c0-.024-.007-.049-.011-.073a1.035,1.035,0,0,0-.035-.184,2.587,2.587,0,0,1-.334-.664c-.161-.418-.181-.42-.342-.434-.033,0-.06-.006-.085-.006" fill="#e0cc6b"/>
        </g>
        <g id="Group_725" data-name="Group 725" transform="translate(7.378 -22.076)">
          <path id="Path_883" data-name="Path 883" d="M0,0A1.553,1.553,0,0,1-1.287-.707c-.539-.636-1.63-1.9-.485-3.476a2.474,2.474,0,0,0,.195-.336A1.828,1.828,0,0,1,.316-5.713a1.654,1.654,0,0,1,1.535,1.7,1.626,1.626,0,0,0,.084.409.92.92,0,0,1,.277.757.738.738,0,0,1,0,.082.733.733,0,0,1-.14.513,2.382,2.382,0,0,0-.246.571A2.021,2.021,0,0,1,0,0M.081-4.265c-.121,0-.17.064-.365.432a4.288,4.288,0,0,1-.306.511c-.327.449-.353.765.337,1.566l.132.165A1.14,1.14,0,0,0,0-1.449c.169-.027.231-.08.441-.7A4.681,4.681,0,0,1,.7-2.81,2.361,2.361,0,0,1,.4-3.821a1.646,1.646,0,0,0-.083-.41h0a.709.709,0,0,0-.144-.027.836.836,0,0,0-.092-.007" fill="#e0cc6b"/>
        </g>
        <g id="Group_726" data-name="Group 726" transform="translate(7.491 -3.227)">
          <path id="Path_884" data-name="Path 884" d="M0,0A12.325,12.325,0,0,1-1.926-.136,2.676,2.676,0,0,1-4.507-2.984c0-3.669-.055-7.011-.181-10.216A2.425,2.425,0,0,1-2.26-15.9c.871-.112,1.74-.239,2.609-.366l1.091-.159a.823.823,0,0,1,.192,0,.885.885,0,0,1,.089,0l2.24-.005c1.732-.007,3.46-.011,5.191.014,2.5.038,3.853,1.382,3.9,3.888.014.726.014,1.453.013,2.18,0,1.417-.005,2.883.12,4.311A17.339,17.339,0,0,1,13.1-2.169,2.052,2.052,0,0,1,10.8-.12h-.084c-.889-.017-1.774-.01-2.659,0C6.879-.114,5.7-.106,4.521-.149c-.815-.03-1.623.018-2.48.069C1.371-.041.69,0,0,0M1.632-14.978.56-14.822c-.877.128-1.754.257-2.632.37-.959.124-1.187.358-1.154,1.195.124,3.225.184,6.585.182,10.275,0,.913.312,1.241,1.343,1.4a16.93,16.93,0,0,0,3.655.041c.851-.051,1.733-.1,2.621-.07,1.158.043,2.319.036,3.473.024.9-.007,1.8-.014,2.7,0,.686.008.8-.046.9-.788a15.894,15.894,0,0,0,.084-3.549c-.13-1.493-.128-2.991-.126-4.44,0-.716,0-1.432-.012-2.148-.035-1.719-.749-2.43-2.464-2.456s-3.44-.021-5.162-.014l-2.246.005a.885.885,0,0,1-.089-.005" fill="#e0cc6b"/>
        </g>
      </g>
    </g>
  </g>
</svg>
