<svg xmlns="http://www.w3.org/2000/svg" xmlns:xlink="http://www.w3.org/1999/xlink" width="32.243" height="32.436" viewBox="0 0 32.243 32.436">
  <defs>
    <clipPath id="clip-path">
      <path id="Path_392" data-name="Path 392" d="M0,4.872H32.243V-27.564H0Z" transform="translate(0 27.564)" fill="#e0cc6b"/>
    </clipPath>
  </defs>
  <g id="Group_381" data-name="Group 381" transform="translate(0 27.564)">
    <g id="Group_296" data-name="Group 296" transform="translate(0 -27.564)" clip-path="url(#clip-path)">
      <g id="Group_291" data-name="Group 291" transform="translate(3.239 3.076)">
        <path id="Path_387" data-name="Path 387" d="M2,3.909a15.091,15.091,0,0,1-4.339-.683C-5.25,2.351-7.63.3-9.612-3.034-11-5.361-11.066-7.7-11.135-9.967c-.027-.9-.052-1.753-.155-2.609a1.258,1.258,0,0,1,.511-1.164,15.409,15.409,0,0,1,5.918-6.865A9.5,9.5,0,0,1,1.7-22.064a13.18,13.18,0,0,1,7.275,2.285c2.909,2.2,6.091,5.377,4.944,10.5.7,2.078-.142,3.987-.71,5.261a13,13,0,0,1-6.9,7.088A11.105,11.105,0,0,1,2,3.909M-9.554-12.524c.089.847.114,1.689.14,2.507.064,2.139.126,4.161,1.28,6.105C-6.356-.921-4.358.823-1.843,1.578a10.946,10.946,0,0,0,7.494-.1,11.194,11.194,0,0,0,5.99-6.2c.641-1.445,1.131-2.752.612-4.125a.857.857,0,0,1-.049-.408.818.818,0,0,1,.016-.3c.8-3.388-.44-5.953-4.28-8.855-1.776-1.344-3.829-1.747-6.366-1.942A7.9,7.9,0,0,0-3.873-19.2,13.7,13.7,0,0,0-9.223-13a1.258,1.258,0,0,1-.331.473" transform="translate(11.301 22.115)" fill="#e0cc6b"/>
      </g>
      <g id="Group_292" data-name="Group 292" transform="translate(16.549 6.453)">
        <path id="Path_388" data-name="Path 388" d="M.129,1.258a.881.881,0,0,1-.346-.072A.863.863,0,0,1-.659.052,40.147,40.147,0,0,1,1.883-4.591c.421-.692.841-1.384,1.241-2.089A.858.858,0,0,1,4.3-7,.859.859,0,0,1,4.62-5.831C4.213-5.112,3.782-4.4,3.354-3.7A38.661,38.661,0,0,0,.918.742a.862.862,0,0,1-.788.515" transform="translate(0.731 7.116)" fill="#e0cc6b"/>
      </g>
      <g id="Group_293" data-name="Group 293" transform="translate(13.223 13.523)">
        <path id="Path_389" data-name="Path 389" d="M.286.58a3.368,3.368,0,0,1-1.4-.346A.862.862,0,0,1-1.539-.908.862.862,0,0,1-.4-1.33c.919.42,1.106.224,1.773-1.061l.235-.442a.86.86,0,0,1,1.167-.339A.859.859,0,0,1,3.114-2L2.9-1.6C2.477-.784,1.767.58.286.58" transform="translate(1.618 3.279)" fill="#e0cc6b"/>
      </g>
      <g id="Group_294" data-name="Group 294" transform="translate(6.986 15.185)">
        <path id="Path_390" data-name="Path 390" d="M.129.29A.862.862,0,0,1-.723-.459a.861.861,0,0,1,.741-.965A38.622,38.622,0,0,1,5-1.639h.944a.91.91,0,0,1,.864.858.86.86,0,0,1-.857.864H5a35.16,35.16,0,0,0-4.758.2A.929.929,0,0,1,.129.29" transform="translate(0.73 1.639)" fill="#e0cc6b"/>
      </g>
      <g id="Group_295" data-name="Group 295" transform="translate(0 0)">
        <path id="Path_391" data-name="Path 391" d="M2.488,4.872A13.716,13.716,0,0,1-.138,4.618C-7.972,3.106-12.557-1.294-13.761-8.46c-1.023-6.076.433-10.883,4.446-14.7,2.734-2.6,6.2-3.994,10.912-4.4a.742.742,0,0,1,.177,0l.073,0a13.792,13.792,0,0,1,4.651.675A15.9,15.9,0,0,1,17.81-14.165a14.948,14.948,0,0,1-5.632,15.36A15.386,15.386,0,0,1,2.488,4.872M1.774-25.84l-.032,0c-4.3.366-7.436,1.615-9.871,3.928-3.567,3.39-4.854,7.7-3.935,13.164C-10.975-2.271-6.967,1.548.188,2.929A13.152,13.152,0,0,0,11.1-.147a13.315,13.315,0,0,0,5.025-13.68A14.265,14.265,0,0,0,5.982-25.238a12.129,12.129,0,0,0-4.072-.6,1.256,1.256,0,0,1-.137,0" transform="translate(14.076 27.564)" fill="#e0cc6b"/>
      </g>
    </g>
  </g>
</svg>
