<?xml version="1.0" encoding="UTF-8"?>
<svg width="66px" height="99px" viewBox="0 0 66 99" version="1.1" xmlns="http://www.w3.org/2000/svg" xmlns:xlink="http://www.w3.org/1999/xlink">
    <title>dollar-orange</title>
    <defs>
        <polygon id="path-1" points="0 99 65.5995 99 65.5995 0.14175 0 0.14175"></polygon>
    </defs>
    <g id="Page-1" stroke="none" stroke-width="1" fill="none" fill-rule="evenodd">
        <g id="dollar-orange">
            <mask id="mask-2" fill="white">
                <use xlink:href="#path-1"></use>
            </mask>
            <g id="Path_291"></g>
            <g id="Group_90" mask="url(#mask-2)" fill="#E0CC6B" fill-rule="nonzero">
                <g id="Group_87" transform="translate(0.000750, 0.001500)">
                    <path d="M35.25825,98.8575 C33.3178171,98.9065628 31.4030102,98.4063471 29.7345,97.4145 C27.543,96.0645 25.968,93.79725 25.04025,90.6645 C24.66525,90.5835 24.2715,90.5145 23.84025,90.44775 C6.95325,87.81 0.48075,76.41675 0.024,66.618 C-0.26775,60.51675 2.13675,57.2505 7.17,56.91675 L8.2065,56.84175 C11.607,56.56425 17.226,56.1105 18.86175,63.5445 C19.905,68.28975 21.00225,69.60675 26.0415,70.3695 C26.40375,65.547 26.40075,60.6765 26.39025,55.94175 C26.39025,54.75275 26.39025,53.5685 26.39025,52.389 C19.7415,50.50725 13.49625,48.573 8.9985,42.89175 C-0.84675,30.44175 4.386,21.77625 10.50825,16.6965 C15.1755,12.83175 20.52675,10.6845 25.698,8.91 C25.73175,8.7945 25.75875,8.685 25.76925,8.62875 C25.45125,6.2175 25.8705,4.26675 27.06675,2.82675 C28.8315,0.69 31.554,0.51 33.7455,0.36825 C34.3695911,0.342565989 34.9916499,0.280460281 35.6085,0.18225 C38.1585,-0.31575 40.404,0.21975 41.949,1.65525 C43.0665,2.70525 44.30925,4.67325 43.87275,8.1645 C43.785,8.88225 43.761,9.07575 45.97275,9.46875 C52.48575,10.6335 57.8805,13.85475 63.5775,19.93425 C63.6588637,20.0166214 63.7340661,20.1048589 63.8025,20.19825 C64.8131317,20.9123796 65.1427451,22.2621941 64.575,23.36175 C62.16675,28.01175 58.32975,31.1685 54.6,34.0035 C53.7046606,34.6784663 52.4682015,34.67017 51.582,33.98325 C50.1523507,32.8111738 48.828505,31.5156873 47.62575,30.11175 C45.68325,27.97125 44.232,26.46675 42.3525,25.8135 C41.8339405,27.7818321 41.5474926,29.8040839 41.499,31.839 C41.3835,38.565 41.37675,38.697 47.08425,40.69875 C50.3474594,41.7533115 53.4026399,43.3668041 56.1135,45.46725 C62.23725,50.385 65.871,57.90375 65.583,65.0835 C65.3385,71.3565 62.169,76.86675 56.66175,80.61675 C53.6235,82.69275 50.244,84.999 46.79925,85.95075 C43.9035,86.7435 43.65975,87.59325 43.86975,90.87525 L43.90725,91.40025 C44.04975,93.1005 44.38125,97.083 39.65325,98.26875 C38.2189111,98.6456397 36.7434567,98.8436433 35.2605,98.85825 M10.7295,61.65675 C10.14,61.65675 9.43875,61.71075 8.60625,61.779 L7.4955,61.86 C5.802,61.97175 4.77225,62.253 4.96575,66.38475 C5.148,70.19175 7.08825,82.821 24.47625,85.5375 C25.7264371,85.6837297 26.9504751,86.0017272 28.11375,86.4825 C28.8262332,86.8020259 29.3451395,87.4402946 29.5125,88.203 C30.07125,90.7095 31.02,92.38575 32.337,93.2055 C33.70875,94.0455 35.7675,94.1265 38.4465,93.4665 C38.6508899,93.4282111 38.8462743,93.3518891 39.0225,93.2415 C39.048544,92.7645347 39.0327335,92.2862044 38.97525,91.812 L38.928,91.19925 C38.67375,87.291 38.955,82.9725 45.48525,81.17775 C48.1335,80.4495 51.0225,78.47775 53.817,76.56825 C58.1115,73.64325 60.4515,69.6255 60.63825,64.89375 C60.85875,59.2515 57.93825,53.28675 53.0145,49.33125 C50.7393605,47.5882104 48.1809475,46.2501431 45.4515,45.37575 C37.2585,42.50025 36.402,40.0755 36.5475,31.75425 C36.6373429,28.5277099 37.1974933,25.3315431 38.21025,22.26675 C38.5438288,21.1957997 39.5546626,20.4820348 40.6755,20.526 C45.80625,20.739 48.72225,23.9535 51.29625,26.7915 C51.93975,27.50625 52.55925,28.19025 53.20275,28.8165 C55.5493619,27.0832056 57.6033528,24.9854104 59.28675,22.60275 C54.62625,17.82075 50.247,15.267 45.20775,14.3625 C43.416,14.04075 38.265,13.12275 38.95875,7.55475 C39.0945,6.48075 38.94525,5.628 38.5695,5.2755 C37.9627034,4.90755827 37.2253283,4.82343558 36.55125,5.04525 C35.7286248,5.184318 34.8983726,5.27372978 34.065,5.313 C32.8965,5.38425 31.29,5.49225 30.888,5.97675 C30.7935,6.09225 30.492,6.59325 30.6915,8.15175 C30.7597432,9.08653206 30.6100651,10.0243955 30.25425,10.8915 C30.1842969,11.0733026 30.1244555,11.2588361 30.075,11.44725 C29.8725479,12.2694658 29.2627471,12.930508 28.4595,13.1985 C23.37225,14.9085 18.0345,16.887 13.6695,20.50425 C6.963,26.07075 6.71925,32.022 12.8865,39.81675 C16.572,44.47875 22.13325,46.04175 28.56825,47.85825 L29.55375,48.13275 C30.6289688,48.4379676 31.3676392,49.4240894 31.35825,50.54175 C31.338,52.3335 31.341,54.132 31.341,55.93725 C31.4538736,61.7687901 31.2535853,67.6021849 30.741,73.41225 C30.5958738,74.7712022 29.376736,75.7553093 28.01775,75.6105 C19.82325,74.73675 15.86025,72.945 14.025,64.6065 C13.5,62.232 12.73125,61.65675 10.7295,61.65675" id="Path_288"></path>
                </g>
                <g id="Group_88" transform="translate(34.615500, 50.175750)">
                    <path d="M3.228,25.9807636 C2.02243168,25.9847119 0.989391233,25.1194598 0.781825595,23.9318878 C0.574259957,22.7443159 1.25256119,21.5799529 2.388,21.17475 L3.387,20.80575 C2.35725,15.888 2.466,10.98375 2.574,6.21825 C2.601,4.965 2.628,3.7155 2.63475,2.4555 C2.64071414,1.72715555 2.96519065,1.03791702 3.52275,0.56925 C4.08523925,0.105037395 4.82244973,-0.0902918759 5.541,0.0345 C10.293,0.87075 16.66725,2.964 17.07,11.424 C17.36475,17.5815 13.71375,22.524 7.30575,24.663 C6.591,24.9 5.88975,25.164 5.1855,25.425 L4.074,25.83525 C3.80331975,25.9313398 3.51822988,25.9807636 3.231,25.9807636 M7.536,5.619 L7.524,6.33 C7.4295,10.692 7.33425,14.8515 8.06625,18.91875 C10.721368,17.4966454 12.3078144,14.6610078 12.1305,11.65425 C11.99475,8.89725 11.1045,6.85425 7.53825,5.619" id="Path_289"></path>
                </g>
                <g id="Group_89" transform="translate(16.855500, 19.148250)">
                    <path d="M10.596,20.06325 C10.4759025,20.0617936 10.355974,20.0537816 10.23675,20.03925 C7.53675,19.6395 1.20375,18.708 0.12675,12.44925 C-0.879,6.543 4.3665,3.4845 6.6045,2.17725 C6.98758717,1.95740866 7.40959316,1.81376873 7.84725,1.75425 C8.10237357,0.931189155 8.76467681,0.298384639 9.5985,0.081 C10.2346454,-0.0862461398 10.9112404,0.00750184432 11.4779462,0.341413232 C12.044652,0.675324621 12.454528,1.22174131 12.6165,1.85925 C13.85625,6.645 14.8665,12.33825 12.9555,18.336 C12.6277077,19.3631671 11.6742003,20.0611733 10.596,20.06325 M8.63025,6.73275 C5.70075,8.52075 4.7085,9.8685 5.01,11.613 C5.24025,12.981 6.01575,14.0175 8.766,14.715 C9.20148963,12.0677621 9.15550218,9.36364908 8.63025,6.73275" id="Path_290"></path>
                </g>
            </g>
        </g>
    </g>
</svg>