<svg xmlns="http://www.w3.org/2000/svg" xmlns:xlink="http://www.w3.org/1999/xlink" width="87.466" height="131.811" viewBox="0 0 87.466 131.811">
  <defs>
    <clipPath id="clip-path">
      <path id="Path_291" data-name="Path 291" d="M0,102.622H87.466V-29.189H0Z" transform="translate(0 29.189)" fill="#e0cc6b"/>
    </clipPath>
  </defs>
  <g id="Group_91" data-name="Group 91" transform="translate(0 29.189)" style="isolation: isolate">
    <g id="Group_90" data-name="Group 90" transform="translate(0 -29.189)" clip-path="url(#clip-path)">
      <g id="Group_87" data-name="Group 87" transform="translate(0.001 0.002)">
        <path id="Path_288" data-name="Path 288" d="M36.6,102.621a13.734,13.734,0,0,1-7.365-1.924c-2.922-1.8-5.022-4.823-6.259-9-.5-.108-1.025-.2-1.6-.289C-1.14,87.891-9.77,72.7-10.379,59.635-10.768,51.5-7.562,47.145-.851,46.7l1.382-.1c4.534-.37,12.026-.975,14.207,8.937,1.391,6.327,2.854,8.083,9.573,9.1.483-6.43.479-12.924.465-19.237q0-2.378,0-4.737C15.911,38.154,7.584,35.575,1.587,28-11.54,11.4-4.563-.154,3.6-6.927c6.223-5.153,13.358-8.016,20.253-10.382.045-.154.081-.3.095-.375-.424-3.215.135-5.816,1.73-7.736,2.353-2.849,5.983-3.089,8.905-3.278a21.393,21.393,0,0,0,2.484-.248c3.4-.664,6.394.05,8.454,1.964,1.49,1.4,3.147,4.024,2.565,8.679-.117.957-.149,1.215,2.8,1.739,8.684,1.553,15.877,5.848,23.473,13.954a3.152,3.152,0,0,1,.3.352,3.307,3.307,0,0,1,1.03,4.218c-3.211,6.2-8.327,10.409-13.3,14.189a3.313,3.313,0,0,1-4.024-.027A42.059,42.059,0,0,1,53.09,10.96C50.5,8.106,48.565,6.1,46.059,5.229a34.789,34.789,0,0,0-1.138,8.034c-.154,8.968-.163,9.144,7.447,11.813a39.475,39.475,0,0,1,12.039,6.358c8.165,6.557,13.01,16.582,12.626,26.155C76.707,65.953,72.481,73.3,65.138,78.3c-4.051,2.768-8.557,5.843-13.15,7.112-3.861,1.057-4.186,2.19-3.906,6.566l.05.7c.19,2.267.632,7.577-5.672,9.158a23.976,23.976,0,0,1-5.857.786M3.895,53.02c-.786,0-1.721.072-2.831.163l-1.481.108c-2.258.149-3.631.524-3.373,6.033C-3.547,64.4-.96,81.239,22.224,84.861a18.248,18.248,0,0,1,4.85,1.26,3.286,3.286,0,0,1,1.865,2.294c.745,3.342,2.01,5.577,3.766,6.67,1.829,1.12,4.574,1.228,8.146.348a2.215,2.215,0,0,0,.768-.3,10.9,10.9,0,0,0-.063-1.906l-.063-.817c-.339-5.211.036-10.969,8.743-13.362,3.531-.971,7.383-3.6,11.109-6.146,5.726-3.9,8.846-9.257,9.095-15.566.294-7.523-3.6-15.476-10.165-20.75a33.272,33.272,0,0,0-10.084-5.274C39.267,27.478,38.125,24.245,38.319,13.15A44.242,44.242,0,0,1,40.536.5a3.307,3.307,0,0,1,3.287-2.321c6.841.284,10.729,4.57,14.161,8.354.858.953,1.684,1.865,2.542,2.7A36.444,36.444,0,0,0,68.638.948C62.424-5.428,56.585-8.833,49.866-10.039c-2.389-.429-9.257-1.653-8.332-9.077.181-1.432-.018-2.569-.519-3.039a3.238,3.238,0,0,0-2.691-.307,27.713,27.713,0,0,1-3.315.357c-1.558.095-3.7.239-4.236.885-.126.154-.528.822-.262,2.9a8.074,8.074,0,0,1-.583,3.653,7.042,7.042,0,0,0-.239.741,3.291,3.291,0,0,1-2.154,2.335c-6.783,2.28-13.9,4.918-19.72,9.741C-1.127,5.572-1.452,13.507,6.771,23.9,11.685,30.116,19.1,32.2,27.68,34.622l1.314.366A3.31,3.31,0,0,1,31.4,38.2c-.027,2.389-.023,4.787-.023,7.194a217.281,217.281,0,0,1-.8,23.3,3.3,3.3,0,0,1-3.631,2.931C16.02,70.46,10.736,68.071,8.289,56.953c-.7-3.166-1.725-3.933-4.394-3.933" transform="translate(10.411 29.189)" fill="#e0cc6b"/>
      </g>
      <g id="Group_88" data-name="Group 88" transform="translate(47.154 66.901)">
        <path id="Path_289" data-name="Path 289" d="M2.572,26.97a3.3,3.3,0,0,1-1.12-6.408l1.332-.492C1.411,13.513,1.556,6.974,1.7.62c.036-1.671.072-3.337.081-5.017A3.321,3.321,0,0,1,2.965-6.912a3.332,3.332,0,0,1,2.691-.713C11.992-6.51,20.491-3.719,21.028,7.561c.393,8.21-4.475,14.8-13.019,17.652-.953.316-1.888.668-2.827,1.016L3.7,26.776a3.367,3.367,0,0,1-1.124.194M8.316-.179,8.3.769c-.126,5.816-.253,11.362.723,16.785a10.3,10.3,0,0,0,5.419-9.686c-.181-3.676-1.368-6.4-6.123-8.047" transform="translate(0.732 7.671)" fill="#e0cc6b"/>
      </g>
      <g id="Group_89" data-name="Group 89" transform="translate(22.474 25.531)">
        <path id="Path_290" data-name="Path 290" d="M11,20.827a4.4,4.4,0,0,1-.479-.032c-3.6-.533-12.044-1.775-13.48-10.12C-4.3,2.8,2.694-1.278,5.678-3.021a4.565,4.565,0,0,1,1.657-.564A3.322,3.322,0,0,1,9.67-5.816a3.289,3.289,0,0,1,4.024,2.371c1.653,6.381,3,13.972.452,21.969A3.309,3.309,0,0,1,11,20.827M8.379,3.053C4.473,5.437,3.15,7.234,3.552,9.56c.307,1.824,1.341,3.206,5.008,4.136A29.72,29.72,0,0,0,8.379,3.053" transform="translate(3.128 5.924)" fill="#e0cc6b"/>
      </g>
    </g>
  </g>
</svg>
