<svg xmlns="http://www.w3.org/2000/svg" xmlns:xlink="http://www.w3.org/1999/xlink" width="28.888" height="28.103" viewBox="0 0 28.888 28.103">
  <defs>
    <clipPath id="clip-path">
      <path id="Path_863" data-name="Path 863" d="M0,3.052H28.888v-28.1H0Z" transform="translate(0 25.051)" fill="#e0cc6b" stroke="#e0cc6b" stroke-width="0.5"/>
    </clipPath>
  </defs>
  <g id="Group_690" data-name="Group 690" transform="translate(0 25.051)">
    <g id="Group_684" data-name="Group 684" transform="translate(0 -25.051)" clip-path="url(#clip-path)">
      <g id="Group_682" data-name="Group 682" transform="translate(5.378 -0.001)">
        <path id="Path_861" data-name="Path 861" d="M1.031,2.387H.972A2.7,2.7,0,0,1-.964,1.239L-1.272.876A41.107,41.107,0,0,0-7.165-5.2a1.3,1.3,0,0,1-.509-1.014L-7.8-6.234a.821.821,0,0,1-.654-.958.821.821,0,0,1,.958-.654,4.718,4.718,0,0,0,1.646-.1,8.074,8.074,0,0,1,1.7-.156,47.866,47.866,0,0,0-.135-7.371l-.11-1.622a2.521,2.521,0,0,1,.468-1.944,2.4,2.4,0,0,1,1.838-.524l1.158.02c1.234.026,2.505.049,3.724-.039A2.7,2.7,0,0,1,4.98-19a2.968,2.968,0,0,1,.7,2.263c-.05,2.165-.039,4.33-.03,6.415l.007,2a2.784,2.784,0,0,0,.963.049,3.114,3.114,0,0,1,2.863.992.819.819,0,0,1-.059,1.127A39.868,39.868,0,0,0,5.78-1.994C4.858-.838,3.905.355,2.853,1.452a2.55,2.55,0,0,1-1.822.934m-6.909-8.66A44.153,44.153,0,0,1-.02-.183L.288.18c.426.5.655.564.736.567a1.729,1.729,0,0,0,.644-.43c1-1.043,1.89-2.156,2.829-3.334.96-1.2,1.95-2.441,3.069-3.6a3.7,3.7,0,0,0-.859-.013,3.109,3.109,0,0,1-2.4-.6.815.815,0,0,1-.287-.623l-.008-2.455c-.011-2.1-.021-4.28.03-6.459.016-.727-.113-.961-.192-1.037a1.431,1.431,0,0,0-.932-.136c-1.3.1-2.615.071-3.878.044l-1.145-.019a2.534,2.534,0,0,0-.654.038c.02.011-.026.188,0,.687l.109,1.608A44.709,44.709,0,0,1-2.6-7.055a.823.823,0,0,1-.363.591.825.825,0,0,1-.687.1,4.157,4.157,0,0,0-1.922.038c-.1.018-.2.035-.3.052" transform="translate(8.467 19.595)" fill="#e0cc6b" stroke="#e0cc6b" stroke-width="0.5"/>
      </g>
      <g id="Group_683" data-name="Group 683" transform="translate(0 18.435)">
        <path id="Path_862" data-name="Path 862" d="M1.608,1.05c-3.433,0-6.649-.064-9.424-.133-4.391-.111-5.2-1.839-5.357-5.671-.007-.154,0-.313,0-.471a3.245,3.245,0,0,0,0-.455,2.362,2.362,0,0,1,.46-1.9,2.8,2.8,0,0,1,2.117-.8c1.163-.038,2.882-.1,3.083,2.336.182,2.2.232,2.253,2.683,2.219,2.938-.03,5.877-.079,8.815-.127l4.062-.065c.127,0,.261,0,.392.009a2.472,2.472,0,0,0,.473-.007c1.456-.241,1.65-.738,1.508-1.631a2.6,2.6,0,0,1,.38-2.02,2.436,2.436,0,0,1,1.707-.9.821.821,0,0,1,.21,0,2.564,2.564,0,0,1,2.085.451A2.472,2.472,0,0,1,15.61-6.2l.034.8a13.032,13.032,0,0,1-.081,2.929C15.19-.387,14.013.719,12.065.814,8.516.989,4.959,1.05,1.608,1.05M-9.9-6.763c-.132,0-.293.006-.485.012-.835.027-1.033.175-1.088.238a.906.906,0,0,0-.076.635,4.749,4.749,0,0,1,.016.7c0,.117-.008.234,0,.35.14,3.447.665,4.022,3.758,4.1,5.459.137,12.633.25,19.758-.1,1.16-.056,1.729-.617,1.964-1.934A11.562,11.562,0,0,0,14-5.32l-.036-.83a.992.992,0,0,0-.215-.712,1.1,1.1,0,0,0-.812-.088.753.753,0,0,1-.224,0,.945.945,0,0,0-.6.255,1.126,1.126,0,0,0-.074.784c.214,1.347-.108,3.05-2.857,3.506a3.7,3.7,0,0,1-.814.028c-.1,0-.2-.006-.3-.008l-4.06.065c-2.943.048-5.885.1-8.826.127-3.08.021-4.065-.454-4.334-3.724-.059-.725-.116-.849-.748-.849" transform="translate(13.202 8.617)" fill="#e0cc6b" stroke="#e0cc6b" stroke-width="0.5"/>
      </g>
    </g>
  </g>
</svg>
