<?xml version="1.0" encoding="UTF-8"?>
<svg width="41px" height="40px" viewBox="0 0 41 40" version="1.1" xmlns="http://www.w3.org/2000/svg" xmlns:xlink="http://www.w3.org/1999/xlink">
    <title>Group</title>
    <g id="Page-1" stroke="none" stroke-width="1" fill="none" fill-rule="evenodd">
        <g id="Group" transform="translate(1.981000, 0.286000)" fill="#E0CC6B" fill-rule="nonzero" stroke="#E0CC6B">
            <g id="Group_423" transform="translate(-0.000000, 0.000000)">
                <path d="M20,38 C14.6652644,38.2564421 9.45925766,36.3110586 5.6,32.619 C0.272060699,27.6353026 -1.37099772,19.8519527 1.488,13.14 C3.388,8.314 6.88,4.916 11.163,2.328 C13.9571137,0.786939799 17.2129088,0.304126438 20.334,0.968 C25.737104,1.74599671 30.6474024,4.5348919 34.083,8.777 C36.1017125,11.2568157 37.4914664,14.1876148 38.134,17.32 C38.8361421,20.5801285 38.3199685,23.9845266 36.683,26.89 C35.432,29.159 34.283,31.471 32.229,33.22 C28.6,36.306 24.533,38.109 20,38 M1.519,22.161 C1.297,24.199 2.552,25.71 3.419,27.261 C4.30871506,28.9799368 5.46693351,30.5459454 6.85,31.9 C9.56097065,34.4485264 13.008905,36.0737811 16.7,36.543 C18.9747524,36.6345149 21.2529364,36.4964837 23.5,36.131 C27.228,35.78 30.071,33.731 32.565,31.144 C34.618,29.015 35.487,26.234 36.394,23.512 C37.3767958,20.7096664 37.2588465,17.6386951 36.064,14.92 C34.0062164,10.0008294 30.2719002,5.96996453 25.524,3.543 C21.324,1.283 16.858,1.679 12.442,3.295 C7.61167495,4.95199751 3.94830719,8.94128231 2.708,13.895 C2.12145988,16.6199434 1.72417771,19.3822072 1.519,22.162" id="Path_683"></path>
            </g>
            <g id="Group_424" transform="translate(11.186000, 6.615000)">
                <path d="M3,14 C2.83291508,13.9441011 2.66260463,13.8983511 2.49,13.863 C0.342,13.672 0.344,13.673 0.474,11.543 C0.551244837,10.8481813 0.579314687,10.1487742 0.558,9.45 C0.481,8.498 0.874,8.187 1.77,8.275 C2.264,8.323 2.77,8.283 3.264,8.283 C3.418,7.121 3.477,6 3.724,4.93 C4.411,1.953 5.781,0.373 8.565,0.298 C10.1779985,0.317375044 11.7890154,0.417500393 13.392,0.598 C14.099,0.65 14.308,1.06 14.16,1.723 C13.9947651,2.71690114 13.7713815,3.7002561 13.491,4.668 C13.372,5.007 12.791,5.278 12.369,5.401 C10.612,5.914 10.169,6.467 10.123,8.471 C10.698,8.471 11.274,8.489 11.847,8.471 C12.1595748,8.41108352 12.4820664,8.50261227 12.7165627,8.71779707 C12.9510589,8.93298187 13.0698984,9.24643928 13.037,9.563 C13.059,10.533 13.003,11.505 13.037,12.473 C13.065,13.243 12.685,13.362 12.024,13.324 C10.061,13.21 10.066,13.229 9.987,15.215 C9.879,17.969 9.76,20.722 9.647,23.476 C9.62948822,23.6295022 9.62948822,23.7844978 9.647,23.938 C10,25.714 9.749,26 7.923,25.9 C6.799,25.839 5.673,25.738 4.55,25.758 C3.63,25.77 3.355,25.376 3.332,24.513 C3.251,21.486 3.113,18.461 3,15.435 C2.986,14.976 3,14.516 3,14 M4.432,24.945 C5.732,24.945 6.663,24.93 7.591,24.951 C8.167,24.964 8.437,24.757 8.442,24.145 C8.45,23.253 8.559,22.362 8.573,21.47 C8.615,18.985 8.626,16.5 8.657,14.015 C8.674,12.57 9.009,12.235 10.409,12.203 C10.818,12.193 11.226,12.151 11.667,12.121 C11.699,11.565 11.732,11.143 11.745,10.721 C11.757,10.314 11.745,9.905 11.745,9.463 C11.0715446,9.50264147 10.3960987,9.49328349 9.724,9.435 C9.37383391,9.36909084 9.07214243,9.14860986 8.903,8.835 C8.123,6.541 9.361,4.691 11.737,4.596 C12.383,4.571 12.759,4.405 12.861,3.732 C12.992031,3.32796956 13.0864122,2.91296028 13.143,2.492 C13.13,2.164 12.922,1.634 12.686,1.56 C10.4496381,0.889024867 8.02655016,1.35191642 6.195,2.8 C4.649,3.9 4.8,5.616 4.974,7.259 C5.125,8.685 4.51,9.425 3.184,9.368 C1.414,9.292 1.269,9.447 1.472,11.249 C1.514,11.628 1.595,12.003 1.654,12.355 C4.012,12.894 3.961,12.895 4.027,15.355 C4.111,18.488 4.287,21.619 4.432,24.942" id="Path_684"></path>
            </g>
        </g>
    </g>
</svg>