<svg id="Component_12_2" data-name="Component 12 – 2" xmlns="http://www.w3.org/2000/svg" xmlns:xlink="http://www.w3.org/1999/xlink" width="28.171" height="28.537" viewBox="0 0 28.171 28.537">
  <defs>
    <clipPath id="clip-path">
      <path id="Path_771" data-name="Path 771" d="M0,0H28.171V-28.537H0Z" fill="none"/>
    </clipPath>
  </defs>
  <g id="Group_487" data-name="Group 487" transform="translate(0 28.537)" clip-path="url(#clip-path)">
    <g id="Group_483" data-name="Group 483" transform="translate(7.529 -0.25)">
      <path id="Path_767" data-name="Path 767" d="M0,0A6,6,0,0,1-2.625-.532a.722.722,0,0,1-.358-.383,4.272,4.272,0,0,1-.2-1.773c0-.157.011-.314.011-.47,0-.741.009-1.484.023-2.228a43.719,43.719,0,0,0-.087-4.764,3.61,3.61,0,0,1,1.177-3.477c.98-.8,1.924-1.654,2.866-2.506a43.878,43.878,0,0,1,5.472-4.433.68.68,0,0,1,.535-.088.667.667,0,0,1,.571.112c2.828,2.075,5.522,4.4,8.128,6.653l.71.613a2.331,2.331,0,0,1,.754,1.825c.233,3.416.295,6.667.342,9.985a.729.729,0,0,1-.471.7,6.255,6.255,0,0,1-2.507.281c-.251-.008-.5-.015-.748-.01-1.956.056-2.94.089-3.6-.582s-.666-1.737-.666-3.852a6.661,6.661,0,0,0-.218-2.591A5.768,5.768,0,0,0,6.654-7.73c-.721.005-1.18.124-1.365.353a1.871,1.871,0,0,0-.1,1.262,14.149,14.149,0,0,1,.137,1.828c.015.466.028.932.086,1.4A2.694,2.694,0,0,1,4.926-.7a1.776,1.776,0,0,1-1.531.554,12.8,12.8,0,0,0-1.87.06C1.023-.041.515,0,0,0M-1.763-1.745a7.227,7.227,0,0,0,3.182.206A13.855,13.855,0,0,1,3.485-1.6a.55.55,0,0,0,.42-.1A1.42,1.42,0,0,0,4.02-2.7c-.063-.511-.079-1.023-.1-1.536a13.251,13.251,0,0,0-.119-1.636,3.011,3.011,0,0,1,.413-2.444,3.046,3.046,0,0,1,2.427-.873C8.52-9.2,9.469-9.21,10.1-8.556s.631,1.65.631,3.629a7.034,7.034,0,0,0,.242,2.8,5.834,5.834,0,0,0,2.586.169c.278-.01.554,0,.837.012a6.6,6.6,0,0,0,1.524-.069c-.046-3.1-.113-6.145-.324-9.224-.039-.616-.067-.749-.255-.911l-.712-.614c-2.516-2.174-5.116-4.421-7.82-6.423a44.737,44.737,0,0,0-5.08,4.157c-.961.868-1.921,1.735-2.921,2.553-.588.482-.751,1.032-.644,2.182a45.27,45.27,0,0,1,.092,4.933c-.013.732-.026,1.464-.023,2.194,0,.177,0,.355-.012.531a4.936,4.936,0,0,0,.019.889" fill="#0c577e"/>
    </g>
    <g id="Group_484" data-name="Group 484" transform="translate(7.529 -0.25)">
      <path id="Path_768" data-name="Path 768" d="M0,0A6,6,0,0,1-2.625-.532a.722.722,0,0,1-.358-.383,4.272,4.272,0,0,1-.2-1.773c0-.157.011-.314.011-.47,0-.741.009-1.484.023-2.228a43.719,43.719,0,0,0-.087-4.764,3.61,3.61,0,0,1,1.177-3.477c.98-.8,1.924-1.654,2.866-2.506a43.878,43.878,0,0,1,5.472-4.433.68.68,0,0,1,.535-.088.667.667,0,0,1,.571.112c2.828,2.075,5.522,4.4,8.128,6.653l.71.613a2.331,2.331,0,0,1,.754,1.825c.233,3.416.295,6.667.342,9.985a.729.729,0,0,1-.471.7,6.255,6.255,0,0,1-2.507.281c-.251-.008-.5-.015-.748-.01-1.956.056-2.94.089-3.6-.582s-.666-1.737-.666-3.852a6.661,6.661,0,0,0-.218-2.591A5.768,5.768,0,0,0,6.654-7.73c-.721.005-1.18.124-1.365.353a1.871,1.871,0,0,0-.1,1.262,14.149,14.149,0,0,1,.137,1.828c.015.466.028.932.086,1.4A2.694,2.694,0,0,1,4.926-.7a1.776,1.776,0,0,1-1.531.554,12.8,12.8,0,0,0-1.87.06C1.023-.041.515,0,0,0ZM-1.763-1.745a7.227,7.227,0,0,0,3.182.206A13.855,13.855,0,0,1,3.485-1.6a.55.55,0,0,0,.42-.1A1.42,1.42,0,0,0,4.02-2.7c-.063-.511-.079-1.023-.1-1.536a13.251,13.251,0,0,0-.119-1.636,3.011,3.011,0,0,1,.413-2.444,3.046,3.046,0,0,1,2.427-.873C8.52-9.2,9.469-9.21,10.1-8.556s.631,1.65.631,3.629a7.034,7.034,0,0,0,.242,2.8,5.834,5.834,0,0,0,2.586.169c.278-.01.554,0,.837.012a6.6,6.6,0,0,0,1.524-.069c-.046-3.1-.113-6.145-.324-9.224-.039-.616-.067-.749-.255-.911l-.712-.614c-2.516-2.174-5.116-4.421-7.82-6.423a44.737,44.737,0,0,0-5.08,4.157c-.961.868-1.921,1.735-2.921,2.553-.588.482-.751,1.032-.644,2.182a45.27,45.27,0,0,1,.092,4.933c-.013.732-.026,1.464-.023,2.194,0,.177,0,.355-.012.531A4.936,4.936,0,0,0-1.763-1.745Z" fill="none" stroke="#00577e" stroke-width="0.5"/>
    </g>
    <g id="Group_485" data-name="Group 485" transform="translate(2.503 -13.564)">
      <path id="Path_769" data-name="Path 769" d="M0,0H-.039A.731.731,0,0,1-.547-.245c-.872-.983-1.769-1.91-1.7-2.8.057-.789.911-1.493,1.872-2.3,2.386-2,4.86-3.973,7.252-5.88q1.761-1.4,3.515-2.811a2.477,2.477,0,0,1,3.631.22c.287.283.565.576.844.869a17.856,17.856,0,0,0,1.519,1.48.6.6,0,0,0,.154-.286,1.611,1.611,0,0,1,1.23-1.324,1.781,1.781,0,0,1,1.931.4,2.8,2.8,0,0,1,.515,2.366c-.314,1.527.274,2.733,1.852,3.8a11.947,11.947,0,0,1,1.03.8c.283.237.564.474.871.684.722.493,1.431,1.042,1.451,1.849A3.538,3.538,0,0,1,23.729-.714a.735.735,0,0,1-.9-.011l-11.193-8.9C10.484-8.653,9.33-7.7,8.184-6.755,5.5-4.542,2.964-2.451.493-.191A.73.73,0,0,1,0,0M12.1-13.257a1.306,1.306,0,0,0-.8.362Q9.55-11.479,7.785-10.078C5.4-8.177,2.933-6.212.561-4.222c-.285.24-1.256.909-1.28,1.236-.016.219.479.835.783,1.209C2.385-3.868,4.755-5.823,7.253-7.883c1.293-1.068,2.6-2.142,3.9-3.244a.734.734,0,0,1,.927-.015L23.29-2.23c.527-.431.647-.616.667-.693v-.246a4.376,4.376,0,0,0-.815-.654c-.349-.238-.667-.5-.987-.771a10.709,10.709,0,0,0-.907-.71c-2.073-1.4-2.9-3.181-2.469-5.3a1.346,1.346,0,0,0-.2-1.136.964.964,0,0,0-.6.19,1.824,1.824,0,0,1-.434.989,1.11,1.11,0,0,0-.133.2.742.742,0,0,1-.817.633.7.7,0,0,1-.5-.124A14.583,14.583,0,0,1,13.8-11.937c-.267-.282-.534-.562-.809-.833a1.332,1.332,0,0,0-.891-.487" fill="#0c577e"/>
    </g>
    <g id="Group_486" data-name="Group 486" transform="translate(2.503 -13.564)">
      <path id="Path_770" data-name="Path 770" d="M0,0H-.039A.731.731,0,0,1-.547-.245c-.872-.983-1.769-1.91-1.7-2.8.057-.789.911-1.493,1.872-2.3,2.386-2,4.86-3.973,7.252-5.88q1.761-1.4,3.515-2.811a2.477,2.477,0,0,1,3.631.22c.287.283.565.576.844.869a17.856,17.856,0,0,0,1.519,1.48.6.6,0,0,0,.154-.286,1.611,1.611,0,0,1,1.23-1.324,1.781,1.781,0,0,1,1.931.4,2.8,2.8,0,0,1,.515,2.366c-.314,1.527.274,2.733,1.852,3.8a11.947,11.947,0,0,1,1.03.8c.283.237.564.474.871.684.722.493,1.431,1.042,1.451,1.849A3.538,3.538,0,0,1,23.729-.714a.735.735,0,0,1-.9-.011l-11.193-8.9C10.484-8.653,9.33-7.7,8.184-6.755,5.5-4.542,2.964-2.451.493-.191A.73.73,0,0,1,0,0ZM12.1-13.257a1.306,1.306,0,0,0-.8.362Q9.55-11.479,7.785-10.078C5.4-8.177,2.933-6.212.561-4.222c-.285.24-1.256.909-1.28,1.236-.016.219.479.835.783,1.209C2.385-3.868,4.755-5.823,7.253-7.883c1.293-1.068,2.6-2.142,3.9-3.244a.734.734,0,0,1,.927-.015L23.29-2.23c.527-.431.647-.616.667-.693v-.246a4.376,4.376,0,0,0-.815-.654c-.349-.238-.667-.5-.987-.771a10.709,10.709,0,0,0-.907-.71c-2.073-1.4-2.9-3.181-2.469-5.3a1.346,1.346,0,0,0-.2-1.136.964.964,0,0,0-.6.19,1.824,1.824,0,0,1-.434.989,1.11,1.11,0,0,0-.133.2.742.742,0,0,1-.817.633.7.7,0,0,1-.5-.124A14.583,14.583,0,0,1,13.8-11.937c-.267-.282-.534-.562-.809-.833A1.332,1.332,0,0,0,12.1-13.257Z" fill="none" stroke="#00577e" stroke-width="0.5"/>
    </g>
  </g>
</svg>
