<?xml version="1.0" encoding="UTF-8"?>
<svg width="41px" height="40px" viewBox="0 0 41 40" version="1.1" xmlns="http://www.w3.org/2000/svg" xmlns:xlink="http://www.w3.org/1999/xlink">
    <title>Group 2</title>
    <g id="Page-1" stroke="none" stroke-width="1" fill="none" fill-rule="evenodd">
        <g id="Group-2" transform="translate(0.296000, 0.140000)" fill="#E0CC6B" fill-rule="nonzero" stroke="#E0CC6B">
            <g id="Group_429" transform="translate(0.000000, 0.000000)">
                <path d="M21,38 C16.075,37.663 11.323,36.589 7.415,33.422 C4.229,30.841 1.741,27.678 1.294,23.309 C0.886625708,21.0328447 0.778042148,18.7132578 0.971,16.409 C1.461,13.246 3.052,10.639 4.756,8.055 C6.61612419,5.36227029 9.24891874,3.29675911 12.307,2.131 C15.2739309,0.961652792 18.4936263,0.582621873 21.651,1.031 C28.223,1.861 33.251,4.986 36.496,10.95 C40.365,18.05 39.436,24.797 35.212,31.25 C33.4326689,33.9143982 30.7490089,35.8446442 27.657,36.684 C25.468,37.331 23.361,38.211 21,38 M18.449,2.342 C15.1255917,2.24843681 11.8891786,3.41187429 9.386,5.6 C6.52463795,7.73543093 4.31779385,10.628818 3.015,13.953 C2.12684863,16.7677786 1.9767168,19.7635284 2.579,22.653 C2.8832558,25.6329396 4.26129821,28.4003985 6.456,30.439 C7.856,31.652 9.211,32.916 10.675,34.039 C11.4288794,34.6348118 12.2951347,35.0725309 13.222,35.326 C15.149,35.803 17.122,36.126 19.083,36.426 C22.181561,37.014351 25.3882642,36.5104102 28.157,35 C30.188,33.85 32.394,32.967 34,31.128 C35.965,28.875 36.6,26.087 37.3,23.328 C38.8929163,17.626701 37.1216525,11.5150083 32.727,7.549 C29.027,3.949 24.289,2.249 18.453,2.343" id="Path_689"></path>
            </g>
            <g id="Group_431" transform="translate(8.330000, 7.593000)">
                <path d="M12,22 C9.868,21.729 7.725,21.521 5.607,21.168 C3.87914088,20.8855589 2.4576768,19.6540102 1.932,17.984 C0.565,14.155 -0.147,10.195 0.957,6.184 C1.623,3.765 2.864,1.708 5.846,1.549 C8.537,1.405 11.225,0.954 13.909,0.997 C17.356,1.053 20.359,2.38 21.62,5.834 C22.2288852,7.89876907 22.5979829,10.0267852 22.72,12.176 C22.8021943,13.2546423 22.7467487,14.3393603 22.555,15.404 C21.977,19.442 19.438,21.57 15.037,21.748 C14.037,21.788 13.031,21.754 12.027,21.754 L12,22 M11.689,20.409 C13.202,20.332 14.589,20.293 15.974,20.184 C18.764,19.965 20.546,18.323 20.585,15.524 C20.6167958,12.5982056 20.4591327,9.67342184 20.113,6.768 C19.9200125,4.89617055 18.5550175,3.35577391 16.72,2.939 C15.6457074,2.62334771 14.5281864,2.4799027 13.409,2.514 C10.599,2.676 7.8,3.007 4.997,3.268 C4.28096382,3.30373428 3.67282927,3.80421641 3.5,4.5 C2.10494781,8.75240717 2.18563366,13.351148 3.729,17.552 C4.23358787,19.1005689 5.67135321,20.153427 7.3,20.167 C8.79,20.338 10.3,20.339 11.684,20.409" id="Path_691"></path>
            </g>
            <g id="Group_437" transform="translate(14.270000, 13.498000)">
                <path d="M5,11 C2.14,11.482 0.276,8.079 0.124,5.812 C-0.028,3.545 2.324,0.041 5.068,0.106 C8.508,0.187 10.468,2.675 10.608,5.885 C10.746,9.043 8.973,10.9 5,11 M5.291,1.477 C4.27963586,1.45299262 3.30364747,1.84969657 2.59583039,2.5724889 C1.8880133,3.29528122 1.51182681,4.27936003 1.557,5.29 C1.49,8.29 3.486,9.661 6.176,9.703 C8,9.731 9.354,8.046 9.33,5.9 C9.39362338,4.77464327 9.00105023,3.67113069 8.24098248,2.83880099 C7.48091473,2.00647129 6.41749391,1.51556412 5.291,1.477" id="Path_697"></path>
            </g>
            <g id="Group_438" transform="translate(24.555000, 12.059000)">
                <path d="M1,0 C1.413,0.589 1.881,0.983 1.813,1.229 C1.63235222,1.60539883 1.28191737,1.87213109 0.871,1.946 C0.614,1.98 0.015,1.446 0.055,1.324 C0.306161428,0.840417681 0.624296994,0.394691238 1,0" id="Path_698"></path>
            </g>
        </g>
    </g>
</svg>