<?xml version="1.0" encoding="UTF-8"?>
<svg width="13px" height="450px" viewBox="0 0 13 450" version="1.1" xmlns="http://www.w3.org/2000/svg" xmlns:xlink="http://www.w3.org/1999/xlink">
    <title>Union_1</title>
    <g id="Page-1" stroke="none" stroke-width="1" fill="none" fill-rule="evenodd">
        <g id="line-2-orange" fill="#255684" fill-rule="nonzero">
            <path d="M-0.001,0 L-0.001,0.339 L9.816,0.339 L9.459,27.846 C9.523,31.779 9.535,36.011 9.546,40.102 C9.56,45.191 9.576,50.45 9.692,55.116 C9.751,57.288 10.48,57.344 11.184,57.399 C11.5114989,57.3880445 11.8335761,57.4846325 12.101,57.674 L12.101,62.724 C10.303761,72.2446893 9.12562381,81.8718772 8.574,91.545 C7.893,104.825 8.844,116.174 11.403,125.275 C10.836,124.139 10.323,123.562 9.877,123.562 C9.557,123.562 9.271,123.862 9.028,124.443 C8.414,125.919 8.081,129.223 8.139,133.281 C8.205,137.992 8.83,142.999 9.859,142.999 C10.026,142.999 10.2,142.863 10.377,142.599 C9.122,151.422 8.686,162.067 9.046,175.146 C9.366,186.807 10.275,199.275 11.154,211.332 L11.219,212.232 C11.519,216.323 11.819,220.554 12.103,224.701 L12.103,278.761 C11.5729707,282.958472 10.7567362,287.11482 9.66,291.201 L9.67,291.256 C10.413,295.264 11.537,301.322 12.104,306.956 L12.104,318.08 C11.9445105,319.498293 11.3559606,320.83413 10.417,321.909 C10.829,325.079 11.417,328.277 11.982,331.372 L12.103,332.035 L12.103,355.55 C11.8602608,356.035815 11.5880878,356.506357 11.288,356.959 C11.2522241,358.039541 11.5357,359.106663 12.103,360.027 L12.103,368.519 C9.888,372.882 7.725,378.076 7.725,389.251 C7.725,390.045 7.736,390.857 7.756,391.665 C8.942,399.352 10.413,405.427 11.835,411.302 L12.102,412.402 L12.102,448.402 C12.074,448.713333 12.0473333,449.023667 12.022,449.333 L-0.001,449.333 L-0.001,449.557 L-0.001,0 Z" id="Union_1"></path>
        </g>
    </g>
</svg>