<?xml version="1.0" encoding="UTF-8"?>
<svg width="184px" height="6px" viewBox="0 0 184 6" version="1.1" xmlns="http://www.w3.org/2000/svg" xmlns:xlink="http://www.w3.org/1999/xlink">
    <title>Subtraction_333</title>
    <g id="Page-1" stroke="none" stroke-width="1" fill="none" fill-rule="evenodd">
        <g id="line-5-orange" fill="#E0CC6B" fill-rule="nonzero">
            <path d="M128.267,0.257 C128.19,0.257 128.116,0.257 128.06,0.249 L127.931,0.318 C127.724957,0.435831486 127.491349,0.496907837 127.254,0.495 C127.171056,0.494602708 127.088222,0.488924555 127.006,0.478 L126.993,0.501 C126.106,0.567 125.257,0.601 124.468,0.601 C123.674339,0.607252097 122.88108,0.563163609 122.093,0.469 C122.046,0.462 122.045,0.385 122.044,0.311 C122.043,0.237 122.044,0.16 121.995,0.154 C121.775319,0.401481361 121.471834,0.55892314 121.143,0.596 C120.913375,0.588444265 120.702779,0.46644078 120.582,0.271 C120.614451,0.336981061 120.625297,0.41150635 120.613,0.484 C120.591411,0.565044923 120.514517,0.618702308 120.431,0.611 C120.333703,0.616409984 120.243557,0.559918562 120.206,0.47 C120.195455,0.437500722 120.195455,0.402499278 120.206,0.37 C120.058238,0.468765091 119.883692,0.519732519 119.706,0.516 C119.367931,0.489037197 119.036724,0.405897353 118.726,0.27 L118.716,0.27 C118.538,0.205 118.354,0.138 118.178,0.092 L117.958,0.101 L117.907,0.101 C117.844258,0.10231231 117.781724,0.108666107 117.72,0.12 L117.282,0.153 C117.174762,0.218202111 117.081061,0.30341566 117.006,0.404 C116.92532,0.327401503 116.839085,0.256875756 116.748,0.193 L116.5,0.213 C116.498679,0.182269756 116.502395,0.15153044 116.511,0.122 L116.511,0.111 C116.421,0.116 116.365,0.184 116.339,0.319 C116.29007,0.28283218 116.243631,0.243409618 116.2,0.201 L116.189,0.201 L116.181,0.201 L116.173,0.201 C116.15,0.21 116.126,0.219 116.102,0.231 L115.769,0.257 C115.760861,0.194989709 115.75652,0.132539963 115.756,0.07 C115.710509,0.120878519 115.657978,0.164991539 115.6,0.201 L115.6,0.209 C115.599666,0.212324958 115.599666,0.215675042 115.6,0.219 C115.536382,0.254293374 115.469379,0.283104771 115.4,0.305 L115.257,0.301 C115.157,0.492 115.046,0.577 114.898,0.577 C114.879018,0.578160611 114.859982,0.578160611 114.841,0.577 C114.7543,0.509857083 114.673658,0.435237714 114.6,0.354 L114.571,0.354 L114.564,0.354 C114.513825,0.355388448 114.463757,0.359393893 114.414,0.366 L113.974,0.4 C113.963616,0.331160252 113.958601,0.261617318 113.959,0.192 C113.92092,0.257889804 113.892624,0.328966786 113.875,0.403 L109.475,0.731 C109.393,0.725 109.304,0.724 109.219,0.724 L109.21,0.724 C109.10251,0.725558924 108.995015,0.721219068 108.888,0.711 C108.841,0.705 108.84,0.625 108.838,0.547 C108.836,0.469 108.838,0.388 108.788,0.382 C108.573073,0.648407434 108.263515,0.821458899 107.924,0.865 C107.696915,0.855086744 107.490455,0.73038169 107.376,0.534 C107.409581,0.605353219 107.420068,0.68540453 107.406,0.763 C107.384858,0.846406958 107.306797,0.902526792 107.221,0.896 C107.126541,0.90201826 107.038339,0.848537827 107,0.762 C106.990716,0.729313125 106.990716,0.694686875 107,0.662 C106.847762,0.773702398 106.662763,0.831734361 106.474,0.827 C106.146788,0.801382693 105.826097,0.721632315 105.525,0.591 L105.517,0.591 C105.214673,0.459700723 104.892611,0.379607584 104.564,0.354 C104.253696,0.349949975 103.963739,0.50800515 103.799,0.771 C103.679,0.657 103.477,0.471 103.325,0.471 C103.225,0.471 103.167,0.548 103.14,0.699 C103.069073,0.648643125 103.002202,0.592805532 102.94,0.532 C102.881275,0.474421234 102.818077,0.42158904 102.751,0.374 L102.751,0.674 C102.62,0.631 102.512,0.532 102.506,0.448 C102.502981,0.414632911 102.516871,0.381970823 102.543,0.361 L102.531,0.361 C102.459983,0.432020457 102.411613,0.522498222 102.392,0.621 C102.345,0.621 102.314,0.531 102.3,0.366 C102.263504,0.373665729 102.227712,0.384369685 102.193,0.398 C102.078,0.718 101.969,1.02 101.693,1.02 C101.676686,1.02113177 101.660314,1.02113177 101.644,1.02 C101.621,1.002 101.595,0.981 101.567,0.956 C101.45554,1.08602342 101.330119,1.20339552 101.193,1.306 C101.175014,1.3070133 101.156986,1.3070133 101.139,1.306 C100.839,1.306 100.724,1.006 100.589,0.665 C100.56,0.59 100.526,0.504 100.489,0.423 C100.489,0.577 100.479,0.898 100.378,0.905 C100.316,0.705 100.236,0.614 100.133,0.614 C99.9958282,0.645681464 99.8718222,0.719037149 99.778,0.824 C99.7057842,0.878634418 99.6295702,0.927772395 99.55,0.971 C99.52,0.82 99.45,0.743 99.35,0.743 C99.185,0.743 98.965,0.933 98.833,1.043 C98.6407079,0.776295311 98.328655,0.622329207 98,0.632 C97.6448776,0.65738893 97.2957847,0.737326152 96.965,0.869 C96.6326989,1.00154756 96.2818746,1.08183235 95.925,1.107 C95.7218703,1.11237975 95.5220564,1.05474113 95.353,0.942 C95.3631506,0.97456057 95.3631506,1.00943943 95.353,1.042 C95.3095437,1.13334298 95.2149668,1.18913942 95.114,1.183 C95.0244102,1.19098578 94.9412841,1.13570696 94.914,1.05 C94.8991967,0.972121553 94.9108103,0.891530118 94.947,0.821 C94.8132113,1.02286574 94.5891133,1.14649313 94.347,1.152 C93.9834427,1.11477377 93.6463256,0.94496931 93.4,0.675 C93.349,0.681 93.348,0.761 93.346,0.838 C93.344,0.915 93.346,0.997 93.292,1.003 C93.1769787,1.01353033 93.0614961,1.01820303 92.946,1.017 L92.93,1.017 C92.839,1.017 92.743,1.017 92.652,1.024 L87.86,0.696 C87.8407728,0.620752252 87.8100802,0.548911488 87.769,0.483 C87.7695521,0.552660831 87.7641996,0.62224315 87.753,0.691 L87.273,0.655 C87.2222342,0.648429633 87.1711693,0.644424543 87.12,0.643 L87.1,0.643 L87.068,0.643 C86.9882292,0.724933694 86.9015783,0.799874967 86.809,0.867 C86.7880169,0.868192853 86.7669831,0.868192853 86.746,0.867 C86.5727384,0.859875138 86.4197341,0.751872129 86.355,0.591 L86.224,0.583 C86.1488129,0.56076464 86.0758371,0.531641264 86.006,0.496 C86.0063342,0.492675042 86.0063342,0.489324958 86.006,0.486 C85.9455103,0.446785801 85.8893667,0.407787856 85.839,0.362 C85.838151,0.424596932 85.8331399,0.48706811 85.824,0.549 L85.444,0.528 L85.391,0.508 L85.381,0.508 L85.37,0.508 L85.362,0.508 L85.35,0.508 L85.342,0.508 C85.2914075,0.550312664 85.2379464,0.589071995 85.182,0.624 C85.154,0.49 85.092,0.424 84.995,0.416 L84.995,0.427 C85.0002642,0.45129117 85.0019487,0.476221477 85,0.501 L84.735,0.48 C84.6366636,0.543436281 84.5430823,0.613956484 84.455,0.691 C84.3717583,0.589128782 84.2699616,0.503958892 84.155,0.44 L83.677,0.408 C83.6108863,0.396794763 83.544041,0.390444459 83.477,0.389 L83.421,0.389 L83.183,0.374 C82.988,0.421 82.783,0.491 82.596,0.553 L82.586,0.553 L82.579,0.553 C82.2396095,0.690095905 81.8810191,0.773755756 81.516,0.801 C81.3233101,0.805740644 81.1333559,0.754692646 80.969,0.654 C80.9803579,0.68636582 80.9803579,0.72163418 80.969,0.754 C80.9243792,0.84728044 80.8271199,0.903651132 80.724,0.896 C80.6355074,0.907090193 80.5515976,0.853807447 80.524,0.769 C80.5107636,0.695874747 80.5227514,0.620422018 80.558,0.555 C80.4184236,0.754877939 80.1917376,0.876024923 79.948,0.881 C79.5964958,0.846724423 79.2681256,0.690323944 79.02,0.439 C78.969,0.445 78.968,0.522 78.966,0.595 C78.964,0.668 78.966,0.747 78.912,0.754 C78.0536208,0.848074961 77.190497,0.892149371 76.327,0.886 C75.47,0.886 74.546,0.853 73.579,0.786 C73.5349774,0.721609831 73.5012406,0.650762584 73.479,0.576 C73.4575556,0.499692215 73.4237765,0.427404932 73.379,0.362 C73.379,0.508 73.373,0.662 73.269,0.674 C73.161888,0.594276888 73.0349377,0.545503041 72.902,0.533 C72.8414247,0.558811997 72.7829196,0.589234654 72.727,0.624 L72.722,0.631 C72.7213999,0.628367094 72.7213999,0.625632906 72.722,0.623 C72.7381148,0.591741346 72.7486079,0.557892683 72.753,0.523 L72.73,0.523 C72.643,0.523 72.555,0.528 72.47,0.533 L72.442,0.533 C72.362,0.533 72.278,0.543 72.193,0.543 C71.9173647,0.557468463 71.6467098,0.465460115 71.437,0.286 C71.437,0.442 71.431,0.586 71.327,0.601 C71.2857894,0.547696751 71.2340495,0.503445457 71.175,0.471 C71.0503112,0.616512249 70.9097751,0.747656977 70.756,0.862 C70.7353499,0.863170037 70.7146501,0.863170037 70.694,0.862 C70.5062497,0.847437438 70.344735,0.723557231 70.282,0.546 C70.1710571,0.538994511 70.060768,0.523955091 69.952,0.501 L69.783,0.456 L69.77,0.456 L69.759,0.456 C69.659,0.433 69.544,0.404 69.434,0.382 L69.359,0.443 C69.2847257,0.501466082 69.2061722,0.554280795 69.124,0.601 C69.094,0.46 69.024,0.388 68.924,0.388 C68.7253774,0.436518188 68.5446692,0.540572796 68.403,0.688 C68.2102741,0.441974633 67.9124162,0.301762552 67.6,0.31 C67.2326858,0.336368515 66.8717061,0.41969746 66.53,0.557 C66.1890858,0.693003905 65.8291418,0.775315364 65.463,0.801 C65.2707474,0.805847428 65.0811748,0.755155856 64.917,0.655 C64.9284382,0.687352092 64.9284382,0.722647908 64.917,0.755 C64.8723792,0.84828044 64.7751199,0.904651132 64.672,0.897 C64.5835074,0.908090193 64.4995976,0.854807447 64.472,0.77 C64.4586016,0.696876576 64.470598,0.621370092 64.506,0.556 C64.3664236,0.755877939 64.1397376,0.877024923 63.896,0.882 C63.5444958,0.847724423 63.2161256,0.691323944 62.968,0.44 C62.917,0.446 62.915,0.523 62.914,0.597 C62.913,0.671 62.914,0.749 62.86,0.756 C62.0032199,0.848877195 61.1417714,0.891949618 60.28,0.885 C59.423,0.885 58.499,0.852 57.532,0.785 C57.488148,0.720151304 57.454428,0.649002236 57.432,0.574 C57.4103038,0.498408107 57.3765352,0.42681876 57.332,0.362 C57.332,0.509 57.327,0.662 57.222,0.676 C57.0618435,0.562668055 56.8678499,0.507291699 56.672,0.519 C56.585,0.519 56.5,0.524 56.417,0.529 L56.385,0.529 C56.316,0.529 56.245,0.538 56.173,0.539 C56.1536156,0.621147559 56.1385946,0.704263916 56.128,0.788 C55.9367241,0.752098391 55.7720005,0.631497225 55.68,0.46 L55.667,0.46 C55.6707193,0.516496287 55.6503184,0.571921789 55.610859,0.612524963 C55.5713996,0.653128137 55.5165795,0.675103944 55.46,0.673 C55.3055992,0.671341912 55.1641222,0.586455684 55.09,0.451 C55.006809,0.409612427 54.9188031,0.378709574 54.828,0.359 C54.7362754,0.381530814 54.6492653,0.420126711 54.571,0.473 C54.557,0.538 54.529,0.58 54.501,0.58 C54.4850566,0.578244169 54.4709235,0.568946057 54.463,0.555 C54.3656504,0.640412698 54.2731716,0.731222185 54.186,0.827 L54.181,0.833 C54.0352132,0.998915919 53.8711762,1.14785752 53.692,1.277 C53.6730134,1.27800909 53.6539866,1.27800909 53.635,1.277 C53.318,1.277 53.194,0.977 53.05,0.635 C53.015,0.548 52.983,0.472 52.95,0.396 C52.95,0.55 52.94,0.87 52.832,0.878 C52.766,0.678 52.68,0.587 52.572,0.587 C52.4281735,0.617758643 52.2968611,0.690903456 52.195,0.797 C52.1180552,0.861377308 52.0361324,0.91955923 51.95,0.971 C51.918,0.82 51.85,0.743 51.735,0.743 C51.5277928,0.79034441 51.3377601,0.894187387 51.186,1.043 C50.9732285,0.772395635 50.6440154,0.619679413 50.3,0.632 C49.9237769,0.657213913 49.5532265,0.737050693 49.2,0.869 L49.19,0.869 C48.8367615,1.00090835 48.4662171,1.08074383 48.09,1.106 C47.8752431,1.11164923 47.6635323,1.05428916 47.481,0.941 C47.491755,0.97346581 47.491755,1.00853419 47.481,1.041 C47.43356,1.13684736 47.3326272,1.1942405 47.226,1.186 C47.1308435,1.19509846 47.0417359,1.13816863 47.01,1.048 C46.9959171,0.971414745 47.0086294,0.892315948 47.046,0.824 C46.8982864,1.0281953 46.6629877,1.15084707 46.411,1.155 C46.0311941,1.11676593 45.6770654,0.945721741 45.411,0.672 C45.357,0.678 45.355,0.758 45.354,0.835 C45.353,0.912 45.349,1.001 45.3,1.001 C45.181,1.014 45.043,1.014 44.932,1.015 L44.915,1.015 C44.815,1.015 44.715,1.015 44.615,1.022 L39.515,0.694 C39.49304,0.619129928 39.459283,0.548240079 39.415,0.484 C39.4159755,0.552307815 39.4109562,0.620569516 39.4,0.688 L38.891,0.655 C38.839,0.648 38.785,0.645 38.729,0.643 L38.709,0.643 L38.675,0.643 C38.5897133,0.724271263 38.4977202,0.798200245 38.4,0.864 C38.3776827,0.865197928 38.3553173,0.865197928 38.333,0.864 C38.1532602,0.858958754 37.992149,0.751810079 37.918,0.588 L37.776,0.583 C37.6961702,0.561151655 37.6185118,0.532029752 37.544,0.496 L37.525,0.484 C37.4611254,0.452794666 37.4013412,0.413834188 37.347,0.368 C37.34651,0.430613233 37.3414969,0.49310925 37.332,0.555 L36.946,0.528 C36.919,0.517 36.891,0.508 36.869,0.5 L36.86,0.5 L36.845,0.5 L36.835,0.5 C36.779064,0.537659448 36.7205912,0.571406577 36.66,0.601 C36.63,0.467 36.56,0.401 36.46,0.393 L36.46,0.403 C36.4721211,0.434212843 36.4779003,0.467528331 36.477,0.501 L36.192,0.48 C36.087183,0.543222412 35.9869363,0.613729254 35.892,0.691 C35.8022227,0.58887628 35.69443,0.504133571 35.574,0.441 L35.067,0.408 C34.9951997,0.396601863 34.9226885,0.390252956 34.85,0.389 L34.791,0.389 L34.542,0.374 C34.329,0.422 34.105,0.494 33.907,0.556 C33.5414024,0.69308069 33.157627,0.775631145 32.768,0.801 C32.5645471,0.805941094 32.363622,0.755104629 32.187,0.654 C32.1972859,0.68414677 32.1972859,0.71685323 32.187,0.747 C32.1365264,0.843383033 32.0334732,0.900416247 31.925,0.892 C31.8327901,0.902583315 31.7454159,0.848336759 31.714,0.761 C31.7016999,0.689150515 31.714781,0.615259979 31.751,0.552 C31.5965087,0.75492771 31.3570284,0.875221347 31.102,0.878 C30.7327476,0.845499937 30.3851353,0.689831599 30.115,0.436 C30.061,0.442 30.059,0.519 30.058,0.593 C30.057,0.667 30.058,0.744 30.001,0.751 C29.0877578,0.845076069 28.1700544,0.889141857 27.252,0.883 C26.341,0.883 25.357,0.85 24.329,0.783 C24.2846513,0.718435974 24.2508932,0.64720646 24.229,0.572 C24.20766,0.496274489 24.1738649,0.424628901 24.129,0.36 C24.129,0.507 24.123,0.66 24.011,0.674 C23.8956537,0.593536441 23.7611338,0.544902343 23.621,0.533 C23.5567854,0.558580162 23.4946065,0.589001002 23.435,0.624 L23.429,0.624 L23.422,0.624 C23.4391377,0.586015301 23.45033,0.552099051 23.455,0.517 L23.431,0.517 C23.338,0.517 23.244,0.522 23.154,0.527 L23.123,0.527 C23.037,0.527 22.949,0.537 22.86,0.537 C22.5709783,0.551278643 22.2866314,0.459932198 22.06,0.28 C22.06,0.43 22.054,0.586 21.942,0.597 C21.8976954,0.542804348 21.8425047,0.498515502 21.78,0.467 C21.6461434,0.613316634 21.4965745,0.744440941 21.334,0.858 C21.3120154,0.859164276 21.2899846,0.859164276 21.268,0.858 C21.0727745,0.847361884 20.9016599,0.723909352 20.83,0.542 C20.7088578,0.536767955 20.5882301,0.523067848 20.469,0.501 L20.263,0.451 L20.254,0.451 C20.147,0.428 20.026,0.401 19.914,0.38 L19.833,0.443 C19.7601895,0.501974971 19.6833344,0.555773492 19.603,0.604 C19.571,0.463 19.503,0.391 19.392,0.391 C19.1833405,0.438368039 18.9917019,0.54214347 18.838,0.691 C18.6253119,0.439474829 18.309215,0.299110132 17.98,0.31 C17.5929783,0.33610704 17.2119005,0.418993984 16.849,0.556 L16.843,0.556 C16.4743036,0.694312853 16.0870472,0.776887108 15.694,0.801 C15.4906353,0.806296045 15.2897028,0.755803553 15.113,0.655 C15.123211,0.685159152 15.123211,0.717840848 15.113,0.748 C15.0627244,0.844576324 14.9595319,0.901686704 14.851,0.893 C14.7587901,0.903583315 14.6714159,0.849336759 14.64,0.762 C14.627615,0.690150299 14.6407012,0.616231028 14.677,0.553 C14.5224101,0.755808828 14.282992,0.876071234 14.028,0.879 C13.6587476,0.846499937 13.3111353,0.690831599 13.041,0.437 C12.987,0.443 12.985,0.519 12.984,0.593 C12.983,0.667 12.984,0.746 12.926,0.752 C12.0147519,0.845816834 11.0990414,0.88954927 10.183,0.883 L9.834,0.883 C9.80947586,0.848059677 9.78710115,0.811659041 9.767,0.774 C9.76687887,0.810510699 9.76183338,0.846838226 9.752,0.882 C9.603,0.882 9.438,0.882 9.264,0.874 L9.264,0.901 C9.264,0.914 9.264,0.928 9.264,0.941 C9.18855585,0.899166567 9.13574436,0.825817279 9.12,0.741 C9.12054006,0.704423908 9.13787215,0.670128498 9.167,0.648 C9.12201032,0.640897294 9.07654637,0.637220063 9.031,0.637 C8.642,0.637 8.39,0.924 8.123,1.227 C7.96470608,1.42046515 7.78487907,1.59525968 7.587,1.748 C7.5660177,1.74921926 7.5449823,1.74921926 7.524,1.748 C7.174,1.748 7.037,1.399 6.879,0.995 C6.84,0.907 6.8,0.811 6.762,0.718 C6.762,0.913 6.751,1.275 6.632,1.284 C6.559,1.054 6.465,0.942 6.345,0.942 C6.1842883,0.979152055 6.03898955,1.06507391 5.929,1.188 C5.84951107,1.25917831 5.76458637,1.32404206 5.675,1.382 C5.64,1.205 5.56,1.116 5.438,1.116 C5.244,1.116 4.986,1.339 4.832,1.473 C4.60847028,1.15743678 4.24260078,0.973752296 3.856,0.983 C3.43910761,1.01259318 3.02928178,1.10636402 2.641,1.261 L2.625,1.261 C2.23665648,1.41543765 1.82686176,1.50920138 1.41,1.539 C1.17167167,1.54513478 0.937284164,1.47736849 0.739,1.345 C0.751920512,1.38498208 0.751920512,1.42801792 0.739,1.468 C0.688449754,1.57543566 0.57751519,1.64120401 0.459,1.634 C0.357687592,1.64451038 0.261863615,1.58595128 0.225,1.491 C0.20766532,1.39981896 0.221396843,1.30545874 0.264,1.223 C0.190676832,1.32198788 0.101470596,1.40815299 0,1.478 L0,5.511 C0.184943825,5.46705936 0.323610492,5.44572603 0.416,5.447 C0.475,5.447 0.543,5.447 0.632,5.458 L0.632,5.467 L0.617,5.511 L0.587,5.611 L0.566,5.681 L0.6,5.694 C0.997016955,5.853312 1.41632719,5.9501278 1.843,5.981 C2.2115419,5.99123429 2.56289694,5.82521346 2.789,5.534 C2.944,5.666 3.204,5.885 3.399,5.885 C3.518,5.885 3.599,5.801 3.631,5.635 C3.72201168,5.69354167 3.80858001,5.7587186 3.89,5.83 L3.907,5.844 L3.975,5.9 C4.093,5.877 4.21,5.849 4.35,5.815 L4.365,5.815 L4.579,5.765 L4.579,5.755 C4.71502189,5.72610583 4.85312186,5.70804917 4.992,5.701 C5.06474023,5.49317018 5.25346532,5.34799703 5.473,5.331 C5.49730789,5.32942638 5.52169211,5.32942638 5.546,5.331 C5.72581635,5.4650184 5.89016097,5.61863032 6.036,5.789 C6.10529301,5.75131386 6.16592731,5.69953625 6.214,5.637 C6.336,5.65 6.34,5.824 6.343,6.008 C6.58787408,5.79829537 6.90405908,5.69087125 7.226,5.708 C7.326,5.708 7.426,5.714 7.526,5.72 L7.557,5.72 C7.65,5.726 7.757,5.732 7.857,5.732 L7.884,5.732 C7.87915968,5.69127512 7.86731883,5.65169285 7.849,5.615 L7.864,5.614 C7.92926576,5.65525876 7.99783293,5.69104748 8.069,5.721 C8.22458725,5.70635172 8.37307669,5.64889426 8.498,5.555 C8.621,5.573 8.624,5.755 8.627,5.923 C8.6784525,5.84671211 8.71728301,5.76263562 8.742,5.674 C8.76676455,5.58572905 8.80487092,5.50176014 8.855,5.425 C9.981,5.348 11.063,5.309 12.07,5.309 C13.0794694,5.30159539 14.0885127,5.35301587 15.092,5.463 C15.152,5.471 15.154,5.563 15.156,5.647 C15.156,5.718 15.156,5.792 15.194,5.819 L15.206,5.819 L15.248,5.81 L15.267,5.795 L15.284,5.781 L15.279,5.514 L15.279,5.269 C15.403,5.314 15.55,5.378 15.707,5.445 L15.722,5.451 L15.73,5.451 L15.759,5.463 C15.928097,5.37202034 16.1160658,5.32168989 16.308,5.316 C16.5926072,5.32182492 16.8572558,5.46344164 17.02,5.697 C16.9794137,5.62145965 16.964996,5.53460188 16.979,5.45 C17.0092809,5.35515378 17.1007198,5.29350498 17.2,5.301 C17.2852477,5.30003005 17.3679819,5.32985699 17.433,5.385 C17.4742776,5.40043928 17.5179317,5.40856097 17.562,5.409 C17.6472265,5.40416257 17.7295165,5.37615629 17.8,5.328 L17.807,5.328 C17.8703932,5.283379 17.9446926,5.25676944 18.022,5.251 L18.05,5.251 C18.0501015,5.30521822 18.0541119,5.35935857 18.062,5.413 L18.129,5.413 C18.2163315,5.41337456 18.303535,5.41972271 18.39,5.432 C18.437,5.292 18.485,5.148 18.623,5.148 L18.655,5.148 C18.662,5.492 18.776,5.509 18.896,5.526 C19.0533833,5.47245448 19.2102732,5.44636264 19.368,5.449 C19.468,5.449 19.576,5.458 19.659,5.465 L19.682,5.465 C19.757,5.471 19.849,5.479 19.933,5.479 C20.0283458,5.48194285 20.1233777,5.46666986 20.213,5.434 C20.16,5.596 20.113,5.755 20.063,5.906 L20.072,5.906 L20.346,5.886 C20.367,5.886 20.388,5.886 20.412,5.886 C20.4917896,5.88417392 20.5713372,5.87648655 20.65,5.863 L21.208,5.825 C21.3428548,5.74969798 21.4622798,5.64961172 21.56,5.53 C21.6629886,5.6207394 21.7726286,5.70363792 21.888,5.778 L22.201,5.757 C22.2025984,5.79255335 22.1978578,5.82810748 22.187,5.862 L22.187,5.868 C22.301,5.867 22.373,5.787 22.406,5.63 C22.4713622,5.67138161 22.5338393,5.71715354 22.593,5.767 L22.629,5.754 C22.659,5.743 22.689,5.733 22.717,5.721 L23.142,5.69 C23.1524552,5.76254909 23.1581341,5.83570654 23.159,5.909 C23.219244,5.85487459 23.286518,5.80912829 23.359,5.773 L23.359,5.763 C23.361133,5.75956374 23.3628136,5.75586652 23.364,5.752 C23.4459648,5.71061431 23.5316852,5.67712977 23.62,5.652 L23.776,5.641 C23.8513438,5.45251198 24.0301982,5.32570926 24.233,5.317 C24.2573085,5.31544568 24.2816915,5.31544568 24.306,5.317 C24.4132222,5.39570121 24.5135813,5.48334821 24.606,5.579 L24.644,5.579 L24.652,5.579 C24.716,5.579 24.781,5.573 24.844,5.564 L25.404,5.525 C25.4173357,5.60529971 25.4236928,5.68660341 25.423,5.768 C25.4718573,5.69011257 25.5082935,5.60509491 25.531,5.516 L31.137,5.13 C31.237,5.137 31.35,5.138 31.456,5.139 L31.477,5.139 C31.6131824,5.13747842 31.749355,5.14281852 31.885,5.155 C31.944,5.162 31.946,5.255 31.948,5.347 C31.95,5.439 31.948,5.533 32.011,5.54 C32.2956218,5.22236328 32.6871578,5.02054429 33.111,4.973 C33.3937328,4.98011921 33.6551286,5.12500713 33.811,5.361 C33.7694441,5.27964894 33.7554078,5.18700987 33.771,5.097 C33.8008627,4.99322066 33.9005191,4.9255216 34.008,4.936 C34.1274407,4.92844289 34.2390326,4.99579655 34.288,5.105 C34.3000742,5.14374785 34.3000742,5.18525215 34.288,5.224 C34.4857265,5.09214139 34.7194225,5.02472237 34.957,5.031 C35.3746766,5.06102892 35.7851959,5.15547872 36.174,5.311 C36.5650427,5.47101019 36.9787107,5.56885986 37.4,5.601 C37.7860325,5.60981859 38.1514354,5.42711718 38.376,5.113 C38.531,5.247 38.788,5.47 38.976,5.47 C39.097,5.47 39.176,5.38 39.212,5.203 C39.3011096,5.26118744 39.3856847,5.32603953 39.465,5.397 C39.618,5.524 39.758,5.644 39.885,5.644 C40.012,5.644 40.099,5.532 40.171,5.302 C40.289,5.311 40.297,5.673 40.301,5.868 C40.34,5.778 40.376,5.688 40.41,5.602 C40.568,5.188 40.705,4.835 41.054,4.835 C41.0746522,4.83390781 41.0953478,4.83390781 41.116,4.835 C41.2767262,4.95616122 41.4236125,5.09466364 41.554,5.248 C41.7162533,5.17882556 41.8623467,5.07666236 41.983,4.948 C42.126313,5.05192934 42.3000511,5.10538722 42.477,5.1 C42.7104503,5.08758842 42.9413395,5.04524193 43.164,4.974 L43.175,4.974 C43.4060763,4.90030036 43.6457493,4.85693737 43.888,4.845 C43.9361423,4.844943 43.9842394,4.84794907 44.032,4.854 C44.046,4.833 44.06,4.823 44.075,4.823 C44.115,4.823 44.147,4.898 44.158,4.972 C44.1728825,5.04055671 44.160701,5.11221247 44.124,5.172 C44.2022854,5.14161356 44.2828757,5.1175368 44.365,5.1 C44.5887647,5.07437578 44.7938402,4.96287494 44.937,4.789 C45.054,4.802 45.057,4.984 45.06,5.16 C45.2849196,4.95287236 45.5836166,4.84477934 45.889,4.86 C45.989,4.86 46.089,4.867 46.189,4.874 L46.215,4.874 C46.301,4.88 46.399,4.886 46.495,4.886 C46.7103256,4.89768987 46.9228501,4.8328699 47.095,4.703 C47.211,4.721 47.215,4.903 47.218,5.071 C47.2670839,4.99346775 47.3038537,4.90879597 47.327,4.82 C47.3500663,4.73213417 47.3861311,4.64820771 47.434,4.571 C48.505,4.494 49.534,4.455 50.486,4.455 C51.443918,4.44760048 52.4013865,4.4990306 53.353,4.609 C53.41,4.617 53.411,4.709 53.413,4.795 C53.415,4.881 53.413,4.972 53.473,4.979 C53.7420571,4.68684768 54.1080993,4.50240505 54.503,4.46 C54.7781488,4.46779786 55.0317782,4.61069822 55.181,4.842 C55.1416328,4.76496828 55.1282996,4.67724999 55.143,4.592 C55.1705095,4.49601473 55.2626181,4.43334727 55.362,4.443 C55.478604,4.43542433 55.5874215,4.50183502 55.634,4.609 C55.6455724,4.64543655 55.6455724,4.68456345 55.634,4.721 C55.8141475,4.60422332 56.0253819,4.54461756 56.24,4.55 C56.6462861,4.58109588 57.0448163,4.67802652 57.42,4.837 L57.427,4.837 C57.8027427,4.99656108 58.2019729,5.09383545 58.609,5.125 C58.9642032,5.13389535 59.3009373,4.96702493 59.509,4.679 C59.656,4.81 59.902,5.029 60.087,5.029 C60.2,5.029 60.274,4.945 60.307,4.779 C60.3943916,4.83958543 60.4772755,4.90642732 60.555,4.979 L60.638,5.051 C60.751,5.028 60.861,5 60.994,4.966 L61.006,4.966 L61.016,4.966 L61.05,4.957 L61.07,4.952 L61.208,4.918 L61.208,4.913 C61.3290981,4.87665788 61.4524813,4.85492371 61.577,4.843 C61.668,4.66 61.794,4.474 62.034,4.474 C62.0569758,4.47250689 62.0800242,4.47250689 62.103,4.474 C62.2746453,4.60879074 62.4306214,4.76241883 62.568,4.932 C62.6443493,4.90412238 62.7134051,4.85933862 62.77,4.801 C62.887,4.814 62.89,4.996 62.893,5.172 C63.1209192,4.96386643 63.422772,4.85580457 63.731,4.872 C63.831,4.872 63.941,4.879 64.02,4.884 L64.048,4.884 C64.148,4.891 64.24,4.896 64.327,4.896 L64.352,4.896 C64.3472637,4.85505838 64.3357747,4.81518479 64.318,4.778 C64.318,4.778 64.318,4.772 64.318,4.771 L64.326,4.771 C64.3875085,4.81095975 64.4520371,4.846066 64.519,4.876 C64.6676562,4.86106161 64.8089082,4.80379727 64.926,4.711 C65.043,4.729 65.046,4.911 65.049,5.079 C65.0982576,5.00155989 65.1350396,4.91686003 65.158,4.828 C65.1812067,4.7401825 65.2172628,4.65627625 65.265,4.579 C66.336,4.502 67.365,4.463 68.317,4.463 C69.2752511,4.45557463 70.2330539,4.50700476 71.185,4.617 C71.242,4.625 71.243,4.717 71.245,4.803 C71.247,4.889 71.245,4.979 71.305,4.986 C71.5741687,4.69399546 71.9401517,4.50958263 72.335,4.467 C72.6097911,4.4751235 72.8629767,4.6179845 73.012,4.849 C72.9726328,4.77196828 72.9592996,4.68424999 72.974,4.599 C73.0015095,4.50301473 73.0936181,4.44034727 73.193,4.45 C73.3095298,4.44272483 73.4181882,4.50903843 73.465,4.616 C73.4764426,4.65245655 73.4764426,4.69154345 73.465,4.728 C73.6451994,4.61133804 73.8563976,4.5517425 74.071,4.557 C74.4779684,4.58853318 74.8771399,4.68579324 75.253,4.845 C75.471,4.923 75.697,5.004 75.92,5.06 L76.18,5.04 L76.243,5.04 C76.3184455,5.03831805 76.3936576,5.03096398 76.468,5.018 L77,4.989 C77.128956,4.91304812 77.2423008,4.81327762 77.334,4.695 C77.4301634,4.78308963 77.5324168,4.86429089 77.64,4.938 L77.94,4.917 C77.9415029,4.95320556 77.9367672,4.98939987 77.926,5.024 L77.926,5.037 C78.034,5.03 78.102,4.95 78.134,4.793 C78.1960898,4.83452874 78.2552311,4.88030477 78.311,4.93 L78.319,4.93 L78.338,4.925 L78.346,4.925 L78.356,4.925 C78.378,4.917 78.405,4.906 78.43,4.895 L78.83,4.864 C78.8398226,4.93660247 78.8451661,5.00974082 78.846,5.083 C78.9017264,5.02965682 78.9642698,4.98392618 79.032,4.947 L79.032,4.937 L79.032,4.927 C79.1095582,4.88584982 79.190943,4.85235811 79.275,4.827 L79.423,4.816 C79.544,4.592 79.677,4.492 79.857,4.492 C79.8799772,4.49055322 79.9030228,4.49055322 79.926,4.492 C80.0291567,4.57112526 80.1251898,4.65912774 80.213,4.755 L80.248,4.755 L80.261,4.755 C80.3202124,4.75358861 80.379302,4.74891485 80.438,4.741 L81,4.701 C81.0125537,4.78138085 81.0185734,4.86264678 81.018,4.944 C81.0635163,4.86536105 81.0972106,4.7804512 81.118,4.692 L86.438,4.306 C86.538,4.313 86.65,4.314 86.748,4.314 L86.764,4.314 C86.8921913,4.31264472 87.0203658,4.31798532 87.148,4.33 C87.204,4.337 87.206,4.43 87.208,4.522 C87.21,4.614 87.208,4.708 87.268,4.715 C87.5315764,4.40053295 87.9047231,4.19787565 88.312,4.148 C88.5840711,4.15800641 88.8330212,4.30369671 88.975,4.536 C88.9347662,4.45277988 88.9221538,4.35888759 88.939,4.268 C88.9661095,4.16854802 89.0602659,4.10255447 89.163,4.111 C89.2774129,4.10525263 89.3832446,4.17154718 89.428,4.277 C89.4405259,4.3170433 89.4405259,4.3599567 89.428,4.4 C89.6117323,4.26732348 89.8333978,4.1975269 90.06,4.201 C90.4558126,4.23107057 90.8441583,4.32494892 91.21,4.479 C91.5817326,4.63369157 91.9711158,4.72791351 92.368,4.758 C92.7395348,4.76447868 93.0884025,4.57985067 93.292,4.269 C93.438,4.403 93.682,4.627 93.866,4.627 C93.981,4.627 94.057,4.537 94.09,4.36 C94.1768357,4.42007138 94.2587603,4.48694856 94.335,4.56 C94.475,4.686 94.608,4.806 94.728,4.806 C94.848,4.806 94.928,4.694 95,4.464 C95.113,4.473 95.119,4.835 95.123,5.03 C95.164,4.93 95.201,4.83 95.231,4.751 C95.381,4.351 95.511,3.998 95.842,3.998 C95.8616526,3.99694822 95.8813474,3.99694822 95.901,3.998 C96.0897379,4.1520011 96.2601856,4.32714613 96.409,4.52 C96.661,4.82 96.9,5.109 97.268,5.109 C97.3118766,5.11317884 97.3560169,5.11384764 97.4,5.111 C97.3711379,5.08606471 97.3555984,5.04906605 97.358,5.011 C97.3720435,4.92770861 97.4217034,4.85467928 97.494,4.811 L97.494,4.882 L97.956,4.874 C97.9652788,4.90925066 97.9699841,4.94554859 97.97,4.982 C97.9890134,4.9443534 98.0103894,4.90794736 98.034,4.873 L98.368,4.873 C99.2364678,4.86648623 100.104585,4.91022598 100.968,5.004 C101.02,5.011 101.021,5.088 101.022,5.163 C101.023,5.238 101.022,5.313 101.076,5.319 C101.326411,5.06746584 101.656717,4.9111541 102.01,4.877 C102.25522,4.88151983 102.483618,5.00258948 102.625,5.203 C102.59053,5.13912482 102.578221,5.06562026 102.59,4.994 C102.616057,4.9075954 102.700381,4.85236352 102.79,4.863 C102.894618,4.85573969 102.993014,4.91326944 103.038,5.008 C103.047716,5.03823863 103.047716,5.07076137 103.038,5.101 C103.203618,5.00078192 103.394483,4.95011594 103.588,4.955 C103.95586,4.98137133 104.317447,5.06434762 104.66,5.201 C105.002806,5.3379523 105.364771,5.42093756 105.733,5.447 C106.048986,5.4556344 106.35045,5.31435809 106.546,5.066 C106.688865,5.2134348 106.870528,5.31744037 107.07,5.366 C107.17,5.366 107.24,5.294 107.27,5.153 C107.348231,5.20289513 107.422758,5.25837265 107.493,5.319 L107.57,5.381 C107.684,5.359 107.8,5.331 107.893,5.308 L107.9,5.308 L107.908,5.308 L108.092,5.264 L108.092,5.255 C108.2022,5.22864163 108.314157,5.21026067 108.427,5.2 C108.490708,5.02205303 108.653476,4.89850648 108.842,4.885 C108.862978,4.88365411 108.884022,4.88365411 108.905,4.885 C109.059798,4.99882276 109.201348,5.12963959 109.327,5.275 C109.386476,5.24276378 109.438583,5.19848974 109.48,5.145 C109.586,5.156 109.589,5.311 109.591,5.461 C109.802752,5.2817659 110.074972,5.19019093 110.352,5.205 C110.452,5.205 110.552,5.211 110.62,5.216 L110.628,5.216 C110.722,5.222 110.807,5.227 110.894,5.227 L110.915,5.227 C110.910608,5.19210732 110.900115,5.15825865 110.884,5.127 C110.883323,5.12437636 110.883323,5.12162364 110.884,5.119 C110.889047,5.12093702 110.893769,5.1236349 110.898,5.127 C110.954471,5.16201929 111.013661,5.1924503 111.075,5.218 C111.208574,5.20560279 111.336196,5.15683665 111.444,5.077 C111.549,5.092 111.553,5.244 111.555,5.391 C111.599541,5.32582244 111.633306,5.25390351 111.655,5.178 C111.67725,5.10292969 111.710983,5.03175432 111.755,4.967 C112.725,4.901 113.655,4.867 114.523,4.867 C115.391487,4.86082947 116.259604,4.90490309 117.123,4.999 C117.174,5.006 117.176,5.083 117.177,5.158 C117.178,5.233 117.177,5.309 117.231,5.315 C117.481411,5.06346584 117.811717,4.9071541 118.165,4.873 C118.41022,4.87751983 118.638618,4.99858948 118.78,5.199 C118.745602,5.13510008 118.733297,5.06162013 118.745,4.99 C118.771057,4.9035954 118.855381,4.84836352 118.945,4.859 C119.049618,4.85173969 119.148014,4.90926944 119.193,5.004 C119.202784,5.034228 119.202784,5.066772 119.193,5.097 C119.358618,4.99678192 119.549483,4.94611594 119.743,4.951 C120.109785,4.97738782 120.470332,5.06002009 120.812,5.196 C120.99,5.256 121.212,5.33 121.412,5.379 L121.648,5.363 L121.704,5.363 C121.772707,5.36170648 121.841226,5.35535598 121.909,5.344 L122.389,5.311 C122.503567,5.24688864 122.60528,5.16212798 122.689,5.061 C122.777325,5.13744011 122.870886,5.2076112 122.969,5.271 L123.239,5.252 C123.240289,5.28247069 123.236228,5.31293151 123.227,5.342 L123.227,5.352 C123.327,5.347 123.387,5.279 123.416,5.144 C123.472424,5.17905683 123.526232,5.21815938 123.577,5.261 L123.605,5.251 L123.687,5.223 L124.052,5.197 C124.061175,5.25892784 124.066187,5.3214014 124.067,5.384 C124.117949,5.33848588 124.174386,5.29951727 124.235,5.268 L124.24,5.258 L124.24,5.249 C124.310423,5.21312095 124.384085,5.18399094 124.46,5.162 L124.594,5.153 C124.659445,4.99181583 124.813171,4.8838552 124.987,4.877 C125.007979,4.87565957 125.029021,4.87565957 125.05,4.877 C125.143228,4.94408771 125.230546,5.01902758 125.311,5.101 L125.343,5.101 L125.362,5.101 C125.421,5.101 125.469,5.096 125.515,5.089 L125.997,5.056 C126.008316,5.12474283 126.01367,5.19433517 126.013,5.264 C126.054336,5.19845848 126.085364,5.12695881 126.105,5.052 L130.932,4.723 C131.024,4.729 131.121,4.73 131.214,4.73 L131.232,4.73 C131.346496,4.7288881 131.460975,4.73356072 131.575,4.744 C131.626,4.75 131.628,4.83 131.63,4.908 C131.632,4.986 131.63,5.066 131.684,5.072 C131.929959,4.80042015 132.266815,4.62825721 132.631,4.588 C132.872795,4.59468245 133.096387,4.71803076 133.231,4.919 C133.195575,4.85002831 133.183637,4.77137692 133.197,4.695 C133.224879,4.6091323 133.306828,4.5525876 133.397,4.557 C133.499695,4.55041095 133.595715,4.60818248 133.638,4.702 C133.648214,4.73455084 133.648214,4.76944916 133.638,4.802 C133.808623,4.68942074 134.009649,4.63183522 134.214,4.637 C134.571398,4.66232339 134.922808,4.74225052 135.256,4.874 C135.596427,5.00641412 135.949205,5.08668307 136.308,5.112 C136.63916,5.12038046 136.952978,4.96422032 137.146,4.695 C137.278,4.808 137.5,4.995 137.665,4.995 C137.765,4.995 137.838,4.918 137.865,4.767 C137.942846,4.81764705 138.016726,4.87414343 138.086,4.936 C138.180521,5.04111029 138.305206,5.11445417 138.443,5.146 C138.543,5.146 138.627,5.046 138.69,4.855 C138.79,4.862 138.799,5.183 138.802,5.337 C138.835,5.262 138.864,5.189 138.896,5.108 L138.896,5.1 L138.896,5.12 C139.032,4.776 139.15,4.479 139.45,4.479 C139.467986,4.47798031 139.486014,4.47798031 139.504,4.479 C139.674589,4.6094359 139.829906,4.75871465 139.967,4.924 C140.049803,5.02051764 140.137941,5.11232773 140.231,5.199 C140.238142,5.18523904 140.251611,5.17588557 140.267,5.174 C140.294,5.174 140.32,5.216 140.333,5.281 C140.406241,5.33394685 140.488619,5.37293218 140.576,5.396 C140.662313,5.37623857 140.745682,5.3453114 140.824,5.304 C140.890242,5.1706138 141.025103,5.08507335 141.174,5.082 C141.243,5.082 141.361,5.11 141.374,5.295 L141.381,5.295 L141.386,5.295 C141.47054,5.1253601 141.629021,5.00455987 141.815,4.968 C141.824,5.046 141.838,5.13 141.857,5.217 C141.93,5.217 142.005,5.223 142.066,5.228 L142.086,5.228 C142.156,5.228 142.244,5.239 142.33,5.239 C142.51682,5.25036726 142.701565,5.19469553 142.851,5.082 C142.951,5.097 142.951,5.249 142.951,5.396 C142.992851,5.33024849 143.024225,5.25839046 143.044,5.183 C143.063888,5.10860747 143.094545,5.03752234 143.135,4.972 C144.046,4.906 144.922,4.872 145.735,4.872 C146.573548,4.86213125 147.411882,4.90521696 148.245,5.001 C148.293,5.008 148.295,5.085 148.296,5.16 C148.297,5.235 148.296,5.31 148.347,5.316 C148.576875,5.067173 148.889174,4.91013506 149.226,4.874 C149.460624,4.88075069 149.676847,5.00270332 149.804,5.2 C149.770523,5.13398771 149.759298,5.05891754 149.772,4.986 C149.795664,4.90419282 149.874231,4.85083466 149.959,4.859 C150.058259,4.85266269 150.150914,4.90897498 150.191,5 C150.201827,5.0324542 150.201827,5.0675458 150.191,5.1 C150.344714,5.00041455 150.524901,4.94953004 150.708,4.954 C151.055779,4.98068601 151.396901,5.06377116 151.718,5.2 C152.039052,5.33653856 152.38017,5.41996059 152.728,5.447 C153.029939,5.45387093 153.315819,5.31130495 153.492,5.066 C153.618,5.178 153.828,5.366 153.985,5.366 C154.085,5.366 154.145,5.294 154.173,5.153 C154.248034,5.20405278 154.319225,5.26053748 154.386,5.322 L154.457,5.383 C154.566,5.36 154.679,5.331 154.776,5.306 L154.789,5.306 L154.807,5.306 L154.949,5.27 L154.949,5.265 C155.052456,5.23871782 155.157759,5.2203316 155.264,5.21 C155.342,5.054 155.449,4.895 155.654,4.895 C155.673644,4.89365233 155.693356,4.89365233 155.713,4.895 C155.860485,5.00964735 155.994656,5.14046392 156.113,5.285 C156.169553,5.25220025 156.218607,5.2079156 156.257,5.155 C156.357,5.166 156.357,5.314 156.357,5.471 C156.551415,5.29332882 156.808996,5.2011042 157.072,5.215 C157.163,5.215 157.256,5.221 157.324,5.226 L157.332,5.226 C157.42,5.232 157.5,5.237 157.582,5.237 L157.602,5.237 C157.598003,5.20227761 157.5882,5.16847367 157.573,5.137 C157.572238,5.1340484 157.572238,5.1309516 157.573,5.128 L157.584,5.134 C157.636734,5.16885165 157.692256,5.19928844 157.75,5.225 C157.876746,5.21205287 157.997146,5.16312944 158.097,5.084 C158.197,5.099 158.197,5.251 158.197,5.398 C158.23896,5.33194756 158.270339,5.25974292 158.29,5.184 C158.309648,5.10889564 158.340314,5.03711644 158.381,4.971 C159.293,4.905 160.168,4.871 160.981,4.871 C161.803563,4.86348311 162.625803,4.90689949 163.443,5.001 C163.491,5.008 163.493,5.085 163.494,5.16 C163.495,5.235 163.494,5.31 163.545,5.316 C163.774875,5.067173 164.087174,4.91013506 164.424,4.874 C164.658098,4.88162336 164.873473,5.00389349 165,5.201 C164.96667,5.13529977 164.955447,5.0605934 164.968,4.988 C164.991664,4.90619282 165.070231,4.85283466 165.155,4.861 C165.254259,4.85466269 165.346914,4.91097498 165.387,5.002 C165.397755,5.03446581 165.397755,5.06953419 165.387,5.102 C165.540971,5.00216274 165.721555,4.95126477 165.905,4.956 C166.251699,4.98272359 166.591775,5.06546302 166.912,5.201 C167.089,5.264 167.29,5.336 167.48,5.384 L167.702,5.368 L167.755,5.368 C167.819733,5.36676029 167.884268,5.36040719 167.948,5.349 L168.4,5.316 C168.510161,5.25130615 168.606905,5.1661033 168.685,5.065 C168.768118,5.14164566 168.856683,5.21216388 168.95,5.276 L169.204,5.257 C169.205472,5.28740702 169.201752,5.31784249 169.193,5.347 L169.193,5.358 C169.285,5.353 169.343,5.285 169.37,5.15 C169.423035,5.18538283 169.473495,5.22448083 169.521,5.267 L169.536,5.261 L169.55,5.261 L169.56,5.261 L169.566,5.261 L169.624,5.237 L169.968,5.211 C169.976658,5.2729701 169.981334,5.33543153 169.982,5.398 C170.029395,5.35262326 170.08251,5.31362717 170.14,5.282 C170.140363,5.27267657 170.140363,5.26932343 170.14,5.266 C170.205986,5.23029392 170.275318,5.20115409 170.347,5.179 L170.473,5.17 C170.573,4.979 170.69,4.894 170.843,4.894 C170.862644,4.89266475 170.882356,4.89266475 170.902,4.894 C170.989939,4.961503 171.071908,5.03644596 171.147,5.118 L171.177,5.118 L171.194,5.118 C171.24217,5.11640066 171.29023,5.11239567 171.338,5.106 L171.791,5.073 C171.801412,5.1418366 171.806427,5.21138174 171.806,5.281 C171.844969,5.21460742 171.873946,5.14283726 171.892,5.068 L176.431,4.739 C176.518,4.745 176.609,4.746 176.696,4.746 L176.713,4.746 C176.82084,4.74488652 176.928661,4.7495599 177.036,4.76 C177.084,4.766 177.086,4.847 177.087,4.925 C177.088,5.003 177.087,5.083 177.138,5.088 C177.362886,4.81952556 177.681374,4.64651972 178.029,4.604 C178.260923,4.61260791 178.473088,4.73690274 178.594,4.935 C178.559415,4.86395466 178.548548,4.78368357 178.563,4.706 C178.586296,4.62143128 178.666601,4.56551215 178.754,4.573 C178.851421,4.56805823 178.941609,4.62432574 178.98,4.714 C178.989727,4.74662379 178.989727,4.78137621 178.98,4.814 C179.138193,4.70208562 179.328281,4.64421724 179.522,4.649 C179.860717,4.67456997 180.193038,4.75494843 180.506,4.887 C180.818973,5.01901789 181.151289,5.099395 181.49,5.125 C181.685528,5.12948893 183.042197,5.02216277 183.201,4.908 L183.201,0.761 L183.132,0.683 C183.103,0.624 183.073,0.563 183.051,0.507 C182.92,0.495 182.803,0.482 182.693,0.468 C182.643,0.461 182.642,0.384 182.64,0.31 C182.638,0.236 182.64,0.159 182.587,0.154 C182.3468,0.404438394 182.025253,0.561135038 181.68,0.596 C181.439095,0.591510314 181.215369,0.47032559 181.08,0.271 C181.113291,0.335271547 181.125202,0.408490266 181.114,0.48 C181.090072,0.56523448 181.008002,0.62065338 180.92,0.611 C180.817233,0.6178845 180.721057,0.560019258 180.679,0.466 C180.669689,0.436040055 180.669689,0.403959945 180.679,0.374 C180.519437,0.47374914 180.334122,0.524510709 180.146,0.52 C179.790312,0.493619661 179.441016,0.411273486 179.111,0.276 C178.779825,0.139663425 178.429148,0.0566350276 178.072,0.03 C177.770564,0.0250226359 177.48444,0.162524929 177.3,0.401 C177.17,0.289 176.953,0.101 176.791,0.101 C176.691,0.101 176.626,0.173 176.597,0.314 C176.521758,0.264631365 176.450234,0.209818065 176.383,0.15 L176.36,0.133 L176.307,0.089 C176.2,0.11 176.087,0.138 175.997,0.161 L175.983,0.161 L175.96,0.167 L175.952,0.167 L175.885,0.183 L175.855,0.19 L175.844,0.19 L175.804,0.2 C175.697216,0.226539025 175.58857,0.244925289 175.479,0.255 C175.420101,0.43015211 175.263079,0.553807 175.079,0.57 C175.058682,0.571132569 175.038318,0.571132569 175.018,0.57 C174.867202,0.455338572 174.729682,0.324192191 174.608,0.179 C174.549832,0.211498457 174.499084,0.255775095 174.459,0.309 C174.407,0.304 174.376,0.262 174.359,0.177 C173.906,0.259 173.436,0.333 172.982,0.404 L172.932,0.412 L172.906,0.412 L172.887,0.412 L172.877,0.412 C172.219,0.512 171.54,0.62 171.011,0.74 C171.011,0.892 171.017,1.046 171.02,1.197 C170.913,1.156 170.784,1.097 170.66,1.044 L170.647,1.038 C170.305863,0.865287185 169.938036,0.751355534 169.559,0.701 C169.415,0.701 169.328,0.752 169.293,0.856 C169.26887,0.954924522 169.271632,1.0585021 169.301,1.156 C169.243728,1.11652919 169.176491,1.09400113 169.107,1.091 C169.035001,1.09467724 168.965577,1.11897559 168.907,1.161 L168.901,1.161 C168.848918,1.20005425 168.786876,1.22362357 168.722,1.229 L168.7,1.229 C168.7,1.081 168.694,0.929 168.492,0.9 C168.460008,0.954126517 168.435453,1.01231658 168.419,1.073 C168.38,1.192 168.341,1.316 168.226,1.316 L168.199,1.316 C168.194,1.023 168.099,1.009 167.999,0.994 L167.991,0.994 C167.873625,1.03745141 167.749135,1.05848229 167.624,1.056 C167.55,1.056 167.48,1.051 167.434,1.046 L167.457,0.966 L167.457,0.96 L167.457,0.947 L167.457,0.94 L167.457,0.926 L167.457,0.917 L167.457,0.908 C167.469,0.866 167.481,0.823 167.493,0.779 L167.467,0.725 L167.478,0.701 L167.478,0.695 L167.478,0.685 C167.449,0.619 167.422,0.563 167.4,0.51 C167.278,0.498 167.158,0.485 167.042,0.471 C166.992,0.464 166.991,0.387 166.989,0.313 C166.987,0.239 166.989,0.162 166.936,0.156 C166.6958,0.406438394 166.374253,0.563135038 166.029,0.598 C165.788095,0.593510314 165.564369,0.47232559 165.429,0.273 C165.462358,0.337249264 165.474273,0.410490075 165.463,0.482 C165.439072,0.56723448 165.357002,0.62265338 165.269,0.613 C165.166233,0.6198845 165.070057,0.562019258 165.028,0.468 C165.018689,0.438040055 165.018689,0.405959945 165.028,0.376 C164.868079,0.475775303 164.682439,0.52653089 164.494,0.522 C164.135855,0.495544625 163.784162,0.412515447 163.452,0.276 L163.441,0.276 C163.252,0.211 163.058,0.144 162.868,0.098 L162.632,0.101 L162.578,0.101 C162.510951,0.102312317 162.444096,0.108663549 162.378,0.12 L161.912,0.153 C161.798854,0.217100543 161.699051,0.302306182 161.618,0.404 C161.532938,0.328786765 161.442718,0.259617838 161.348,0.197 L161.086,0.216 C161.084964,0.184079031 161.089707,0.15223369 161.1,0.122 L161.1,0.111 C161,0.116 160.945,0.184 160.917,0.319 C160.861424,0.283262521 160.808305,0.24384087 160.758,0.201 L160.748,0.201 L160.74,0.201 L160.734,0.201 C160.706,0.211 160.682,0.219 160.659,0.23 L160.3,0.269 C160.291328,0.207031368 160.286652,0.144569053 160.286,0.082 C160.236107,0.128753304 160.180298,0.168761134 160.12,0.201 C160.120274,0.203659617 160.120274,0.206340383 160.12,0.209 C160.119685,0.212325884 160.119685,0.215674116 160.12,0.219 C160.0463,0.254031609 159.969239,0.281505261 159.89,0.301 L159.76,0.31 C159.698909,0.469799283 159.5489,0.578182381 159.378,0.586 C159.357685,0.587217102 159.337315,0.587217102 159.317,0.586 C159.22626,0.518897916 159.141601,0.443942238 159.064,0.362 L159.033,0.362 C158.966,0.362 158.915,0.367 158.866,0.374 L158.4,0.401 C158.390393,0.34550718 158.385376,0.289316989 158.385,0.233 L158.371,0.233 L158.357,0.233 C158.330553,0.286803391 158.309452,0.343073263 158.294,0.401 L156.51,0.535 C155.986,0.62 155.616,0.688 155.31,0.757 L155.31,0.957 L155.31,1.065 L155.31,1.087 L155.31,1.209 C155.21,1.17 155.082,1.115 154.961,1.061 L154.954,1.061 L154.942,1.056 C154.637134,0.904701037 154.315616,0.789585368 153.984,0.713 L153.72,0.731 C153.665703,0.754661132 153.624687,0.801171138 153.608,0.858 C153.583918,0.956929705 153.58668,1.06049433 153.616,1.158 C153.558704,1.11857792 153.491481,1.09605467 153.422,1.093 C153.350012,1.0967329 153.280603,1.12102593 153.222,1.163 C153.16484,1.20191174 153.102839,1.22546499 153.038,1.231 L153.016,1.231 C153.016,1.083 153.01,0.931 152.808,0.902 C152.776083,0.956164471 152.751533,1.01434413 152.735,1.075 C152.696,1.195 152.656,1.318 152.542,1.318 L152.515,1.318 C152.51,1.025 152.415,1.011 152.315,0.996 L152.307,0.996 C152.184537,1.04148374 152.054612,1.06353353 151.924,1.061 C151.838,1.061 151.752,1.053 151.689,1.048 L151.653,1.048 C151.591,1.043 151.521,1.037 151.453,1.037 C151.373939,1.03458011 151.295157,1.04748404 151.221,1.075 L151.229,1.049 L151.276,0.899 C151.251993,0.906214877 151.227068,0.90991989 151.202,0.91 C151.101124,0.916254955 151.0073,0.858115786 150.968,0.765 C150.958215,0.732384747 150.958215,0.697615253 150.968,0.665 C150.803646,0.777398797 150.608046,0.835134133 150.409,0.83 C150.061323,0.80457187 149.719814,0.724593763 149.397,0.593 C149.076846,0.461383726 148.735003,0.381406742 148.387,0.356 C148.062717,0.348881618 147.756681,0.505659249 147.573,0.773 C147.444,0.659 147.229,0.473 147.073,0.473 C146.973,0.473 146.905,0.55 146.873,0.701 C146.797356,0.650351526 146.725803,0.593844718 146.659,0.532 C146.528,0.401 146.41,0.301 146.3,0.301 C146.19,0.301 146.122,0.401 146.061,0.593 C145.961,0.586 145.956,0.265 145.953,0.111 C145.919,0.19 145.887,0.274 145.863,0.336 C145.731,0.689 145.617,0.986 145.325,0.986 C145.307685,0.987127859 145.290315,0.987127859 145.273,0.986 C145.107049,0.855053135 144.956427,0.705772702 144.824,0.541 C144.743151,0.443999969 144.65702,0.351526584 144.566,0.264 C144.555,0.281 144.543,0.289 144.532,0.289 C144.521,0.289 144.481,0.247 144.467,0.183 C144.39629,0.130126121 144.316215,0.0911066985 144.231,0.068 C144.146886,0.087661172 144.065818,0.118608333 143.99,0.16 C143.927166,0.291817136 143.795957,0.377488502 143.65,0.382 C143.583,0.382 143.469,0.354 143.46,0.169 L143.454,0.169 C143.36748,0.336560426 143.213837,0.457332418 143.032,0.496 C143.023,0.418 143.01,0.334 142.991,0.247 C142.922,0.247 142.849,0.241 142.791,0.237 L142.767,0.237 C142.686,0.231 142.611,0.226 142.532,0.226 C142.34969,0.215037816 142.16968,0.271246394 142.026,0.384 C141.926,0.369 141.926,0.217 141.926,0.071 C141.8852,0.136220071 141.854835,0.207410876 141.836,0.282 C141.815067,0.359367101 141.782711,0.433179187 141.74,0.501 C140.853,0.567 140.004,0.601 139.215,0.601 C138.421296,0.606596526 137.628037,0.561839994 136.84,0.467 C136.793,0.46 136.792,0.383 136.79,0.31 C136.788,0.237 136.79,0.158 136.74,0.153 C136.520071,0.400699168 136.216191,0.558160987 135.887,0.595 C135.657375,0.587444265 135.446779,0.46544078 135.326,0.27 C135.358451,0.335981061 135.369297,0.41050635 135.357,0.483 C135.335411,0.564044923 135.258517,0.617702308 135.175,0.61 C135.077703,0.615409984 134.987557,0.558918562 134.95,0.469 C134.939522,0.436490003 134.939522,0.401509997 134.95,0.369 C134.802293,0.467883759 134.627709,0.518862357 134.45,0.515 C134.112523,0.488357088 133.78192,0.40519947 133.472,0.269 C133.156566,0.133592988 132.8267,0.0507884165 132.49,0.024 C132.194716,0.0186118211 131.916418,0.161704042 131.749,0.405 C131.627,0.294 131.424,0.105 131.271,0.105 C131.177,0.105 131.116,0.177 131.089,0.318 C131.018379,0.267611607 130.951535,0.21213057 130.889,0.152 L130.82,0.09 C130.72,0.11 130.62,0.137 130.539,0.159 L130.517,0.165 L130.511,0.165 L130.504,0.165 L130.343,0.207 C130.242618,0.23341113 130.140296,0.251802366 130.037,0.262 C129.962,0.418 129.858,0.577 129.658,0.577 C129.639017,0.578122096 129.619983,0.578122096 129.601,0.577 C129.452957,0.462649675 129.318423,0.331806058 129.2,0.187 C129.144891,0.220245736 129.097231,0.264501056 129.06,0.317 C128.96,0.306 128.96,0.158 128.96,0.001 C128.774501,0.177796887 128.523634,0.270335745 128.267,0.257 Z" id="Subtraction_333" transform="translate(91.600500, 3.004500) rotate(180.000000) translate(-91.600500, -3.004500) "></path>
        </g>
    </g>
</svg>