<?xml version="1.0" encoding="UTF-8"?>
<svg width="522px" height="22px" viewBox="0 0 522 22" version="1.1" xmlns="http://www.w3.org/2000/svg" xmlns:xlink="http://www.w3.org/1999/xlink">
    <title>Union_4-2</title>
    <g id="Page-1" stroke="none" stroke-width="1" fill="none" fill-rule="evenodd">
        <g id="line-3" fill="#255684" fill-rule="nonzero">
            <path d="M449.218,9.115 C438.321509,5.7075259 427.099558,3.44497085 415.734,2.364 C400.303,1.064 387.117,2.881 376.541,7.776 C377.863,6.692 378.53,5.71 378.53,4.857 C378.490323,4.17545648 378.104219,3.56176527 377.507,3.231 C375.793,2.056 371.955,1.42 367.238,1.531 C361.763,1.657 355.946,2.852 355.946,4.821 C355.971494,5.19815224 356.139101,5.55159394 356.415,5.81 C346.165,3.41 333.796,2.576 318.6,3.265 C305.053,3.877 290.566,5.614 276.554,7.296 L275.508,7.422 C270.754,7.992 265.838,8.579 261.018,9.114 L198.206,9.114 C193.236352,8.06692288 188.390916,6.49892683 183.75,4.436 L183.688,4.457 C177.713689,6.3949148 171.622028,7.95039598 165.45,9.114 L152.521,9.114 C150.676297,8.65444168 149.082209,7.49634364 148.075,5.884 C144.389,6.674 140.675,7.796 137.075,8.884 L136.303,9.118 L108.982,9.118 C108.399288,8.63618108 107.851263,8.11388674 107.342,7.555 C105.984853,7.53808635 104.68646,8.10781934 103.78,9.118 L93.911,9.118 C88.842,4.877 82.811,0.742 69.82,0.742 C68.901,0.742 67.957,0.759 67.02,0.801 C59.2446634,2.87212529 51.6218216,5.47833928 44.206,8.601 L42.92,9.115 L1.09,9.115 C0.727,9.059 0.366,9.015 0.007,8.961 L0,22 C0.119333333,21.9953333 174.023667,21.9953333 521.713,22 L521.713,4.741 L489.749,4.056 C485.18,4.178 480.265,4.203 475.51,4.224 C469.599,4.252 463.488,4.28 458.066,4.504 C455.542,4.616 455.479,6.011 455.413,7.36 C455.428979,7.96065616 455.320718,8.55813853 455.095,9.115 L449.218,9.115 Z" id="Union_4-2" style="mix-blend-mode: multiply;"></path>
        </g>
    </g>
</svg>