<?xml version="1.0" encoding="UTF-8"?>
<svg width="18px" height="325px" viewBox="0 0 18 325" version="1.1" xmlns="http://www.w3.org/2000/svg" xmlns:xlink="http://www.w3.org/1999/xlink">
    <title>Union_55-2</title>
    <g id="Page-1" stroke="none" stroke-width="1" fill="none" fill-rule="evenodd">
        <path d="M-5.03883248e-06,325.001 L15.1072612,325.001 L15.5987406,305.08874 C15.5110121,302.236705 15.4990491,299.173742 15.4781138,296.210744 C15.4581755,292.53199 15.4382372,288.729277 15.2787307,285.35242 C15.1979805,283.781951 14.1950833,283.739965 13.2240873,283.700978 C12.7950165,283.713021 12.367344,283.646628 11.961992,283.505045 L11.961992,279.845283 C14.3991245,273.109567 16.0285663,266.107058 16.8159748,258.985344 C17.7540725,249.374597 16.4441252,241.161376 12.9280034,234.572607 C13.4382866,235.246796 14.1929801,235.692168 15.0285048,235.812187 C15.4172262,235.806016 15.7857647,235.637543 16.0453589,235.347344 C16.7760981,234.595599 17.5197973,232.474317 17.4201057,228.777568 C17.3293864,225.367722 16.4690481,221.742949 15.0524308,221.742949 C14.7886625,221.756226 14.537266,221.859178 14.3396361,222.03485 C15.3093356,218.341353 15.9137281,214.561029 16.1440536,210.74867 C16.4024707,206.66178 16.4121255,202.562893 16.1729641,198.474824 C15.7313304,190.026684 14.4782073,181.007736 13.2709424,172.283689 L13.2230904,171.944804 C12.7994012,168.88184 12.3617552,165.713913 11.9659797,162.615961 L11.9659797,123.47021 C12.7273663,120.346471 13.8564917,117.324603 15.3295734,114.468257 L15.3295734,114.45926 C13.933463,110.748305 12.8079752,106.940575 11.961992,103.066116 L11.961992,95.0088435 C12.3353778,93.8116689 13.1706571,92.8139156 14.2818149,92.2377814 C13.7155668,89.9565535 12.9140465,87.6533331 12.1404399,85.4260869 L11.961992,84.9152598 L11.961992,67.8890225 C12.3119712,67.5243182 12.6863513,67.1839765 13.0825253,66.8703673 C13.0793974,65.9949796 12.6639519,65.1725483 11.961992,64.6521181 L11.961992,58.5021996 C13.7186051,56.7878264 15.1685879,54.7837056 16.2487297,52.577205 C17.4852461,49.7142045 18.0801078,46.6139733 17.9913384,43.4952789 C17.9913384,42.9384673 17.9773816,42.3506663 17.948471,41.74887 C16.4454424,36.8796561 14.5703386,32.1338662 12.3398231,27.5536745 L11.961992,26.7379506 L11.961992,0.672772631 C11.9988779,0.456845714 12.0357638,0.23092218 12.0726497,0.001 L-5.03883248e-06,0.001 L-5.03883248e-06,325.001 Z" id="Union_55-2" fill="#FFFFFF" fill-rule="nonzero" style="mix-blend-mode: multiply;"></path>
    </g>
</svg>