<?xml version="1.0" encoding="UTF-8"?>
<svg width="521px" height="21px" viewBox="0 0 521 21" version="1.1" xmlns="http://www.w3.org/2000/svg" xmlns:xlink="http://www.w3.org/1999/xlink">
    <title>Union_4-2</title>
    <g id="Page-1" stroke="none" stroke-width="1" fill="none" fill-rule="evenodd">
        <path d="M448.604075,8.27138019 C437.722476,4.90526126 426.515862,2.67016595 415.165836,1.60231442 C399.755925,0.318092012 386.587946,2.1130398 376.0264,6.9486311 C377.346593,5.87778719 378.012681,4.90770533 378.012681,4.06505786 C377.973059,3.39178597 377.587482,2.78554289 376.991079,2.45879198 C375.279422,1.2980525 371.446667,0.66977138 366.736114,0.779424217 C361.268596,0.903895004 355.459546,2.08439176 355.459546,4.02949478 C355.485005,4.40206967 355.652383,4.75122179 355.927905,5.00649167 C345.691913,2.63561953 333.339817,1.81174146 318.164585,2.49237934 C304.636099,3.09695174 290.168897,4.81287045 276.176047,6.47445668 L275.131477,6.59892746 C270.383974,7.1620096 265.474692,7.74188541 260.661279,8.27039232 L197.935121,8.27039232 C192.972265,7.23602317 188.133451,5.68705727 183.498878,3.64916737 L183.436962,3.6699125 C177.470816,5.58430759 171.38748,7.12091051 165.223887,8.27039232 L152.312557,8.27039232 C150.470375,7.81641148 148.878466,6.67236882 147.872633,5.07959356 C144.191671,5.86000564 140.482746,6.96838837 136.887666,8.04318374 L136.116721,8.27434378 L108.83306,8.27434378 C108.251144,7.7983725 107.703868,7.28241704 107.195301,6.73031329 C105.840009,6.71360492 104.54339,7.27642328 103.638169,8.27434378 L93.7826564,8.27434378 C88.7205839,4.08481513 82.6978262,0 69.7245804,0 C68.8068363,0 67.8641264,0.0167936777 66.928407,0.0582839402 C59.1636966,2.1042728 51.5512725,4.67885619 44.1455858,7.7636184 L42.8613433,8.27138019 L1.08851035,8.27138019 C0.726006444,8.21605984 0.365499805,8.17259385 0.00699043344,8.11924922 L0,21 C0.119170246,20.9953899 173.785837,20.9953899 521,21 L521,3.95046571 L489.079684,3.27377928 C484.516928,3.39429862 479.608645,3.4189952 474.860143,3.43974033 C468.957222,3.46740051 462.854573,3.49506068 457.439983,3.71634208 C454.919433,3.82698278 454.856519,5.20505222 454.790609,6.53767993 C454.806566,7.13104616 454.698453,7.72127713 454.473044,8.27138019 L448.604075,8.27138019 Z" id="Union_4-2" fill="#E0CC6B" fill-rule="nonzero" style="mix-blend-mode: multiply;"></path>
    </g>
</svg>