<?xml version="1.0" encoding="UTF-8"?>
<svg width="1949px" height="39px" viewBox="0 0 1949 39" version="1.1" xmlns="http://www.w3.org/2000/svg" xmlns:xlink="http://www.w3.org/1999/xlink">
    <title>Subtraction_301</title>
    <g id="Page-1" stroke="none" stroke-width="1" fill="none" fill-rule="evenodd">
        <path d="M1379.852,0.002 C1377.5696,1.20849029 1375.00595,1.78233226 1372.427,1.664 C1371.601,1.664 1370.811,1.635 1370.215,1.611 C1369.632,1.795 1369.206,1.933 1368.834,2.057 C1366.49991,2.84238311 1364.05055,3.23044028 1361.588,3.205 C1360.768,3.205 1359.902,3.169 1358.939,3.095 C1358.905,3.131 1358.858,3.179 1358.793,3.239 C1349.307,3.666 1340.218,3.882 1331.779,3.882 C1322.121,3.882 1313.572,3.594 1306.37,3.026 C1305.87,2.979 1305.856,2.482 1305.842,2.001 C1305.828,1.52 1305.813,1.019 1305.313,0.983 C1302.56736,2.70292323 1299.42683,3.69066486 1296.191,3.852 C1294.00206,3.89267439 1291.87183,3.14283271 1290.191,1.74 C1290.52673,2.11608538 1290.65108,2.63566815 1290.522,3.123 C1290.312,3.639 1289.586,3.947 1288.579,3.947 C1287.67419,4.05427942 1286.77413,3.7121797 1286.169,3.031 C1286.07513,2.8311955 1286.08637,2.59786053 1286.199,2.408 C1284.4877,3.0753495 1282.66137,3.39786343 1280.825,3.357 C1277.28396,3.19216514 1273.77002,2.6558904 1270.341,1.757 L1270.232,1.732 L1270.199,1.725 L1270.188,1.725 C1268.288,1.304 1266.316,0.868 1264.431,0.57 L1262.125,0.675 C1261.959,0.665 1261.775,0.66 1261.577,0.66 C1260.9,0.66 1260.218,0.722 1259.577,0.785 L1254.887,0.997 C1253.81874,1.37499727 1252.81953,1.92526911 1251.929,2.626 C1251.03901,2.11382786 1250.11902,1.65566675 1249.174,1.254 L1246.541,1.374 C1246.52885,1.17023254 1246.57022,0.966831093 1246.661,0.784 L1246.69,0.714 C1245.83406,0.670869672 1245.0652,1.23395231 1244.848,2.063 C1244.31035,1.84006125 1243.78553,1.58733617 1243.276,1.306 L1243.256,1.306 C1243.218,1.314 1243.179,1.325 1243.142,1.335 L1243.055,1.355 L1242.97,1.373 C1242.726,1.43 1242.47,1.492 1242.207,1.567 L1238.639,1.737 C1238.5528,1.33958877 1238.50624,0.934605242 1238.5,0.528 C1237.98041,0.835949574 1237.42967,1.08802122 1236.857,1.28 C1236.84589,1.29936154 1236.83318,1.31775911 1236.819,1.335 L1236.811,1.344 C1236.79405,1.36324676 1236.77991,1.38479343 1236.769,1.408 C1236.75199,1.40549284 1236.73659,1.39654209 1236.726,1.383 C1236.71,1.369 1236.699,1.36 1236.686,1.36 C1235.98322,1.59551787 1235.26523,1.78295064 1234.537,1.921 L1233.225,1.98 C1232.30146,3.15242474 1230.87681,3.81763303 1229.385,3.773 C1229.196,3.773 1228.995,3.765 1228.77,3.748 C1227.88624,3.32776726 1227.03549,2.84138381 1226.225,2.293 L1225.913,2.31 L1225.84,2.31 C1225.233,2.327 1224.728,2.343 1224.231,2.389 L1219.526,2.608 C1219.41525,2.16697851 1219.36082,1.71370347 1219.364,1.259 C1218.97993,1.65333639 1218.67629,2.11865402 1218.47,2.629 L1218.464,2.641 L1218.457,2.656 L1171.335,4.788 C1170.454,4.748 1169.507,4.745 1168.592,4.741 L1168.566,4.741 L1168.558,4.741 L1168.55,4.741 L1168.541,4.741 L1168.494,4.741 C1167.394,4.741 1166.142,4.734 1165.05,4.654 C1164.55,4.617 1164.533,4.096 1164.519,3.591 C1164.505,3.086 1164.49,2.56 1163.988,2.523 C1160.588,4.606 1157.472,5.662 1154.74,5.662 C1152.58565,5.6954026 1150.49524,4.92984579 1148.872,3.513 C1149.22086,3.92263968 1149.34171,4.47961513 1149.194,4.997 C1148.968,5.539 1148.227,5.863 1147.21,5.863 C1146.269,5.863 1145.161,5.547 1144.864,4.944 C1144.76067,4.72833851 1144.76699,4.47621196 1144.881,4.266 C1143.10465,5.02062081 1141.18741,5.3864749 1139.258,5.339 C1135.82768,5.18213016 1132.42317,4.66699584 1129.1,3.802 L1129.062,3.794 L1129.035,3.794 L1129.024,3.789 L1129.011,3.789 C1125.67414,2.92054976 1122.25548,2.40406429 1118.811,2.248 C1115.8409,2.10306876 1112.92317,3.06875238 1110.626,4.957 L1110.611,4.947 L1110.603,4.947 C1109.314,4.209 1107.157,2.975 1105.531,2.975 C1104.59587,2.91053856 1103.75346,3.53767607 1103.547,4.452 C1102.81114,4.13621447 1102.09633,3.77346699 1101.407,3.366 L1101.385,3.354 L1101.364,3.342 L1101.353,3.333 L1101.342,3.327 C1100.68967,2.94076273 1100.01291,2.59737098 1099.316,2.299 L1099.316,4.212 C1097.916,3.933 1096.763,3.289 1096.692,2.745 C1096.664,2.531 1096.799,2.345 1097.092,2.18 L1097.081,2.18 L1096.948,2.168 C1096.27261,2.54302243 1095.74815,3.14063337 1095.464,3.859 C1094.964,3.834 1094.63,3.277 1094.478,2.203 C1094.09227,2.25115338 1093.70938,2.31991841 1093.331,2.409 C1092.097,4.485 1090.931,6.446 1088.001,6.446 C1087.801,6.446 1087.633,6.439 1087.475,6.426 C1087.224,6.308 1086.955,6.172 1086.652,6.008 C1085.39362,6.89085705 1084.05428,7.65227201 1082.652,8.282 C1082.441,8.297 1082.252,8.304 1082.079,8.304 C1078.891,8.304 1077.642,6.375 1076.195,4.14 C1075.883,3.654 1075.518,3.092 1075.14,2.567 L1075.14,2.586 C1075.104,3.586 1075.031,5.667 1073.949,5.716 C1073.53321,4.61767654 1072.50236,3.87325919 1071.329,3.824 C1069.97692,3.99086704 1068.6789,4.4564473 1067.529,5.187 L1067.501,5.204 L1067.487,5.211 L1067.471,5.219 C1066.71955,5.62493608 1065.9445,5.98557956 1065.15,6.299 C1064.87837,5.3561443 1063.97754,4.73729327 1063,4.822 C1061.237,4.822 1058.881,6.059 1057.473,6.797 L1057.454,6.805 C1054.88895,4.89573823 1051.73972,3.93802926 1048.546,4.096 C1044.8121,4.25149157 1041.10191,4.76687936 1037.467,5.635 L1037.431,5.642 L1037.42,5.642 C1033.7694,6.51620138 1030.04262,7.03429322 1026.292,7.189 C1024.20062,7.23992701 1022.11988,6.87591628 1020.17,6.118 C1020.29531,6.32551658 1020.3029,6.58347711 1020.19,6.798 C1019.865,7.398 1018.659,7.716 1017.636,7.716 C1016.536,7.716 1015.725,7.393 1015.476,6.852 C1015.31862,6.3290615 1015.45288,5.7618862 1015.828,5.365 C1014.01265,6.79987601 1011.75553,7.5601435 1009.442,7.516 C1006.469,7.516 1003.081,6.46 999.374,4.378 C998.829,4.415 998.813,4.935 998.798,5.439 C998.783,5.943 998.763,6.47 998.221,6.509 C997.021,6.59 995.634,6.594 994.521,6.598 L994.353,6.598 C993.381,6.598 992.353,6.604 991.378,6.643 L940.083,4.513 L940.074,4.498 C939.843706,3.97572447 939.510779,3.50506907 939.095,3.114 C939.098987,3.56957511 939.040098,4.02352194 938.92,4.463 L933.8,4.248 C933.275,4.202 932.729,4.185 932.168,4.171 L932.047,4.171 L931.971,4.171 L931.63,4.156 C930.741205,4.7032863 929.814522,5.18651124 928.857,5.602 C928.591,5.62 928.378,5.629 928.187,5.629 C926.595607,5.6860049 925.062305,5.02740761 924.008,3.834 L922.579,3.777 C921.789161,3.63672081 921.00869,3.44803179 920.242,3.212 C920.226604,3.21659034 920.21254,3.22482264 920.201,3.236 C920.182,3.252 920.17,3.261 920.153,3.261 C920.139693,3.23634595 920.122848,3.2137732 920.103,3.194 L920.096,3.186 C920.081251,3.17028893 920.068488,3.15282468 920.058,3.134 C919.43829,2.94389245 918.839011,2.69265743 918.269,2.384 C918.260917,2.79277752 918.208613,3.19947941 918.113,3.597 L914.229,3.425 C914.042,3.377 913.85,3.334 913.665,3.292 L913.632,3.285 L913.526,3.261 L913.512,3.261 L913.397,3.236 L913.306,3.216 L913.179,3.19 L913.157,3.19 L913.067,3.171 C912.50997,3.45323999 911.938141,3.70527173 911.354,3.926 C911.074897,3.07140507 910.25092,2.51563282 909.354,2.577 L909.384,2.649 C909.48445,2.82936782 909.53031,3.03504365 909.516,3.241 L906.65,3.119 C905.624555,3.51851354 904.622905,3.97660139 903.65,4.491 C902.668147,3.78406185 901.582115,3.23446664 900.431,2.862 L895.331,2.651 C894.637,2.588 893.896,2.526 893.154,2.526 C892.942,2.526 892.741,2.526 892.554,2.539 L890.044,2.432 C887.959,2.732 885.729,3.19 883.762,3.592 L883.749,3.592 L883.642,3.614 L883.625,3.614 L883.586,3.624 L883.55,3.631 L883.515,3.638 C879.802917,4.52713414 876.013683,5.05591897 872.2,5.217 C870.208453,5.25978088 868.22596,4.93676566 866.351,4.264 C866.472037,4.4511687 866.483858,4.68874024 866.382,4.887 C865.696939,5.58200026 864.729047,5.92124236 863.76,5.806 C862.666,5.806 861.875,5.498 861.644,4.982 C861.504192,4.48960409 861.640205,3.96007059 862,3.596 C860.123657,5.01642807 857.822824,5.76199659 855.47,5.712 C851.978594,5.55783031 848.574351,4.57289694 845.54,2.839 C844.994,2.879 844.979,3.375 844.966,3.855 C844.953,4.335 844.933,4.84 844.389,4.885 C836.506,5.454 827.201,5.743 816.732,5.743 C807.566,5.743 797.672,5.526 787.326,5.098 C786.897171,4.71408687 786.548485,4.24917129 786.3,3.73 L786.291,3.718 C786.040184,3.18806322 785.682336,2.71581289 785.24,2.331 L785.24,2.345 C785.211,3.292 785.18,4.272 784.058,4.371 C782.817316,3.82920441 781.488257,3.51811924 780.136,3.453 C779.503193,3.61519721 778.879617,3.81148358 778.268,4.041 L778.249,4.048 L778.233,4.048 C778.193391,4.06665103 778.151791,4.08074139 778.109,4.09 C778.109,4.075 778.122,4.057 778.14,4.035 C778.303607,3.84651301 778.41801,3.62045603 778.473,3.377 L778.232,3.377 C777.298,3.377 776.356,3.412 775.445,3.445 L775.422,3.445 L775.404,3.445 L775.346,3.445 L775.186,3.452 L775.148,3.452 C774.287,3.483 773.397,3.516 772.489,3.516 C769.697053,3.64066808 766.917766,3.07099855 764.4,1.858 L764.4,1.869 C764.368,2.883 764.337,3.842 763.22,3.913 C762.728421,3.54026643 762.176836,3.25415939 761.589,3.067 C760.179453,4.05330361 758.678586,4.9021877 757.107,5.602 C756.849,5.62 756.631,5.629 756.442,5.629 C754.729243,5.68832815 753.090691,4.92810213 752.03,3.582 C750.753,3.525 749.459,3.361 748.474,3.224 C748.463954,3.22569932 748.454593,3.23020622 748.447,3.237 C748.43,3.254 748.419,3.262 748.403,3.262 C748.399097,3.25483011 748.394401,3.24812138 748.389,3.242 C748.378296,3.23251155 748.369181,3.22137055 748.362,3.209 C747.773,3.126 747.149,3.035 746.562,2.946 L746.494,2.936 L746.417,2.924 L746.4,2.924 L746.374,2.919 L746.316,2.91 L746.286,2.91 C745.263,2.758 743.986,2.57 742.806,2.43 C742.539,2.56 742.268,2.696 742.006,2.83 L741.972,2.849 L741.924,2.873 C741.169547,3.26523693 740.393659,3.61478747 739.6,3.92 C739.303744,3.01797883 738.420828,2.44267017 737.476,2.536 C735.696,2.536 733.32,3.754 731.9,4.481 L731.891,4.481 C729.362945,2.73188425 726.329735,1.86289341 723.259,2.008 C719.413845,2.17089965 715.59359,2.70674682 711.852,3.608 C708.106854,4.51014425 704.282862,5.04599876 700.434,5.208 C698.445229,5.25082611 696.46547,4.9284925 694.593,4.257 C694.71454,4.44408628 694.726001,4.68210117 694.623,4.88 C693.938356,5.57565766 692.970132,5.91501611 692.001,5.799 C690.901,5.799 690.115,5.492 689.887,4.977 C689.746002,4.48262147 689.884638,3.95067201 690.249,3.588 C688.371822,5.00829413 686.070413,5.7538211 683.717,5.704 C680.225929,5.54971092 676.822038,4.56478021 673.788,2.831 C673.238,2.871 673.225,3.367 673.212,3.847 C673.199,4.327 673.18,4.831 672.634,4.876 C664.751,5.445 655.446,5.734 644.977,5.734 C635.808,5.734 625.916,5.517 615.577,5.089 C615.149241,4.7033947 614.799862,4.23891345 614.548,3.721 L614.541,3.707 C614.289029,3.1740315 613.932394,2.70611795 613.493,2.324 C613.465,3.277 613.438,4.261 612.311,4.361 C610.445497,3.59927397 608.437056,3.25094403 606.424,3.34 C605.494,3.34 604.582,3.374 603.699,3.407 L603.655,3.407 L603.607,3.407 L603.521,3.412 L603.439,3.412 L603.354,3.412 C602.615,3.439 601.854,3.467 601.087,3.477 C600.883697,4.00124497 600.724152,4.54142378 600.61,5.092 C598.794512,4.98056424 597.077857,4.22697994 595.767,2.966 L595.756,2.966 L595.738,2.966 C595.72486,2.96266958 595.71149,2.96032968 595.698,2.959 L595.674,2.959 L595.661,2.959 L595.628,2.952 C595.528,4.152 594.196,4.334 593.413,4.334 C591.799,4.334 589.802,3.606 589.455,2.892 C588.539403,2.61670547 587.603006,2.41604897 586.655,2.292 C585.711111,2.42749693 584.78707,2.67663874 583.903,3.034 C583.748,3.456 583.454,3.728 583.152,3.728 C583.003515,3.72213872 582.861863,3.66406125 582.752,3.564 C581.72,4.091 580.739,4.722 579.79,5.332 L579.732,5.369 L579.706,5.386 L579.698,5.391 L579.69,5.391 C578.043892,6.51697656 576.293537,7.48240086 574.463,8.274 C574.24,8.289 574.035,8.296 573.854,8.296 C570.46,8.296 569.132,6.365 567.594,4.13 L567.58,4.108 L567.57,4.095 C567.193,3.545 566.85,3.051 566.47,2.559 L566.47,2.578 C566.435,3.578 566.361,5.657 565.207,5.708 C564.72751,4.58692827 563.638891,3.84790131 562.42,3.816 C560.993669,3.97964428 559.618162,4.44348603 558.384,5.177 L558.35,5.194 L558.322,5.207 C557.519283,5.6197044 556.693219,5.98532304 555.848,6.302 C555.522577,5.33120976 554.566173,4.71703247 553.548,4.825 C551.68,4.825 549.174,6.058 547.677,6.795 L547.647,6.808 C545.203,4.985 542.104,4.099 538.172,4.099 C534.209588,4.25351903 530.2694,4.76763114 526.4,5.635 L526.358,5.643 L526.345,5.643 L526.337,5.643 L526.296,5.651 C522.420804,6.52080553 518.474571,7.03659392 514.506,7.192 C512.287579,7.24363409 510.079033,6.88040428 507.994,6.121 C508.122264,6.31807863 508.135236,6.56873414 508.028,6.778 C507.708,7.396 506.413,7.719 505.299,7.719 C504.371,7.719 503.276,7.484 502.989,6.819 C502.84099,6.29973248 502.98957,5.74111748 503.376,5.364 C501.408216,6.81058786 499.017743,7.56675066 496.576,7.515 C492.806762,7.34416829 489.134151,6.26780208 485.869,4.377 C485.29,4.414 485.269,4.934 485.256,5.438 C485.243,5.942 485.218,6.469 484.641,6.508 C483.365,6.589 481.891,6.593 480.707,6.597 L480.527,6.597 C479.494,6.597 478.399,6.603 477.362,6.642 L422.814,4.513 L422.807,4.499 L422.807,4.491 L422.802,4.479 C422.553098,3.95908049 422.201739,3.49479585 421.769,3.114 C421.772817,3.57031177 421.710159,4.02474715 421.583,4.463 L416.134,4.248 C415.577,4.202 414.995,4.185 414.398,4.171 L414.27,4.171 L414.186,4.171 L413.826,4.156 C412.876458,4.70537601 411.890112,5.18852526 410.874,5.602 C410.599,5.62 410.366,5.629 410.162,5.629 C408.491888,5.69512418 406.873674,5.0415027 405.718,3.834 L404.198,3.777 C403.358029,3.63902519 402.527177,3.45034703 401.71,3.212 C401.693626,3.21636771 401.678537,3.22459776 401.666,3.236 C401.653585,3.25029828 401.635907,3.25895687 401.617,3.26 C401.604802,3.23921615 401.590018,3.22006332 401.573,3.203 C401.550618,3.18145341 401.530512,3.15766151 401.513,3.132 C400.858091,2.94055013 400.222099,2.68950087 399.613,2.382 C399.605545,2.79138841 399.550167,3.19849494 399.448,3.595 L395.319,3.423 C395.031,3.353 394.731,3.292 394.49,3.243 L394.456,3.236 L394.445,3.236 L394.428,3.236 L394.393,3.227 L394.238,3.196 L394.189,3.186 L394.082,3.165 C393.488601,3.44905812 392.880394,3.70108673 392.26,3.92 C391.931596,3.04411248 391.061181,2.49310777 390.129,2.571 L390.16,2.638 C390.2651,2.81970476 390.31383,3.02854495 390.3,3.238 L387.253,3.116 C386.167767,3.51498897 385.104885,3.97232221 384.069,4.486 C383.010844,3.7772654 381.853647,3.22899531 380.635,2.859 L375.211,2.648 C374.471,2.585 373.683,2.523 372.894,2.523 C372.668,2.523 372.454,2.523 372.258,2.536 L369.589,2.429 C367.308,2.744 364.911,3.205 362.797,3.612 L362.786,3.612 L362.758,3.612 L362.712,3.622 L362.696,3.622 L362.68,3.622 C358.712713,4.51522961 354.672401,5.04574854 350.609,5.207 C348.496219,5.25047208 346.391846,4.92804972 344.389,4.254 C344.511093,4.43111334 344.529025,4.66003573 344.436,4.854 C344.128,5.465 342.763,5.795 341.636,5.795 C340.449,5.795 339.603,5.476 339.374,4.943 C339.217,4.575 339.349,4.118 339.768,3.584 C337.739488,5.01518032 335.304914,5.75694555 332.823,5.7 C329.130721,5.5511093 325.519951,4.56893342 322.261,2.827 C321.679,2.867 321.661,3.364 321.651,3.845 C321.641,4.326 321.613,4.828 321.037,4.873 C312.653,5.442 302.755,5.731 291.62,5.731 C281.869,5.731 271.347,5.514 260.344,5.086 C259.889276,4.70682538 259.515231,4.2402894 259.244,3.714 L259.235,3.697 C258.963247,3.1656676 258.583866,2.69672092 258.121,2.32 C258.088,3.273 258.058,4.257 256.861,4.357 C255.533596,3.81296143 254.122164,3.50239226 252.689,3.439 C252.01643,3.60021249 251.35284,3.79681942 250.701,4.028 L250.633,4.052 L250.617,4.057 L250.605,4.057 C250.58239,4.06574741 250.55893,4.07211512 250.535,4.076 C250.535,4.063 250.545,4.047 250.56,4.029 L250.571,4.016 C250.741694,3.83245792 250.861933,3.60782881 250.92,3.364 L250.665,3.364 C249.665,3.364 248.665,3.399 247.701,3.432 L247.677,3.432 L247.657,3.432 L247.597,3.432 L247.433,3.439 L247.373,3.439 C246.456,3.471 245.512,3.503 244.555,3.503 C241.597549,3.62710793 238.652161,3.05652458 235.955,1.837 C235.924,2.813 235.894,3.821 234.696,3.893 C234.169698,3.51608856 233.583905,3.23012152 232.963,3.047 C231.455111,4.04380312 229.858319,4.89910739 228.193,5.602 C227.91,5.62 227.685,5.629 227.485,5.629 C225.691924,5.70191563 223.964704,4.94724766 222.8,3.582 C221.445,3.525 220.066,3.361 219.017,3.224 C219.002555,3.2269922 218.989528,3.2347377 218.98,3.246 C218.969252,3.25523479 218.956048,3.26114167 218.942,3.263 L218.928,3.245 L218.917,3.234 C218.909444,3.22650448 218.902426,3.21848451 218.896,3.21 C218.036,3.095 217.232,2.984 216.817,2.924 L216.723,2.912 L216.693,2.905 L216.614,2.895 L216.563,2.888 C215.456,2.735 214.202,2.563 212.996,2.427 C212.666,2.58 212.374,2.716 212.131,2.833 L212.106,2.844 L212.065,2.863 L212.048,2.871 C211.245718,3.26427643 210.422862,3.6141151 209.583,3.919 C209.235678,2.99487691 208.305058,2.4247227 207.324,2.535 C205.437,2.535 202.909,3.751 201.398,4.478 L201.385,4.484 C198.655601,2.72321134 195.444501,1.85864405 192.2,2.011 C188.126359,2.17130733 184.076033,2.70521399 180.1,3.606 L180.075,3.606 L180.04,3.614 L180.032,3.614 C176.053735,4.51634441 172.001095,5.05192086 167.925,5.214 C165.815322,5.257458 163.714021,4.93571638 161.714,4.263 C161.835444,4.44048273 161.852611,4.66938814 161.759,4.863 C161.453,5.474 160.086,5.804 158.959,5.804 C157.772,5.804 156.926,5.485 156.697,4.952 C156.539,4.584 156.672,4.127 157.097,3.593 C155.067495,5.02369122 152.632457,5.76538409 150.15,5.709 C146.458742,5.55966036 142.849047,4.57749778 139.591,2.836 C139.011,2.876 138.991,3.37 138.979,3.847 C138.967,4.324 138.942,4.837 138.363,4.882 C130.071,5.448 120.198,5.734 109.017,5.734 C107.979,5.734 106.779,5.734 105.24,5.726 C104.984742,5.50599882 104.744847,5.26877733 104.522,5.016 C104.518423,5.25831388 104.462836,5.49703214 104.359,5.716 C102.759,5.706 101.003,5.689 99.133,5.663 L99.146,5.82 L99.146,5.863 C99.152,5.95 99.159,6.037 99.167,6.122 C98.221,5.722 97.643,5.238 97.623,4.815 C97.613,4.58 97.772,4.373 98.096,4.199 C97.574,4.15 97.082,4.127 96.636,4.127 C92.47,4.127 89.775,5.988 86.923,7.957 L86.91,7.966 L86.901,7.973 C85.1077438,9.28843077 83.1875394,10.4213916 81.169,11.355 C80.947,11.371 80.721,11.378 80.498,11.378 C76.754,11.378 75.291,9.114 73.598,6.491 L73.566,6.441 L73.557,6.427 C73.202,5.879 72.801,5.259 72.366,4.655 L72.366,4.67 C72.325,5.934 72.248,8.286 70.974,8.343 C70.4838229,7.05269283 69.2693055,6.18079219 67.89,6.129 C66.307277,6.32562389 64.7881894,6.87218118 63.443,7.729 L63.425,7.739 L63.408,7.748 L63.364,7.77 C62.4861474,8.24549607 61.5797539,8.66629778 60.65,9.03 C60.3289,7.92139026 59.2663454,7.1965208 58.117,7.302 C56.045,7.302 53.282,8.752 51.631,9.618 L51.614,9.628 C48.924,7.489 45.507,6.449 41.171,6.449 C36.7895955,6.63069396 32.4360148,7.23550678 28.171,8.255 L28.127,8.264 L28.104,8.269 L28.081,8.269 C23.815521,9.28505734 19.4620803,9.88784144 15.081,10.069 C12.6307976,10.1297285 10.1927513,9.70560221 7.907,8.821 C8.05527222,9.06493269 8.06401277,9.36895162 7.93,9.621 C7.551,10.329 6.136,10.699 4.93,10.699 C3.638,10.699 2.691,10.318 2.399,9.681 C2.2135647,9.06862333 2.37126539,8.40383665 2.812,7.94 C1.95843927,8.62118423 1.01142932,9.17618864 1.0658141e-14,9.588 L1.0658141e-14,35.746 L0.038,35.752 L0.077,35.758 C1.5188109,35.4886334 2.98329711,35.3593648 4.45,35.372 C5.078,35.372 5.811,35.394 6.759,35.441 L6.734,35.498 L6.602,35.774 C6.491,36.005 6.383,36.228 6.281,36.437 L6.061,36.892 L6.41,36.964 L6.447,36.971 C10.925,37.888 15.547,38.836 19.747,38.836 C23.92,38.836 27.231,37.887 29.868,35.936 C31.531,36.79 34.311,38.217 36.394,38.217 C37.5003462,38.3272069 38.533973,37.6515821 38.877,36.594 C39.8250139,36.9613188 40.7509048,37.3833621 41.65,37.858 L41.683,37.874 L41.866,37.966 L41.901,37.983 C42.181,38.123 42.413,38.239 42.632,38.345 C43.893,38.194 45.144,38.012 46.648,37.79 L46.666,37.79 L46.831,37.765 L46.888,37.756 C47.494,37.665 48.323,37.541 49.12,37.43 C49.1245303,37.422115 49.1298944,37.4147393 49.136,37.408 L49.144,37.398 L49.154,37.388 C49.16015,37.3812968 49.1655178,37.3739161 49.17,37.366 C49.1872802,37.3672396 49.2034085,37.3751245 49.215,37.388 C49.2252032,37.3981703 49.2374834,37.406016 49.251,37.411 C50.941,37.176 52.225,37.047 53.415,36.992 C54.6495786,35.4145212 56.5640522,34.5225126 58.566,34.592 C58.82,34.592 59.084,34.603 59.349,34.624 C61.1902042,35.4435617 62.9485837,36.4377778 64.6,37.593 C65.2856782,37.3745512 65.9284636,37.0392879 66.5,36.602 C67.809,36.686 67.845,37.814 67.883,39.008 C70.8211446,37.5854985 74.066731,36.9154198 77.328,37.058 C78.414,37.058 79.52,37.099 80.497,37.135 L80.555,37.135 L80.7,37.14 L80.723,37.14 L80.823,37.14 L80.834,37.14 C81.826,37.177 82.95,37.219 84.052,37.219 L84.337,37.219 C84.2746993,36.9389891 84.144938,36.6784366 83.959,36.46 L83.943,36.439 C83.923,36.415 83.909,36.398 83.913,36.382 C83.9676454,36.3951776 84.020892,36.4135962 84.072,36.437 L84.088,36.442 C84.8051673,36.7153856 85.5377599,36.9464495 86.282,37.134 C87.8642733,37.0597448 89.4194318,36.6953605 90.87,36.059 C92.184,36.176 92.22,37.332 92.254,38.449 C92.7687867,37.9997572 93.1860383,37.4497747 93.48,36.833 L93.486,36.823 C93.7792909,36.209515 94.1904343,35.6597381 94.696,35.205 C106.748,34.705 118.321,34.45 129.091,34.45 C141.359,34.45 152.239,34.787 161.431,35.45 C162.068,35.505 162.094,36.086 162.118,36.65 C162.136,37.112 162.156,37.589 162.518,37.766 L162.647,37.749 C162.798,37.732 162.952,37.712 163.098,37.692 C163.16,37.659 163.23,37.625 163.298,37.592 L163.475,37.503 L163.512,37.484 L163.458,35.753 L163.406,34.16 C164.728,34.455 166.306,34.866 167.985,35.302 L168.142,35.343 L168.175,35.351 L168.205,35.359 L168.226,35.366 L168.536,35.446 C170.435021,34.8402039 172.412911,34.5174067 174.406,34.488 C177.152391,34.4303365 179.837667,35.3025226 182.026,36.963 C181.610117,36.5430485 181.445331,35.9355437 181.592,35.363 C181.842,34.744 182.765,34.375 184.061,34.375 C184.924071,34.3567253 185.779161,34.5435084 186.556,34.92 C187.009321,35.0220007 187.472351,35.0746405 187.937,35.077 C188.810395,35.0542488 189.6728,34.8764858 190.484,34.552 L190.5,34.552 L190.575,34.527 C191.306029,34.2255136 192.084782,34.0562195 192.875,34.027 C192.967,34.027 193.075,34.027 193.175,34.037 C193.175281,34.3910246 193.217236,34.7437854 193.3,35.088 C193.5,35.081 193.724,35.08 194.014,35.08 C194.902,35.08 195.842,35.121 196.808,35.202 C197.308,34.296 197.82,33.36 199.308,33.36 C199.43,33.36 199.533,33.36 199.65,33.375 C199.72,35.607 200.94,35.716 202.232,35.831 L202.332,35.84 C203.960627,35.4875547 205.623795,35.319829 207.29,35.34 C208.406,35.34 209.514,35.398 210.405,35.44 L210.431,35.44 L210.557,35.447 L210.648,35.452 C211.448,35.494 212.43,35.545 213.336,35.545 C214.341627,35.5657309 215.346201,35.4680594 216.329,35.254 C215.758,36.309 215.219,37.34 214.729,38.317 L214.777,38.325 L214.788,38.325 C214.790617,38.3257242 214.793383,38.3257242 214.796,38.325 L214.807,38.325 L214.823,38.325 L217.756,38.198 C217.979,38.211 218.21,38.217 218.461,38.217 C219.287,38.217 220.101,38.15 221.004,38.07 L226.971,37.823 C228.317367,37.3838499 229.587467,36.738511 230.736,35.91 C231.872733,36.5141478 233.044099,37.0507456 234.244,37.517 L237.6,37.402 C237.616787,37.6393591 237.564702,37.8765186 237.45,38.085 L237.45,38.095 L237.432,38.137 L237.415,38.179 C238.466379,38.24823 239.431067,37.5963249 239.759,36.595 C240.440858,36.8559034 241.108455,37.1526504 241.759,37.484 L242.145,37.399 L242.182,37.391 C242.506,37.322 242.822,37.253 243.119,37.174 L247.661,36.974 C247.772377,37.4407994 247.833392,37.9181935 247.843,38.398 C248.508532,38.0338995 249.2095,37.7387021 249.935,37.517 C249.949226,37.4947057 249.965281,37.4736331 249.983,37.454 L249.993,37.442 C250.015907,37.4209869 250.035169,37.3963186 250.05,37.369 C250.069934,37.371717 250.08831,37.3812584 250.102,37.396 L250.111,37.403 C250.122328,37.4142428 250.1365,37.4221932 250.152,37.426 C251.049142,37.1484222 251.962973,36.9279804 252.888,36.766 L254.558,36.697 C255.79098,35.3002128 257.58509,34.5295784 259.447,34.597 C259.698,34.597 259.962,34.608 260.23,34.629 C261.348887,35.1182409 262.431612,35.686337 263.47,36.329 L263.87,36.314 L263.952,36.314 C264.633,36.296 265.337,36.277 266.006,36.219 L271.996,35.965 C272.138587,36.4786843 272.207938,37.0099266 272.202,37.543 C272.693422,37.0817741 273.086027,36.5255265 273.356,35.908 L333.343,33.408 C334.453,33.454 335.624,33.459 336.756,33.465 L336.977,33.465 C338.294,33.465 339.932,33.472 341.345,33.565 C341.982,33.61 342.002,34.222 342.022,34.813 C342.042,35.404 342.059,36.018 342.697,36.066 C347.036,33.622 350.997,32.383 354.471,32.383 C357.178267,32.3310336 359.819259,33.2226777 361.941,34.905 C361.512554,34.4467654 361.352099,33.7992709 361.517,33.194 C361.791,32.54 362.74,32.15 364.056,32.15 C365.276,32.15 366.698,32.528 367.056,33.25 C367.174423,33.4964594 367.160508,33.7860308 367.019,34.02 C369.299116,33.1332765 371.732225,32.7067431 374.178,32.765 C378.565746,32.9483781 382.925425,33.5562147 387.196,34.58 C391.462058,35.601306 395.81711,36.2064721 400.2,36.387 C404.517,36.387 407.931,35.35 410.64,33.217 C412.294,34.087 415.052,35.537 417.109,35.537 C418.257543,35.6418868 419.318291,34.9149849 419.635,33.806 C420.562119,34.17207 421.466414,34.5934954 422.343,35.068 L422.35,35.068 L422.406,35.097 L422.416,35.102 C423.759553,35.9591715 425.277426,36.5057832 426.859,36.702 C428.141,36.702 429.144,35.976 429.924,34.484 C431.191,34.544 431.271,36.895 431.313,38.158 L431.313,38.174 C431.735,37.588 432.113,37.006 432.475,36.444 L432.502,36.403 L432.538,36.35 L432.545,36.337 C434.238,33.715 435.7,31.451 439.433,31.451 C439.633,31.451 439.858,31.459 440.098,31.474 C441.743483,32.2174124 443.314269,33.1161527 444.789,34.158 C446.415677,33.7491508 447.965869,33.0809238 449.38,32.179 C451.051624,32.8795437 452.85319,33.216336 454.665,33.167 C457.13348,33.0897095 459.5919,32.8161801 462.017,32.349 L462.131,32.331 C464.648505,31.848388 467.200716,31.568822 469.763,31.495 C470.283,31.495 470.8,31.514 471.3,31.553 C471.422589,31.4306557 471.586917,31.3592085 471.76,31.353 C472.187,31.353 472.531,31.84 472.651,32.321 C472.807958,32.7926408 472.661798,33.3123219 472.282,33.633 C473.132519,33.4342059 473.99264,33.2790036 474.859,33.168 L474.882,33.168 C477.056,32.847 479.52,32.484 480.998,31.147 C482.245,31.229 482.278,32.412 482.311,33.555 C485.049467,32.1486832 488.107646,31.4816885 491.183,31.62 C492.277,31.62 493.346,31.665 494.383,31.708 L494.434,31.708 L494.468,31.708 L494.513,31.708 L494.655,31.715 L494.665,31.715 C495.589,31.752 496.636,31.795 497.659,31.795 C499.877307,31.8958585 502.089483,31.4906292 504.128,30.61 C505.375,30.726 505.408,31.881 505.441,32.998 C505.936019,32.5389351 506.333579,31.9849348 506.61,31.369 C506.884961,30.7611757 507.27555,30.2126522 507.76,29.754 C519.215,29.254 530.2,28.999 540.41,28.999 C552.049,28.999 562.372,29.336 571.091,29.999 C571.691,30.052 571.714,30.638 571.731,31.204 C571.748,31.77 571.763,32.351 572.37,32.398 C576.425,30.164 580.133,29.031 583.392,29.031 C586.024832,28.9790043 588.591795,29.8563746 590.642,31.509 C590.235848,31.0737772 590.084442,30.4590675 590.242,29.885 C590.496,29.285 591.373,28.921 592.586,28.921 C594.138,28.921 595.245,29.475 595.499,29.996 C595.612889,30.229211 595.600073,30.5043845 595.465,30.726 C597.533649,29.9416419 599.734191,29.5637367 601.946,29.613 C605.928,29.613 610.321,30.562 614.57,31.48 L614.609,31.489 L614.618,31.489 L614.641,31.489 C618.894,32.409 623.292,33.361 627.283,33.361 C630.716712,33.5201725 634.1011,32.4965257 636.871,30.461 L636.879,30.467 C638.452,31.318 641.085,32.742 643.061,32.742 C644.134029,32.8355228 645.122608,32.1548001 645.418,31.119 C646.327127,31.4925455 647.213935,31.9182534 648.074,32.394 L648.084,32.394 L648.093,32.399 C648.424,32.576 648.707,32.724 648.983,32.865 C650.196,32.713 651.374,32.532 652.783,32.31 L652.916,32.29 L652.934,32.29 L652.978,32.283 L653.026,32.275 L653.395,32.218 L653.442,32.211 L653.661,32.177 C654.14,32.103 654.635,32.026 655.134,31.954 C655.141095,31.9423693 655.149121,31.9313332 655.158,31.921 C655.167569,31.9112311 655.175655,31.9001131 655.182,31.888 C655.197684,31.8913285 655.211984,31.8993504 655.223,31.911 C655.232788,31.9219039 655.24517,31.9301592 655.259,31.935 C656.342,31.775 657.769,31.582 659.21,31.514 C660.34631,29.9565739 662.176894,29.0588617 664.104,29.114 C664.342,29.114 664.591,29.124 664.842,29.144 C666.595535,29.9678034 668.263315,30.9629782 669.821,32.115 C670.478017,31.8967047 671.090428,31.5620464 671.629,31.127 C672.878,31.209 672.911,32.392 672.942,33.535 C675.71178,32.1154861 678.803818,31.4426894 681.913,31.583 C683.006,31.583 684.159,31.629 685.001,31.663 L685.138,31.668 L685.286,31.673 L685.304,31.673 C686.427,31.716 687.36,31.75 688.288,31.75 L688.558,31.75 C688.49945,31.4691933 688.375035,31.2063108 688.195,30.983 L688.184,30.968 L688.175,30.958 C688.157,30.931 688.15,30.92 688.157,30.911 C688.186358,30.9173525 688.214881,30.927084 688.242,30.94 L688.264,30.949 L688.278,30.949 L688.316,30.964 L688.326,30.969 L688.34,30.974 C689.015049,31.2405846 689.704455,31.4692738 690.405,31.659 C691.910985,31.5832635 693.38841,31.2189995 694.757,30.586 C696.005,30.702 696.037,31.857 696.068,32.974 C696.564857,32.5165014 696.963293,31.9625692 697.239,31.346 C697.514803,30.7386217 697.904894,30.1899826 698.388,29.73 C709.843,29.23 720.829,28.975 731.039,28.975 C742.678,28.975 753.001,29.312 761.721,29.975 C762.328,30.029 762.344,30.616 762.359,31.185 C762.374,31.754 762.394,32.328 762.999,32.375 C767.057,30.141 770.765,29.008 774.021,29.008 C776.653491,28.9562406 779.22006,29.8335974 781.27,31.486 C780.864726,31.0503024 780.71344,30.4360803 780.87,29.862 C781.124,29.262 782.002,28.898 783.217,28.898 C784.766,28.898 785.874,29.452 786.13,29.973 C786.242837,30.2065331 786.229661,30.4813332 786.095,30.703 C788.166405,29.9185489 790.369582,29.5406578 792.584,29.59 C796.566,29.59 800.973,30.54 805.235,31.459 L805.255,31.459 C807.59,31.965 810.005,32.489 812.393,32.859 L815.176,32.732 C815.387,32.744 815.612,32.751 815.846,32.751 C816.64,32.751 817.473,32.679 818.258,32.606 L823.92,32.357 C825.206252,31.914906 826.413754,31.2704772 827.497,30.448 L827.541,30.471 L827.552,30.478 C828.611049,31.0646097 829.702462,31.5907851 830.821,32.054 L834,31.945 C834.015593,32.1846823 833.965092,32.4240461 833.854,32.637 L833.838,32.676 L833.838,32.688 L833.838,32.699 L833.83,32.72 C834.850333,32.7766723 835.774007,32.1195146 836.055,31.137 C836.70416,31.3982585 837.338452,31.6950405 837.955,32.026 L838.043,32.006 L838.101,31.991 C838.149,31.981 838.201,31.971 838.247,31.958 L838.334,31.94 L838.434,31.917 L838.448,31.917 C838.689,31.862 838.968,31.796 839.248,31.717 L843.558,31.517 C843.662787,31.9840478 843.720409,32.4604376 843.73,32.939 C844.359702,32.5780345 845.02487,32.2828135 845.715,32.058 C845.728206,32.0351449 845.743256,32.013406 845.76,31.993 L845.768,31.982 L845.778,31.972 C845.794654,31.9517473 845.809385,31.9299866 845.822,31.907 C845.841757,31.9108853 845.859881,31.9206443 845.874,31.935 C845.884544,31.9498079 845.900234,31.960149 845.918,31.964 C846.769387,31.688193 847.637909,31.4683901 848.518,31.306 L850.105,31.236 C851.241994,29.8527669 852.957426,29.0767204 854.747,29.136 C854.965,29.136 855.213,29.147 855.485,29.168 C856.550877,29.6573548 857.578733,30.2256007 858.56,30.868 L858.939,30.851 L859.081,30.846 C859.759,30.829 860.37,30.81 860.971,30.754 L866.656,30.5 C866.790154,31.0161293 866.855388,31.5477479 866.85,32.081 C867.320429,31.6127154 867.694186,31.0564975 867.95,30.444 L924.878,27.944 C925.956,27.992 927.144,27.995 928.192,27.999 L928.275,27.999 L928.363,27.999 C929.679,27.999 931.171,28.009 932.476,28.099 C933.076,28.144 933.099,28.756 933.117,29.348 C933.135,29.94 933.15,30.553 933.756,30.6 C937.874,28.157 941.633,26.919 944.93,26.919 C947.513506,26.8806792 950.02402,27.776226 952,29.441 C951.579568,28.9661887 951.432306,28.3087972 951.61,27.7 C951.885,27.064 952.781,26.684 954.01,26.684 C955.148,26.684 956.487,27.054 956.845,27.76 C956.972293,28.0135801 956.963652,28.314152 956.822,28.56 C958.976792,27.6733645 961.29264,27.2452732 963.622,27.303 C967.774708,27.4846458 971.898215,28.0877427 975.929,29.103 L975.955,29.108 L975.978,29.115 L975.986,29.115 C980.02581,30.1362831 984.159142,30.7434165 988.322,30.927 C992.422,30.927 995.661,29.888 998.21,27.75 L998.221,27.75 C999.783,28.618 1002.398,30.071 1004.366,30.071 C1005.48156,30.1581691 1006.49663,29.4260504 1006.766,28.34 C1007.66538,28.7138919 1008.53985,29.1451113 1009.384,29.631 L1009.415,29.647 C1010.67447,30.498287 1012.11417,31.0459611 1013.621,31.247 C1014.838,31.247 1015.789,30.521 1016.529,29.029 C1017.736,29.086 1017.808,31.438 1017.846,32.702 L1017.846,32.717 C1018.284,32.076 1018.68,31.426 1018.998,30.904 L1019.009,30.884 C1020.615,28.259 1022.001,25.993 1025.547,25.993 C1025.735,25.993 1025.947,26.001 1026.181,26.016 C1028.10324,26.9549458 1029.92354,28.0896137 1031.613,29.402 L1031.633,29.417 C1034.333,31.385 1036.882,33.244 1040.826,33.244 C1041.262,33.244 1041.726,33.22 1042.21,33.174 C1041.902,32.998 1041.752,32.791 1041.763,32.556 C1041.78,32.136 1042.326,31.647 1043.223,31.249 L1043.215,31.366 L1043.207,31.483 L1043.207,31.508 L1043.207,31.551 L1043.196,31.708 C1044.822,31.685 1046.486,31.666 1048.143,31.655 C1048.24204,31.8752629 1048.2948,32.1135164 1048.298,32.355 C1048.50718,32.1021877 1048.73445,31.8648972 1048.978,31.645 C1050.123,31.638 1051.326,31.635 1052.554,31.635 C1063.114,31.635 1072.462,31.922 1080.339,32.487 C1080.892,32.534 1080.907,33.035 1080.921,33.52 C1080.935,34.005 1080.953,34.494 1081.501,34.533 C1084.56007,32.7976261 1087.98731,31.8129824 1091.501,31.66 C1093.86901,31.6091718 1096.18561,32.354259 1098.08,33.776 C1097.72362,33.4211027 1097.58105,32.9044389 1097.705,32.417 C1097.92,31.885 1098.72,31.567 1099.846,31.567 C1100.915,31.567 1102.209,31.896 1102.5,32.506 C1102.58908,32.7003331 1102.57248,32.9267409 1102.456,33.106 C1104.34299,32.4359455 1106.33603,32.114388 1108.338,32.157 C1112.20327,32.3197827 1116.04378,32.8556049 1119.806,33.757 L1119.842,33.764 C1123.60853,34.6676954 1127.4539,35.2035428 1131.324,35.364 C1134.40779,35.5072493 1137.45406,34.6399957 1140,32.894 L1140.013,32.901 C1141.442,33.627 1143.835,34.843 1145.622,34.843 C1146.57085,34.9396027 1147.45969,34.3649074 1147.761,33.46 C1148.57731,33.773342 1149.37525,34.1325818 1150.151,34.536 L1150.175,34.548 C1150.436,34.678 1150.729,34.822 1150.996,34.948 C1152.211,34.804 1153.456,34.621 1154.456,34.475 L1154.497,34.469 L1154.527,34.469 L1154.615,34.456 C1155.202,34.369 1155.886,34.268 1156.584,34.172 C1156.5879,34.1651363 1156.5926,34.1587585 1156.598,34.153 L1156.612,34.135 C1156.61707,34.129324 1156.62175,34.1233102 1156.626,34.117 C1156.63787,34.118203 1156.64906,34.1230996 1156.658,34.131 C1156.66783,34.1432683 1156.68162,34.1517495 1156.697,34.155 C1157.686,34.02 1158.987,33.855 1160.279,33.797 C1161.34909,32.4472055 1162.99763,31.6871692 1164.719,31.75 C1164.934,31.75 1165.16,31.759 1165.39,31.777 C1166.97343,32.4752889 1168.48605,33.3241942 1169.907,34.312 C1170.49795,34.1266153 1171.05267,33.841134 1171.547,33.468 C1172.682,33.539 1172.711,34.547 1172.739,35.522 C1175.27419,34.3062393 1178.07005,33.7343594 1180.879,33.857 C1181.918,33.857 1182.979,33.898 1183.752,33.927 L1183.817,33.927 L1183.835,33.927 C1184.835,33.966 1185.747,33.997 1186.677,33.997 L1186.906,33.997 C1186.85228,33.7556826 1186.7392,33.5315818 1186.577,33.345 L1186.571,33.336 C1186.551,33.313 1186.538,33.296 1186.541,33.283 C1186.59096,33.2945 1186.63957,33.3112602 1186.686,33.333 C1187.30601,33.5655916 1187.93869,33.7629071 1188.581,33.924 C1189.94231,33.8606483 1191.28075,33.5502655 1192.531,33.008 C1193.66,33.108 1193.692,34.092 1193.723,35.045 C1194.16607,34.6603759 1194.52607,34.1894512 1194.781,33.661 L1194.789,33.648 C1195.04145,33.1279965 1195.39342,32.662547 1195.825,32.278 C1206.202,31.851 1216.165,31.635 1225.438,31.635 C1236.028,31.635 1245.399,31.923 1253.289,32.491 C1253.838,32.538 1253.854,33.037 1253.869,33.521 C1253.884,34.005 1253.898,34.499 1254.448,34.537 C1257.5071,32.8016968 1260.93432,31.8170581 1264.448,31.664 C1266.81542,31.6130009 1269.13144,32.3581285 1271.025,33.78 C1270.66934,33.4246841 1270.52688,32.9084302 1270.65,32.421 C1270.865,31.889 1271.665,31.571 1272.792,31.571 C1273.861,31.571 1275.155,31.9 1275.445,32.51 C1275.53408,32.7043331 1275.51748,32.9307409 1275.401,33.11 C1277.28997,32.4380582 1279.28554,32.1157991 1281.29,32.159 C1285.1465,32.3200662 1288.97853,32.8521895 1292.733,33.748 L1292.749,33.748 L1292.799,33.758 C1294.705,34.147 1297.078,34.63 1299.258,34.946 L1301.785,34.839 C1301.965,34.849 1302.167,34.854 1302.385,34.854 C1303.132,34.854 1303.878,34.792 1304.579,34.729 L1309.714,34.517 C1310.87401,34.1433839 1311.97027,33.5950834 1312.965,32.891 L1312.981,32.899 C1313.95524,33.4074212 1314.95676,33.8617765 1315.981,34.26 L1318.867,34.14 C1318.87959,34.3432293 1318.83489,34.545913 1318.738,34.725 L1318.738,34.735 L1318.708,34.802 C1319.61032,34.8679123 1320.44195,34.3119819 1320.726,33.453 C1321.3144,33.6728128 1321.88998,33.9255452 1322.45,34.21 L1322.75,34.146 L1322.782,34.138 L1322.801,34.138 L1322.811,34.138 L1322.819,34.138 L1322.85,34.131 C1323.05,34.088 1323.341,34.024 1323.626,33.952 L1327.535,33.782 C1327.63156,34.1793962 1327.68454,34.5861288 1327.693,34.995 C1328.26784,34.6879132 1328.87055,34.436116 1329.493,34.243 C1329.50847,34.2187431 1329.52658,34.1962731 1329.547,34.176 C1329.56372,34.1575871 1329.57846,34.137478 1329.591,34.116 C1329.60885,34.1180263 1329.62545,34.1261503 1329.638,34.139 C1329.64865,34.1514908 1329.66302,34.1602503 1329.679,34.164 C1330.4521,33.9271712 1331.23932,33.7391344 1332.036,33.601 L1333.475,33.542 C1334.54013,32.3473562 1336.08256,31.6899823 1337.682,31.749 C1337.9,31.749 1338.126,31.758 1338.356,31.776 C1339.31924,32.1940141 1340.25159,32.6799028 1341.146,33.23 L1341.488,33.215 L1341.567,33.215 L1341.689,33.215 C1342.317,33.199 1342.836,33.18 1343.331,33.138 L1348.489,32.921 C1348.61064,33.3601883 1348.66988,33.8143048 1348.665,34.27 C1349.08066,33.8818252 1349.41483,33.4147358 1349.648,32.896 L1349.654,32.885 L1349.66,32.873 L1401.313,30.739 C1402.303,30.779 1403.336,30.782 1404.336,30.786 L1404.536,30.786 C1405.778,30.791 1407.062,30.796 1408.209,30.874 C1408.752,30.913 1408.773,31.435 1408.793,31.94 C1408.813,32.445 1408.821,32.968 1409.372,33.007 C1413.106,30.923 1416.516,29.867 1419.51,29.867 C1421.83764,29.8225195 1424.10939,30.5822407 1425.942,32.018 C1425.57444,31.6297019 1425.43574,31.0779503 1425.576,30.562 C1425.849,29.902 1426.884,29.662 1427.763,29.662 C1428.817,29.662 1430.043,29.986 1430.347,30.604 C1430.44863,30.8134186 1430.43695,31.0601158 1430.316,31.259 C1432.28138,30.501719 1434.37637,30.1378318 1436.482,30.188 C1440.24059,30.3425757 1443.97569,30.8572653 1447.636,31.725 L1447.68,31.734 L1447.688,31.734 L1447.7,31.734 C1451.37251,32.60678 1455.12041,33.1244946 1458.892,33.28 C1462.10525,33.4384619 1465.2745,32.4814319 1467.863,30.571 L1467.892,30.586 C1469.307,31.322 1471.677,32.555 1473.448,32.555 C1474.43293,32.6461862 1475.34453,32.0271373 1475.623,31.078 C1476.4312,31.3954348 1477.21962,31.7610922 1477.984,32.173 L1478.02,32.19 C1479.17787,32.9225367 1480.48399,33.3887626 1481.844,33.555 C1483.0223,33.50785 1484.0595,32.7639618 1484.482,31.663 C1485.573,31.711 1485.644,33.791 1485.682,34.79 L1485.682,34.81 C1486.035,34.322 1486.346,33.849 1486.688,33.326 L1486.721,33.276 L1486.731,33.261 L1486.743,33.239 C1488.199,31.004 1489.457,29.075 1492.669,29.075 C1492.858,29.075 1493.053,29.082 1493.246,29.095 C1494.98843,29.8927385 1496.6481,30.8600698 1498.201,31.983 L1498.208,31.988 L1498.234,32.005 L1498.264,32.025 C1499.17631,32.6679143 1500.12052,33.2643407 1501.093,33.812 C1501.19531,33.7114415 1501.33163,33.6529199 1501.475,33.648 C1501.76,33.648 1502.04,33.92 1502.186,34.34 C1503.01785,34.6965696 1503.89144,34.9465512 1504.786,35.084 C1505.68655,34.9603951 1506.57481,34.7596571 1507.441,34.484 C1507.768,33.77 1509.657,33.043 1511.187,33.043 C1511.929,33.043 1513.187,33.222 1513.287,34.425 L1513.3,34.425 L1513.313,34.425 L1513.33,34.425 L1513.353,34.42 L1513.361,34.42 C1513.381,34.42 1513.398,34.413 1513.418,34.408 C1514.63347,33.1601524 1516.26616,32.4039756 1518.004,32.284 C1518.11241,32.8329484 1518.26354,33.3725897 1518.456,33.898 C1519.238,33.906 1520.042,33.94 1520.687,33.967 L1520.75,33.967 L1520.76,33.967 L1520.842,33.967 L1520.889,33.967 L1520.9,33.967 C1521.654,33.998 1522.592,34.038 1523.508,34.038 C1525.41944,34.1256276 1527.32572,33.7764518 1529.082,33.017 C1530.147,33.117 1530.175,34.101 1530.202,35.054 C1530.62539,34.6645517 1530.96555,34.193423 1531.202,33.669 L1531.211,33.654 C1531.44567,33.1407316 1531.77588,32.6768121 1532.184,32.287 C1541.936,31.86 1551.302,31.644 1560.021,31.644 C1569.977,31.644 1578.787,31.932 1586.207,32.5 C1586.724,32.547 1586.739,33.048 1586.753,33.533 C1586.767,34.018 1586.782,34.507 1587.298,34.546 C1590.14305,32.8201713 1593.37425,31.8325941 1596.698,31.673 C1598.94408,31.6288653 1601.13379,32.3781264 1602.882,33.789 C1602.53626,33.416676 1602.40698,32.8923729 1602.54,32.402 C1602.757,31.887 1603.506,31.58 1604.54,31.58 C1605.46681,31.4699426 1606.3902,31.8109586 1607.023,32.497 C1607.12123,32.6961589 1607.11028,32.9318099 1606.994,33.121 C1608.75968,32.4526624 1610.63752,32.130467 1612.525,32.172 C1616.17012,32.3358903 1619.78893,32.8720108 1623.325,33.772 C1626.86307,34.6721601 1630.48389,35.2082801 1634.131,35.372 C1637.05823,35.5110791 1639.94405,34.6377765 1642.303,32.899 L1642.313,32.904 C1643.657,33.631 1645.913,34.847 1647.59,34.847 C1648.50501,34.9269858 1649.34829,34.3470496 1649.601,33.464 C1650.38077,33.7837651 1651.14108,34.149061 1651.878,34.558 C1652.128,34.69 1652.385,34.825 1652.637,34.958 C1653.808,34.81 1655.011,34.623 1656.047,34.458 L1656.119,34.446 L1656.182,34.436 L1656.37,34.408 C1656.787,34.343 1657.359,34.253 1657.891,34.176 C1657.89821,34.1644483 1657.90623,34.1534208 1657.915,34.143 C1657.92119,34.1369326 1657.92627,34.1298246 1657.93,34.122 C1657.948,34.122 1657.956,34.131 1657.971,34.145 C1657.97739,34.1526958 1657.9862,34.1579864 1657.996,34.16 C1658.928,34.025 1660.153,33.86 1661.365,33.802 C1662.33415,32.4726353 1663.89657,31.706766 1665.541,31.755 C1665.741,31.755 1665.957,31.764 1666.171,31.782 C1667.66628,32.4858636 1669.08878,33.3349425 1670.418,34.317 C1670.97792,34.1291906 1671.50003,33.8434186 1671.96,33.473 C1673.019,33.543 1673.049,34.507 1673.08,35.527 C1675.44306,34.3156281 1678.08127,33.7417289 1680.734,33.862 C1681.712,33.862 1682.705,33.903 1683.434,33.932 L1683.496,33.932 L1683.515,33.932 C1684.46,33.971 1685.315,34.002 1686.188,34.002 L1686.404,34.002 C1686.35414,33.7612768 1686.24675,33.5362008 1686.091,33.346 C1686.07,33.319 1686.058,33.304 1686.061,33.289 C1686.10072,33.2988528 1686.13928,33.3129332 1686.176,33.331 L1686.197,33.34 C1686.77844,33.5720953 1687.37315,33.7694429 1687.978,33.931 C1689.26346,33.8656763 1690.52451,33.5547411 1691.693,33.015 C1692.757,33.115 1692.785,34.099 1692.811,35.052 C1693.23471,34.6620589 1693.57491,34.1902087 1693.811,33.665 C1694.04544,33.1462609 1694.37786,32.6776809 1694.79,32.285 C1704.546,31.858 1713.913,31.642 1722.63,31.642 C1732.584,31.642 1741.394,31.93 1748.817,32.498 C1749.334,32.545 1749.348,33.045 1749.362,33.529 C1749.376,34.013 1749.388,34.505 1749.906,34.543 C1752.751,32.8170546 1755.98223,31.8294681 1759.306,31.67 C1761.55167,31.6265314 1763.74084,32.37573 1765.489,33.786 C1765.14308,33.414581 1765.01373,32.8907441 1765.147,32.401 C1765.364,31.885 1766.113,31.577 1767.147,31.577 C1768.0735,31.4671082 1768.99651,31.8081233 1769.629,32.494 C1769.72579,32.6935634 1769.71448,32.9286419 1769.599,33.118 C1771.36694,32.447554 1773.24767,32.1246482 1775.138,32.167 C1778.774,32.3298273 1782.38396,32.8625766 1785.912,33.757 L1785.954,33.766 C1787.854,34.178 1790.004,34.644 1792.032,34.956 L1794.407,34.849 C1794.576,34.859 1794.766,34.864 1794.973,34.864 C1795.673,34.864 1796.373,34.802 1797.033,34.739 L1801.866,34.527 C1802.96221,34.1503515 1803.99093,33.6003708 1804.913,32.898 C1805.83218,33.4101658 1806.78046,33.8682772 1807.753,34.27 L1810.467,34.15 C1810.48028,34.3513893 1810.43845,34.5525918 1810.346,34.732 L1810.346,34.742 L1810.318,34.812 C1811.1891,34.8627745 1811.97874,34.3021327 1812.218,33.463 C1812.77215,33.6846326 1813.31334,33.9373679 1813.839,34.22 L1814.005,34.182 L1814.033,34.175 L1814.066,34.168 L1814.152,34.148 L1814.261,34.123 L1814.284,34.123 L1814.323,34.114 C1814.515,34.069 1814.732,34.014 1814.94,33.961 L1818.617,33.791 C1818.70798,34.1891337 1818.75724,34.5956599 1818.764,35.004 C1819.30214,34.6966982 1819.87004,34.4447433 1820.459,34.252 C1820.4665,34.2385723 1820.4752,34.2258534 1820.485,34.214 L1820.494,34.202 L1820.503,34.192 C1820.52209,34.1722772 1820.53795,34.1496659 1820.55,34.125 C1820.56751,34.1276793 1820.58348,34.1365497 1820.595,34.15 C1820.60562,34.1611328 1820.61912,34.1690958 1820.634,34.173 C1821.35886,33.9369874 1822.09845,33.7489147 1822.848,33.61 L1824.2,33.551 C1825.16974,32.3716782 1826.63195,31.709285 1828.158,31.758 C1828.358,31.758 1828.576,31.767 1828.791,31.785 C1829.70037,32.2048342 1830.57773,32.6908046 1831.416,33.239 L1831.738,33.224 L1831.81,33.224 L1831.924,33.224 C1832.516,33.208 1833.005,33.189 1833.47,33.147 L1838.32,32.93 C1838.43244,33.3707847 1838.48822,33.824106 1838.486,34.279 C1838.88125,33.8836176 1839.19546,33.4148414 1839.411,32.899 L1839.42,32.882 L1887.983,30.748 C1888.912,30.788 1889.883,30.791 1890.824,30.795 L1891.007,30.795 C1892.175,30.8 1893.383,30.805 1894.462,30.883 C1894.977,30.922 1894.993,31.447 1895.008,31.954 C1895.023,32.461 1895.038,32.977 1895.553,33.015 C1899.064,30.931 1902.271,29.875 1905.086,29.875 C1907.29535,29.8378132 1909.44344,30.6019167 1911.133,32.026 C1910.77294,31.6213507 1910.64706,31.0596069 1910.8,30.54 C1911.034,29.998 1911.8,29.674 1912.845,29.674 C1913.814,29.674 1914.956,29.989 1915.263,30.591 C1915.37181,30.8063534 1915.36466,31.0620583 1915.244,31.271 C1917.082,30.5151545 1919.05727,30.1504094 1921.044,30.2 C1924.59539,30.3560051 1928.12162,30.8736818 1931.568,31.745 L1931.581,31.745 L1931.591,31.745 C1935.03706,32.6163771 1938.56293,33.1343852 1942.114,33.291 C1944.1183,33.3390746 1946.27587,32.7272656 1948.12563,31.954 L1948.201,3.425 C1945.89435,3.47206732 1939.65834,3.16159348 1937.835,1.748 C1938.17964,2.10956925 1938.31678,2.62157402 1938.199,3.107 C1937.991,3.639 1937.214,3.956 1936.12,3.956 C1935.082,3.956 1933.827,3.627 1933.546,3.017 C1933.45845,2.82273108 1933.47384,2.59755392 1933.587,2.417 C1931.76065,3.08575068 1929.82549,3.40759944 1927.881,3.366 C1924.14574,3.20451965 1920.43564,2.67359651 1916.805,1.781 L1916.771,1.774 L1916.719,1.762 L1916.692,1.762 C1913.03891,0.857512558 1909.30481,0.319187946 1905.545,0.155 C1902.53537,0.0124250905 1899.56481,0.882785829 1897.108,2.627 L1897.101,2.627 C1895.714,1.901 1893.393,0.685 1891.653,0.685 C1890.72071,0.597069024 1889.85441,1.17460671 1889.577,2.069 C1888.79331,1.75800416 1888.02836,1.40173716 1887.286,1.002 L1887.242,0.979 L1887.012,0.862 C1886.812,0.762 1886.62,0.662 1886.441,0.574 C1885.294,0.711 1884.088,0.894 1883.119,1.04 L1883.099,1.04 L1882.953,1.062 L1882.93,1.062 L1882.68,1.101 L1882.598,1.114 L1881.881,1.219 L1881.565,1.266 L1881.444,1.284 L1881.019,1.347 C1881.01292,1.35606784 1881.00588,1.36445016 1880.998,1.372 C1880.99043,1.38158964 1880.98342,1.39160614 1880.977,1.402 C1880.96451,1.39942528 1880.95324,1.39273519 1880.945,1.383 C1880.93387,1.37405997 1880.92138,1.36696928 1880.908,1.362 C1879.95,1.498 1878.689,1.662 1877.433,1.72 C1876.41339,3.05968736 1874.80759,3.8219557 1873.125,3.765 C1872.925,3.765 1872.704,3.757 1872.474,3.742 C1870.93412,3.0399795 1869.46592,2.19033944 1868.09,1.205 C1867.51484,1.3921795 1866.97652,1.67774931 1866.499,2.049 C1865.9913,2.05456308 1865.5538,1.6927231 1865.464,1.193 C1860.614,1.728 1855.589,2.206 1850.729,2.668 L1850.714,2.668 L1850.178,2.719 L1849.9,2.746 L1849.886,2.746 L1849.796,2.754 L1849.783,2.754 L1849.696,2.761 L1849.587,2.773 C1842.549,3.438 1835.278,4.125 1829.618,4.9 C1829.649,5.886 1829.68,6.884 1829.71,7.87 C1828.569,7.606 1827.189,7.235 1825.854,6.876 L1825.719,6.839 L1825.699,6.839 C1821.91,5.82 1817.199,4.553 1814.235,4.553 C1812.693,4.553 1811.764,4.882 1811.394,5.553 C1811.13718,6.18053223 1811.16788,6.88902845 1811.478,7.492 C1810.14367,6.91966119 1808.63096,6.9305362 1807.305,7.522 L1807.283,7.53 L1807.223,7.552 C1806.61811,7.81594612 1805.96942,7.96514729 1805.31,7.992 C1805.238,7.992 1805.166,7.992 1805.071,7.983 C1805.041,7.022 1805.009,6.028 1802.849,5.849 C1802.52582,6.17460118 1802.26277,6.55478857 1802.072,6.972 L1802.066,6.984 C1801.653,7.759 1801.226,8.56 1800,8.56 C1799.90414,8.55983653 1799.80835,8.55483015 1799.713,8.545 C1799.655,6.64 1798.647,6.545 1797.579,6.455 L1797.493,6.446 C1796.20548,6.73023369 1794.88939,6.8644605 1793.571,6.846 C1792.783,6.846 1792.035,6.811 1791.54,6.784 C1791.632,6.584 1791.715,6.411 1791.785,6.264 L1791.805,6.222 L1791.816,6.197 L1791.856,6.115 L1791.872,6.082 L1791.915,5.992 L1791.942,5.935 L1791.968,5.879 L1791.979,5.856 C1792.106,5.585 1792.238,5.304 1792.366,5.02 C1792.266,4.896 1792.173,4.779 1792.085,4.669 L1791.963,4.517 L1791.932,4.48 L1791.88,4.415 L1791.873,4.405 L1791.837,4.361 C1791.528,3.978 1791.237,3.616 1791.007,3.269 C1789.7,3.193 1788.413,3.108 1787.179,3.015 C1786.646,2.968 1786.631,2.471 1786.617,1.99 C1786.603,1.509 1786.588,1.008 1786.055,0.972 C1783.10212,2.70068551 1779.77313,3.68531153 1776.355,3.841 C1774.04834,3.88814852 1771.7953,3.14266596 1769.972,1.729 C1770.31717,2.09027959 1770.45471,2.60240087 1770.337,3.088 C1770.127,3.62 1769.349,3.937 1768.258,3.937 C1767.22,3.937 1765.965,3.608 1765.684,2.998 C1765.59741,2.80333761 1765.61354,2.57832563 1765.727,2.398 C1763.89718,3.06675117 1761.95875,3.38858035 1760.011,3.347 C1756.25017,3.18441423 1752.51481,2.6484467 1748.86,1.747 L1748.738,1.722 L1748.708,1.722 C1746.691,1.301 1744.608,0.865 1742.576,0.564 L1740.123,0.669 C1739.946,0.659 1739.75,0.654 1739.54,0.654 C1738.825,0.654 1738.096,0.716 1737.41,0.779 L1732.429,1.002 C1731.30066,1.3749072 1730.23875,1.9247649 1729.283,2.631 L1729.274,2.631 L1729.233,2.612 C1728.29704,2.10987297 1727.33389,1.66017882 1726.348,1.265 L1723.548,1.385 C1723.53547,1.17941952 1723.58049,0.974415258 1723.678,0.793 L1723.707,0.725 C1722.82035,0.666598693 1722.00968,1.22483957 1721.748,2.074 C1721.17732,1.85070826 1720.61857,1.59803714 1720.074,1.317 C1720.039,1.326 1720.001,1.334 1719.966,1.34 L1719.956,1.34 L1719.935,1.345 L1719.854,1.36 L1719.79,1.377 L1719.757,1.377 L1719.739,1.384 C1719.439,1.447 1719.187,1.503 1718.939,1.573 L1715.146,1.743 C1715.05294,1.34443743 1715.002,0.937204189 1714.994,0.528 C1714.43748,0.835543548 1713.85198,1.08743023 1713.246,1.28 C1713.23581,1.29901576 1713.22302,1.3165177 1713.208,1.332 L1713.201,1.342 C1713.18129,1.36189026 1713.16446,1.38444252 1713.151,1.409 C1713.13486,1.40612866 1713.12011,1.39805006 1713.109,1.386 C1713.09788,1.37288434 1713.08278,1.3637557 1713.066,1.36 C1712.31635,1.59537688 1711.55247,1.78275637 1710.779,1.921 L1709.379,1.98 C1708.36185,3.16855718 1706.85838,3.82862747 1705.295,3.773 C1705.095,3.773 1704.871,3.765 1704.642,3.748 C1703.70496,3.33055058 1702.80014,2.8442182 1701.935,2.293 L1701.603,2.31 L1701.526,2.31 C1700.88,2.327 1700.343,2.343 1699.815,2.389 L1694.808,2.608 C1694.70653,2.25405934 1694.65273,1.88816707 1694.648,1.52 L1694.5,1.535 L1694.353,1.552 C1694.08162,1.88317559 1693.85563,2.24906841 1693.681,2.64 L1693.672,2.656 L1674.615,3.468 C1669.005,4.019 1665.049,4.468 1661.788,4.91 L1661.829,6.24 L1661.85,6.94 L1661.85,7.085 L1661.874,7.879 C1660.784,7.627 1659.438,7.266 1658.136,6.916 L1658.128,6.916 L1658.049,6.895 L1658.026,6.89 L1657.898,6.855 L1657.884,6.85 L1657.865,6.845 C1654.50973,5.84235765 1651.08275,5.09752351 1647.614,4.617 L1644.756,4.739 C1644.25817,4.83327917 1643.82278,5.13224071 1643.556,5.563 C1643.29959,6.19060311 1643.33027,6.89892264 1643.64,7.502 C1642.30422,6.92925065 1640.78985,6.94085224 1639.463,7.534 L1639.445,7.541 L1639.387,7.563 C1638.78141,7.82588071 1638.1326,7.97503289 1637.473,8.003 C1637.403,8.003 1637.331,8.003 1637.234,7.994 C1637.204,7.033 1637.172,6.039 1635.012,5.86 C1634.68936,6.18664337 1634.42609,6.56699592 1634.234,6.984 L1634.234,6.992 C1633.821,7.768 1633.393,8.57 1632.167,8.57 C1632.07148,8.56981307 1631.97602,8.56480671 1631.881,8.555 C1631.822,6.65 1630.814,6.555 1629.747,6.465 L1629.661,6.456 C1628.31535,6.75545144 1626.93944,6.89740482 1625.561,6.879 C1624.638,6.879 1623.716,6.83 1623.043,6.793 L1622.984,6.793 L1622.954,6.793 L1622.835,6.784 L1622.814,6.784 L1622.781,6.784 L1622.656,6.779 C1621.996,6.745 1621.248,6.706 1620.556,6.706 C1619.72282,6.68908897 1618.8906,6.77167294 1618.077,6.952 L1618.087,6.94 L1618.175,6.771 C1618.34,6.458 1618.508,6.133 1618.682,5.797 C1618.42,5.8445807 1618.15428,5.86867634 1617.888,5.869 C1616.865,5.869 1615.674,5.545 1615.381,4.925 C1615.28472,4.71520637 1615.29628,4.47172925 1615.412,4.272 C1613.51096,5.028878 1611.47659,5.39384692 1609.431,5.345 C1605.78205,5.18756694 1602.15752,4.67073344 1598.61,3.802 L1598.597,3.802 L1598.579,3.802 L1598.56,3.802 L1598.55,3.797 L1598.54,3.797 L1598.525,3.797 C1594.97259,2.92998567 1591.34339,2.41516449 1587.69,2.26 C1584.55896,2.10508387 1581.47435,3.0649063 1578.984,4.969 L1578.966,4.958 C1577.589,4.22 1575.285,2.984 1573.566,2.984 C1572.59805,2.90217629 1571.70985,3.52361908 1571.455,4.461 C1570.66884,4.14432209 1569.90333,3.77860284 1569.163,3.366 L1569.139,3.353 C1568.01812,2.6226826 1566.74687,2.1547261 1565.42,1.984 C1564.26281,2.0411066 1563.25306,2.78747225 1562.859,3.877 C1561.8,3.829 1561.732,1.748 1561.699,0.749 L1561.699,0.729 C1561.34,1.239 1560.991,1.791 1560.736,2.193 L1560.727,2.208 L1560.719,2.225 L1560.684,2.28 L1560.675,2.293 C1559.261,4.531 1558.04,6.464 1554.92,6.464 C1554.711,6.464 1554.527,6.457 1554.359,6.444 C1552.66384,5.64385642 1551.05284,4.67638712 1549.55,3.556 L1549.533,3.543 L1549.508,3.526 C1548.61754,2.87987255 1547.69503,2.27910805 1546.744,1.726 C1546.64672,1.82615538 1546.51453,1.88490343 1546.375,1.89 C1546.097,1.89 1545.826,1.619 1545.684,1.2 C1544.87789,0.842913183 1544.02877,0.592144862 1543.158,0.454 C1542.28315,0.576717932 1541.42104,0.777519594 1540.582,1.054 C1540.263,1.767 1538.427,2.493 1536.945,2.493 C1536.225,2.493 1535.004,2.314 1534.91,1.111 C1534.88892,1.11650368 1534.86756,1.12084357 1534.846,1.124 L1534.825,1.131 L1534.811,1.131 C1534.80156,1.13183721 1534.79238,1.13455737 1534.784,1.139 C1533.61783,2.37852479 1532.02926,3.13570222 1530.332,3.261 C1530.22812,2.7125482 1530.08202,2.17294236 1529.895,1.647 C1529.152,1.638 1528.378,1.607 1527.756,1.582 L1527.738,1.582 L1527.578,1.575 L1527.551,1.575 L1527.53,1.575 L1527.502,1.575 C1526.641,1.538 1525.828,1.504 1524.991,1.504 C1523.13283,1.41755089 1521.28026,1.76792489 1519.582,2.527 C1518.549,2.427 1518.522,1.444 1518.497,0.494 C1518.08587,0.880940473 1517.75816,1.34782829 1517.534,1.866 L1517.526,1.881 C1517.29909,2.39476244 1516.97749,2.86121785 1516.578,3.256 C1507.092,3.683 1498.003,3.899 1489.565,3.899 C1479.906,3.899 1471.357,3.611 1464.156,3.043 C1463.656,2.996 1463.64,2.5 1463.626,2.021 C1463.612,1.542 1463.598,1.036 1463.096,1 C1460.35035,2.71988248 1457.20983,3.70762068 1453.974,3.869 C1451.78506,3.90967439 1449.65483,3.15983271 1447.974,1.757 C1448.31008,2.13289604 1448.43482,2.65250063 1448.306,3.14 C1448.096,3.656 1447.37,3.964 1446.363,3.964 C1445.45801,4.07039998 1444.55804,3.72847794 1443.952,3.048 C1443.85884,2.84805641 1443.87005,2.61506671 1443.982,2.425 C1442.27312,3.09228053 1440.44909,3.41480842 1438.615,3.374 C1435.08165,3.21115145 1431.57546,2.67483149 1428.155,1.774 L1428.13,1.768 L1428.103,1.761 L1428.094,1.761 C1424.67795,0.860844253 1421.17668,0.322548689 1417.648,0.155 C1414.79586,0.0204355686 1411.98759,0.895741177 1409.717,2.627 L1409.7,2.617 C1408.4,1.893 1406.22,0.682 1404.587,0.682 C1403.68726,0.609783284 1402.86518,1.19294894 1402.636,2.066 C1401.89117,1.75101864 1401.16587,1.39170864 1400.464,0.99 L1400.43,0.972 C1400.185,0.838 1399.93,0.703 1399.688,0.572 C1398.665,0.704 1397.566,0.879 1396.688,1.019 L1396.449,1.057 L1396.385,1.067 L1396.314,1.079 C1395.798,1.163 1395.214,1.254 1394.594,1.353 C1394.58893,1.36334505 1394.58178,1.37253556 1394.573,1.38 C1394.56616,1.38856674 1394.56044,1.39797711 1394.556,1.408 C1394.54255,1.40460836 1394.5306,1.39687533 1394.522,1.386 C1394.51339,1.37793664 1394.50317,1.37180034 1394.492,1.368 C1393.586,1.504 1392.392,1.668 1391.223,1.726 C1390.30139,3.04479372 1388.77936,3.81294416 1387.171,3.771 C1386.981,3.771 1386.771,3.763 1386.56,3.748 C1385.10536,3.04152781 1383.72485,2.1916499 1382.439,1.211 C1381.89328,1.40199301 1381.38551,1.6876989 1380.939,2.055 C1379.907,1.987 1379.882,1.024 1379.855,0.005 L1379.852,0.002 Z" id="Subtraction_301" fill="#255684" fill-rule="nonzero" transform="translate(974.100500, 19.505000) rotate(180.000000) translate(-974.100500, -19.505000) "></path>
    </g>
</svg>