<?xml version="1.0" encoding="UTF-8"?>
<svg width="400px" height="13px" viewBox="0 0 400 13" version="1.1" xmlns="http://www.w3.org/2000/svg" xmlns:xlink="http://www.w3.org/1999/xlink">
    <title>Subtraction_333</title>
    <g id="Page-1" stroke="none" stroke-width="1" fill="none" fill-rule="evenodd">
        <path d="M280.057423,0.55502031 C279.889302,0.55502031 279.727731,0.55502031 279.605461,0.537707175 L279.323803,0.687032962 C278.87393,0.94203701 278.363871,1.0742149 277.845645,1.07008607 C277.664545,1.06922627 277.483686,1.05693794 277.304163,1.03329566 L277.275779,1.08307092 C275.339108,1.22590428 273.485407,1.2994851 271.762709,1.2994851 C270.029834,1.31301553 268.297837,1.21760178 266.577148,1.01381838 C266.474528,0.998669386 266.472345,0.832030464 266.470161,0.671883969 C266.467978,0.511737473 266.470161,0.345098552 266.363175,0.332113701 C265.883525,0.867698467 265.220897,1.20842481 264.502923,1.28866439 C264.001561,1.27231271 263.541747,1.00827986 263.278039,0.585318295 C263.348892,0.72811067 263.372573,0.889393965 263.345724,1.04628051 C263.298587,1.22167321 263.130697,1.33779541 262.948346,1.32112652 C262.735909,1.33283449 262.539084,1.21057904 262.457083,1.01598252 C262.434059,0.945649473 262.434059,0.869901384 262.457083,0.799568337 C262.13446,1.01331 261.753357,1.12361075 261.365386,1.11553304 C260.627248,1.05718171 259.904092,0.8772553 259.225659,0.583154153 L259.203825,0.583154153 C258.815181,0.442484934 258.413437,0.297487431 258.029159,0.197936907 L257.548813,0.217414183 L257.437459,0.217414183 C257.300469,0.220254208 257.163933,0.234004726 257.029165,0.258532878 L256.072838,0.329949559 C255.838695,0.471056175 255.634109,0.655470381 255.470221,0.873149159 C255.294065,0.707379147 255.10578,0.554751428 254.906906,0.416515232 L254.365424,0.459798069 C254.36254,0.393293462 254.370653,0.326769223 254.389441,0.262861162 L254.389441,0.239055602 C254.192936,0.249876311 254.070666,0.397037956 254.013897,0.689197103 C253.907064,0.610924811 253.805669,0.525608795 253.710406,0.433828367 L253.686388,0.433828367 L253.668921,0.433828367 L253.651454,0.433828367 C253.601236,0.453305643 253.548834,0.47278292 253.496433,0.498752622 L252.769363,0.55502031 C252.751592,0.420821245 252.742114,0.285671137 252.740978,0.150325787 C252.641654,0.260434118 252.526958,0.35590095 252.400369,0.433828367 L252.400369,0.451141502 C252.39964,0.458337182 252.39964,0.465587239 252.400369,0.47278292 C252.261466,0.549162787 252.115172,0.611514737 251.96369,0.658899118 L251.651465,0.65024255 C251.433125,1.06359364 251.190769,1.2475457 250.867626,1.2475457 C250.826181,1.25005742 250.784618,1.25005742 250.743173,1.2475457 C250.553873,1.1022389 250.377799,0.940752003 250.216975,0.764942068 L250.153656,0.764942068 L250.138373,0.764942068 C250.028821,0.767946866 249.919503,0.776615217 249.810863,0.79091177 L248.85017,0.864492592 C248.827498,0.715513613 248.816548,0.565012841 248.817419,0.41435109 C248.734275,0.556945972 248.672494,0.710766642 248.634014,0.870985017 L239.02708,1.58082354 C238.848041,1.56783869 238.653719,1.56567455 238.468131,1.56567455 L238.44848,1.56567455 C238.213787,1.56904828 237.979083,1.55965622 237.745427,1.5375407 C237.642808,1.52455585 237.640624,1.3514245 237.636257,1.18262144 C237.631891,1.01381838 237.636257,0.83852289 237.527088,0.825538039 C237.057817,1.40208151 236.38193,1.77658943 235.640635,1.87081855 C235.144819,1.84936485 234.694036,1.57948543 234.444135,1.1544876 C234.517456,1.30890608 234.540353,1.48214848 234.509637,1.65007608 C234.463476,1.83058057 234.293038,1.95203185 234.105709,1.93790694 C233.899468,1.95093131 233.706888,1.83519207 233.623179,1.64791194 C233.602908,1.5771729 233.602908,1.50223679 233.623179,1.43149775 C233.290783,1.67323759 232.886858,1.79882698 232.474714,1.78858116 C231.760281,1.73314167 231.060086,1.56055054 230.402672,1.27784368 L230.385205,1.27784368 C229.725106,0.993693424 229.021918,0.820360511 228.304431,0.764942068 C227.626915,0.756177239 226.993824,1.09823106 226.634134,1.66738921 C226.372127,1.42067704 225.931081,1.01814666 225.599205,1.01814666 C225.380866,1.01814666 225.254229,1.18478558 225.195277,1.511571 C225.040416,1.40259158 224.89441,1.28175111 224.758598,1.15015931 C224.630379,1.0255507 224.492393,0.911214337 224.345937,0.808224904 L224.345937,1.45746745 C224.059912,1.36440936 223.824106,1.15015931 223.811005,0.9683714 C223.804414,0.896160287 223.834741,0.825474896 223.891791,0.78009106 L223.86559,0.78009106 C223.710532,0.933789403 223.604921,1.12959612 223.562098,1.34276794 C223.459479,1.34276794 223.391794,1.14799517 223.361226,0.79091177 C223.281541,0.807501494 223.203393,0.830666373 223.127603,0.860164308 C222.876513,1.5526897 222.638523,2.20626053 222.035906,2.20626053 C222.000286,2.20870984 221.964539,2.20870984 221.92892,2.20626053 C221.878702,2.16730598 221.821933,2.121859 221.760798,2.06775545 C221.517437,2.34914457 221.243594,2.60315445 220.944209,2.82520509 C220.904938,2.82739802 220.865576,2.82739802 220.826306,2.82520509 C220.171287,2.82520509 219.920197,2.17596254 219.625439,1.43799018 C219.56212,1.27567954 219.487885,1.08956334 219.407099,0.914267854 C219.407099,1.2475457 219.385265,1.94223523 219.164743,1.95738422 C219.029372,1.52455585 218.854701,1.32761894 218.629811,1.32761894 C218.330311,1.39618213 218.059557,1.55493423 217.854706,1.78208873 C217.69703,1.90032536 217.530625,2.00666691 217.356892,2.10021758 C217.29139,1.77343216 217.138553,1.60679324 216.920213,1.60679324 C216.559953,1.60679324 216.079607,2.01798019 215.791399,2.25603579 C215.371549,1.67884902 214.690215,1.34564453 213.972631,1.3665735 C213.197259,1.42151874 212.435052,1.59451423 211.712818,1.87947511 C210.987274,2.16632683 210.221286,2.3400745 209.442088,2.39454087 C208.998576,2.40618341 208.562303,2.28144526 208.193187,2.03745747 C208.215349,2.10792316 208.215349,2.18340596 208.193187,2.25387165 C208.098304,2.45155081 207.891806,2.57230222 207.671356,2.55901565 C207.475746,2.57629801 207.294249,2.4566668 207.234677,2.27118478 C207.202355,2.10264478 207.227712,1.92823348 207.306729,1.7755963 C207.014615,2.2124624 206.525321,2.4800096 205.996692,2.49192725 C205.202903,2.41136441 204.466844,2.04388347 203.929018,1.4596316 C203.817665,1.47261645 203.815481,1.64574779 203.811115,1.81238672 C203.806748,1.97902564 203.811115,2.15648527 203.693211,2.16947012 C203.442074,2.19225925 203.18993,2.20237163 202.937757,2.1997681 L202.902823,2.1997681 C202.704134,2.1997681 202.494528,2.1997681 202.295839,2.2149171 L191.833014,1.50507857 C191.791033,1.34223178 191.724019,1.18675817 191.634325,1.04411636 C191.635531,1.19487228 191.623844,1.34545829 191.599391,1.49425787 L190.551362,1.41634876 C190.44052,1.40212955 190.329025,1.39346197 190.217302,1.39037906 L190.173634,1.39037906 L190.103766,1.39037906 C189.929595,1.56769519 189.740402,1.72987874 189.538267,1.87514683 C189.492452,1.87772833 189.446527,1.87772833 189.400713,1.87514683 C189.022415,1.85972762 188.688346,1.62599379 188.547006,1.27784368 L188.260981,1.26053055 C188.096818,1.21241007 187.937483,1.14938296 187.785001,1.07225021 C187.785731,1.06505453 187.785731,1.05780447 187.785001,1.05060879 C187.652928,0.965743701 187.530345,0.881346617 187.420374,0.782255202 C187.418521,0.917723842 187.407579,1.05292033 187.387623,1.18694973 L186.557934,1.14150275 L186.442214,1.09821991 L186.42038,1.09821991 L186.396362,1.09821991 L186.378895,1.09821991 L186.352695,1.09821991 L186.335227,1.09821991 C186.224764,1.18979052 186.108037,1.27367121 185.985884,1.34926036 C185.924749,1.05926536 185.789379,0.916431996 185.57759,0.899118861 L185.57759,0.922924422 C185.589083,0.975493959 185.592761,1.02944668 185.588507,1.08307092 L185.009907,1.03762394 C184.7952,1.17490905 184.590875,1.32752477 184.398557,1.49425787 C184.216807,1.2737941 183.994545,1.08947438 183.743539,0.951058265 L182.699876,0.881805727 C182.555524,0.857556004 182.409574,0.843813046 182.263197,0.840687032 L182.140927,0.840687032 L181.621279,0.808224904 C181.195517,0.909939571 180.747922,1.0614295 180.339627,1.19560629 L180.317793,1.19560629 L180.302509,1.19560629 C179.561486,1.49230128 178.778542,1.67335306 177.981561,1.73231347 C177.560843,1.74257289 177.146098,1.63209779 176.787245,1.41418462 C176.812043,1.48422884 176.812043,1.56055458 176.787245,1.6305988 C176.68982,1.8324709 176.477464,1.95446508 176.252313,1.93790694 C176.059099,1.96190769 175.875891,1.84659627 175.815634,1.66306093 C175.786734,1.50480751 175.812908,1.3415171 175.88987,1.19993458 C175.585119,1.63249879 175.090174,1.89467804 174.557999,1.90544481 C173.790527,1.8312676 173.073565,1.49279478 172.531809,0.948894124 C172.420456,0.961878975 172.418273,1.1285179 172.413906,1.28650025 C172.409539,1.4444826 172.413906,1.61544981 172.296003,1.6305988 C170.421823,1.83419036 168.537283,1.92957363 166.651929,1.91626552 C164.78076,1.91626552 162.763304,1.84484884 160.651962,1.69985134 C160.555843,1.56050188 160.482182,1.40717839 160.433622,1.24538155 C160.386801,1.08024069 160.313047,0.923800752 160.215283,0.782255202 C160.215283,1.09821991 160.202182,1.43149775 159.975109,1.45746745 C159.741242,1.28493533 159.464059,1.17938181 159.173804,1.15232346 C159.041544,1.20818428 158.913804,1.27402322 158.79171,1.34926036 L158.780793,1.36440936 C158.779482,1.35871137 158.779482,1.3527942 158.780793,1.34709622 C158.815978,1.27944806 158.838888,1.20619475 158.848478,1.13068204 L158.79826,1.13068204 C158.608305,1.13068204 158.416166,1.14150275 158.230577,1.15232346 L158.169442,1.15232346 C157.994771,1.15232346 157.811366,1.17396487 157.625777,1.17396487 C157.023957,1.20527668 156.43301,1.00615757 155.975131,0.617780423 C155.975131,0.955386549 155.962031,1.26702297 155.734958,1.2994851 C155.644979,1.18412931 155.53201,1.08836323 155.403082,1.01814666 C155.130837,1.33305581 154.823991,1.6168716 154.48824,1.86432612 C154.443152,1.86685825 154.397957,1.86685825 154.352869,1.86432612 C153.942936,1.83281067 153.590286,1.56471633 153.453311,1.1804573 C153.211079,1.16529643 152.970274,1.13274899 152.732791,1.08307092 L152.363797,0.985684535 L152.335413,0.985684535 L152.311396,0.985684535 C152.093056,0.935909273 151.841966,0.873149159 151.601793,0.825538039 L151.438038,0.957550691 C151.275868,1.08407958 151.104355,1.19837811 150.92494,1.2994851 C150.859439,0.994341102 150.706601,0.83852289 150.488262,0.83852289 C150.05459,0.94352313 149.660033,1.16871206 149.350713,1.48776544 C148.929917,0.955331651 148.279575,0.651892821 147.597448,0.669719827 C146.795456,0.726785033 146.007295,0.907120689 145.261216,1.20426286 C144.516866,1.4985946 143.730966,1.67672827 142.931534,1.73231347 C142.511771,1.74280399 142.097859,1.63310024 141.739401,1.41634876 C141.764375,1.48636328 141.764375,1.56274843 141.739401,1.63276294 C141.641976,1.83463505 141.429621,1.95662922 141.204469,1.94007108 C141.011255,1.96407183 140.828047,1.84876041 140.767791,1.66522507 C140.738537,1.50697561 140.764729,1.34356887 140.842026,1.20209872 C140.537276,1.63466293 140.042331,1.89684218 139.510156,1.90760896 C138.742683,1.83343175 138.025722,1.49495893 137.483966,0.951058265 C137.372613,0.964043116 137.368246,1.13068204 137.366062,1.29082853 C137.363879,1.45097503 137.366062,1.61977809 137.248159,1.63492709 C135.37747,1.83592651 133.496589,1.92914134 131.615002,1.91410138 C129.743833,1.91410138 127.726377,1.8426847 125.615035,1.6976872 C125.519289,1.55734542 125.445665,1.40336875 125.396695,1.24105327 C125.349324,1.07746169 125.275594,0.922532192 125.178356,0.782255202 C125.178356,1.10038405 125.167439,1.43149775 124.938183,1.46179574 C124.588498,1.21652933 124.164933,1.09668705 123.737316,1.12202547 C123.547361,1.12202547 123.361772,1.13284618 123.18055,1.14366689 L123.110682,1.14366689 C122.960028,1.14366689 122.805007,1.16314417 122.647802,1.16530831 C122.605478,1.34308728 122.572682,1.52296286 122.549549,1.70417962 C122.131919,1.62648345 121.772262,1.36548542 121.571389,0.994341102 L121.543005,0.994341102 C121.551125,1.11660708 121.506582,1.23655573 121.420427,1.32442676 C121.334271,1.41229778 121.214577,1.45985655 121.091042,1.45530331 C120.753924,1.45171498 120.445024,1.26800914 120.283186,0.974863826 C120.101547,0.885295247 119.909396,0.81841709 119.711137,0.775762777 C119.510866,0.824522654 119.320889,0.908049649 119.150005,1.02247495 C119.119437,1.16314417 119.058302,1.25403812 118.997167,1.25403812 C118.962356,1.25023825 118.931498,1.23011582 118.914198,1.19993458 C118.701646,1.38477977 118.499728,1.58130438 118.309398,1.78858116 L118.298481,1.80156601 C117.980171,2.16063159 117.622013,2.48296234 117.230801,2.76244498 C117.189346,2.76462879 117.147803,2.76462879 117.106348,2.76244498 C116.414212,2.76244498 116.143471,2.11320243 115.829062,1.37306592 C115.752643,1.18478558 115.682775,1.0203108 115.610723,0.855836025 C115.610723,1.18911387 115.588889,1.88163925 115.353082,1.89895239 C115.208978,1.46612402 115.021206,1.26918712 114.7854,1.26918712 C114.47137,1.33575318 114.184663,1.49404893 113.96226,1.7236569 C113.794259,1.86297853 113.615389,1.98889246 113.427328,2.10021758 C113.35746,1.77343216 113.208989,1.60679324 112.957899,1.60679324 C112.505484,1.70925326 112.090567,1.93398419 111.759215,2.25603579 C111.294651,1.67040956 110.575849,1.33991 109.824728,1.3665735 C109.003285,1.42113998 108.194227,1.5939181 107.422994,1.87947511 L107.40116,1.87947511 C106.629902,2.16494349 105.820857,2.33771879 104.999427,2.39237673 C104.530528,2.40460246 104.06828,2.28046714 103.66974,2.03529332 C103.693222,2.10555394 103.693222,2.18144689 103.66974,2.25170751 C103.56616,2.45913479 103.345783,2.58334168 103.112974,2.56550807 C102.90521,2.58519843 102.710653,2.46199421 102.641361,2.2668565 C102.610613,2.10111515 102.638369,1.92993413 102.719963,1.78208873 C102.397446,2.22399632 101.883696,2.48943215 101.333508,2.49841968 C100.504242,2.41567573 99.7310395,2.04551184 99.1501138,1.45313917 C99.0322105,1.46612402 99.0278437,1.63925537 99.0256603,1.80589429 C99.0234769,1.97253321 99.0147434,2.16514183 98.9077571,2.16514183 C98.6479331,2.19327568 98.3466247,2.19327568 98.104268,2.19543982 L98.0671503,2.19543982 C97.8488109,2.19543982 97.6304714,2.19543982 97.412132,2.21058881 L86.2768216,1.50075029 C86.2288743,1.33872084 86.1551695,1.18530515 86.0584822,1.04628051 C86.0606121,1.19410831 86.049653,1.34183631 86.0257313,1.48776544 L84.9143837,1.41634876 C84.8008472,1.40119977 84.6829439,1.39470734 84.5606738,1.39037906 L84.5170059,1.39037906 L84.4427705,1.39037906 C84.256556,1.5662616 84.0556988,1.7262544 83.8423371,1.8686544 C83.7936096,1.87124689 83.7447772,1.87124689 83.6960497,1.8686544 C83.3036069,1.85774443 82.9518376,1.6258595 82.7899411,1.27135126 L82.4798991,1.26053055 C82.3055992,1.21324763 82.1360403,1.1502237 81.9733517,1.07225021 L81.9318672,1.04628051 C81.7924038,0.978747737 81.6618713,0.894431737 81.543223,0.795240053 C81.5421532,0.93074397 81.5312076,1.06599422 81.5104721,1.19993458 L80.6676819,1.14150275 C80.6087303,1.11769719 80.5475953,1.09821991 80.4995606,1.08090678 L80.47991,1.08090678 L80.4471591,1.08090678 L80.4253252,1.08090678 C80.3031949,1.16240716 80.1755257,1.23544074 80.0432312,1.2994851 C79.9777294,1.00949009 79.8248918,0.866656734 79.6065524,0.849343599 L79.6065524,0.870985017 C79.6330175,0.938534037 79.6456358,1.01063348 79.6436701,1.08307092 L79.0214027,1.03762394 C78.7925459,1.17444621 78.5736678,1.32703301 78.3663845,1.49425787 C78.1703652,1.27324765 77.9350113,1.08985241 77.6720651,0.953222407 L76.5650843,0.881805727 C76.4083159,0.857138542 76.2499954,0.843398606 76.0912877,0.840687032 L75.9624675,0.840687032 L75.4188023,0.808224904 C74.9537393,0.912103712 74.464659,1.06792192 74.032347,1.20209872 C73.2341033,1.49876077 72.3961703,1.67741167 71.545461,1.73231347 C71.1012431,1.7430067 70.6625444,1.63298938 70.276909,1.41418462 C70.2993671,1.4794265 70.2993671,1.55020792 70.276909,1.61544981 C70.1667052,1.82403636 69.9416994,1.94746433 69.7048597,1.92925037 C69.5035291,1.95215417 69.3127568,1.83475693 69.2441635,1.64574779 C69.2173075,1.49025532 69.2458687,1.33034572 69.3249491,1.19344215 C68.9876337,1.6326065 68.4647538,1.89293899 67.9079263,1.89895239 C67.1017027,1.82861764 66.342728,1.49172928 65.7529162,0.942401698 C65.6350129,0.955386549 65.6306461,1.12202547 65.6284627,1.28217197 C65.6262793,1.44231846 65.6284627,1.60895738 65.5040093,1.62410638 C63.5100415,1.82770033 61.5063333,1.92306495 59.5018586,1.9097731 C57.5127865,1.9097731 55.3643266,1.83835642 53.1197974,1.69335891 C53.0229667,1.5536332 52.9492594,1.39948243 52.901458,1.23672499 C52.8548643,1.07284424 52.7810763,0.917793027 52.6831185,0.777926919 C52.6831185,1.09605577 52.6700182,1.42716947 52.425478,1.45746745 C52.1736316,1.2833329 51.8799216,1.17808181 51.5739543,1.15232346 C51.4337485,1.20768255 51.2979875,1.27351757 51.167843,1.34926036 L51.1547426,1.34926036 L51.1394588,1.34926036 C51.1768772,1.26705609 51.2013144,1.19365651 51.2115109,1.11769719 L51.1591094,1.11769719 C50.9560537,1.11769719 50.7508147,1.1285179 50.5543092,1.1393386 L50.486624,1.1393386 C50.2988521,1.1393386 50.1067134,1.16098002 49.9123913,1.16098002 C49.281343,1.19188103 48.6605016,0.994194369 48.165676,0.604795572 C48.165676,0.929416847 48.1525756,1.26702297 47.9080354,1.29082853 C47.811301,1.17354146 47.690798,1.07769411 47.5543256,1.00949009 C47.2620639,1.32614004 46.935496,1.60991164 46.5805318,1.85566955 C46.5325307,1.85818921 46.4844288,1.85818921 46.4364277,1.85566955 C46.0101735,1.83264716 45.6365629,1.56547837 45.4801011,1.17180073 C45.2155999,1.16047785 44.9522221,1.13082887 44.6918958,1.08307092 L44.2421166,0.974863826 L44.222466,0.974863826 C43.9888429,0.925088563 43.7246522,0.866656734 43.480112,0.821209755 L43.3032571,0.957550691 C43.1442831,1.08518089 42.9764781,1.20160852 42.8010764,1.30597753 C42.7312078,1.00083353 42.582737,0.845015315 42.3403802,0.845015315 C41.8847943,0.94752647 41.4663717,1.17211122 41.1307799,1.49425787 C40.6663979,0.949921721 39.9762338,0.646152608 39.2574276,0.669719827 C38.4124067,0.726219164 37.5803636,0.905598267 36.7880088,1.20209872 L36.7749084,1.20209872 C35.9698989,1.50142735 35.1243655,1.68012975 34.2661885,1.73231347 C33.8221632,1.74377486 33.3834483,1.63450195 32.9976365,1.41634876 C33.0199311,1.48161744 33.0199311,1.55234527 32.9976365,1.61761395 C32.887865,1.82661881 32.6625551,1.95021378 32.4255872,1.93141452 C32.2242566,1.95431831 32.0334843,1.83692107 31.964891,1.64791194 C31.9378497,1.49241899 31.966422,1.33244721 32.0456766,1.19560629 C31.7081459,1.63451336 31.1854018,1.89477827 30.6286538,1.90111653 C29.8224302,1.83078178 29.0634555,1.49389342 28.4736437,0.94456584 C28.3557404,0.957550691 28.3513736,1.12202547 28.3491902,1.28217197 C28.3470068,1.44231846 28.3491902,1.61328567 28.2225534,1.62627052 C26.2329396,1.82930345 24.2335826,1.92394665 22.2335031,1.9097731 L21.4714985,1.9097731 C21.4179527,1.83415728 21.3690998,1.75538114 21.3252111,1.67388164 C21.3249466,1.75289597 21.3139303,1.83151389 21.2924602,1.90760896 C20.9671345,1.90760896 20.6068744,1.90760896 20.2269638,1.89029582 L20.2269638,1.94872765 C20.2269638,1.97686149 20.2269638,2.00715948 20.2269638,2.03529332 C20.0622395,1.94475984 19.9469312,1.78602158 19.9125551,1.60246496 C19.9137342,1.52330911 19.951577,1.44908898 20.0151746,1.40119977 C19.9169444,1.3858285 19.8176787,1.37787045 19.718233,1.37739421 C18.8688926,1.37739421 18.3186773,1.99850291 17.735711,2.65423789 C17.390093,3.07292391 16.9974598,3.45120407 16.5654118,3.78175578 C16.5195991,3.78439444 16.4736706,3.78439444 16.4278579,3.78175578 C15.66367,3.78175578 15.364545,3.02647028 15.0195687,2.15215698 C14.9344163,1.9617125 14.8470805,1.75395489 14.7641115,1.5526897 C14.7641115,1.97469735 14.7400942,2.7581167 14.4802703,2.77759397 C14.3208825,2.27984135 14.1156435,2.03745747 13.8536362,2.03745747 C13.5027392,2.11785978 13.1854947,2.30380686 12.9453442,2.56983636 C12.7717885,2.72387632 12.5863644,2.86425067 12.3907621,2.98967987 C12.3143433,2.60662677 12.1396717,2.41401815 11.8732976,2.41401815 C11.4497192,2.41401815 10.8864035,2.89662177 10.5501608,3.18661678 C10.0621073,2.50369321 9.26326992,2.10617394 8.41916802,2.12618728 C7.50892759,2.19023112 6.61411625,2.39316452 5.76634407,2.72781871 L5.73140976,2.72781871 C4.88350278,3.06204369 3.98875936,3.2649617 3.07858582,3.32945014 C2.55822112,3.34272668 2.0464608,3.19607081 1.61352831,2.90960663 C1.64173888,2.99613352 1.64173888,3.08926918 1.61352831,3.17579607 C1.5031572,3.40830208 1.26094331,3.55063412 1.00217794,3.53504362 C0.780973012,3.55778957 0.571751497,3.43105937 0.491263694,3.22557133 C0.453415254,3.02824263 0.483396582,2.82403373 0.576416068,2.64558132 C0.416322688,2.85980513 0.22155031,3.04627865 0,3.19743749 L0,11.9254215 C0.403805274,11.8303277 0.70656927,11.7841594 0.908291985,11.7869164 C1.03711224,11.7869164 1.18558305,11.7869164 1.37990513,11.810722 L1.37990513,11.8301993 L1.34715422,11.9254215 L1.28165239,12.1418357 L1.23580111,12.2933256 L1.31003652,12.3214595 C2.17688103,12.6662332 3.09240057,12.8757564 4.0239955,12.9425682 C4.82866775,12.9647166 5.5958143,12.605424 6.08948641,11.9751968 C6.42791251,12.2608635 6.995595,12.7348106 7.42135687,12.7348106 C7.68118078,12.7348106 7.85803571,12.5530226 7.92790432,12.1937751 C8.1266187,12.3204676 8.31563149,12.4615197 8.49340342,12.6157828 L8.53052112,12.6460807 L8.67899193,12.7672727 C8.93663244,12.7174974 9.19208956,12.6569014 9.49776475,12.5833206 L9.53051566,12.5833206 L9.99776202,12.4751135 L9.99776202,12.4534721 C10.2947514,12.390941 10.5962781,12.3518639 10.8995038,12.3366085 C11.0583244,11.8868352 11.4703857,11.57266 11.9497164,11.535876 C12.0027901,11.5324704 12.0560305,11.5324704 12.1091042,11.535876 C12.5017142,11.8259108 12.8605433,12.1583488 13.1789674,12.5270529 C13.3302613,12.4454948 13.4626499,12.3334407 13.5676115,12.1981034 C13.8339856,12.2262372 13.8427192,12.6027979 13.8492694,13.001 C14.383926,12.5471694 15.0742825,12.3146884 15.7772065,12.3517574 C15.9955459,12.3517574 16.2138853,12.3647423 16.4322247,12.3777272 L16.4999099,12.3777272 C16.7029656,12.390712 16.9365888,12.4036969 17.1549282,12.4036969 L17.2138798,12.4036969 C17.2033115,12.3155624 17.1774583,12.2299008 17.137461,12.1504923 L17.170212,12.1483281 C17.3127128,12.2376179 17.462422,12.3150698 17.6178078,12.3798913 C17.9575161,12.3481903 18.281727,12.2238442 18.5544839,12.0206437 C18.8230414,12.0595983 18.8295915,12.4534721 18.8361417,12.8170479 C18.9484828,12.6519501 19.0332651,12.4699967 19.0872321,12.2781766 C19.1413028,12.0871458 19.2245041,11.9054251 19.3339556,11.7393053 C21.7924575,11.5726664 24.15489,11.4882649 26.3535679,11.4882649 C28.5576376,11.4722402 30.7607769,11.5835214 32.9517852,11.8215427 C33.0827888,11.8388558 33.0871556,12.0379569 33.0915224,12.2197448 C33.0915224,12.3733989 33.0915224,12.5335454 33.1744914,12.5919772 L33.2006921,12.5919772 L33.2923947,12.5724999 L33.3338792,12.5400378 L33.3709969,12.5097398 L33.3600799,11.9319139 L33.3600799,11.4016992 C33.6308208,11.4990856 33.9517797,11.6375906 34.2945726,11.7825881 L34.3273235,11.795573 L34.3447907,11.795573 L34.4081091,11.8215427 C34.7773145,11.6246498 35.1877245,11.5157276 35.6067925,11.5034139 C36.2282022,11.5160198 36.8060345,11.8224985 37.1613692,12.3279519 C37.0727533,12.1644719 37.0412738,11.9764993 37.07185,11.7934089 C37.1379652,11.5881482 37.3376123,11.4547314 37.5543802,11.4709517 C37.7405095,11.4688526 37.9211509,11.5334023 38.063111,11.6527396 C38.1532363,11.6861524 38.2485504,11.7037289 38.3447689,11.704679 C38.5308519,11.6942102 38.7105234,11.6336006 38.8644167,11.5293836 L38.8797004,11.5293836 C39.0181128,11.4328174 39.1803377,11.3752305 39.3491302,11.3627446 L39.4102652,11.3627446 C39.4104868,11.4800805 39.4192431,11.5972479 39.436466,11.7133356 L39.5827534,11.7133356 C39.7734325,11.7141462 39.9638321,11.7278845 40.1526193,11.7544543 C40.2552388,11.4514744 40.3600417,11.139838 40.6613501,11.139838 L40.7312187,11.139838 C40.7465025,11.8843028 40.9954094,11.9210932 41.2574167,11.9578836 C41.6010465,11.8420035 41.943599,11.7855371 42.2879788,11.7912447 C42.5063182,11.7912447 42.7421248,11.810722 42.9233465,11.825871 L42.9735646,11.825871 C43.1373191,11.8388558 43.3381914,11.856169 43.5215965,11.856169 C43.729774,11.8625377 43.9372661,11.8294848 44.1329469,11.7587826 C44.017227,12.1093736 43.9146075,12.4534721 43.8054377,12.7802575 L43.8250883,12.7802575 L44.4233383,12.7369747 C44.4691896,12.7369747 44.5150409,12.7369747 44.5674423,12.7369747 C44.7416545,12.7330228 44.9153382,12.7163862 45.0870901,12.6871994 L46.3054241,12.604962 C46.5998653,12.4419978 46.8606171,12.2253969 47.0739789,11.9665402 C47.2988436,12.1629131 47.5382309,12.3423173 47.7901321,12.5032474 L48.4735345,12.4578004 C48.4770245,12.5347429 48.4666739,12.6116871 48.442967,12.6850353 L48.442967,12.6980201 C48.691874,12.695856 48.8490783,12.5227247 48.9211303,12.1829544 C49.0638418,12.2725101 49.2002539,12.371567 49.3294251,12.4794418 L49.4080272,12.451308 C49.4735291,12.4275024 49.5390309,12.405861 49.6001659,12.3798913 L50.5281085,12.3128029 C50.5509363,12.4698094 50.5633356,12.6281325 50.5652262,12.78675 C50.6967626,12.6696149 50.8436482,12.5706134 51.001905,12.4924267 L51.001905,12.4707853 C51.0065622,12.4633487 51.0102316,12.4553474 51.012822,12.4469797 C51.1917835,12.3574152 51.3789449,12.2849499 51.5717709,12.2305655 L51.9123804,12.2067599 C52.0768856,11.7988451 52.4673953,11.5244261 52.9101915,11.505578 C52.9632666,11.5022142 53.0165043,11.5022142 53.0695793,11.505578 C53.3036876,11.6758986 53.5228111,11.8655791 53.7245976,12.0725832 L53.8075666,12.0725832 L53.8250337,12.0725832 C53.9647709,12.0725832 54.1066916,12.0595983 54.2442454,12.040121 L55.4669461,11.9557195 C55.4960632,12.1294995 55.5099433,12.3054522 55.5084306,12.481606 C55.6151054,12.3130465 55.69466,12.1290562 55.7442372,11.9362422 L67.9843451,11.1008835 C68.2026845,11.1160325 68.449408,11.1181966 68.6808478,11.1203607 L68.7266991,11.1203607 C69.024039,11.1170678 69.3213574,11.1286246 69.6175239,11.154987 C69.7463442,11.170136 69.750711,11.3714012 69.7550778,11.5705022 C69.7594445,11.7696033 69.7550778,11.9730326 69.8926316,11.9881816 C70.5140732,11.3007707 71.3689506,10.8640058 72.2943652,10.7611132 C72.9116824,10.7765202 73.4824124,11.0900782 73.8227411,11.6008002 C73.7320082,11.424745 73.7013615,11.2242609 73.7354054,11.0294668 C73.8006074,10.8048736 74.0181966,10.6583632 74.2528698,10.68104 C74.5136559,10.6646853 74.757305,10.8104482 74.8642202,11.0467799 C74.8905829,11.1306358 74.8905829,11.220457 74.8642202,11.3043128 C75.2959351,11.0189521 75.8061856,10.8730477 76.3249109,10.8866334 C77.2368636,10.9516203 78.133189,11.156023 78.9821016,11.4925931 C79.835902,11.8388779 80.7391023,12.0506385 81.6589429,12.1201943 C82.501804,12.139279 83.2996226,11.7438872 83.7899356,11.0640931 C84.1283617,11.3540881 84.6894941,11.8366917 85.0999722,11.8366917 C85.3641629,11.8366917 85.536651,11.6419189 85.6152532,11.2588658 C85.8098146,11.3847917 85.9944754,11.5251408 86.1676519,11.6787093 C86.5017112,11.9535554 86.8073864,12.2132524 87.0846775,12.2132524 C87.3619685,12.2132524 87.5519238,11.9708685 87.7091282,11.4731159 C87.9667687,11.4925931 87.9842359,12.2760125 87.9929695,12.6980201 C88.0781218,12.5032474 88.156724,12.3084746 88.2309594,12.1223584 C88.5759357,11.2264037 88.8750607,10.4624616 89.6370653,10.4624616 C89.6821572,10.460098 89.7273438,10.460098 89.7724357,10.4624616 C90.1233644,10.7246717 90.4440751,11.0244106 90.7287624,11.3562522 C91.0830253,11.2065489 91.4020048,10.9854533 91.6654385,10.7070097 C91.9783473,10.9319275 92.357686,11.0476179 92.7440352,11.0359592 C93.2537493,11.0090988 93.7578714,10.917455 94.2440271,10.7632773 L94.2680444,10.7632773 C94.772575,10.6037809 95.2958757,10.5099372 95.8248044,10.484103 C95.9299181,10.4839797 96.034933,10.4904853 96.1392132,10.5035803 C96.1697807,10.4581333 96.2003483,10.4364919 96.2330992,10.4364919 C96.3204349,10.4364919 96.3903035,10.5988026 96.4143209,10.7589491 C96.4468152,10.9073155 96.4202182,11.0623887 96.3400855,11.1917774 C96.5110134,11.1260169 96.6869738,11.0739113 96.8662835,11.0359592 C97.35485,10.9805048 97.8026107,10.7392011 98.115185,10.3629111 C98.3706421,10.3910449 98.3771923,10.7849188 98.3837424,11.1658077 C98.8748306,10.7175541 99.5270039,10.4836255 100.193776,10.5165652 C100.412116,10.5165652 100.630455,10.5317142 100.848794,10.5468632 L100.905563,10.5468632 C101.093335,10.559848 101.307307,10.5728329 101.516913,10.5728329 C101.987054,10.5981314 102.451079,10.4578518 102.82695,10.1767949 C103.080223,10.2157495 103.088957,10.6096233 103.095507,10.9731991 C103.202677,10.8054083 103.28296,10.6221666 103.333497,10.4299995 C103.38386,10.2398454 103.462604,10.0582166 103.56712,9.89112818 C105.905535,9.72448926 108.152248,9.64008773 110.230839,9.64008773 C112.322352,9.62407412 114.412883,9.73537619 116.490631,9.97336557 C116.615084,9.99067871 116.617267,10.1897798 116.621634,10.375896 C116.626001,10.5620122 116.621634,10.7589491 116.752638,10.7740981 C117.340096,10.141839 118.13931,9.74267898 119.001534,9.65090844 C119.602292,9.66778412 120.156065,9.97704076 120.481875,10.4776106 C120.395921,10.3109031 120.366809,10.1210682 120.398906,9.93657516 C120.45897,9.72884942 120.66008,9.59322815 120.877069,9.61411803 C121.131662,9.5977232 121.369253,9.74144536 121.470953,9.97336557 C121.49622,10.0522194 121.49622,10.1368956 121.470953,10.2157495 C121.864286,9.96302816 122.325494,9.83403284 122.79409,9.84568121 C123.681172,9.9129771 124.551321,10.1227488 125.370495,10.4667899 L125.385778,10.4667899 C126.206173,10.8121027 127.07785,11.0226183 127.96655,11.0900628 C128.742099,11.1093136 129.477322,10.7481823 129.931605,10.1248555 C130.252564,10.4083581 130.789679,10.8823051 131.193607,10.8823051 C131.440331,10.8823051 131.601902,10.7005172 131.673954,10.3412697 C131.864764,10.4723851 132.045732,10.6170405 132.215436,10.7740981 L132.396657,10.9299163 C132.643381,10.880141 132.883554,10.819545 133.173946,10.7459642 L133.200146,10.7459642 L133.22198,10.7459642 L133.296216,10.7264869 L133.339884,10.7156662 L133.641192,10.6420854 L133.641192,10.6312647 C133.905597,10.5526152 134.174991,10.5055794 134.446864,10.4797748 C134.645553,10.0837368 134.920661,9.68120643 135.444676,9.68120643 C135.494841,9.67797512 135.545164,9.67797512 135.59533,9.68120643 C135.970099,9.97291271 136.310656,10.3053857 136.610608,10.6723834 C136.777309,10.6120523 136.928085,10.5151339 137.051654,10.3888808 C137.307111,10.4170146 137.313661,10.8108885 137.320211,11.1917774 C137.817849,10.7413469 138.476912,10.5074857 139.149895,10.5425349 C139.368235,10.5425349 139.608408,10.5576839 139.780896,10.5685046 L139.842031,10.5685046 C140.060371,10.5836536 140.261243,10.5944743 140.451198,10.5944743 L140.505783,10.5944743 C140.495442,10.5058708 140.470357,10.4195787 140.431548,10.3391055 C140.431548,10.3391055 140.431548,10.3261207 140.431548,10.3239566 L140.449015,10.3239566 C140.583312,10.4104351 140.724204,10.48641 140.87041,10.5511914 C141.194985,10.5188626 141.503394,10.3949345 141.759052,10.194108 C142.014509,10.2330626 142.021059,10.6269364 142.027609,10.9905122 C142.135158,10.8229209 142.215467,10.6396183 142.265599,10.4473126 C142.316268,10.2572631 142.394993,10.0756781 142.499222,9.90844132 C144.837637,9.7418024 147.08435,9.65740087 149.162941,9.65740087 C151.255181,9.64133131 153.346442,9.75263341 155.424916,9.99067871 C155.549369,10.0079918 155.551553,10.2070929 155.555919,10.3932091 C155.560286,10.5793253 155.555919,10.7740981 155.686923,10.789247 C156.274624,10.1573078 157.07371,9.75821228 157.935819,9.66605743 C158.535796,9.68363784 159.0886,9.99280931 159.413977,10.4927596 C159.328023,10.326052 159.298911,10.1362172 159.331008,9.95172416 C159.391072,9.74399842 159.592181,9.60837714 159.809171,9.62926702 C160.063602,9.61352252 160.300846,9.75703456 160.403055,9.98851457 C160.428038,10.0674117 160.428038,10.1520013 160.403055,10.2308985 C160.796501,9.97842542 161.25763,9.84945222 161.726191,9.8608302 C162.614764,9.92907247 163.486313,10.139557 164.306963,10.484103 C164.782943,10.6529061 165.27639,10.8282016 165.763287,10.9493935 L166.33097,10.9061107 L166.468524,10.9061107 C166.633251,10.9024707 166.797469,10.8865555 166.959787,10.8584996 L168.121353,10.7957395 C168.402915,10.6313688 168.650391,10.4154513 168.850607,10.1594818 C169.060569,10.3501202 169.283829,10.5258513 169.518725,10.6853682 L170.173744,10.6399213 C170.177025,10.7182752 170.166685,10.7966048 170.143176,10.8714844 L170.143176,10.8996183 C170.378983,10.8844693 170.527453,10.7113379 170.597322,10.3715677 C170.732889,10.4614418 170.862017,10.5605076 170.983783,10.6680551 L171.00125,10.6680551 L171.042734,10.6572344 L171.060202,10.6572344 L171.082036,10.6572344 C171.13007,10.6399213 171.189022,10.6161157 171.243607,10.5923101 L172.116964,10.5252217 C172.138411,10.6823438 172.150078,10.8406255 172.151899,10.9991688 C172.273571,10.8837266 172.410128,10.784759 172.55801,10.7048455 L172.55801,10.6832041 L172.55801,10.6615627 C172.72735,10.5725079 172.905045,10.500027 173.088575,10.4451485 L173.411717,10.4213429 C173.675908,9.93657516 173.966299,9.72016098 174.35931,9.72016098 C174.409479,9.71702994 174.459796,9.71702994 174.509964,9.72016098 C174.735196,9.89139926 174.944874,10.0818491 175.136599,10.2893303 L175.213017,10.2893303 L175.241402,10.2893303 C175.370686,10.2862758 175.499701,10.2761612 175.627862,10.2590323 L176.85493,10.1724666 C176.88234,10.3464222 176.895483,10.5222932 176.894231,10.6983531 C176.993611,10.5281672 177.067179,10.3444103 177.11257,10.1529893 L188.728227,9.3176306 C188.946567,9.33277959 189.191107,9.33494373 189.40508,9.33494373 L189.440014,9.33494373 C189.719906,9.33201071 189.999762,9.34356853 190.278437,9.36957 C190.400707,9.38471899 190.405074,9.58598419 190.409441,9.78508523 C190.413808,9.98418628 190.409441,10.1876156 190.540445,10.2027646 C191.115936,9.52221331 191.930662,9.08363417 192.819908,8.97569619 C193.413947,8.99735148 193.957503,9.31264595 194.267499,9.81538322 C194.179652,9.63528308 194.152114,9.43208684 194.188896,9.23539321 C194.248087,9.02016502 194.453668,8.87734562 194.677977,8.89562294 C194.927785,8.88318482 195.158857,9.02665563 195.256576,9.25487048 C195.283925,9.34152987 195.283925,9.43440055 195.256576,9.52105993 C195.657736,9.23392912 196.141719,9.08287942 196.636481,9.09039571 C197.500696,9.15547268 198.348608,9.35863875 199.147385,9.69202714 C199.959023,10.0268016 200.8092,10.2307113 201.675755,10.2958227 C202.486962,10.3098435 203.248678,9.91028229 203.693211,9.23755735 C204.011987,9.52755236 204.544735,10.0123201 204.94648,10.0123201 C205.19757,10.0123201 205.363508,9.81754736 205.43556,9.43449426 C205.625156,9.56449724 205.80403,9.70922895 205.970491,9.86732262 C206.276167,10.1400045 206.566558,10.3997015 206.828565,10.3997015 C207.090573,10.3997015 207.265244,10.1573176 207.422449,9.65956501 C207.669172,9.67904228 207.682272,10.4624616 207.691006,10.8844693 C207.780525,10.6680551 207.861311,10.4516409 207.926813,10.2806737 C208.254322,9.41501698 208.538163,8.65107491 209.260866,8.65107491 C209.303776,8.64879871 209.346777,8.64879871 209.389687,8.65107491 C209.801776,8.98435514 210.17393,9.36339382 210.498851,9.78075695 C211.049066,10.4299995 211.570898,11.0554365 212.374387,11.0554365 C212.470187,11.0644801 212.566562,11.0659275 212.662595,11.0597648 C212.599577,11.0058013 212.565648,10.9257309 212.570892,10.8433506 C212.601555,10.6630962 212.709982,10.5050504 212.867834,10.4105222 L212.867834,10.5641763 L213.876562,10.5468632 C213.896821,10.6231506 213.907095,10.7017045 213.907129,10.7805905 C213.948643,10.6991179 213.995315,10.6203301 214.046867,10.544699 L214.77612,10.544699 C216.672328,10.5306023 218.56777,10.6252613 220.452945,10.8282016 C220.566482,10.8433506 220.568665,11.0099895 220.570848,11.1723001 C220.573032,11.3346108 220.570848,11.4969214 220.688752,11.5099063 C221.235498,10.9655507 221.956686,10.6272699 222.728042,10.5533556 C223.263454,10.5631371 223.762137,10.825149 224.070829,11.2588658 C223.995568,11.1206309 223.968692,10.9615566 223.994411,10.8065602 C224.051303,10.6195684 224.235416,10.5000387 224.431089,10.5230576 C224.659512,10.5073453 224.874349,10.6318478 224.972571,10.8368582 C224.993785,10.9022988 224.993785,10.9726827 224.972571,11.0381234 C225.33418,10.8212372 225.750914,10.7115888 226.173438,10.7221586 C226.976621,10.7792299 227.766108,10.9588024 228.514036,11.2545375 C229.262517,11.5509217 230.052829,11.7305136 230.856818,11.7869164 C231.54674,11.8056025 232.204955,11.4998605 232.631918,10.9623784 C232.943849,11.2814482 233.34049,11.506531 233.776017,11.6116209 C233.994356,11.6116209 234.147194,11.4558027 234.212695,11.1506587 C234.383504,11.2586389 234.546226,11.3787001 234.699592,11.5099063 L234.867714,11.6440831 C235.116621,11.5964719 235.369894,11.535876 235.57295,11.4861007 L235.588234,11.4861007 L235.605701,11.4861007 L236.007445,11.3908785 L236.007445,11.3714012 C236.248055,11.3143579 236.492502,11.2745789 236.738882,11.2523734 C236.877982,10.8672709 237.233369,10.5998987 237.644991,10.5706687 C237.690794,10.567756 237.736742,10.567756 237.782545,10.5706687 C238.12053,10.8169973 238.429589,11.1001035 238.703937,11.414684 C238.833797,11.3449203 238.947567,11.249105 239.037997,11.1333456 C239.269436,11.1571512 239.275986,11.4925931 239.280353,11.8172144 C239.742691,11.4293264 240.337055,11.2311452 240.941916,11.2631941 C241.160256,11.2631941 241.378595,11.276179 241.527066,11.2869997 L241.544533,11.2869997 C241.749772,11.2999845 241.935361,11.3108052 242.125316,11.3108052 L242.171167,11.3108052 C242.161578,11.2352925 242.138667,11.1620392 242.103482,11.094391 C242.102004,11.0887131 242.102004,11.0827558 242.103482,11.0770779 C242.114502,11.0812699 242.124812,11.0871085 242.134049,11.094391 C242.257348,11.1701778 242.386583,11.2360348 242.52051,11.291328 C242.812155,11.2644986 243.090804,11.1589618 243.326183,10.986184 C243.555439,11.0186461 243.564173,11.3475956 243.568539,11.6657245 C243.66579,11.524671 243.739512,11.3690282 243.786879,11.2047623 C243.835459,11.0422995 243.909112,10.8882659 244.005218,10.7481284 C246.123111,10.605295 248.153667,10.5317142 250.048853,10.5317142 C251.945103,10.5183603 253.840545,10.6137418 255.725678,10.8173809 C255.837031,10.8325299 255.841398,10.9991688 255.843582,11.1614794 C255.845765,11.3237901 255.843582,11.4882649 255.961485,11.5012497 C256.508231,10.9568941 257.229419,10.6186133 258.000775,10.544699 C258.536187,10.5544806 259.03487,10.8164925 259.343563,11.2502093 C259.268458,11.1119208 259.241591,10.9528997 259.267144,10.7979036 C259.324036,10.6109118 259.508149,10.4913822 259.703823,10.514401 C259.932245,10.4986887 260.147082,10.6231912 260.245304,10.8282016 C260.266667,10.8936193 260.266667,10.9640491 260.245304,11.0294668 C260.606914,10.8125806 261.023647,10.7029323 261.446171,10.7135021 C262.247007,10.7706091 263.034224,10.949437 263.78022,11.2437168 C264.168864,11.3735653 264.653577,11.5337118 265.090256,11.6397548 L265.605537,11.6051285 L265.727807,11.6051285 C265.877822,11.6023292 266.027426,11.5885858 266.175403,11.5640098 L267.223432,11.4925931 C267.473577,11.3538471 267.695657,11.170413 267.87845,10.9515577 C268.071299,11.1169849 268.275579,11.2688451 268.489801,11.4060275 L269.079317,11.3649088 C269.082132,11.4308517 269.073265,11.4967732 269.053117,11.5596815 L269.053117,11.581323 C269.271456,11.5705022 269.40246,11.4233406 269.465778,11.1311815 C269.588974,11.2070494 269.706458,11.2916729 269.817304,11.384386 L269.87844,11.3627446 L270.057478,11.3021487 L270.854417,11.245881 C270.874449,11.3799016 270.885393,11.5151032 270.887168,11.6505755 C270.998409,11.5520765 271.121634,11.4677429 271.253978,11.399535 L271.264895,11.3778936 L271.264895,11.3584163 C271.418656,11.280769 271.579489,11.2177275 271.745242,11.170136 L272.037816,11.1506587 C272.180709,10.8018333 272.516353,10.5681912 272.89589,10.5533556 C272.941696,10.5504547 272.987639,10.5504547 273.033444,10.5533556 C273.236998,10.6985429 273.427647,10.8607234 273.60331,11.0381234 L273.673179,11.0381234 L273.714663,11.0381234 C273.843483,11.0381234 273.948286,11.0273026 274.048722,11.0121537 L275.101118,10.940737 C275.125826,11.0895062 275.137516,11.2401139 275.136053,11.3908785 C275.226306,11.2490373 275.294052,11.0943019 275.336925,10.9320804 L285.876169,10.2200777 C286.077041,10.2330626 286.28883,10.2352267 286.491886,10.2352267 L286.531187,10.2352267 C286.781177,10.2328204 287.03113,10.2429326 287.280091,10.2655247 C287.391444,10.2785096 287.395811,10.4516409 287.400178,10.620444 C287.404545,10.789247 287.400178,10.9623784 287.518081,10.9753632 C288.055107,10.3876259 288.790596,10.0150409 289.585756,9.92791859 C290.113689,9.94238036 290.601879,10.2093236 290.895792,10.6442495 C290.818445,10.494985 290.79238,10.3247723 290.821557,10.1594818 C290.882427,9.97365189 291.061354,9.85128114 291.258235,9.8608302 C291.482459,9.84657056 291.692109,9.97159634 291.784433,10.1746308 C291.806735,10.2450754 291.806735,10.3206003 291.784433,10.3910449 C292.156971,10.1474075 292.59589,10.0227842 293.042069,10.0339615 C293.822409,10.088765 294.589676,10.2617386 295.317165,10.5468632 C296.060452,10.8334261 296.830705,11.0071395 297.614096,11.0619289 C298.337149,11.0800654 299.022337,10.7421127 299.44378,10.1594818 C299.731988,10.4040298 300.216702,10.8087243 300.576962,10.8087243 C300.795301,10.8087243 300.954689,10.6420854 301.013641,10.3153 C301.183609,10.4249074 301.344918,10.5471736 301.496171,10.68104 C301.702547,10.9085135 301.974784,11.0672401 302.275643,11.1355097 C302.493982,11.1355097 302.677387,10.9190956 302.814941,10.5057445 C303.03328,10.5208935 303.052931,11.215583 303.059481,11.5488608 C303.131533,11.3865502 303.194852,11.2285678 303.26472,11.0532723 L303.26472,11.0359592 L303.26472,11.0792421 C303.561662,10.3347773 303.819302,9.69202714 304.474321,9.69202714 C304.513591,9.68982038 304.552953,9.68982038 304.592224,9.69202714 C304.964687,9.97430892 305.303805,10.2973693 305.603135,10.6550703 C305.783927,10.8639481 305.976367,11.0626382 306.179551,11.2502093 C306.195145,11.2204286 306.224553,11.2001864 306.258154,11.1961057 C306.317105,11.1961057 306.373874,11.2869997 306.402258,11.4276689 C306.562172,11.5422534 306.742035,11.6266232 306.932822,11.6765452 C307.121278,11.6337787 307.303305,11.5668479 307.474304,11.4774441 C307.618937,11.1887775 307.913391,11.0036558 308.238492,10.9970047 C308.389146,10.9970047 308.646787,11.0576006 308.675171,11.4579669 L308.690455,11.4579669 L308.701372,11.4579669 C308.885956,11.0908421 309.231982,10.8294132 309.638048,10.7502925 C309.657698,10.9190956 309.688266,11.1008835 309.72975,11.2891638 C309.889138,11.2891638 310.052893,11.3021487 310.18608,11.3129694 L310.229748,11.3129694 C310.382585,11.3129694 310.574724,11.3367749 310.762496,11.3367749 C311.170398,11.3613753 311.573769,11.2408938 311.900044,10.9970047 C312.118384,11.0294668 312.118384,11.3584163 312.118384,11.6765452 C312.209761,11.5342496 312.278263,11.3787386 312.321439,11.215583 C312.364863,11.054587 312.431799,10.9007487 312.520128,10.7589491 C314.5092,10.6161157 316.421854,10.5425349 318.196953,10.5425349 C320.027834,10.5211775 321.858247,10.6144211 323.677273,10.8217092 C323.782075,10.8368582 323.786442,11.0034971 323.788626,11.1658077 C323.790809,11.3281184 323.788626,11.490429 323.899979,11.5034139 C324.401886,10.9649169 325.083758,10.6250646 325.819182,10.5468632 C326.331459,10.5614726 326.803559,10.8253954 327.081184,11.2523734 C327.008091,11.1095134 326.983582,10.9470509 327.011315,10.789247 C327.062983,10.6122047 327.234526,10.4967301 327.41961,10.514401 C327.636332,10.5006862 327.838634,10.622554 327.926158,10.819545 C327.949797,10.8897805 327.949797,10.9657237 327.926158,11.0359592 C328.261776,10.8204422 328.655195,10.7103209 329.054972,10.7199945 C329.814311,10.7777468 330.559115,10.9575549 331.260201,11.2523734 C331.961184,11.5478622 332.705979,11.7283993 333.465429,11.7869164 C334.124681,11.8017861 334.748869,11.4932531 335.133542,10.9623784 C335.40865,11.2047623 335.867162,11.6116209 336.209955,11.6116209 C336.428295,11.6116209 336.559298,11.4558027 336.620433,11.1506587 C336.784262,11.2611442 336.9397,11.3833851 337.085496,11.5163987 L337.240517,11.6484114 C337.478507,11.5986361 337.725231,11.535876 337.93702,11.4817724 L337.965404,11.4817724 L338.004705,11.4817724 L338.314747,11.4038633 L338.314747,11.3930426 C338.540632,11.3361643 338.77055,11.2963739 339.002516,11.2740148 C339.172821,10.9364087 339.406444,10.5923101 339.85404,10.5923101 C339.896931,10.5893936 339.93997,10.5893936 339.98286,10.5923101 C340.304878,10.8404233 340.597826,11.1235289 340.856218,11.4363255 C340.979696,11.3653421 341.0868,11.2695039 341.170627,11.154987 C341.388966,11.1787926 341.388966,11.4990856 341.388966,11.8388558 C341.813451,11.4543502 342.375852,11.254763 342.950093,11.2848355 C343.148782,11.2848355 343.351838,11.2978204 343.500308,11.3086411 L343.517776,11.3086411 C343.709914,11.3216259 343.884586,11.3324466 344.063624,11.3324466 L344.107292,11.3324466 C344.098565,11.2573025 344.077161,11.1841459 344.043974,11.1160325 C344.04231,11.1096448 344.04231,11.1029429 344.043974,11.0965552 L344.067991,11.10954 C344.18313,11.184964 344.304356,11.2508335 344.430434,11.3064769 C344.707171,11.2784575 344.970051,11.1725803 345.188072,11.0013329 C345.406412,11.0337951 345.406412,11.3627446 345.406412,11.6808735 C345.498027,11.5379266 345.566539,11.3816656 345.609467,11.2177471 C345.652367,11.0552106 345.719322,10.8998703 345.808156,10.7567849 C347.799412,10.6139516 349.709881,10.5403707 351.484981,10.5403707 C353.28096,10.5241031 355.076234,10.6180623 356.860497,10.8217092 C356.9653,10.8368582 356.969667,11.0034971 356.971851,11.1658077 C356.974034,11.3281184 356.971851,11.490429 357.083204,11.5034139 C357.585111,10.9649169 358.266983,10.6250646 359.002407,10.5468632 C359.513535,10.5633612 359.983784,10.8279711 360.260042,11.2545375 C360.18727,11.1123529 360.162765,10.9506777 360.190174,10.7935753 C360.241841,10.616533 360.413384,10.5010584 360.598468,10.5187293 C360.81519,10.5050145 361.017492,10.6268823 361.105016,10.8238733 C361.128498,10.8941339 361.128498,10.9700269 361.105016,11.0402875 C361.441195,10.8242255 361.835481,10.7140751 362.236014,10.7243228 C362.992995,10.7821564 363.735515,10.9612163 364.434692,11.2545375 C364.821153,11.3908785 365.260015,11.5466967 365.67486,11.6505755 L366.159573,11.6159492 L366.275293,11.6159492 C366.416631,11.6132663 366.557536,11.5995173 366.696688,11.5748305 L367.683583,11.5034139 C367.924107,11.3634072 368.135338,11.1790161 368.30585,10.9602143 C368.487329,11.1260863 368.680702,11.2786978 368.884449,11.4168482 L369.439031,11.3757295 C369.442245,11.4415346 369.434123,11.5074013 369.415014,11.5705022 L369.415014,11.5943078 C369.615886,11.5834871 369.742523,11.4363255 369.801475,11.1441663 C369.917271,11.2207398 370.027445,11.3053534 370.131167,11.3973709 L370.163918,11.384386 L370.194486,11.384386 L370.21632,11.384386 L370.22942,11.384386 L370.356057,11.3324466 L371.107145,11.276179 C371.126048,11.410291 371.136258,11.5454664 371.137712,11.6808735 C371.241194,11.5826718 371.357165,11.4982787 371.482688,11.429833 C371.483481,11.4096558 371.483481,11.4023991 371.482688,11.3952068 C371.626762,11.3179337 371.778141,11.254871 371.934651,11.2069264 L372.209759,11.1874491 C372.428098,10.7740981 372.683555,10.590146 373.017615,10.590146 C373.060505,10.5872563 373.103544,10.5872563 373.146435,10.590146 C373.33844,10.7362321 373.517411,10.8984193 373.681366,11.0749138 L373.746868,11.0749138 L373.783986,11.0749138 C373.88916,11.0714526 373.994094,11.0627852 374.098395,11.0489441 L375.087472,10.9775274 C375.110206,11.1264996 375.121155,11.2770051 375.120223,11.4276689 C375.205308,11.2839859 375.268576,11.1286651 375.307995,10.9667067 L385.218421,10.254704 C385.408377,10.2676889 385.607065,10.269853 385.797021,10.269853 L385.834138,10.269853 C386.069596,10.2674433 386.305011,10.2775571 386.539375,10.300151 C386.644178,10.3131358 386.648544,10.4884313 386.650728,10.6572344 C386.652911,10.8260375 386.650728,10.9991688 386.762081,11.0099895 C387.253096,10.4289727 387.948481,10.0545636 388.707485,9.96254486 C389.213865,9.9811736 389.677104,10.2501652 389.941103,10.6788758 C389.86559,10.5251236 389.841863,10.3514056 389.873418,10.1832873 C389.924282,10.0002686 390.09962,9.8792517 390.290446,9.89545647 C390.503154,9.88476178 390.70007,10.0065326 390.783893,10.2006005 C390.805131,10.271203 390.805131,10.3464121 390.783893,10.4170146 C391.129291,10.1748161 391.544328,10.0495807 391.967293,10.0599312 C392.706845,10.1152683 393.432433,10.2892187 394.115753,10.574997 C394.799096,10.8607024 395.524673,11.0346499 396.264213,11.0900628 C396.691127,11.0997774 399.65327,10.8675084 400,10.620444 L400,1.64574779 L399.849346,1.47694473 C399.786027,1.34926036 399.720526,1.21724771 399.672491,1.09605577 C399.386466,1.07008607 399.131009,1.04195222 398.890836,1.01165424 C398.781666,0.996505244 398.779483,0.829866323 398.775116,0.669719827 C398.770749,0.509573331 398.775116,0.34293441 398.659396,0.332113701 C398.134945,0.874097906 397.432881,1.21321167 396.679057,1.28866439 C396.153067,1.27894807 395.664585,1.01668714 395.369021,0.585318295 C395.441708,0.724411039 395.467715,0.882866732 395.443256,1.03762394 C395.391012,1.22208344 395.211821,1.3420178 395.019678,1.32112652 C394.795297,1.33602555 394.585307,1.21079696 394.49348,1.00732595 C394.47315,0.942488383 394.47315,0.873062475 394.49348,0.808224904 C394.145091,1.02409619 393.740475,1.13395143 393.329731,1.12418961 C392.553124,1.06709882 391.790473,0.888890015 391.069918,0.596139004 C390.346832,0.301087319 389.581166,0.121402091 388.801371,0.0637601132 C388.143218,0.0529883913 387.518496,0.350562856 387.115791,0.866656734 C386.83195,0.624272848 386.358153,0.217414183 386.004443,0.217414183 C385.786104,0.217414183 385.644183,0.373232396 385.580865,0.678376394 C385.416582,0.571535666 385.260417,0.45291191 385.113618,0.323457133 L385.0634,0.286666722 L384.94768,0.191444481 C384.714057,0.23689146 384.467334,0.297487431 384.270828,0.347262694 L384.240261,0.347262694 L384.190043,0.360247545 L384.172575,0.360247545 L384.026288,0.394873814 L383.960786,0.410022807 L383.936769,0.410022807 L383.849433,0.431664225 C383.616282,0.489098439 383.379065,0.528888922 383.13983,0.550692026 C383.01123,0.929746035 382.668389,1.19735276 382.266472,1.2323967 C382.22211,1.23484774 382.177648,1.23484774 382.133285,1.2323967 C381.804034,0.984253111 381.503773,0.700433741 381.238094,0.386217247 C381.11109,0.456548517 381.000287,0.552369441 380.912768,0.667555685 C380.799231,0.656734976 380.731546,0.565841019 380.694429,0.381888963 C379.705351,0.559348593 378.679156,0.719495089 377.687895,0.873149159 L377.578725,0.890462294 L377.521957,0.890462294 L377.480472,0.890462294 L377.458638,0.890462294 C376.021965,1.10687648 374.53944,1.3406038 373.384425,1.60030082 C373.384425,1.92925037 373.397525,2.26252822 373.404075,2.58931363 C373.170452,2.50058382 372.888794,2.37289945 372.618053,2.25819993 L372.589669,2.24521508 C371.844833,1.87144005 371.041721,1.6248758 370.214136,1.51589928 C369.899728,1.51589928 369.709772,1.62627052 369.633354,1.85134127 C369.580668,2.06542797 369.586699,2.28958453 369.650821,2.50058382 C369.525773,2.41516339 369.378968,2.36640947 369.227242,2.3599146 C369.07004,2.36787267 368.91846,2.42045774 368.790563,2.51140453 L368.777463,2.51140453 C368.663747,2.59592346 368.528285,2.64693082 368.386635,2.65856617 L368.338601,2.65856617 C368.338601,2.33827318 368.3255,2.00932362 367.884455,1.94656351 C367.814604,2.06370097 367.76099,2.18963252 367.725067,2.32096005 C367.639915,2.57849292 367.554762,2.84684651 367.303672,2.84684651 L367.24472,2.84684651 C367.233803,2.21275295 367.026381,2.18245497 366.808041,2.14999284 L366.790574,2.14999284 C366.534298,2.24402786 366.262488,2.28954166 365.989269,2.28416964 C365.827697,2.28416964 365.67486,2.27334893 365.574424,2.26252822 L365.624642,2.08939687 L365.624642,2.07641202 L365.624642,2.04827818 L365.624642,2.03312918 L365.624642,2.0028312 L365.624642,1.98335392 L365.624642,1.96387664 C365.650843,1.87298269 365.677043,1.77992459 365.703244,1.68470235 L365.646476,1.56783869 L365.670493,1.51589928 L365.670493,1.50291443 L365.670493,1.48127301 C365.607175,1.33843965 365.548223,1.21724771 365.500188,1.10254819 C365.233814,1.07657849 364.971807,1.04844465 364.718533,1.01814666 C364.609363,1.00299767 364.60718,0.836358748 364.602813,0.676212252 C364.598447,0.516065757 364.602813,0.349426835 364.487093,0.336441984 C363.962642,0.87842619 363.260578,1.21753995 362.506755,1.29299268 C361.980764,1.28327636 361.492282,1.02101543 361.196718,0.589646579 C361.269552,0.728691099 361.295567,0.887194602 361.270954,1.04195222 C361.21871,1.22641173 361.039518,1.34634609 360.847375,1.3254548 C360.622994,1.34035384 360.413004,1.21512525 360.321177,1.01165424 C360.300848,0.946816666 360.300848,0.877390758 360.321177,0.812553188 C359.972007,1.0284811 359.566681,1.13832338 359.155245,1.1285179 C358.373273,1.07126471 357.605389,0.891577794 356.880148,0.596139004 L356.856131,0.596139004 C356.443469,0.455469785 356.019891,0.310472282 355.605046,0.210921758 L355.089765,0.217414183 L354.971862,0.217414183 C354.825467,0.220254224 354.679496,0.23399919 354.535183,0.258532878 L353.517721,0.329949559 C353.270679,0.468672226 353.052769,0.653069313 352.875803,0.873149159 C352.690079,0.710377051 352.493093,0.560685682 352.286287,0.4251718 L351.714237,0.466290494 C351.711975,0.39720899 351.722331,0.328291155 351.744805,0.262861162 L351.744805,0.239055602 C351.526465,0.249876311 351.406379,0.397037956 351.345244,0.689197103 C351.223899,0.61185613 351.10792,0.526542086 350.998084,0.433828367 L350.97625,0.433828367 L350.958783,0.433828367 L350.945683,0.433828367 C350.884548,0.455469785 350.832146,0.47278292 350.781928,0.49658848 L349.99809,0.580990012 C349.979155,0.446881103 349.968946,0.311703794 349.967522,0.176295489 C349.858586,0.27747627 349.736733,0.364058888 349.605079,0.433828367 C349.605677,0.439584155 349.605677,0.445385713 349.605079,0.451141502 C349.604391,0.458339186 349.604391,0.465585235 349.605079,0.47278292 C349.444162,0.54859629 349.275908,0.60805317 349.102898,0.65024255 L348.819057,0.669719827 C348.685671,1.01554814 348.358142,1.25010454 347.985,1.26702297 C347.940644,1.26965695 347.896169,1.26965695 347.851813,1.26702297 C347.653692,1.12180455 347.468848,0.959589828 347.299414,0.782255202 L347.231729,0.782255202 C347.085442,0.782255202 346.974089,0.793075911 346.867102,0.808224904 L345.849641,0.866656734 C345.828665,0.746562401 345.817711,0.624958857 345.81689,0.503080906 L345.786322,0.503080906 L345.755755,0.503080906 C345.69801,0.619519075 345.651939,0.741295059 345.618201,0.866656734 L341.723026,1.15665174 C340.578927,1.3406038 339.771071,1.48776544 339.102952,1.63709123 L339.102952,2.06991959 L339.102952,2.30364691 L339.102952,2.35125803 L339.102952,2.61528334 C338.884613,2.5308818 338.605139,2.411854 338.340948,2.29499034 L338.325664,2.29499034 L338.299463,2.28416964 C337.633821,1.95673722 336.93182,1.70761058 336.207772,1.54186899 L335.631356,1.58082354 C335.512804,1.63202958 335.42325,1.73268383 335.386816,1.85566955 C335.334235,2.06976747 335.340266,2.293896 335.404283,2.5049121 C335.279183,2.41959713 335.132409,2.37085362 334.980704,2.36424288 C334.823526,2.37232141 334.671979,2.42489497 334.544025,2.51573281 C334.419223,2.59994334 334.28385,2.65091591 334.142281,2.66289446 L334.094246,2.66289446 C334.094246,2.34260146 334.081146,2.01365191 333.6401,1.95089179 C333.570413,2.06811139 333.51681,2.19402042 333.480712,2.32528833 C333.39556,2.58498535 333.308224,2.8511748 333.059317,2.8511748 L333.000366,2.8511748 C332.989449,2.21708124 332.782026,2.18678325 332.563687,2.15432113 L332.54622,2.15432113 C332.278835,2.25275439 331.995157,2.30047326 331.70998,2.29499034 C331.522208,2.29499034 331.334436,2.27767721 331.196882,2.2668565 L331.11828,2.2668565 C330.982909,2.25603579 330.830072,2.24305094 330.681601,2.24305094 C330.50898,2.23781396 330.336968,2.26573989 330.175054,2.32528833 L330.192521,2.26902064 L330.29514,1.94439937 C330.242724,1.96001338 330.188302,1.96803156 330.133569,1.96820493 C329.913317,1.98174154 329.708462,1.85592013 329.622655,1.65440436 C329.60129,1.58382033 329.60129,1.50857421 329.622655,1.43799018 C329.263805,1.68123712 328.836733,1.80618457 328.402138,1.79507358 C327.643022,1.7400435 326.897373,1.56695953 326.192543,1.28217197 C325.49352,0.997335681 324.747142,0.824254144 323.987314,0.769270351 C323.279277,0.753865163 322.61108,1.09315419 322.210032,1.6717175 C321.928374,1.42500533 321.458944,1.02247495 321.118335,1.02247495 C320.899995,1.02247495 320.751524,1.18911387 320.681656,1.51589928 C320.516495,1.4062888 320.360267,1.28400006 320.214409,1.15015931 C319.928385,0.866656734 319.670744,0.65024255 319.430571,0.65024255 C319.190397,0.65024255 319.041927,0.866656734 318.90874,1.28217197 C318.6904,1.26702297 318.679483,0.572333444 318.672933,0.239055602 C318.598698,0.410022807 318.528829,0.591810721 318.476428,0.725987515 C318.188219,1.48992958 317.939313,2.13267971 317.301761,2.13267971 C317.263956,2.13512055 317.22603,2.13512055 317.188225,2.13267971 C316.825889,1.84929212 316.497021,1.52622809 316.207881,1.16963659 C316.031356,0.959714766 315.843298,0.759589245 315.644565,0.570169302 C315.620548,0.606959714 315.594347,0.624272848 315.57033,0.624272848 C315.546313,0.624272848 315.458977,0.533378891 315.428409,0.394873814 C315.274021,0.28044724 315.099186,0.196003676 314.913128,0.145997503 C314.729474,0.188547068 314.552471,0.255521114 314.38693,0.345098552 C314.249739,0.63036953 313.963258,0.815774517 313.644576,0.825538039 C313.498289,0.825538039 313.249382,0.764942068 313.229731,0.364575828 L313.216631,0.364575828 C313.027724,0.727200356 312.69226,0.988568076 312.295239,1.07225021 C312.275588,0.903447145 312.247204,0.721659231 312.205719,0.533378891 C312.055065,0.533378891 311.895677,0.52039404 311.769041,0.511737473 L311.716639,0.511737473 C311.539784,0.498752622 311.37603,0.487931913 311.203541,0.487931913 C310.805487,0.464208192 310.412454,0.585851527 310.098744,0.829866323 C309.880405,0.797404195 309.880405,0.468454636 309.880405,0.152489928 C309.791322,0.293635413 309.725023,0.447702412 309.683899,0.609123856 C309.638194,0.776557235 309.567548,0.936297059 309.474293,1.08307092 C307.537623,1.22590428 305.683921,1.2994851 303.961223,1.2994851 C302.228254,1.31159678 300.496257,1.21473729 298.775662,1.00949009 C298.673042,0.994341102 298.670859,0.827702181 298.666492,0.669719827 C298.662125,0.511737473 298.666492,0.340770268 298.557322,0.329949559 C298.077131,0.866005691 297.413641,1.2067754 296.694887,1.28650025 C296.193525,1.27014857 295.733711,1.00611572 295.470003,0.583154153 C295.540856,0.725946528 295.564537,0.887229824 295.537688,1.04411636 C295.490551,1.21950907 295.322661,1.33563126 295.14031,1.31896238 C294.927873,1.33067035 294.731048,1.2084149 294.649047,1.01381838 C294.626169,0.943462134 294.626169,0.86776044 294.649047,0.797404195 C294.326544,1.01140267 293.945358,1.12172759 293.55735,1.1133689 C292.820504,1.05570986 292.098668,0.875744983 291.42199,0.580990012 C290.733273,0.287950032 290.013046,0.108749195 289.277897,0.0507752622 C288.633176,0.0391144788 288.025541,0.34878634 287.660002,0.875313301 C287.393628,0.635093558 286.950399,0.226070751 286.616339,0.226070751 C286.4111,0.226070751 286.277913,0.381888963 286.218962,0.687032962 C286.064768,0.577985332 285.918821,0.457916499 285.782283,0.327785417 L285.631629,0.193608623 C285.413289,0.23689146 285.19495,0.295323289 285.018095,0.34293441 L284.97006,0.355919261 L284.95696,0.355919261 L284.941676,0.355919261 L284.59015,0.446813218 C284.370976,0.503970649 284.147567,0.543771892 283.922031,0.565841019 C283.758276,0.903447145 283.531203,1.2475457 283.094525,1.2475457 C283.053077,1.24997407 283.011518,1.24997407 282.970071,1.2475457 C282.646835,1.00007537 282.353094,0.716911229 282.09453,0.403530381 C281.974205,0.475478869 281.870145,0.571253659 281.788855,0.68486882 C281.570515,0.66106326 281.570515,0.340770268 281.570515,0.001 C281.165498,0.383613539 280.617756,0.583880753 280.057423,0.55502031 Z" id="Subtraction_333" fill="#E0CC6B" fill-rule="nonzero" transform="translate(200.000000, 6.501000) rotate(180.000000) translate(-200.000000, -6.501000) "></path>
    </g>
</svg>