<?xml version="1.0" encoding="UTF-8"?>
<svg width="41px" height="41px" viewBox="0 0 41 41" version="1.1" xmlns="http://www.w3.org/2000/svg" xmlns:xlink="http://www.w3.org/1999/xlink">
    <title>Group</title>
    <g id="Page-1" stroke="none" stroke-width="1" fill="none" fill-rule="evenodd">
        <g id="Group" transform="translate(0.889000, 1.675000)" fill="#E0CC6B" fill-rule="nonzero" stroke="#E0CC6B">
            <g id="Group_425">
                <path d="M21,38 C15.7393579,38.1833599 10.6056928,36.3602492 6.639,32.9 C4.77700814,31.4125116 3.24803355,29.5506921 2.151,27.435 C0.814268861,24.4869399 0.34562352,21.2189104 0.8,18.014 C1.21690425,15.0325856 2.18289132,12.15429 3.649,9.525 C5.05472577,6.84198613 7.18155044,4.60468156 9.79,3.065 C12.2651864,1.38990303 15.159542,0.440474056 18.146,0.324 C22.1855276,0.199386122 26.1797786,1.20366286 29.68,3.224 C31.370877,4.10184927 32.931762,5.21008437 34.318,6.517 C38.425,10.999 39.678,16.347 38.789,22.357 C37.85,28.665 33.941,32.7 28.84,35.777 C26.268,37.329 23.372,38.289 21,38 M19.227,36.85 C24.327,36.73 26.027,36.211 29.637,33.917 C32.305766,32.3166503 34.4801812,30.0096868 35.92,27.251 C38.2836797,22.838049 38.5764966,17.6061438 36.72,12.957 C36.0153694,10.8956396 34.8724863,9.01141755 33.37,7.434 C30.5283567,4.89498056 27.1036204,3.09707991 23.4,2.2 C19.9974477,1.21205309 16.3528336,1.48328679 13.134,2.964 C11.8053642,3.62490129 10.5301804,4.3882061 9.32,5.247 C7.227,6.699 5.208,8.247 4.362,10.828 C3.962,12.051 3.503,13.255 3.082,14.472 C1.182,19.959 1.296,24.98 5.258,29.83 C9.19,34.647 14.242,36.376 19.227,36.85" id="Path_685"></path>
            </g>
            <g id="Group_426" transform="translate(16.517000, 13.262000)">
                <path d="M6,2 C7.49521676,0.937928619 9.37627753,0.573381958 11.16,1 C12.2739888,1.2646008 13.206318,2.02313084 13.692,3.06 C14.842219,5.24707998 15.3837586,7.70300355 15.26,10.171 C15.186,11.378 15.123,12.588 15.107,13.796 C15.1513297,14.1304382 15.0493925,14.4677591 14.8272643,14.7216746 C14.6051361,14.9755902 14.2843629,15.1214709 13.947,15.122 C12.558,15.262 11.167,15.38 9.662,15.522 C9.579,14.89 9.47,14.375 9.45,13.856 C9.373,11.9 9.37,9.95 9.25,8 C9.15,6.383 8.398,5.288 7.52,5.253 C6.763,5.224 5.942,6.553 5.905,8.053 C5.864,9.69 5.919,11.329 5.949,12.967 C5.979,14.667 5.731,14.957 4.076,15.067 C3.41278795,15.0720965 2.75052509,15.1181844 2.093,15.205 C1.102,15.396 0.831,14.866 0.823,14.062 C0.788,10.045 0.755,6.028 0.777,2.01 C0.852039485,1.63977775 1.11179879,1.33395648 1.465,1.2 C2.573,1.01 3.703,0.951 4.826,0.852 C5.563,0.784 6.122,0.961 6,2 M4.769,13.883 C4.69232452,12.4082389 4.70534853,10.9301809 4.808,9.457 C4.91767472,8.06981596 5.28530306,6.71528867 5.892,5.463 C6.28055644,4.77850927 7.03272268,4.38361596 7.81679084,4.45246936 C8.60085899,4.52132277 9.2726884,5.0412651 9.536,5.783 C9.82702043,6.37846924 10.0243454,7.01530617 10.121,7.671 C10.402,9.791 10.61,11.92 10.855,14.12 L14.092,13.92 C14.192,10.225 14.419,6.555 12.681,3.145 C12.3681274,2.56430339 11.8618503,2.11144894 11.25,1.865 C9.46531457,1.09598724 7.38779267,1.58018813 6.127,3.059 C5.72277544,3.41411417 5.28313362,3.7267558 4.815,3.992 C4.534,2.1 4.16,1.9 1.983,2.109 L1.983,14.169 L4.769,13.883" id="Path_686"></path>
            </g>
            <g id="Group_427" transform="translate(9.024000, 13.370000)">
                <path d="M1,8 C1,6.048 1.019,4.1 0.99,2.145 C0.979,1.453 1.22,1.168 1.929,1.145 C2.94,1.111 3.949,0.985 4.957,0.888 C5.734,0.814 6.145,1.132 6.152,1.936 C6.183,5.678 6.26,9.422 6.231,13.164 C6.218,14.807 6.121,14.836 4.531,14.835 C3.364,14.835 1.825,15.166 1.141,14.565 C0.541,14.037 0.874,12.42 0.841,11.282 C0.8,10.188 0.83,9.094 0.83,8 L1,8 M5.057,13.6 C5.057,9.886 5.066,6.3 5.033,2.714 C4.97484497,2.44044606 4.77806004,2.21711982 4.514,2.125 C3.677,2.059 2.833,2.097 2.114,2.097 C2.114,5.803 2.114,9.463 2.114,13.123 C2.13091498,13.3450865 2.16197804,13.565868 2.207,13.784 L5.057,13.6" id="Path_687"></path>
            </g>
            <g id="Group_428" transform="translate(9.478000, 7.169000)">
                <path d="M6,3 C5.96,5.17 5.063,6.2 3.274,6.133 C2.58464705,6.09784483 1.93756523,5.79001722 1.47536768,5.2773606 C1.01317014,4.76470399 0.773795292,4.08929863 0.81,3.4 C0.95712042,1.90959343 2.16328862,0.74577664 3.658,0.652 C4.28365748,0.640434471 4.88701825,0.88429554 5.32893404,1.32734348 C5.77084982,1.77039142 6.01316632,2.37437416 6,3 M5.092,3.15 C5.111,2.15 4.68,1.633 3.781,1.588 C2.7731329,1.69244834 2.00908769,2.54475245 2.015,3.558 C2.0714352,4.4848293 2.77890747,5.24058603 3.7,5.358 C4.521,5.365 5.067,4.5 5.092,3.15" id="Path_688"></path>
            </g>
        </g>
    </g>
</svg>