<svg xmlns="http://www.w3.org/2000/svg" xmlns:xlink="http://www.w3.org/1999/xlink" width="98.087" height="137.299" viewBox="0 0 98.087 137.299">
  <defs>
    <clipPath id="clip-path">
      <path id="Path_287" data-name="Path 287" d="M0,108.027H98.087v-137.3H0Z" transform="translate(0 29.272)" fill="#e0cc6b"/>
    </clipPath>
  </defs>
  <g id="Group_86" data-name="Group 86" transform="translate(0 29.272)" style="isolation: isolate">
    <g id="Group_85" data-name="Group 85" transform="translate(0 -29.272)" clip-path="url(#clip-path)">
      <g id="Group_81" data-name="Group 81" transform="translate(2.436 0.001)">
        <path id="Path_283" data-name="Path 283" d="M8,51.973a3.429,3.429,0,0,1-3.269-2.4l-1.445-4.6C2.12,41.27.961,37.555-.235,33.854-5.117,18.774-.624,4.342,11.787-4.758c10.568-7.749,21.792-10.765,32.491-8.687,11,2.129,20.671,9.47,27.969,21.224,2.781,4.47,4.662,7.9,3.569,11.257s-4.545,5.019-9.329,6.989a3.429,3.429,0,0,1-2.613-6.341c3.269-1.351,5.1-2.3,5.46-2.838-.019-.793-2.2-4.3-2.913-5.45C60.16,1.307,52.045-4.95,42.978-6.709c-8.795-1.7-18.143.891-27.134,7.481C5.783,8.146,2.3,19.436,6.285,31.748,7.491,35.463,8.663,39.2,9.831,42.925l1.44,4.587A3.43,3.43,0,0,1,8,51.973" transform="translate(2.168 14.083)" fill="#e0cc6b"/>
      </g>
      <g id="Group_82" data-name="Group 82" transform="translate(0.001 59.2)">
        <path id="Path_284" data-name="Path 284" d="M12.484,61.448c-11.473,0-13.635-8.762-14.231-15.53-.713-7.983-.727-16.041-.732-23.832-.014-7.7-.028-15.666-.722-23.41-.436-4.8-.23-8.518,2.181-11.046,2.735-2.861,7.27-2.908,12.05-2.7l2.115.122c3.551.225,6.585.417,9.184-1.191a3.428,3.428,0,0,1,3.424-.108l14.386-.131c12.069-.117,24.137-.235,36.21-.239,5.872,0,10.427,1.66,13.537,4.939,3.072,3.241,4.479,7.8,4.17,13.56-.577,10.966-.91,22.692.535,34.193a23.8,23.8,0,0,1-.849,8.377,20.085,20.085,0,0,0-.783,5.858c.483,5.9-4.479,7.65-7.144,8.588A37.555,37.555,0,0,1,73.943,60.66c-7.608.169-15.211.089-22.814.009-12.054-.136-24.5-.272-36.67.7-.68.056-1.346.08-1.975.08M8.263-8.275c-3,0-4.024.328-4.32.643-.225.239-.718,1.271-.314,5.694.722,8.049.736,16.163.75,24.015.009,7.645.019,15.554.7,23.241.75,8.476,3.194,9.658,8.837,9.212,12.477-.994,25.094-.858,37.284-.718,7.528.08,15.052.164,22.58-.009a31.172,31.172,0,0,0,9.751-1.37,9.414,9.414,0,0,0,2.594-1.173,26.716,26.716,0,0,1,.929-8.344,18.21,18.21,0,0,0,.732-5.985C86.274,24.9,86.617,12.8,87.213,1.523c.2-3.8-.577-6.656-2.3-8.476-1.764-1.857-4.644-2.8-8.56-2.8-12.05,0-24.095.122-36.145.235l-15.211.141a3.479,3.479,0,0,1-.661-.056c-3.954,1.82-8,1.567-11.618,1.337l-1.979-.113c-.943-.042-1.759-.061-2.472-.061" transform="translate(3.383 16.651)" fill="#e0cc6b"/>
      </g>
      <g id="Group_83" data-name="Group 83" transform="translate(15.263 12.596)">
        <path id="Path_285" data-name="Path 285" d="M9.645,41.41a3.423,3.423,0,0,1-3.18-2.158c-.525-1.3-1.018-2.622-1.515-3.94a81.259,81.259,0,0,0-3.4-8.185C-3.6,16.93-3.976,8.309.429,1.5c6.262-9.658,17.045-14.24,28.813-12.27C43.2-8.426,49.444,2.915,54.2,13.356A3.431,3.431,0,0,1,47.957,16.2C42.685,4.627,37.751-2.385,28.107-4c-8.978-1.5-17.2,1.937-21.918,9.231C3.163,9.9,3.646,16.058,7.675,24.036a85.619,85.619,0,0,1,3.7,8.87c.478,1.271.952,2.547,1.454,3.8a3.428,3.428,0,0,1-1.909,4.456,3.363,3.363,0,0,1-1.271.244" transform="translate(2.614 11.221)" fill="#e0cc6b"/>
      </g>
      <g id="Group_84" data-name="Group 84" transform="translate(35.516 77.496)">
        <path id="Path_286" data-name="Path 286" d="M11.8,32.2a13.065,13.065,0,0,1-6.9-2.022,3.43,3.43,0,0,1-4.226-4.77C3.423,19.935,3.1,16.61-.8,10.583-4.4,5.006-3.922-.759.515-5.238c2.6-2.627,7.434-5.108,15.821-2.134a11.553,11.553,0,0,1,6.932,6.89,10.666,10.666,0,0,1-.985,9.231c-3.161,5.281-3.457,10.521-.957,16.979a3.437,3.437,0,0,1-1.6,4.278A17.068,17.068,0,0,1,11.8,32.2M8.5,24.344a6.367,6.367,0,0,0,5.371.694A24.092,24.092,0,0,1,16.407,5.226a3.826,3.826,0,0,0,.413-3.387A4.7,4.7,0,0,0,14.043-.909c-2.763-.98-6.487-1.684-8.649.492-1.449,1.463-2.8,3.607-.436,7.28C9.2,13.425,10.323,18.528,8.5,24.344" transform="translate(3.196 8.725)" fill="#e0cc6b"/>
      </g>
    </g>
  </g>
</svg>
