<?xml version="1.0" encoding="UTF-8"?>
<svg width="74px" height="104px" viewBox="0 0 74 104" version="1.1" xmlns="http://www.w3.org/2000/svg" xmlns:xlink="http://www.w3.org/1999/xlink">
    <title>lock-orange</title>
    <defs>
        <polygon id="path-1" points="0 102.830848 73.3175556 102.830848 73.3175556 0.202565657 0 0.202565657"></polygon>
    </defs>
    <g id="Page-1" stroke="none" stroke-width="1" fill="none" fill-rule="evenodd">
        <g id="lock-orange">
            <mask id="mask-2" fill="white">
                <use xlink:href="#path-1"></use>
            </mask>
            <g id="Path_287"></g>
            <g id="Group_85" mask="url(#mask-2)" fill="#E0CC6B" fill-rule="nonzero">
                <g id="Group_81" transform="translate(1.820848, 0.000747)">
                    <path d="M7.60032323,49.3751919 C6.48160466,49.3745514 5.4925416,48.6484115 5.15682828,47.5812525 L4.07672727,44.1428687 C3.20517172,41.3749697 2.33884848,38.598101 1.44486869,35.831697 C-2.20430303,24.5597778 1.15410101,13.7722222 10.4310101,6.97020202 C18.3303232,1.1780202 26.7199798,-1.07636364 34.7172121,0.476888889 C42.9394343,2.06826263 50.1682626,7.55547475 55.6233333,16.3412929 C57.7020606,19.6825051 59.1080606,22.2463434 58.2910707,24.7556162 C57.4740808,27.2648889 54.893798,28.5071919 51.3178788,29.9797172 C50.0090365,30.5190651 48.5107822,29.8952666 47.9714343,28.5864242 C47.4320864,27.2775819 48.0558849,25.7793277 49.3647273,25.2399798 C51.8082222,24.2301414 53.1768485,23.5207879 53.4459394,23.1186465 C53.4317374,22.525899 51.8014949,19.9045051 51.2685455,19.0449091 C46.5886061,11.5036364 40.5228485,6.82668687 33.7454949,5.51187879 C27.1714545,4.24117172 20.1840606,6.17787879 13.4635152,11.1037374 C5.94317172,16.6156162 3.33971717,25.0546061 6.31840404,34.2575152 C7.21985859,37.0343838 8.09589899,39.827697 8.96894949,42.6120404 L10.0453131,46.0407071 C10.2907832,46.8195881 10.1505149,47.6688181 9.66761833,48.3273939 C9.18472179,48.9859696 8.4169695,49.3751919 7.60032323,49.3751919" id="Path_283"></path>
                </g>
                <g id="Group_82" transform="translate(0.000747, 44.250505)">
                    <path d="M11.8601818,58.3770303 C3.28440404,58.3770303 1.66836364,51.8276566 1.22286869,46.7687475 C0.689919192,40.8016566 0.679454545,34.7785051 0.675717172,28.9549293 C0.665252525,23.1993737 0.654787879,17.2449899 0.136040404,11.4565455 C-0.189858586,7.86866667 -0.0358787879,5.08955556 1.76628283,3.19993939 C3.81062626,1.06141414 7.20042424,1.02628283 10.7733535,1.18175758 L12.3542626,1.27294949 C15.0085455,1.44113131 17.2763838,1.58464646 19.2190707,0.382707071 C19.9966228,-0.0991037948 20.9720534,-0.129870881 21.7784242,0.301979798 L32.531596,0.204060606 C41.5528687,0.116606061 50.5733939,0.0284040404 59.5976566,0.0254141414 C63.9868283,0.0254141414 67.3915758,1.26622222 69.7162222,3.71719192 C72.0124646,6.13975758 73.0641616,9.54749495 72.8331919,13.8529495 C72.401899,22.0497576 72.1529899,30.8146465 73.2330909,39.4113535 C73.3953731,41.5196803 73.1804755,43.640054 72.5984848,45.6729495 C72.1885442,47.095673 71.9913186,48.5712126 72.0132121,50.0516566 C72.3742424,54.4617576 68.6652727,55.7698384 66.6732525,56.4709697 C63.8049784,57.3828725 60.8087172,57.827567 57.7992323,57.7880202 C52.1124444,57.9143434 46.4293939,57.8545455 40.7463434,57.7947475 C31.7362828,57.6930909 22.4332121,57.5914343 13.3364444,58.3179798 C12.8281616,58.3598384 12.3303434,58.3777778 11.8601818,58.3777778 M8.70509091,6.26084848 C6.46266667,6.26084848 5.69725253,6.5060202 5.476,6.74147475 C5.30781818,6.92012121 4.93931313,7.69151515 5.24129293,10.997596 C5.7809697,17.0140202 5.79143434,23.0790303 5.80189899,28.948202 C5.80862626,34.6626465 5.81610101,40.5744242 6.32513131,46.3202626 C6.88573737,52.6558586 8.71256566,53.5393737 12.9305657,53.206 C22.2568081,52.4630101 31.687697,52.5646667 40.7994141,52.6693131 C46.426404,52.7291111 52.050404,52.791899 57.6773939,52.6625859 C60.145846,52.7095464 62.6060755,52.363888 64.9660202,51.6385455 C65.6530468,51.446264 66.3068373,51.1506216 66.9049697,50.7617576 C66.8062884,48.6591768 67.0406495,46.5542151 67.5993737,44.5248283 C68.0290868,43.0743817 68.214005,41.5624481 68.1465253,40.0511919 C67.0163434,31.0583232 67.2727273,22.0138788 67.7182222,13.5846061 C67.8677172,10.744202 67.2869293,8.60941414 65.9990303,7.2490101 C64.6804848,5.86094949 62.5277576,5.15608081 59.6006465,5.15608081 C50.5935758,5.15608081 41.5902424,5.24727273 32.5831717,5.33173737 L21.2133333,5.43713131 C21.0476824,5.43894785 20.8822369,5.42493128 20.7192525,5.39527273 C17.7637374,6.75567677 14.7394545,6.56656566 12.0350909,6.39464646 L10.5558384,6.31018182 C9.8509697,6.27878788 9.2410303,6.26458586 8.70808081,6.26458586" id="Path_284"></path>
                </g>
                <g id="Group_83" transform="translate(11.408707, 9.415192)">
                    <path d="M9.16329293,39.3403434 C8.11541123,39.3403434 7.17357719,38.7009923 6.78632323,37.7272929 C6.39389899,36.7555758 6.02539394,35.7674141 5.65389899,34.7822424 C4.91869314,32.6981668 4.07029345,30.6557693 3.11248485,28.6641616 C-0.737010101,21.0421616 -1.01806061,14.5981818 2.27456566,9.50862626 C6.95525253,2.28951515 15.0152727,-1.13541414 23.8115556,0.337111111 C34.2448081,2.08919192 38.9120404,10.566303 42.4670303,18.3706869 C43.0163398,19.6518754 42.4416862,21.1372211 41.1731325,21.715111 C39.9045789,22.2930008 38.4067253,21.7517863 37.8005455,20.4965051 C33.8598586,11.8459798 30.1718182,6.60468687 22.9631717,5.39751515 C16.2523434,4.27630303 10.1066061,6.84537374 6.5800202,12.2974545 C4.31816162,15.7874141 4.67919192,20.3903636 7.69076768,26.3537172 C8.73606252,28.5102258 9.65940232,30.7237458 10.4564242,32.9838182 C10.8137172,33.9338586 11.1680202,34.8876364 11.5432525,35.8242222 C12.0689073,37.1380175 11.4300704,38.6291947 10.1163232,39.1549697 C9.81443828,39.2767009 9.4917845,39.3386423 9.16628283,39.3373535" id="Path_285"></path>
                </g>
                <g id="Group_84" transform="translate(26.547313, 57.926303)">
                    <path d="M11.2091313,30.590404 C9.38241839,30.578901 7.59555231,30.0552716 6.05155556,29.0790101 C5.06408312,29.4348083 3.95947451,29.1527765 3.26343651,28.3671396 C2.56739851,27.5815028 2.42052938,26.450958 2.89272727,25.5135556 C4.94753535,21.4226263 4.70610101,18.9372727 1.79094949,14.4322424 C-0.899959596,10.2635758 -0.542666667,5.95438384 2.77387879,2.60644444 C4.71731313,0.642828283 8.33060606,-1.21165657 14.5996768,1.01133333 C17.0036993,1.87693944 18.9009718,3.76271671 19.7811717,6.16143434 C20.6020336,8.45320104 20.3308715,10.9944171 19.0449091,13.0613737 C16.6821414,17.0087879 16.4608889,20.9255556 18.3295758,25.7527475 C18.7992135,26.9677036 18.2852694,28.3418617 17.1336162,28.9504444 C15.3219755,29.9718145 13.2881089,30.5348101 11.2091313,30.590404 M8.74246465,24.7182424 C9.93679518,25.4800411 11.408412,25.6701923 12.7571515,25.2369899 C11.2166289,20.258907 11.9080166,14.8575768 14.6527475,10.4280202 C15.1470878,9.67926912 15.2613845,8.74192511 14.9614545,7.89632323 C14.6003701,6.94287704 13.8429013,6.19331839 12.8857172,5.84226263 C10.8204444,5.10973737 8.03684848,4.58351515 6.42080808,6.2100202 C5.33771717,7.30357576 4.32787879,8.90616162 6.09490909,11.6516364 C9.26569697,16.5565657 10.1051111,20.3709293 8.74246465,24.7182424" id="Path_286"></path>
                </g>
            </g>
        </g>
    </g>
</svg>