<svg xmlns="http://www.w3.org/2000/svg" xmlns:xlink="http://www.w3.org/1999/xlink" width="352.576" height="83.306" viewBox="0 0 352.576 83.306">
  <defs>
    <clipPath id="clip-path">
      <path id="Path_664" data-name="Path 664" d="M0,46.213H352.576V-37.093H0Z" transform="translate(0 37.093)" fill="none"/>
    </clipPath>
  </defs>
  <g id="Group_419" data-name="Group 419" transform="translate(0 37.093)">
    <g id="Group_418" data-name="Group 418" transform="translate(0 -37.093)" clip-path="url(#clip-path)">
      <g id="Group_382" data-name="Group 382" transform="translate(102.415 4.334)">
        <path id="Path_631" data-name="Path 631" d="M.244,10.055A1.572,1.572,0,0,1-.189,8.872L-.2-6.465A1.572,1.572,0,0,1,.237-7.649a1.645,1.645,0,0,1,1.2-.42l5.208,0a9.726,9.726,0,0,1,7.063,2.43,9.058,9.058,0,0,1,2.515,6.825,9.1,9.1,0,0,1-2.509,6.854,9.748,9.748,0,0,1-7.063,2.437H1.441a1.645,1.645,0,0,1-1.2-.42M12.828,1.187q0-6.5-6.394-6.5H3.2l0,13.019H6.438q6.391,0,6.39-6.524" transform="translate(0.196 8.071)" fill="#fff"/>
      </g>
      <g id="Group_383" data-name="Group 383" transform="translate(121.252 9.693)">
        <path id="Path_632" data-name="Path 632" d="M6.444,5.544a1.429,1.429,0,0,1,.276.921,1.593,1.593,0,0,1-.972,1.368,8.725,8.725,0,0,1-2.026.8,8.42,8.42,0,0,1-2.156.3A6.7,6.7,0,0,1-3.353,7.152,6.558,6.558,0,0,1-5.172,2.258a7.511,7.511,0,0,1,.788-3.5A5.729,5.729,0,0,1-2.16-3.606,6.285,6.285,0,0,1,1.087-4.45a5.843,5.843,0,0,1,3.025.761,5.177,5.177,0,0,1,2,2.156,7.154,7.154,0,0,1,.71,3.288q0,1.132-1,1.132l-7.76,0A4.15,4.15,0,0,0-.909,5.56a3.455,3.455,0,0,0,2.527.856A4.9,4.9,0,0,0,3.1,6.2a15.467,15.467,0,0,0,1.46-.579A2.907,2.907,0,0,1,5.721,5.2a.881.881,0,0,1,.723.341M-.977-1.292a3.979,3.979,0,0,0-.959,2.421l5.945,0a3.752,3.752,0,0,0-.791-2.435,2.6,2.6,0,0,0-2.053-.826,2.82,2.82,0,0,0-2.143.842" transform="translate(5.172 4.45)" fill="#fff"/>
      </g>
      <g id="Group_384" data-name="Group 384" transform="translate(134.272 9.74)">
        <path id="Path_633" data-name="Path 633" d="M6.092.131a1.358,1.358,0,0,1,.777-.236A1.66,1.66,0,0,1,7.961.3a1.266,1.266,0,0,1,.485,1.011,1.388,1.388,0,0,1-.157.631L3.426,12.126a1.729,1.729,0,0,1-.669.764,1.826,1.826,0,0,1-.961.265,1.907,1.907,0,0,1-.959-.265,1.656,1.656,0,0,1-.7-.761L-4.757,1.95a1.339,1.339,0,0,1-.133-.606A1.282,1.282,0,0,1-4.378.319,1.81,1.81,0,0,1-3.208-.1,1.466,1.466,0,0,1-1.813.818L1.872,8.944,5.526.841a1.614,1.614,0,0,1,.566-.71" transform="translate(4.89 0.105)" fill="#fff"/>
      </g>
      <g id="Group_385" data-name="Group 385" transform="translate(148.636 9.683)">
        <path id="Path_634" data-name="Path 634" d="M6.444,5.544a1.429,1.429,0,0,1,.276.921,1.593,1.593,0,0,1-.972,1.368,8.725,8.725,0,0,1-2.026.8,8.3,8.3,0,0,1-2.156.3A6.688,6.688,0,0,1-3.353,7.152,6.558,6.558,0,0,1-5.172,2.258a7.511,7.511,0,0,1,.788-3.5A5.749,5.749,0,0,1-2.16-3.608,6.327,6.327,0,0,1,1.087-4.45a5.843,5.843,0,0,1,3.025.761,5.177,5.177,0,0,1,2,2.156,7.183,7.183,0,0,1,.712,3.288q0,1.132-1,1.132l-7.76,0A4.15,4.15,0,0,0-.909,5.56a3.445,3.445,0,0,0,2.527.853A4.831,4.831,0,0,0,3.1,6.2a14.949,14.949,0,0,0,1.46-.582A2.894,2.894,0,0,1,5.721,5.2a.881.881,0,0,1,.723.341M-.977-1.292a3.979,3.979,0,0,0-.959,2.421l5.945,0a3.752,3.752,0,0,0-.791-2.435,2.611,2.611,0,0,0-2.053-.829,2.829,2.829,0,0,0-2.143.844" transform="translate(5.172 4.45)" fill="#fff"/>
      </g>
      <g id="Group_386" data-name="Group 386" transform="translate(163.31 4.183)">
        <path id="Path_635" data-name="Path 635" d="M.259,10.221A1.476,1.476,0,0,1-.2,9.051l-.007-15.7a1.439,1.439,0,0,1,.46-1.159A1.735,1.735,0,0,1,1.423-8.2a1.794,1.794,0,0,1,1.184.391A1.422,1.422,0,0,1,3.08-6.654l.007,15.7a1.452,1.452,0,0,1-.474,1.17,1.738,1.738,0,0,1-1.184.411,1.7,1.7,0,0,1-1.17-.409" transform="translate(0.208 8.204)" fill="#fff"/>
      </g>
      <g id="Group_387" data-name="Group 387" transform="translate(169.286 9.676)">
        <path id="Path_636" data-name="Path 636" d="M1.731,6.976a5.64,5.64,0,0,1-2.3-2.34,7.387,7.387,0,0,1-.818-3.551,7.385,7.385,0,0,1,.813-3.54,5.647,5.647,0,0,1,2.3-2.327A7.056,7.056,0,0,1,5.185-5.6a7.048,7.048,0,0,1,3.459.813,5.568,5.568,0,0,1,2.291,2.327,7.476,7.476,0,0,1,.8,3.54,7.527,7.527,0,0,1-.8,3.551A5.562,5.562,0,0,1,8.648,6.973a7.1,7.1,0,0,1-3.456.818,7.083,7.083,0,0,1-3.461-.815M7.608,4.184a4.882,4.882,0,0,0,.842-3.1A4.911,4.911,0,0,0,7.606-2.01,2.9,2.9,0,0,0,5.187-3.075,2.938,2.938,0,0,0,2.752-2.008,4.855,4.855,0,0,0,1.9,1.085a4.882,4.882,0,0,0,.844,3.1A2.917,2.917,0,0,0,5.162,5.24,2.946,2.946,0,0,0,7.608,4.184" transform="translate(1.389 5.599)" fill="#fff"/>
      </g>
      <g id="Group_388" data-name="Group 388" transform="translate(185.12 9.668)">
        <path id="Path_637" data-name="Path 637" d="M5.742.467A5.574,5.574,0,0,1,7.768,2.846a8.219,8.219,0,0,1,.725,3.537,7.955,7.955,0,0,1-.723,3.5A5.5,5.5,0,0,1,5.76,12.2a5.446,5.446,0,0,1-2.974.815,5.084,5.084,0,0,1-2.446-.579,4.055,4.055,0,0,1-1.657-1.6V16.2a1.359,1.359,0,0,1-.445,1.078,1.72,1.72,0,0,1-1.186.4,1.7,1.7,0,0,1-1.195-.42,1.434,1.434,0,0,1-.463-1.1l0-14.915A1.5,1.5,0,0,1-4.176.1a1.611,1.611,0,0,1,1.17-.42A1.66,1.66,0,0,1-1.82.1a1.487,1.487,0,0,1,.447,1.132v.656A4.029,4.029,0,0,1,.3.218,5.175,5.175,0,0,1,2.782-.375a5.334,5.334,0,0,1,2.96.842M4.339,9.4a4.657,4.657,0,0,0,.867-3.012,4.912,4.912,0,0,0-.869-3.1,2.9,2.9,0,0,0-2.421-1.1A2.922,2.922,0,0,0-.517,3.257,4.842,4.842,0,0,0-1.37,6.336a4.8,4.8,0,0,0,.856,3.05,2.925,2.925,0,0,0,2.432,1.078A2.946,2.946,0,0,0,4.339,9.4" transform="translate(4.609 0.375)" fill="#fff"/>
      </g>
      <g id="Group_389" data-name="Group 389" transform="translate(200.61 3.879)">
        <path id="Path_638" data-name="Path 638" d="M.293,1.671A1.666,1.666,0,0,1-.235.4,1.613,1.613,0,0,1,.293-.867a2.038,2.038,0,0,1,1.419-.474A2.05,2.05,0,0,1,3.12-.869,1.6,1.6,0,0,1,3.659.393a1.656,1.656,0,0,1-.526,1.276,2,2,0,0,1-1.419.487A2.014,2.014,0,0,1,.293,1.671m.256,15.7a1.476,1.476,0,0,1-.46-1.17l0-10.154a1.434,1.434,0,0,1,.46-1.157,1.725,1.725,0,0,1,1.17-.4A1.784,1.784,0,0,1,2.9,4.891,1.419,1.419,0,0,1,3.372,6.05l0,10.151A1.459,1.459,0,0,1,2.9,17.374a1.737,1.737,0,0,1-1.184.409,1.69,1.69,0,0,1-1.17-.409" transform="translate(0.235 1.341)" fill="#fff"/>
      </g>
      <g id="Group_390" data-name="Group 390" transform="translate(207.609 9.66)">
        <path id="Path_639" data-name="Path 639" d="M6.056.729A5.973,5.973,0,0,1,7.19,4.7l0,6.47a1.534,1.534,0,0,1-.436,1.157,1.65,1.65,0,0,1-1.195.422,1.7,1.7,0,0,1-1.211-.42A1.513,1.513,0,0,1,3.9,11.172l0-6.286A3.408,3.408,0,0,0,3.334,2.7,2.166,2.166,0,0,0,1.558,2.02a2.992,2.992,0,0,0-2.273.9A3.314,3.314,0,0,0-1.571,5.31l0,5.866a1.508,1.508,0,0,1-.447,1.157,1.687,1.687,0,0,1-1.208.42,1.645,1.645,0,0,1-1.2-.42,1.534,1.534,0,0,1-.436-1.157L-4.861,1a1.447,1.447,0,0,1,.449-1.1A1.687,1.687,0,0,1-3.2-.529a1.568,1.568,0,0,1,1.118.407A1.391,1.391,0,0,1-1.652.942l0,.71A4.432,4.432,0,0,1,.111-.006a5.355,5.355,0,0,1,2.5-.579A4.3,4.3,0,0,1,6.056.729" transform="translate(4.861 0.585)" fill="#fff"/>
      </g>
      <g id="Group_391" data-name="Group 391" transform="translate(222.29 9.657)">
        <path id="Path_640" data-name="Path 640" d="M7.092.26a1.478,1.478,0,0,1,.447,1.132l0,10.389a5.923,5.923,0,0,1-1.682,4.577,7.1,7.1,0,0,1-4.97,1.554A9.669,9.669,0,0,1-3.9,16.837a1.648,1.648,0,0,1-.975-1.395,1.424,1.424,0,0,1,.276-.921.887.887,0,0,1,.723-.341A1.884,1.884,0,0,1-3.3,14.3c.229.081.465.173.712.278a15.42,15.42,0,0,0,1.7.6,6.457,6.457,0,0,0,1.725.209q3.446,0,3.443-3.367V10.338A3.992,3.992,0,0,1,2.6,12.006,5.26,5.26,0,0,1,.071,12.6a5.58,5.58,0,0,1-2.985-.8A5.53,5.53,0,0,1-4.953,9.552,7.294,7.294,0,0,1-5.692,6.21a7.446,7.446,0,0,1,.723-3.353A5.382,5.382,0,0,1-2.93.593a5.64,5.64,0,0,1,3-.8A5.281,5.281,0,0,1,2.593.379,4.028,4.028,0,0,1,4.277,2.05V1.368a1.442,1.442,0,0,1,.447-1.1A1.662,1.662,0,0,1,5.908-.16,1.659,1.659,0,0,1,7.092.26M3.4,9.022a4.182,4.182,0,0,0,.88-2.814A4.238,4.238,0,0,0,3.4,3.366,3.069,3.069,0,0,0,.936,2.34,3.081,3.081,0,0,0-1.51,3.366,4.185,4.185,0,0,0-2.4,6.21a4.14,4.14,0,0,0,.894,2.814A3.084,3.084,0,0,0,.94,10.048,3.075,3.075,0,0,0,3.4,9.022" transform="translate(5.692 0.209)" fill="#fff"/>
      </g>
      <g id="Group_392" data-name="Group 392" transform="translate(244.148 5.992)">
        <path id="Path_641" data-name="Path 641" d="M5.489,8.725a1.072,1.072,0,0,1-.512.961,2.483,2.483,0,0,1-1.46.278l-.71-.054q-4.42-.317-4.422-4.734l0-5.734H-2.93A1.652,1.652,0,0,1-4.022-.874a1.122,1.122,0,0,1-.384-.919,1.128,1.128,0,0,1,.382-.921A1.664,1.664,0,0,1-2.933-3.03h1.316l0-2.421a1.485,1.485,0,0,1,.447-1.132A1.707,1.707,0,0,1,.039-7a1.655,1.655,0,0,1,1.184.42,1.478,1.478,0,0,1,.447,1.132l0,2.419H3.906A1.671,1.671,0,0,1,5-2.718a1.127,1.127,0,0,1,.38.921A1.12,1.12,0,0,1,5-.876a1.664,1.664,0,0,1-1.091.314l-2.237,0,0,5.972q0,1.947,1.79,2.077l.71.052c.876.052,1.316.447,1.316,1.184" transform="translate(4.406 7.003)" fill="#fff"/>
      </g>
      <g id="Group_393" data-name="Group 393" transform="translate(255.746 4.148)">
        <path id="Path_642" data-name="Path 642" d="M6.685,5.98l0,6.47a1.538,1.538,0,0,1-.433,1.159,1.645,1.645,0,0,1-1.2.42,1.7,1.7,0,0,1-1.211-.42A1.508,1.508,0,0,1,3.4,12.453l0-6.47a3.043,3.043,0,0,0-.566-2.039A2.249,2.249,0,0,0,1.055,3.3a2.994,2.994,0,0,0-2.275.9,3.311,3.311,0,0,0-.853,2.392l0,5.866a1.5,1.5,0,0,1-.447,1.157,1.694,1.694,0,0,1-1.211.422,1.649,1.649,0,0,1-1.2-.422,1.526,1.526,0,0,1-.433-1.157L-5.366-3.273a1.429,1.429,0,0,1,.46-1.107,1.7,1.7,0,0,1,1.2-.42,1.727,1.727,0,0,1,1.184.393,1.364,1.364,0,0,1,.447,1.078l0,6.131A4.3,4.3,0,0,1-.326,1.235,5.542,5.542,0,0,1,2.16.7q4.524,0,4.525,5.285" transform="translate(5.366 4.8)" fill="#fff"/>
      </g>
      <g id="Group_394" data-name="Group 394" transform="translate(270.428 9.638)">
        <path id="Path_643" data-name="Path 643" d="M6.444,5.544a1.429,1.429,0,0,1,.276.921,1.593,1.593,0,0,1-.972,1.368,8.625,8.625,0,0,1-2.026.8,8.228,8.228,0,0,1-2.156.3A6.7,6.7,0,0,1-3.353,7.152,6.558,6.558,0,0,1-5.172,2.258a7.511,7.511,0,0,1,.788-3.5A5.735,5.735,0,0,1-2.16-3.608,6.306,6.306,0,0,1,1.087-4.45a5.843,5.843,0,0,1,3.025.761,5.177,5.177,0,0,1,2,2.156,7.154,7.154,0,0,1,.71,3.288q0,1.132-1,1.132l-7.76,0A4.15,4.15,0,0,0-.909,5.56a3.464,3.464,0,0,0,2.527.853A4.831,4.831,0,0,0,3.1,6.2a15.54,15.54,0,0,0,1.46-.582A2.894,2.894,0,0,1,5.721,5.2a.881.881,0,0,1,.723.341M-.977-1.292a3.979,3.979,0,0,0-.959,2.421l5.945,0a3.75,3.75,0,0,0-.791-2.432,2.611,2.611,0,0,0-2.053-.829,2.821,2.821,0,0,0-2.143.844" transform="translate(5.172 4.45)" fill="#fff"/>
      </g>
      <g id="Group_395" data-name="Group 395" transform="translate(102.414 31.173)">
        <path id="Path_644" data-name="Path 644" d="M9.763.255a1.683,1.683,0,0,1,.447,1.224l.007,15.573a1.569,1.569,0,0,1-.42,1.157,1.493,1.493,0,0,1-1.1.42,1.411,1.411,0,0,1-1.08-.418,1.628,1.628,0,0,1-.393-1.159l0-10.836L2.744,14.687a2.622,2.622,0,0,1-.683.856,1.409,1.409,0,0,1-.869.276,1.452,1.452,0,0,1-.867-.263,2.406,2.406,0,0,1-.685-.869l-4.5-8.337,0,10.706A1.607,1.607,0,0,1-5.264,18.2a1.432,1.432,0,0,1-1.091.433,1.4,1.4,0,0,1-1.078-.42,1.614,1.614,0,0,1-.4-1.157L-7.836,1.486A1.723,1.723,0,0,1-7.4.262,1.549,1.549,0,0,1-6.23-.2a1.772,1.772,0,0,1,1.6,1.13L1.217,12.058,7.027.927A1.748,1.748,0,0,1,8.579-.2a1.583,1.583,0,0,1,1.184.46" transform="translate(7.836 0.205)" fill="#fff"/>
      </g>
      <g id="Group_396" data-name="Group 396" transform="translate(123.7 36.669)">
        <path id="Path_645" data-name="Path 645" d="M5.58.735a5.561,5.561,0,0,1,1.3,4.038l0,6.419a1.485,1.485,0,0,1-.422,1.118,1.587,1.587,0,0,1-1.157.409A1.54,1.54,0,0,1,4.19,12.3a1.47,1.47,0,0,1-.433-1.107v-.577a3.421,3.421,0,0,1-1.408,1.6A4.212,4.212,0,0,1,.127,12.8a5.167,5.167,0,0,1-2.342-.526,4.163,4.163,0,0,1-1.657-1.446,3.65,3.65,0,0,1-.606-2.053,3.246,3.246,0,0,1,.723-2.235A4.337,4.337,0,0,1-1.4,5.355a21.491,21.491,0,0,1,4.5-.368h.658l0-.606A2.69,2.69,0,0,0,3.2,2.5a2.345,2.345,0,0,0-1.788-.593A5.7,5.7,0,0,0-.14,2.132c-.528.148-1.15.366-1.869.645a2.617,2.617,0,0,1-1,.344.989.989,0,0,1-.775-.341,1.3,1.3,0,0,1-.3-.9,1.354,1.354,0,0,1,.222-.775A2.136,2.136,0,0,1-3.114.49,8.6,8.6,0,0,1-.917-.3,11.313,11.313,0,0,1,1.594-.59,5.363,5.363,0,0,1,5.58.735M2.928,9.55a3.2,3.2,0,0,0,.826-2.277V6.72H3.281a18.01,18.01,0,0,0-2.735.162,2.645,2.645,0,0,0-1.395.55A1.407,1.407,0,0,0-1.27,8.51,1.784,1.784,0,0,0-.677,9.894a2.084,2.084,0,0,0,1.46.539A2.819,2.819,0,0,0,2.928,9.55" transform="translate(4.479 0.59)" fill="#fff"/>
      </g>
      <g id="Group_397" data-name="Group 397" transform="translate(138.401 36.709)">
        <path id="Path_646" data-name="Path 646" d="M4.582.164a1.282,1.282,0,0,1,.4,1.026,1.436,1.436,0,0,1-.341,1.051A2.094,2.094,0,0,1,3.4,2.689L2.61,2.77A3.189,3.189,0,0,0,.335,3.823,3.433,3.433,0,0,0-.388,6.058l0,5.523a1.465,1.465,0,0,1-.472,1.172,1.74,1.74,0,0,1-1.184.409,1.7,1.7,0,0,1-1.172-.409,1.476,1.476,0,0,1-.46-1.17l0-10.178A1.413,1.413,0,0,1-3.218.272a1.7,1.7,0,0,1,1.145-.4,1.585,1.585,0,0,1,1.1.382,1.4,1.4,0,0,1,.42,1.089V2.4A3.9,3.9,0,0,1,.94.614,4.537,4.537,0,0,1,3.136-.1L3.5-.125a1.416,1.416,0,0,1,1.078.29" transform="translate(3.678 0.132)" fill="#fff"/>
      </g>
      <g id="Group_398" data-name="Group 398" transform="translate(148.158 30.873)">
        <path id="Path_647" data-name="Path 647" d="M.293,1.672A1.666,1.666,0,0,1-.235.4,1.613,1.613,0,0,1,.293-.866a2.028,2.028,0,0,1,1.419-.476A2.051,2.051,0,0,1,3.12-.868,1.6,1.6,0,0,1,3.659.394,1.656,1.656,0,0,1,3.134,1.67a2,2,0,0,1-1.419.487A2.014,2.014,0,0,1,.293,1.672m.256,15.7a1.476,1.476,0,0,1-.46-1.17l0-10.154a1.442,1.442,0,0,1,.46-1.159A1.735,1.735,0,0,1,1.714,4.5,1.784,1.784,0,0,1,2.9,4.893a1.419,1.419,0,0,1,.474,1.159l0,10.151A1.459,1.459,0,0,1,2.9,17.375a1.744,1.744,0,0,1-1.181.407,1.7,1.7,0,0,1-1.172-.407" transform="translate(0.235 1.342)" fill="#fff"/>
      </g>
      <g id="Group_399" data-name="Group 399" transform="translate(153.816 33.003)">
        <path id="Path_648" data-name="Path 648" d="M5.489,8.725a1.072,1.072,0,0,1-.512.961,2.467,2.467,0,0,1-1.46.276l-.71-.054Q-1.612,9.6-1.614,5.176l0-5.736-1.316,0A1.662,1.662,0,0,1-4.022-.874a1.123,1.123,0,0,1-.384-.921,1.131,1.131,0,0,1,.382-.921A1.664,1.664,0,0,1-2.933-3.03l1.316,0,0-2.419a1.478,1.478,0,0,1,.447-1.132A1.7,1.7,0,0,1,.039-7a1.655,1.655,0,0,1,1.184.42,1.478,1.478,0,0,1,.447,1.132l0,2.419H3.906A1.675,1.675,0,0,1,5-2.718a1.127,1.127,0,0,1,.38.921A1.12,1.12,0,0,1,5-.876a1.664,1.664,0,0,1-1.091.314l-2.237,0,0,5.972q0,1.947,1.79,2.077l.71.052c.876.052,1.316.447,1.316,1.184" transform="translate(4.406 7.003)" fill="#fff"/>
      </g>
      <g id="Group_400" data-name="Group 400" transform="translate(165.098 30.869)">
        <path id="Path_649" data-name="Path 649" d="M.293,1.671A1.666,1.666,0,0,1-.235.4,1.613,1.613,0,0,1,.293-.867a2.038,2.038,0,0,1,1.419-.474A2.039,2.039,0,0,1,3.12-.869,1.6,1.6,0,0,1,3.659.393a1.656,1.656,0,0,1-.526,1.276,2,2,0,0,1-1.419.487A2.014,2.014,0,0,1,.293,1.671m.256,15.7a1.476,1.476,0,0,1-.46-1.17l0-10.154a1.434,1.434,0,0,1,.46-1.157,1.725,1.725,0,0,1,1.17-.4A1.784,1.784,0,0,1,2.9,4.891,1.419,1.419,0,0,1,3.372,6.05l0,10.151A1.459,1.459,0,0,1,2.9,17.374a1.746,1.746,0,0,1-1.181.409,1.7,1.7,0,0,1-1.172-.409" transform="translate(0.235 1.341)" fill="#fff"/>
      </g>
      <g id="Group_401" data-name="Group 401" transform="translate(172.098 36.647)">
        <path id="Path_650" data-name="Path 650" d="M10.266.693a5.972,5.972,0,0,1,1.118,4.038l0,6.47a1.482,1.482,0,0,1-.458,1.17,1.743,1.743,0,0,1-1.2.409,1.7,1.7,0,0,1-1.17-.407A1.482,1.482,0,0,1,8.1,11.2l0-6.47a3.254,3.254,0,0,0-.512-2.064,1.917,1.917,0,0,0-1.565-.618,2.579,2.579,0,0,0-2.053.88,3.568,3.568,0,0,0-.761,2.41l0,5.864a1.483,1.483,0,0,1-.46,1.17,1.686,1.686,0,0,1-1.17.409,1.746,1.746,0,0,1-1.184-.407,1.458,1.458,0,0,1-.474-1.17l0-6.47A3.242,3.242,0,0,0-.6,2.669a1.921,1.921,0,0,0-1.565-.618A2.536,2.536,0,0,0-4.2,2.934,3.6,3.6,0,0,0-4.95,5.342l0,5.864a1.459,1.459,0,0,1-.474,1.172,1.735,1.735,0,0,1-1.181.409,1.7,1.7,0,0,1-1.172-.409,1.476,1.476,0,0,1-.46-1.17l0-10.181A1.385,1.385,0,0,1-7.766-.1,1.773,1.773,0,0,1-6.583-.5a1.636,1.636,0,0,1,1.118.382A1.365,1.365,0,0,1-5.031.973v.633A4.116,4.116,0,0,1-3.414,0,4.811,4.811,0,0,1-1.085-.554,3.772,3.772,0,0,1,2.783,1.865,4.328,4.328,0,0,1,4.492.1,5.008,5.008,0,0,1,7.043-.556,4.1,4.1,0,0,1,10.266.693" transform="translate(8.24 0.556)" fill="#fff"/>
      </g>
      <g id="Group_402" data-name="Group 402" transform="translate(194.354 36.644)">
        <path id="Path_651" data-name="Path 651" d="M6.444,5.543a1.429,1.429,0,0,1,.276.921,1.593,1.593,0,0,1-.972,1.368,8.725,8.725,0,0,1-2.026.8,8.42,8.42,0,0,1-2.156.3A6.7,6.7,0,0,1-3.353,7.151,6.549,6.549,0,0,1-5.172,2.257a7.511,7.511,0,0,1,.788-3.5A5.729,5.729,0,0,1-2.16-3.607a6.284,6.284,0,0,1,3.248-.842,5.82,5.82,0,0,1,3.025.759,5.157,5.157,0,0,1,2,2.156,7.154,7.154,0,0,1,.714,3.288q0,1.132-1,1.132l-7.76,0A4.148,4.148,0,0,0-.909,5.559a3.455,3.455,0,0,0,2.527.856A4.9,4.9,0,0,0,3.1,6.2a15.467,15.467,0,0,0,1.46-.579A2.907,2.907,0,0,1,5.721,5.2a.881.881,0,0,1,.723.341M-.977-1.294a3.979,3.979,0,0,0-.959,2.421l5.945,0a3.752,3.752,0,0,0-.791-2.435,2.6,2.6,0,0,0-2.053-.826,2.82,2.82,0,0,0-2.143.842" transform="translate(5.172 4.449)" fill="#fff"/>
      </g>
      <g id="Group_403" data-name="Group 403" transform="translate(216.448 31.267)">
        <path id="Path_652" data-name="Path 652" d="M.258,10.122A1.687,1.687,0,0,1-.2,8.871l0-15.389A1.555,1.555,0,0,1,.226-7.7a1.631,1.631,0,0,1,1.195-.422l6.473,0a6.692,6.692,0,0,1,4.629,1.485,5.3,5.3,0,0,1,1.66,4.168,5.36,5.36,0,0,1-1.655,4.184A6.654,6.654,0,0,1,7.9,3.213l-4.71,0,0,5.655a1.687,1.687,0,0,1-.46,1.251,1.69,1.69,0,0,1-1.249.458,1.659,1.659,0,0,1-1.224-.458M10.973-2.442q0-3.052-3.5-3.052l-4.287,0V.61l4.29,0q3.5,0,3.5-3.05" transform="translate(0.207 8.124)" fill="#fff"/>
      </g>
      <g id="Group_404" data-name="Group 404" transform="translate(233.257 36.674)">
        <path id="Path_653" data-name="Path 653" d="M4.582.164a1.282,1.282,0,0,1,.4,1.026,1.436,1.436,0,0,1-.341,1.051A2.094,2.094,0,0,1,3.4,2.689l-.788.079A3.2,3.2,0,0,0,.335,3.823,3.433,3.433,0,0,0-.388,6.058l0,5.523a1.465,1.465,0,0,1-.472,1.172,1.763,1.763,0,0,1-1.184.409,1.7,1.7,0,0,1-1.172-.409,1.476,1.476,0,0,1-.46-1.17l0-10.178A1.413,1.413,0,0,1-3.218.272a1.7,1.7,0,0,1,1.145-.4,1.584,1.584,0,0,1,1.1.38,1.406,1.406,0,0,1,.42,1.091V2.4A3.9,3.9,0,0,1,.94.614,4.537,4.537,0,0,1,3.136-.1L3.5-.125a1.416,1.416,0,0,1,1.078.29" transform="translate(3.678 0.132)" fill="#fff"/>
      </g>
      <g id="Group_405" data-name="Group 405" transform="translate(242.36 36.625)">
        <path id="Path_654" data-name="Path 654" d="M6.444,5.544a1.42,1.42,0,0,1,.276.921,1.6,1.6,0,0,1-.972,1.368,8.625,8.625,0,0,1-2.026.8,8.31,8.31,0,0,1-2.156.3A6.7,6.7,0,0,1-3.353,7.152,6.558,6.558,0,0,1-5.172,2.258a7.511,7.511,0,0,1,.788-3.5A5.735,5.735,0,0,1-2.16-3.608,6.306,6.306,0,0,1,1.087-4.45a5.843,5.843,0,0,1,3.025.761,5.177,5.177,0,0,1,2,2.156,7.148,7.148,0,0,1,.71,3.288c0,.752-.332,1.132-1,1.132l-7.76,0A4.138,4.138,0,0,0-.909,5.558a3.455,3.455,0,0,0,2.527.856A4.761,4.761,0,0,0,3.1,6.2a14.661,14.661,0,0,0,1.46-.579A2.894,2.894,0,0,1,5.721,5.2a.881.881,0,0,1,.723.341M-.977-1.295a3.992,3.992,0,0,0-.959,2.423l5.945,0a3.75,3.75,0,0,0-.791-2.432,2.611,2.611,0,0,0-2.053-.829,2.828,2.828,0,0,0-2.143.842" transform="translate(5.172 4.45)" fill="#fff"/>
      </g>
      <g id="Group_406" data-name="Group 406" transform="translate(256.328 36.62)">
        <path id="Path_655" data-name="Path 655" d="M1.687,6.976A5.572,5.572,0,0,1-.563,4.662a7.439,7.439,0,0,1-.791-3.5A7.34,7.34,0,0,1-.525-2.374,5.857,5.857,0,0,1,1.8-4.757,6.935,6.935,0,0,1,5.247-5.6a7.67,7.67,0,0,1,2.066.29,6.708,6.708,0,0,1,1.828.788,1.623,1.623,0,0,1,.842,1.392,1.482,1.482,0,0,1-.276.934.868.868,0,0,1-.723.355,1.56,1.56,0,0,1-.6-.13,5.551,5.551,0,0,1-.633-.317,6.88,6.88,0,0,0-1.1-.537,3.4,3.4,0,0,0-1.208-.2A3.073,3.073,0,0,0,2.92-1.954a4.7,4.7,0,0,0-.88,3.063,4.654,4.654,0,0,0,.883,3.039A3.081,3.081,0,0,0,5.435,5.213a3.22,3.22,0,0,0,1.17-.2,9.209,9.209,0,0,0,1.143-.541,5.356,5.356,0,0,1,.685-.355A1.525,1.525,0,0,1,9.013,4a.872.872,0,0,1,.71.366,1.449,1.449,0,0,1,.29.923,1.473,1.473,0,0,1-.2.775,1.732,1.732,0,0,1-.645.591,6.875,6.875,0,0,1-1.893.831,8.12,8.12,0,0,1-2.208.3,6.823,6.823,0,0,1-3.382-.815" transform="translate(1.354 5.599)" fill="#fff"/>
      </g>
      <g id="Group_407" data-name="Group 407" transform="translate(269.555 30.83)">
        <path id="Path_656" data-name="Path 656" d="M.293,1.671A1.666,1.666,0,0,1-.235.4,1.613,1.613,0,0,1,.293-.867a2.038,2.038,0,0,1,1.419-.474A2.061,2.061,0,0,1,3.12-.869,1.6,1.6,0,0,1,3.659.393a1.656,1.656,0,0,1-.526,1.276,2,2,0,0,1-1.419.487A2.014,2.014,0,0,1,.293,1.671m.256,15.7a1.476,1.476,0,0,1-.46-1.17l0-10.154a1.434,1.434,0,0,1,.46-1.157,1.736,1.736,0,0,1,1.17-.4,1.785,1.785,0,0,1,1.184.4A1.411,1.411,0,0,1,3.372,6.05l0,10.151A1.459,1.459,0,0,1,2.9,17.374a1.735,1.735,0,0,1-1.181.409,1.7,1.7,0,0,1-1.172-.409" transform="translate(0.235 1.341)" fill="#fff"/>
      </g>
      <g id="Group_408" data-name="Group 408" transform="translate(276.555 36.612)">
        <path id="Path_657" data-name="Path 657" d="M6.056.729A5.955,5.955,0,0,1,7.188,4.7l0,6.47a1.539,1.539,0,0,1-.436,1.159,1.639,1.639,0,0,1-1.195.42,1.693,1.693,0,0,1-1.211-.42A1.508,1.508,0,0,1,3.9,11.172l0-6.288A3.412,3.412,0,0,0,3.334,2.7a2.173,2.173,0,0,0-1.776-.683,3,3,0,0,0-2.275.9,3.33,3.33,0,0,0-.853,2.394l0,5.866a1.513,1.513,0,0,1-.447,1.159,1.7,1.7,0,0,1-1.208.42,1.664,1.664,0,0,1-1.2-.42,1.545,1.545,0,0,1-.433-1.157L-4.861,1A1.452,1.452,0,0,1-4.412-.111,1.7,1.7,0,0,1-3.2-.531a1.56,1.56,0,0,1,1.118.409A1.391,1.391,0,0,1-1.652.942l0,.71A4.416,4.416,0,0,1,.111-.006a5.3,5.3,0,0,1,2.5-.579A4.294,4.294,0,0,1,6.056.729" transform="translate(4.861 0.585)" fill="#fff"/>
      </g>
      <g id="Group_409" data-name="Group 409" transform="translate(291.235 36.607)">
        <path id="Path_658" data-name="Path 658" d="M1.687,6.976A5.578,5.578,0,0,1-.563,4.66a7.423,7.423,0,0,1-.791-3.5,7.362,7.362,0,0,1,.829-3.54A5.851,5.851,0,0,1,1.8-4.757,6.935,6.935,0,0,1,5.247-5.6a7.667,7.667,0,0,1,2.066.287,6.78,6.78,0,0,1,1.828.791,1.623,1.623,0,0,1,.842,1.392,1.482,1.482,0,0,1-.276.934.868.868,0,0,1-.723.355,1.56,1.56,0,0,1-.6-.13,5.551,5.551,0,0,1-.633-.317,6.9,6.9,0,0,0-1.1-.539,3.452,3.452,0,0,0-1.208-.2A3.078,3.078,0,0,0,2.92-1.956a4.709,4.709,0,0,0-.88,3.066,4.643,4.643,0,0,0,.883,3.036A3.075,3.075,0,0,0,5.435,5.213a3.22,3.22,0,0,0,1.17-.2,9.906,9.906,0,0,0,1.143-.541,5.356,5.356,0,0,1,.685-.355A1.525,1.525,0,0,1,9.013,4a.872.872,0,0,1,.71.366,1.449,1.449,0,0,1,.29.923,1.473,1.473,0,0,1-.2.775,1.732,1.732,0,0,1-.645.591,6.806,6.806,0,0,1-1.893.829,8.035,8.035,0,0,1-2.208.305,6.823,6.823,0,0,1-3.382-.815" transform="translate(1.354 5.599)" fill="#fff"/>
      </g>
      <g id="Group_410" data-name="Group 410" transform="translate(302.964 32.947)">
        <path id="Path_659" data-name="Path 659" d="M5.489,8.725a1.072,1.072,0,0,1-.512.961,2.467,2.467,0,0,1-1.46.276l-.71-.052q-4.42-.317-4.422-4.734l0-5.734H-2.93A1.664,1.664,0,0,1-4.022-.874a1.13,1.13,0,0,1-.384-.921,1.131,1.131,0,0,1,.382-.921A1.664,1.664,0,0,1-2.933-3.03h1.316l0-2.421a1.485,1.485,0,0,1,.447-1.132A1.707,1.707,0,0,1,.039-7a1.655,1.655,0,0,1,1.184.42,1.478,1.478,0,0,1,.447,1.132l0,2.419H3.906A1.671,1.671,0,0,1,5-2.718a1.127,1.127,0,0,1,.38.921A1.12,1.12,0,0,1,5-.876a1.664,1.664,0,0,1-1.091.314l-2.237,0,0,5.972q0,1.947,1.79,2.077l.71.052q1.317.077,1.316,1.184" transform="translate(4.406 7.003)" fill="#fff"/>
      </g>
      <g id="Group_412" data-name="Group 412" transform="translate(1.168 0.216)">
        <g id="Group_411" data-name="Group 411">
          <path id="Path_660" data-name="Path 660" d="M17.437-36.643c.239.37-.344.045-.7.084-.821-.689.464-.444.7-.084M2.527,39.312a2.012,2.012,0,0,0-.8,1.487,4.345,4.345,0,0,1,1.691.9c5.248-.739,11.85,1.969,17.63,1.943,0,0,.065-.439.409-.508,1.657-.373,4.113.349,5.964.764.142-.853,2-.438,2.588-.152-.261-.364-.778-1.077-.439-1.147,1.109,1,2.651-.591,3.964,1.21.671-.145-.194-.8.142-.87,1.192.569,1.988-.448,2.775.637,1.928-.015,3.258-.312,4.123.346,1.437-.665,3.056,0,4.194-.111l3.2-79.429c-1.3-.847-3.947.509-5.479,1.042-.534-.832-.639-1.015-1.641-.9-.832.1-1.634.386-2.468.485-1.529.18-3.144-.147-4.646.128a39.83,39.83,0,0,1-7.066.223c-2.434,0-4.869-.007-7.3,0a5.924,5.924,0,0,1-1.153.02c-.552-.125-.87-.661-1.4-.842-.838-.283-2.508-.149-2.427,1.065-.756.257-1.875-.34-2.632-.53a8.86,8.86,0,0,0-2.337-.288c-1.6.009-2.942.287-4.508.288-.774,0-3.425-.344-3.767.268a6.57,6.57,0,0,0,.017,2.183,9.944,9.944,0,0,1,.29,1.871,30.506,30.506,0,0,0,.584,4.035,13.27,13.27,0,0,1-.009,2.016,16.281,16.281,0,0,1-.511,2.017c-.644,4.108.115,8.3-.051,12.423Q1.26-5.339,1.068-.56C1.037.2,1.007.956.977,1.713c.037.75.007,1.594.061,2.311.03.371.747.1.778.47C1.154,5.524-.156,7.928,1.483,10,.293,9.1.49,11.71,1.214,11.432c-1.6,3.483,2.575,9.581-.187,12.532.429.8,1.291,2.395.194,2.614.452,1.17,1.669,2.437.229,2.987.018.367.764.468,1.143.519C1.532,30.683.415,30.9.528,32.4c.893,1.972,2.458,2.914,2.241,5.1C2.331,36.7,1.4,39.16,2.527,39.312" transform="translate(-0.52 36.997)" fill="#e3cd6d"/>
        </g>
      </g>
      <g id="Group_414" data-name="Group 414" transform="translate(41.091 1.159)">
        <g id="Group_413" data-name="Group 413">
          <path id="Path_661" data-name="Path 661" d="M63.183-19.078c-.359-.049-.036-.371-.056-.746.674-.274.408.794.056.746M18.527,34.671c.649,1.465,2.486,3.041,2.086,4.769-.065.28-.876,4.09-.352,4.089.334.468.719.167,1.169.262.032.006.6.235.577.231a35.495,35.495,0,0,0,5.742.352c1.809,0,3.67.106,5.468-.048a74.068,74.068,0,0,1,7.517-.53c1.5.023,1.956-.581,3.268-1.176,1.079-.49,1.679.194,2.805.618a12.518,12.518,0,0,0,2.24.558,7.041,7.041,0,0,0,2.584.227,23.878,23.878,0,0,0,2.533-.583c1.947-.56,4.133-.189,6.12-.5.7-.108.99-.239,1.153-.865.393-1.514-.007-3.683-.007-5.221V33.149a20.791,20.791,0,0,0-.262-4.8,16.942,16.942,0,0,1-.607-2.133,9.372,9.372,0,0,1,.123-2.789c-.036-.369-.394-.418-.79-.847-.024-.366.335-.317.7-.267-.4-.43-.452-1.17-.554-2.293,1.7-.88.477-2.891,1-5.032-.037-.383-.057-.75-.768-.847-.073-.752.642-.654.976-.976-.069-.754-.427-.8-.779-.848-.056-.746.619-1.02.166-2.19,2.208,1.039.386-4.012-.167-6.3l1.078.145c.057.008.718-6.548.77-7.092a8.987,8.987,0,0,0,0-2.979,18.448,18.448,0,0,1-.755-3.471c-.049-1.493-1.72-2.456-1.711-4.008a14.407,14.407,0,0,0,.027-2.111c-.1-.788.215-1.513.167-2.253-.045-.722-.55-1.279-.493-2.029a12.286,12.286,0,0,1,.94-2.438c.106-.354.094-.828.222-1.158.4-1.047,1.6-1.4,1.474-2.58a16.142,16.142,0,0,1-.334-1.586,5.687,5.687,0,0,0,.02-1.45c-.246-.6-.729-.778-.864-1.59a2.96,2.96,0,0,1,.027-1.367c.095-.284.57-.68.492-1.011-.037-.159-.641-.711-.756-.909-.431-.736-.283-.935-.106-1.692a11.416,11.416,0,0,0-2.727-.331h0c-1.277.007-2.495-.235-3.741-.27-.908-.026-1.81.294-2.729.314-2.712.056-5.408-.77-8.115-.481-.709.076-1.311.438-2,.574-1.01.2-1.767-.41-1.848.817-.212-.007-.886-.4-.812-.691-.11.421-.8.5-1.839.643-2.246-1.718-3.272-.4-5.837-.873-.347.051-.7.086-.223.819-.7.1-1.169-.638-1.762-.974-.693.1-.454.466-.217.827-.7.083-1.518-.6-2.325-.1-.73-2.3-4.312-.269-6.153.371-.073-.106-.14-.214-.211-.323-.145,2.054-.069,3.519-.978,4.81.866,1.963-.35,4.383-.162,6.631-.327.322.776.837.715.1-.3.692-.171,2.19-.827,2.834.028.382.385.43.747.478-1.251,2.045.038,4.8-.879,6.524.039.383.4.429.743.477-.318.323-.674.274-1,.6a170.157,170.157,0,0,0,.168,19.229c.036.369.715.1.746.466-.616,1.036-1.831,3.452-.249,5.515-1.137-.9-.92,1.723-.237,1.439-1.478,3.5,2.564,9.58-.019,12.554.42.8,1.255,2.391.218,2.618.445,1.167,1.615,2.429.253,2.988.025.37.733.465,1.1.514" transform="translate(-18.296 36.577)" fill="#0c577e"/>
        </g>
      </g>
      <g id="Group_416" data-name="Group 416" transform="translate(1.169 1.159)">
        <g id="Group_415" data-name="Group 415">
          <path id="Path_662" data-name="Path 662" d="M84.463-3.115a8.924,8.924,0,0,0,0-2.981,18.423,18.423,0,0,1-.754-3.468c-.049-1.493-1.719-2.458-1.711-4.008a14.409,14.409,0,0,0,.027-2.111c-.1-.788.215-1.513.169-2.253-.047-.722-.552-1.28-.493-2.029A12.047,12.047,0,0,1,82.64-22.4c.105-.356.1-.83.222-1.16.4-1.047,1.6-1.4,1.474-2.577A16.23,16.23,0,0,1,84-27.73a5.541,5.541,0,0,0,.02-1.448c-.247-.6-.73-.781-.865-1.593a2.938,2.938,0,0,1,.03-1.366c.093-.282.568-.678.491-1.009-.038-.161-.641-.713-.756-.909-.432-.738-.283-.935-.106-1.692a11.536,11.536,0,0,0-2.727-.334h0c-1.276.009-2.494-.233-3.741-.268-.908-.026-1.81.294-2.729.314-2.71.056-5.407-.772-8.113-.481-.709.076-1.314.438-2,.572-1.01.2-1.766-.408-1.848.817-.212-.007-.886-.4-.812-.688-.11.421-.8.5-1.839.643-2.243-1.717-3.272-.4-5.834-.873-.35.048-.7.085-.226.817-.7.1-1.169-.636-1.762-.974-.693.1-.453.468-.216.829-.7.083-1.517-.605-2.323-.1-.732-2.3-4.313-.267-6.155.373-.071-.108-.137-.214-.211-.323a.007.007,0,0,0,0,.007c-.366-.538-.583-.682-1.427-.583s-1.637.384-2.471.482c-1.529.18-3.144-.147-4.646.128a40.044,40.044,0,0,1-7.065.226c-2.435,0-4.869-.007-7.3,0a5.969,5.969,0,0,1-1.155.02c-.549-.123-.867-.66-1.4-.842-.84-.283-2.508-.149-2.428,1.067-.753.257-1.873-.343-2.633-.532a8.939,8.939,0,0,0-2.334-.288c-1.594.012-2.944.287-4.511.288-.774,0-3.423-.344-3.767.268A6.645,6.645,0,0,0,1.15-33a10.152,10.152,0,0,1,.292,1.871A30.146,30.146,0,0,0,2.024-27.1a13.189,13.189,0,0,1-.007,2.017A16.128,16.128,0,0,1,1.5-23.062c-.644,4.106.116,8.3-.051,12.423q-.191,4.778-.385,9.555C1.039-.324,1.008.432.978,1.191c.037.75,0,1.594.058,2.308.032.371.749.1.778.472C1.152,5-.157,7.4,1.481,9.475c-1.187-.9-.992,1.714-.267,1.433-1.6,3.483,2.573,9.581-.189,12.532.432.8,1.291,2.395.2,2.616.449,1.168,1.666,2.434.226,2.985.021.37.767.468,1.146.519-1.063.6-2.18.818-2.065,2.311.893,1.972,2.456,2.914,2.241,5.1-.44-.79-1.37,1.667-.244,1.819a2.02,2.02,0,0,0-.8,1.487,4.333,4.333,0,0,1,1.691.9c5.248-.737,11.85,1.969,17.632,1.943,0,0,.063-.439.407-.509,1.658-.37,4.116.352,5.966.764.14-.853,2-.438,2.585-.152-.261-.361-.778-1.075-.439-1.147,1.112,1,2.651-.591,3.964,1.21.671-.145-.192-.8.142-.868,1.192.569,1.99-.45,2.775.637,1.93-.015,3.26-.314,4.123.346a3.626,3.626,0,0,1,1.68-.274c.017.237.058.41.16.409.333.465.717.167,1.168.26.033.008.6.235.575.233a35.781,35.781,0,0,0,5.744.353c1.807,0,3.668.105,5.465-.051a74.006,74.006,0,0,1,7.52-.528c1.5.023,1.954-.581,3.266-1.176,1.079-.49,1.679.192,2.805.618a12.35,12.35,0,0,0,2.24.556,6.993,6.993,0,0,0,2.584.227,23.107,23.107,0,0,0,2.533-.581c1.949-.559,4.133-.189,6.122-.5.7-.108.987-.241,1.151-.865.393-1.517-.007-3.683-.007-5.221q0-1.853,0-3.707a20.771,20.771,0,0,0-.261-4.795,16.942,16.942,0,0,1-.607-2.133,9.348,9.348,0,0,1,.123-2.789c-.036-.371-.392-.418-.79-.847-.024-.366.335-.317.7-.27a4.073,4.073,0,0,1-.554-2.291c1.694-.882.477-2.891,1-5.032-.037-.383-.058-.752-.768-.847-.073-.752.642-.657.975-.978-.068-.751-.427-.8-.778-.846-.056-.746.618-1.022.169-2.19,2.208,1.039.384-4.012-.169-6.3.358.047.721.1,1.078.145C83.752,3.985,84.411-2.571,84.463-3.115Z" transform="translate(-0.521 36.577)" fill="none" stroke="#fff" stroke-linecap="round" stroke-linejoin="round" stroke-width="4"/>
        </g>
      </g>
      <g id="Group_417" data-name="Group 417" transform="translate(101.086 59.339)">
        <path id="Path_663" data-name="Path 663" d="M3.563,2.741a4.724,4.724,0,0,0-2.122.46A3.682,3.682,0,0,0-.053,4.538V-.7a1.168,1.168,0,0,0-.382-.921,1.469,1.469,0,0,0-1.011-.337,1.452,1.452,0,0,0-1.022.359A1.217,1.217,0,0,0-2.86-.65V12.78a1.312,1.312,0,0,0,.371.988,1.4,1.4,0,0,0,1.022.359,1.443,1.443,0,0,0,1.033-.359,1.294,1.294,0,0,0,.382-.988V7.772a2.832,2.832,0,0,1,.73-2.044A2.561,2.561,0,0,1,2.62,4.964a1.916,1.916,0,0,1,1.516.55,2.6,2.6,0,0,1,.483,1.741V12.78A1.294,1.294,0,0,0,5,13.768a1.443,1.443,0,0,0,1.033.359,1.4,1.4,0,0,0,1.022-.359,1.312,1.312,0,0,0,.371-.988V7.255q0-4.514-3.863-4.514M18.97,10.983a2.459,2.459,0,0,0-.988.359,12.671,12.671,0,0,1-1.246.494,4.121,4.121,0,0,1-1.269.18,2.944,2.944,0,0,1-2.156-.73,3.535,3.535,0,0,1-.876-2.28H19.06q.852,0,.853-.966a6.109,6.109,0,0,0-.606-2.807A4.426,4.426,0,0,0,17.6,3.392a4.986,4.986,0,0,0-2.583-.651,5.38,5.38,0,0,0-2.774.719,4.881,4.881,0,0,0-1.9,2.021,6.411,6.411,0,0,0-.674,2.987,5.6,5.6,0,0,0,1.55,4.177,5.724,5.724,0,0,0,4.2,1.527,7.1,7.1,0,0,0,1.842-.258,7.548,7.548,0,0,0,1.729-.685,1.363,1.363,0,0,0,.831-1.168,1.215,1.215,0,0,0-.236-.786.755.755,0,0,0-.618-.292M15.085,4.717a2.224,2.224,0,0,1,1.752.707A3.218,3.218,0,0,1,17.51,7.5H12.434a3.383,3.383,0,0,1,.82-2.066,2.412,2.412,0,0,1,1.83-.719m16.283-6.67a1.4,1.4,0,0,0-1,.348A1.188,1.188,0,0,0,30-.7V4.627a3.436,3.436,0,0,0-1.415-1.392,4.393,4.393,0,0,0-2.111-.494,4.534,4.534,0,0,0-4.256,2.673A6.778,6.778,0,0,0,21.6,8.4a7,7,0,0,0,.618,3.021,4.756,4.756,0,0,0,1.729,2.033,4.558,4.558,0,0,0,2.527.719,4.316,4.316,0,0,0,2.122-.517,3.53,3.53,0,0,0,1.426-1.437v.561a1.259,1.259,0,0,0,.382.966,1.6,1.6,0,0,0,2.021,0,1.267,1.267,0,0,0,.382-.966V-.65a1.2,1.2,0,0,0-.4-.943,1.5,1.5,0,0,0-1.033-.359M27.212,11.994a2.477,2.477,0,0,1-2.066-.943A4.2,4.2,0,0,1,24.4,8.4a3.964,3.964,0,0,1,.741-2.583,2.554,2.554,0,0,1,2.089-.9,2.487,2.487,0,0,1,2.055.91,4.1,4.1,0,0,1,.73,2.616,4.15,4.15,0,0,1-.73,2.628,2.5,2.5,0,0,1-2.077.921m9.882,2.134a1.5,1.5,0,0,0,1.011-.348,1.247,1.247,0,0,0,.4-1V-.628a1.214,1.214,0,0,0-.4-.988,1.525,1.525,0,0,0-1.011-.337,1.479,1.479,0,0,0-1,.337,1.228,1.228,0,0,0-.393.988V12.78a1.262,1.262,0,0,0,.393,1,1.452,1.452,0,0,0,1,.348M46.168,2.741a9.705,9.705,0,0,0-2.145.247,7.234,7.234,0,0,0-1.875.674,1.785,1.785,0,0,0-.64.528,1.144,1.144,0,0,0-.191.663,1.108,1.108,0,0,0,.258.764.84.84,0,0,0,.663.292,2.24,2.24,0,0,0,.853-.292c.613-.24,1.145-.422,1.595-.55a4.809,4.809,0,0,1,1.325-.191,2.008,2.008,0,0,1,1.527.505,2.3,2.3,0,0,1,.472,1.606V7.5h-.561a18.346,18.346,0,0,0-3.84.314A3.693,3.693,0,0,0,41.6,8.827a2.769,2.769,0,0,0-.618,1.909,3.106,3.106,0,0,0,.517,1.752,3.546,3.546,0,0,0,1.415,1.235,4.41,4.41,0,0,0,2,.449,3.6,3.6,0,0,0,1.9-.494,2.946,2.946,0,0,0,1.2-1.37V12.8a1.257,1.257,0,0,0,.371.943,1.308,1.308,0,0,0,.954.359,1.367,1.367,0,0,0,.988-.348,1.272,1.272,0,0,0,.359-.954V7.323A4.748,4.748,0,0,0,49.57,3.875a4.571,4.571,0,0,0-3.4-1.134m-.7,9.41a1.779,1.779,0,0,1-1.246-.46,1.526,1.526,0,0,1-.505-1.179,1.2,1.2,0,0,1,.359-.921,2.259,2.259,0,0,1,1.19-.472A15.473,15.473,0,0,1,47.6,8.984h.4v.472A2.721,2.721,0,0,1,47.3,11.4a2.4,2.4,0,0,1-1.83.752m14.441-9.41a4.515,4.515,0,0,0-2.134.494,3.8,3.8,0,0,0-1.5,1.415V4.044a1.188,1.188,0,0,0-.371-.91,1.342,1.342,0,0,0-.955-.348,1.439,1.439,0,0,0-1.033.359,1.232,1.232,0,0,0-.382.943V12.78a1.312,1.312,0,0,0,.371.988,1.4,1.4,0,0,0,1.022.359,1.447,1.447,0,0,0,1.033-.359,1.294,1.294,0,0,0,.382-.988V7.772a2.832,2.832,0,0,1,.73-2.044,2.557,2.557,0,0,1,1.943-.764,1.862,1.862,0,0,1,1.516.584,2.915,2.915,0,0,1,.483,1.864V12.78a1.286,1.286,0,0,0,.382.988,1.439,1.439,0,0,0,1.033.359,1.4,1.4,0,0,0,1.022-.359,1.312,1.312,0,0,0,.371-.988V7.255a5.1,5.1,0,0,0-.966-3.391,3.676,3.676,0,0,0-2.942-1.123M75.836-1.953a1.4,1.4,0,0,0-1,.348,1.188,1.188,0,0,0-.371.91V4.627a3.436,3.436,0,0,0-1.415-1.392,4.393,4.393,0,0,0-2.111-.494,4.534,4.534,0,0,0-4.256,2.673A6.778,6.778,0,0,0,66.066,8.4a7,7,0,0,0,.618,3.021,4.756,4.756,0,0,0,1.729,2.033,4.558,4.558,0,0,0,2.527.719,4.316,4.316,0,0,0,2.122-.517,3.53,3.53,0,0,0,1.426-1.437v.561a1.259,1.259,0,0,0,.382.966,1.6,1.6,0,0,0,2.021,0,1.267,1.267,0,0,0,.382-.966V-.65a1.2,1.2,0,0,0-.4-.943,1.5,1.5,0,0,0-1.033-.359M71.681,11.994a2.477,2.477,0,0,1-2.066-.943,4.2,4.2,0,0,1-.741-2.65,3.964,3.964,0,0,1,.741-2.583,2.554,2.554,0,0,1,2.089-.9,2.487,2.487,0,0,1,2.055.91,4.1,4.1,0,0,1,.73,2.616,4.15,4.15,0,0,1-.73,2.628,2.5,2.5,0,0,1-2.077.921M93.219,2.741A4.243,4.243,0,0,0,91.04,3.3a3.7,3.7,0,0,0-1.46,1.5,3.22,3.22,0,0,0-3.3-2.066,4.076,4.076,0,0,0-1.988.472,3.506,3.506,0,0,0-1.381,1.37V4.044a1.176,1.176,0,0,0-.371-.932,1.391,1.391,0,0,0-.954-.326,1.525,1.525,0,0,0-1.011.337,1.185,1.185,0,0,0-.4.966V12.78a1.262,1.262,0,0,0,.393,1,1.452,1.452,0,0,0,1,.348,1.5,1.5,0,0,0,1.011-.348,1.247,1.247,0,0,0,.4-1V7.772a3.067,3.067,0,0,1,.64-2.055,2.167,2.167,0,0,1,1.741-.752,1.637,1.637,0,0,1,1.336.528,2.778,2.778,0,0,1,.438,1.763V12.78a1.247,1.247,0,0,0,.4,1,1.5,1.5,0,0,0,1.011.348,1.456,1.456,0,0,0,1-.348,1.27,1.27,0,0,0,.393-1V7.772a3.024,3.024,0,0,1,.651-2.055,2.2,2.2,0,0,1,1.752-.752,1.637,1.637,0,0,1,1.336.528,2.778,2.778,0,0,1,.438,1.763V12.78a1.262,1.262,0,0,0,.393,1,1.452,1.452,0,0,0,1,.348,1.491,1.491,0,0,0,1.022-.348,1.27,1.27,0,0,0,.393-1V7.255a5.1,5.1,0,0,0-.954-3.447,3.5,3.5,0,0,0-2.751-1.067m11.317,0a9.736,9.736,0,0,0-2.145.247,7.3,7.3,0,0,0-1.875.674,1.826,1.826,0,0,0-.64.528,1.161,1.161,0,0,0-.191.663,1.118,1.118,0,0,0,.258.764.843.843,0,0,0,.663.292,2.228,2.228,0,0,0,.853-.292c.615-.24,1.145-.422,1.595-.55a4.822,4.822,0,0,1,1.325-.191,2,2,0,0,1,1.527.505,2.3,2.3,0,0,1,.472,1.606V7.5h-.561a18.376,18.376,0,0,0-3.84.314,3.71,3.71,0,0,0-2.01,1.011,2.78,2.78,0,0,0-.618,1.909,3.124,3.124,0,0,0,.517,1.752,3.576,3.576,0,0,0,1.415,1.235,4.423,4.423,0,0,0,2,.449,3.6,3.6,0,0,0,1.9-.494,2.922,2.922,0,0,0,1.2-1.37V12.8a1.257,1.257,0,0,0,.371.943,1.312,1.312,0,0,0,.954.359,1.36,1.36,0,0,0,.988-.348,1.263,1.263,0,0,0,.359-.954V7.323a4.748,4.748,0,0,0-1.112-3.447,4.571,4.571,0,0,0-3.4-1.134m-.7,9.41a1.779,1.779,0,0,1-1.246-.46,1.526,1.526,0,0,1-.505-1.179,1.208,1.208,0,0,1,.359-.921,2.276,2.276,0,0,1,1.19-.472,15.514,15.514,0,0,1,2.336-.135h.4v.472a2.721,2.721,0,0,1-.707,1.943,2.4,2.4,0,0,1-1.83.752m14.194-9.365-.314.022a3.9,3.9,0,0,0-1.875.606,3.332,3.332,0,0,0-1.269,1.527v-.9a1.192,1.192,0,0,0-.359-.932,1.342,1.342,0,0,0-.943-.326,1.451,1.451,0,0,0-.977.337,1.206,1.206,0,0,0-.393.966V12.78a1.27,1.27,0,0,0,.393,1,1.456,1.456,0,0,0,1,.348,1.5,1.5,0,0,0,1.011-.348,1.247,1.247,0,0,0,.4-1V8.064a2.943,2.943,0,0,1,.618-1.909,2.731,2.731,0,0,1,1.943-.9l.674-.067A1.787,1.787,0,0,0,119,4.807a1.222,1.222,0,0,0,.292-.9,1.1,1.1,0,0,0-.337-.876,1.207,1.207,0,0,0-.921-.247M121.9,14.128a1.5,1.5,0,0,0,1.011-.348,1.247,1.247,0,0,0,.4-1V4.111a1.214,1.214,0,0,0-.4-.988,1.525,1.525,0,0,0-1.011-.337,1.483,1.483,0,0,0-1,.337,1.236,1.236,0,0,0-.393.988V12.78a1.27,1.27,0,0,0,.393,1,1.456,1.456,0,0,0,1,.348m0-13.341a1.717,1.717,0,0,0,1.213-.415,1.408,1.408,0,0,0,.449-1.089A1.361,1.361,0,0,0,123.1-1.8a1.752,1.752,0,0,0-1.2-.4,1.75,1.75,0,0,0-1.213.4,1.382,1.382,0,0,0-.449,1.078,1.416,1.416,0,0,0,.449,1.089A1.724,1.724,0,0,0,121.9.787m10.488,11.252-.606-.045q-1.526-.111-1.527-1.774v-5.1h1.909a1.423,1.423,0,0,0,.932-.27.961.961,0,0,0,.326-.786.961.961,0,0,0-.326-.786,1.423,1.423,0,0,0-.932-.27h-1.909V.944a1.259,1.259,0,0,0-.382-.966,1.409,1.409,0,0,0-1.011-.359,1.447,1.447,0,0,0-1.033.359,1.267,1.267,0,0,0-.382.966V3.01h-1.123a1.427,1.427,0,0,0-.932.27.967.967,0,0,0-.326.786.967.967,0,0,0,.326.786,1.427,1.427,0,0,0,.932.27h1.123v4.9q0,3.773,3.773,4.043l.606.045a2.1,2.1,0,0,0,1.246-.236.913.913,0,0,0,.438-.82c0-.629-.373-.966-1.123-1.011m3.975,2.089a1.5,1.5,0,0,0,1.011-.348,1.247,1.247,0,0,0,.4-1V4.111a1.214,1.214,0,0,0-.4-.988,1.525,1.525,0,0,0-1.011-.337,1.483,1.483,0,0,0-1,.337,1.228,1.228,0,0,0-.393.988V12.78a1.262,1.262,0,0,0,.393,1,1.456,1.456,0,0,0,1,.348m0-13.341a1.717,1.717,0,0,0,1.213-.415,1.416,1.416,0,0,0,.449-1.089,1.361,1.361,0,0,0-.46-1.078,1.756,1.756,0,0,0-1.2-.4,1.743,1.743,0,0,0-1.213.4A1.382,1.382,0,0,0,134.7-.718a1.416,1.416,0,0,0,.449,1.089,1.717,1.717,0,0,0,1.213.415M153.72,2.741a4.249,4.249,0,0,0-2.179.561,3.716,3.716,0,0,0-1.46,1.5,3.22,3.22,0,0,0-3.3-2.066,4.088,4.088,0,0,0-1.988.472,3.506,3.506,0,0,0-1.381,1.37V4.044a1.176,1.176,0,0,0-.371-.932,1.39,1.39,0,0,0-.954-.326,1.525,1.525,0,0,0-1.011.337,1.185,1.185,0,0,0-.4.966V12.78a1.262,1.262,0,0,0,.393,1,1.456,1.456,0,0,0,1,.348,1.5,1.5,0,0,0,1.011-.348,1.247,1.247,0,0,0,.4-1V7.772a3.067,3.067,0,0,1,.64-2.055,2.167,2.167,0,0,1,1.741-.752,1.634,1.634,0,0,1,1.336.528,2.778,2.778,0,0,1,.438,1.763V12.78a1.247,1.247,0,0,0,.4,1,1.5,1.5,0,0,0,1.011.348,1.456,1.456,0,0,0,1-.348,1.262,1.262,0,0,0,.393-1V7.772a3.036,3.036,0,0,1,.651-2.055,2.2,2.2,0,0,1,1.752-.752,1.634,1.634,0,0,1,1.336.528,2.778,2.778,0,0,1,.438,1.763V12.78a1.262,1.262,0,0,0,.393,1,1.456,1.456,0,0,0,1,.348,1.488,1.488,0,0,0,1.022-.348,1.262,1.262,0,0,0,.393-1V7.255a5.1,5.1,0,0,0-.955-3.447,3.5,3.5,0,0,0-2.751-1.067m15.25,8.242a2.47,2.47,0,0,0-.988.359,12.67,12.67,0,0,1-1.246.494,4.111,4.111,0,0,1-1.269.18,2.945,2.945,0,0,1-2.156-.73,3.535,3.535,0,0,1-.876-2.28h6.625q.852,0,.853-.966a6.109,6.109,0,0,0-.606-2.807A4.412,4.412,0,0,0,167.6,3.392a4.986,4.986,0,0,0-2.583-.651,5.38,5.38,0,0,0-2.774.719,4.9,4.9,0,0,0-1.9,2.021,6.411,6.411,0,0,0-.674,2.987,5.6,5.6,0,0,0,1.55,4.177,5.724,5.724,0,0,0,4.2,1.527,7.1,7.1,0,0,0,1.842-.258,7.508,7.508,0,0,0,1.729-.685,1.359,1.359,0,0,0,.831-1.168,1.215,1.215,0,0,0-.236-.786.755.755,0,0,0-.618-.292m-3.885-6.266a2.224,2.224,0,0,1,1.752.707A3.192,3.192,0,0,1,167.51,7.5h-5.076a3.4,3.4,0,0,1,.82-2.066,2.412,2.412,0,0,1,1.83-.719m8.445,9.41a1.6,1.6,0,0,0,1.19-.483,1.766,1.766,0,0,0,0-2.4,1.709,1.709,0,0,0-2.381,0,1.766,1.766,0,0,0,0,2.4,1.594,1.594,0,0,0,1.19.483m8.826.045a6.939,6.939,0,0,0,1.887-.258,5.971,5.971,0,0,0,1.617-.707,1.536,1.536,0,0,0,.55-.505,1.264,1.264,0,0,0,.168-.663,1.236,1.236,0,0,0-.247-.786.752.752,0,0,0-.606-.314,1.288,1.288,0,0,0-.494.1,4.355,4.355,0,0,0-.584.3,8.343,8.343,0,0,1-.977.46,2.775,2.775,0,0,1-1,.168,2.623,2.623,0,0,1-2.145-.91,3.96,3.96,0,0,1-.752-2.594,4,4,0,0,1,.752-2.616,2.623,2.623,0,0,1,2.145-.91,2.94,2.94,0,0,1,1.033.168,6.029,6.029,0,0,1,.943.46,4.308,4.308,0,0,0,.539.27,1.35,1.35,0,0,0,.517.112.746.746,0,0,0,.618-.3,1.261,1.261,0,0,0,.236-.8,1.393,1.393,0,0,0-.719-1.19,5.779,5.779,0,0,0-1.561-.674,6.586,6.586,0,0,0-1.763-.247,5.911,5.911,0,0,0-2.942.719,4.993,4.993,0,0,0-1.988,2.033,6.27,6.27,0,0,0-.707,3.021,6.321,6.321,0,0,0,.674,2.987,4.75,4.75,0,0,0,1.92,1.976,5.809,5.809,0,0,0,2.886.7m11.095,0a6.036,6.036,0,0,0,2.953-.7,4.765,4.765,0,0,0,1.954-2,6.436,6.436,0,0,0,.685-3.032,6.364,6.364,0,0,0-.685-3.021A4.79,4.79,0,0,0,196.4,3.437a6.612,6.612,0,0,0-5.907,0,4.829,4.829,0,0,0-1.965,1.988,6.263,6.263,0,0,0-.7,3.021,6.333,6.333,0,0,0,.7,3.032,4.8,4.8,0,0,0,1.965,2,6.03,6.03,0,0,0,2.953.7m-.022-2.179a2.488,2.488,0,0,1-2.066-.9,4.166,4.166,0,0,1-.719-2.65,4.132,4.132,0,0,1,.73-2.639,2.508,2.508,0,0,1,2.077-.91,2.48,2.48,0,0,1,2.066.91,4.188,4.188,0,0,1,.719,2.639,4.18,4.18,0,0,1-.719,2.65,2.519,2.519,0,0,1-2.089.9M214.4,2.741a4.243,4.243,0,0,0-2.178.561,3.7,3.7,0,0,0-1.46,1.5,3.22,3.22,0,0,0-3.3-2.066,4.076,4.076,0,0,0-1.988.472,3.506,3.506,0,0,0-1.381,1.37V4.044a1.176,1.176,0,0,0-.371-.932,1.39,1.39,0,0,0-.954-.326,1.525,1.525,0,0,0-1.011.337,1.185,1.185,0,0,0-.4.966V12.78a1.262,1.262,0,0,0,.393,1,1.452,1.452,0,0,0,1,.348,1.5,1.5,0,0,0,1.011-.348,1.247,1.247,0,0,0,.4-1V7.772a3.067,3.067,0,0,1,.64-2.055,2.167,2.167,0,0,1,1.741-.752,1.637,1.637,0,0,1,1.336.528,2.778,2.778,0,0,1,.438,1.763V12.78a1.247,1.247,0,0,0,.4,1,1.5,1.5,0,0,0,1.011.348,1.456,1.456,0,0,0,1-.348,1.27,1.27,0,0,0,.393-1V7.772a3.024,3.024,0,0,1,.651-2.055,2.2,2.2,0,0,1,1.752-.752,1.637,1.637,0,0,1,1.336.528,2.778,2.778,0,0,1,.438,1.763V12.78a1.262,1.262,0,0,0,.393,1,1.452,1.452,0,0,0,1,.348,1.491,1.491,0,0,0,1.022-.348,1.27,1.27,0,0,0,.393-1V7.255a5.1,5.1,0,0,0-.954-3.447A3.5,3.5,0,0,0,214.4,2.741m7.883,11.387a1.6,1.6,0,0,0,1.19-.483,1.766,1.766,0,0,0,0-2.4,1.709,1.709,0,0,0-2.381,0,1.766,1.766,0,0,0,0,2.4,1.594,1.594,0,0,0,1.19.483m8.894-11.387a9.706,9.706,0,0,0-2.145.247,7.234,7.234,0,0,0-1.875.674,1.785,1.785,0,0,0-.64.528,1.144,1.144,0,0,0-.191.663,1.107,1.107,0,0,0,.258.764.84.84,0,0,0,.663.292,2.24,2.24,0,0,0,.853-.292c.613-.24,1.145-.422,1.595-.55a4.809,4.809,0,0,1,1.325-.191,2.008,2.008,0,0,1,1.527.505,2.3,2.3,0,0,1,.472,1.606V7.5h-.561a18.346,18.346,0,0,0-3.84.314,3.693,3.693,0,0,0-2.01,1.011,2.769,2.769,0,0,0-.618,1.909,3.106,3.106,0,0,0,.517,1.752,3.546,3.546,0,0,0,1.415,1.235,4.41,4.41,0,0,0,2,.449,3.6,3.6,0,0,0,1.9-.494,2.946,2.946,0,0,0,1.2-1.37V12.8a1.257,1.257,0,0,0,.371.943,1.308,1.308,0,0,0,.954.359,1.367,1.367,0,0,0,.988-.348,1.272,1.272,0,0,0,.359-.954V7.323a4.748,4.748,0,0,0-1.112-3.447,4.571,4.571,0,0,0-3.4-1.134m-.7,9.41a1.779,1.779,0,0,1-1.246-.46,1.526,1.526,0,0,1-.505-1.179,1.2,1.2,0,0,1,.359-.921,2.259,2.259,0,0,1,1.19-.472,15.473,15.473,0,0,1,2.336-.135h.4v.472a2.721,2.721,0,0,1-.707,1.943,2.4,2.4,0,0,1-1.83.752m16.732-9.365a1.409,1.409,0,0,0-1.011.359,1.259,1.259,0,0,0-.382.966V9.119a2.929,2.929,0,0,1-.707,2.055,2.42,2.42,0,0,1-1.875.775,1.827,1.827,0,0,1-1.482-.561,2.65,2.65,0,0,1-.472-1.729V4.111a1.267,1.267,0,0,0-.382-.966,1.447,1.447,0,0,0-1.033-.359,1.409,1.409,0,0,0-1.011.359,1.259,1.259,0,0,0-.382.966V9.636q0,4.538,4.043,4.537a4.037,4.037,0,0,0,1.976-.483,3.577,3.577,0,0,0,1.392-1.381v.561a1.2,1.2,0,0,0,.359.921,1.353,1.353,0,0,0,.966.337,1.456,1.456,0,0,0,1.022-.359,1.225,1.225,0,0,0,.393-.943V4.111a1.267,1.267,0,0,0-.382-.966,1.447,1.447,0,0,0-1.033-.359" transform="translate(2.86 2.2)" fill="#e3cd6d"/>
      </g>
    </g>
  </g>
</svg>
