<svg xmlns="http://www.w3.org/2000/svg" width="122" height="119.377" viewBox="0 0 122 119.377">
  <g id="Group_79" data-name="Group 79" transform="translate(-369.752 -1934.288)" style="isolation: isolate">
    <g id="Group_64" data-name="Group 64" transform="translate(369.752 1934.288)">
      <path id="Path_256" data-name="Path 256" d="M20.2,39.47a48.08,48.08,0,0,1-29-10.03C-24.929,17.105-31.143-.12-26.769-20.374c3.7-17.173,15.088-28.3,33.833-33.086,14.787-3.79,29.65-.371,40.8,9.32A45.74,45.74,0,0,1,63.415-4.612,74.985,74.985,0,0,1,61.259,5.756c-1.591,6.126-3.086,11.914-1.52,18.079,1.9,7.429-6.084,12.275-9.087,14.1a6.193,6.193,0,0,1-4.8.778c-2.445-.622-4.209-2.714-5.41-4.542A40.039,40.039,0,0,1,20.2,39.47m-1.364-88a41.113,41.113,0,0,0-10.172,1.3c-16.416,4.185-25.949,13.416-29.146,28.21-3.809,17.639,1.582,32.627,15.6,43.34C8.773,34.782,26.984,35.964,39.39,27.211a24.036,24.036,0,0,0,4.1-4.355c.539-.673,1.081-1.338,1.62-1.972a11.477,11.477,0,0,1,7.573-4.237A63.17,63.17,0,0,1,55.026,4.141a67.085,67.085,0,0,0,1.991-9.47A39.3,39.3,0,0,0,43.639-39.282a37.478,37.478,0,0,0-24.8-9.245M45.6,30.282c1.069,1.691,1.615,2.111,1.866,2.208,4.494-2.879,6.523-5.173,6.039-7.065-.2-.78-.357-1.553-.483-2.312A5.274,5.274,0,0,0,50,25.068c-.5.584-1,1.206-1.495,1.823-.924,1.149-1.873,2.318-2.9,3.391" transform="translate(28.13 54.971)" fill="#e0cc6b"/>
    </g>
    <g id="Group_65" data-name="Group 65" transform="translate(380.104 1945.699)">
      <path id="Path_257" data-name="Path 257" d="M15.107,29.829A51.518,51.518,0,0,1,4.833,28.749C-8.559,26.015-17.231,16.333-20.234.74c-2.922-15.168,2.185-28.416,14.012-36.36,10.557-7.087,24.063-7.848,37.039-2.1,11.865,5.254,18.6,15.472,20.58,31.239a3.215,3.215,0,0,1,0,.792,3.11,3.11,0,0,1-.005.847c-1.835,12.777-7.226,22.642-15.6,28.536a35.319,35.319,0,0,1-20.687,6.14M13.485-35.155A28.564,28.564,0,0,0-2.64-30.277c-9.714,6.523-13.724,17.111-11.274,29.8C-11.405,12.529-4.669,20.241,6.12,22.44c10.3,2.123,19.261.715,25.973-4.01,6.869-4.838,11.336-13.177,12.92-24.124-1.7-13.517-7.044-21.826-16.8-26.148a36.421,36.421,0,0,0-14.73-3.312" transform="translate(21.04 41.544)" fill="#e0cc6b"/>
    </g>
    <g id="Group_66" data-name="Group 66" transform="translate(446.134 2005.927)">
      <path id="Path_258" data-name="Path 258" d="M13.929,19.951a13.4,13.4,0,0,1-6.9-2.093l-1.258-.747c-3.89-2.294-7.9-4.663-10.947-9.477C-7.443,4.048-10.642.948-14.023-2.326c-1.526-1.476-3.053-2.953-4.5-4.481a3.224,3.224,0,0,1,.127-4.549,3.211,3.211,0,0,1,4.549.125c1.381,1.459,2.84,2.873,4.3,4.281C-6.041-3.558-2.416-.045.268,4.2c2.206,3.5,5.254,5.3,8.772,7.379l1.3.765c3.3,1.969,5.743,1.477,8.214-1.625,1.52-1.924,1.953-3.747-.6-6.9C15,.168-8.575-20.135-12.011-21.606a3.226,3.226,0,0,1-1.691-4.23,3.228,3.228,0,0,1,4.23-1.691c5.164,2.22,29.679,23.9,32.426,27.292,5.209,6.443,3.223,11.677.641,14.938-2.74,3.476-6.09,5.247-9.666,5.247" transform="translate(19.4 27.787)" fill="#e0cc6b"/>
    </g>
    <g id="Group_67" data-name="Group 67" transform="translate(396.374 1957.491)">
      <path id="Path_259" data-name="Path 259" d="M16.614,7.336a3.216,3.216,0,0,1-2.343-1.012C9.074.794,4.1-3.781-4.016-3.781h-.321c-5.53.081-8.93,2.532-13.272,7.025a3.215,3.215,0,0,1-4.549.076,3.215,3.215,0,0,1-.076-4.549c4.135-4.28,9.269-8.86,17.809-8.987C6.19-10.3,13.108-4.315,18.96,1.913a3.219,3.219,0,0,1-2.345,5.424" transform="translate(23.139 10.217)" fill="#e0cc6b"/>
    </g>
  </g>
</svg>
