<?xml version="1.0" encoding="UTF-8"?>
<svg width="93px" height="90px" viewBox="0 0 93 90" version="1.1" xmlns="http://www.w3.org/2000/svg" xmlns:xlink="http://www.w3.org/1999/xlink">
    <title>search-orange</title>
    <g id="Page-1" stroke="none" stroke-width="1" fill="none" fill-rule="evenodd">
        <g id="search-orange" fill="#E0CC6B" fill-rule="nonzero">
            <g id="Group_64">
                <path d="M36.1492683,70.6387967 C28.2935804,70.5744211 20.6750641,67.9394653 14.4582114,63.1366829 C2.3942439,53.9105041 -2.25362602,41.0267642 1.01798374,25.8774309 C3.78546341,13.0325854 12.3033171,4.70995122 26.3239675,1.13017886 C37.3841626,-1.70461789 48.5012033,0.852682927 56.8410407,8.10123577 C65.3367163,15.4494035 69.6841251,26.4997782 68.4726829,37.6668943 C68.1185757,40.2866441 67.579693,42.8780804 66.860065,45.4218211 C65.6700488,50.0038699 64.5518374,54.3331057 65.7231545,58.9443252 C67.1442927,64.5009756 61.1725203,68.125626 58.926374,69.4906667 C57.859014,70.1660101 56.5621641,70.3762079 55.3361301,70.0725854 C53.5073496,69.6073496 52.187935,68.0426016 51.289626,66.6753171 C46.6833731,69.315141 41.4581553,70.6830113 36.1492683,70.6387967 M35.1290407,4.81765854 C32.5622905,4.8229798 30.0063044,5.14963944 27.5207154,5.79001626 C15.2420813,8.92026016 8.11170732,15.824748 5.72045528,26.8901789 C2.87144715,40.0835772 6.90373984,51.2941138 17.388748,59.3070894 C27.6022439,67.1323252 41.2234797,68.0164228 50.5027642,61.4694634 C51.6566256,60.5155842 52.6868223,59.4213142 53.5694309,58.212065 C53.9725854,57.7086829 54.3779837,57.2112846 54.7811382,56.7370732 C56.1817436,54.9800971 58.2153872,53.8422986 60.4454959,53.567935 C60.7133558,50.3988738 61.3004959,47.264954 62.1979837,44.2138537 C62.8642532,41.891698 63.3619488,39.5244567 63.687187,37.1306016 C64.7226026,27.53605 60.9827463,18.0443964 53.680878,11.7348618 C48.5444367,7.2506224 41.949691,4.79221821 35.1312846,4.81990244 M55.1476423,63.7664715 C55.9472195,65.0312846 56.3556098,65.3454309 56.5433496,65.4179837 C59.9047154,63.2645854 61.4223415,61.548748 61.0603252,60.1335935 C60.9107317,59.5501789 60.7933008,58.972 60.6990569,58.4042927 C59.7974471,58.6115879 58.9973747,59.1291729 58.4386992,59.8665691 C58.0647154,60.3033821 57.6907317,60.7686179 57.3204878,61.2301138 C56.6293659,62.0895285 55.9195447,62.9639024 55.1513821,63.7664715" id="Path_256"></path>
            </g>
            <g id="Group_65" transform="translate(7.742959, 8.535057)">
                <path d="M27.0367805,53.3846829 C24.4546456,53.3735688 21.8801663,53.1029403 19.3521626,52.576878 C9.33538211,50.531935 2.84900813,43.2901138 0.602861789,31.6270569 C-1.58269919,20.2818862 2.23717073,10.372813 11.0833821,4.43095935 C18.9796748,-0.869886179 29.0817236,-1.43908943 38.7873496,2.86022764 C47.6619837,6.79004878 52.6995447,14.4327805 54.1805203,26.2259837 C54.2049354,26.4226925 54.2049354,26.6216653 54.1805203,26.818374 C54.2081712,27.0287325 54.206913,27.241885 54.1767805,27.4519024 C52.8042602,37.0086829 48.7719675,44.3873821 42.5084878,48.7959024 C37.9561539,51.9034577 32.5458236,53.5092695 27.0352846,53.3884228 M25.8235772,4.77843091 C21.5278726,4.75477407 17.3246984,6.02628314 13.7626016,8.42734959 C6.49684553,13.3063415 3.49749593,21.2258211 5.33001626,30.7167805 C7.20666667,40.4448455 12.2449756,46.2131707 20.3147967,47.8579512 C28.0188618,49.4458862 34.7213984,48.392748 39.7417561,44.8586016 C44.8795447,41.239935 48.2207154,35.0026341 49.4054959,26.8146341 C48.1339512,16.7043577 44.136813,10.4894959 36.8396423,7.25678049 C33.3804661,5.67054015 29.6273192,4.82665541 25.8220813,4.7795122" id="Path_257"></path>
            </g>
            <g id="Group_66" transform="translate(57.131252, 53.583642)">
                <path d="M24.9290081,35.7064715 C23.0979611,35.6659825 21.313011,35.1245477 19.7680325,34.1409756 L18.8270894,33.5822439 C15.9174959,31.8664065 12.9181463,30.0944715 10.6390894,26.4937561 C8.94344715,23.8115447 6.55069919,21.4928455 4.02182114,19.044 C2.88042276,17.94 1.73827642,16.835252 0.65596748,15.6923577 C-0.254829602,14.7255796 -0.212358454,13.2043099 0.75095935,12.2898537 C1.21392373,11.8497757 1.83312211,11.6122476 2.47163347,11.629793 C3.11014483,11.6473384 3.71536483,11.9185117 4.15346341,12.3833496 C5.1864065,13.4746341 6.27769106,14.5322602 7.36972358,15.5853984 C9.99209756,18.1225041 12.7034797,20.7501138 14.7110244,23.9252358 C16.3610407,26.543122 18.6408455,27.8894634 21.2721951,29.4444878 L22.2445528,30.0166829 C24.7128455,31.4894309 26.5401301,31.1214309 28.3883577,28.8012358 C29.5252683,27.3621463 29.8491382,25.9986016 27.9395772,23.6402602 C25.7300813,20.9094309 8.09674797,5.72344715 5.52673171,4.62318699 C4.3053054,4.0972768 3.7396357,2.68226624 4.2619187,1.45928455 C4.78844873,0.238494784 6.20282923,-0.32692305 7.42582114,0.194471545 C11.2883252,1.85495935 29.624748,18.0708943 31.6794146,20.608 C35.5755772,25.4271545 34.0901138,29.3420163 32.1588618,31.7811382 C30.1094309,34.3810732 27.6037398,35.7057236 24.9290081,35.7057236" id="Path_258"></path>
            </g>
            <g id="Group_67" transform="translate(19.912390, 17.355089)">
                <path d="M29.7339512,13.1290732 C29.0703896,13.1292761 28.4362177,12.8553615 27.9814634,12.3721301 C24.0942764,8.23586992 20.3738862,4.8139187 14.3033821,4.8139187 L14.0632846,4.8139187 C9.92702439,4.87450407 7.38393496,6.70777236 4.13626016,10.0683902 C3.69280698,10.5275062 3.0850118,10.7914763 2.44679199,10.802139 C1.80857218,10.8128017 1.19229838,10.5692822 0.733756098,10.1252358 C0.274640098,9.68178259 0.0106700773,9.07398741 7.35896816e-06,8.4357676 C-0.0106553594,7.79754779 0.232864179,7.18127399 0.676910569,6.72273171 C3.7697561,3.52143089 7.60982114,0.0957398374 13.9974634,0.00074796748 C21.9371382,-0.0620813008 27.1115772,4.41450407 31.4886829,9.07284553 C32.1464968,9.7724833 32.3256521,10.7961177 31.9445612,11.6775834 C31.5634703,12.5590492 30.6950179,13.1298211 29.7346992,13.1298211" id="Path_259"></path>
            </g>
        </g>
    </g>
</svg>