<?xml version="1.0" encoding="UTF-8"?>
<svg width="85px" height="88px" viewBox="0 0 85 88" version="1.1" xmlns="http://www.w3.org/2000/svg" xmlns:xlink="http://www.w3.org/1999/xlink">
    <title>settings-orange</title>
    <g id="Page-1" stroke="none" stroke-width="1" fill="none" fill-rule="evenodd">
        <g id="settings-orange" fill="#E0CC6B" fill-rule="nonzero">
            <g id="Group_71">
                <path d="M42.8422368,87.9854386 C42.7840789,87.9854386 42.7266667,87.9802193 42.6685088,87.9764912 C41.9274074,87.9234687 41.2600004,87.5087449 40.8842544,86.8677632 C40.7351316,86.615 40.2258772,86.4412719 39.4116667,86.1832895 C37.8988158,85.7113158 35.3667105,84.9157456 34.4227632,81.7289912 C33.3408772,78.0665351 31.9659649,76.8601316 29.2825,77.1188596 C28.536886,77.1889474 28.102193,77.6087281 27.2693421,78.4706579 C26.2588475,79.706528 24.8813857,80.588887 23.3362281,80.9900877 C22.9016594,81.079098 22.4506918,81.0418408 22.0366228,80.8827193 C13.7677632,77.6832895 12.3533333,75.3346053 13.6171491,66.9270614 C13.835614,65.4768421 13.6790351,64.3554386 13.1854386,63.7760965 C12.5617625,63.2173215 11.7305989,62.9488459 10.8978947,63.037193 C6.17592105,63.0110965 3.13232456,60.8614912 1.58815789,56.4653509 C-0.350438596,50.9291667 2.83035088,48.2009649 5.82100877,46.442807 C7.03114035,45.7322368 7.75214912,44.8725439 7.74767544,44.1425877 C7.74320175,43.4126316 7.02741228,42.5715789 5.82100877,41.881886 C4.56499195,41.117093 3.41826748,40.1858183 2.4120614,39.1134211 C1.99562933,38.6668082 1.53942083,38.2590157 1.04907895,37.8950877 C0.352498881,37.4488391 -0.0471527545,36.6598126 0.00521929825,35.8342105 C0.480921053,28.3497368 4.40434211,24.7036842 12.0096053,24.6917544 C12.9327603,24.7801621 13.8346683,24.3780249 14.3858772,23.6322368 C15.0569298,22.6174561 15.0084649,20.9532456 14.2561404,19.1779386 C13.0475,16.3125439 11.0276316,11.5152632 16.8352193,7.98179825 C22.7054386,4.43192982 26.4983772,6.97671053 28.6375439,9.74890351 C29.9595175,11.4571053 30.4613158,11.5913158 31.7564474,11.1991228 C32.7182895,10.9142982 34.9558772,10.010614 34.9126316,7.85355263 C34.7694737,0.536842105 40.7373684,0.149122807 42.6960965,0.0246052632 C48.3791667,-0.326578947 49.9404825,3.18824561 50.764386,6.68144737 C51.6501754,10.4020614 52.6463158,11.0283772 52.9311404,11.1320175 C53.2025439,11.229693 54.3552632,11.39 57.3414474,9.15166667 C63.008114,4.88302632 67.2521491,8.13763158 69.5307456,9.88684211 C73.1738158,12.6851316 73.5749561,16.4728509 70.7177632,21.1336842 C69.9721491,22.3482895 69.765614,23.4398684 70.144386,24.1295614 C70.5388158,24.8460965 71.6661842,25.2830263 73.152193,25.3001754 C73.5842703,25.3123517 74.0151237,25.3521994 74.4421053,25.4194737 C74.7469675,25.4790267 75.0578712,25.5018063 75.3681579,25.4873246 C76.2413406,24.5916762 77.6740391,24.5696859 78.5742982,25.438114 C78.678484,25.541233 78.7737649,25.652976 78.8591228,25.7721491 C78.972232,25.8540029 79.07756,25.9461026 79.1737719,26.0472807 C84.5325,31.6550439 84.6570175,34.5517544 79.7926316,40.1326754 C78.8233333,41.2510965 77.7146053,42.9182895 77.9584211,44.5377632 C78.1284211,45.6688596 78.9612719,46.7097368 80.4338596,47.6223684 C85.5554825,50.8039035 84.4258772,55.8986842 83.9978947,57.8126754 C83.1702632,61.559386 79.9574123,63.717193 75.7610965,63.5449561 C73.1305702,63.4204386 71.4939474,63.7179386 70.9108772,64.4486404 C70.5283772,64.9198684 70.0474561,66.2589912 71.06,69.9169737 C72.3551316,74.5539474 70.8363158,76.8511842 67.9753947,79.0664035 C64.8907895,81.4426754 62.154386,82.3776754 58.0512719,79.7829386 C55.5161842,78.167193 53.9041667,77.4715351 53.4053509,77.6109649 C52.5322368,77.8786404 51.0425,81.2517982 50.4810526,82.5245614 C49.4670175,84.8359649 47.567193,85.6524123 46.1833333,86.2451754 C45.5970428,86.4377164 45.05615,86.7477403 44.5936842,87.1563158 C44.1601166,87.6798248 43.5160086,87.9831595 42.8362719,87.9839474 M29.9460965,72.5251316 C36.455307,72.5251316 38.2000439,78.4311404 38.7920614,80.4390789 C39.0239474,81.2212281 39.3535088,81.3912281 40.7679386,81.8348684 C41.5333543,82.0484027 42.2712719,82.350426 42.9667544,82.7348246 C43.4292695,82.4843508 43.9046332,82.2583664 44.3908772,82.057807 C45.5749123,81.5500439 46.050614,81.3002632 46.3175439,80.6873684 C47.9578947,76.9667544 49.4230263,74.0610965 52.085614,73.2543421 C54.7109211,72.4625 57.4480702,73.9932456 60.4961404,75.9340789 C62.5517982,77.2329386 63.1751316,77.019693 65.1994737,75.456886 C66.9889474,74.0782456 67.339386,73.5123246 66.6772807,71.1405263 C65.4708772,66.7973246 65.6893421,63.6784211 67.352807,61.5966667 C69.4174123,59.0108772 73.0716667,58.8468421 75.9855263,58.9929825 C77.4148684,59.055614 79.1275439,58.735 79.5510526,56.8210088 C80.1922807,53.9407018 79.8097807,52.5985965 78.0329825,51.4943421 C74.7179825,49.4386842 73.7128947,46.9460965 73.4541667,45.2192544 C73.0582456,42.5715789 74.0596053,39.7814912 76.3620614,37.1427632 C79.3072368,33.7599123 79.7128509,33.2976316 76.5350439,29.8886842 C75.6422426,30.0850568 74.7191414,30.1005221 73.8202632,29.9341667 C73.5832413,29.8941405 73.3439128,29.8692363 73.1037281,29.8596053 C69.9042982,29.8200877 67.3729386,28.5376316 66.1583333,26.3350877 C64.9608772,24.1683333 65.2099123,21.4095614 66.829386,18.7603947 C68.8425439,15.479693 68.0678509,14.5103947 66.7548246,13.5008333 C63.9214912,11.3340789 62.5629825,10.9292105 60.0793421,12.7932456 C57.8425,14.4664035 54.5312281,16.5585965 51.3847368,15.4185526 C48.2203509,14.2755263 46.985614,10.4840789 46.3317105,7.73425439 C45.5808772,4.56614035 44.9403947,4.44535088 42.990614,4.57434211 C39.8590351,4.77416667 39.4265789,5.43776316 39.4705702,7.76482456 C39.5451316,11.3780702 37.0846053,14.3687281 33.0582895,15.5699123 C28.9976754,16.7792982 26.7101316,14.7102193 25.0325,12.5337719 C23.6262719,10.7271491 22.2155702,10.0464035 19.2025439,11.8761404 C17.0700877,13.1712719 16.9731579,13.8952632 18.4569298,17.4063596 C19.8236404,20.6378509 19.7244737,23.8246053 18.1855263,26.1516667 C16.8007247,28.1784408 14.4697329,29.3491493 12.0170614,29.249693 C7.24513158,29.2586404 5.21333333,30.7804386 4.66530702,34.9633333 C4.99934211,35.2615789 5.31175439,35.5777193 5.62267544,35.8849123 C6.35269732,36.6738548 7.18468119,37.361909 8.09662281,37.9308772 C10.7987281,39.4884649 12.2936842,41.6872807 12.301886,44.1194737 C12.3100877,46.5516667 10.8345175,48.7788158 8.13241228,50.3669737 C5.37364035,51.987193 5.16412281,52.8901316 5.88513158,54.9562281 C6.79254386,57.5412719 8.11451754,58.460614 10.9217544,58.48 C14.025,58.5023684 15.7466228,59.7624561 16.6450877,60.8122807 C17.614386,61.9478509 18.6582456,64.0437719 18.1176754,67.6040789 C17.2229386,73.5853947 17.3720614,74.1587719 22.8754386,76.3217982 C23.2836629,76.0227893 23.6586171,75.680831 23.9938596,75.3017982 C25.0071491,74.2534649 26.4029386,72.8099561 28.8560088,72.5810526 C29.2332895,72.5452632 29.5949123,72.5266228 29.9460965,72.5266228" id="Path_262"></path>
            </g>
            <g id="Group_72" transform="translate(33.654781, 35.253377)">
                <path d="M8.18609649,17.8440351 C5.28606493,17.8978563 2.60142189,16.318824 1.23921053,13.7580702 C-0.691929825,10.167193 -0.354166667,6.78508772 2.17421053,4.48039474 C2.55702116,4.11130832 2.91659875,3.71886075 3.25087719,3.30530702 C4.29562361,1.88545833 5.71510114,0.784575799 7.35026316,0.126008772 C7.67477088,0.00940598831 8.02256742,-0.027419528 8.36429825,0.0186403509 C8.62894753,-0.0164907764 8.89778361,-0.00309950556 9.15763158,0.0581578947 C12.8111404,0.908903509 15.0673684,2.27934211 16.2551316,4.37078947 C17.784386,7.0602193 17.0596491,10.2164035 16.3789035,12.3540789 C15.0703509,16.4758333 11.8358772,17.405614 9.51925439,17.7485965 C9.07834296,17.8113044 8.63367558,17.8439382 8.18833333,17.8462719 M8.48657895,4.58850877 C7.80240127,5.04140983 7.20218904,5.60983276 6.71276316,6.26837719 C6.25766335,6.82329471 5.76833267,7.34923181 5.24763158,7.84311404 C4.87482456,8.18236842 3.89583333,9.07337719 5.25359649,11.6002632 C5.95666958,12.8868356 7.42615327,13.5530137 8.85714912,13.2339035 C10.8561404,12.939386 11.5711842,12.4286404 12.0327193,10.9732018 C12.6910965,8.89890351 12.7783333,7.47925439 12.2914474,6.62850877 C11.8045614,5.77776316 10.5355263,5.10298246 8.48434211,4.58627193" id="Path_263"></path>
            </g>
            <g id="Group_73" transform="translate(16.400526, 18.163158)">
                <path d="M25.7244298,52.4942105 C15.5840789,52.4942105 7.94600877,48.4537281 3.64307018,40.7992544 C-0.885785147,32.5875873 -1.20681303,22.7033662 2.77964912,14.2151316 C6.60539474,6.43912281 13.9124123,1.40995614 23.3667982,0.0484649123 C23.5648797,0.0240589997 23.765208,0.0240589997 23.9632895,0.0484649123 C24.0214474,0.0395175439 24.0840789,0.0350438596 24.1467105,0.0298245614 C34.0253509,-0.360877193 42.8452193,3.62070175 48.2740351,10.941886 C53.5440351,18.0408772 54.7981579,27.2074561 51.7225,36.0892105 C48.0279825,46.7619298 39.1014912,52.4360526 25.9026316,52.4942105 L25.7244298,52.4942105 Z M23.9655263,4.56614035 C13.8520175,6.03947368 9.08530702,11.7158333 6.86412281,16.2282895 C3.52301973,23.3649084 3.8002057,31.6696774 7.60973684,38.5676316 C11.1103947,44.785307 17.202807,47.9370175 25.7199561,47.9370175 L25.8839912,47.9370175 C37.1248684,47.887807 44.3707456,43.3977193 47.4188158,34.5905263 C49.9949123,27.1537719 48.9711842,19.5224123 44.615307,13.6536842 C40.0976316,7.5597807 32.7600439,4.21048246 24.3256579,4.58328947 C24.1839912,4.57434211 24.0818421,4.58328947 23.9655263,4.56614035" id="Path_264"></path>
            </g>
            <g id="Group_74" transform="translate(26.795132, 29.076711)">
                <path d="M15.0494737,30.9757929 C13.7173474,30.9766483 12.390159,30.8138799 11.0977193,30.4911404 C4.63622807,28.8843421 -0.530131579,21.3372368 0.043245614,14.3329386 C0.621842105,7.21232456 4.87258772,2.45903509 12.6642544,0.211754386 C12.9582927,0.122804764 13.2680697,0.0983888448 13.5724123,0.140175439 C13.6936112,0.12551432 13.8157238,0.1197825 13.9377632,0.123026316 C14.8519331,0.156544461 15.7672667,0.138372213 16.679386,0.0685964912 C19.4627632,-0.0618859649 22.6241667,-0.211008772 25.5022368,1.65302632 C31.0824123,5.25807018 33.2566228,14.086886 30.2465789,20.9353509 C27.6240026,27.0029138 21.6594803,30.9435603 15.0494737,30.9757929 M13.652193,4.67127193 C7.88412281,6.40631579 4.99785088,9.60201754 4.58328947,14.7064912 C4.19557018,19.4732018 7.89307018,24.9989474 12.1922807,26.0674123 C17.900488,27.4539576 23.7736451,24.5060215 26.0726316,19.1003947 C28.1998684,14.2621053 26.7757456,7.8997807 23.0275439,5.47802632 C21.3737719,4.41030702 19.304693,4.50872807 16.8971053,4.61982456 C15.8413158,4.66903509 14.7735965,4.70855263 13.7498684,4.67798246 C13.7140789,4.67798246 13.6835088,4.67798246 13.652193,4.66903509" id="Path_265"></path>
            </g>
        </g>
    </g>
</svg>