<svg xmlns="http://www.w3.org/2000/svg" width="113.211" height="118.004" viewBox="0 0 113.211 118.004">
  <g id="Group_76" data-name="Group 76" transform="translate(-45.999 52.875)" style="isolation: isolate">
    <g id="Group_80" data-name="Group 80" transform="translate(45.999 -52.875)">
      <g id="Group_71" data-name="Group 71" transform="translate(0 0)">
        <path id="Path_262" data-name="Path 262" d="M22.72,46.66c-.078,0-.155-.007-.233-.012a3.024,3.024,0,0,1-2.393-1.487c-.2-.339-.883-.572-1.975-.918-2.029-.633-5.425-1.7-6.691-5.974-1.451-4.912-3.295-6.53-6.894-6.183-1,.094-1.583.657-2.7,1.813a10.089,10.089,0,0,1-5.275,3.379,3.116,3.116,0,0,1-1.743-.144c-11.09-4.291-12.987-7.441-11.292-18.717.293-1.945.083-3.449-.579-4.226a3.97,3.97,0,0,0-3.068-.991c-6.333-.035-10.415-2.918-12.486-8.814-2.6-7.425,1.666-11.084,5.677-13.442,1.623-.953,2.59-2.106,2.584-3.085s-.966-2.107-2.584-3.032a21.857,21.857,0,0,1-4.572-3.713,13.5,13.5,0,0,0-1.828-1.634,3.053,3.053,0,0,1-1.4-2.764c.638-10.038,5.9-14.928,16.1-14.944a3.543,3.543,0,0,0,3.187-1.421c.9-1.361.835-3.593-.174-5.974C-17.24-49.466-19.949-55.9-12.16-60.639-4.287-65.4.8-61.987,3.669-58.269c1.773,2.291,2.446,2.471,4.183,1.945,1.29-.382,4.291-1.594,4.233-4.487-.192-9.813,7.812-10.333,10.439-10.5,7.622-.471,9.716,4.243,10.821,8.928,1.188,4.99,2.524,5.83,2.906,5.969.364.131,1.91.346,5.915-2.656,7.6-5.725,13.292-1.36,16.348.986C63.4-54.331,63.938-49.251,60.106-43c-1,1.629-1.277,3.093-.769,4.018.529.961,2.041,1.547,4.034,1.57a13.572,13.572,0,0,1,1.73.16,5.211,5.211,0,0,0,1.242.091,3.049,3.049,0,0,1,4.3-.066,3.488,3.488,0,0,1,.382.448,3.049,3.049,0,0,1,.422.369c7.187,7.521,7.354,11.406.83,18.891-1.3,1.5-2.787,3.736-2.46,5.908.228,1.517,1.345,2.913,3.32,4.137,6.869,4.267,5.354,11.1,4.78,13.667-1.11,5.025-5.419,7.919-11.047,7.688-3.528-.167-5.723.232-6.505,1.212-.513.632-1.158,2.428.2,7.334,1.737,6.219-.3,9.3-4.137,12.271-4.137,3.187-7.807,4.441-13.31.961-3.4-2.167-5.562-3.1-6.231-2.913-1.171.359-3.169,4.883-3.922,6.59-1.36,3.1-3.908,4.195-5.764,4.99a6.09,6.09,0,0,0-2.132,1.222,3.065,3.065,0,0,1-2.357,1.11M5.424,25.925c8.73,0,11.07,7.921,11.864,10.614.311,1.049.753,1.277,2.65,1.872a13.715,13.715,0,0,1,2.949,1.207,20.127,20.127,0,0,1,1.91-.908c1.588-.681,2.226-1.016,2.584-1.838,2.2-4.99,4.165-8.887,7.736-9.969,3.521-1.062,7.192.991,11.28,3.594,2.757,1.742,3.593,1.456,6.308-.64,2.4-1.849,2.87-2.608,1.982-5.789-1.618-5.825-1.325-10.008.906-12.8,2.769-3.468,7.67-3.688,11.578-3.492,1.917.084,4.214-.346,4.782-2.913C72.813,1,72.3-.8,69.917-2.281c-4.446-2.757-5.794-6.1-6.141-8.416-.531-3.551.812-7.293,3.9-10.832,3.95-4.537,4.494-5.157.232-9.729a9.176,9.176,0,0,1-3.641.061,7.6,7.6,0,0,0-.961-.1c-4.291-.053-7.686-1.773-9.315-4.727-1.606-2.906-1.272-6.606.9-10.159,2.7-4.4,1.661-5.7-.1-7.054-3.8-2.906-5.622-3.449-8.953-.949-3,2.244-7.441,5.05-11.661,3.521-4.244-1.533-5.9-6.618-6.777-10.306-1.007-4.249-1.866-4.411-4.481-4.238-4.2.268-4.78,1.158-4.721,4.279.1,4.846-3.2,8.857-8.6,10.468C4.152-48.84,1.084-51.615-1.166-54.534c-1.886-2.423-3.778-3.336-7.819-.882-2.86,1.737-2.99,2.708-1,7.417,1.833,4.334,1.7,8.608-.364,11.729a9.551,9.551,0,0,1-8.273,4.155c-6.4.012-9.125,2.053-9.86,7.663.448.4.867.824,1.284,1.236a16.213,16.213,0,0,0,3.318,2.744c3.624,2.089,5.629,5.038,5.64,8.3s-1.968,6.249-5.592,8.379c-3.7,2.173-3.981,3.384-3.014,6.155,1.217,3.467,2.99,4.7,6.755,4.726,4.162.03,6.471,1.72,7.676,3.128,1.3,1.523,2.7,4.334,1.975,9.109-1.2,8.022-1,8.791,6.381,11.692a9.485,9.485,0,0,0,1.5-1.368C-1.2,28.243.672,26.307,3.962,26c.506-.048.991-.073,1.462-.073" transform="translate(34.739 71.344)" fill="#e0cc6b"/>
      </g>
      <g id="Group_72" data-name="Group 72" transform="translate(45.137 47.281)">
        <path id="Path_263" data-name="Path 263" d="M4.341,9.463a10.336,10.336,0,0,1-9.317-5.48C-7.566-.833-7.113-5.369-3.722-8.46a17.268,17.268,0,0,0,1.444-1.576A12.731,12.731,0,0,1,3.22-14.3a2.883,2.883,0,0,1,1.36-.144,2.947,2.947,0,0,1,1.064.053c4.9,1.141,7.926,2.979,9.519,5.784C17.214-5,16.242-.767,15.329,2.1c-1.755,5.528-6.093,6.775-9.2,7.235a13.167,13.167,0,0,1-1.785.131m.4-17.781A9.492,9.492,0,0,0,2.365-6.062,23.105,23.105,0,0,1,.4-3.95C-.1-3.495-1.413-2.3.408,1.089A4.413,4.413,0,0,0,5.241,3.28C7.922,2.885,8.881,2.2,9.5.248c.883-2.782,1-4.686.347-5.827S7.492-7.625,4.741-8.318" transform="translate(6.638 14.469)" fill="#e0cc6b"/>
      </g>
      <g id="Group_73" data-name="Group 73" transform="translate(21.996 24.36)">
        <path id="Path_264" data-name="Path 264" d="M13.642,27.839c-13.6,0-23.844-5.419-29.615-15.685A39.265,39.265,0,0,1-17.131-23.5C-12-33.929-2.2-40.674,10.48-42.5a3.271,3.271,0,0,1,.8,0c.078-.012.162-.018.246-.025,13.249-.524,25.078,4.816,32.359,14.635,7.068,9.521,8.75,21.815,4.625,33.727C43.555,20.151,31.583,27.761,13.881,27.839Zm-2.359-64.28C-2.281-34.465-8.674-26.852-11.653-20.8a33.017,33.017,0,0,0,1,29.961C-5.958,17.5,2.213,21.727,13.636,21.727h.22c15.076-.066,24.794-6.088,28.882-17.9,3.455-9.974,2.082-20.209-3.76-28.08-6.059-8.173-15.9-12.665-27.212-12.165-.19-.012-.327,0-.483-.023" transform="translate(20.859 42.565)" fill="#e0cc6b"/>
      </g>
      <g id="Group_74" data-name="Group 74" transform="translate(35.937 38.997)">
        <path id="Path_265" data-name="Path 265" d="M7.981,16.427a21.818,21.818,0,0,1-5.3-.65C-5.985,13.622-12.914,3.5-12.145-5.894c.776-9.55,6.477-15.925,16.927-18.939A2.862,2.862,0,0,1,6-24.929a3.341,3.341,0,0,1,.49-.023,32.564,32.564,0,0,0,3.677-.073C13.9-25.2,18.14-25.4,22-22.9c7.484,4.835,10.4,16.676,6.363,25.861A22.323,22.323,0,0,1,7.981,16.427M6.107-18.852C-1.629-16.525-5.5-12.239-6.056-5.393-6.576,1-1.617,8.411,4.149,9.844A16.1,16.1,0,0,0,22.765.5c2.853-6.489.943-15.022-4.084-18.27-2.218-1.432-4.993-1.3-8.222-1.151-1.416.066-2.848.119-4.221.078-.048,0-.089,0-.131-.012" transform="translate(12.203 25.117)" fill="#e0cc6b"/>
      </g>
    </g>
  </g>
</svg>
