<?xml version="1.0" encoding="UTF-8"?>
<svg width="1977px" height="144px" viewBox="0 0 1977 144" version="1.1" xmlns="http://www.w3.org/2000/svg" xmlns:xlink="http://www.w3.org/1999/xlink">
    <title>Path_28</title>
    <g id="Page-1" stroke="none" stroke-width="1" fill="none" fill-rule="evenodd">
        <g id="shape-1-white" transform="translate(-1.000000, 0.000000)" fill="#E0CC6B" fill-rule="nonzero">
            <path d="M1977.569,129.187 C1968.509,117.899 1958.588,109.18 1953.925,98.501 C1948.788,91.387 1938.467,77.201 1939.084,69.062 C1938.655,68.1 1936.869,68.768 1934.628,68.446 C1934.259,67.492 1936.048,66.824 1937.828,66.146 C1935.587,65.839 1934.778,63.909 1933.464,61.012 C1941.09,54.748 1933.691,51.882 1934.7,44.73 C1934.248,43.756 1933.867,42.772 1930.342,44.101 C1929.461,42.166 1932.984,40.838 1934.39,39.187 C1933.507,37.252 1931.723,37.919 1929.982,38.58 C1929.161,36.621 1932.257,34.346 1929.205,32.096 C1940.711,30.055 1928.168,20.061 1923.815,14.925 C1924.333,14.725 1924.849,14.535 1925.37,14.332 C1914.664,13.932 1907.135,14.144 1899.931,11.613 C1890.267,14.029 1877.061,10.644 1865.539,11.169 C1864.012,10.415 1862.411,12.356 1864.009,12.969 C1859.993,12.407 1853.636,12.491 1850.322,10.856 C1848.37,10.932 1848.322,11.931 1848.276,12.943 C1836.995,9.454 1823.459,13.055 1814.031,10.496 C1812.077,10.602 1812.031,11.596 1811.988,12.568 C1810.135,11.683 1810.181,10.685 1808.33,9.768 C1777.789,9.116 1739.599,8.886 1708.961,10.259 C1707.061,10.359 1708.869,12.259 1706.97,12.34 C1701.262,10.627 1688.084,7.24 1678.298,11.652 C1682.288,8.481 1668.87,9.092 1670.727,10.996 C1651.793,6.877 1622.611,18.158 1605.771,10.953 C1601.871,12.127 1594.109,14.453 1592.35,11.563 C1590.469,11.963 1588.589,12.573 1586.77,13.093 C1583.603,12.883 1580.358,12.584 1577.103,12.328 C1577.08,12.304 1577.053,12.297 1577.03,12.272 C1576.977,12.272 1576.957,12.307 1576.906,12.313 C1574.828,12.151 1572.753,12.013 1570.706,11.966 C1568.706,10.638 1566.268,9.733 1561.851,9.942 C1559.19886,10.6330942 1556.59548,11.4993286 1554.058,12.535 C1553.0806,12.3656309 1552.12665,12.0813252 1551.216,11.688 C1549.262,11.764 1549.216,12.763 1549.168,13.775 C1541.368,11.363 1532.511,12.318 1524.656,12.303 C1525.044,11.266 1526.887,11.426 1521.762,12.238 C1519.45671,12.1838672 1517.16419,11.8787335 1514.925,11.328 C1512.971,11.434 1512.925,12.428 1512.879,13.4 C1511.026,12.516 1511.079,11.517 1509.223,10.6 C1478.682,9.948 1440.492,9.718 1409.854,11.091 C1407.954,11.191 1409.76,13.091 1407.863,13.172 C1402.155,11.459 1388.974,8.072 1379.191,12.485 C1383.182,9.313 1369.761,9.923 1371.621,11.828 C1359.991,9.298 1344.499,12.569 1330.372,13.808 L1326.003,13.708 C1324.441,13.761 1322.811,13.693 1321.168,13.608 L1312.281,13.418 C1310.35637,13.0706366 1308.47366,12.5216106 1306.664,11.78 C1305.27,12.199 1303.38,12.762 1301.449,13.186 L1296.456,13.079 C1296.396,13.328 1296.587,13.536 1296.74,13.751 C1295.151,13.722 1293.84,13.37 1293.24,12.391 C1292.24,12.604 1291.252,12.881 1290.265,13.169 C1289.584,13.081 1288.91,13.006 1288.238,12.906 L1281.472,12.752 C1281.31187,13.1433575 1281.22346,13.5603336 1281.211,13.983 C1280.1881,13.6645818 1279.14556,13.4130506 1278.09,13.23 C1278.037,13.177 1277.973,13.156 1277.92,13.101 C1277.853,13.101 1277.828,13.145 1277.766,13.151 C1276.422,12.91 1275.06,12.732 1273.691,12.592 L1271.2,12.539 C1269.271,11.354 1266.872,10.576 1262.744,10.771 C1260.96,11.22 1259.409,11.733 1257.93,12.258 L1257.336,12.246 C1256.263,12.233 1255.18,12.22 1254.148,12.171 L1245.227,11.977 C1245.02475,12.4034951 1244.92412,12.871065 1244.933,13.343 C1244.26372,12.9988281 1243.67377,12.5185579 1243.201,11.933 L1153.863,10.017 C1150.001,10.123 1145.621,10.036 1141.946,10.189 C1140.046,10.273 1141.846,12.273 1139.946,12.357 C1134.246,10.513 1121.078,6.857 1111.285,11.435 C1115.285,8.119 1101.866,8.669 1103.719,10.691 C1084.801,6.22 1055.601,17.881 1038.783,10.178 C1034.883,11.378 1027.116,13.786 1025.364,10.73 C1019.571,11.989 1013.702,15.388 1010.049,11.367 C1008.155,11.421 1008.056,13.505 1008.006,14.567 C1004.306,11.602 1002.557,8.487 994.885,8.806 C989.512,10.188 985.87,12.122 981.764,13.492 C981.553,13.492 981.335,13.499 981.124,13.492 C978.370252,13.4695301 975.631915,13.0783871 972.982,12.329 C969.651949,11.6978303 966.278384,11.323064 962.891,11.208 C949.891,10.19 936.352,11.655 923.226,11.02 C917.454,10.741 912.711,9.589 907.399,8.996 C899.244,8.09 889.972,10.451 881.551,10.44 C873.792,10.431 865.809,10.866 858.103,10.456 C850.62,10.056 844.613,7.815 836.992,7.898 C828.467,7.992 819.592,7.457 811.12,7.936 C803.203,8.385 795.665,9.967 787.711,10.051 C779.796,10.133 772.157,9.986 764.288,10.766 C757.145776,11.5688842 749.927027,11.3848234 742.835,10.219 C739.971927,9.78650053 737.082361,9.55260872 734.187,9.519 C729.58694,9.46738878 724.99408,9.14080616 720.433,8.541 C717.233986,8.23977077 714.008215,8.4031308 710.856,9.026 C704.944,9.973 701.095,10.953 694.816,10.483 C686.525,9.862 678.147,8.692 669.889,7.583 C665.107,6.939 660.697,5.443 655.889,5.002 C652.318,4.674 648.419,4.64 644.766,4.35 C634.102,3.506 623.309,3.75 612.578,3.835 C606.755,3.885 606.427,4.601 607.916,7.835 C609.081,10.362 611.283,12.749 613.338,15.068 L613.338,15.068 C608.138,14.318 601.338,15.656 593.716,14.625 C591.861,14.731 590.058,14.785 589.969,16.766 C586.309,16.972 586.401,14.975 584.639,14.047 C580.981,14.238 580.939,15.235 580.894,16.219 C577.261,16.376 575.543,14.494 570.039,15.753 C573.963,9.589 550.109,14.679 539.165,16.224 C539.209,15.224 539.254,14.214 539.298,13.215 C515.754,11.35 477.704,10.169 450.573,7.434 C446.353099,7.80579265 442.10418,7.68228538 437.913,7.066 C434.299,6.229 437.826,9.047 434.213,8.21 C428.839,6.489 408.866,6.444 401.713,4.788 C394.354,6.125 389.067,2.407 378.125,3.935 C376.41,1.98 369.119,2.342 360.041,1.78 C360.094,0.634 358.498,0.617 357,0.498 L348.076,0.38 C347.821,0.88 347.342,1.404 345.53,1.489 C345.555,0.873 344.918,0.702 344.594,0.326 L329.283,0.105 C329.283,0.149 329.258,0.211 329.256,0.255 C329.156,0.198 328.735,0.155 328.595,0.087 L321.887,0.002 C323.558816,1.51431518 325.030715,3.23388311 326.267,5.119 C322.082,4.495 321.267,7.091 319.567,7.772 C322.828,10.994 321.131,11.661 318.145,13.956 C318.611,14.566 319.085,15.143 319.555,15.74 C316.191351,15.9227373 312.818212,15.8153402 309.473,15.419 C307.618,15.526 305.815,15.579 305.728,17.562 C302.068,17.768 302.157,15.771 300.398,14.843 C296.738,15.033 296.698,16.031 296.65,17.015 C293.017,17.172 291.302,15.29 285.795,16.547 C289.719,10.385 265.865,15.475 254.923,17.019 C254.967,16.019 255.01,15.009 255.056,14.01 C231.509,12.145 193.456,10.964 166.331,8.229 C162.111101,8.60085692 157.862174,8.47734943 153.671,7.861 C150.056,7.024 153.584,9.842 149.971,9.005 C144.598,7.284 124.624,7.239 117.471,5.583 C110.109,6.918 104.825,3.2 93.881,4.73 C92.166,2.774 84.875,3.137 75.8,2.575 C75.85,1.431 74.259,1.412 72.766,1.293 C69.901,1.064 66.831,1.233 63.939,1.15 C63.132,1.888 62.313,1.74 61.483,2.188 C58.866,-1.002 44.039,2.597 39.072,2.831 C37.939,2.884 36.68,2.875 35.334,2.831 C27.75,2.578 17.434,1.171 11.787,3.162 C6.629,4.983 5.212,13.826 4.031,16.644 C1.74184067,22.1968967 0.713454204,28.1885884 1.02,34.187 C1.245,43.729 2.91,53.187 3.144,62.666 C3.387,72.392 0.993,83.044 4.144,92.636 C6.03041698,97.9553943 7.04056196,103.545809 7.135,109.189 C7.156,113.589 7.263,117.999 7.229,122.403 C7.204,125.742 9.178,127.717 9.44,130.865 C12.882,131.165 16.54,130.655 19.978,130.958 C23.735,131.29 26.464,132.158 30.156,132.608 C43.293,134.188 58.523,133.596 71.931,134.585 C82.598,135.37 156.361,138.7 156.982,131.076 C162.475,132.758 168.305,132.644 174.345,132.576 C178.911,132.523 185.298,133.701 189.345,133.47 C191.2,133.364 191.245,132.37 191.288,131.398 C193.049,132.283 193.006,133.281 194.765,134.198 C223.788,134.854 260.082,135.091 289.194,133.72 C290.994,133.62 289.281,131.72 291.086,131.64 C296.512,133.353 309.036,136.74 318.334,132.331 C314.541,135.502 327.294,134.893 325.528,132.988 C343.522,137.11 371.249,125.833 387.255,133.041 C390.955,131.866 398.337,129.541 400.009,132.432 C401.798,132.032 403.584,131.422 405.309,130.902 C408.32,131.112 411.409,131.412 414.494,131.668 C414.517,131.692 414.545,131.7 414.565,131.724 C414.616,131.724 414.636,131.689 414.682,131.684 C416.659,131.844 418.631,131.984 420.574,132.031 C422.474,133.359 424.789,134.264 428.986,134.055 C431.512013,133.363234 433.987235,132.497841 436.394,131.465 C437.325437,131.635106 438.2323,131.919592 439.094,132.312 C440.947,132.236 440.994,131.237 441.037,130.225 C448.451,132.638 456.868,131.685 464.331,131.7 C463.964,132.737 462.21,132.577 467.083,131.766 C469.277354,131.819562 471.458302,132.124895 473.583,132.676 C475.438,132.576 475.483,131.576 475.526,130.604 C477.287,131.489 477.241,132.487 479.001,133.404 C508.026,134.058 544.317,134.295 573.432,132.926 C575.232,132.826 573.519,130.926 575.324,130.845 C580.748,132.56 593.274,135.945 602.572,131.536 C598.779,134.707 611.532,134.099 609.767,132.195 C620.819,134.726 635.538,131.457 648.967,130.221 L653.118,130.321 C654.602,130.268 656.154,130.337 657.718,130.421 L666.162,130.612 C667.996103,130.962515 669.7864,131.512447 671.501,132.252 C672.824,131.833 674.62,131.27 676.457,130.846 L681.2,130.955 C681.257,130.706 681.076,130.496 680.929,130.283 C682.44,130.312 683.688,130.664 684.254,131.643 C685.199,131.43 686.141,131.153 687.08,130.866 C687.729,130.953 688.366,131.028 689.009,131.129 L695.438,131.285 C695.589435,130.891224 695.673281,130.4747 695.686,130.053 C696.6563,130.370561 697.646872,130.622463 698.651,130.807 C698.701,130.858 698.763,130.881 698.814,130.935 C698.876,130.935 698.901,130.892 698.958,130.885 C700.235,131.126 701.531,131.306 702.832,131.445 L705.199,131.498 C707.032,132.683 709.314,133.461 713.235,133.267 C714.784297,132.849463 716.311282,132.353151 717.81,131.78 L718.374,131.793 C719.395,131.806 720.422,131.819 721.401,131.868 L729.88,132.068 C730.07347,131.638356 730.169106,131.171107 730.16,130.7 C730.801444,131.049463 731.361708,131.530663 731.804,132.112 L816.704,134.04 C820.373,133.94 824.536,134.022 828.027,133.871 C829.827,133.786 828.119,131.787 829.927,131.702 C835.346,133.548 847.859,137.202 857.164,132.629 C853.364,135.945 866.115,135.397 864.356,133.375 C882.334,137.849 910.08,126.191 926.063,133.897 C929.763,132.697 937.149,130.291 938.814,133.347 C944.314,132.09 949.896,128.692 953.368,132.713 C955.168,132.659 955.262,130.575 955.308,129.513 C958.828,132.478 960.491,135.593 967.78,135.275 C972.887,133.894 976.346,131.96 980.247,130.591 C980.43,130.591 980.616,130.585 980.797,130.591 C983.690169,130.611935 986.568808,131.00243 989.363,131.753 C992.870728,132.383853 996.419823,132.757847 999.982,132.872 C1013.667,133.888 1027.911,132.422 1041.722,133.054 C1047.797,133.333 1052.785,134.482 1058.375,135.076 C1066.984,135.989 1076.738,133.627 1085.6,133.635 C1093.765,133.644 1102.165,133.207 1110.275,133.617 C1118.148,134.017 1124.467,136.255 1132.487,136.17 C1141.459,136.07 1150.8,136.61 1159.714,136.129 C1168.044,135.679 1175.977,134.095 1184.345,134.011 C1192.675,133.926 1200.713,134.073 1208.995,133.292 C1216.51123,132.488924 1224.10018,132.671807 1231.569,133.836 C1234.58377,134.267982 1237.62363,134.501817 1240.669,134.536 C1245.50727,134.58585 1250.33877,134.911378 1255.14,135.511 C1258.50643,135.811685 1261.89823,135.647815 1265.22,135.024 C1271.44,134.075 1275.492,133.096 1282.1,133.564 C1290.824,134.183 1299.64,135.354 1308.328,136.464 C1313.362,137.108 1318.002,138.602 1323.065,139.042 C1326.824,139.37 1330.925,139.404 1334.765,139.692 C1345.989,140.535 1357.344,140.292 1368.636,140.202 C1374.764,140.152 1375.11,139.434 1373.544,136.202 C1372.319,133.675 1370.003,131.29 1367.844,128.971 L1367.844,128.971 C1373.321,129.72 1380.474,128.38 1388.492,129.412 C1390.446,129.305 1392.34,129.25 1392.437,127.269 C1396.288,127.062 1396.191,129.059 1398.044,129.987 C1401.892,129.796 1401.944,128.797 1401.986,127.815 C1405.809,127.656 1407.614,129.539 1413.407,128.28 C1409.277,134.444 1434.378,129.349 1445.896,127.805 C1445.85,128.805 1445.802,129.815 1445.754,130.814 C1470.53,132.674 1510.57,133.851 1539.119,136.582 C1543.55881,136.208842 1548.02638,136.331599 1552.439,136.948 C1556.239,137.783 1552.533,134.967 1556.339,135.802 C1561.995,137.523 1583.011,137.565 1590.539,139.22 C1598.284,137.883 1603.845,141.6 1615.361,140.069 C1617.161,142.025 1624.837,141.662 1634.387,142.222 C1634.332,143.366 1636.013,143.384 1637.587,143.504 L1646.981,143.62 C1647.247,143.12 1647.754,142.595 1649.66,142.51 C1649.633,143.126 1650.305,143.297 1650.644,143.673 L1666.755,143.891 C1666.755,143.847 1666.78,143.785 1666.783,143.741 C1666.893,143.8 1667.331,143.841 1667.478,143.909 L1674.54,143.994 C1672.7901,142.494 1671.24068,140.774857 1669.93,138.879 C1674.336,139.501 1675.193,136.905 1676.978,136.223 C1673.549,133.002 1675.334,132.336 1678.478,130.04 C1677.987,129.43 1677.49,128.852 1676.994,128.256 C1680.5331,128.071892 1684.08135,128.178583 1687.603,128.575 C1689.555,128.468 1691.451,128.413 1691.545,126.432 C1695.396,126.225 1695.302,128.222 1697.152,129.15 C1701.003,128.959 1701.052,127.96 1701.094,126.978 C1704.917,126.819 1706.722,128.702 1712.517,127.443 C1708.384,133.607 1733.488,128.512 1745.003,126.968 C1744.957,127.968 1744.909,128.978 1744.863,129.977 C1769.639,131.837 1809.677,133.014 1838.226,135.745 C1842.66648,135.371826 1847.13471,135.494583 1851.548,136.111 C1855.348,136.946 1851.64,134.13 1855.448,134.965 C1861.101,136.686 1882.12,136.728 1889.648,138.383 C1897.395,137.046 1902.954,140.763 1914.47,139.232 C1916.27,141.188 1923.946,140.825 1933.498,141.385 C1933.443,142.529 1935.122,142.547 1936.698,142.667 L1946.089,142.783 C1946.357,142.283 1946.862,141.758 1948.768,141.673 C1948.741,142.289 1949.413,142.46 1949.752,142.836 L1965.844,143.04 C1965.844,142.996 1965.869,142.934 1965.872,142.89 C1965.984,142.949 1966.422,142.99 1966.567,143.058 L1973.629,143.143 C1971.87966,141.64242 1970.33032,139.923354 1969.019,138.028 C1973.425,138.65 1974.282,136.053 1976.069,135.372 C1972.638,132.151 1974.422,131.485 1977.569,129.189 M140.849,9.454 C140.803,10.454 139.049,9.554 137.216,9.613 C135.498,7.73 140.89,8.472 140.849,9.454 M425.086,8.654 C425.042,9.654 423.286,8.754 421.453,8.813 C419.737,6.93 425.129,7.672 425.086,8.654 M1565.926,135.334 C1565.974,134.334 1567.826,135.234 1569.749,135.175 C1571.549,137.058 1565.88,136.316 1565.926,135.334 M1865.026,134.497 C1865.074,133.497 1866.926,134.397 1868.849,134.338 C1870.649,136.221 1864.98,135.479 1865.026,134.497" id="Path_28"></path>
        </g>
    </g>
</svg>