<?xml version="1.0" encoding="UTF-8"?>
<svg width="1963px" height="144px" viewBox="0 0 1963 144" version="1.1" xmlns="http://www.w3.org/2000/svg" xmlns:xlink="http://www.w3.org/1999/xlink">
    <title>Path_28</title>
    <g id="Page-1" stroke="none" stroke-width="1" fill="none" fill-rule="evenodd">
        <g id="shape-1-white" fill="#FFFFFF" fill-rule="nonzero">
            <path d="M1962.213,15.753 C1952.549,18.169 1865.274,10.644 1853.752,11.169 C1852.225,10.415 1850.624,12.356 1852.222,12.969 C1848.206,12.407 1841.849,12.491 1838.535,10.856 C1836.583,10.932 1836.535,11.931 1836.489,12.943 C1825.208,9.454 1811.672,13.055 1802.244,10.496 C1800.29,10.602 1800.244,11.596 1800.201,12.568 C1798.348,11.683 1798.394,10.685 1796.543,9.768 C1766.002,9.116 1727.812,8.886 1697.174,10.259 C1695.274,10.359 1697.082,12.259 1695.183,12.34 C1689.475,10.627 1676.297,7.24 1666.511,11.652 C1670.501,8.481 1657.083,9.092 1658.94,10.996 C1640.006,6.877 1610.824,18.158 1593.984,10.953 C1590.084,12.127 1582.322,14.453 1580.563,11.563 C1578.682,11.963 1576.802,12.573 1574.983,13.093 C1571.816,12.883 1568.571,12.584 1565.316,12.328 C1565.293,12.304 1565.266,12.297 1565.243,12.272 C1565.19,12.272 1565.17,12.307 1565.119,12.313 C1563.041,12.151 1560.966,12.013 1558.919,11.966 C1556.919,10.638 1554.481,9.733 1550.064,9.942 C1547.41186,10.6330942 1544.80848,11.4993286 1542.271,12.535 C1541.2936,12.3656309 1540.33965,12.0813252 1539.429,11.688 C1537.475,11.764 1537.429,12.763 1537.381,13.775 C1529.581,11.363 1520.724,12.318 1512.869,12.303 C1513.257,11.266 1515.1,11.426 1509.975,12.238 C1507.66971,12.1838672 1505.37719,11.8787335 1503.138,11.328 C1501.184,11.434 1501.138,12.428 1501.092,13.4 C1499.239,12.516 1499.292,11.517 1497.436,10.6 C1466.895,9.948 1428.705,9.718 1398.067,11.091 C1396.167,11.191 1397.973,13.091 1396.076,13.172 C1390.368,11.459 1377.187,8.072 1367.404,12.485 C1371.395,9.313 1357.974,9.923 1359.834,11.828 C1348.204,9.298 1332.712,12.569 1318.585,13.808 L1314.216,13.708 C1312.654,13.761 1311.024,13.693 1309.381,13.608 L1300.494,13.418 C1298.56937,13.0706366 1296.68666,12.5216106 1294.877,11.78 C1293.483,12.199 1291.593,12.762 1289.662,13.186 L1284.669,13.079 C1284.609,13.328 1284.8,13.536 1284.953,13.751 C1283.364,13.722 1282.053,13.37 1281.453,12.391 C1280.453,12.604 1279.465,12.881 1278.478,13.169 C1277.797,13.081 1277.123,13.006 1276.451,12.906 L1269.685,12.752 C1269.52487,13.1433575 1269.43646,13.5603336 1269.424,13.983 C1268.4011,13.6645818 1267.35856,13.4130506 1266.303,13.23 C1266.25,13.177 1266.186,13.156 1266.133,13.101 C1266.066,13.101 1266.041,13.145 1265.979,13.151 C1264.635,12.91 1263.273,12.732 1261.904,12.592 L1259.413,12.539 C1257.484,11.354 1255.085,10.576 1250.957,10.771 C1249.173,11.22 1247.622,11.733 1246.143,12.258 L1245.549,12.246 C1244.476,12.233 1243.393,12.22 1242.361,12.171 L1233.44,11.977 C1233.23775,12.4034951 1233.13712,12.871065 1233.146,13.343 C1232.47672,12.9988281 1231.88677,12.5185579 1231.414,11.933 L1142.076,10.017 C1138.214,10.123 1133.834,10.036 1130.159,10.189 C1128.259,10.273 1130.059,12.273 1128.159,12.357 C1122.459,10.513 1109.291,6.857 1099.498,11.435 C1103.498,8.119 1090.079,8.669 1091.932,10.691 C1073.014,6.22 1043.814,17.881 1026.996,10.178 C1023.096,11.378 1015.329,13.786 1013.577,10.73 C1007.784,11.989 1001.915,15.388 998.262,11.367 C996.368,11.421 996.269,13.505 996.219,14.567 C992.519,11.602 990.77,8.487 983.098,8.806 C977.725,10.188 974.083,12.122 969.977,13.492 C969.766,13.492 969.548,13.499 969.337,13.492 C966.583252,13.4695301 963.844915,13.0783871 961.195,12.329 C957.864949,11.6978303 954.491384,11.323064 951.104,11.208 C938.104,10.19 924.565,11.655 911.439,11.02 C905.667,10.741 900.924,9.589 895.612,8.996 C887.457,8.09 878.185,10.451 869.764,10.44 C862.005,10.431 854.022,10.866 846.316,10.456 C838.833,10.056 832.826,7.815 825.205,7.898 C816.68,7.992 807.805,7.457 799.333,7.936 C791.416,8.385 783.878,9.967 775.924,10.051 C768.009,10.133 760.37,9.986 752.501,10.766 C745.358776,11.5688842 738.140027,11.3848234 731.048,10.219 C728.184927,9.78650053 725.295361,9.55260872 722.4,9.519 C717.79994,9.46738878 713.20708,9.14080616 708.646,8.541 C705.446986,8.23977077 702.221215,8.4031308 699.069,9.026 C693.157,9.973 689.308,10.953 683.029,10.483 C674.738,9.862 666.36,8.692 658.102,7.583 C653.32,6.939 648.91,5.443 644.102,5.002 C640.531,4.674 636.632,4.64 632.979,4.35 C622.315,3.506 611.522,3.75 600.791,3.835 C594.968,3.885 594.64,4.601 596.129,7.835 C597.294,10.362 599.496,12.749 601.551,15.068 C596.351,14.318 589.551,15.656 581.929,14.625 C580.074,14.731 578.271,14.785 578.182,16.766 C574.522,16.972 574.614,14.975 572.852,14.047 C569.194,14.238 569.152,15.235 569.107,16.219 C565.474,16.376 563.756,14.494 558.252,15.753 C562.176,9.589 538.322,14.679 527.378,16.224 C527.422,15.224 527.467,14.214 527.511,13.215 C503.967,11.35 465.917,10.169 438.786,7.434 C434.566099,7.80579265 430.31718,7.68228538 426.126,7.066 C422.512,6.229 426.039,9.047 422.426,8.21 C417.052,6.489 397.079,6.444 389.926,4.788 C382.567,6.125 377.28,2.407 366.338,3.935 C364.623,1.98 357.332,2.342 348.254,1.78 C348.307,0.634 346.711,0.617 345.213,0.498 L336.289,0.38 C336.034,0.88 335.555,1.404 333.743,1.489 C333.768,0.873 333.131,0.702 332.807,0.326 L317.496,0.105 C317.496,0.149 317.471,0.211 317.469,0.255 C317.369,0.198 316.948,0.155 316.808,0.087 L310.1,0.002 C311.771816,1.51431518 313.243715,3.23388311 314.48,5.119 C310.295,4.495 309.48,7.091 307.78,7.772 C311.041,10.994 309.344,11.661 306.358,13.956 C306.824,14.566 307.298,15.143 307.768,15.74 C304.404351,15.9227373 301.031212,15.8153402 297.686,15.419 C295.831,15.526 294.028,15.579 293.941,17.562 C290.281,17.768 290.37,15.771 288.611,14.843 C284.951,15.033 284.911,16.031 284.863,17.015 C281.23,17.172 279.515,15.29 274.008,16.547 C277.932,10.385 254.078,15.475 243.136,17.019 C243.18,16.019 243.223,15.009 243.269,14.01 C219.722,12.145 181.669,10.964 154.544,8.229 C150.324101,8.60085692 146.075174,8.47734943 141.884,7.861 C138.269,7.024 141.797,9.842 138.184,9.005 C132.811,7.284 112.837,7.239 105.684,5.583 C98.322,6.918 93.038,3.2 82.094,4.73 C80.379,2.774 73.088,3.137 64.013,2.575 C64.063,1.431 62.472,1.412 60.979,1.293 C58.114,1.064 55.044,1.233 52.152,1.15 C51.345,1.888 50.526,1.74 49.696,2.188 C47.079,-1.002 32.252,2.597 27.285,2.831 C26.152,2.884 24.893,2.875 23.547,2.831 C15.963,2.578 5.647,1.171 0,3.162 L0,131.285 C3.442,131.585 4.753,130.655 8.191,130.958 C11.948,131.29 14.677,132.158 18.369,132.608 C31.506,134.188 46.736,133.596 60.144,134.585 C70.811,135.37 144.574,138.7 145.195,131.076 C150.688,132.758 156.518,132.644 162.558,132.576 C167.124,132.523 173.511,133.701 177.558,133.47 C179.413,133.364 179.458,132.37 179.501,131.398 C181.262,132.283 181.219,133.281 182.978,134.198 C212.001,134.854 248.295,135.091 277.407,133.72 C279.207,133.62 277.494,131.72 279.299,131.64 C284.725,133.353 297.249,136.74 306.547,132.331 C302.754,135.502 315.507,134.893 313.741,132.988 C331.735,137.11 359.462,125.833 375.468,133.041 C379.168,131.866 386.55,129.541 388.222,132.432 C390.011,132.032 391.797,131.422 393.522,130.902 C396.533,131.112 399.622,131.412 402.707,131.668 C402.73,131.692 402.758,131.7 402.778,131.724 C402.829,131.724 402.849,131.689 402.895,131.684 C404.872,131.844 406.844,131.984 408.787,132.031 C410.687,133.359 413.002,134.264 417.199,134.055 C419.725013,133.363234 422.200235,132.497841 424.607,131.465 C425.538437,131.635106 426.4453,131.919592 427.307,132.312 C429.16,132.236 429.207,131.237 429.25,130.225 C436.664,132.638 445.081,131.685 452.544,131.7 C452.177,132.737 450.423,132.577 455.296,131.766 C457.490354,131.819562 459.671302,132.124895 461.796,132.676 C463.651,132.576 463.696,131.576 463.739,130.604 C465.5,131.489 465.454,132.487 467.214,133.404 C496.239,134.058 532.53,134.295 561.645,132.926 C563.445,132.826 561.732,130.926 563.537,130.845 C568.961,132.56 581.487,135.945 590.785,131.536 C586.992,134.707 599.745,134.099 597.98,132.195 C609.032,134.726 623.751,131.457 637.18,130.221 L641.331,130.321 C642.815,130.268 644.367,130.337 645.931,130.421 L654.375,130.612 C656.209103,130.962515 657.9994,131.512447 659.714,132.252 C661.037,131.833 662.833,131.27 664.67,130.846 L669.413,130.955 C669.47,130.706 669.289,130.496 669.142,130.283 C670.653,130.312 671.901,130.664 672.467,131.643 C673.412,131.43 674.354,131.153 675.293,130.866 C675.942,130.953 676.579,131.028 677.222,131.129 L683.651,131.285 C683.802435,130.891224 683.886281,130.4747 683.899,130.053 C684.8693,130.370561 685.859872,130.622463 686.864,130.807 C686.914,130.858 686.976,130.881 687.027,130.935 C687.089,130.935 687.114,130.892 687.171,130.885 C688.448,131.126 689.744,131.306 691.045,131.445 L693.412,131.498 C695.245,132.683 697.527,133.461 701.448,133.267 C702.997297,132.849463 704.524282,132.353151 706.023,131.78 L706.587,131.793 C707.608,131.806 708.635,131.819 709.614,131.868 L718.093,132.068 C718.28647,131.638356 718.382106,131.171107 718.373,130.7 C719.014444,131.049463 719.574708,131.530663 720.017,132.112 L804.917,134.04 C808.586,133.94 812.749,134.022 816.24,133.871 C818.04,133.786 816.332,131.787 818.14,131.702 C823.559,133.548 836.072,137.202 845.377,132.629 C841.577,135.945 854.328,135.397 852.569,133.375 C870.547,137.849 898.293,126.191 914.276,133.897 C917.976,132.697 925.362,130.291 927.027,133.347 C932.527,132.09 938.109,128.692 941.581,132.713 C943.381,132.659 943.475,130.575 943.521,129.513 C947.041,132.478 948.704,135.593 955.993,135.275 C961.1,133.894 964.559,131.96 968.46,130.591 C968.643,130.591 968.829,130.585 969.01,130.591 C971.903169,130.611935 974.781808,131.00243 977.576,131.753 C981.083728,132.383853 984.632823,132.757847 988.195,132.872 C1001.88,133.888 1016.124,132.422 1029.935,133.054 C1036.01,133.333 1040.998,134.482 1046.588,135.076 C1055.197,135.989 1064.951,133.627 1073.813,133.635 C1081.978,133.644 1090.378,133.207 1098.488,133.617 C1106.361,134.017 1112.68,136.255 1120.7,136.17 C1129.672,136.07 1139.013,136.61 1147.927,136.129 C1156.257,135.679 1164.19,134.095 1172.558,134.011 C1180.888,133.926 1188.926,134.073 1197.208,133.292 C1204.72423,132.488924 1212.31318,132.671807 1219.782,133.836 C1222.79677,134.267982 1225.83663,134.501817 1228.882,134.536 C1233.72027,134.58585 1238.55177,134.911378 1243.353,135.511 C1246.71943,135.811685 1250.11123,135.647815 1253.433,135.024 C1259.653,134.075 1263.705,133.096 1270.313,133.564 C1279.037,134.183 1287.853,135.354 1296.541,136.464 C1301.575,137.108 1306.215,138.602 1311.278,139.042 C1315.037,139.37 1319.138,139.404 1322.978,139.692 C1334.202,140.535 1345.557,140.292 1356.849,140.202 C1362.977,140.152 1363.323,139.434 1361.757,136.202 C1360.532,133.675 1358.216,131.29 1356.057,128.971 C1361.534,129.72 1368.687,128.38 1376.705,129.412 C1378.659,129.305 1380.553,129.25 1380.65,127.269 C1384.501,127.062 1384.404,129.059 1386.257,129.987 C1390.105,129.796 1390.157,128.797 1390.199,127.815 C1394.022,127.656 1395.827,129.539 1401.62,128.28 C1397.49,134.444 1422.591,129.349 1434.109,127.805 C1434.063,128.805 1434.015,129.815 1433.967,130.814 C1458.743,132.674 1498.783,133.851 1527.332,136.582 C1531.77181,136.208842 1536.23938,136.331599 1540.652,136.948 C1544.452,137.783 1540.746,134.967 1544.552,135.802 C1550.208,137.523 1571.224,137.565 1578.752,139.22 C1586.497,137.883 1592.058,141.6 1603.574,140.069 C1605.374,142.025 1613.05,141.662 1622.6,142.222 C1622.545,143.366 1624.226,143.384 1625.8,143.504 L1635.194,143.62 C1635.46,143.12 1635.967,142.595 1637.873,142.51 C1637.846,143.126 1638.518,143.297 1638.857,143.673 L1654.968,143.891 C1654.968,143.847 1654.993,143.785 1654.996,143.741 C1655.106,143.8 1655.544,143.841 1655.691,143.909 L1662.753,143.994 C1661.0031,142.494 1659.45368,140.774857 1658.143,138.879 C1662.549,139.501 1663.406,136.905 1665.191,136.223 C1661.762,133.002 1663.547,132.336 1666.691,130.04 C1666.2,129.43 1665.703,128.852 1665.207,128.256 C1668.7461,128.071892 1672.29435,128.178583 1675.816,128.575 C1677.768,128.468 1679.664,128.413 1679.758,126.432 C1683.609,126.225 1683.515,128.222 1685.365,129.15 C1689.216,128.959 1689.265,127.96 1689.307,126.978 C1693.13,126.819 1694.935,128.702 1700.73,127.443 C1696.597,133.607 1721.701,128.512 1733.216,126.968 C1733.17,127.968 1733.122,128.978 1733.076,129.977 C1757.852,131.837 1797.89,133.014 1826.439,135.745 C1830.87948,135.371826 1835.34771,135.494583 1839.761,136.111 C1843.561,136.946 1839.853,134.13 1843.661,134.965 C1849.314,136.686 1870.333,136.728 1877.861,138.383 C1885.608,137.046 1891.167,140.763 1902.683,139.232 C1904.483,141.188 1912.159,140.825 1921.711,141.385 C1921.656,142.529 1923.335,142.547 1924.911,142.667 L1934.302,142.783 C1934.57,142.283 1935.075,141.758 1936.981,141.673 C1936.954,142.289 1937.626,142.46 1937.965,142.836 L1954.057,143.04 C1954.057,142.996 1954.082,142.934 1954.085,142.89 C1954.197,142.949 1954.635,142.99 1954.78,143.058 L1961.842,143.143 L1962.213,15.753 Z M129.062,9.454 C129.016,10.454 127.262,9.554 125.429,9.613 C123.711,7.73 129.103,8.472 129.062,9.454 M413.299,8.654 C413.255,9.654 411.499,8.754 409.666,8.813 C407.95,6.93 413.342,7.672 413.299,8.654 M1554.139,135.334 C1554.187,134.334 1556.039,135.234 1557.962,135.175 C1559.762,137.058 1554.093,136.316 1554.139,135.334 M1853.239,134.497 C1853.287,133.497 1855.139,134.397 1857.062,134.338 C1858.862,136.221 1853.193,135.479 1853.239,134.497" id="Path_28"></path>
        </g>
    </g>
</svg>