<svg xmlns="http://www.w3.org/2000/svg" xmlns:xlink="http://www.w3.org/1999/xlink" width="111.997" height="115.916" viewBox="0 0 111.997 115.916">
  <defs>
    <clipPath id="clip-path">
      <path id="Path_306" data-name="Path 306" d="M0,86.9H112V-29.014H0Z" transform="translate(0 29.014)" fill="#e0cc6b"/>
    </clipPath>
  </defs>
  <g id="Group_107" data-name="Group 107" transform="translate(0 29.014)" style="isolation: isolate">
    <g id="Group_106" data-name="Group 106" transform="translate(0 -29.014)" clip-path="url(#clip-path)">
      <g id="Group_92" data-name="Group 92" transform="translate(19.839 23.596)">
        <path id="Path_292" data-name="Path 292" d="M27.38,52.045a27.022,27.022,0,0,1-6.9-.863C3.357,46.671-5.808,36.667-8.269,19.752a2.9,2.9,0,0,1-.671-3.136,56.463,56.463,0,0,0,1.9-6.228A44.018,44.018,0,0,1-3.275-.056c8.63-15.577,30.148-21.89,47-13.767C57.2-7.327,63.377,5.133,61.6,22.213a32.341,32.341,0,0,1-14.235,23.4,35.859,35.859,0,0,1-19.98,6.428M-2.9,17.083a3.006,3.006,0,0,1,.284.931C-.682,33.076,6.9,41.566,21.971,45.533c6.808,1.79,15.258-.02,22.069-4.722a26.6,26.6,0,0,0,11.746-19.2c1.546-14.822-3.228-24.694-14.6-30.176C27.049-15.378,9.015-10.188,1.839,2.776a38.7,38.7,0,0,0-3.228,9.109c-.451,1.7-.915,3.452-1.506,5.2" transform="translate(9.141 17.376)" fill="#e0cc6b"/>
      </g>
      <g id="Group_93" data-name="Group 93" transform="translate(-0.001 36.319)">
        <path id="Path_293" data-name="Path 293" d="M9.128,12.579a2.7,2.7,0,0,1-.356-.024,2.571,2.571,0,0,1-1.207-.108A16.286,16.286,0,0,1-2.777,3.326,2.927,2.927,0,0,1-2.426.294C.726-3.725,4.846-3.873,8.154-3.989a25.731,25.731,0,0,0,2.677-.188,2.971,2.971,0,0,1,3.052,1.63c2.141,4.491.3,8.31-1.051,11.091-.348.719-.7,1.434-.979,2.165a2.921,2.921,0,0,1-2.725,1.87M3.551,2.691A10.06,10.06,0,0,0,7.5,6.159c.02-.048.048-.108.072-.16A11.006,11.006,0,0,0,9.024,1.824c-.22,0-.443.016-.667.024-2.117.076-3.616.172-4.806.843" transform="translate(3.048 4.2)" fill="#e0cc6b"/>
      </g>
      <g id="Group_94" data-name="Group 94" transform="translate(21.124 87.987)">
        <path id="Path_294" data-name="Path 294" d="M3.689,12.534a10.1,10.1,0,0,1-1.654-.144,2.9,2.9,0,0,1-2.281-1.95C-2.017,5.179-1.405.756,1.623-3.075a2.955,2.955,0,0,1,3.108-1C8.483-2.983,12.35-1.6,14.859,2.306A2.874,2.874,0,0,1,15.3,4.24a2.924,2.924,0,0,1-1.3,2.8,21.97,21.97,0,0,0-2.093,1.642C9.969,10.345,7.4,12.534,3.689,12.534m1.5-10.344a7.185,7.185,0,0,0-.439,4.335A10.862,10.862,0,0,0,8.123,4.24l.4-.344A11.4,11.4,0,0,0,5.191,2.191" transform="translate(1.231 4.185)" fill="#e0cc6b"/>
      </g>
      <g id="Group_95" data-name="Group 95" transform="translate(93.058 37.143)">
        <path id="Path_295" data-name="Path 295" d="M3.369,12.129a2.916,2.916,0,0,1-2.9-3.236A6.826,6.826,0,0,0-.175,6.412C-.958,4.322-2.256.838.836-2.122,4.463-5.6,8.874-3.6,11.743-2.13c.144-.12.292-.24.439-.36a2.923,2.923,0,0,1,4.1.5,2.925,2.925,0,0,1-.5,4.1,18.059,18.059,0,0,0-2.825,3.116c-1.922,2.453-4.307,5.505-8.793,6.788a2.891,2.891,0,0,1-.8.116M5.674,1.8a1.083,1.083,0,0,0-.8.292c-.2.2-.316.3.423,2.273.056.152.12.312.176.479A16.229,16.229,0,0,0,7.732,2.42,5.439,5.439,0,0,0,5.674,1.8" transform="translate(1.125 4.049)" fill="#e0cc6b"/>
      </g>
      <g id="Group_96" data-name="Group 96" transform="translate(1.487 63.747)">
        <path id="Path_296" data-name="Path 296" d="M8.538,12.024a10.291,10.291,0,0,1-2.825-.483,7.45,7.45,0,0,0-1.31-.292,5.524,5.524,0,0,1-3.739-.384,5.741,5.741,0,0,0-.6-.212A2.883,2.883,0,0,1-1.6,9.519,2.9,2.9,0,0,1-2.744,6.355c.883-3.22,2.968-5.118,4.81-6.8A17.047,17.047,0,0,0,4.391-2.826,2.9,2.9,0,0,1,6.3-3.985a2.958,2.958,0,0,1,2.169.535c2.241,1.646,8.19,6.025,4.666,12.6a4.934,4.934,0,0,1-4.6,2.869M4.419,5.408a10.2,10.2,0,0,1,2.9.519c.232.06.543.152.791.208.4-.8.543-1.638-1.083-3.212-.352.332-.7.651-1.031.955-.6.543-1.139,1.031-1.6,1.53Z" transform="translate(2.851 4.014)" fill="#e0cc6b"/>
      </g>
      <g id="Group_97" data-name="Group 97" transform="translate(75.238 88.9)">
        <path id="Path_297" data-name="Path 297" d="M8.743,11.824A13.46,13.46,0,0,1-2.28,6.478a2.914,2.914,0,0,1-.092-3.52C.049-.418,2.838-3.734,8.011-3.945a3.134,3.134,0,0,1,.467.024,2.9,2.9,0,0,1,2.8,1.306C13.457.721,13.329,4.2,13.217,7.269l-.048,1.594a2.909,2.909,0,0,1-2.629,2.869,17.261,17.261,0,0,1-1.8.092M3.864,4.417A7.2,7.2,0,0,0,7.412,5.9a12.482,12.482,0,0,0-.34-3.827A6.569,6.569,0,0,0,3.864,4.417" transform="translate(2.919 3.948)" fill="#e0cc6b"/>
      </g>
      <g id="Group_98" data-name="Group 98" transform="translate(20.549 9.845)">
        <path id="Path_298" data-name="Path 298" d="M4.3,13.907a2.906,2.906,0,0,1-2.361-1.2C-.019,10.012-.067,6.991-.1,4.566-.127,2.7-.159,1.086-.946-.1A2.923,2.923,0,0,1-.135-4.151a2.922,2.922,0,0,1,4.051.811C5.662-.727,5.7,2.041,5.738,4.482c.032,2.225.1,3.644.927,4.786A2.921,2.921,0,0,1,4.3,13.907" transform="translate(1.437 4.643)" fill="#e0cc6b"/>
      </g>
      <g id="Group_99" data-name="Group 99" transform="translate(22.667 12.462)">
        <path id="Path_299" data-name="Path 299" d="M2.715,13.006a2.918,2.918,0,0,1-2.7-4.027c1.107-2.7,3.348-3.891,5.146-4.85A13.19,13.19,0,0,0,7.038,3.01,4.267,4.267,0,0,0,2.664,1.635a2.9,2.9,0,0,1-3.5-2.2,2.918,2.918,0,0,1,2.2-3.5C7.753-5.512,11.449-1.013,13.019.916A2.913,2.913,0,0,1,13.5,3.785C12.316,6.949,9.763,8.3,7.9,9.29c-1.386.739-2.185,1.187-2.477,1.9a2.922,2.922,0,0,1-2.7,1.814" transform="translate(0.907 4.342)" fill="#e0cc6b"/>
      </g>
      <g id="Group_100" data-name="Group 100" transform="translate(48.565 96.872)">
        <path id="Path_300" data-name="Path 300" d="M6.584,14.278c-1.894,0-3.684-2.141-4.738-3.5C1.107,9.815.136,9.032-.208,7.857-.631,6.435-1.143,5.057-1.49,3.6a17.438,17.438,0,0,0-.539-1.99A2.916,2.916,0,0,1-.823-1.839c3.008-1.882,8.622-5.382,14.3-.268A2.906,2.906,0,0,1,14.427.362a8.263,8.263,0,0,1-1.139,3.38c-.511.871-1.4,1.386-1.806,2.329a7.829,7.829,0,0,0-.192.9,8.1,8.1,0,0,1-.667,1.019,9.116,9.116,0,0,0-1.135,3.628,2.937,2.937,0,0,1-2.074,2.541A3.007,3.007,0,0,1,6.584,14.278ZM4.143,2.024c.016.08.04.152.056.232v0c.16.667.16,1.274.743,1.582.276.563.2,1.79.891,2.006.132-.6,1.035-1.362,1.422-1.89a5.46,5.46,0,0,0,.679-1.111c.4-.907.975-1.914-.368-1.866A8.032,8.032,0,0,0,4.143,2.024" transform="translate(2.198 4.767)" fill="#e0cc6b"/>
      </g>
      <g id="Group_101" data-name="Group 101" transform="translate(73.074 6.1)">
        <path id="Path_301" data-name="Path 301" d="M5.871.656a15.546,15.546,0,0,1,4.97-.875,2.921,2.921,0,1,1,.136,5.841c-3.963.1-6.169,1.834-7.191,5.6A2.94,2.94,0,0,1,.2,13.281,2.936,2.936,0,0,1-1.86,9.693C-.618,5.119,2.015,2.059,5.871.656" transform="translate(1.96 0.219)" fill="#e0cc6b"/>
      </g>
      <g id="Group_102" data-name="Group 102" transform="translate(73.452 9.039)">
        <path id="Path_302" data-name="Path 302" d="M.086,5.632A2.842,2.842,0,0,1-.01,4.51,2.924,2.924,0,0,1,3.21,1.925C6.118,2.24,7.876,4.07,9.291,5.533a13.971,13.971,0,0,0,1.594,1.5A4.261,4.261,0,0,0,11,2.448a2.9,2.9,0,0,1,1.147-3.967A2.923,2.923,0,0,1,16.114-.368c3.16,5.741-.148,10.535-1.566,12.573a2.911,2.911,0,0,1-2.629,1.25c-3.364-.264-5.37-2.345-6.836-3.867C3.993,8.461,3.342,7.814,2.575,7.734a2.924,2.924,0,0,1-2.489-2.1" transform="translate(0.029 1.88)" fill="#e0cc6b"/>
      </g>
      <g id="Group_103" data-name="Group 103" transform="translate(47.765 1.64)">
        <path id="Path_303" data-name="Path 303" d="M.9,11.121a2.921,2.921,0,0,1,.18-4.846c2.485-1.538,5-1.183,7.016-.9a13.9,13.9,0,0,0,2.177.2C9.9,3.547,9.121,2.552,7.543,1.893A2.9,2.9,0,0,1,6-1.939,2.921,2.921,0,0,1,9.84-3.477C15.865-.9,16.208,4.917,16.344,7.4a2.912,2.912,0,0,1-1.3,2.6c-2.813,1.866-5.677,1.458-7.771,1.163-1.554-.22-2.465-.324-3.116.08A2.925,2.925,0,0,1,.9,11.121" transform="translate(0.301 3.713)" fill="#e0cc6b"/>
      </g>
      <g id="Group_104" data-name="Group 104" transform="translate(47.076 -0.001)">
        <path id="Path_304" data-name="Path 304" d="M1.334,3.306A15.491,15.491,0,0,1,4.714-.441a2.92,2.92,0,1,1,3.7,4.519C5.354,6.591,4.682,9.319,6.2,12.915a2.925,2.925,0,0,1-5.39,2.273c-1.838-4.371-1.646-8.4.527-11.882" transform="translate(0.446 1.104)" fill="#e0cc6b"/>
      </g>
      <g id="Group_105" data-name="Group 105" transform="translate(94.1 66.01)">
        <path id="Path_305" data-name="Path 305" d="M12.951,11.667C11.785,13.162,9,13.253,7.274,13.245c-1.211-.008-2.425.272-3.564-.176-1.382-.547-2.785-.991-4.139-1.61a17.783,17.783,0,0,0-1.906-.8A2.92,2.92,0,0,1-4.308,7.58c.368-3.528,1.067-10.1,8.59-11.43a2.9,2.9,0,0,1,2.533.771A8.3,8.3,0,0,1,8.776-.1c.372.939.232,1.958.723,2.861.164.3.4.427.591.7a7.641,7.641,0,0,1,.392,1.151A9.109,9.109,0,0,0,12.644,7.74a2.939,2.939,0,0,1,.727,3.2A2.982,2.982,0,0,1,12.951,11.667ZM1.793,6.046c.072.036.144.064.22.1h0c.623.288,1.1.659,1.7.392.615.128,1.538.939,2.129.531a7.779,7.779,0,0,1-.611-2.285,5.137,5.137,0,0,0-.459-1.219c-.467-.867-.907-1.95-1.694-.859a8.083,8.083,0,0,0-1.286,3.34" transform="translate(4.324 3.895)" fill="#e0cc6b"/>
      </g>
    </g>
  </g>
</svg>
