<?xml version="1.0" encoding="UTF-8"?>
<svg width="85px" height="89px" viewBox="0 0 85 89" version="1.1" xmlns="http://www.w3.org/2000/svg" xmlns:xlink="http://www.w3.org/1999/xlink">
    <title>sun-orange</title>
    <defs>
        <polygon id="path-1" points="0 87.9810714 85 87.9810714 85 0.010625 0 0.010625"></polygon>
    </defs>
    <g id="Page-1" stroke="none" stroke-width="1" fill="none" fill-rule="evenodd">
        <g id="sun-orange">
            <mask id="mask-2" fill="white">
                <use xlink:href="#path-1"></use>
            </mask>
            <g id="Path_306"></g>
            <g id="Group_106" mask="url(#mask-2)" fill="#E0CC6B" fill-rule="nonzero">
                <g id="Group_92" transform="translate(15.056384, 17.907679)">
                    <path d="M27.7168304,52.6857973 C25.9503717,52.6937058 24.190266,52.4735651 22.4802232,52.030625 C9.48508929,48.6070982 2.52950893,41.0147768 0.661785714,28.1775 C0.0289194743,27.5587334 -0.171711719,26.6210591 0.152544643,25.7975 C0.723721093,24.2510139 1.20517621,22.6728547 1.59450893,21.0708929 C2.20862814,18.3188059 3.16871769,15.6555455 4.451875,13.1446429 C11.0014286,1.3228125 27.3320536,-3.46830357 40.1215179,2.69647321 C50.3480804,7.62647321 55.0359821,17.0827232 53.6873661,30.0452232 C52.894429,37.2728279 48.9377916,43.7768895 42.8840179,47.8041518 C38.4292207,50.9062036 33.1485112,52.6051226 27.720625,52.6825446 M4.73647321,26.1519196 C4.84622582,26.3741674 4.91902522,26.6128161 4.95200893,26.8584821 C6.41977679,38.2894643 12.1739732,44.7327679 23.6117857,47.7434375 C28.7785714,49.1019196 35.1915179,47.7282589 40.3605804,44.1597768 C45.3418555,40.8610425 48.6061073,35.5252996 49.2749554,29.5883482 C50.4482589,18.3395089 46.8251339,10.8473661 38.1945982,6.68691964 C27.465625,1.51633929 13.7791071,5.45517857 8.33303571,15.2939286 C7.23078708,17.4868761 6.40776452,19.8093397 5.88321429,22.2070089 C5.5409375,23.4971875 5.18879464,24.8268304 4.74026786,26.1534375" id="Path_292"></path>
                </g>
                <g id="Group_93" transform="translate(-0.000759, 27.563527)">
                    <path d="M9.24071429,12.7340625 C9.15035166,12.733955 9.06009511,12.7278702 8.97053571,12.7158482 C8.66302434,12.7619054 8.34895859,12.7338034 8.05450893,12.6338839 C4.54227037,11.6025875 1.66782932,9.06750946 0.205669643,5.71169643 C-0.144139117,4.95541905 -0.0412887655,4.06697955 0.472053571,3.410625 C2.86419643,0.360491071 5.99098214,0.248169643 8.50151786,0.160133929 C9.18075588,0.147945728 9.85889518,0.100321452 10.5331696,0.0174553571 C11.4904861,-0.108689265 12.4218623,0.388736473 12.8494196,1.25450893 C14.4742857,4.66285714 13.0770982,7.56120536 12.0517857,9.67178571 C11.7876786,10.2174554 11.5205357,10.7600893 11.3087946,11.3148661 C10.9790521,12.1699282 10.1571537,12.7339465 9.24071429,12.7340625 M5.00816964,5.22977679 C5.75630671,6.35716299 6.79060693,7.26548235 8.00517857,7.86174107 C8.02035714,7.8253125 8.04160714,7.77977679 8.05982143,7.7403125 C8.63763889,6.76952669 9.01251977,5.69161507 9.16178571,4.57178571 C8.99482143,4.57178571 8.82558036,4.58392857 8.65558036,4.59 C7.04892857,4.64767857 5.91129464,4.72053571 5.00816964,5.22977679" id="Path_293"></path>
                </g>
                <g id="Group_94" transform="translate(16.031607, 66.775848)">
                    <path d="M3.73392857,12.6885268 C3.31321583,12.6866088 2.89337512,12.6500567 2.47866071,12.5792411 C1.67140288,12.4460513 1.00465263,11.8760544 0.747544643,11.0993304 C-0.596517857,7.10660714 -0.132053571,3.74986607 2.16598214,0.842410714 C2.7284173,0.138614167 3.65741598,-0.160291457 4.52473214,0.0834821429 C7.37223214,0.912232143 10.3070089,1.96183036 12.2111607,4.92620536 C12.4933813,5.36023596 12.6120148,5.88050167 12.5458482,6.39397321 C12.6481613,7.23234133 12.2656991,8.05610596 11.5592411,8.51897321 C11.0050764,8.90189348 10.4746251,9.31804305 9.97080357,9.76513393 C8.5,11.0272321 6.5503125,12.6885268 3.73392857,12.6885268 M4.87232143,4.83816964 C4.42340714,5.87389997 4.30699633,7.0234236 4.53915179,8.128125 C5.49418045,7.71670615 6.3627445,7.12830744 7.09901786,6.39397321 L7.40258929,6.13290179 C6.63672008,5.56520325 5.7822898,5.12798727 4.87383929,4.83892857" id="Path_294"></path>
                </g>
                <g id="Group_95" transform="translate(70.624375, 28.188884)">
                    <path d="M3.410625,12.2779464 C2.78119751,12.2782943 2.18140055,12.0106034 1.761329,11.5418615 C1.34125745,11.0731196 1.14065906,10.4476797 1.20973214,9.82205357 C1.16717526,9.1691879 1.00133529,8.53029202 0.720982143,7.93915179 C0.126741071,6.35299107 -0.858348214,3.70888393 1.48825893,1.46245536 C4.24089286,-1.17709821 7.58852679,0.340758929 9.76589286,1.45638393 C9.87517857,1.3653125 9.9875,1.27424107 10.0990625,1.18316964 C11.0633845,0.429749581 12.4556785,0.599541533 13.2106696,1.56263393 C13.9632191,2.52719757 13.7935107,3.91880606 12.8312054,4.67424107 C12.0268788,5.37631793 11.3073423,6.16997306 10.6872321,7.0390625 C9.22857143,8.90071429 7.41852679,11.2169643 4.01397321,12.1906696 C3.81671391,12.248304 3.61233551,12.2779389 3.40683036,12.2787054 M5.15995536,4.43897321 C4.93580367,4.4268323 4.71643951,4.50690022 4.5528125,4.66058036 C4.40102679,4.81236607 4.31299107,4.88825893 4.87383929,6.385625 C4.91633929,6.50098214 4.96491071,6.62241071 5.00741071,6.74915179 C5.64015046,6.19603441 6.21461698,5.57960818 6.72183036,4.90950893 C6.23768776,4.65033173 5.70669652,4.49036353 5.15995536,4.43897321" id="Path_295"></path>
                </g>
                <g id="Group_96" transform="translate(1.128527, 48.379420)">
                    <path d="M8.6434375,12.1716964 C7.91518045,12.1501085 7.19352615,12.0267248 6.49946429,11.8051339 C6.17540791,11.7015031 5.84265916,11.6273331 5.50526786,11.5835268 C4.55440342,11.8210628 3.55036791,11.717947 2.66763393,11.2920982 C2.51893955,11.2300898 2.36692037,11.1763764 2.21227679,11.1312054 C1.70156526,11.0054434 1.25324677,10.6999187 0.949419643,10.2705804 C0.177834684,9.73699758 -0.170722112,8.77298211 0.0812053571,7.86933036 C0.751339286,5.42558036 2.33370536,3.98513393 3.73165179,2.70861607 C4.3773479,2.16526936 4.96833287,1.56004992 5.49616071,0.901607143 C5.84230469,0.426755731 6.36396524,0.110043016 6.94495536,0.0220089286 C7.52563965,-0.0630200367 8.11653284,0.0827281679 8.59107143,0.428035714 C10.2918304,1.67723214 14.8066964,5.00058036 12.1322321,9.99053571 C11.507246,11.3478959 10.1350655,12.2037189 8.64116071,12.1679018 M5.51741071,7.150625 C6.26623701,7.17472195 7.00759904,7.30740018 7.71830357,7.54450893 C7.894375,7.59004464 8.13040179,7.65986607 8.31861607,7.70236607 C8.6221875,7.09522321 8.73071429,6.45924107 7.49669643,5.2646875 C7.22955357,5.51665179 6.96544643,5.75875 6.71424107,5.98946429 C6.25888393,6.4015625 5.84982143,6.77191964 5.49995536,7.150625 L5.51741071,7.150625 Z" id="Path_296"></path>
                </g>
                <g id="Group_97" transform="translate(57.100268, 67.468750)">
                    <path d="M8.850625,11.9698214 C5.57253565,12.0383653 2.46077901,10.5292071 0.484955357,7.91258929 C-0.134531019,7.13844513 -0.16306767,6.04660807 0.415133929,5.24116071 C2.2525,2.67901786 4.36915179,0.162410714 8.29508929,0.00227678571 C8.41351791,-0.000486233102 8.53198747,0.00560213859 8.64950893,0.0204910714 C9.48952333,-0.0853546998 10.315782,0.300035944 10.7745089,1.01165179 C12.4282143,3.5434375 12.3310714,6.18375 12.2460714,8.51290179 L12.2096429,9.72263393 C12.1993532,10.851906 11.3384996,11.7913465 10.2144196,11.9 C9.76058915,11.9470478 9.30461056,11.9703533 8.84834821,11.9698214 M5.1478125,6.3484375 C5.92673378,6.96078552 6.85749212,7.34982572 7.84049107,7.47392857 C7.90488871,6.49827364 7.81784589,5.51852995 7.58245536,4.56950893 C6.60673988,4.89696329 5.75628206,5.51837012 5.1478125,6.3484375" id="Path_297"></path>
                </g>
                <g id="Group_98" transform="translate(15.595223, 7.471652)">
                    <path d="M4.35397321,14.0781344 C3.64503775,14.080189 2.97833016,13.7413287 2.56214286,13.1674107 C1.07616071,11.1220982 1.03973214,8.829375 1.0146875,6.98897321 C0.994196429,5.5728125 0.969910714,4.34790179 0.372633929,3.4478125 C-0.305637321,2.42872504 -0.0301863482,1.05282875 0.988125,0.373392857 C2.00712472,-0.305322835 3.38336082,-0.0298038321 4.06254464,0.988883929 C5.38763393,2.97196429 5.41647321,5.07267857 5.4453125,6.92522321 C5.46959821,8.61383929 5.52120536,9.69075893 6.14883929,10.5574554 C6.63945377,11.2320793 6.70983303,12.1250032 6.33096632,12.8681587 C5.95209962,13.6113142 5.18813114,14.0788808 4.35397321,14.0781344" id="Path_298"></path>
                </g>
                <g id="Group_99" transform="translate(17.202634, 9.457768)">
                    <path d="M2.74883929,13.165893 C2.01020379,13.1661347 1.32007031,12.7980988 0.908733231,12.1845972 C0.497396153,11.5710955 0.419010101,10.7928987 0.699732143,10.1096875 C1.53986607,8.06058036 3.240625,7.15669643 4.60517857,6.42888393 C5.10268743,6.18569266 5.57915851,5.90163771 6.0296875,5.57964286 C5.21992058,4.6163542 3.92541808,4.20941754 2.71013393,4.53611607 C2.13613499,4.67188396 1.5316604,4.57157153 1.03228284,4.25767706 C0.532905267,3.94378259 0.180420306,3.44257758 0.0538839286,2.86647321 C-0.0780399472,2.29274467 0.0239045958,1.69009953 0.337194285,1.19168411 C0.650483974,0.693268697 1.14933278,0.340106236 1.72352679,0.210223214 C6.57232143,-0.887946429 9.37732143,2.52647321 10.5688393,3.99044643 C11.0701507,4.59918253 11.2092502,5.42886308 10.9338839,6.1678125 C10.0353125,8.5690625 8.09776786,9.594375 6.68388393,10.3457143 C5.63200893,10.9065625 5.025625,11.2465625 4.80401786,11.7876786 C4.46314899,12.6194804 3.6538459,13.1632122 2.75491071,13.164375" id="Path_299"></path>
                </g>
                <g id="Group_100" transform="translate(36.857366, 73.518929)">
                    <path d="M6.66491071,14.4537946 C5.2275,14.4537946 3.86901786,12.8289286 3.06910714,11.7975446 C2.50825893,11.0666964 1.77133929,10.4724554 1.51026786,9.58071429 C1.18924107,8.50151786 0.800669643,7.45571429 0.537321429,6.34995536 C0.430872596,5.83890566 0.294279759,5.33460187 0.128258929,4.8396875 C-0.218867661,3.86049819 0.161861057,2.77166457 1.04352679,2.22214286 C3.32638393,0.793839286 7.58700893,-1.86241071 11.8962054,2.01875 C12.4233817,2.49140475 12.6915752,3.18842539 12.6171875,3.89254464 C12.5192289,4.80033771 12.2242171,5.67578986 11.7527679,6.45772321 C11.3649554,7.11875 10.6902679,7.50959821 10.3821429,8.22526786 C10.3202207,8.44989237 10.2715653,8.67796484 10.2364286,8.90830357 C10.0873397,9.17842423 9.91812636,9.4369375 9.73022321,9.68165179 C9.2527973,10.52872 8.95928874,11.466913 8.86883929,12.4350446 C8.78540983,13.3382407 8.16299432,14.1008047 7.29482143,14.3634821 C7.09009941,14.4228568 6.87806833,14.4532565 6.66491071,14.4537946 Z M4.81236607,5.15388393 C4.82450893,5.21459821 4.84272321,5.26924107 4.85486607,5.32995536 L4.85486607,5.32995536 C4.97629464,5.83616071 4.97629464,6.29683036 5.41875,6.53058036 C5.62821429,6.95785714 5.57053571,7.8890625 6.09495536,8.05299107 C6.19513393,7.59763393 6.88044643,7.01933036 7.17415179,6.61861607 C7.37893983,6.3591203 7.55194048,6.07605149 7.68946429,5.77544643 C7.99303571,5.08709821 8.42941964,4.32285714 7.41017857,4.35928571 C6.49549411,4.42536602 5.60750739,4.69697633 4.81236607,5.15388393" id="Path_300"></path>
                </g>
                <g id="Group_101" transform="translate(55.457946, 4.629464)">
                    <path d="M5.94316964,0.6640625 C7.15590305,0.238756973 8.42997719,0.014448144 9.71504464,-1.05330241e-15 C10.5069063,-0.0184374683 11.2484529,0.38697877 11.660351,1.06353234 C12.0722492,1.74008591 12.0919217,2.58499223 11.7119582,3.27998325 C11.3319946,3.97497428 10.6101206,4.41446434 9.81825893,4.43290179 C6.810625,4.50879464 5.13642857,5.82477679 4.36080357,8.68290179 C4.03508029,9.86152498 2.82138733,10.5584 1.63928571,10.2455357 C0.458509052,9.92157123 -0.239649569,8.70555515 0.0758928571,7.5225 C1.01848214,4.05116071 3.01674107,1.72883929 5.94316964,0.6640625" id="Path_301"></path>
                </g>
                <g id="Group_102" transform="translate(55.744821, 6.859955)">
                    <path d="M0.0872767857,5.70107143 C0.00643776266,5.42493298 -0.0183341546,5.13541119 0.0144196429,4.84955357 C0.149158639,3.63389766 1.24213318,2.75646313 2.45816964,2.88772321 C4.66513393,3.12678571 5.99933036,4.515625 7.07321429,5.6259375 C7.44606729,6.03645405 7.85055233,6.41708615 8.28294643,6.76433036 C8.98704191,5.72035517 9.02109676,4.36260309 8.37022321,3.28464286 C8.08225149,2.77085086 8.01223301,2.16307162 8.17582997,1.5972572 C8.33942693,1.03144277 8.72298749,0.554809272 9.24071429,0.273973214 C10.3134161,-0.315181966 11.6605993,0.0756947126 12.2513839,1.1475 C14.6495982,5.50450893 12.1390625,9.1428125 11.0629018,10.6895089 C10.6150435,11.3394425 9.85446581,11.7010713 9.06767857,11.6381696 C6.51464286,11.4378125 4.99223214,9.85848214 3.87964286,8.70339286 C3.05241071,7.84808036 2.55834821,7.35705357 1.97625,7.29633929 C1.08164815,7.19733054 0.335457844,6.56776058 0.0872767857,5.70258929" id="Path_302"></path>
                </g>
                <g id="Group_103" transform="translate(36.250223, 1.244643)">
                    <path d="M0.911473214,11.2579464 C0.314225627,10.8237019 -0.0275923039,10.12058 -0.000183082966,9.38266284 C0.027226138,8.6447457 0.420263779,7.96891924 1.04808036,7.58017857 C2.93401786,6.41294643 4.84272321,6.68236607 6.37272321,6.89714286 C6.91861336,6.99103565 7.4710507,7.04178782 8.02491071,7.04892857 C7.74183036,5.50982143 7.150625,4.7546875 5.95303571,4.25455357 C5.40921144,4.02762644 4.97909995,3.59209819 4.75899632,3.0454766 C4.53889269,2.49885502 4.54718219,1.88679943 4.78200893,1.34633929 C5.0130407,0.804554034 5.45018011,0.376980169 5.99694354,0.157990022 C6.54370698,-0.0610001253 7.1551418,-0.053402082 7.69629464,0.179107143 C12.2688393,2.13486607 12.5291518,6.54955357 12.6323661,8.43397321 C12.6787798,9.22056232 12.3028785,9.97236503 11.6457589,10.4071875 C9.51089286,11.8233482 7.33732143,11.5137054 5.748125,11.2898214 C4.56875,11.1228571 3.87736607,11.0439286 3.38330357,11.3505357 C2.61690802,11.8241161 1.64029231,11.7875342 0.911473214,11.2579464" id="Path_303"></path>
                </g>
                <g id="Group_104" transform="translate(35.727321, -0.000759)">
                    <path d="M1.35089286,3.346875 C2.04477671,2.26513978 2.91133099,1.30449513 3.91607143,0.503169643 C4.52871014,0.00168161193 5.36241596,-0.135103015 6.10313996,0.14465404 C6.84386396,0.424411095 7.37907255,1.07808883 7.50715783,1.85945316 C7.63524311,2.64081749 7.33674587,3.43116059 6.72410714,3.93276786 C4.40178571,5.83995536 3.89178571,7.9103125 5.04383929,10.6394196 C5.50469451,11.7655572 4.97309654,13.05281 3.85192406,13.5256161 C2.73075159,13.9984222 1.43791784,13.4805448 0.953214286,12.3644643 C-0.441696429,9.0471875 -0.295982143,5.98946429 1.35316964,3.346875" id="Path_304"></path>
                </g>
                <g id="Group_105" transform="translate(71.415179, 50.096875)">
                    <path d="M13.1104911,11.8104464 C12.2255804,12.9450446 10.1119643,13.0141071 8.80205357,13.0080357 C7.88299107,13.0019643 6.96165179,13.2144643 6.09723214,12.8744643 C5.04839286,12.4593304 3.98361607,12.1223661 2.95602679,11.6525893 C2.4860343,11.4223321 2.00304594,11.2196088 1.50950893,11.0454464 C0.524053409,10.7141963 -0.0986510807,9.74242384 0.0121428571,8.70870536 C0.291428571,6.03120536 0.821919643,1.04352679 6.53133929,0.0341517857 C7.22896825,-0.0917816248 7.94454717,0.126027829 8.45370536,0.619285714 C9.10775784,1.25615503 9.61556606,2.02757814 9.94196429,2.88013393 C10.2242857,3.59276786 10.1180357,4.36611607 10.4906696,5.05142857 C10.6151339,5.27910714 10.7942411,5.37549107 10.9391964,5.58267857 C11.06141,5.86548908 11.1608916,6.15758928 11.2366964,6.45620536 C11.6105402,7.35413074 12.1696548,8.16306247 12.8775,8.83013393 C13.5383046,9.45205583 13.7564637,10.412316 13.4292411,11.2587054 C13.3495434,11.4567312 13.2422299,11.6424856 13.1104911,11.8104464 Z M4.64236607,7.54450893 C4.69700893,7.57183036 4.75165179,7.59308036 4.80933036,7.62040179 L4.80933036,7.62040179 C5.28214286,7.83897321 5.64415179,8.12053571 6.09950893,7.91790179 C6.56625,8.01504464 7.26674107,8.63053571 7.71526786,8.32089286 C7.47320836,7.76985794 7.31683269,7.18504875 7.2515625,6.58674107 C7.17517179,6.26483134 7.05811494,5.95395488 6.90321429,5.66160714 C6.54879464,5.00361607 6.21486607,4.18169643 5.61758929,5.0096875 C5.10693599,5.7710829 4.77343416,6.63725407 4.64160714,7.54450893" id="Path_305"></path>
                </g>
            </g>
        </g>
    </g>
</svg>