<?xml version="1.0" encoding="UTF-8"?>
<svg width="41px" height="40px" viewBox="0 0 41 40" version="1.1" xmlns="http://www.w3.org/2000/svg" xmlns:xlink="http://www.w3.org/1999/xlink">
    <title>Group</title>
    <g id="Page-1" stroke="none" stroke-width="1" fill="none" fill-rule="evenodd">
        <g id="Group" transform="translate(1.647000, 0.262000)" fill="#E0CC6B" fill-rule="nonzero" stroke="#E0CC6B">
            <g id="Group_421" transform="translate(0.000000, 0.000000)">
                <path d="M0,20 C0.456,14.393 2.049,9.992 5.337,6.565 C8.40149975,3.55167353 12.3611807,1.61429331 16.621,1.044 C22.4079002,-0.119879276 28.3918629,1.70850158 32.54,5.908 C38.3680477,11.4647912 39.9959083,20.1229648 36.584,27.417 C33.736,33.953 28.43,37.074 21.756,38.069 C16.3589608,38.9019944 10.8623667,37.3999483 6.639,33.938 C4.02041351,31.8252448 2.17161406,28.9079377 1.379,25.638 C0.828,23.52 0.337,21.386 0,20 M36.978,19.975 L37.3,19.9 C36.819,17.771 36.457,15.607 35.836,13.521 C33.486,5.636 25.636,1.842 19.184,2.036 C15.455,2.148 12.184,3.823 8.911,5.428 C6.83713056,6.43831826 5.14359783,8.08942501 4.081,10.137 C1.5,15.119 0.31,20.233 2.678,25.827 C4.606,30.381 7.478,33.697 12.148,35.381 C12.585,35.538 13.009,35.739 13.456,35.857 C15.691,36.448 17.891,37.396 20.266,37.007 C24.3502256,36.4316175 28.2233504,34.8353852 31.527,32.366 C32.8616676,31.3842429 33.9742221,30.1319801 34.792,28.691 C36.1480712,25.9800334 36.8942045,23.0050573 36.978,19.975" id="Path_681"></path>
            </g>
            <g id="Group_422" transform="translate(7.919000, 10.838000)">
                <path d="M0,16 L4.963,14.616 C4.005,13.816 3.173,13.184 2.424,12.466 C2.12564444,12.0930598 1.87876774,11.6817108 1.69,11.243 L3.039,10.631 C2.3,9.522 1.49,8.343 0.739,7.125 C0.556,6.828 0.408,6.3 0.553,6.068 C0.698,5.836 1.227,5.845 1.616,5.741 C1.622,3.978 0.286,2.028 2.003,0.256 C4.547,2.9 7.082,5.2 10.791,5.288 C10.9323535,4.3923449 11.1700663,3.5145843 11.5,2.67 C12.1221705,1.44131645 13.2362409,0.534141071 14.5654943,0.173801284 C15.8947478,-0.186538503 17.3144608,0.0337678951 18.472,0.78 C19.2933077,1.44036026 20.4374246,1.52395962 21.346,0.99 C21.3782125,0.968238554 21.4146868,0.953580641 21.453,0.947 C22.0256667,0.899 22.599,0.852666667 23.173,0.808 C22.955,1.308 22.746,1.808 22.512,2.296 C22.4038157,2.48934194 22.2811309,2.67420489 22.145,2.849 C22.215,2.949 22.245,3.03 22.3,3.049 C22.764,3.224 23.233,3.386 23.7,3.549 C23.3700756,3.89502877 23.0070038,4.20785998 22.616,4.483 C22.0008918,4.80436968 21.5856567,5.41035809 21.508,6.1 C20.8308718,9.94997602 18.815681,13.4370707 15.818,15.946 C12.3,18.971 5.443,19.686 1.46,17.394 C0.921323449,16.9870506 0.431415294,16.519289 0,16 M1.972,7.4 C1.896,7.489 1.82,7.579 1.743,7.668 L5.243,11.168 L3.157,11.568 L2.984,11.893 L6.69,14.15 C5.89,14.65 5.152,15.17 4.354,15.565 C3.512,15.981 2.609,16.272 1.545,16.691 C5.1,18.1 8.448,18.365 11.84,16.853 C16.4,14.821 19.484,11.561 20.471,6.553 C20.684,5.474 20.688,4.327 22.219,3.965 C20.704,3.341 20.704,3.341 21.793,1.533 C20.158,2.727 19.041,1.962 17.768,1.364 C14.699,-0.077 11.94,1.964 12.168,5.335 C12.185,5.592 11.735,6.135 11.585,6.111 C9.87372833,5.92412197 8.19164033,5.52920572 6.576,4.935 C4.95306608,4.00642156 3.41806134,2.93198519 1.99,1.725 C1.808,3.793 2.829,5.425 4.152,7.237 L1.972,7.4" id="Path_682"></path>
            </g>
        </g>
    </g>
</svg>