<svg xmlns="http://www.w3.org/2000/svg" xmlns:xlink="http://www.w3.org/1999/xlink" width="120.084" height="99.256" viewBox="0 0 120.084 99.256">
  <defs>
    <clipPath id="clip-path">
      <path id="Path_42" data-name="Path 42" d="M0,76.182H120.084V-23.074H0Z" transform="translate(0 23.074)" fill="#255684"/>
    </clipPath>
  </defs>
  <g id="Group_27" data-name="Group 27" transform="translate(0 23.074)">
    <g id="Group_26" data-name="Group 26" transform="translate(0 -23.074)" clip-path="url(#clip-path)">
      <g id="Group_22" data-name="Group 22" transform="translate(0 10.496)">
        <path id="Path_38" data-name="Path 38" d="M68.578,68.126a3.135,3.135,0,0,1-2.125-.826c-2.826-2.594-2.783-5.893-2.753-8.078a8.872,8.872,0,0,0-.112-2.164c-1.858-.379-3.712-.611-5.562-.847-4.018-.508-8.177-1.032-12.341-2.9C31.137,46.794,20.929,35.231,14.464,17.952,11.586,10.295,8.351,4.733,1.877,2.475-1.788,1.206-6.223.745-12.081,1.046-15.2,1.214-17.39.5-18.912-1.113c-1.48-1.557-2.082-3.8-1.785-6.668a19.142,19.142,0,0,0-.009-2.327c-.129-3.136-.387-9.657,7.476-10.246,10.776-.809,22.016-.366,31.3,8.246,9.79,9.076,14.987,21,18.42,30.374C40.42,29.02,53.639,36.625,64.513,34.659c-.009-.3-.022-.632-.039-.9-.1-2.237-.3-6.388,4.534-8.577a3.144,3.144,0,0,1,3.17.34c2.538,1.884,5.231,3.592,7.949,5.308,5.317,3.368,10.81,6.848,15.417,11.765a3.064,3.064,0,0,1,2.77,1.441,3.145,3.145,0,0,1-.946,4.345,108.79,108.79,0,0,0-10.178,7.747c-5.278,4.336-10.728,8.827-17.348,11.739a3.159,3.159,0,0,1-1.265.262M-8.756-5.333A39.057,39.057,0,0,1,3.938-3.466C13.251-.223,17.329,7.684,20.344,15.745,26.28,31.588,35.142,41.7,48.253,47.564c3.317,1.488,6.835,1.936,10.565,2.409a68.7,68.7,0,0,1,7.351,1.213,3.108,3.108,0,0,1,1.394.74c2.5,2.293,2.461,5.235,2.426,7.386,0,.585,0,1.067.013,1.475,4.68-2.521,8.836-5.936,13.189-9.519,2.194-1.807,4.431-3.648,6.775-5.394-3.859-3.811-8.414-6.7-13.206-9.735-2.039-1.29-4.065-2.577-6.031-3.927-.009.31,0,.71.03,1.243A8.353,8.353,0,0,1,69.507,39.2a3.179,3.179,0,0,1-1.691,1.157C53.6,44.295,35.83,34.784,30.582,20.43,27.39,11.719,22.6.668,13.793-7.5,6.687-14.087-1.96-14.9-12.761-14.087c-1.7.129-1.8.138-1.66,3.725a22.7,22.7,0,0,1-.026,3.209,3.157,3.157,0,0,0,.108,1.716s.366.275,1.944.2c1.088-.056,2.319-.1,3.639-.1" transform="translate(20.771 20.634)" fill="#255684"/>
      </g>
      <g id="Group_23" data-name="Group 23" transform="translate(0.061 50.161)">
        <path id="Path_39" data-name="Path 39" d="M11.98,29.98A33.332,33.332,0,0,1-1.781,27.153a3.145,3.145,0,0,1-1.845-2.865V20.675C-3.691,9.685-2.37,8.222,8.164,7.624c6.805-.383,12.1-1.51,16.776-5.794a17.348,17.348,0,0,0,3.084-4.319,20.885,20.885,0,0,1,4.409-5.842,3.146,3.146,0,0,1,4.435.357,3.152,3.152,0,0,1-.357,4.435A15.27,15.27,0,0,0,33.479.651a23.014,23.014,0,0,1-4.289,5.82c-6.405,5.867-13.58,7.029-20.372,7.416-2.809.159-5.4.305-5.971.654a37.726,37.726,0,0,0-.185,6.1v1.523C15.176,26.6,32.15,21.019,38.641,9.977a11.99,11.99,0,0,1,2.62-2.908c.3-.258.6-.516.873-.791a3.145,3.145,0,0,1,4.448,4.448c-.37.37-.774.727-1.174,1.08a7.716,7.716,0,0,0-1.346,1.359C37.932,23.6,24.713,29.98,11.98,29.98" transform="translate(3.629 9.08)" fill="#255684"/>
      </g>
      <g id="Group_24" data-name="Group 24" transform="translate(50.976 0.001)">
        <path id="Path_40" data-name="Path 40" d="M2.414,38.369A3.143,3.143,0,0,1-.33,33.693C7.753,19.214,19.9,13.063,35.743,15.416A3.144,3.144,0,0,1,38.178,17.3,13.1,13.1,0,0,1,39,22.548a10.271,10.271,0,0,0,.206,2.529,169.048,169.048,0,0,0,20.7-14.57L35.257-5.856a3.141,3.141,0,0,1-.882-4.358,3.146,3.146,0,0,1,4.362-.882L66.973,7.651a3.147,3.147,0,0,1,.228,5.076C57.978,20.122,49.573,26.664,40.058,31.8a3.155,3.155,0,0,1-3.187-.12c-4.1-2.624-4.138-6.5-4.168-9.068,0-.426,0-.843-.022-1.235C20.451,20.2,11.654,25.129,5.159,36.756a3.138,3.138,0,0,1-2.744,1.613" transform="translate(0.731 11.621)" fill="#255684"/>
      </g>
      <g id="Group_25" data-name="Group 25" transform="translate(42.616 2.282)">
        <path id="Path_41" data-name="Path 41" d="M2.415,24.66A3.145,3.145,0,0,1-.351,20.014C9.207,2.437,26.4,1.078,41.573-.122l.254-.022c0-.2,0-.447-.013-.748A7.37,7.37,0,0,1,43.366-6.4a3.154,3.154,0,0,1,4.444-.293,3.154,3.154,0,0,1,.314,4.409A6.909,6.909,0,0,0,48.1-1.09a8.022,8.022,0,0,1-1.738,6,3.143,3.143,0,0,1-2.112,1.071l-2.181.172C27.175,7.328,13.1,8.438,5.177,23.016A3.14,3.14,0,0,1,2.415,24.66" transform="translate(0.731 7.469)" fill="#255684"/>
      </g>
    </g>
  </g>
</svg>
