<?xml version="1.0" encoding="UTF-8"?>
<svg width="41px" height="41px" viewBox="0 0 41 41" version="1.1" xmlns="http://www.w3.org/2000/svg" xmlns:xlink="http://www.w3.org/1999/xlink">
    <title>Group</title>
    <g id="Page-1" stroke="none" stroke-width="1" fill="none" fill-rule="evenodd">
        <g id="Group" transform="translate(0.007000, 1.872000)">
            <g id="Group-446" transform="translate(25.993000, 21.128000)"></g>
            <g id="Group_445" transform="translate(25.993000, 21.282000)"></g>
            <g id="Group_430" fill="#E0CC6B" fill-rule="nonzero" stroke="#E0CC6B">
                <path d="M1,21 C0.976,16.782 2.567,13.049 4.352,9.334 C5.68470626,6.43528563 7.95079755,4.06708644 10.788,2.608 C17.123,-0.665 23.378,-0.667 29.432,3.335 C34.615,6.761 37.186,11.856 38.405,17.748 C39.0447471,20.302774 39.0789898,22.9716533 38.505,25.542 C38.0380626,27.7032241 37.0157828,29.7053898 35.539,31.351 C30.232,36.866 23.892,39.36 16.139,37.851 C10.681,36.785 6.339,34.173 3.383,29.458 C1.75164081,26.9445122 0.920754811,23.9954422 1,21 M19.966,37.082 C23.6198761,37.0804831 27.2028017,36.0730015 30.322,34.17 C35.127091,31.5691411 38.0506192,26.4769681 37.874,21.016 C37.8295624,16.0557741 35.9508936,11.287503 32.6,7.63 C29.7,4.56 26.406,2.212 22,1.557 C14.8916273,0.282311973 7.84374175,4.08070772 5,10.719 C3.92240082,13.1540507 3.12527715,15.7037729 2.624,18.319 C1.818,22.251 1.934,26.052 4.579,29.535 C8.497,34.693 13.76,36.794 19.966,37.082" id="Path_690"></path>
            </g>
            <g id="Group_432" transform="translate(6.569000, 15.637000)" fill="#E0CC6B" fill-rule="nonzero" stroke="#E0CC6B">
                <path d="M14,18 C10.955,17.878 7.905,17.826 4.867,17.606 C3.1074493,17.577505 1.55155046,16.4568588 0.967,14.797 C0.497504583,13.4956725 0.224180666,12.1317491 0.156,10.75 C0.127865751,8.8185774 0.218704352,6.88725522 0.428,4.967 C0.687,2.012 2.956,0.067 6.439,0.098 C11.264,0.141 16.09,0.35 20.909,0.598 C24.132,0.764 25.547,2.075 25.796,5.289 C26.0404991,7.89628054 26.0404991,10.5207195 25.796,13.128 C25.463,16.093 23.8,17.589 20.374,17.618 C18.251,17.636 16.128,17.618 14.005,17.618 C14,17.747 14,17.874 14,18 M2.077,3.812 C1.941,3.994 1.82,4.08 1.817,4.171 C1.708,7.09 1.478,10.013 1.564,12.927 C1.612,14.532 4.064,16.751 5.477,16.736 C10.525,16.685 15.577,17.269 20.621,16.546 C22.866,16.224 24.421,15.212 24.704,12.983 C25.0747651,10.4728577 25.1107459,7.92460981 24.811,5.405 C24.463,3.013 24.034,1.611 20.863,1.852 C20.6701867,1.84517398 20.4780689,1.8251269 20.288,1.792 C15.9,1.515 11.511,1.2 7.119,0.983 C5.55348055,0.936163513 4.02684942,1.47535208 2.838,2.495 C3.80072921,2.6033659 4.76926287,2.65179259 5.738,2.64 C7.772,2.684 7.772,2.692 7.969,4.875 L6.211,5.086 C6.011,7.968 5.811,10.773 5.626,13.579 C5.585,14.21 5.383,14.714 4.678,14.538 C4.059,14.384 3.21,14.529 3.259,13.319 C3.368,10.633 3.293,7.939 3.293,5.154 L2.181,4.884 C2.148,4.544 2.118,4.228 2.081,3.812 M4.281,13.756 L4.566,13.774 C4.64438549,13.5379156 4.69964515,13.2947731 4.731,13.048 C4.81,10.891 4.885,8.733 4.931,6.575 C4.975,4.645 4.96,4.645 6.715,3.993 C6.755,3.978 6.756,3.863 6.8,3.709 C5.845,3.618 4.9,3.585 3.971,3.423 C3.001,3.253 3.071,3.735 3.171,4.366 L4.282,4.566 L4.281,13.756 Z" id="Path_692"></path>
            </g>
            <g id="Group_433" transform="translate(11.097000, 2.988000)" fill="#E0CC6B" fill-rule="nonzero" stroke="#E0CC6B">
                <path d="M4,3 C4.917,0.865 5.209,0.677 7.1,1.043 C6.86063148,1.95654144 6.55994978,2.85290699 6.2,3.726 C5.34503042,5.59346969 5.06917031,7.67426298 5.408,9.7 C5.653,11.68 5.3,11.992 3.35,11.593 C3.06,11.534 2.85,11.087 2.606,10.815 C2.587,10.793 2.6,10.74 2.6,10.7 C2.619,7.765 2.468,4.865 1.089,2.17 C0.841,1.683 0.529,0.988 1.457,0.811 C2.189,0.672 3.09,0.222 3.436,1.44 C3.572,1.917 3.771,2.375 4,3 M3.644,10.895 L4.275,10.8 C4.1438562,9.24157578 4.16629754,7.67403134 4.342,6.12 C4.79084392,4.60512057 5.38458657,3.13700564 6.115,1.736 L5.705,1.536 C5.48506803,1.79692363 5.29302373,2.08013031 5.132,2.381 C4.895,2.944 4.758,3.554 4.519,4.12 C4.413,4.371 4.11,4.766 3.983,4.735 C3.67377581,4.65209175 3.41360805,4.44308668 3.266,4.159 C3.012,3.517 2.911,2.817 2.677,2.165 C2.52218737,1.87544453 2.32688968,1.60943561 2.097,1.375 L1.603,1.624 C3.8,4.377 3.259,7.739 3.644,10.895" id="Path_693"></path>
            </g>
            <g id="Group_434" transform="translate(23.085000, 6.347000)" fill="#E0CC6B" fill-rule="nonzero" stroke="#E0CC6B">
                <path d="M5,0 C5,2.8 5.013,5.419 4.976,8.036 C4.976,8.249 4.666,8.559 4.435,8.643 C4.03980526,8.79552134 3.61506864,8.85605144 3.193,8.82 C0.205,8.459 0.261,8.889 0.173,5.385 C0.132,3.732 0.166,2.076 0.166,0.413 C1.854,-0.12 2.105,0.057 2.172,1.777 C2.225,3.142 2.314,4.506 2.388,5.871 L2.715,5.86 L2.715,0.149 L5,0 M4.051,0.83 L3.767,0.808 C3.743,1.197 3.706,1.586 3.698,1.976 C3.675,3.092 3.698,4.211 3.63,5.324 C3.60176112,5.73981807 3.45226567,6.13824085 3.2,6.47 C2.95717815,6.78060939 2.59898656,6.97972495 2.207,7.022 C1.994,7.022 1.657,6.512 1.607,6.196 C1.469,5.287 1.444,4.36 1.386,3.439 C1.337,2.654 1.305,1.869 1.265,1.084 C1.14,3.113 1.094,5.123 1.165,7.129 C1.191,7.88 1.823,8.093 2.526,8.016 C3.009,7.964 3.493,7.924 4.046,7.873 L4.051,0.83 Z" id="Path_694"></path>
            </g>
            <g id="Group_435" transform="translate(17.480000, 5.556000)" fill="#E0CC6B" fill-rule="nonzero" stroke="#E0CC6B">
                <path d="M0,5 C0.0130182511,4.33613788 0.0684646637,3.67378706 0.166,3.017 C0.246804915,1.78685658 1.3076156,0.853951403 2.538,0.931 C3.074,0.943 4.005,1.431 4.056,1.807 C4.37332188,3.76587983 4.50457354,5.75039147 4.448,7.734 C4.382,9.006 3.3,9.567 1.985,9.456 C0.81,9.356 0.336,8.549 0.181,7.516 C0.073,6.793 0.071,6.055 0,5 M3.906,5.758 C3.81022005,4.72917588 3.64754249,3.7076811 3.419,2.7 C3.292,2.249 2.658,1.563 2.38,1.618 C1.88,1.718 1.129,2.279 1.108,2.68 C1.02863649,4.39577921 1.0804539,6.11511424 1.263,7.823 C1.46971108,8.28906254 1.90673187,8.61169789 2.413,8.672 C2.94203622,8.55302355 3.39022683,8.20386032 3.635,7.72 C3.82060453,7.08273114 3.91190612,6.42172114 3.906,5.758" id="Path_695"></path>
            </g>
            <g id="Group_436" transform="translate(18.386000, 6.313000)" fill="#E0CC6B" fill-rule="nonzero" stroke="#E0CC6B">
                <path d="M3,5 C3.00530379,5.66401073 2.91401519,6.32526357 2.729,6.963 C2.48537716,7.44877392 2.0370068,7.79991176 1.507,7.92 C1.00074103,7.85906882 0.563696412,7.5366962 0.356,7.071 C0.173147503,5.36313789 0.12099585,3.64380488 0.2,1.928 C0.221,1.528 0.977,0.964 1.472,0.865 C1.75,0.81 2.384,1.497 2.511,1.947 C2.7400013,2.95299189 2.9033459,3.97281002 3,5 M2.5,4.724 C2.52444594,4.03956757 2.4690727,3.35461735 2.335,2.683 C2.13739807,2.30914453 1.77264477,2.05259022 1.354,1.993 C1.061,1.973 0.48,2.393 0.469,2.641 C0.409593655,3.93520843 0.445356591,5.23203264 0.576,6.521 C0.608,6.821 1.253,7.355 1.454,7.289 C1.88002414,7.1143361 2.21286251,6.76843101 2.371,6.336 C2.48419277,5.806603 2.52756159,5.26466084 2.5,4.724" id="Path_696"></path>
            </g>
            <g id="Group_439" transform="translate(13.231000, 20.169000)" fill="#E0CC6B" fill-rule="nonzero" stroke="#E0CC6B">
                <path d="M3,7 L3,0.761 L5.283,0.937 C5.283,3.772 5.3,6.463 5.255,9.153 C5.17567798,9.47445178 4.9377188,9.73315225 4.624,9.839 C3.77450042,9.94926781 2.91862081,10.0030526 2.062,10 C1.64414498,10.0341307 1.2317079,9.88748057 0.929199937,9.59721061 C0.626691974,9.30694064 0.463144392,8.90090764 0.48,8.482 C0.44,6.096 0.523,3.706 0.655,1.323 C0.667,1.107 1.366,0.83 1.777,0.76 C2.345,0.66 2.721,0.93 2.693,1.613 C2.637,2.961 2.614,4.31 2.6,5.659 C2.6,6.107 2.661,6.559 2.695,7.006 L3,7 M1.827,1.634 L1.365,1.675 C1.365,3.935 1.333,6.195 1.385,8.453 C1.4,9.112 1.963,9.384 2.425,8.901 C3.169,8.123 3.71,8.256 4.295,9.248 L4.295,1.616 C4.03854401,1.88417733 3.90241468,2.24526309 3.918,2.616 C3.887,3.7 3.881,4.778 3.849,5.858 C3.841,6.126 3.769,6.391 3.737,6.658 C3.654,7.36 3.432,8.091 2.6,7.9 C2.264,7.829 1.888,7.061 1.862,6.59 C1.771,4.942 1.827,3.29 1.827,1.634" id="Path_699"></path>
            </g>
            <g id="Group_440" transform="translate(18.934000, 18.163000)" fill="#E0CC6B" fill-rule="nonzero" stroke="#E0CC6B">
                <path d="M3,3 C5.141,2.949 5.428,3.1 5.6,5.143 C5.75567375,6.9009992 5.75333103,8.66941943 5.593,10.427 C5.467,11.727 4.664,12.151 3.374,12.053 C2.926,12.019 2.474,12.077 2.021,12.083 C1.568,12.089 1.112,12.083 0.521,12.083 C0.592,11.257 0.697,10.545 0.707,9.832 C0.75,7.017 0.787,4.202 0.773,1.387 C0.773,0.65 0.873,0.154 1.742,0.217 C2.486,0.27 3.142,0.398 3.014,1.417 C2.97722186,1.94389396 2.97254655,2.47253797 3,3 M2.1,0.978 L1.618,1 L1.618,11.007 C1.925,10.977 2.371,10.788 2.651,10.93 C3.867,11.546 4.507,11.307 4.614,9.966 C4.70668144,8.61973268 4.72737759,7.2694754 4.676,5.921 C4.625,4.029 4.594,4.032 2.781,4.3 C2.6271595,4.28948831 2.47544932,4.2582044 2.33,4.207 C2.256,3.146 2.18,2.062 2.1,0.978" id="Path_700"></path>
            </g>
            <g id="Group_441" transform="translate(24.534000, 20.854000)" fill="#E0CC6B" fill-rule="nonzero" stroke="#E0CC6B">
                <path d="M5,5 C4.92734864,4.12740385 4.7919991,3.26116682 4.595,2.408 C4.51280357,1.97666664 4.23024505,1.61019455 3.834,1.421 C3.35432941,1.33363729 2.8599593,1.45034343 2.47,1.743 C1.2,2.817 1.244,6.684 2.554,7.724 C3.00072361,8.06573159 3.56974637,8.20563145 4.124,8.11 C4.5,8 4.713,7.318 4.946,6.967 C4.276,7.167 3.656,7.576 3.159,7.46 C2.07,7.2 2.189,6.16 2.054,5.146 C2.912,5.088 4.072,5.063 5,5 M0.605,4.778 C0.718616971,3.90271492 0.889652429,3.03584575 1.117,2.183 C1.31780763,1.14690725 2.26497026,0.427063656 3.317,0.511 C4.644,0.608 5.4,1.093 5.535,2.427 C5.587,2.951 5.617,3.477 5.63,4 C5.637,4.264 5.639,4.529 5.638,4.793 C5.638,4.925 5.638,5.057 5.638,5.193 C5.638,5.257 5.663,5.393 5.625,5.449 C5.568,5.525 5.383,5.524 5.3,5.548 C5.16,5.588 5.023,5.63 4.882,5.659 C4.454,5.749 4.034,5.787 3.6,5.838 C3.42440184,5.86451975 3.24745968,5.88121241 3.07,5.888 C2.963,5.888 2.948,5.875 2.927,5.97 C2.91079168,6.09096201 2.92033355,6.21398396 2.955,6.331 C3.029,6.61 3.226,6.66 3.479,6.725 C3.74051477,6.80191476 4.0159841,6.81900343 4.285,6.775 C4.45603252,6.73873464 4.62148276,6.67988547 4.777,6.6 C4.892,6.542 5.031,6.517 5.139,6.456 C5.31059051,6.36341999 5.49077034,6.28773106 5.677,6.23 C5.66819972,6.37224558 5.64234795,6.51291951 5.6,6.649 C5.59199607,6.78688394 5.59199607,6.92511606 5.6,7.063 C5.60400033,7.13627878 5.60400033,7.20972122 5.6,7.283 C5.59475834,7.3303572 5.57792899,7.3756934 5.551,7.415 C5.48940587,7.60238778 5.44423548,7.79478019 5.416,7.99 C5.35972567,8.15660097 5.27736801,8.31321553 5.172,8.454 C4.95434789,8.73884309 4.65451305,8.95001897 4.313,9.059 C4.09524989,9.1293127 3.8687043,9.1686973 3.64,9.176 L3.64,9.176 C2.6000944,9.37005893 1.58181536,8.74648177 1.282,7.732 C0.99,6.743 0.816,5.719 0.605,4.778" id="Path_701"></path>
            </g>
            <g id="Group_442" transform="translate(18.964000, 9.231000)" fill="#E0CC6B" fill-rule="nonzero" stroke="#E0CC6B">
                <polygon id="Path_702" points="1 0 1.144 3.248 0.804 3.273 0.804 0.023"></polygon>
            </g>
            <g id="Group_443" transform="translate(20.114000, 22.548000)" fill="#E0CC6B" fill-rule="nonzero" stroke="#E0CC6B">
                <path d="M1,3 C0.958751925,2.46702285 0.967456519,1.93135553 1.026,1.4 C1.16386704,1.04214734 1.36169774,0.710400467 1.611,0.419 C2.042,0.712 2.811,0.967 2.845,1.304 C2.97916673,2.6269192 2.98686826,3.95961854 2.868,5.284 C2.842,5.611 2.261,5.895 1.936,6.199 C1.6,5.82 1.086,5.49 0.976,5.058 C0.879656619,4.37615554 0.865555638,3.68520747 0.934,3 L1,3 M1.833,5.2 L2.151,5.2 L2.151,1.344 L1.833,1.344 L1.833,5.2 Z" id="Path_703"></path>
            </g>
            <g id="Group_444" transform="translate(25.996000, 22.070000)" fill="#E0CC6B" fill-rule="nonzero" stroke="#E0CC6B">
                <path d="M3,3 C2.17576415,2.9296712 1.34570748,2.97748785 0.535,3.142 C0.573621797,2.34909503 0.858117029,1.58787806 1.349,0.964 C1.66093547,0.797500915 2.03476423,0.794884114 2.349,0.957 C2.77512844,1.55275375 3.00289397,2.26753867 3,3" id="Path_704"></path>
            </g>
        </g>
    </g>
</svg>