<?xml version="1.0" encoding="UTF-8"?>
<svg width="369px" height="104px" viewBox="0 0 369 104" version="1.1" xmlns="http://www.w3.org/2000/svg" xmlns:xlink="http://www.w3.org/1999/xlink">
    <title>logo</title>
    <defs>
        <rect id="path-1" x="0" y="0.122" width="368.1" height="103.878"></rect>
        <rect id="path-3" x="0" y="0.122" width="368.1" height="103.878"></rect>
        <rect id="path-5" x="0" y="0.122" width="368.1" height="103.878"></rect>
        <rect id="path-7" x="0" y="0.122" width="368.1" height="103.878"></rect>
    </defs>
    <g id="Page-1" stroke="none" stroke-width="1" fill="none" fill-rule="evenodd">
        <g id="logo">
            <g id="Group">
                <g id="Clipped">
                    <mask id="mask-2" fill="white">
                        <use xlink:href="#path-1"></use>
                    </mask>
                    <g id="SVGID_1_"></g>
                    <path d="M38.105,63.461 C39.777,64.571 42.019,64.94 44.255,64.469 C46.734,63.948 48.917,62.464 50.09,60.504 C50.09,60.504 53.501,54.779 53.588,54.608 C59.564,44.507 72.098,24.397 72.153,24.296 C73.222,22.426 73.618,21.712 74.486,20.412 C75.873,18.337 77.162,17.58 78.42,17.58 C79.44,17.58 81.524,17.558 82.976,17.58 C84.463,17.602 85.498,18.519 86.308,19.68 C89.654,24.483 92.777,29.438 95.916,34.377 C97.351,36.529 98.666,38.759 100.125,40.898 C101.417,42.793 102.831,44.804 103.027,47.159 C103.112,48.305 103.008,49.47 102.623,50.556 C102.269,51.551 101.688,52.45 101.102,53.322 C100.496,54.224 99.953,55.174 99.392,56.105 C98.046,58.342 96.728,60.599 95.409,62.853 C92.186,68.353 88.186,75.182 82.243,84.737 C82.112,84.946 81.974,85.152 81.836,85.355 C81.336,86.088 80.395,86.542 79.507,86.542 L77.622,86.542 C72.719,86.542 69.879,90.542 69.976,95.442 C70.071,100.185 73.945,104 78.71,104 C78.71,104 84.506,103.998 86.006,103.979 C87.062,103.963 88.302,103.636 89.171,102.96 C90.567,101.872 90.926,101.498 91.725,100.574 C91.903,100.367 92.071,100.151 92.227,99.927 L94.134,97.198 C94.258,97.022 94.376,96.844 94.488,96.661 L119.184,57 C121.626,53.407 122.489,49.085 121.704,45.037 C121.4,43.383 120.884,41.787 120.145,40.343 C120.013,40.085 119.862,39.838 119.705,39.596 L97.94,6.235 C95.793,2.402 91.813,0.121999671 87.548,0.121999671 L73.32,0.121999671 C72.94,0.13 72.576,0.147 72.225,0.172 C68.835,0.474 65.715,2.218 63.673,5.024 C63.466,5.323 63.262,5.633 63.059,5.954 C63.003,6.047 62.949,6.14 62.895,6.236 L62.895,6.215 C62.891,6.222 62.886,6.229 62.882,6.236 L37.575,48.88 C37.466,49.067 35.637,52.156 35.637,52.156 C34.853,53.466 34.439,54.969 34.439,56.504 C34.44,59.335 35.81,61.936 38.105,63.461 L38.105,63.461 Z" id="Path" fill="#AC8D6C" fill-rule="nonzero" mask="url(#mask-2)"></path>
                </g>
                <g id="Clipped">
                    <mask id="mask-4" fill="white">
                        <use xlink:href="#path-3"></use>
                    </mask>
                    <g id="SVGID_3_"></g>
                    <path d="M83.88,40.661 C82.208,39.55 79.966,39.182 77.73,39.652 C75.251,40.173 73.068,41.657 71.895,43.618 C71.895,43.618 68.484,49.342 68.397,49.514 C62.421,59.616 49.887,79.727 49.831,79.827 C48.762,81.697 48.367,82.411 47.498,83.712 C46.111,85.786 44.822,86.543 43.563,86.543 C42.543,86.543 40.459,86.564 39.008,86.543 C37.52,86.521 36.486,85.605 35.676,84.443 C32.33,79.639 29.207,74.683 26.068,69.747 C24.633,67.594 23.318,65.364 21.86,63.226 C20.568,61.331 19.153,59.32 18.957,56.965 C18.872,55.819 18.976,54.653 19.361,53.568 C19.715,52.572 20.297,51.673 20.882,50.801 C21.487,49.9 22.03,48.949 22.591,48.019 C23.937,45.781 25.255,43.525 26.575,41.271 C29.798,35.769 33.797,28.94 39.741,19.386 C39.871,19.177 40.009,18.971 40.147,18.767 C40.647,18.033 41.588,17.582 42.476,17.582 L44.361,17.582 C49.264,17.582 52.103,13.582 52.007,8.68 C51.912,3.938 48.038,0.122 43.273,0.122 C43.273,0.122 37.478,0.124 35.977,0.145 C34.922,0.16 33.682,0.486 32.813,1.163 C31.417,2.251 31.057,2.625 30.259,3.55 C30.081,3.757 29.913,3.973 29.757,4.196 L27.851,6.925 C27.727,7.101 27.609,7.279 27.497,7.462 L2.804,47.122 C0.362,50.715 -0.502,55.038 0.285,59.085 C0.587,60.74 1.104,62.335 1.843,63.779 C1.975,64.038 2.126,64.284 2.284,64.527 L24.047,97.886 C26.194,101.718 30.174,104 34.438,103.998001 L48.666,103.998001 C49.046,103.991 49.411,103.975 49.761,103.949 C53.151,103.646 56.271,101.903 58.313,99.095 C58.52,98.796 58.724,98.487 58.928,98.164 C58.983,98.071 59.038,97.977 59.092,97.883 L59.092,97.904 C59.096,97.897 59.101,97.889 59.105,97.883 L84.415,55.237 C84.523,55.053 86.352,51.962 86.352,51.962 C87.136,50.651 87.55,49.149 87.55,47.614 C87.545,44.787 86.175,42.186 83.88,40.661 L83.88,40.661 Z" id="Path" fill="#415855" fill-rule="nonzero" mask="url(#mask-4)"></path>
                </g>
            </g>
            <path d="M136.128,40.514 C136.128,29.022 145.368,19.663 156.857,19.663 C164.024,19.663 170.302,23.277 174.036,28.726 L166.809,33.76 C164.676,30.501 161.537,28.488 157.272,28.488 C150.402,28.488 145.484,33.76 145.484,40.512 C145.484,47.266 150.224,52.713 157.213,52.713 C161.537,52.713 164.677,50.697 166.81,47.382 L174.037,52.477 C170.304,57.925 164.025,61.48 156.858,61.48 C145.368,61.48 136.128,52.121 136.128,40.514 L136.128,40.514 Z" id="Path" fill="#415855" fill-rule="nonzero"></path>
            <polygon id="Path" fill="#415855" fill-rule="nonzero" points="212.185 20.196 212.185 61.006 202.886 61.006 202.886 44.896 189.44 44.896 189.44 61.006 180.141 61.006 180.141 20.196 189.44 20.196 189.44 36.544 202.886 36.544 202.886 20.196"></polygon>
            <path d="M230.907,39.327 L236.831,39.327 C240.918,39.327 242.693,36.663 242.693,33.937 C242.693,31.213 240.856,28.311 237.066,28.311 L230.906,28.311 L230.907,39.327 L230.907,39.327 Z M232.742,46.673 L230.907,46.673 L230.907,61.006 L221.607,61.006 L221.607,20.196 L238.31,20.196 C247.786,20.196 252.053,26.948 252.053,33.701 C252.053,39.445 249.031,44.48 242.456,46.139 L253,61.006 L242.16,61.006 L232.742,46.673 L232.742,46.673 Z" id="Shape" fill="#415855" fill-rule="nonzero"></path>
            <path d="M289.314,40.572 C289.314,33.759 284.636,28.427 277.824,28.427 C270.951,28.427 266.392,33.759 266.392,40.572 C266.392,47.383 270.951,52.773 277.824,52.773 C284.637,52.773 289.314,47.383 289.314,40.572 L289.314,40.572 Z M257.033,40.572 C257.033,29.021 266.215,19.662 277.885,19.662 C289.375,19.662 298.674,29.021 298.674,40.572 C298.674,52.121 289.375,61.541 277.885,61.541 C266.215,61.541 257.033,52.121 257.033,40.572 L257.033,40.572 Z" id="Shape" fill="#415855" fill-rule="nonzero"></path>
            <g id="Group">
                <g id="Clipped">
                    <mask id="mask-6" fill="white">
                        <use xlink:href="#path-5"></use>
                    </mask>
                    <g id="SVGID_5_"></g>
                    <path d="M303.534,48.924 L312.834,48.924 C312.834,51.528 315.438,53.544 318.639,53.544 C321.66,53.544 323.969,52.182 323.969,49.516 C323.969,47.916 323.081,46.438 319.469,45.25 L314.612,43.771 C305.608,41.341 303.891,35.833 303.891,31.982 C303.891,24.637 310.168,19.662 318.284,19.662 C326.102,19.662 332.086,24.342 332.086,32.278 L322.784,32.278 C322.784,29.85 321.305,27.777 318.106,27.777 C315.204,27.777 313.309,29.554 313.309,31.804 C313.309,32.633 313.545,34.47 317.336,35.536 L321.602,36.839 C327.405,38.616 333.329,41.638 333.329,49.04 C333.329,57.808 325.747,61.54 318.284,61.54 C309.575,61.541 303.534,56.445 303.534,48.924 L303.534,48.924 Z" id="Path" fill="#415855" fill-rule="nonzero" mask="url(#mask-6)"></path>
                </g>
                <g id="Clipped">
                    <mask id="mask-8" fill="white">
                        <use xlink:href="#path-7"></use>
                    </mask>
                    <g id="SVGID_7_"></g>
                    <path d="M338.309,48.924 L347.608,48.924 C347.608,51.528 350.215,53.544 353.411,53.544 C356.434,53.544 358.741,52.182 358.741,49.516 C358.741,47.916 357.856,46.438 354.241,45.25 L349.387,43.771 C340.383,41.341 338.663,35.833 338.663,31.982 C338.663,24.637 344.942,19.662 353.059,19.662 C360.876,19.662 366.858,24.342 366.858,32.278 L357.561,32.278 C357.561,29.85 356.079,27.777 352.881,27.777 C349.979,27.777 348.083,29.554 348.083,31.804 C348.083,32.633 348.317,34.47 352.108,35.536 L356.374,36.839 C362.18,38.616 368.103,41.638 368.103,49.04 C368.103,57.808 360.521,61.54 353.058,61.54 C344.35,61.541 338.309,56.445 338.309,48.924 L338.309,48.924 Z" id="Path" fill="#415855" fill-rule="nonzero" mask="url(#mask-8)"></path>
                </g>
            </g>
            <polygon id="Path" fill="#AC8D6C" fill-rule="nonzero" points="147.665 68.484 147.665 81.378 145.738 81.378 145.738 75.839 139.787 75.839 139.787 81.378 137.859 81.378 137.859 68.484 139.787 68.484 139.787 74.098 145.738 74.098 145.738 68.484"></polygon>
            <path d="M150.268,74.94 C150.268,71.272 153.112,68.316 156.78,68.316 C160.468,68.316 163.331,71.272 163.331,74.94 C163.331,78.589 160.469,81.545001 156.78,81.545001 C153.112,81.547 150.268,78.591 150.268,74.94 M161.403,74.94 C161.403,72.283 159.42,70.113 156.78,70.113 C154.162,70.113 152.195,72.283 152.195,74.94 C152.195,77.578 154.162,79.749 156.78,79.749 C159.419,79.749 161.403,77.578 161.403,74.94" id="Shape" fill="#AC8D6C" fill-rule="nonzero"></path>
            <polygon id="Path" fill="#AC8D6C" fill-rule="nonzero" points="178.772 81.378 177.629 72.021 173.793 79.955 172.146 79.955 168.272 72.021 167.131 81.378 165.222 81.378 166.794 68.484 168.516 68.484 172.952 77.766 177.387 68.484 179.108 68.484 180.681 81.378"></polygon>
            <polygon id="Path" fill="#AC8D6C" fill-rule="nonzero" points="191.332 79.619 191.332 81.378 183.432 81.378 183.432 68.484 191.162 68.484 191.162 70.243 185.341 70.243 185.341 74.153 190.414 74.153 190.414 75.933 185.341 75.933 185.341 79.619"></polygon>
            <path d="M193.222,77.616 L195.131,77.616 C195.169,78.72 196.195,79.788 197.807,79.788 C199.341,79.788 200.239,78.85 200.239,77.784 C200.239,76.642 199.213,76.1 198.163,75.821 L196.517,75.409 C193.765,74.717 193.316,73.088 193.316,72.021 C193.316,69.756 195.317,68.315 197.601,68.315 C199.922,68.315 201.737,69.775 201.737,72.116 L199.829,72.116 C199.829,70.899 198.875,70.076 197.547,70.076 C196.331,70.076 195.244,70.805 195.244,71.983 C195.244,72.394 195.378,73.254 197.005,73.668 L198.634,74.08 C200.803,74.623 202.17,75.802 202.17,77.692 C202.17,79.842 200.408,81.5460004 197.81,81.5460004 C195.055,81.547 193.222,79.693 193.222,77.616" id="Path" fill="#AC8D6C" fill-rule="nonzero"></path>
            <path d="M219.066,79.825 L219.066,81.528 L218.637,81.528 C217.384,81.508 216.279,80.965 215.979,80.125 C215.307,81.024 214.069,81.546 212.761,81.546 C210.272,81.546 208.568,79.733 208.568,77.504 C208.568,76.027 209.45,74.885 210.607,74.231 C209.841,73.725 209.244,72.752 209.244,71.613 C209.244,69.85 210.703,68.318 212.799,68.318 C214.203,68.318 215.345,68.991 216.019,70.077 L214.522,71.051 C214.167,70.451 213.567,70.115 212.819,70.115 C211.771,70.115 211.06,70.789 211.06,71.743 C211.06,72.623 211.621,73.597 213.155,73.597 L215.289,73.597 L215.289,72.08 L217.104,72.08 L217.104,73.613 L218.713,73.613 L218.713,75.092 L217.104,75.092 L217.104,77.393 C217.104,78.665 217.386,79.828 218.677,79.828 L219.066,79.825 L219.066,79.825 Z M215.286,77.392 L215.286,75.091 L213.247,75.091 C211.226,75.091 210.385,76.157 210.385,77.392 C210.385,78.743 211.377,79.749 212.818,79.749 C214.202,79.749 215.248,78.815 215.286,77.392" id="Shape" fill="#AC8D6C" fill-rule="nonzero"></path>
            <path d="M226.125,68.484 L231.14,68.484 C234.827,68.484 236.98,71.292 236.98,74.96 C236.98,78.608 234.827,81.378 231.14,81.378 L226.125,81.378 L226.125,68.484 L226.125,68.484 Z M231.139,79.619 C233.723,79.619 235.051,77.579 235.051,74.96 C235.051,72.339 233.723,70.243 231.139,70.243 L228.051,70.243 L228.051,79.619 L231.139,79.619 L231.139,79.619 Z" id="Shape" fill="#AC8D6C" fill-rule="nonzero"></path>
            <polygon id="Path" fill="#AC8D6C" fill-rule="nonzero" points="247.553 79.619 247.553 81.378 239.654 81.378 239.654 68.484 247.385 68.484 247.385 70.243 241.564 70.243 241.564 74.153 246.635 74.153 246.635 75.933 241.564 75.933 241.564 79.619"></polygon>
            <polygon id="Path" fill="#AC8D6C" fill-rule="nonzero" points="258.539 68.484 254.664 81.378 252.866 81.378 248.957 68.484 250.94 68.484 253.748 78.179 256.555 68.484"></polygon>
            <polygon id="Path" fill="#AC8D6C" fill-rule="nonzero" points="268.646 79.619 268.646 81.378 260.746 81.378 260.746 68.484 268.477 68.484 268.477 70.243 262.656 70.243 262.656 74.153 267.729 74.153 267.729 75.933 262.656 75.933 262.656 79.619"></polygon>
            <polygon id="Path" fill="#AC8D6C" fill-rule="nonzero" points="271.342 68.484 273.27 68.484 273.27 79.619 278.45 79.619 278.45 81.378 271.342 81.378"></polygon>
            <path d="M279.053,74.94 C279.053,71.272 281.897,68.316 285.565,68.316 C289.254,68.316 292.114,71.272 292.114,74.94 C292.114,78.589 289.256,81.545001 285.565,81.545001 C281.896,81.547 279.053,78.591 279.053,74.94 M290.188,74.94 C290.188,72.283 288.204,70.113 285.565,70.113 C282.946,70.113 280.981,72.283 280.981,74.94 C280.981,77.578 282.946,79.749 285.565,79.749 C288.202,79.749 290.188,77.578 290.188,74.94" id="Shape" fill="#AC8D6C" fill-rule="nonzero"></path>
            <path d="M303.829,72.563 C303.829,74.624 302.672,76.607 299.899,76.607 L296.661,76.607 L296.661,81.378 L294.735,81.378 L294.735,68.4839996 L299.899,68.4839996 C302.672,68.483 303.829,70.524 303.829,72.563 M301.904,72.563 C301.904,71.423 301.306,70.245 299.863,70.245 L296.662,70.245 L296.662,74.848 L299.789,74.848 C301.284,74.847 301.904,73.706 301.904,72.563" id="Shape" fill="#AC8D6C" fill-rule="nonzero"></path>
            <polygon id="Path" fill="#AC8D6C" fill-rule="nonzero" points="320.004 81.378 318.861 72.021 315.025 79.955 313.377 79.955 309.506 72.021 308.363 81.378 306.452 81.378 308.025 68.484 309.747 68.484 314.182 77.766 318.616 68.484 320.34 68.484 321.911 81.378"></polygon>
            <polygon id="Path" fill="#AC8D6C" fill-rule="nonzero" points="332.563 79.619 332.563 81.378 324.663 81.378 324.663 68.484 332.393 68.484 332.393 70.243 326.572 70.243 326.572 74.153 331.645 74.153 331.645 75.933 326.572 75.933 326.572 79.619"></polygon>
            <polygon id="Path" fill="#AC8D6C" fill-rule="nonzero" points="344.633 68.484 344.633 81.378 342.818 81.378 337.186 71.984 337.186 81.378 335.258 81.378 335.258 68.484 337.129 68.484 342.704 77.804 342.704 68.484"></polygon>
            <polygon id="Path" fill="#AC8D6C" fill-rule="nonzero" points="356.35 70.243 352.514 70.243 352.514 81.378 350.588 81.378 350.588 70.243 346.75 70.243 346.75 68.484 356.35 68.484"></polygon>
            <path d="M357.973,77.616 L359.883,77.616 C359.92,78.72 360.946,79.788 362.557,79.788 C364.092,79.788 364.991,78.85 364.991,77.784 C364.991,76.642 363.965,76.1 362.913,75.821 L361.268,75.409 C358.516,74.717 358.067,73.088 358.067,72.021 C358.067,69.756 360.067,68.315 362.352,68.315 C364.672,68.315 366.487,69.775 366.487,72.116 L364.579,72.116 C364.579,70.899 363.627,70.076 362.297,70.076 C361.081,70.076 359.993,70.805 359.993,71.983 C359.993,72.394 360.127,73.254 361.756,73.668 L363.383,74.08 C365.553,74.623 366.92,75.802 366.92,77.692 C366.92,79.842 365.159,81.5460004 362.559,81.5460004 C359.807,81.547 357.973,79.693 357.973,77.616" id="Path" fill="#AC8D6C" fill-rule="nonzero"></path>
        </g>
    </g>
</svg>