<svg viewBox="0 0 1920 221" xmlns="http://www.w3.org/2000/svg" preserveAspectRatio="none"><path d="M3.747 220.063L0 221V0h1920v63l-33-45-402 6-333 23-351 31-349 50-149 26-247 54-44 10-8.253 2.063c-1.615-.021-3.064.052-3.747.442 8.343-4.816 20.442-4.762 29.507-7.39 8.358-2.42 16.862-4.048 25.282-6.291 18.874-5.032 37.035-10.41 56.348-13.098 7.958-1.106 15.264-4.763 23-6.3 3.48-.69 6.96-1.605 10.463-2.135 7.098-1.076 14.027-2.105 21.11-3.55 16.117-3.287 33.24-8.603 47.068-13.597 8.842-3.188 19.889-4.609 29.153-5.477 5.07-.476 44.71-6.13 45.056-9.172-.039.407-28.209 1.413-33.125 3.887 3.549-2.789 17.884-3.28 22.047-4.064 8.42-1.59 17.538-4.402 26.08-4.494-1.39.092-2.465.645-3.226 1.66 2.144 3.218 16.525-2.42 19.467-2.927 6.069-1.053 12.222-.984 18.13-3.15-5.762.161-11.078 1.037-16.747 2.105-2.136.407-8.359.576-11.093 1.36 3.88-1.86 10.14-1.875 14.096-2.62l25.712-4.84c19.62-3.687 39.325-6.952 58.99-10.378 36.283-6.315 72.62-13.382 109.117-17.608 23.407-2.704 46.715-8.504 70.345-10.486 28.738-2.404 57.008-8.258 85.463-12.36 11.892-1.72 23.814-3.94 35.767-5.162 14.957-1.53 29.945-3.227 44.917-5.17 6.8-.884 13.598-1.76 20.396-2.643 3.895-.507 10.525.023 14.673-1.214-3.564.622-10.194-.092-12.445.185-5.485.668-10.947 1.505-16.432 2.143-1.16.138-6.284-.062-7.152.538 2.512-2.55 13.95-2.105 17.615-2.597 6.315-.845 12.414-1.529 18.514-3.403-10.286-1.168-20.527.008-30.89 1.367-16.462 2.167-32.91 3.388-49.38 5.708-20.365 2.865-40.953 4.863-61.103 8.128-25.958 4.202-52.707 6.345-78.672 10.962-18.491 3.28-37.527 6.468-56.156 8.181-23.968 2.197-48.812 6.668-72.312 11.639-15.118 3.195-30.682 4.202-45.9 6.868-14.458 2.527-28.93 5-43.38 7.59-10.371 1.85-20.711 3.879-31.06 5.83-6.96 1.314-13.965 3.011-20.987 3.964-3.254.442-7.871.048-10.904 1.37 8.277-4.042 21.74-4.864 31.062-6.624 5.431-1.022 10.878-1.975 16.294-3.073 2.212-.454 7.236-2.566 11.123-3.61-9.432 1.336-31.276 4.976-31.573 6.229.494-2.09 17.085-3.925 19.044-4.94-22.616.876-45.186 9.104-67.395 12.062 10.694-3.703 21.648-5.97 32.772-8.067 101.004-19.074 202.7-37.573 304.54-52.276 45.555-6.576 91.094-14.58 136.634-18.614 11.692-1.03 22.984-3.749 34.615-4.57 10.24-.723 20.511-2.65 30.567-3.834 6.537-.776 11.846-2.566 17.6-3.365 4.962-.683 10.309.377 15.402-.092 5.3-.492 10.594-1.221 15.887-1.828l40.484-4.656c22.64-2.604 45.486-4.954 68.27-6.214 12.983-.715 26.02-2.49 39.118-3.188 25.827-1.383 52.36-3.519 77.965-7.206 21.51-3.096 44.426-2.113 66.243-3.987 29.169-2.505 58.506-2.82 87.59-6.215 22.263-2.604 44.849-.768 67.073-3.71 23.945-3.173 48.72-1.883 72.864-3.25 48.113-2.727 95.888-2.758 144.031-4.794 18.207-.768 36.498-.122 54.712-.637 16.655-.469 32.357-1.337 48.574-1.352 11.139-.008 22.708 1.552 33.793.445 16.033-1.59 32.396 0 48.65-.875 13.514-.723 27.41 1.275 40.647.115 7.09-.622 14.22.008 21.387.438 7.228.43 14.073-2.505 21.11-2.274 4.325.146 9.472 1.429 14.196 1.49 5.578.07 11.293-.622 16.932-.684 5.823-.061 11.9.853 17.753 1.537 4.74.553 6.968-.23 11.377-.715 2.543-.276 13.32.507 12.16-2.158 8.904-1.736 20.78-1.299 29.6.745-5.193.96-.338 1.352 2.051 2.09 2.712.837 5.447.66 8.166.683 5.224.039 10.862.584 15.664.822-.008-.223-.085-1.429-.146-2.596.3 3.549 2.243 1.551 3.664 4.878 2.159 5.047.507 15.256.692 20.695.291 8.873.591 17.746.89 26.619.108 3.165 2.336 10.04-2.865 8.965-.084.407-.13.975-.169 1.582-.046-.476-.1-.96-.115-1.398-4.24-.507-10.263 2.036-14.604 2.689-4.577.688-9.263.939-13.878 1.37.96-.012 1.82.307 2.57.95-2.304 3.218-13.29-1.199-16.078.092.568-.354 1.444-.592 2.473-.753-6.76.545-13.497 1.636-19.858 1.406-7.759-.284-16.178 1.951-24.06 2.274-7.267.3-14.696.276-21.925 1.436-8.588 1.375-17.976.784-26.295 3.657 7.774.576 15.28-.423 23.038-1.168 6.047-.581 16.017-3.725 21.95-2.076-1.815-.112-7.987 1.406-9.635 1.57l-16.624 1.612c-10.77 1.053-21.487 1.483-32.22 2.413-11.169.968-22.33 2.12-33.493 3.18-2.42.23-18.537.722-25.067 1.39 3.365-.722 8.405-1.95 7.898-2.243-6.622-.683-10.586.523-16.171 2.197 1.851.139 3.695.33 5.531.577-28.5 2.734-57.385 4.64-85.985 7.297-30.644 2.85-61.303 4.856-91.87 7.152 1.498-.307 2.796-.814 3.533-1.85.016-.024-10.401.122-11.753.337-2.917.465-9.636.22-12.31 1.736 3.123-1.768 10.332-.1 16.197.108-10.017.768-20.035 1.56-30.03 2.443-17.806 1.575-35.629 3.403-53.443 4.04-13.344.477-26.35 3.826-39.655 4.156-9.142.223-18.168 1.506-26.526 4.11 1.647.077 7.639.375 7.384.377 16.04-.085 32.41-2.005 48.441-2.743 7.582-.345 15.126-1.475 22.7-1.966 2.728-.185 5.232-.085 7.96-.13 5.83-.107 17.684-3.629 23.294-1.746-3.142-.933-12.917 1.7-16.05 1.983-4.733.43-9.273.515-13.966.63-12.66.307-25.436 1.813-38.065 2.466-15.725.814-31.32 2.458-47.03 3.365-16.831.976-34.031 2.558-50.909 2.827-10.97.177-22.109.492-33.056 1.314-15.464 1.167-31.45 3.58-46.899 3.84-17.054.292-34.354 1.383-51.37 2.758-20.227 1.637-41.806 4.034-61.979 1.629 4.087-1.652 9.595-.453 14.02-.676 4.51-.23 9.003-.837 13.513-1.068 7.49-.384 15.049-.799 22.57-1.075 25.035-.93 50.01-2.535 75.038-4.663 4.548-.384 107.165-3.718 107.234-6.691-.038.23-22.816 1.336-26.073 1.42-8.435.224-16.401-1.666-24.82-1.59-21.772.193-43.381 3.872-64.999 4.671-65.712 2.436-130.917 12.053-196.699 14.197-24.629.806-48.98 4.801-73.533 4.84-12.022.023-24.275.491-36.252 1.981-4.94.623-9.725 1.629-14.757 1.783-9.019.269-24.052 2.704-32.58-.254-.914-.315 3.619-1.867 3.242-2.082-4.27-2.458-13.697.984-18.437 1.468-8.043.822-15.986 1.367-24.03.683 13.345-3.35 27.503-4.21 41.108-5.131 6.176-.423 12.521-.162 18.706-1.03 8.004-1.121 18.997-.607 26.464-3.74-5.462-3.02-16.332-.57-22.562-.116-7.221.522-14.627 1.567-21.87 1.59-7.614.015-15.05.346-22.694.899-4.809.353-18.513-.983-22.178 1.237 6.23-3.772 17.047-.093 24.022-3.234-17.577-3.165-36.344 5.024-54.113 3.241 6.73-1.905 1.114-1.475-1.336-2.081-1.798-.446-3.987-1.13-5.17-1.522-2.635-.875-6.584-2.343-9.995-2.85-9.502-1.413-17.953-.153-27.678.53-13.551.953-27.67 1.706-41.145 3.534-5.209.7-9.703.914-14.996 1.022-3.518.07-18.675 3.403-21.387.914-.315-.284 10.702-1.582 11.116-1.652 3.987-.637 7.145-2.335 11.247-2.972 15.164-2.351 30.751-1.921 45.893-4.495 8.696-1.482 17.976-.061 26.595-2.42 10.163-2.78 21.671-3.879 32.664-6.068 18.06-3.595 36.751-5.362 55.058-7.544 16.032-1.905 32.403-4.363 48.297-5.062 7.013-.308 14.189-1.322 21.156-2.205 4.248-.546 8.773-1.537 12.553-2.574 1.702-.467 9.355-1.052 11.97-1.791-1.282.361-2.558.723-3.835 1.085 26.841-.6 53.552-5.194 80.454-7.26 35.36-2.712 70.537-4.379 105.767-8.312 18.698-2.09 36.628-4.064 55.45-4.471 19.811-.43 39.547-5.109 58.537-6.968-3.165-.453 3.272 0 3.618-.814-.07.161-22.409 1.49-23.868 1.736 1.128-.146 4.868.33 5.429.109-3.334 1.312-11.49 1.812-15.007 1.118 1.275.056 4.715-.967 6.205-.989-14.027-.284-27.74 2.474-41.552 4.202-16.67 2.082-33.648 1.936-50.456 3.358-28.762 2.427-57.923 3.625-86.654 7.459-40.43 5.393-81.26 2.581-122.152 6.399-6.261.584-12.584.707-18.829 1.49-4.901.615-10.102 2.95-14.972 3.135-5.677.215-11.815-.454-17.815-.116-10.617.6-21.34 2.267-31.904 3.55-17.83 2.166-35.829 3.572-53.774 5.907-5.447.707-10.932 1.736-16.41 2.128-8.98.638-23.63 5.354-31.987 2.235 16.094-4.978 35.022-4.57 51.685-6.345 7.029-.745 13.981-1.767 21.072-2.635 3.595-.446 5.96-1.805 9.395-2.32 4.133-.622 8.504.092 12.76-.469 27.148-3.556 54.373-4.509 81.437-7.705-3.495-2.058-9.725 1.813-12.898-1.183 3.134-.568 10.294-2.327 14.42-2.158-5.501-.968-13.828 1.09-18.883 1.46-3.972.291-7.982.476-11.992.714 3.81-.484 7.636-1.176 9.142-1.283 7.282-.53 14.242-1.46 21.44-2.428l1.268-.322c-2.381-2.59-21.226 1.267-24.621 1.728-2.735.369-15.072 3.45-16.724 2.028.553.653 2.32.791 4.502.715-2.105.169-4.218.276-6.3.553-5.123.676-10.055 1.375-15.271 1.751-14.043 1.022-27.218 3.08-40.969 2.604 8.381-2.88 18.514-2.427 27.24-4.74-20.057-.46-40.868 5.509-60.864 6.968-7.114.515-14.181 1.452-21.28 2.374-15.126 1.959-30.16 3.165-45.293 5.124 1.836.169 9.065 1.068 14.988 1.444-13.383.453-26.719.077-40.116 1.091-22.201 1.675-44.264 6.276-66.435 8.212-34.615 3.02-68.654 11.915-103.224 14.911-19.428 1.682-38.994 5.454-58.33 8.573-19.996 3.227-39.747 5.977-59.574 9.426-33.978 5.915-67.787 11.116-101.657 17.515-12.675 2.397-25.481 4.28-38.241 6.469-9.849 1.69-19.49 2.988-29.407 4.824-3.964.73-39.04 8.358-40.116 6.023 16.509-6.837 37.496-7.713 55.042-11.032 7.113-1.344 14.22-1.997 21.34-3.342 17.554-3.318 35.077-6.898 52.677-9.956 76.959-13.351 154.624-24.513 232.006-36.835 63.208-10.064 127.123-15.587 190.554-24.045-4.156-.154 2.166-.66 2.95-.753 2.258-.276 4.54-.169 6.79-.276 1.114-.054 2.136.092 3.765.015 12.114-.553 24.52-2.965 36.59-4.056 20.618-1.867 41.152-4.932 61.748-6.584C916.348 88.75 952.2 84.84 987.99 81.237c66.104-6.652 132.754-11.746 198.997-17.085-28.962-.407-58.983 3.795-87.891 6.238-15.18 1.283-30.52 2.62-45.532 3.603-16.063 1.052-32.61 4.97-48.689 4.386 4.11-1.736 12.553.584 15.964-2.412-1.083.83-11.001-1.144-13.974-.975-3.88.215-7.905.607-11.746 1.183-4.824.722-9.495 1.636-14.388 2.15-20.788 2.175-41.668 2.974-62.371 5.355-28.685 3.296-57.431 4.556-86.009 9.157-28.83 4.64-59.036 4.195-87.222 10.578-6.86 1.552-13.889.538-20.81 1.253-5.578.576-11.109 1.797-16.701 2.25-25.082 2.028-50.018 5.8-74.985 9.403-31.896 4.602-62.824 9.733-94.443 15.88-16.21 3.149-32.795 2.703-49.05 4.939-20.442 2.819-40.9 7.543-61.196 10.447-11.6 1.66-23.138 4.033-34.684 6.038-10.525 1.829-20.55 1.683-31.167 3.18-23.476 3.32-46.822 9.358-70.267 13.23-18.338 3.026-37.712 5.415-55.734 9.794-11.884 2.88-24.106 5.231-36.144 7.375-15.203 2.711-30.06 6.153-45.324 9.264-2.39.484-42.275 8.481-42.298 8.996.154-3.664 52.83-12.422 58.691-14.988-.768.039-4.647.177-4.524-.123 1.39-3.487 18.221-3.664 22.439-4.524 11.223-2.29 22.455-4.579 33.678-6.868 9.971-2.028 19.827-3.388 29.722-5.854 11.754-2.927 24.045-4.54 35.944-6.79 9.849-1.86 25.267-2.006 33.825-7.568-.765.027-1.53.05-2.295.07 2.566-.117 7.982-2.156 10.66-2.666 5.047-.968 10.924-1.368 15.749-3.25-20.389-1.613-41.599 8.681-59.675 10.248-7.551.653-17.223 2.497-24.652 4.525-13.336 3.634-27.202 6.83-40.86 9.364-15.365 2.85-30.33 6.983-45.686 10.118-15.487 3.165-31.604 4.847-46.676 9.126-17.37 4.924-35.076 8.65-52.784 12.522l-31.411 6.867c-3.311.73-20.273 2.29-21.61 4.34.937-1.981 11.761-3.625 14.48-4.224 5.64-1.23 10.748-2.251 16.018-4.594-10.048.346-22.747 3.365-32.542 5.961-3.78.999-7.136 2.428-11.054 2.965-1.303.178-3.815-.029-6.017-.058zm249.698-62.402l-.06.003a.86.86 0 0 0-.253.286c.065-.103.182-.197.313-.289zm0 0c.13-.09.275-.18.394-.271-.18.088-.334.18-.455.274l.061-.003zm179.793-20.552c-3.372-3.05-24.844 3.895-29.507 4.494-5.539.707-10.862 2.312-16.355 3.203-9.38 1.521-19.251 2.197-28.293 5.685 12.506-.177 25.881-4.171 38.21-6.276 11.209-1.913 22.356-3.918 33.664-5.885 1.09.046 1.85-.36 2.281-1.221zm29.307-4.67c-8.427.299-17.046 1.443-25.228 3.664 8.066.015 15.749-1.652 23.669-3.096.522-.192 1.037-.384 1.56-.569zm569.088-57.04c2.935-.177 5.892-.523 8.834-.86-5-.193-11.108-1.944-15.418.606-.276.162 5.954.292 6.584.254zm23.424-2.83zm21.209-1.365c8.796-.852 17.792-1.236 26.71-1.905-3.31-.077-7.013-.614-9.11-.584-6.914.108-13.99 1.176-20.865 1.821-4.635.44-13.564-.394-17.818 1.96 3.719-2.001 16.101-.807 21.083-1.292zm-135.911 23.2c-.477-.076-.96-.123-1.445-.13-.522.084-1.037.176-1.559.26 1.106-.068 2.635.016 3.004-.13zm115.454-11.538c-.145.075-.293.148-.444.218a2.42 2.42 0 0 0 .444-.218zm-17.078-.392c-7.974-.799-16.747-.76-25.22.323-8.727 1.114-17.723 1.398-26.442 2.688-8.135 1.199-16.424 1.39-24.575 2.566-4.978.715-15.072-.084-18.974 2.39-.876.583 10.486.422 12.39.276l18.138-1.36c12.038-.899 24.337-1.13 36.298-2.72 5.692-.76 10.985-1.543 16.762-1.636 7.3-.12 21.365 1.297 28.257-1.917-3.2 1.227-13.774-.325-16.634-.61zm91.094-5.823c1.882-.146 4.579-.046 7.206-.154-5.539-.007-12.253-1.428-16.916.254 2.39-.446 7.844.046 9.71-.1zm34.915-2.95c-4.179.553-9.257 1.698-13.013.161 2.389-.63 11.684-2.827 13.013-.16zm3.949-1.244c9.656-1.675 19.827-2.213 29.56-1.667-8.826 2.596-20.403 2.558-29.56 1.667zm30.59-9.265c-1.237-.1-2.481-.192-3.718-.284-1.176.292-2.351.576-3.526.868 2.412-.192 4.832-.384 7.244-.584zm8.05-.645c-2.181-.484-4.309-.315-6.383.514 2.128-.176 4.256-.345 6.384-.514zm98.53-1.106c-1.259.576-7.973.138-9.894.3l-6.983.575c5.962.361 12.392 1.183 16.878-.875zm177.011-5.309c2.205 1.43 5.938.515 8.712-.054-2.22-1.467-5.939-.553-8.712.054zm-44.732 5.024c4.908-.092 9.64-.138 14.565-.56-1.583.268 6.921-.4 5.477-1.39-2.274-1.568-11.3.076-14.273.16-5.286.146-14.074-.514-18.921 1.721 1.974-.845 10.378.115 13.152.07zm34.469 43.527c-10.501-.73-23.192-.814-33.302 2.143 9.749.922 20.38-.653 30.122-1.52l3.18-.623zm25.443-1.529c-3.372-3.31-12.852-.384-17.077.784 2.35.169 4.709.33 7.06.5 3.295-.677 6.79-.178 10.017-1.284zm70.544-6.384c-6-.468-12.022-.115-18.022.077-.86.031-11.615 1.506-10.985 2.282 2.689 3.28 23.56-1.452 27.379-1.805.545-.185 1.09-.377 1.628-.554zm114.463-8.788c-5.561-3.864-12.913-.999-18.967.407-6.168 1.43-13.251.722-19.481.876-8.589.215-16.87 2.182-25.413 2.55-8.696.377-16.124.254-24.644 2.605.484 2.773 77.973-4.61 86.293-5.385 1.106.169 1.844-.185 2.212-1.053zm12.13-.53c-.01.003-.02.006-.027.01a.157.157 0 0 0 .027-.01zm79.725-6.852c-.03.008-.06.017-.084.028a.846.846 0 0 0 .084-.028zM270.939 147.764c.576-.23 1.221-.4 1.744-.676-.492.261-1.083.484-1.744.676zm-37.934 7.267c.43.515 1.037.576 1.805.177 6.799-1.283 13.674-2.382 20.442-3.856 4.763-1.038 10.97-1.714 15.687-3.588-4.402 1.29-12.045 1.237-16.309 2.25-5.393 1.276-17.093 1.852-21.625 5.017zm29.522-10.54c-3.303 1.644-8.804 2.436-12.383 2.336 3.303-1.621 8.811-2.443 12.383-2.336zm46.408-7.298c-2.474 1-5.247 1.514-8.305 1.575 2.466-.998 5.224-1.513 8.305-1.575z" fill="rgba(255, 255, 255, 1)" fill-rule="nonzero"/></svg>