<svg viewBox="0 0 1920 99" xmlns="http://www.w3.org/2000/svg" preserveAspectRatio="none"><path d="M781.659 67.679c5.394-.297 18.088 1.159 22.66-1.526-2.846 1.667-19.23.32-21.954.394-5.954.164-11.903.198-17.902.532-10.396.578-20.684.776-31.023 1.7-30.343 2.713-60.606 3.909-90.983 4.702-.776.26-6.442-.068-9.11 1.099.969-.476 2.062-.742 3.212-.923-12.678.311-25.374.572-38.12.821-18.571.363-37.346.906-55.894 2.175-13.194.907-26.309 1.303-39.486 2.204-8.555.584-28.417 4.827-35.323 1.094 13.602-3.898 29.658-1.78 43.702-2.742 9.608-.663 19.108-.765 28.694-1.422 19.601-1.343 38.993-2.793 58.737-3.473 37.118-1.275 75.018-5.218 112.006-5.382 23.33-.102 47.316-2.974 70.504-3.501 16.673-.38 33.646-.816 50.137-2.232 36.036-3.093 72.702-.93 108.795-3.853 12.588-1.02 25.703 1.79 38.359-.204 7.177-1.133 13.97-2.045 21.873-2.039 11.795.006 23.403-.85 35.357-.872 8.514-.017 17.868.702 26.167-1.541-15.942-2.187-31.974.39-48.012.238-20.367-.199-40.835-.3-61.264.611-34.348 1.53-69.042 1.292-103.509 3.014-116.714 5.824-233.554 11.914-350.342 16.225-61.75 2.278-123.75 7.45-185.28 10.475-27.222 1.343-54.086 3.938-81.29 5.36-10.345.538-97.176 10.905-98.564 6.175 14.543-4.782 33.057-2.963 48.398-3.949 11.025-.708 22.032-1.983 33.051-2.884 29.414-2.402 59.428-4.005 89.034-5.772 77.2-4.612 154.037-11.557 231.305-14.09 35.64-1.167 71.336-3.2 106.987-4.436 25.947-.9 51.82-3.603 77.784-4.231 16.236-.391 33.232.203 49.4-2.51-27.453-2.93-57.241 2.187-84.847 3.104-21.766.726-45.282 5.564-66.827 3.337 2.577-1.15 7.755.77 9.778-1.2-.011.005-14.713-.879-16.237-.743-4.214.38-8.424 1.042-12.707 1.32-13.947.906-27.799.855-41.74 1.796a1687.78 1687.78 0 0 1-58.766 2.934c-70.226 2.278-140.865 8.544-211.154 13.444-33.6 2.345-66.962 2.748-100.602 5.846-5.292.488-55.961 3.405-89.006 6.442 4.005-.465 7.127-.884 8.078-1.23-6.158-.645 6.787-1.45 9.795-1.625 7.666-.448 15.297-1.57 22.967-2.04 5.773-.351 11.37-.799 17.098-1.479 11.868-1.405 33.623 1.45 43.713-4.713a5.205 5.205 0 0 1-1.966-.397c4.86-2.237 11.84-.215 16.927-1.852-14.191-3.348-29.827 2.674-43.203 3.444-12.837.743-26.06 1.87-38.863 3.388a1546.6 1546.6 0 0 1-39.815 4.192c-9.704.901-19.069 2.827-28.915 3.75-9.976.936-19.953 1.865-29.93 2.8-2.798.26-16.372-.307-19.216 1.217 2.47-2.243 15.79-1.988 18.656-2.996-5.58-.697-12.81.373-18.469.94-2.49.25-10.413-.36-13.559.166C.342 96.926.024 64.672 0 0h1920v25c-1.187.402-.707.537-.245.687-3.116-.769-12.798 2.086-16.785 2.523-10.299 1.122-21.3.992-31.55 1.014-15.239.034-30.353 3.858-45.933 4.793-14.174.85-28.643 2.034-42.664 2.43-5.966.17-12.571-.589-18.554.38-1.575.255-17.992 3.037-11.313 1.348-32.298-1.847-65.824 1.819-98.139 2.13-13.998.136-28.2 1.275-42.12.788-13.047-.459-33.374-3.507-45.424 1.586 5.569-2.35 21.114.725 28.252.46 9.66-.363 19.075-.771 28.683-.941 21.386-.38 42.705-.516 64.164-1.145 28.32-.833 56.279 2.567 84.877 1.558 11.137-.396 21.408-.334 32.625-.668 6.852-.203 20.95-4.053 27.32-.207-2.45-1.183-23.322 1.227-26.283 1.272-4.504.068-32.07-1.711-33.94.895.787-.952 7.387 1.382 7.909 1.609-2.182.3-8.034 1.393-9.847.612 2.074 1.02 4.674 1.507 7.54 1.7-1.455.243-2.786.424-3.914.498 3.96.13 10.13-.425 11.212-.544 3.25-.257 6.224-.57 9.14-.922l.11-.002c.403-.05.8-.096 1.202-.147a2.793 2.793 0 0 0-.009-.008c4.738-.572 8.317-.986 11.249-1.023 8.509-.108 16.304-.793 24.592.266-19.21 6.164-43.916 3.875-64.05 4.68-17.285.691-34.677.663-52.035 1.382-28.173 1.167-56.392.748-84.616 1.875-10.061.403-20.344.38-30.456.873-14.776.718-35.283 5.175-49.465 1.064 1.823.39 13.264.051 20.669-.792-8.186.277-21.726-1.326-25.375-1.088-3.116.204-19.601 1.966-14.457.493-15.93-2.634-34.87.736-51.05.714-16.904-.023-33.243 1.49-50.091 1.512-15.914.023-31.6.255-47.531.64-21.21.516-42.416 1.02-63.626 1.61-11.585.317-23.165.656-34.74 1.013-2.554.08-21.289-1.036-25.311.142 3.722-1.79 15.08-1.405 18.633-2.272-3.213-6.078-58.539-.985-64.6-.436-18.917 1.717-37.102 2.22-55.758 1.853-63.342-1.258-127.586 1.161-191.155 3.461-32.082 1.161-64.34 1.314-96.512 2.912-14.34.708-28.36.844-42.756 1.632-5.601.305-45.334 3.228-46.227.471a5.557 5.557 0 0 0 .013-.002zm-559.447 11.45c8.345-2.776 19.947-2.804 28.864-3.263.25.023-26.462 3.518-28.864 3.263zm48.25-4.583c5.065-.991 10.413-1.161 15.512-.73-4.521 1.46-10.792 1.342-15.511.73zM630.34 61.822c.895 2.249 11.036-1.042 12.497-.584-1.427-.566-4.934-.164-6.31-.328-.363-.012-6.42.334-6.187.912zm18.429-.952zm14.242-.453c5.099-.159 11.336.56 16.531-.606-2.356.096-5.886-.47-7.03-.606-5.039.316-19.504-1.012-23.706 1.641 2.032-1.256 11.193-.339 14.205-.43zm139.092-4.951c1.394.113 1.15.243-.72.396-1.399-.102-1.155-.238.72-.396zm12.82-.833a1.207 1.207 0 0 0 0 0zm31.833-.895c-4.152-.244-8.798-.068-12.905.657 2.906.606 6.09-.153 9.053.283 1.28-.311 2.566-.629 3.852-.94zm10.294-.006c-1.988.425-3.84.646-5.297-.244 2.244-.453 3.705.046 5.297.244zm-44.934 11.71c-1.052.02-2.09.127-2.076.465.555.068 1.518-.077 2.39-.216l-.314-.249zm20.54-.736c-1.383-.97-11.642-.618-12.741.657-.204.362 8.39.09 9.177.192 1.808.686 2.992.403 3.564-.85zm27.986-.998c-4.974-.764-17.806-1.235-22.338.986 2.759-1.286 10.786-.26 14.033.176 2.923.102 5.512-.391 8.305-1.162zm208.644-11.24c-.737.409-3.224-.65-4.346.018.499.583 3.881.294 4.346-.017zm46.777-1.206c-8.962-2.481-24.666-1.076-33.85-.074.64 1.116-.056 1.547-2.095 1.286 1.535 1.983 33.215.918 35.945-1.212zm25.431-.946c-1.41-.924-13.064 1.41-11.024 1.58.668-.022 11.194-1.467 11.024-1.58zm56.607-.98c-.402-1.74-11.421-1.054-12.367.25l3.484.662c.753-.028 9.07-.113 8.883-.912zm28.043-.958c.062.844 8.447.777 9.24.93 3.807-.669-9.495-3.502-9.24-.93zm35.713-.657c-4.674-.957-11.993-.833-16.525.182-.068.005-4.306.583-3.269.929 4.442 1.49 15.534.696 19.794-1.11zm18.078-.606c-3.2-1.173-4.515.074-7.438.737.696 2.096 8.934-1.117 7.438-.737zm19.89.09c-1.971.035-2.3-.073-.985-.328 1.949-.04 2.277.068.985.329zm6.311 8.011c-5.63-.147-12.208-1.127-17.709.63 0 1.495 5.971.237 6.696.084 3.58-.017 7.694.578 11.013-.714zm22.248-.362c-1.932.04-2.26-.068-.986-.323 1.988-.023 2.317.085.986.323zm12.837-.13c-1.852.096-2.09.22-.708.373 1.88-.107 2.119-.232.708-.374zm18.429-8.73c-1.734-2.488-9.251-1.162-11.886-.539-13.596.334-28.615-.974-41.967 1.377 7.97 1.631 16.53.56 24.57.119 9.727-.538 19.714.968 29.283-.958zm7.348-.414c-1.745.124-4.572.272-5.195-.402-.306-.335 2.81.113 5.195.402zm.589-.102c-.142.013-.198.037-.198.068.204-.017.392-.031.548-.042l-.35-.026zm.935.36c.409.038.827.028 1.065-.083-.071.04-.322.041-.689.017l-.376.066zm9.925.439c-3.875-1.893 16.628-1.167 16.514-1.11-4.107 2.124-12.01 1.002-16.514 1.11zm19.522 7.172c-1.223-.221-2.453-.436-3.676-.657-.391-.023-6.481-.006-6.306.68.357 1.41 8.963.345 9.982-.023zm3.847.13c-1.388-.153-1.144-.278.73-.374 1.412.153 1.162.278-.73.374zm17.964-1.422c4.42 1.156-5.512 2.668-6.05 1.144-.255-.725 5.337-1.155 6.05-1.144zm2.017-7.438c2.827-.595 5.903-1.145 8.787-.539-5.886 1.473-10.418 1.32-16.384.726 2.527-.063 5.07-.193 7.597-.187zm12.407 8.435c-1.564.623-9.5 1.603-10.288-.294 3.501-.856 7.376-1.598 10.288.294zm4.997-8.107c-1.61-.255-2.997-.782-5.297-.402 1.45.946 3.28.76 5.297.402zm9.88 7.325c-.674-.447-1.445-.544-2.306-.3a4.858 4.858 0 0 0-1.756.133c.976-.14 3.035.68 4.062.167zm-4.328-.09a5.2 5.2 0 0 1 .266-.077.874.874 0 0 0-.266.077zm16.141.202a3.06 3.06 0 0 0-.726.189c.26-.046.52-.09.782-.134l-.056-.055zm1.007-.106l.42-.068c-.114.006-.182.006-.278.006-.051.017-.09.04-.142.062zm-.934.436c.237-.147.566-.272.872-.402.714-.011.969.13-.872.402zm6.112-.9c-1.342-.556-3.37-.238-4.906.34 1.745-.097 5.116-.256 4.906-.34zm7.507-7.439c-4.266 1.745-16.197-4.651-20.117-.833-.136.12 8.123 1.031 9.25 1.218 2.216-.04 8.51.697 10.867-.385zm23.17-.47c-.555.277-2.453-.096-2.17-.238 1.185.113 2.216.22 2.17.238zm-3.133-.521c-.356-.063-.73-.04-1.082-.142-.062-.09.539.017 1.082.142zm-1.404 8.039c3.132 1.11 8.067.753 11.319.005 2.128-.04 11.108-1.363 13.483-.59-7.455-2.427-17.615 2.85-24.802.585zm35.48-8.136c-2.13-1.779-8.118-.651-10.576-.453 2.034 1.847 8.384 1.043 10.577.453zm4.97-.402c-.414-.821 8.916-1.218 9.432-1.184 2.056 2.572-8.764 2.51-9.433 1.184zm237.717 2.232c-1.394-.175-1.156-.294.714-.345 1.41.164 1.172.277-.714.345zm-70.978 2.064a2.374 2.374 0 0 0-.545.259c.173-.09.355-.177.545-.26zm0 0c3.221-1.087 11.33 2.36 14.06 2.604 6.118.556 12.242-.464 18.326-.617 7.592-.187 15.908.26 23.579-.737-7.931-.402-17.313-1.439-20.655-1.416-8.98.055-27.991-3.006-35.31.166zm-67.14 1.403c2.538-.187 5.801-.708 7.914.555-2.056.476-7.081 1.881-7.914-.555zm-20.485.403c5.421-1.434 12.525-.8 18.032.305-5.914.726-12.192.595-18.032-.305zm.028 3.96c-2.181.022-6.215.674-8.436-.074.04.006 10.69-.232 8.436.073zm-10.038-3.596c-1.046-.026-2.083.038-2.086.378.573.104 1.52-.002 2.38-.109l-.294-.27zm-12.696 3.725c-1.562.13-3.028.194-3.61.006 1.09.296 2.352.326 3.688.234l-.078-.24zm-33.34-3.138c.9-.073 1.915-.164 2.94-.22-4.18.453-9.093 2.203-12.622.741 1.79.499 7.982-.487 9.682-.52z" fill="rgba(255, 255, 255, 1)" fill-rule="evenodd"/></svg>