<?xml version="1.0" encoding="UTF-8"?>
<svg width="39px" height="38px" viewBox="0 0 39 38" version="1.1" xmlns="http://www.w3.org/2000/svg" xmlns:xlink="http://www.w3.org/1999/xlink">
    <title>icon-emissions</title>
    <g id="Page-1" stroke="none" stroke-width="1" fill="none" fill-rule="evenodd" stroke-linecap="round" stroke-linejoin="round">
        <g id="icon-emissions" transform="translate(1.000000, 1.000000)" stroke="#AAAAAA" stroke-width="2">
            <path d="M28.493,3.373 C21.16594,-1.87345246 11.0858591,-0.88042272 4.92341383,5.69493573 C-1.23903149,12.2702942 -1.57714352,22.3935258 4.13282882,29.3654185 C9.84280117,36.3373111 19.8341581,38.0007191 27.4949575,33.2548554 C35.155757,28.5089917 38.1157015,18.822255 34.416,10.605" id="Path_79"></path>
            <g id="Group_19" transform="translate(10.000000, 2.000000)">
                <path d="M25.386,5.289 C25.5299072,3.18882261 24.0707975,1.31662795 21.9990789,0.943215939 C19.9273604,0.569803928 17.9064102,1.81474344 17.308,3.833 C15.4435765,1.89923328 12.52017,1.44225783 10.1545487,2.71480052 C7.78892744,3.98734322 6.55901283,6.67852181 7.145,9.3 C4.27453455,10.2299157 2.54118153,13.1468812 3.09671722,16.1126349 C3.65225292,19.0783886 6.32384079,21.1702344 9.3362674,20.9981852 C12.348694,20.8261359 14.7647425,18.443719 14.979,15.434 C15.5738468,15.8401863 16.2656029,16.0816972 16.984,16.134 C18.7479383,16.258717 20.3946555,15.2436176 21.0757358,13.6116978 C21.756816,11.979778 21.3202645,10.0952283 19.991,8.929 C20.3121775,9.038397 20.6457578,9.10726302 20.984,9.134 C23.261326,9.28775138 25.232132,7.56631808 25.386,5.289 Z" id="Path_80"></path>
                <polyline id="Path_81" points="0 32 0 24 2.5 21.5"></polyline>
            </g>
            <line x1="6.348" y1="4.283" x2="31.033" y2="28.968" id="Line_14"></line>
        </g>
    </g>
</svg>