<?xml version="1.0" encoding="UTF-8"?>
<svg width="254px" height="36px" viewBox="0 0 254 36" version="1.1" xmlns="http://www.w3.org/2000/svg" xmlns:xlink="http://www.w3.org/1999/xlink">
    <title>logo</title>
    <g id="Page-1" stroke="none" stroke-width="1" fill="none" fill-rule="evenodd">
        <g id="logo" fill-rule="nonzero">
            <path d="M171.359,35.828 C166.493,35.828 161.627,35.838 156.759,35.815 C156.173466,35.7798784 155.593088,35.6847124 155.027,35.531 C153.427,35.185 153.427,33.771 153.266,32.607 C153.171597,31.3758533 153.159236,30.1397884 153.229,28.907 C153.229,25.3536667 153.229,21.8 153.229,18.246 C153.188007,17.580509 153.340843,16.9174066 153.669,16.337 C154.092787,15.452963 154.988654,14.8928512 155.969,14.899 C159.092,14.752 159.848,15.848 159.756,18.587 C159.634,22.214 159.716,25.848 159.73,29.479 C159.737,31.034 159.88,31.179 161.435,31.185 C167.922333,31.1963333 174.41,31.1963333 180.898,31.185 C182.187,31.185 182.459,30.892 182.463,29.571 C182.475,25.631 182.493,21.691 182.447,17.752 C182.40004,16.9961375 182.693481,16.2588661 183.247,15.742 C183.720623,15.1337617 184.483979,14.8261289 185.247,14.936 C185.472,14.973 185.711,14.925 185.941,14.945 C186.595,15.001 187.277,14.735 187.841,15.409 C188.523656,16.0896946 188.925862,17.0018859 188.968,17.965 C188.956,22.909 188.941,27.854 188.983,32.798 C188.957919,33.6065236 188.661716,34.383133 188.142,35.003 C187.760174,35.5788606 187.09951,35.9065224 186.41,35.862 C181.404,35.802 176.379,35.828 171.359,35.828 Z" id="Path_2" fill="#FFFFFF"></path>
            <path d="M17,14.936 C21.639,14.936 26.278,14.928 30.917,14.945 C31.571,14.945 32.255,14.73 32.824,15.402 C33.5135365,16.0789625 33.9175518,16.9943488 33.953,17.96 C33.934,19.274 33.953,20.589 33.953,21.904 C33.953,25.462 33.922,29.02 33.973,32.576 C33.9849046,33.4629528 33.6847543,34.3258851 33.125,35.014 C32.7711341,35.6264875 32.074977,35.9558478 31.377,35.841 C30.9151519,35.7991178 30.4507348,35.7934338 29.988,35.824 C28.5928061,35.7625016 27.4856185,34.6272949 27.459,33.231 C27.446,29.287 27.459,25.343 27.451,21.398 C27.451,19.798 27.234,19.582 25.62,19.579 C19.744,19.571 13.8676667,19.571 7.991,19.579 C7.605,19.579 7.145,19.451 6.854,19.618 C6.47209446,19.7551211 6.23988626,20.1425531 6.299,20.544 C6.399,22.609 6.156,24.688 6.113,26.763 C6.069,28.928 6.12,31.094 6.098,33.263 C6.18295277,33.9568082 5.94778553,34.6515993 5.45890388,35.1511807 C4.97002223,35.6507621 4.28048462,35.9009142 3.585,35.831 C3.199,35.843 2.811,35.848 2.425,35.831 C0.525,35.74 -0.215,34.761 0.058,32.789 C0.098511911,32.2488772 0.102187083,31.7066223 0.069,31.166 C0.069,26.6033333 0.069,22.0403333 0.069,17.477 C0.069,15.618 0.708,14.977 2.62,14.947 C4.166,14.922 5.713,14.942 7.259,14.942 L17,14.936 Z" id="Path_3" fill="#FFFFFF"></path>
            <path d="M112.29,35.828 C107.655,35.828 103.019,35.791 98.39,35.854 C97.2890547,35.8443189 96.2047221,35.5844347 95.219,35.094 C93.449,34.28 93.351,32.406 94.792,31.189 C96.046,30.129 97.318,29.089 98.592,28.05 C99.3393333,27.4393333 100.095,26.8393333 100.859,26.25 C101.500065,25.6267278 102.190666,25.056522 102.924,24.545 C104.107232,23.7497847 105.207441,22.8375226 106.208,21.822 C108.541,19.804 110.84,17.745 113.208,15.769 C115.49,13.869 117.863,12.069 120.153,10.176 C121.06021,9.3538147 122.336383,9.07648525 123.503,9.448 C124.416,9.777 125.081,10.798 125.855,11.513 C125.569,12.09 125.436,12.899 124.972,13.205 C122.472,14.852 120.536,17.174 118.051,18.84 C116.89741,19.6812184 115.807452,20.606396 114.79,21.608 C112.679,23.531 110.261,25.079 108.255,27.144 C107.044687,28.2264629 105.761687,29.224797 104.415,30.132 C104.285,30.232 104.245,30.451 104.164,30.615 C104.2991,30.6651822 104.439798,30.6987616 104.583,30.715 C107.750333,30.721 110.917,30.721 114.083,30.715 C118.332,30.715 122.583,30.728 126.829,30.703 C127.624135,30.7947921 128.41317,30.9333656 129.192,31.118 C130.539,31.258 130.512,32.347 130.923,33.118 C131.035,33.327 130.786,33.828 130.574,34.094 C129.628462,35.2718666 128.170779,35.9185245 126.663,35.829 C121.869,35.815 117.079,35.828 112.29,35.828 Z" id="Path_4" fill="#FFFFFF"></path>
            <path d="M171.094,1.009 C174.65,1.009 178.207,0.998 181.763,1.009 C183.415429,0.896706637 185.075291,1.04005992 186.684,1.434 C187.873,1.81 188.496,2.308 188.503,3.562 C188.516333,6.19066667 188.516333,8.82 188.503,11.45 C188.561415,12.0156535 188.363396,12.5777335 187.96333,12.9818661 C187.563264,13.3859988 187.003215,13.5896913 186.437,13.537 C185.896429,13.5144938 185.355063,13.5195002 184.815,13.552 C184.052987,13.6470335 183.295044,13.3473994 182.804,12.757 C182.192567,12.286104 181.885994,11.5196719 182.004,10.757 C182.012393,10.6798944 182.012393,10.6021056 182.004,10.525 C181.95,9.07833333 181.896,7.63166667 181.842,6.185 C180.382,6.162 178.923,6.121 177.464,6.119 C172.052,6.111 166.64,6.127 161.228,6.102 C160.494,6.102 160.096,6.125 160.161,7.072 C160.268,8.611 160.21,10.164 160.183,11.71 C160.162971,12.7216026 159.340778,13.533153 158.329,13.54 C157.557,13.563 156.783,13.55 156.01,13.54 C154.523,13.526 153.751,12.922 153.71,11.467 C153.638,8.685 153.689,5.9 153.689,3.116 C153.716031,2.32958098 154.282549,1.66601712 155.055,1.516 C156.119867,1.20794258 157.221539,1.04546709 158.33,1.033 C162.589,0.978 166.842,1.009 171.094,1.009 Z" id="Path_5" fill="#FFFFFF"></path>
            <path d="M253.486,25.599 C253.486,27.916 253.475,30.233 253.493,32.55 C253.525617,33.2136378 253.368112,33.8727964 253.039,34.45 C252.609595,35.3363654 251.70266,35.8908421 250.718,35.869 C249.355032,35.9637033 248.026154,35.4158005 247.126,34.388 C243.315,30.447 239.407,26.599 235.517,22.736 C234.599267,21.6030008 233.568625,20.5663279 232.441,19.642 C232.308676,19.5598015 232.197385,19.4478258 232.116,19.315 C231.681,18.528 230.786,17.878 231.441,16.776 C231.947196,15.7328192 232.961514,15.0298112 234.116,14.922 C235.397952,14.8250177 236.649332,15.3450332 237.485,16.322 C240.41,19.294 243.373,22.229 246.324,25.175 C246.47868,25.3117174 246.642019,25.4383137 246.813,25.554 C246.895029,25.3543122 246.951152,25.1449432 246.98,24.931 C246.992,22.46 246.98,19.988 246.992,17.517 C247.029312,16.1250088 248.134979,14.9979623 249.526,14.934 C249.679994,14.9195268 249.835006,14.9195268 249.989,14.934 C250.778,15.065 251.635,14.606 252.357,15.393 C253.091455,16.2243596 253.487521,17.3008734 253.467,18.41 C253.528,20.809 253.486,23.204 253.486,25.599 Z" id="Path_6" fill="#FFFFFF"></path>
            <path d="M113.56,6.581 C108.46,6.581 103.36,6.504 98.26,6.635 C97.1920836,6.65411113 96.1820197,6.15094553 95.554,5.287 C95.0638889,4.69909422 95.0567743,3.84700781 95.537,3.251 C96.1969083,2.43261344 97.1858545,1.94912862 98.237,1.931 C108.437,1.945 118.637,1.945 128.837,1.931 C129.88184,1.97275512 130.864177,2.43989818 131.556,3.224 C132.01604,3.65804267 132.127935,4.34662383 131.829,4.904 C131.151,5.74 130.537,6.662 129.091,6.63 C123.915,6.512 118.737,6.581 113.56,6.581 Z" id="Path_7" fill="#1B9BC5"></path>
            <path d="M218.675,25.391 C218.675,22.765 218.665,20.139 218.675,17.513 C218.714733,16.1207243 219.824375,14.9962339 221.216,14.938 C221.678022,14.970228 222.141907,14.9645423 222.603,14.921 C223.419,14.766 223.869,15.251 224.359,15.743 C224.888777,16.1707613 225.196789,16.8150861 225.197,17.496 C225.141,22.747 225.175,27.996 225.164,33.251 C225.126207,34.6441033 224.015478,35.7696947 222.623,35.826 C222.160969,35.7941099 221.697111,35.7997952 221.236,35.843 C220.421,35.998 219.97,35.514 219.48,35.021 C218.943784,34.5983573 218.634184,33.9507103 218.642,33.268 C218.724,30.645 218.675,28.017 218.675,25.391 Z" id="Path_8" fill="#FFFFFF"></path>
            <path d="M70.615,25.469 C70.615,27.943 70.624,30.416 70.615,32.889 C70.604,35.161 69.886,35.821 67.544,35.834177 C66.122,35.842 64.882,35.584 64.399,34.012 C64.2488591,33.6017421 64.1585988,33.1719956 64.131,32.736 C64.112,28.021 64.098,23.306 64.14,18.591 C64.1379099,17.7855963 64.3016413,16.9883846 64.621,16.249 C64.8621496,15.414564 65.6547732,14.8630648 66.521,14.927 C66.979,14.979 67.447,14.927 67.911,14.937 C68.6251426,14.9122816 69.3181898,15.181443 69.8284506,15.6816876 C70.3387114,16.1819321 70.6215576,16.8695077 70.611,17.584 C70.627,20.213 70.615,22.84 70.615,25.469 Z" id="Path_9" fill="#FFFFFF"></path>
            <path d="M218.211,7.637 C218.211,6.631 218.238,5.625 218.204,4.62 C218.175767,3.64730887 218.557494,2.707506 219.256,2.03 C219.887897,1.41454851 220.742283,1.08152559 221.624,1.107 C222.508208,1.01908888 223.386224,1.32529702 224.024,1.944 C225.338,3.514 227.029,4.7 228.185,6.472 C229.191728,7.84836275 230.3972,9.06765214 231.762,10.09 C232.581174,10.7096879 232.896637,11.7934836 232.538,12.756 C232.088139,13.7212255 231.154465,14.3704053 230.093,14.456 C229.044082,14.6635888 227.962748,14.3100905 227.239,13.523 C226.651,12.908 226.011,12.341 225.439,11.709 C224.732,10.921 224.824,11.409 224.675,12.049 C224.484348,12.9577246 223.659141,13.5913889 222.732,13.541 C221.959,13.56 221.183,13.582 220.412,13.541 C219.242675,13.454047 218.312161,12.5260821 218.222,11.357 C218.172,10.116 218.211,8.877 218.211,7.637 Z" id="Path_10" fill="#FFFFFF"></path>
            <path d="M62.327,14.008 C60.974,14.177 59.942,13.408 58.927,12.735 C56.801,11.322 54.746,9.801 52.646,8.347 C51.7648737,7.84985403 50.9173799,7.29532521 50.109,6.687 C48.453,5.174 48.542,4.273 50.287,3.003 C51.4589715,2.18796357 53.0080127,2.16463106 54.204,2.944 C57.641,5.265 61.08,7.585 64.453,9.995 C65.0003222,10.4728102 65.3556499,11.133009 65.453,11.853 C65.564,12.593 64.145,13.831 63.245,13.999 C62.9398827,14.0294078 62.6326548,14.0324198 62.327,14.008 Z" id="Path_11" fill="#FFFFFF"></path>
            <path d="M70.904,9.405 C73.061,7.812 75.129,6.635 77.281,5.222 C78.314,4.544 79.313,3.793 80.356,3.122 C81.099,2.642 84.04,1.682 85.122,3.029 C86.204,4.376 84.993,6.253 84.722,6.463 C83.674,7.263 83.175,7.57 82.098,8.331 C80.006,9.809 77.922,11.299 75.811,12.748 C75.1801996,13.2267713 74.478832,13.6046125 73.732,13.868 C72.9994996,14.0812562 72.2265078,14.1155504 71.478,13.968 C70.8461585,13.791814 70.2793748,13.435272 69.847,12.942 C69.2845509,11.6633055 69.7321791,10.1654238 70.904,9.405 L70.904,9.405 Z" id="Path_12" fill="#FFFFFF"></path>
            <path d="M27.451,7.276 C27.451,6.198 27.433,5.12 27.451,4.042 C27.489,2.124 28.117,1.488 29.951,1.474 C30.49,1.474 31.029,1.469 31.568,1.474 C33.168,1.491 33.892,2.093 33.933,3.698 C33.9996667,6.23733333 33.9996667,8.778 33.933,11.32 C33.892,12.92 33.171,13.526 31.567,13.542 C30.951,13.548 30.335,13.55 29.719,13.542 C28.265,13.521 27.542,12.897 27.467,11.433 C27.395,10.051 27.451,8.662 27.451,7.276 Z" id="Path_13" fill="#FFFFFF"></path>
            <path d="M246.524,7.38 C246.524,6.225 246.461,5.065 246.549,3.917 C246.60371,3.2733871 246.800064,2.64983498 247.124,2.091 C247.397075,1.75209107 247.796432,1.53905282 248.23,1.501 C249.074773,1.44278722 249.922244,1.4344394 250.768,1.476 C252.216,1.495 252.968,2.126 253.004,3.596 C253.070667,6.21266667 253.070667,8.83033333 253.004,11.449 C252.966,12.902 252.204,13.524 250.743,13.543 C250.127,13.551 249.511,13.549 248.895,13.543 C247.295,13.527 246.614,12.918 246.538,11.307 C246.475,10.001 246.524,8.69 246.524,7.38 Z" id="Path_14" fill="#FFFFFF"></path>
            <path d="M0.066,7.275 C0.066,6.115 0.06,4.955 0.066,3.795 C0.076,2.395 0.212,2.073 1.52,1.678 C2.58080811,1.27428211 3.75881713,1.31027384 4.793,1.778 C6.236,2.506 6.341,2.83 6.127,4.538 C6.04062268,5.77253559 6.03060359,7.01122871 6.097,8.247 C6.097,9.252 6.105,10.258 6.097,11.263 C6.085,12.54 5.581,13.341 4.449,13.516 C3.53144356,13.6591136 2.59684069,13.6537113 1.681,13.5 C0.536,13.3 0.075,12.528 0.067,11.221 C0.059,9.914 0.066,8.59 0.066,7.275 Z" id="Path_15" fill="#FFFFFF"></path>
        </g>
    </g>
</svg>