<?xml version="1.0" encoding="UTF-8"?>
<svg width="885px" height="120px" viewBox="0 0 885 120" version="1.1" xmlns="http://www.w3.org/2000/svg" xmlns:xlink="http://www.w3.org/1999/xlink">
    <title>Logo_Clean_Technica_sign_separately-04</title>
    <g id="Page-1" stroke="none" stroke-width="1" fill="none" fill-rule="evenodd">
        <g id="Logo_Clean_Technica_sign_separately-04" fill-rule="nonzero">
            <polygon id="Path" fill="#FFFFFF" points="273.6 86.09 273.6 86.09 273.59 86.09"></polygon>
            <path d="M853.56,43 C857.681709,42.9743761 861.765201,43.7910746 865.56,45.4 C872.951657,48.5082519 878.824332,54.3988868 881.91,61.8 C883.526701,65.5927315 884.346991,69.6771603 884.32,73.8 L884.32,103.15 L878.1,103.15 L878.1,92.21 C875.354272,95.9778878 871.751828,99.0387653 867.59,101.14 C863.254524,103.341951 858.452378,104.467025 853.59,104.42 C849.494031,104.446872 845.436417,103.629903 841.67,102.02 C834.316176,98.8966981 828.456802,93.0480752 825.32,85.7 C823.710097,81.9335835 822.893128,77.8759685 822.92,73.78 C822.894376,69.6582912 823.711075,65.574799 825.32,61.78 C828.42273,54.4053365 834.276772,48.5297724 841.64,45.4 C845.406417,43.7900973 849.464031,42.9731278 853.56,43 Z M853.56,49.2196047 C850.289855,49.2010775 847.051437,49.861701 844.05,51.16 C841.145424,52.4005107 838.497019,54.170635 836.24,56.38 C831.601317,60.9814011 828.994575,67.246223 828.999992,73.78 C828.999992,77.05439 829.681091,80.2929831 830.999992,83.29 C833.513719,89.1769692 838.203031,93.8662809 844.09,96.38 C847.091437,97.678299 850.329855,98.3389225 853.6,98.3203953 C860.123958,98.32538 866.380184,95.7264183 870.98,91.1 C873.189365,88.8429806 874.959489,86.1945763 876.2,83.29 C877.498299,80.2885627 878.158923,77.050145 878.140395,73.78 C878.152846,70.4910693 877.492641,67.2342864 876.2,64.21 C873.755611,58.3285025 869.081498,53.6543888 863.2,51.21 C860.156246,49.8976671 856.874587,49.2270377 853.56,49.24 L853.56,49.2196047 Z" id="Shape" fill="#9DD6F0"></path>
            <polygon id="Path" fill="#9DD6F0" points="479 21.91 479 103.61 472.78 103.61 472.78 21.91 447.37 21.91 447.37 15.81 504.31 15.81 504.31 21.91"></polygon>
            <path d="M599.88,104.34 C595.79682,104.35794 591.753403,103.537685 588,101.93 C580.657484,98.8003297 574.80967,92.9525157 571.68,85.61 C570.066941,81.844226 569.246573,77.7866408 569.27,73.69 C569.245563,69.5674062 570.065749,65.4834906 571.68,61.69 C574.781111,54.3212464 580.636954,48.4546389 588,45.34 C591.764311,43.7222509 595.822885,42.9016834 599.92,42.93 C603.013911,42.9043116 606.079173,43.5241757 608.92,44.75 C611.660694,45.9377715 614.151343,47.6343984 616.26,49.75 L611.91,54.09 C610.361389,52.5400154 608.527751,51.3040077 606.51,50.45 C604.42978,49.5800963 602.194705,49.1412459 599.94,49.16 C596.669855,49.1410775 593.431437,49.801701 590.43,51.1 C587.525424,52.3405107 584.877019,54.110635 582.62,56.32 C577.993582,60.9198159 575.39462,67.1760424 575.4,73.7 C575.381077,76.970145 576.041701,80.2085627 577.34,83.21 C579.853719,89.0969692 584.543031,93.7862809 590.43,96.3 C593.431437,97.598299 596.669855,98.2589225 599.94,98.24 C604.442033,98.2866985 608.771073,96.5081847 611.94,93.31 L616.29,97.65 C614.154754,99.7023988 611.668736,101.355228 608.95,102.53 C606.086822,103.761976 602.996739,104.37863 599.88,104.34 Z" id="Path" fill="#9DD6F0"></path>
            <path d="M648.25,43.33 C651.320358,43.3140185 654.360794,43.9336819 657.18,45.15 C662.715156,47.48109 667.11891,51.8848442 669.45,57.42 C670.658237,60.2378782 671.27432,63.2740469 671.260244,66.34 L671.260244,103.44 L665,103.44 L665,66.34 C665.040436,61.8747416 663.284483,57.5806048 660.126939,54.4230609 C656.969395,51.265517 652.675258,49.5095635 648.21,49.55 C645.936238,49.5351859 643.682329,49.9737293 641.58,50.84 C635.31278,53.4248425 631.247113,59.5609509 631.31,66.34 L631.31,103.44 L625.08,103.44 L625.08,15.38 L631.31,15.38 L631.31,50.72 C633.436607,48.446766 635.987997,46.6122116 638.82,45.32 C641.779889,43.974752 644.998933,43.2954416 648.25,43.33 Z" id="Path" fill="#9DD6F0"></path>
            <path d="M712.24,43.33 C716.337115,43.3016834 720.395689,44.1222509 724.16,45.74 C731.52558,48.8611582 737.381388,54.7349068 740.48,62.11 C742.088925,65.904799 742.905624,69.9882912 742.880585,74.11 L742.880585,103.46 L736.78,103.46 L736.78,74.09 C736.792846,70.8010693 736.132641,67.5442864 734.84,64.52 C732.395611,58.6385025 727.721498,53.9643888 721.84,51.52 C718.815714,50.2273585 715.558931,49.5671538 712.27,49.58 C708.999855,49.5610775 705.761437,50.221701 702.76,51.52 C699.855424,52.7605107 697.207019,54.530635 694.95,56.74 C690.323582,61.3398159 687.72462,67.5960424 687.73,74.12 L687.73,103.47 L681.629415,103.47 L681.629415,74.09 C681.604376,69.9682912 682.421075,65.884799 684.03,62.09 C687.128612,54.7149068 692.98442,48.8411582 700.35,45.72 C704.1065,44.1131703 708.154384,43.2995081 712.24,43.33 Z" id="Path" fill="#9DD6F0"></path>
            <polygon id="Path" fill="#9DD6F0" points="753.56 44.56 759.66 44.56 759.66 103.27 753.56 103.27"></polygon>
            <path d="M801.46,104.62 C797.362885,104.648317 793.304311,103.827749 789.54,102.21 C782.19214,99.0882458 776.341754,93.2378604 773.22,85.89 C771.613312,82.133118 770.796391,78.0859579 770.82,74 C770.794095,69.8782642 771.610804,65.7947156 773.22,62 C776.314669,54.6199315 782.171338,48.7417305 789.54,45.62 C793.305774,44.0069405 797.363359,43.186573 801.46,43.21 C804.553911,43.1843116 807.619173,43.8041757 810.46,45.03 C813.1986,46.2215711 815.688574,47.9177388 817.8,50.03 L813.46,54.38 C810.291073,51.1818153 805.962033,49.4033015 801.46,49.45 C798.20809,49.4316761 794.987456,50.0853355 792,51.37 C789.09497,52.6141219 786.446619,54.3876012 784.19,56.6 C779.540305,61.1964449 776.922504,67.4618841 776.92,74 C776.901077,77.270145 777.561701,80.5085627 778.86,83.51 C781.395077,89.3951328 786.10141,94.0763945 792,96.58 C795.002172,97.8748663 798.240561,98.5320787 801.51,98.51 C806.012033,98.5566985 810.341073,96.7781847 813.51,93.58 L817.85,97.93 C815.714352,99.9793373 813.228288,101.62881 810.51,102.8 C807.653737,104.032662 804.570728,104.65267 801.46,104.62 L801.46,104.62 Z" id="Path" fill="#9DD6F0"></path>
            <path d="M558.87,76.73 C558.96,75.73 559.010006,74.81 559.010006,73.83 C559.019566,58.8212184 548.165863,46.0103093 533.359443,43.5539789 C518.553024,41.0976486 504.144025,49.7175686 499.306657,63.9254357 C494.469289,78.1333028 500.624774,93.7548351 513.853915,100.843803 C527.083055,107.93277 543.49912,104.406428 552.65,92.51 L548.11,88 C542.33225,96.2649948 532.056271,100.11126 522.271657,97.6712061 C512.487043,95.2311527 505.220355,87.0101583 504,77 L558.95,77 L558.87,76.73 Z M528.13,49.73 C540.344579,49.7357489 550.664832,58.7900283 552.26,70.9 L504,70.9 C505.590148,58.7843035 515.910403,49.7214684 528.13,49.71 L528.13,49.73 Z" id="Shape" fill="#9DD6F0"></path>
            <path d="M218.5,15.18 L224.6,15.18 L224.6,89.18 C224.586583,91.6443817 225.560308,94.0115671 227.303854,95.7532343 C229.0474,97.4949014 231.415634,98.466074 233.88,98.45 L233.88,104.560333 C231.822037,104.573506 229.782114,104.175721 227.88,103.39 C226.049774,102.636019 224.39264,101.516518 223.01,100.1 C221.623541,98.6696962 220.508739,96.9991873 219.72,95.17 C218.896968,93.2773753 218.478035,91.2337991 218.49,89.17 L218.5,15.18 Z" id="Path" fill="#75B332"></path>
            <path d="M340.7,43.42 C344.821709,43.3943761 348.905201,44.2110746 352.7,45.82 C360.088004,48.9268258 365.962203,54.8082057 369.06,62.2 C370.668925,65.994799 371.485624,70.0782912 371.460585,74.2 L371.460585,103.55 L365.24,103.55 L365.24,92.61 C362.494272,96.3778878 358.891828,99.4387653 354.73,101.54 C350.394524,103.741951 345.592378,104.867025 340.73,104.82 C336.634031,104.846872 332.576417,104.029903 328.81,102.42 C321.456176,99.2966981 315.596802,93.4480752 312.46,86.1 C310.850097,82.3335835 310.033128,78.2759685 310.06,74.18 C310.034376,70.0582912 310.851075,65.974799 312.46,62.18 C315.56273,54.8053365 321.416772,48.9297724 328.78,45.8 C332.547871,44.196958 336.605431,43.3868077 340.7,43.42 Z M340.7,49.6396512 C337.429969,49.6222397 334.191788,50.2828151 331.19,51.58 C328.286754,52.8229661 325.638779,54.5928035 323.38,56.8 C318.753582,61.3998159 316.15462,67.6560424 316.159651,74.18 C316.14224,77.4500309 316.802815,80.6882123 318.1,83.69 C320.613719,89.5769692 325.303031,94.2662809 331.19,96.78 C334.191788,98.0771849 337.429969,98.7377603 340.7,98.7203488 C347.223958,98.72538 353.480184,96.1264183 358.08,91.5 C360.287196,89.2412208 362.057034,86.5932456 363.3,83.69 C364.601946,80.6897111 365.262728,77.450517 365.24,74.18 C365.25969,70.8903997 364.599206,67.632238 363.3,64.61 C360.855611,58.7285025 356.181498,54.0543888 350.3,51.61 C347.269558,50.3000324 344.001436,49.6293864 340.7,49.6396512 Z" id="Shape" fill="#75B332"></path>
            <path d="M299.53,76.84 C299.62,75.84 299.67,74.92 299.67,73.93 C299.671339,58.9332333 288.820845,46.13784 274.02541,43.6887386 C259.229974,41.2396372 244.835148,49.8561507 240.003971,64.0534301 C235.172795,78.2507095 241.324226,93.8588867 254.542567,100.942563 C267.760908,108.02624 284.163814,104.504876 293.31,92.62 L288.77,88.08 C283.001146,96.3754538 272.707031,100.244133 262.902591,97.8013506 C253.098151,95.3585683 245.822467,87.1123626 244.62,77.08 L299.57,77.08 L299.53,76.84 Z M268.79,49.84 C281.002898,49.8406893 291.324395,58.8917824 292.92,71 L244.66,71 C246.250586,58.8860592 256.572083,49.8264104 268.79,49.82 L268.79,49.84 Z" id="Shape" fill="#75B332"></path>
            <path d="M412.12,43.73 C416.20251,43.7086162 420.245957,44.5254741 424,46.13 C431.368662,49.2517305 437.225331,55.1299315 440.32,62.51 C441.932085,66.3041608 442.752181,70.3876241 442.730438,74.51 L442.730438,103.86 L436.62,103.86 L436.62,74.49 C436.63969,71.2003997 435.979206,67.942238 434.68,64.92 C432.235611,59.0385025 427.561498,54.3643888 421.68,51.92 C418.659393,50.6290073 415.404832,49.9753716 412.12,50 C408.849598,49.9784473 405.610644,50.6391802 402.61,51.94 C399.709867,53.1832297 397.065221,54.9531084 394.81,57.16 C390.176147,61.7556375 387.572816,68.0137124 387.58,74.54 L387.58,103.89 L381.48,103.89 L381.48,74.49 C381.453009,70.3671603 382.273299,66.2827315 383.89,62.49 C385.428013,58.8304762 387.658938,55.5027651 390.46,52.69 C393.262012,49.8966239 396.57115,47.66338 400.21,46.11 C403.974438,44.5072069 408.028686,43.6970383 412.12,43.73 L412.12,43.73 Z" id="Path" fill="#75B332"></path>
            <path d="M180.85,16.24 C186.316607,16.1755323 191.695802,17.6145969 196.4,20.4 C201.003514,23.1229503 204.826706,26.987474 207.5,31.62 L202.1,34.67 C197.816672,26.9712241 189.659522,22.2381573 180.85,22.34 C177.579855,22.3210775 174.341437,22.981701 171.34,24.28 C168.424675,25.527491 165.773995,27.3194998 163.53,29.56 C161.291726,31.8079217 159.497082,34.4574812 158.24,37.37 C156.947081,40.3727821 156.289952,43.6107586 156.31,46.88 L156.31,73.88 C156.280014,77.1889693 156.93721,80.4681396 158.24,83.51 C159.485545,86.4111299 161.282065,89.0430819 163.53,91.26 C165.786619,93.4723988 168.43497,95.2458781 171.34,96.49 C174.342172,97.7848663 177.580561,98.4420787 180.85,98.42 C185.244828,98.4797259 189.570689,97.3238557 193.35,95.08 C196.985413,92.9307438 200.000458,89.8743491 202.1,86.21 L207.5,89.27 C204.799167,93.8472588 200.979691,97.6632934 196.4,100.36 C188.024302,105.216446 177.856976,105.867865 168.93,102.12 C161.576764,99.0062179 155.723782,93.1532361 152.61,85.8 C150.991418,82.0359493 150.170814,77.9771984 150.2,73.88 L150.2,46.88 C150.177203,42.7963445 150.997657,38.751948 152.61,35 C155.731754,27.6521396 161.58214,21.8017542 168.93,18.68 C172.693243,17.0555454 176.751144,16.2249011 180.85,16.24 Z" id="Path" fill="#75B332"></path>
            <path d="M79.2,70.61 L85.31,71.7 L85.42,71.16 C85.6346215,70.0957605 85.7584003,69.0152049 85.79,67.93 C86.0327677,63.358071 84.3626753,58.8912078 81.18,55.6 L70.18,44.6 L65.92,48.85 L75.4,58.32 C77.9283595,60.769992 79.3995935,64.1107698 79.5,67.63 C79.508388,68.4444336 79.4414362,69.2578977 79.3,70.06 L79.2,70.61 Z" id="Path" fill="#74B332"></path>
            <polygon id="Path" fill="#74B332" points="33.56 70 68.16 35.26 63.76 30.86 54.05 40.57 44.78 31.3 40.69 35.39 49.96 44.66 42.89 51.73 33.62 42.46 29.53 46.55 38.8 55.82 29.09 65.53"></polygon>
            <path d="M113.84,60 C113.9276,69.8461838 111.208116,79.5135332 106,87.87 C103.39826,92.0604326 100.2243,95.8671661 96.57,99.18 C94.2555464,101.290758 91.7554167,103.188447 89.1,104.85 C88.95,105.39 88.8,105.92 88.61,106.44 C87.4575613,109.655139 85.6570242,112.599307 83.32,115.09 C105.440178,105.597589 119.78,83.8408981 119.78,59.77 C119.769319,53.7392131 118.831705,47.7458996 117,42 C115.586005,37.556743 113.66325,33.2917835 111.27,29.29 C101.562531,13.0046523 84.6979125,2.29725276 65.83,0.44 C63.8833333,0.246666667 61.94,0.153333333 60,0.159666667 C27.3104651,0.358689975 0.827854606,26.7501694 0.51648205,59.4388251 C0.205109493,92.1274809 26.1801815,119.018641 58.86,119.84 L60,119.84 C69.1178224,119.771067 77.4749872,114.743552 81.8079179,106.720763 C86.1408485,98.6979732 85.7622616,88.9524727 80.82,81.29 L80.82,81.29 C79.7559972,79.7194608 78.5033037,78.2854122 77.09,77.02 L76.51,76.47 L75.6,77.4 C73.1327642,79.8261776 69.8000721,81.1686119 66.34,81.13 L66.13,81.13 C62.5825041,81.086329 59.1878858,79.6790663 56.65,77.2 L47.12,67.66 L42.76,72 L52.76,82 C56.3363691,85.5485151 61.1820773,87.5213591 66.22,87.48 L66.4,87.48 C70.12,87.48 73.19,87 76.05,85.23 C77.7856369,88.1249822 78.7080506,91.4346164 78.72,94.81 C78.6925506,105.260505 70.2304887,113.727034 59.78,113.76 L59.35,113.81 C38.5370981,113.577715 19.7254312,101.360931 11.0483467,82.4416535 C2.37126227,63.5223764 5.3857049,41.2953259 18.7883606,25.3705131 C32.1910162,9.44570037 53.5770228,2.68054253 73.7,8 C78.0616016,9.15316601 82.2586684,10.8568592 86.19,13.07 C97.9843174,19.6805262 106.869688,30.4750029 111.09,43.32 C112.860775,48.7050584 113.788396,54.3315051 113.84,60 Z" id="Path" fill="#74B332"></path>
        </g>
    </g>
</svg>