<?xml version="1.0" encoding="UTF-8"?>
<svg width="77px" height="82px" viewBox="0 0 77 82" version="1.1" xmlns="http://www.w3.org/2000/svg" xmlns:xlink="http://www.w3.org/1999/xlink">
    <title>photo-solar</title>
    <g id="Page-1" stroke="none" stroke-width="1" fill="none" fill-rule="evenodd">
        <g id="photo-solar" transform="translate(3.000000, 3.000000)" stroke="#1B9BC5" stroke-width="5">
            <polyline id="Path_469" stroke-linecap="round" points="18.8578958 26.7056145 50.3493542 26.7056145 53.3150833 62.3860729 0.369791667 62.3860729 3.33552083 26.7056145 12.7282292 26.7056145"></polyline>
            <g id="Group_82" transform="translate(21.012302, 62.383114)">
                <line x1="0.739583333" y1="4.34505208" x2="0.739583333" y2="12.4109479" id="Line_69"></line>
                <line x1="10.9214271" y1="0" x2="10.9214271" y2="12.4116875" id="Line_70"></line>
            </g>
            <line x1="39.5928542" y1="74.9885729" x2="14.0920208" y2="74.9885729" id="Line_71" stroke-linecap="round"></line>
            <polygon id="Path_470" points="8.93342708 54.6766563 10.5708645 34.4120729 43.1125312 34.4120729 44.7507083 54.6766563"></polygon>
            <line x1="27.1493646" y1="44.5088645" x2="43.8883542" y2="44.5088645" id="Line_72"></line>
            <line x1="9.79873954" y1="44.5088645" x2="22.547677" y2="44.5088645" id="Line_73"></line>
            <line x1="26.8439167" y1="34.4091145" x2="26.8439167" y2="54.524302" id="Line_74"></line>
            <g id="Group_87" stroke-linecap="round" transform="translate(31.328750, 0.607198)">
                <g id="Group_83" transform="translate(0.000000, 15.937281)">
                    <line x1="33.9564895" y1="5.47661458" x2="38.7578645" y2="6.1459375" id="Line_75"></line>
                    <line x1="0" y1="0.739583333" x2="4.79915625" y2="1.40890625" id="Line_76"></line>
                </g>
                <g id="Group_84" transform="translate(7.585906, 3.765219)">
                    <line x1="20.6624792" y1="27.3608854" x2="23.5830937" y2="31.2303854" id="Line_77"></line>
                    <line x1="0" y1="0" x2="2.92283333" y2="3.86728125" id="Line_78"></line>
                </g>
                <g id="Group_85" transform="translate(20.672094, 0.000000)">
                    <line x1="1.40890625" y1="0" x2="0.739583333" y2="4.801375" id="Line_79"></line>
                </g>
                <g id="Group_86" transform="translate(31.126104, 7.588125)">
                    <line x1="3.86728125" y1="0" x2="0" y2="2.92061458" id="Line_80"></line>
                </g>
            </g>
            <path d="M41.8256562,21.5322292 C41.7391995,21.0314724 41.6954895,20.5242487 41.6954895,20.0160833 C41.6954895,15.6742665 44.787685,11.9480732 49.0550915,11.1476881 C53.3224979,10.347303 57.5548374,12.6997127 59.1281222,16.7464581 C60.7014071,20.7932035 59.1694588,25.3866404 55.4820625,27.6789062" id="Path_471"></path>
        </g>
    </g>
</svg>