<?xml version="1.0" encoding="UTF-8"?>
<svg width="96px" height="98px" viewBox="0 0 96 98" version="1.1" xmlns="http://www.w3.org/2000/svg" xmlns:xlink="http://www.w3.org/1999/xlink">
    <title>photo-zero-carbon</title>
    <g id="Page-1" stroke="none" stroke-width="1" fill="none" fill-rule="evenodd">
        <g id="photo-zero-carbon" transform="translate(3.000000, 3.000000)" stroke="#2B2B2B" stroke-width="5">
            <line x1="31.2244898" y1="9.89632653" x2="58.7755102" y2="9.89632653" id="Line_27"></line>
            <path d="M9.83663265,54.377449 L13.2612245,55.5189796 C15.6511418,56.3160876 18.154025,56.7223294 20.6733673,56.7220412 L69.3257143,56.7220412 C71.8450566,56.7223294 74.3479398,56.3160876 76.7378571,55.5189796 L80.1642857,54.377449" id="Path_289"></path>
            <path d="M9.83663265,23.9014286 L12.1178571,22.3778571 C15.2023201,20.3148067 18.8296012,19.2134223 22.5404082,19.2131633 L67.4614286,19.2131633 C71.1722356,19.2134223 74.7995167,20.3148067 77.8839796,22.3778571 L80.1652041,23.9014286" id="Path_290"></path>
            <path d="M9.83662811,77.8196939 L9.83662811,9.83663265 C9.83662811,7.34957855 10.8246111,4.96438771 12.5832239,3.20577489 C14.3418367,1.44716207 16.7270275,0.459183673 19.2140816,0.459183673 L70.7877551,0.459183673 C75.9667772,0.459183673 80.1652086,4.65761059 80.1652086,9.83663265 L80.1652086,77.8196939 C80.166424,79.0634728 79.6728751,80.2566603 78.7933901,81.1361452 C77.9139052,82.0156302 76.7207177,82.5091791 75.4769388,82.5079637 L14.524898,82.5079637 C13.2811191,82.5091791 12.0879315,82.0156302 11.2084466,81.1361452 C10.3289617,80.2566603 9.83541269,79.0634728 9.83662811,77.8196939 L9.83662811,77.8196939 Z" id="Path_291"></path>
            <path d="M14.524898,82.5079592 L14.524898,89.5408163 C14.5254048,90.8354886 15.5748175,91.8849012 16.8694898,91.8854082 L26.2469388,91.8854082 C27.5416111,91.8849012 28.5910238,90.8354886 28.5915306,89.5408163 L28.5915306,82.5079592" id="Path_292"></path>
            <path d="M61.4093878,82.5079592 L61.4093878,89.5408163 C61.4098946,90.8354886 62.4593073,91.8849012 63.7539796,91.8854082 L73.1314286,91.8854082 C74.4261009,91.8849012 75.4755136,90.8354886 75.4760204,89.5408163 L75.4760204,82.5079592" id="Path_293"></path>
            <line x1="45" y1="19.08" x2="45" y2="53.9779592" id="Line_28"></line>
            <path d="M70.7868413,66.0985714 L70.7868413,68.4431633 C70.7880567,69.6869421 70.2945077,70.8801297 69.4150228,71.7596146 C68.5355379,72.6390996 67.3423503,73.1326485 66.0985714,73.1314331 L63.7539796,73.1314331" id="Path_294"></path>
            <path d="M19.2131587,66.0985714 L19.2131587,68.4431633 C19.2119433,69.6869421 19.7054923,70.8801297 20.5849772,71.7596146 C21.4644621,72.6390996 22.6576497,73.1326485 23.9014286,73.1314331 L26.2460204,73.1314331" id="Path_295"></path>
            <path d="M84.852551,30.9342857 L87.1971429,30.9342857 C88.4918152,30.9347926 89.5412278,31.9842052 89.5417347,33.2788776 L89.5417347,45 C89.5412278,46.2946723 88.4918152,47.344085 87.1971429,47.3445918 L84.852551,47.3445918" id="Path_296" stroke-linejoin="round"></path>
            <path d="M5.14744898,30.9342857 L2.80285714,30.9342857 C1.50854348,30.9352991 0.459690056,31.9845636 0.459183673,33.2788776 L0.459183673,45 C0.459690494,46.2946723 1.50910318,47.344085 2.80377551,47.3445918 L5.14836735,47.3445918" id="Path_297" stroke-linejoin="round"></path>
            <line x1="35.8163265" y1="73.2636735" x2="54.1836735" y2="73.2636735" id="Line_29"></line>
        </g>
    </g>
</svg>