<?xml version="1.0" encoding="UTF-8"?>
<svg width="60px" height="79px" viewBox="0 0 60 79" version="1.1" xmlns="http://www.w3.org/2000/svg" xmlns:xlink="http://www.w3.org/1999/xlink">
    <title>photo-waste</title>
    <g id="Page-1" stroke="none" stroke-width="1" fill="none" fill-rule="evenodd">
        <g id="photo-waste" transform="translate(4.000000, 4.000000)" stroke="#1B9BC5" stroke-width="7">
            <path d="M48.347,19.5556111 L48.347,64.3435 C48.347,67.8771099 45.4824432,70.7416667 41.9488333,70.7416667 L9.95438886,70.7416667 C6.42190728,70.739673 3.55983333,67.8752599 3.55983333,64.3427778 L3.55983333,19.5556111" id="Path_394"></path>
            <path d="M41.4505,19.5563333 L3.56055555,19.5563333 C2.71189266,19.5567167 1.89787865,19.2197565 1.2977833,18.6196611 C0.697687942,18.0195658 0.361110784,17.2055517 0.361110784,16.3568889 L0.361110784,13.1574445 C0.361110784,12.3089067 0.697964251,11.4950782 1.29803881,10.8951391 C1.89811339,10.2952001 2.71201783,9.95833895 3.56055555,9.95872117 L48.3477222,9.95872117 C49.1963851,9.95833878 50.0103991,10.295299 50.6104945,10.8953944 C51.2105898,11.4954898 51.547167,12.3095038 51.547167,13.1581667 L51.547167,16.3576111 C51.547167,17.206274 51.2105898,18.020288 50.6104945,18.6203833 C50.0103991,19.2204787 49.1963851,19.5574389 48.3477222,19.5570565" id="Path_395"></path>
            <path d="M14.7571656,9.95872219 L14.7571656,3.56055555 C14.7567833,2.71189266 15.0937435,1.89787865 15.6938389,1.2977833 C16.2939342,0.697687942 17.1079482,0.360727708 17.9566111,0.361110132 L33.9516667,0.361110132 C34.8003295,0.360727708 35.6143435,0.697687942 36.214439,1.2977833 C36.8145342,1.89787865 37.1514946,2.71189266 37.1511122,3.56055555 L37.1511122,9.95872219" id="Path_396"></path>
            <line x1="14.8488889" y1="33.6331667" x2="14.8488889" y2="53.1331667" id="Line_36"></line>
            <line x1="25.6822222" y1="33.6331667" x2="25.6822222" y2="53.1331667" id="Line_37"></line>
            <line x1="37.2377778" y1="33.6331667" x2="37.2377778" y2="53.1331667" id="Line_38"></line>
        </g>
    </g>
</svg>