<?xml version="1.0" encoding="UTF-8"?>
<svg width="67px" height="80px" viewBox="0 0 67 80" version="1.1" xmlns="http://www.w3.org/2000/svg" xmlns:xlink="http://www.w3.org/1999/xlink">
    <title>photo-geo</title>
    <g id="Page-1" stroke="none" stroke-width="1" fill="none" fill-rule="evenodd">
        <g id="photo-geo" transform="translate(1.000000, 5.000000)" stroke="#1B9BC5" stroke-width="5">
            <path d="M3.367375,74.48525 C3.367375,71.035725 6.467375,71.035725 6.467375,67.58775 C6.467375,64.139775 3.367375,64.138225 3.367375,60.69025 C3.367375,57.242275 6.467375,57.23995 6.467375,53.79275 C6.467375,50.34555 3.367375,50.3409 3.367375,46.88905 C3.367375,43.4372 6.467375,43.43875 6.467375,39.99155 C6.467375,36.54435 3.367375,36.53815 3.367375,33.085525 C3.367375,29.6329 6.467375,29.6329 6.467375,26.1795" id="Path_476"></path>
            <path d="M19.913625,59.76025 C19.913625,56.310725 23.013625,56.310725 23.013625,52.86275 C23.013625,49.414775 19.913625,49.413225 19.913625,45.96525 C19.913625,42.517275 23.013625,42.51495 23.013625,39.06775 C23.013625,35.62055 19.913625,35.6159 19.913625,32.16405 C19.913625,28.7122 23.013625,28.71375 23.013625,25.26655 C23.013625,21.81935 19.913625,21.81315 19.913625,18.360525 C19.913625,14.9079 23.013625,14.9079 23.013625,11.4545" id="Path_477"></path>
            <polyline id="Path_478" points="0.3875 25.48975 11.382425 25.48975 5.597825 15.1125 2.0274 20.61965"></polyline>
            <polyline id="Path_479" points="18.149725 10.76475 28.8858 10.76475 23.101975 0.3875 19.85085 5.827225"></polyline>
            <path d="M35.95535,74.48525 C35.95535,71.035725 39.05535,71.035725 39.05535,67.58775 C39.05535,64.139775 35.95535,64.138225 35.95535,60.69025 C35.95535,57.242275 39.05535,57.23995 39.05535,53.79275 C39.05535,50.34555 35.95535,50.3409 35.95535,46.88905 C35.95535,43.4372 39.05535,43.43875 39.05535,39.99155 C39.05535,36.54435 35.95535,36.53815 35.95535,33.085525 C35.95535,29.6329 39.05535,29.6329 39.05535,26.1795" id="Path_480"></path>
            <path d="M52.5016,59.76025 C52.5016,56.310725 55.6016,56.310725 55.6016,52.86275 C55.6016,49.414775 52.5016,49.413225 52.5016,45.96525 C52.5016,42.517275 55.6016,42.51495 55.6016,39.06775 C55.6016,35.62055 52.5016,35.6159 52.5016,32.16405 C52.5016,28.7122 55.6016,28.71375 55.6016,25.26655 C55.6016,21.81935 52.5016,21.81315 52.5016,18.360525 C52.5016,14.9079 55.6016,14.9079 55.6016,11.4545" id="Path_481"></path>
            <polyline id="Path_482" points="33.314925 25.48975 43.9673 25.48975 38.183475 15.1125 35.0982 20.212"></polyline>
            <polyline id="Path_483" points="50.543175 10.76475 61.470675 10.76475 55.68685 0.3875 52.3652 5.61565"></polyline>
        </g>
    </g>
</svg>