<?xml version="1.0" encoding="UTF-8"?>
<svg width="99px" height="99px" viewBox="0 0 99 99" version="1.1" xmlns="http://www.w3.org/2000/svg" xmlns:xlink="http://www.w3.org/1999/xlink">
    <title>photo-multiple-vehicle-platforms</title>
    <g id="Page-1" stroke="none" stroke-width="1" fill="none" fill-rule="evenodd">
        <g id="photo-multiple-vehicle-platforms" transform="translate(2.000000, 3.000000)" stroke="#2B2B2B" stroke-width="5">
            <path d="M74.1594609,9.13925217 C55.1924301,-4.44207463 29.0986539,-1.87145901 13.1464338,15.1499207 C-2.80578622,32.1713005 -3.68061276,58.3767942 11.1008957,76.424168 C25.8824041,94.4715416 51.7466445,98.7766885 71.5772171,86.490555 C91.4077898,74.2044212 99.0688413,49.1285063 89.4904522,27.857513" id="Path_91"></path>
            <g id="Group_21" transform="translate(26.293026, 7.859217)">
                <path d="M65.7092696,11.4165043 C66.0780413,5.98253029 62.3017521,1.14033865 56.9416656,0.17414011 C51.5815791,-0.792058432 46.3522222,2.42679333 44.8004,7.64751304 C39.9744789,2.64228761 32.407623,1.45951411 26.2844861,4.75329483 C20.1613494,8.04707554 16.9777501,15.0127742 18.4942957,21.7981913 C11.0740123,24.2092602 6.59676792,31.7539003 8.03558008,39.422256 C9.47439225,47.0906115 16.3820313,52.499108 24.1716284,52.0563498 C31.9612255,51.6135918 38.2115203,45.4572026 38.7721391,37.6752 C40.3117563,38.72669 42.1022652,39.3519157 43.9617565,39.4873565 C48.5282874,39.8118048 52.7920978,37.1844143 54.5553022,32.9595379 C56.3185067,28.7346615 55.1873669,23.8557495 51.7449565,20.8377565 C52.5764149,21.1209677 53.440003,21.2991772 54.3156522,21.3682435 C60.2099715,21.766294 65.3109989,17.3108088 65.7092696,11.4165043 Z" id="Path_92"></path>
                <polyline id="Path_93" points="0 80.5547304 0 59.8477565 6.47128696 53.3764696"></polyline>
            </g>
            <line x1="16.8390783" y1="11.4933391" x2="80.7329217" y2="75.3871826" id="Line_15"></line>
        </g>
    </g>
</svg>