<?xml version="1.0" encoding="UTF-8"?>
<svg width="87px" height="66px" viewBox="0 0 87 66" version="1.1" xmlns="http://www.w3.org/2000/svg" xmlns:xlink="http://www.w3.org/1999/xlink">
    <title>photo-wind</title>
    <g id="Page-1" stroke="none" stroke-width="1" fill="none" fill-rule="evenodd">
        <g id="photo-wind" transform="translate(0.000000, 3.000000)" stroke="#1B9BC5" stroke-width="5">
            <line x1="8.78819417" y1="25.5098667" x2="0.40776699" y2="25.5098667" id="Line_81"></line>
            <path d="M64.3032233,14.5114667 C64.3036737,8.43849203 68.6056337,3.51586671 73.9121165,3.51586671 C79.2185992,3.51586671 83.520466,8.43911425 83.520466,14.5120889 C83.520466,20.5850636 79.2191429,25.5084179 73.9126602,25.5089333 L17.6612038,25.5089333" id="Path_472"></path>
            <line x1="15.7430679" y1="36.5101333" x2="0.40776699" y2="36.5101333" id="Line_82"></line>
            <path d="M51.0491651,46.7441333 C51.0488351,50.8853723 53.2283483,54.6190482 56.5713657,56.2040933 C59.914383,57.7891385 63.7625262,56.913392 66.32135,53.9852273 C68.8801738,51.0570626 69.64574,46.6531563 68.2610538,42.8271141 C66.8763677,39.001072 63.6141312,36.5064 59.9955728,36.5064 L25.9339806,36.5064" id="Path_473"></path>
            <path d="M27.5748349,53.9457333 C27.5728556,56.5531587 28.9437233,58.9051173 31.0480289,59.904593 C33.1523344,60.9040687 35.5755295,60.3541647 37.1873712,58.5113709 C38.7992129,56.668577 39.2821684,53.8959239 38.4109743,51.4866509 C37.5397801,49.0773778 35.4860618,47.5061119 33.2077281,47.5057333 L10.1525825,47.5057333" id="Path_474"></path>
            <path d="M40.152,7.48813333 C40.1524504,3.60925349 42.9003963,0.46521798 46.2897087,0.465733457 C49.6790212,0.466248935 52.4262367,3.6111202 52.4257863,7.49000004 C52.4253359,11.3688799 49.6773902,14.5129154 46.2880776,14.5124 L10.1525825,14.5124" id="Path_475"></path>
        </g>
    </g>
</svg>