<svg width="232" height="92" viewBox="0 0 232 92" fill="none" xmlns="http://www.w3.org/2000/svg">
<g clip-path="url(#clip0)">
<path d="M229.805 51.9585C229.048 58.8493 225.589 64.4451 220.414 69.0117C224.538 64.7382 227.416 59.5445 228.596 53.2331C231.355 38.4972 222.822 22.2415 206.43 13.4218C190.157 4.66349 167.981 2.25751 148.453 0.819367C123.076 -1.05499 97.3757 0.38997 72.4507 4.26817C56.9164 6.68098 42.0278 10.8591 28.5875 17.1637C16.6784 22.7595 4.25282 30.6522 0.830478 41.244C-2.89628 52.7696 6.49441 63.6885 18.5234 70.4566C34.9432 79.6921 55.8924 84.3746 75.7623 87.6666C99.0085 91.5176 122.808 93.0034 146.543 91.3131C161.69 90.2362 176.957 88.5186 191.375 84.8108C204.797 81.362 218.32 75.9366 225.93 66.7216C229.639 62.2368 231.502 57.1794 232 51.9585C232.093 50.9157 229.915 50.9293 229.805 51.9585ZM15.8851 27.1693C41.1976 8.90975 79.6828 3.82515 113.537 2.50969C135.824 1.64408 158.692 2.91864 180.305 7.20579C200 11.1181 215.737 19.2016 222.785 33.8216C230.008 48.7755 225.257 66.8443 206.734 76.0661C191.67 83.5567 172.123 85.0834 154.458 85.8332C130.409 86.8555 106.204 85.4378 82.4225 82.8001C63.7426 80.7281 43.8635 78.5334 27.2499 71.4654C17.1397 67.1714 6.2638 59.7899 5.63652 50.5272C5.21219 44.1407 9.95366 38.3882 15.6822 33.8898C31.6962 21.335 56.0031 14.3556 78.0408 9.91168C99.645 5.54955 125.179 2.26432 147.198 6.94679C151.294 7.81922 155.233 9.0597 158.747 10.8591C159.162 11.0704 159.541 10.5796 159.144 10.3615C151.248 6.10163 141.156 4.60897 131.599 4.00917C118.758 3.20491 105.789 4.10459 93.16 5.82218C67.8015 9.26417 40.9577 15.9232 20.6635 28.0418C13.376 32.3903 6.38372 37.9792 3.92074 44.8496C3.35803 46.4309 3.09974 48.0053 3.09052 49.5593C1.64225 41.1213 7.463 33.2354 15.8851 27.1693ZM49.6566 80.1897C53.0697 80.8644 56.492 81.4506 59.8683 81.9686C83.5387 85.6219 107.91 87.7961 132.088 88.2119C143.084 88.3959 155.786 88.3414 168.304 87.2168C167.474 87.3326 166.662 87.4349 165.841 87.5439C127.125 92.4581 86.6751 90.1203 49.6566 80.1897Z" fill="#2129F1"/>
</g>
<defs>
<clipPath id="clip0">
<rect width="232" height="92" fill="white"/>
</clipPath>
</defs>
</svg>
