<svg width="60" height="60" viewBox="0 0 60 60" fill="none" xmlns="http://www.w3.org/2000/svg">
<g clip-path="url(#clip0)">
<path d="M57 12.9999H3V2.90002C3 1.79998 3.80004 1.00006 4.89996 1.00006H55.2C56.2 1.00006 57.1 1.8001 57.1 2.90002V13.0001H57V12.9999Z" fill="white"/>
<path d="M44 59H55.0001C56.1001 59 57.0001 58.0001 57.0001 56.8001V13.0001H3V56.8001C3 58.0001 3.9 59 5.00004 59H16.0001H44Z" fill="#FCC419"/>
<path d="M22.9996 15.9999C22.9996 16.5519 23.4476 16.9999 23.9996 16.9999C24.5515 16.9999 24.9995 16.5519 24.9995 15.9999C24.9995 15.448 24.5515 15 23.9996 15C23.4476 15 22.9996 15.4478 22.9996 15.9999Z" fill="#212529"/>
<path d="M16.9998 15.9999C16.9998 16.5519 17.4477 16.9999 17.9997 16.9999C18.5517 16.9999 18.9996 16.5519 18.9996 15.9999C18.9996 15.448 18.5517 15 17.9997 15C17.4477 15 16.9998 15.4478 16.9998 15.9999Z" fill="#212529"/>
<path d="M13.9999 18.9999C13.9999 19.5519 14.4478 19.9999 14.9998 19.9999C15.5518 19.9999 15.9997 19.5519 15.9997 18.9999C15.9997 18.448 15.5518 18 14.9998 18C14.4478 18 13.9999 18.448 13.9999 18.9999Z" fill="#212529"/>
<path d="M8 16.9999C8 17.5519 8.44796 17.9999 8.99994 17.9999C9.55191 17.9999 9.99987 17.5519 9.99987 16.9999C9.99987 16.448 9.55191 16 8.99994 16C8.44796 16 8 16.448 8 16.9999Z" fill="#212529"/>
<path d="M25.9995 18.9999C25.9995 19.5519 26.4475 19.9999 26.9994 19.9999C27.5514 19.9999 27.9994 19.5519 27.9994 18.9999C27.9994 18.448 27.5514 18 26.9994 18C26.4476 17.9999 25.9995 18.448 25.9995 18.9999Z" fill="#212529"/>
<path d="M19.9998 18.9999C19.9998 19.5519 20.4477 19.9999 20.9997 19.9999C21.5517 19.9999 21.9996 19.5519 21.9996 18.9999C21.9996 18.448 21.5517 18 20.9997 18C20.4477 18 19.9998 18.448 19.9998 18.9999Z" fill="#212529"/>
<path d="M7.99988 24.9998C7.99988 25.5518 8.44784 25.9997 8.99981 25.9997C9.55178 25.9997 9.99975 25.5518 9.99975 24.9998C9.99975 24.4478 9.55178 23.9999 8.99981 23.9999C8.44796 23.9998 7.99988 24.4477 7.99988 24.9998Z" fill="#212529"/>
<path d="M4.99988 27.9998C4.99988 28.5518 5.44784 28.9997 5.99981 28.9997C6.55178 28.9997 6.99975 28.5518 6.99975 27.9998C6.99975 27.4478 6.55178 26.9999 5.99981 26.9999C5.44784 26.9999 4.99988 27.4478 4.99988 27.9998Z" fill="#212529"/>
<path d="M13.9999 24.9998C13.9999 25.5518 14.4478 25.9997 14.9998 25.9997C15.5518 25.9997 15.9997 25.5518 15.9997 24.9998C15.9997 24.4478 15.5518 23.9999 14.9998 23.9999C14.4478 23.9999 13.9999 24.4477 13.9999 24.9998Z" fill="#212529"/>
<path d="M10.9999 21.9998C10.9999 22.5518 11.4478 22.9997 11.9998 22.9997C12.5518 22.9997 12.9997 22.5518 12.9997 21.9998C12.9997 21.4478 12.5518 20.9999 11.9998 20.9999C11.4478 20.9999 10.9999 21.4478 10.9999 21.9998Z" fill="#212529"/>
<path d="M5 19.9998C5 20.5518 5.44796 20.9997 5.99993 20.9997C6.55191 20.9997 6.99987 20.5518 6.99987 19.9998C6.99987 19.4478 6.55191 18.9999 5.99993 18.9999C5.44796 18.9999 5 19.4478 5 19.9998Z" fill="#212529"/>
<path d="M10.9999 27.9998C10.9999 28.5518 11.4478 28.9997 11.9998 28.9997C12.5518 28.9997 12.9997 28.5518 12.9997 27.9998C12.9997 27.4478 12.5518 26.9999 11.9998 26.9999C11.4478 26.9998 10.9999 27.4478 10.9999 27.9998Z" fill="#212529"/>
<path d="M25.9995 24.9998C25.9995 25.5518 26.4475 25.9997 26.9994 25.9997C27.5514 25.9997 27.9994 25.5518 27.9994 24.9998C27.9994 24.4478 27.5514 23.9999 26.9994 23.9999C26.4476 23.9998 25.9995 24.4477 25.9995 24.9998Z" fill="#212529"/>
<path d="M19.9998 24.9998C19.9998 25.5518 20.4477 25.9997 20.9997 25.9997C21.5517 25.9997 21.9996 25.5518 21.9996 24.9998C21.9996 24.4478 21.5517 23.9999 20.9997 23.9999C20.4477 23.9999 19.9998 24.4477 19.9998 24.9998Z" fill="#212529"/>
<path d="M22.9996 21.9998C22.9996 22.5518 23.4476 22.9997 23.9996 22.9997C24.5515 22.9997 24.9995 22.5518 24.9995 21.9998C24.9995 21.4478 24.5515 20.9999 23.9996 20.9999C23.4476 20.9999 22.9996 21.4478 22.9996 21.9998Z" fill="#212529"/>
<path d="M16.9998 21.9998C16.9998 22.5518 17.4477 22.9997 17.9997 22.9997C18.5517 22.9997 18.9996 22.5518 18.9996 21.9998C18.9996 21.4478 18.5517 20.9999 17.9997 20.9999C17.4477 20.9999 16.9998 21.4478 16.9998 21.9998Z" fill="#212529"/>
<path d="M22.9996 27.9998C22.9996 28.5518 23.4476 28.9997 23.9996 28.9997C24.5515 28.9997 24.9995 28.5518 24.9995 27.9998C24.9995 27.4478 24.5515 26.9999 23.9996 26.9999C23.4476 26.9999 22.9996 27.4478 22.9996 27.9998Z" fill="#212529"/>
<path d="M16.9998 27.9998C16.9998 28.5518 17.4477 28.9997 17.9997 28.9997C18.5517 28.9997 18.9996 28.5518 18.9996 27.9998C18.9996 27.4478 18.5517 26.9999 17.9997 26.9999C17.4477 26.9999 16.9998 27.4478 16.9998 27.9998Z" fill="#212529"/>
<path d="M7.99988 30.9997C7.99988 31.5517 8.44784 31.9996 8.99981 31.9996C9.55178 31.9996 9.99975 31.5517 9.99975 30.9997C9.99975 30.4477 9.55178 29.9998 8.99981 29.9998C8.44796 29.9998 7.99988 30.4477 7.99988 30.9997Z" fill="#212529"/>
<path d="M13.9999 30.9997C13.9999 31.5517 14.4478 31.9996 14.9998 31.9996C15.5518 31.9996 15.9997 31.5517 15.9997 30.9997C15.9997 30.4477 15.5518 29.9998 14.9998 29.9998C14.4478 29.9998 13.9999 30.4477 13.9999 30.9997Z" fill="#212529"/>
<path d="M25.9995 30.9997C25.9995 31.5517 26.4475 31.9996 26.9994 31.9996C27.5514 31.9996 27.9994 31.5517 27.9994 30.9997C27.9994 30.4477 27.5514 29.9998 26.9994 29.9998C26.4476 29.9998 25.9995 30.4477 25.9995 30.9997Z" fill="#212529"/>
<path d="M19.9998 30.9997C19.9998 31.5517 20.4477 31.9996 20.9997 31.9996C21.5517 31.9996 21.9996 31.5517 21.9996 30.9997C21.9996 30.4477 21.5517 29.9998 20.9997 29.9998C20.4477 29.9998 19.9998 30.4477 19.9998 30.9997Z" fill="#212529"/>
<path d="M7.99988 36.9997C7.99988 37.5517 8.44784 37.9996 8.99981 37.9996C9.55178 37.9996 9.99975 37.5517 9.99975 36.9997C9.99975 36.4477 9.55178 35.9998 8.99981 35.9998C8.44796 35.9996 7.99988 36.4477 7.99988 36.9997Z" fill="#212529"/>
<path d="M4.99988 33.9997C4.99988 34.5517 5.44784 34.9996 5.99981 34.9996C6.55178 34.9996 6.99975 34.5517 6.99975 33.9997C6.99975 33.4477 6.55178 32.9998 5.99981 32.9998C5.44784 32.9998 4.99988 33.4476 4.99988 33.9997Z" fill="#212529"/>
<path d="M2 36.9997C2 37.5517 2.44796 37.9996 2.99993 37.9996C3.55191 37.9996 3.99987 37.5517 3.99987 36.9997C3.99987 36.4477 3.55191 35.9998 2.99993 35.9998C2.44796 35.9998 2 36.4477 2 36.9997Z" fill="#212529"/>
<path d="M13.9999 36.9997C13.9999 37.5517 14.4478 37.9996 14.9998 37.9996C15.5518 37.9996 15.9997 37.5517 15.9997 36.9997C15.9997 36.4477 15.5518 35.9998 14.9998 35.9998C14.4478 35.9998 13.9999 36.4477 13.9999 36.9997Z" fill="#212529"/>
<path d="M10.9999 33.9997C10.9999 34.5517 11.4478 34.9996 11.9998 34.9996C12.5518 34.9996 12.9997 34.5517 12.9997 33.9997C12.9997 33.4477 12.5518 32.9998 11.9998 32.9998C11.4478 32.9996 10.9999 33.4476 10.9999 33.9997Z" fill="#212529"/>
<path d="M19.9998 36.9997C19.9998 37.5517 20.4477 37.9996 20.9997 37.9996C21.5517 37.9996 21.9996 37.5517 21.9996 36.9997C21.9996 36.4477 21.5517 35.9998 20.9997 35.9998C20.4477 35.9998 19.9998 36.4477 19.9998 36.9997Z" fill="#212529"/>
<path d="M22.9996 33.9997C22.9996 34.5517 23.4476 34.9996 23.9996 34.9996C24.5515 34.9996 24.9995 34.5517 24.9995 33.9997C24.9995 33.4477 24.5515 32.9998 23.9996 32.9998C23.4476 32.9998 22.9996 33.4476 22.9996 33.9997Z" fill="#212529"/>
<path d="M16.9998 33.9997C16.9998 34.5517 17.4477 34.9996 17.9997 34.9996C18.5517 34.9996 18.9996 34.5517 18.9996 33.9997C18.9996 33.4477 18.5517 32.9998 17.9997 32.9998C17.4477 32.9998 16.9998 33.4476 16.9998 33.9997Z" fill="#212529"/>
<path d="M2.99992 56.7999V12.9999V2.90002C2.99992 1.79998 3.79996 1.00006 4.89988 1.00006H2.89996C1.79992 1.00006 1 1.8001 1 2.90002V13.0001V56.8001C1 58.0001 1.99996 59 3.19996 59H4.99996C3.89992 59 2.99992 57.9999 2.99992 56.7999Z" fill="white"/>
<path d="M57.0999 0.999939H55.0999C56.0999 0.999939 56.9999 1.79998 56.9999 2.8999V12.9999V56.7999C56.9999 57.9999 56.0999 58.9999 54.9998 58.9999H56.7998C57.9998 58.9999 58.9998 57.9999 58.9998 56.7999V12.9999V2.90002C59 1.79998 58.2 0.999939 57.0999 0.999939Z" fill="white"/>
<path d="M9.99994 6.99994C9.99994 8.69998 8.69998 9.99994 6.99994 9.99994C5.2999 9.99994 3.99994 8.69998 3.99994 6.99994C3.99994 5.2999 5.2999 3.99994 6.99994 3.99994C8.69998 3.99994 9.99994 5.30002 9.99994 6.99994Z" fill="#FCC419"/>
<path d="M18.9999 6.99994C18.9999 8.69998 17.6999 9.99994 15.9999 9.99994C14.2998 9.99994 12.9999 8.69998 12.9999 6.99994C12.9999 5.2999 14.2998 3.99994 15.9999 3.99994C17.6999 3.99994 18.9999 5.30002 18.9999 6.99994Z" fill="#FCC419"/>
<path d="M27.9999 6.99994C27.9999 8.69998 26.7 9.99994 24.9999 9.99994C23.2999 9.99994 21.9999 8.69998 21.9999 6.99994C21.9999 5.2999 23.2999 3.99994 24.9999 3.99994C26.7 3.99994 27.9999 5.30002 27.9999 6.99994Z" fill="#FCC419"/>
<path d="M54 36C54 38.1999 52.2 39.9999 50.0001 39.9999C47.8001 39.9999 46.0001 38.1999 46.0001 36C46.0001 33.8 47.8001 32 50.0001 32C52.2 32 54 33.8 54 36Z" fill="white"/>
<path d="M31 45C31 47.1999 29.2 48.9999 27 48.9999C24.8001 48.9999 23.0001 47.1999 23.0001 45C23.0001 42.8 24.8001 41 27 41C29.2 41 31 42.8 31 45Z" fill="white"/>
<path d="M14.0001 36C14.0001 38.1999 12.2001 39.9999 10.0001 39.9999C7.80018 39.9999 6.00006 38.1999 6.00006 36C6.00006 33.8 7.80006 32 10 32C12.2 32 14.0001 33.8 14.0001 36Z" fill="white"/>
<path d="M40 26C40 28.2 38.2 30 36.0001 30C33.8001 30 32.0001 28.2 32.0001 26C32.0001 23.8001 33.8001 22.0001 36.0001 22.0001C38.2 22.0001 40 23.7999 40 26Z" fill="white"/>
<path d="M6.99996 11C4.8 11 3 9.20004 3 7.00008C3 4.80012 4.8 3 6.99996 3C9.19992 3 10.9999 4.8 10.9999 6.99996C10.9999 9.19992 9.20004 11 6.99996 11ZM6.99996 5.00004C5.89992 5.00004 4.99992 5.90004 4.99992 7.00008C4.99992 8.10012 5.90004 9 6.99996 9C8.09988 9 9 8.1 9 6.99996C9 5.89992 8.1 5.00004 6.99996 5.00004Z" fill="#212529"/>
<path d="M16 11C13.8 11 12 9.20004 12 7.00008C12 4.80012 13.8 3 16 3C18.1999 3 19.9999 4.8 19.9999 6.99996C19.9999 9.19992 18.2 11 16 11ZM16 5.00004C14.8999 5.00004 13.9999 5.90004 13.9999 7.00008C13.9999 8.10012 14.8999 9.00012 16 9.00012C17.1 9.00012 18 8.1 18 6.99996C18 5.89992 17.1 5.00004 16 5.00004Z" fill="#212529"/>
<path d="M25 11C22.8001 11 21.0001 9.20004 21.0001 7.00008C21.0001 4.80012 22.8001 3 25 3C27.2 3 29 4.8 29 6.99996C29 9.19992 27.2001 11 25 11ZM25 5.00004C23.9 5.00004 23 5.90004 23 7.00008C23 8.10012 23.9 9.00012 25 9.00012C26.1001 9.00012 27.0001 8.1 27.0001 6.99996C27.0001 5.89992 26.1001 5.00004 25 5.00004Z" fill="#212529"/>
<path d="M60 14H0V2.90004C0 1.29996 1.29996 0 2.90004 0H57.2C58.7 0 60 1.29996 60 2.90004V14ZM2.00004 12H58.0001V2.90004C58.0001 2.4 57.6001 2.00004 57.1001 2.00004H2.90004C2.4 2.00004 2.00004 2.4 2.00004 2.90004V12Z" fill="#212529"/>
<path d="M56.8 60H3.20004C1.40004 60 0 58.6 0 56.8V12H60V56.8C60 58.6 58.6 60 56.8 60ZM2.00004 14V56.8001C2.00004 57.5001 2.50008 58.0001 3.20004 58.0001H56.8001C57.5 58.0001 58.0001 57.5001 58.0001 56.8001V14H2.00004Z" fill="#212529"/>
<path d="M9.99992 41.0001C7.19996 41.0001 4.99988 38.8001 4.99988 36C4.99988 33.2001 7.19984 31 9.99992 31C12.8 31 15 33.2001 15 36C15 38.8 12.8 41.0001 9.99992 41.0001ZM9.99992 33C8.29988 33 6.99992 34.3 6.99992 36C6.99992 37.7001 8.29988 39 9.99992 39C11.7 39 12.9999 37.7001 12.9999 36C12.9999 34.3 11.7 33 9.99992 33Z" fill="#212529"/>
<path d="M50 41.0001C47.2001 41.0001 45 38.8001 45 36C45 33.2001 47.2 31 50 31C52.8001 31 55.0001 33.2 55.0001 36C55 38.8 52.8 41.0001 50 41.0001ZM50 33C48.3 33 47 34.3 47 36C47 37.7001 48.3 39 50 39C51.7001 39 53 37.7001 53 36C53 34.3 51.7 33 50 33Z" fill="#212529"/>
<path d="M36 30.9999C33.2001 30.9999 31 28.8 31 25.9999C31 23.1998 33.2001 21 36 21C38.8 21 41.0001 23.2 41.0001 26C41.0001 28.8001 38.8 30.9999 36 30.9999ZM36 23C34.3 23 33 24.3 33 26C33 27.7001 34.3 29 36 29C37.7001 29 39 27.7001 39 26C39 24.3 37.7001 23 36 23Z" fill="#212529"/>
<path d="M27 50C24.2 50 21.9999 47.8001 21.9999 45C21.9999 42.2 24.1999 39.9999 27 39.9999C29.8001 39.9999 32 42.1999 32 45C32 47.7999 29.7999 50 27 50ZM27 42C25.2999 42 24 43.2999 24 45C24 46.7 25.2999 48 27 48C28.7 48 30 46.7 30 45C30 43.2999 28.7 42 27 42Z" fill="#212529"/>
<path d="M23.0001 44C22.8 44 22.7001 44 22.5 43.9L13.5 38.9C13 38.6 12.8001 38 13.1001 37.5C13.4001 36.9999 14.0001 36.8 14.5001 37.1L23.5001 42.1C24.0002 42.4 24.2001 43 23.9001 43.5001C23.7 43.8 23.4 44 23.0001 44Z" fill="#212529"/>
<path d="M29 42C28.9001 42 28.7 42 28.6001 41.9001C28.1 41.7 27.9001 41.1 28.1 40.6001L33.1001 29.6001C33.3001 29.1 33.9001 28.9001 34.4 29.1C34.9001 29.3001 35.1 29.9001 34.9001 30.4L29.9 41.4C29.7 41.8 29.4 42 29 42Z" fill="#212529"/>
<path d="M46 34C45.7999 34 45.6 33.9 45.4 33.7999L39.4 29.8C38.8999 29.5 38.8 28.9 39.1 28.3999C39.4 27.8999 40 27.7999 40.5 28.0999L46.5 32.0999C47 32.3999 47.1 32.9999 46.8 33.4999C46.6 33.8 46.3 34 46 34Z" fill="#212529"/>
</g>
<defs>
<clipPath id="clip0">
<rect width="60" height="60" fill="white"/>
</clipPath>
</defs>
</svg>
