<svg width="60" height="60" viewBox="0 0 60 60" fill="none" xmlns="http://www.w3.org/2000/svg">
<path d="M5.00002 1C5.00002 3.21101 3.211 5.00002 0.999992 5.00002C3.211 5.00002 5.00002 6.78904 5.00002 9.00005C5.00002 6.78904 6.78903 5.00002 9.00004 5.00002C6.78903 5.00002 5.00002 3.21101 5.00002 1Z" fill="white"/>
<path d="M58.9999 19C58.9999 19.552 58.552 20 58 20C57.448 20 57 19.552 57 19C57 18.448 57.448 18.0001 58 18.0001C58.552 18.0001 58.9999 18.448 58.9999 19Z" fill="white"/>
<path d="M9.99998 32C9.99998 32.552 9.55202 33 9.00004 33C8.44806 33 8.00009 32.552 8.00009 32C8.00009 31.448 8.44806 31.0001 9.00004 31.0001C9.55202 31.0001 9.99998 31.448 9.99998 32Z" fill="white"/>
<path d="M27 49C26.448 49 26 48.552 26 48V45.0001C26 44.4481 26.448 44.0001 27 44.0001C27.552 44.0001 27.9999 44.4481 27.9999 45.0001V48C27.9999 48.5519 27.552 49 27 49Z" fill="white"/>
<path d="M35 49C34.448 49 34 48.552 34 48V45.0001C34 44.4481 34.448 44.0001 35 44.0001C35.5519 44.0001 35.9999 44.4481 35.9999 45.0001V48C36 48.5519 35.5521 49 35 49Z" fill="white"/>
<path d="M31 47C30.4481 47 30.0001 46.552 30.0001 46V45.0001C30.0001 44.4481 30.4481 44.0001 31 44.0001C31.552 44.0001 32 44.4481 32 45.0001V46C32 46.552 31.552 47 31 47Z" fill="white"/>
<path d="M47.0001 14C46.744 14 46.4881 13.9019 46.2931 13.707C45.9021 13.316 45.9021 12.6841 46.2931 12.293L50.2931 8.29302C50.6841 7.902 51.3161 7.902 51.7071 8.29302C52.0981 8.68404 52.0981 9.31596 51.7071 9.70698L47.707 13.707C47.512 13.902 47.2561 14 47.0001 14Z" fill="white"/>
<path d="M51.0001 14C50.7441 14 50.4881 13.9019 50.2931 13.707L46.2931 9.70698C45.9021 9.31596 45.9021 8.68404 46.2931 8.29302C46.6841 7.902 47.316 7.902 47.707 8.29302L51.7071 12.293C52.0981 12.6841 52.0981 13.316 51.7071 13.707C51.512 13.902 51.256 14 51.0001 14Z" fill="white"/>
<path d="M32.2093 3.85456L30.0003 2.00061L27.7904 3.85456C18.0814 11.9785 16.4154 24.2836 22.7914 33.8435C22.7964 33.8506 22.8014 33.8576 22.8064 33.8645C24.2604 36.0175 25.0004 38.4156 25.0004 40.8886V42.0005H35.0003V40.8886C35.0003 38.4156 35.7413 36.0186 37.1943 33.8645C37.1983 33.8585 37.2033 33.8515 37.2073 33.8456C43.5853 24.2855 41.9193 11.9795 32.2093 3.85456Z" fill="#FCC419"/>
<path d="M34.6772 18.3497C34.7784 18.8923 35.301 19.2505 35.8436 19.1493C36.3862 19.0481 36.7444 18.5255 36.6432 17.9829C36.542 17.4403 36.0194 17.0821 35.4768 17.1833C34.9342 17.2845 34.576 17.8069 34.6772 18.3497Z" fill="#212529"/>
<path d="M28.779 19.45C28.8803 19.9926 29.4028 20.3508 29.9454 20.2496C30.488 20.1484 30.8462 19.6259 30.745 19.0833C30.6438 18.5407 30.1212 18.1824 29.5786 18.2837C29.036 18.3849 28.6778 18.9073 28.779 19.45Z" fill="#212529"/>
<path d="M24.9812 17.3497C25.0824 17.8923 25.6049 18.2505 26.1475 18.1493C26.6901 18.0481 27.0484 17.5255 26.9471 16.9829C26.8459 16.4403 26.3234 16.0821 25.7808 16.1833C25.2382 16.2845 24.8799 16.8069 24.9812 17.3497Z" fill="#212529"/>
<path d="M26.3801 22.9492C26.4813 23.4918 27.0038 23.85 27.5465 23.7488C28.0891 23.6475 28.4473 23.125 28.3461 22.5824C28.2448 22.0398 27.7223 21.6816 27.1797 21.7828C26.6371 21.884 26.2789 22.4066 26.3801 22.9492Z" fill="#212529"/>
<path d="M22.5823 20.8488C22.6835 21.3914 23.206 21.7496 23.7486 21.6484C24.2912 21.5472 24.6494 21.0247 24.5482 20.4821C24.447 19.9395 23.9245 19.5812 23.3819 19.6825C22.8392 19.7837 22.481 20.3062 22.5823 20.8488Z" fill="#212529"/>
<path d="M38.1765 20.7485C38.2777 21.2911 38.8002 21.6493 39.3428 21.5481C39.8855 21.4469 40.2437 20.9243 40.1424 20.3817C40.0412 19.8391 39.5187 19.4809 38.9761 19.5821C38.4336 19.6832 38.0753 20.2059 38.1765 20.7485Z" fill="#212529"/>
<path d="M32.2783 21.8488C32.3795 22.3914 32.902 22.7496 33.4446 22.6484C33.9873 22.5472 34.3455 22.0247 34.2443 21.4821C34.143 20.9395 33.6205 20.5812 33.0779 20.6825C32.5353 20.7837 32.1771 21.3062 32.2783 21.8488Z" fill="#212529"/>
<path d="M21.5823 29.9477C21.6835 30.4903 22.206 30.8485 22.7486 30.7473C23.2912 30.6461 23.6494 30.1236 23.5482 29.581C23.447 29.0383 22.9245 28.6801 22.3819 28.7813C21.8393 28.8824 21.481 29.405 21.5823 29.9477Z" fill="#212529"/>
<path d="M19.1833 33.4468C19.2845 33.9895 19.8071 34.3477 20.3497 34.2464C20.8923 34.1452 21.2505 33.6227 21.1493 33.0801C21.0481 32.5375 20.5255 32.1793 19.9829 32.2805C19.4403 32.3817 19.0821 32.9042 19.1833 33.4468Z" fill="#212529"/>
<path d="M27.4804 28.8474C27.5817 29.39 28.1042 29.7482 28.6468 29.647C29.1894 29.5457 29.5476 29.0232 29.4464 28.4806C29.3452 27.938 28.8227 27.5798 28.2801 27.681C27.7374 27.7822 27.3792 28.3046 27.4804 28.8474Z" fill="#212529"/>
<path d="M23.9812 26.4483C24.0824 26.9909 24.6049 27.3491 25.1475 27.2479C25.6901 27.1467 26.0484 26.6242 25.9471 26.0816C25.8459 25.539 25.3234 25.1807 24.7808 25.282C24.2382 25.3832 23.88 25.9057 23.9812 26.4483Z" fill="#212529"/>
<path d="M20.1833 24.348C20.2845 24.8906 20.8071 25.2488 21.3497 25.1476C21.8923 25.0463 22.2505 24.5238 22.1493 23.9812C22.0481 23.4386 21.5255 23.0804 20.9829 23.1816C20.4403 23.2828 20.0821 23.8054 20.1833 24.348Z" fill="#212529"/>
<path d="M25.0815 32.3465C25.1827 32.8891 25.7053 33.2473 26.2479 33.1461C26.7905 33.0449 27.1487 32.5224 27.0475 31.9798C26.9463 31.4371 26.4237 31.0789 25.8811 31.1802C25.3385 31.2813 24.9803 31.8039 25.0815 32.3465Z" fill="#212529"/>
<path d="M39.2768 26.6468C39.3781 27.1894 39.9006 27.5476 40.4432 27.4464C40.9858 27.3452 41.344 26.8227 41.2428 26.28C41.1416 25.7374 40.619 25.3792 40.0764 25.4804C39.5339 25.5815 39.1756 26.1041 39.2768 26.6468Z" fill="#212529"/>
<path d="M33.3786 27.7471C33.4799 28.2897 34.0024 28.648 34.545 28.5467C35.0876 28.4455 35.4458 27.923 35.3446 27.3804C35.2434 26.8378 34.7209 26.4796 34.1782 26.5808C33.6356 26.682 33.2774 27.2044 33.3786 27.7471Z" fill="#212529"/>
<path d="M35.7776 24.2477C35.8788 24.7904 36.4013 25.1486 36.9439 25.0474C37.4865 24.9461 37.8447 24.4236 37.7435 23.881C37.6423 23.3384 37.1198 22.9802 36.5772 23.0814C36.0346 23.1826 35.6763 23.7051 35.7776 24.2477Z" fill="#212529"/>
<path d="M29.8791 25.348C29.9804 25.8906 30.5029 26.2488 31.0455 26.1476C31.5881 26.0463 31.9463 25.5238 31.8451 24.9812C31.7439 24.4386 31.2213 24.0804 30.6787 24.1816C30.1361 24.2828 29.7779 24.8054 29.8791 25.348Z" fill="#212529"/>
<path d="M36.8777 30.1459C36.9789 30.6885 37.5014 31.0468 38.044 30.9455C38.5866 30.8443 38.9448 30.3218 38.8436 29.7792C38.7424 29.2366 38.2199 28.8784 37.6773 28.9796C37.1347 29.0808 36.7764 29.6033 36.8777 30.1459Z" fill="#212529"/>
<path d="M30.9795 31.2463C31.0807 31.7889 31.6032 32.1471 32.1458 32.0459C32.6884 31.9447 33.0466 31.4221 32.9454 30.8795C32.8442 30.3369 32.3217 29.9787 31.7791 30.0799C31.2365 30.1812 30.8782 30.7037 30.9795 31.2463Z" fill="#212529"/>
<path d="M34.1833 33.3497C34.2845 33.8923 34.8071 34.2506 35.3497 34.1493C35.8923 34.0481 36.2505 33.5256 36.1493 32.983C36.0481 32.4404 35.5255 32.0822 34.9829 32.1834C34.4403 32.2846 34.0821 32.8071 34.1833 33.3497Z" fill="#212529"/>
<path d="M22.6826 35.8456C22.7838 36.3883 23.3063 36.7465 23.8489 36.6453C24.3916 36.544 24.7498 36.0215 24.6485 35.4789C24.5473 34.9363 24.0248 34.5781 23.4822 34.6793C22.9397 34.7805 22.5814 35.303 22.6826 35.8456Z" fill="#212529"/>
<path d="M28.5808 34.7453C28.682 35.2879 29.2045 35.6461 29.7471 35.5449C30.2897 35.4437 30.648 34.9212 30.5467 34.3786C30.4455 33.8359 29.923 33.4777 29.3804 33.579C28.8378 33.6802 28.4796 34.2027 28.5808 34.7453Z" fill="#212529"/>
<path d="M40.9999 20.9453L40.9699 21.0063C41.0809 24.9012 40.1218 28.8092 38.0799 32.4012L44.3809 36.8122C45.0628 37.2892 45.9999 36.8012 45.9999 35.9691V31.9452C45.9999 24.0703 40.9999 20.9453 40.9999 20.9453Z" fill="white"/>
<path d="M19.0302 21.0058L19.0002 20.9448C19.0002 20.9448 14.0002 24.0699 14.0002 31.9448V35.9699C14.0002 36.8018 14.9372 37.2898 15.6182 36.8119L21.9202 32.4009C19.8772 28.8098 18.9182 24.9018 19.0302 21.0058Z" fill="white"/>
<path d="M36.0288 35.9999H23.9717C24.6487 37.56 24.9997 39.2049 24.9997 40.8879V41.9999H34.9996V40.8879C34.9999 39.2049 35.3518 37.56 36.0288 35.9999Z" fill="#FCC419"/>
<path d="M33 14C33 15.657 31.657 16.9999 30 16.9999C28.343 16.9999 27.0001 15.657 27.0001 14C27.0001 12.343 28.343 11 30 11C31.6569 11 33 12.343 33 14Z" fill="white"/>
<path d="M33 26C33 27.657 31.657 29 30 29C28.343 29 27.0001 27.657 27.0001 26C27.0001 24.343 28.343 23.0001 30 23.0001C31.6569 22.9999 33 24.343 33 26Z" fill="white"/>
<path d="M54 46C54 43.25 51.75 41 49 41C46.25 41 44 43.25 44 46L47 48.9999L54 46Z" fill="white"/>
<path d="M17.0001 46C17.0001 43.25 14.7502 41 12.0002 41C9.25017 41 7.0002 43.25 7.0002 46L13.0002 48.9999L17.0001 46Z" fill="white"/>
<path d="M52.9999 45C49.7 45 46.9999 47.7 46.9999 51C46.9999 48.8 46.4379 46.0001 42.9999 46.0001C40.7998 46.0001 38.9999 47.8 38.9999 50.0001C38.9999 52.2001 36.9748 54.0001 34.4998 54.0001C32.0248 54.0001 29.9999 52.2001 29.9999 50.0001C29.9999 52.2001 27.9748 54.0001 25.4999 54.0001C23.025 54.0001 21 52.2001 21 50.0001C21 47.8 19.2 46.0001 17 46.0001C14.094 46.0001 12.9999 48.8001 12.9999 51C12.9999 47.7001 10.3 45 6.99991 45C3.69984 45 0.999992 47.7 0.999992 51V59.0001H59V51C59 47.7 56.3 45 52.9999 45Z" fill="white"/>
<path d="M7.00003 45C7.51805 45 8.01904 45.074 8.50001 45.199C5.92097 45.87 4.00007 48.218 4.00007 50.9999V59H0.999992V50.9999C0.999992 47.7 3.70007 45 7.00003 45Z" fill="white"/>
<path d="M29.9999 12C28.8969 12 27.9999 12.897 27.9999 14C27.9999 15.103 28.8969 16 29.9999 16C31.1029 16 32 15.103 32 14C32 12.897 31.1029 12 29.9999 12ZM29.9999 18C27.7939 18 25.9999 16.206 25.9999 14C25.9999 11.794 27.7939 10 29.9999 10C32.2059 10 34 11.794 34 14C34 16.206 32.2059 18 29.9999 18Z" fill="#212529"/>
<path d="M29.9999 24C28.8969 24 27.9999 24.897 27.9999 26C27.9999 27.103 28.8969 28 29.9999 28C31.1029 28 32 27.103 32 26C32 24.897 31.1029 24 29.9999 24ZM29.9999 29.9999C27.7939 29.9999 25.9999 28.2059 25.9999 25.9999C25.9999 23.7939 27.7939 21.9999 29.9999 21.9999C32.2059 21.9999 34 23.7939 34 25.9999C34 28.2059 32.2059 29.9999 29.9999 29.9999Z" fill="#212529"/>
<path d="M25.9999 40.9999H34V40.8889C34 38.2219 34.818 35.5989 36.3649 33.3049C42.5889 23.9778 40.6119 12.1889 31.568 4.6219C31.567 4.62095 31.567 4.62095 31.5659 4.62095L30 3.306L28.434 4.62095C19.39 12.1879 17.4119 23.9759 23.624 33.2889C25.182 35.5959 26 38.2189 26 40.8879V40.9999H25.9999ZM34.9999 42.9999H25C24.448 42.9999 24 42.552 24 42V40.888C24 38.586 23.319 36.4121 21.978 34.4241C15.162 24.2081 17.296 11.3321 27.1489 3.08714L29.3569 1.23414C29.7289 0.922115 30.271 0.922115 30.643 1.23414L32.8519 3.08809C42.7059 11.3331 44.8389 24.2091 38.039 34.4C36.681 36.414 36 38.589 36 40.889V42C36 42.552 35.552 42.9999 34.9999 42.9999Z" fill="#212529"/>
<path d="M54.9999 45.9999H52.9999C52.9999 43.7938 51.2059 41.9998 48.9999 41.9998C46.7939 41.9998 44.9999 43.7938 44.9999 45.9999H42.9998C42.9998 42.6908 45.6909 39.9998 48.9999 39.9998C52.309 39.9999 54.9999 42.6908 54.9999 45.9999Z" fill="#212529"/>
<path d="M18 45.9999H16C16 43.7938 14.206 41.9998 12 41.9998C9.79398 41.9998 7.99996 43.7938 7.99996 45.9999H6.00007C6.00007 42.6908 8.69109 39.9998 12.0001 39.9998C15.3091 39.9998 18 42.6908 18 45.9999Z" fill="#212529"/>
<path d="M2.00001 58H58V51C58 48.243 55.7569 46 53 46C50.2431 46 48 48.243 48 51C48 51.552 47.553 51.9999 47.0001 51.9999C46.4481 51.9999 46.0002 51.552 46.0002 51C46.0002 47.455 44.3971 47 43.0002 47C41.3462 47 40.0002 48.346 40.0002 49.9999C40.0002 52.7569 37.5332 54.9999 34.5002 54.9999C32.6422 54.9999 30.9962 54.1579 30.0003 52.8719C29.0043 54.1579 27.3584 54.9999 25.5004 54.9999C22.4674 54.9999 20.0004 52.7569 20.0004 49.9999C20.0004 48.3459 18.6543 47 17.0004 47C14.6324 47 14.0004 49.5139 14.0004 51C14.0004 51.552 13.5525 51.9999 13.0005 51.9999C12.4485 51.9999 12.0005 51.552 12.0005 51C12.0005 48.243 9.75761 46 7.00058 46C4.24355 46 2.00061 48.243 2.00061 51V58H2.00001ZM58.9999 60H0.999946C0.447968 60 0 59.552 0 59V51C0 47.1399 3.13995 44 6.99998 44C9.50896 44 11.714 45.327 12.95 47.316C13.756 45.9631 15.088 45.0001 16.9999 45.0001C19.757 45.0001 21.9999 47.2431 21.9999 50C21.9999 51.6541 23.5699 53 25.4999 53C27.4298 53 28.9999 51.6539 28.9999 50C28.9999 49.4481 29.4478 49.0001 29.9998 49.0001C30.5518 49.0001 30.9998 49.4481 30.9998 50C30.9998 51.6541 32.5698 53 34.4998 53C36.4297 53 37.9998 51.6539 37.9998 50C37.9998 47.243 40.2428 45.0001 42.9997 45.0001C44.2547 45.0001 46.0818 45.3531 47.1447 47.1681C48.3968 45.2611 50.5537 44.0001 52.9998 44.0001C56.8587 44.0001 59.9998 47.1401 59.9998 51.0001V59.0001C60 59.5519 59.553 60 58.9999 60Z" fill="#212529"/>
<path d="M26 49C25.448 49 25 48.552 25 48V45.0001C25 44.4481 25.448 44.0001 26 44.0001C26.5519 44.0001 26.9999 44.4481 26.9999 45.0001V48C27 48.5519 26.5521 49 26 49Z" fill="#212529"/>
<path d="M34 49C33.448 49 33 48.552 33 48V45.0001C33 44.4481 33.448 44.0001 34 44.0001C34.5519 44.0001 34.9999 44.4481 34.9999 45.0001V48C34.9999 48.5519 34.5519 49 34 49Z" fill="#212529"/>
<path d="M29.9999 47C29.4479 47 29 46.552 29 46V45.0001C29 44.4481 29.4479 44.0001 29.9999 44.0001C30.5519 44.0001 30.9999 44.4481 30.9999 45.0001V46C31 46.552 30.5519 47 29.9999 47Z" fill="#212529"/>
<path d="M39.3846 32.0943L44.9545 35.9924L44.9996 31.9454C44.9996 27.3964 43.2536 24.5835 41.9266 23.1013C41.7166 26.2033 40.8526 29.2642 39.3846 32.0943ZM44.9706 37.9993C44.5626 37.9993 44.1556 37.8752 43.8076 37.6312L37.5066 33.2203C37.0836 32.9253 36.9555 32.3563 37.2106 31.9073C39.1237 28.5423 40.0776 24.7823 39.9697 21.0343C39.9656 20.8693 40.0017 20.7063 40.0746 20.5583C40.2007 20.3063 40.4427 20.0892 40.7136 20.0133C40.9865 19.9353 41.2915 19.9483 41.5296 20.0973C41.7536 20.2373 46.9996 23.6123 46.9996 31.9453V35.9692C46.9996 36.7292 46.5816 37.4182 45.9075 37.7692C45.6116 37.9233 45.2906 37.9993 44.9706 37.9993Z" fill="#212529"/>
<path d="M18.0726 23.1011C16.7466 24.5811 14.9996 27.3961 14.9996 31.9452V35.9702L20.6126 32.0892C19.1456 29.261 18.2827 26.201 18.0726 23.1011ZM15.0296 37.999C14.7096 37.999 14.3876 37.923 14.0926 37.7691C13.4186 37.4181 12.9996 36.7291 12.9996 35.9701V31.945C12.9996 23.612 18.2466 20.2371 18.4696 20.097C18.7086 19.949 18.9986 19.906 19.2706 19.983C19.5416 20.059 19.7686 20.2459 19.8946 20.498C19.9686 20.645 20.0346 20.87 20.0296 21.035C19.9226 24.783 20.8766 28.542 22.7887 31.907C23.0447 32.3561 22.9157 32.925 22.4927 33.221L16.1917 37.631C15.8436 37.875 15.4376 37.999 15.0296 37.999Z" fill="#212529"/>
<path d="M25.9999 40.9999H33.9999V40.8889C33.9999 39.5699 34.1989 38.2668 34.5919 36.9999H25.408C25.801 38.2668 26 39.5689 26 40.8879V40.9999H25.9999ZM34.9999 42.9999H24.9999C24.448 42.9999 24 42.552 24 42V40.888C24 39.354 23.682 37.8431 23.054 36.398C22.92 36.0889 22.9509 35.733 23.136 35.452C23.3199 35.17 23.6349 35 23.972 35H36.029C36.3661 35 36.68 35.17 36.865 35.452C37.05 35.7331 37.0801 36.0891 36.946 36.398C36.318 37.844 36.0001 39.354 36.0001 40.889V42C35.9999 42.552 35.552 42.9999 34.9999 42.9999Z" fill="#212529"/>
<path d="M45.9998 14C45.7438 14 45.4879 13.9019 45.2928 13.707C44.9018 13.316 44.9018 12.6841 45.2928 12.293L49.2929 8.29302C49.6839 7.902 50.3158 7.902 50.7068 8.29302C51.0979 8.68404 51.0979 9.31596 50.7068 9.70698L46.7068 13.707C46.5119 13.902 46.2558 14 45.9998 14Z" fill="#212529"/>
<path d="M49.9999 14C49.7438 14 49.4879 13.9019 49.2929 13.707L45.2928 9.70698C44.9018 9.31596 44.9018 8.68404 45.2928 8.29302C45.6839 7.902 46.3158 7.902 46.7068 8.29302L50.7068 12.293C51.0979 12.6841 51.0979 13.316 50.7068 13.707C50.5119 13.902 50.2559 14 49.9999 14Z" fill="#212529"/>
<path d="M58 18.9999C58 19.5519 57.5521 19.9998 57.0001 19.9998C56.4481 19.9998 56.0002 19.5519 56.0002 18.9999C56.0002 18.4479 56.4481 17.9999 57.0001 17.9999C57.5521 17.9999 58 18.4479 58 18.9999Z" fill="#212529"/>
<path d="M8.99999 31.9999C8.99999 32.5519 8.55202 32.9999 8.00004 32.9999C7.44807 32.9999 7.0001 32.5519 7.0001 31.9999C7.0001 31.448 7.44807 31 8.00004 31C8.55202 31 8.99999 31.448 8.99999 31.9999Z" fill="#212529"/>
<path d="M3.99705 4.99997C4.37603 5.28495 4.71499 5.62403 5.00009 6.00302C5.28507 5.62403 5.62308 5.28507 6.00313 4.99997C5.62308 4.71499 5.28519 4.37591 5.00009 3.99693C4.71499 4.37603 4.37603 4.71499 3.99705 4.99997ZM4.99997 9.99994C4.44799 9.99994 4.00002 9.55197 4.00002 8.99999C4.00002 7.34597 2.65397 6.00004 1.00007 6.00004C0.447968 6.00004 0 5.55195 0 4.99997C0 4.44799 0.447968 4.00002 0.999946 4.00002C2.65397 4.00002 3.99991 2.65397 3.99991 1.00007C4.00002 0.447968 4.44799 0 4.99997 0C5.55195 0 5.99992 0.447968 5.99992 0.999946C5.99992 2.65397 7.34597 3.99991 8.99988 3.99991C9.55185 3.99991 9.99982 4.44787 9.99982 4.99985C9.99982 5.55183 9.55185 5.9998 8.99988 5.9998C7.34585 5.9998 5.99992 7.34585 5.99992 8.99976C6.00004 9.55197 5.55195 9.99994 4.99997 9.99994Z" fill="#212529"/>
</svg>
