<?xml version="1.0" encoding="UTF-8"?>
<svg width="49px" height="47px" viewBox="0 0 49 47" version="1.1" xmlns="http://www.w3.org/2000/svg" xmlns:xlink="http://www.w3.org/1999/xlink">
    <title>icon-capacity</title>
    <g id="Page-1" stroke="none" stroke-width="1" fill="none" fill-rule="evenodd" stroke-linecap="round" stroke-linejoin="round">
        <g id="icon-capacity" transform="translate(1.000000, 1.000000)" stroke="#AAAAAA" stroke-width="2">
            <path d="M32.156,13.338 C32.998,12.781 35.006,12.882 35.156,14.684 C35.293,16.377 34.37,20.268 31.736,19.808" id="Path_73"></path>
            <path d="M14.156,13.338 C13.314,12.781 11.306,12.882 11.156,14.684 C11.019,16.377 11.942,20.268 14.576,19.808" id="Path_74"></path>
            <g id="Group_15" transform="translate(14.156000, 0.684000)">
                <path d="M0,11 C0,17 -0.373,22.93 5.355,26.224 C7.67016943,27.2804815 10.3298306,27.2804815 12.645,26.224 C18.373,22.93 18,17 18,11 C18,7 17,4 14,2 C10.966693,-8.79163346e-05 7.03330696,-8.79163346e-05 4,2 C1,4 0,8 0,11 Z" id="Path_75"></path>
            </g>
            <g id="Group_16" transform="translate(0.156000, 27.684000)">
                <path d="M0,17 L1.588,7.814 C1.74856175,6.77596666 2.41349379,5.88514503 3.363,5.436 L14.5,0 C14.5,0 21.521,4 23,4 C24.479,4 31.5,0 31.5,0 L42.635,5.436 C43.5845062,5.88514503 44.2494382,6.77596666 44.41,7.814 L46,17" id="Path_76"></path>
            </g>
            <path d="M8.877,44.684 C8.877,44.684 8.639,42.578 8.156,39.679" id="Path_77"></path>
            <path d="M37.435,44.684 C37.435,44.684 37.673,42.578 38.156,39.679" id="Path_78"></path>
        </g>
    </g>
</svg>