<svg width="60" height="60" viewBox="0 0 60 60" fill="none" xmlns="http://www.w3.org/2000/svg">
<g clip-path="url(#clip0)">
<path d="M47.8197 43.5583L38.8988 39.1789C37.7277 38.6038 36.9998 37.5004 36.9998 36.2998V31.7998C36.9998 31.7998 39.6177 28.9819 40.6167 25.0651C41.4457 24.5836 41.9998 23.7493 41.9998 22.7999V19.1999C41.9998 18.4079 41.6087 17.7004 40.9998 17.2055V11.9998C40.9998 11.9998 42.1878 3.89978 29.9998 3.89978C17.8129 3.89978 18.9999 11.9998 18.9999 11.9998V17.2054C18.3908 17.7003 17.9999 18.4078 17.9999 19.1998V22.7997C17.9999 23.7493 18.5538 24.5835 19.3829 25.065C20.382 28.9818 22.9999 31.7997 22.9999 31.7997V36.2997C22.9999 37.5003 22.2719 38.6037 21.1009 39.1788L12.1799 43.5582C9.603 44.8236 8 47.2536 8 49.896V56.0997H51.9998V49.896C51.9998 47.2537 50.3968 44.8237 47.8197 43.5583Z" fill="#FCC419"/>
<path d="M30.6773 36.3497C30.7785 36.8923 31.301 37.2505 31.8436 37.1493C32.3862 37.0481 32.7444 36.5255 32.6432 35.9829C32.542 35.4403 32.0195 35.0821 31.4769 35.1833C30.9343 35.2845 30.576 35.8069 30.6773 36.3497Z" fill="#212529"/>
<path d="M24.7791 37.45C24.8803 37.9926 25.4028 38.3508 25.9454 38.2496C26.488 38.1484 26.8463 37.6259 26.745 37.0833C26.6438 36.5407 26.1213 36.1824 25.5787 36.2837C25.0361 36.3849 24.6778 36.9073 24.7791 37.45Z" fill="#212529"/>
<path d="M22.3802 40.9492C22.4814 41.4918 23.0039 41.85 23.5465 41.7488C24.0891 41.6475 24.4473 41.125 24.3461 40.5824C24.2449 40.0398 23.7224 39.6816 23.1798 39.7828C22.6371 39.884 22.2789 40.4066 22.3802 40.9492Z" fill="#212529"/>
<path d="M34.1765 38.7485C34.2778 39.2911 34.8003 39.6493 35.3429 39.5481C35.8855 39.4469 36.2437 38.9243 36.1425 38.3817C36.0413 37.8391 35.5188 37.4809 34.9761 37.5821C34.4336 37.6832 34.0753 38.2059 34.1765 38.7485Z" fill="#212529"/>
<path d="M28.2783 39.8488C28.3796 40.3914 28.9021 40.7496 29.4447 40.6484C29.9873 40.5472 30.3455 40.0247 30.2443 39.4821C30.1431 38.9395 29.6206 38.5812 29.0779 38.6825C28.5353 38.7837 28.1771 39.3062 28.2783 39.8488Z" fill="#212529"/>
<path d="M17.5823 47.9477C17.6835 48.4903 18.206 48.8485 18.7486 48.7473C19.2913 48.6461 19.6495 48.1236 19.5483 47.581C19.447 47.0383 18.9245 46.6801 18.3819 46.7813C17.8394 46.8824 17.4811 47.405 17.5823 47.9477Z" fill="#212529"/>
<path d="M15.1834 51.4468C15.2846 51.9895 15.8071 52.3477 16.3497 52.2464C16.8923 52.1452 17.2505 51.6227 17.1493 51.0801C17.0481 50.5375 16.5256 50.1793 15.983 50.2805C15.4404 50.3817 15.0821 50.9042 15.1834 51.4468Z" fill="#212529"/>
<path d="M23.4805 46.8474C23.5817 47.39 24.1042 47.7482 24.6468 47.647C25.1895 47.5457 25.5477 47.0232 25.4464 46.4806C25.3452 45.938 24.8227 45.5798 24.2801 45.681C23.7375 45.7822 23.3792 46.3046 23.4805 46.8474Z" fill="#212529"/>
<path d="M19.9812 44.4483C20.0824 44.9909 20.605 45.3491 21.1476 45.2479C21.6902 45.1467 22.0484 44.6242 21.9472 44.0816C21.846 43.539 21.3234 43.1807 20.7808 43.282C20.2382 43.3832 19.88 43.9057 19.9812 44.4483Z" fill="#212529"/>
<path d="M21.0816 50.3465C21.1828 50.8891 21.7053 51.2473 22.2479 51.1461C22.7905 51.0449 23.1487 50.5224 23.0475 49.9798C22.9463 49.4371 22.4238 49.0789 21.8812 49.1802C21.3385 49.2813 20.9803 49.8039 21.0816 50.3465Z" fill="#212529"/>
<path d="M35.2769 44.6468C35.3781 45.1894 35.9006 45.5476 36.4432 45.4464C36.9858 45.3452 37.3441 44.8227 37.2428 44.28C37.1416 43.7374 36.6191 43.3792 36.0765 43.4804C35.534 43.5815 35.1756 44.1041 35.2769 44.6468Z" fill="#212529"/>
<path d="M12.5825 48.3497C12.6838 48.8923 13.2063 49.2505 13.7489 49.1493C14.2915 49.0481 14.6497 48.5255 14.5485 47.9829C14.4473 47.4403 13.9248 47.0821 13.3821 47.1833C12.8396 47.2844 12.4813 47.8069 12.5825 48.3497Z" fill="#212529"/>
<path d="M29.3787 45.7471C29.4799 46.2897 30.0024 46.648 30.545 46.5467C31.0876 46.4455 31.4459 45.923 31.3446 45.3804C31.2434 44.8378 30.7209 44.4796 30.1783 44.5808C29.6357 44.682 29.2774 45.2044 29.3787 45.7471Z" fill="#212529"/>
<path d="M31.7776 42.2477C31.8788 42.7904 32.4013 43.1486 32.944 43.0474C33.4866 42.9461 33.8448 42.4236 33.7436 41.881C33.6423 41.3384 33.1198 40.9802 32.5772 41.0814C32.0346 41.1826 31.6764 41.7051 31.7776 42.2477Z" fill="#212529"/>
<path d="M25.8792 43.348C25.9804 43.8906 26.5029 44.2488 27.0455 44.1476C27.5881 44.0463 27.9463 43.5238 27.8451 42.9812C27.7439 42.4386 27.2214 42.0804 26.6788 42.1816C26.1362 42.2828 25.778 42.8054 25.8792 43.348Z" fill="#212529"/>
<path d="M32.8777 48.1459C32.9789 48.6885 33.5014 49.0468 34.0441 48.9455C34.5867 48.8443 34.9449 48.3218 34.8437 47.7792C34.7424 47.2366 34.2199 46.8784 33.6773 46.9796C33.1347 47.0808 32.7765 47.6033 32.8777 48.1459Z" fill="#212529"/>
<path d="M10.1834 51.8488C10.2846 52.3914 10.8071 52.7496 11.3497 52.6484C11.8923 52.5472 12.2505 52.0247 12.1493 51.4821C12.0481 50.9395 11.5256 50.5812 10.983 50.6825C10.4404 50.7837 10.0821 51.3062 10.1834 51.8488Z" fill="#212529"/>
<path d="M26.9795 49.2463C27.0807 49.7889 27.6033 50.1471 28.1459 50.0459C28.6885 49.9447 29.0467 49.4221 28.9455 48.8795C28.8442 48.3369 28.3217 47.9787 27.7791 48.0799C27.2365 48.1812 26.8783 48.7037 26.9795 49.2463Z" fill="#212529"/>
<path d="M18.6826 53.8456C18.7839 54.3883 19.3064 54.7465 19.849 54.6453C20.3916 54.544 20.7498 54.0215 20.6486 53.4789C20.5474 52.9363 20.0249 52.5781 19.4822 52.6793C18.9398 52.7805 18.5814 53.303 18.6826 53.8456Z" fill="#212529"/>
<path d="M24.5808 52.7453C24.6821 53.2879 25.2046 53.6461 25.7472 53.5449C26.2898 53.4437 26.648 52.9212 26.5468 52.3786C26.4456 51.8359 25.923 51.4777 25.3804 51.579C24.8378 51.6802 24.4796 52.2027 24.5808 52.7453Z" fill="#212529"/>
<path d="M55.3899 37.3097L48.6849 33.527C47.674 33.0311 47.046 32.0771 47.046 31.0412V28.1999C47.046 28.1999 49.9429 25.7663 50.8059 22.3832C51.5209 21.9674 51.9999 21.2464 51.9999 20.4275V17.3179C51.9999 16.634 51.5259 16.0229 51 15.5953V11.0999C51 11.0999 50.563 3.8999 41.0001 3.8999C38.906 3.8999 37.2701 4.25723 35.9601 4.79723C41.741 6.90323 41.0001 11.9999 41.0001 11.9999V17.2046C41.6091 17.6995 42 18.4078 42 19.1998V22.7998C42 23.7483 41.4461 24.5836 40.617 25.065C39.618 28.9818 37 31.7997 37 31.7997V36.2997C37 37.4994 37.728 38.6037 38.899 39.1788L47.82 43.5582C48.731 44.0055 49.5119 44.604 50.152 45.2997H59V42.7824C59 40.5011 57.6149 38.4023 55.3899 37.3097Z" fill="white"/>
<path d="M55.3894 37.3097L48.6844 33.527C47.6735 33.0311 47.0455 32.0771 47.0455 31.0412V28.1999C47.0455 28.1999 49.9424 25.7663 50.8054 22.3832C51.5203 21.9674 51.9994 21.2464 51.9994 20.4275V17.3179C51.9994 16.634 51.5254 16.0229 50.9995 15.5953V11.0999C50.9995 11.0999 50.5625 3.8999 40.9996 3.8999C40.4585 3.8999 39.9506 3.92595 39.4685 3.97014C47.5965 4.67035 47.9995 11.0999 47.9995 11.0999V15.5954C48.5255 16.0229 48.9994 16.634 48.9994 17.318V20.4276C48.9994 21.2465 48.5205 21.9675 47.8054 22.3833C46.9424 25.7664 44.0455 28.2 44.0455 28.2V31.0413C44.0455 32.0772 44.2844 33.4038 45.2944 33.9005L51.9994 37.6823C54.2244 38.7749 55.9993 40.5011 55.9993 42.7826V45.2999H58.9993V42.7826C58.9994 40.5011 57.6144 38.4023 55.3894 37.3097Z" fill="white"/>
<path d="M12.1801 43.5583L21.1011 39.1789C22.2721 38.6038 23.0001 37.5004 23.0001 36.2998V31.7998C23.0001 31.7998 20.3821 28.9819 19.3831 25.0651C18.5541 24.5836 18.0001 23.7493 18.0001 22.7999V19.1999C18.0001 18.4079 18.3911 17.7004 19 17.2055V11.9998C19 11.9998 18.259 6.9031 24.04 4.79711C22.73 4.25711 21.094 3.89978 19 3.89978C9.43711 3.89978 9.00012 11.0998 9.00012 11.0998V15.5953C8.47407 16.0228 8.00016 16.6338 8.00016 17.3179V20.4274C8.00016 21.2464 8.47911 21.9674 9.19418 22.384C10.0571 25.7662 12.9541 28.1997 12.9541 28.1997V31.0411C12.9541 32.0778 12.3261 33.0309 11.3151 33.5268L4.61018 37.3096C2.38516 38.4021 1.00024 40.501 1.00024 42.7825V45.2998H9.8482C10.488 44.6041 11.2691 44.0056 12.1801 43.5583Z" fill="white"/>
<path d="M4.61018 37.3097L11.3151 33.527C12.3261 33.0311 12.9541 32.0771 12.9541 31.0412V28.1999C12.9541 28.1999 10.0571 25.7663 9.19418 22.3832C8.47922 21.9674 8.00016 21.2464 8.00016 20.4275V17.3179C8.00016 16.634 8.47419 16.0229 9.00012 15.5953V11.0999C9.00012 11.0999 9.43711 3.8999 19 3.8999C19.5411 3.8999 20.049 3.92595 20.5311 3.97014C12.4031 4.67035 12.0001 11.0999 12.0001 11.0999V15.5954C11.4741 16.0229 11.0001 16.634 11.0001 17.318V20.4276C11.0001 21.2465 11.4791 21.9675 12.1942 22.3833C13.0571 25.7664 15.9541 28.2 15.9541 28.2V31.0413C15.9541 32.0772 15.7152 33.4038 14.7051 33.9005L8.00016 37.6823C5.77514 38.7749 4.00023 40.5011 4.00023 42.7826V45.2999H1.00024V42.7826C1.00013 40.5011 2.38516 38.4023 4.61018 37.3097Z" fill="white"/>
<path d="M8.99994 55.2H50.9997V49.8955C50.9997 47.5824 49.5977 45.4567 47.3417 44.3479L38.4198 39.9685C36.9268 39.236 35.9998 37.8302 35.9998 36.3001V31.8001C35.9998 31.5904 36.0827 31.3852 36.2318 31.2232C36.2568 31.1971 38.7128 28.5087 39.6428 24.8638C39.7008 24.6352 39.8548 24.4363 40.0738 24.3093C40.6537 23.9718 40.9998 23.4076 40.9998 22.8001V19.2001C40.9998 18.6952 40.7618 18.2245 40.3298 17.8735C40.1198 17.7025 39.9998 17.4595 39.9998 17.2048V12.0001C39.9998 11.9605 40.0029 11.9218 40.0089 11.8822C40.0119 11.8605 40.3329 9.32708 38.3858 7.34617C36.7268 5.65688 33.9048 4.80005 29.9998 4.80005C26.0809 4.80005 23.2529 5.66225 21.5959 7.3641C19.6479 9.36388 19.9869 11.8568 19.9909 11.8821C19.9969 11.9216 19.9999 11.9603 19.9999 12V17.2046C19.9999 17.4593 19.8799 17.7023 19.6699 17.8733C19.238 18.2243 19 18.695 19 19.1999V22.7998C19 23.4073 19.346 23.9716 19.926 24.3091C20.145 24.436 20.299 24.6349 20.357 24.8635C21.287 28.5085 23.743 31.1968 23.7679 31.223C23.9169 31.385 24 31.5902 24 31.7999V36.2999C24 37.83 23.073 39.2357 21.5799 39.9683L12.658 44.3477C10.402 45.4566 8.99994 47.5824 8.99994 49.8955V55.2ZM51.9996 57H7.99999C7.44698 57 7.00003 56.5968 7.00003 56.1001V49.8955C7.00003 46.9237 8.80107 44.1921 11.7 42.7684L20.623 38.3881C21.473 37.9714 21.9999 37.1713 21.9999 36.3001V32.1124C21.3309 31.3231 19.4129 28.8625 18.497 25.5982C17.5531 24.9161 17 23.8945 17 22.8002V19.2002C17 18.3335 17.359 17.4929 18 16.8377V12.0505C17.9431 11.5555 17.724 8.60799 20.092 6.17705C22.1458 4.06841 25.4789 3.00012 29.9998 3.00012C34.5208 3.00012 37.8538 4.06841 39.9077 6.17715C42.2757 8.6081 42.0567 11.5555 41.9997 12.0506V16.8377C42.6408 17.4929 42.9997 18.3335 42.9997 19.2002V22.8002C42.9997 23.8946 42.4467 24.9161 41.5028 25.5982C40.5868 28.8625 38.6688 31.3232 37.9998 32.1124V36.3001C37.9998 37.1713 38.5268 37.9714 39.3768 38.3881L48.2987 42.7684H48.2997C51.1987 44.1922 52.9997 46.9237 52.9997 49.8955V56.1001C52.9997 56.5968 52.5527 57 51.9996 57Z" fill="#212529"/>
<path d="M50.606 44.4H57.9999V42.7827C57.9999 40.8298 56.816 39.0351 54.911 38.1C54.893 38.0911 54.876 38.082 54.858 38.0721L48.1541 34.2894C46.8741 33.663 46.0451 32.4075 46.0451 31.0412V28.1999C46.0451 27.9515 46.1611 27.713 46.3621 27.543C46.3891 27.5205 49.0501 25.2426 49.8311 22.1817C49.8891 21.954 50.0441 21.7542 50.263 21.6272C50.724 21.359 51 20.9108 51 20.4275V17.318C51 16.994 50.755 16.6097 50.329 16.2623C50.119 16.0921 50.0001 15.8491 50.0001 15.5954V11.1001C49.9831 10.8931 49.4631 4.80014 41.0001 4.80014C40.0862 4.80014 39.2441 4.87038 38.4601 5.01255C41.663 7.106 42.222 10.3532 42.0001 12.056V16.8377C42.64 17.4929 43 18.3334 43 19.2002V22.8001C43 23.8946 42.447 24.9161 41.502 25.5982C40.586 28.8625 38.6681 31.3232 38 32.1124V36.3001C38 37.1713 38.527 37.9714 39.3769 38.3881L48.2979 42.7684C49.1581 43.1904 49.9321 43.7377 50.606 44.4ZM59 46.2H50.1511C49.8531 46.2 49.5701 46.0803 49.3801 45.8733C48.7982 45.2406 48.1131 44.7276 47.3401 44.3478L38.4192 39.9684C36.9262 39.2358 36.0002 37.83 36.0002 36.3V31.8C36.0002 31.5903 36.0832 31.3851 36.2322 31.2231C36.2563 31.197 38.7123 28.5086 39.6423 24.8636C39.7012 24.6351 39.8553 24.4362 40.0742 24.3092C40.6542 23.9717 41.0002 23.4074 41.0002 22.7999V19.2C41.0002 18.6951 40.7613 18.2244 40.3303 17.8734C40.1203 17.7024 40.0003 17.4594 40.0003 17.2047V12.0001C40.0003 11.9613 40.0023 11.9226 40.0082 11.8839C40.0322 11.7066 40.5502 7.44065 35.5852 5.6307C35.2142 5.4957 34.9682 5.17624 34.9603 4.81712C34.9513 4.458 35.1802 4.12767 35.5433 3.97833C37.1193 3.32938 38.9553 3 41.0002 3C51.3881 3 51.9932 10.9704 51.9982 11.0505L52.0002 15.2211C52.6472 15.8565 53.0002 16.5899 53.0002 17.3181V20.4276C53.0002 21.3978 52.5162 22.3032 51.6892 22.9152C50.8652 25.7142 48.8352 27.8292 48.0453 28.5717V31.0412C48.0453 31.7486 48.4743 32.3984 49.1643 32.7369L55.8962 36.5331C58.4281 37.7876 60.0002 40.1799 60.0002 42.7826V45.3C60 45.7968 59.552 46.2 59 46.2Z" fill="#212529"/>
<path d="M2.00003 44.4H9.39393C10.0669 43.7376 10.8419 43.1904 11.6999 42.7683H11.701L20.6229 38.388C21.4728 37.9713 21.9998 37.1712 21.9998 36.3V32.1123C21.3308 31.323 19.4128 28.8624 18.4969 25.5981C17.5529 24.916 16.9999 23.8944 16.9999 22.8001V19.2001C16.9999 18.3334 17.3589 17.4928 17.9999 16.8376V12.0559C17.7769 10.3531 18.3369 7.10591 21.5399 5.01246C20.7559 4.87029 19.9129 4.80005 18.9998 4.80005C10.5359 4.80005 10.0169 10.8931 9.99791 11.1532L9.9999 15.5956C9.9999 15.8494 9.88096 16.0924 9.67096 16.2625C9.24393 16.6099 8.99995 16.9942 8.99995 17.3182V20.4277C8.99995 20.911 9.27498 21.3592 9.736 21.6275C9.95502 21.7543 10.1099 21.9542 10.169 22.1819C10.949 25.2428 13.61 27.5207 13.638 27.5432C13.8389 27.7133 13.954 27.9518 13.954 28.2001V31.0415C13.954 32.4077 13.126 33.6632 11.793 34.3174L5.14204 38.0722C3.18408 39.0353 2.00003 40.8298 2.00003 42.7828V44.4ZM9.84896 46.2H0.999955C0.44695 46.2 0 45.7968 0 45.3001V42.7828C0 40.1709 1.58296 37.7707 4.13201 36.5197L10.7829 32.7649C11.525 32.3986 11.954 31.7488 11.954 31.0415V28.5719C11.164 27.8294 9.13506 25.7145 8.31101 22.9154C7.48296 22.3034 7.00004 21.3981 7.00004 20.4279V17.3183C7.00004 16.5903 7.35207 15.8576 7.99999 15.2213V11.1001C8.00702 10.9705 8.611 3.00012 19 3.00012C21.045 3.00012 22.881 3.3295 24.4559 3.97845C24.819 4.1279 25.0489 4.45812 25.0399 4.81724C25.0309 5.17636 24.7849 5.49582 24.4149 5.63082C19.4089 7.45511 19.9849 11.839 19.991 11.8841C19.997 11.9228 20 11.9615 20 12.0002V17.2048C20 17.4595 19.88 17.7025 19.67 17.8735C19.2381 18.2245 19.0001 18.6952 19.0001 19.2001V22.8001C19.0001 23.4076 19.3461 23.9718 19.9261 24.3093C20.1451 24.4362 20.2991 24.6351 20.3571 24.8638C21.2871 28.5088 23.7431 31.197 23.7681 31.2232C23.917 31.3852 24.0001 31.5904 24.0001 31.8001V36.3001C24.0001 37.8302 23.0731 39.236 21.5801 39.9685L12.6591 44.3479C11.8871 44.7277 11.2011 45.2407 10.6191 45.8734C10.43 46.0803 10.1459 46.2 9.84896 46.2Z" fill="#212529"/>
</g>
<defs>
<clipPath id="clip0">
<rect width="60" height="60" fill="white"/>
</clipPath>
</defs>
</svg>
