<svg width="60" height="60" viewBox="0 0 60 60" fill="none" xmlns="http://www.w3.org/2000/svg">
<g clip-path="url(#clip0)">
<path d="M31 14.9999C30.4469 14.9999 30 14.552 30 14V0.99994C30 0.447966 30.4471 0 31 0C31.5529 0 31.9999 0.447966 31.9999 0.99994V13.9999C31.9999 14.5519 31.5529 14.9999 31 14.9999Z" fill="white"/>
<path d="M30.0005 7H38.0005V1H30.0005V7Z" fill="#FCC419"/>
<path d="M38.0005 9H46.0004V3H38.0005V9Z" fill="#FCC419"/>
<path d="M13.9821 7.17953C13.9861 7.11853 14.0001 7.06159 14.0001 6.99951C14.0001 5.34347 12.6571 3.99957 11.0001 3.99957C9.34313 3.99957 8.00019 5.34359 8.00019 6.99951H7.00025C5.35028 6.99951 4.00031 8.34949 4.00031 9.99945C4.00031 11.6494 5.35028 12.9994 7.00025 12.9994H13.0002C14.6502 12.9994 16.0002 11.6494 16.0002 9.99945C16.0001 8.69547 15.1511 7.59045 13.9821 7.17953Z" fill="white"/>
<path d="M7.00011 9.99988C7.00011 8.34991 8.35008 6.99994 10 6.99994H11C11 5.89194 11.607 4.93596 12.5 4.41591C12.057 4.15786 11.549 3.99988 11 3.99988C9.34299 3.99988 8.00005 5.34282 8.00005 6.99982H7.00011C5.35014 6.99982 4.00017 8.34979 4.00017 9.99976C4.00017 11.6497 5.35014 12.9997 7.00011 12.9997H10C8.35008 12.9999 7.00011 11.65 7.00011 9.99988Z" fill="white"/>
<path d="M56.9818 15.1795C56.9858 15.1185 56.9998 15.0615 56.9998 14.9995C56.9998 13.3434 55.6568 11.9995 53.9998 11.9995C52.3428 11.9995 50.9999 13.3435 50.9999 14.9995H50C48.35 14.9995 47 16.3494 47 17.9994C47 19.6494 48.35 20.9993 50 20.9993H56C57.6499 20.9993 58.9999 19.6494 58.9999 17.9994C58.9998 16.6955 58.1508 15.5905 56.9818 15.1795Z" fill="white"/>
<path d="M56.9817 15.1795C56.9858 15.1185 56.9997 15.0615 56.9997 14.9995C56.9997 13.3434 55.6568 11.9995 53.9998 11.9995C53.4508 11.9995 52.9428 12.1586 52.4998 12.4165C53.3928 12.9355 53.9998 13.8925 53.9998 14.9995C53.9998 15.0614 53.9857 15.1185 53.9818 15.1795C55.1508 15.5905 55.9998 16.6954 55.9998 17.9995C55.9998 19.6495 54.6498 20.9995 52.9998 20.9995H55.9998C57.6498 20.9995 58.9997 19.6495 58.9997 17.9995C58.9997 16.6955 58.1507 15.5905 56.9817 15.1795Z" fill="white"/>
<path d="M30 13.9998L3.00014 58.9995L27.994 58.9226L41.4738 36.0657L30 13.9998Z" fill="#FCC419"/>
<path d="M58.9998 41.9997L47.9998 24.9998L27.994 58.9226L58.9998 58.9995V41.9997Z" fill="white"/>
<path d="M3.00012 58.9995L21.176 28.9626L16.0001 20.9997L1.00012 46.9996V58.9995H3.00012Z" fill="white"/>
<path d="M4.00018 46.9998L16.0001 22.9999V20.9999L1.00012 46.9998V58.9996H3.00012L4.00018 57.3467V46.9998Z" fill="white"/>
<path d="M19.4557 26.3163L15.9997 21.0003L11.7078 28.2774L12.9998 30.0002L14.9998 28.0004L16.9998 30.0002L19.4557 26.3163Z" fill="white"/>
<path d="M38.4324 30.2161L30.0004 14.0002L23.7125 24.6622L26.0005 30.0001L29.0005 27.0001L32.0004 33L34.0004 28.0001L38.4324 30.2161Z" fill="white"/>
<path d="M54.0243 34.2681L48.0002 25.0002L44.0093 31.7661L47.0003 37.0001L50.0002 34.0001L53.0003 37.0001L54.0243 34.2681Z" fill="white"/>
<path d="M47.9998 24.9999V26.9999L55.9998 41.9998V58.9926L58.9997 58.9996V41.9998L47.9998 24.9999Z" fill="white"/>
<path d="M29.9374 16.0472L4.76949 57.994L27.4213 57.925L40.3322 36.0352L29.9374 16.0472ZM3.0005 59.9999C2.64046 59.9999 2.30854 59.806 2.13054 59.4939C1.95255 59.1799 1.95755 58.7949 2.14257 58.4849L29.1424 13.4853C29.3274 13.1743 29.6654 12.9702 30.0303 13.0002C30.3923 13.0112 30.7193 13.2172 30.8864 13.5383L42.3613 35.6041C42.5204 35.9101 42.5104 36.2761 42.3353 36.5731L28.8554 59.4309C28.6754 59.7349 28.3494 59.9219 27.9973 59.9229L3.00253 59.9999H3.0005Z" fill="#212529"/>
<path d="M29.7421 57.9274L57.9999 57.9975V42.2954L48.039 26.9015L29.7421 57.9274ZM59 59.9994H58.997L27.9912 59.9234C27.6332 59.9224 27.3032 59.7294 27.1252 59.4183C26.9482 59.1063 26.9502 58.7234 27.1332 58.4153L47.1381 24.4915C47.3141 24.1936 47.6331 24.0076 47.9791 23.9995C48.3041 23.9965 48.651 24.1655 48.8401 24.4565L59.8401 41.4564C59.9441 41.6185 60.0001 41.8065 60.0001 41.9995V58.9994C60.0001 59.2655 59.894 59.5204 59.706 59.7075C59.5179 59.8944 59.2639 59.9994 59 59.9994Z" fill="#212529"/>
<path d="M2.00014 57.9997H2.43714L19.995 28.9818L16.051 22.9129L2.00014 47.2677V57.9997ZM3.00008 59.9997H1.00008C0.447031 59.9997 0.000137329 59.5517 0.000137329 58.9997V46.9997C0.000137329 46.8247 0.0461253 46.6517 0.13417 46.4997L15.1341 20.4998C15.3081 20.1989 15.6262 20.0098 15.974 19.9998C16.3271 19.9848 16.648 20.1638 16.839 20.4548L22.0149 28.4177C22.2239 28.7398 22.2289 29.1517 22.0309 29.4797L3.85514 59.5176C3.67512 59.8167 3.35011 59.9997 3.00008 59.9997Z" fill="#212529"/>
<path d="M12.9082 28.2107L13.1083 28.4777L14.2932 27.2927C14.6832 26.9017 15.3162 26.9017 15.7072 27.2927L16.8452 28.4297L18.2591 26.3097L16.0411 22.8987L12.9082 28.2107ZM17.0002 30.9998C16.7362 30.9998 16.4812 30.8958 16.2932 30.7068L15.0002 29.4138L13.7072 30.7068C13.5021 30.9118 13.2272 31.0178 12.9292 30.9977C12.6392 30.9768 12.3742 30.8318 12.2002 30.5997L10.9082 28.8776C10.6662 28.5537 10.6412 28.1167 10.8463 27.7696L15.1383 20.4917C15.3142 20.1938 15.6322 20.0078 15.9782 19.9997C16.3232 20.0117 16.6502 20.1657 16.8392 20.4547L20.2952 25.7717C20.5122 26.1067 20.5103 26.5387 20.2882 26.8706L17.8323 30.5545C17.6663 30.8035 17.3962 30.9656 17.0982 30.9945C17.0652 30.9987 17.0322 30.9998 17.0002 30.9998Z" fill="#212529"/>
<path d="M29 25.9998C29.053 25.9998 29.1061 26.0038 29.16 26.0128C29.478 26.0637 29.7511 26.2647 29.895 26.5527L31.898 30.5607L33.071 27.6277C33.176 27.3687 33.3831 27.1647 33.645 27.0646C33.9061 26.9647 34.1961 26.9797 34.4471 27.1047L36.1241 27.9437L29.9452 16.0617L24.8312 24.7337L26.3372 28.2486L28.2933 26.2926C28.4809 26.1038 28.737 25.9998 29 25.9998ZM32 33.9998C31.6219 33.9998 31.275 33.7867 31.105 33.4467L28.726 28.6878L26.7071 30.7067C26.4731 30.9407 26.1401 31.0457 25.811 30.9817C25.485 30.9187 25.212 30.6988 25.081 30.3938L22.7931 25.0558C22.667 24.7629 22.6881 24.4278 22.8511 24.1538L29.1391 13.4919C29.323 13.1789 29.6541 12.9868 30.0261 12.9998C30.39 13.0098 30.72 13.2158 30.888 13.5388L39.3199 29.7547C39.5199 30.1396 39.4489 30.6087 39.146 30.9177C38.841 31.2268 38.373 31.3027 37.985 31.1107L34.5239 29.3798L32.9289 33.3718C32.7819 33.7368 32.4349 33.9827 32.0419 33.9988C32.027 33.9998 32.0139 33.9998 32 33.9998Z" fill="#212529"/>
<path d="M45.1658 31.7742L47.2188 35.3672L49.2928 33.2932C49.6839 32.9022 50.3158 32.9022 50.7068 33.2932L52.6087 35.1942L52.9108 34.3902L48.0408 26.8981L45.1658 31.7742ZM52.9998 38C52.7368 38 52.4817 37.896 52.2928 37.7071L49.9998 35.4141L47.7068 37.7071C47.4868 37.9271 47.1749 38.033 46.8668 37.9911C46.5588 37.949 46.2857 37.7661 46.1318 37.4961L43.1419 32.2622C42.9639 31.9512 42.9659 31.5672 43.1478 31.2582L47.1388 24.4922C47.3138 24.1932 47.6318 24.0072 47.9787 24.0002C48.3338 24.0011 48.6497 24.1652 48.8387 24.4552L54.8626 33.723C55.0356 33.9891 55.0716 34.3221 54.9607 34.6191L53.9367 37.3511C53.8167 37.6691 53.5436 37.9051 53.2117 37.977C53.1418 37.9921 53.0698 38 52.9998 38Z" fill="#212529"/>
<path d="M30 14.9999C29.4469 14.9999 29 14.552 29 14V0.99994C29 0.447966 29.447 0 30 0C30.553 0 30.9999 0.447966 30.9999 0.99994V13.9999C31 14.5519 30.553 14.9999 30 14.9999Z" fill="#212529"/>
<path d="M31.0004 6H37.0004V2H31.0004V6ZM38.0003 8H30.0003C29.4473 8 29.0004 7.55203 29.0004 7.00006V0.99994C29.0004 0.447966 29.4474 0 30.0003 0H38.0003C38.5523 0 39.0003 0.447966 39.0003 0.99994V6.99994C39.0003 7.55192 38.5523 8 38.0003 8Z" fill="#212529"/>
<path d="M39.0003 8H45.0003V4H39.0003V8ZM46.0002 9.99988H38.0002C37.4472 9.99988 37.0003 9.55192 37.0003 8.99994V2.99994C37.0003 2.44797 37.4473 2 38.0002 2H46.0002C46.5522 2 47.0002 2.44797 47.0002 2.99994V8.99994C47.0003 9.55192 46.5523 9.99988 46.0002 9.99988Z" fill="#212529"/>
<path d="M7.00003 7.99994C5.89703 7.99994 5.00003 8.89694 5.00003 9.99994C5.00003 11.1029 5.89703 11.9999 7.00003 11.9999H13C14.103 11.9999 15 11.1029 15 9.99994C15 9.16095 14.4581 8.40692 13.6501 8.12301C13.2281 7.97504 12.9551 7.56305 12.9831 7.11497C12.9851 7.08995 12.9972 6.98796 13.0001 6.96294C13.0001 5.897 12.1031 5 11.0001 5C9.89715 5 9.00015 5.897 9.00015 7C9.00015 7.55197 8.55314 7.99994 8.00021 7.99994H7.00003ZM13 13.9998H7.00003C4.79404 13.9998 3.00003 12.2058 3.00003 9.99982C3.00003 7.79383 4.79404 5.99982 7.00003 5.99982H7.12703C7.57107 4.27682 9.14002 2.99988 11 2.99988C13.049 2.99988 14.743 4.54881 14.9741 6.5369C16.2091 7.23994 17 8.55584 17 9.99982C16.9999 12.2058 15.206 13.9998 13 13.9998Z" fill="#212529"/>
<path d="M49.9999 15.9999C48.8969 15.9999 47.9999 16.8969 47.9999 17.9999C47.9999 19.1029 48.8969 19.9999 49.9999 19.9999H55.9999C57.1029 19.9999 57.9999 19.1029 57.9999 17.9999C57.9999 17.1609 57.4579 16.4069 56.6499 16.1228C56.2279 15.9749 55.9549 15.5629 55.9829 15.1148C55.985 15.0898 55.997 14.9878 56 14.9628C56 13.8968 55.103 12.9998 54 12.9998C52.897 12.9998 52 13.8968 52 14.9998C52 15.5518 51.553 15.9998 51 15.9998H49.9999V15.9999ZM55.9999 21.9999H49.9999C47.7939 21.9999 45.9999 20.2059 45.9999 17.9999C45.9999 15.7939 47.7939 13.9999 49.9999 13.9999H50.1269C50.5709 12.2769 52.1399 10.9999 53.9999 10.9999C56.0488 10.9999 57.7429 12.5489 57.9739 14.537C59.2089 15.24 59.9999 16.5559 59.9999 17.9999C59.9997 20.2059 58.2059 21.9999 55.9999 21.9999Z" fill="#212529"/>
<path d="M25.6773 38.3497C25.7785 38.8923 26.301 39.2505 26.8436 39.1493C27.3862 39.0481 27.7444 38.5255 27.6432 37.9829C27.542 37.4403 27.0195 37.0821 26.4769 37.1833C25.9343 37.2845 25.576 37.8069 25.6773 38.3497Z" fill="#212529"/>
<path d="M19.7791 39.45C19.8803 39.9926 20.4028 40.3508 20.9454 40.2496C21.488 40.1484 21.8463 39.6259 21.745 39.0833C21.6438 38.5407 21.1213 38.1824 20.5787 38.2837C20.0361 38.3849 19.6778 38.9073 19.7791 39.45Z" fill="#212529"/>
<path d="M17.3802 42.9492C17.4814 43.4918 18.0039 43.85 18.5465 43.7488C19.0891 43.6475 19.4473 43.125 19.3461 42.5824C19.2449 42.0398 18.7224 41.6816 18.1798 41.7828C17.6371 41.884 17.2789 42.4066 17.3802 42.9492Z" fill="#212529"/>
<path d="M29.1765 40.7485C29.2778 41.2911 29.8003 41.6493 30.3429 41.5481C30.8855 41.4469 31.2437 40.9243 31.1425 40.3817C31.0413 39.8391 30.5188 39.4809 29.9761 39.5821C29.4336 39.6832 29.0753 40.2059 29.1765 40.7485Z" fill="#212529"/>
<path d="M23.2783 41.8488C23.3796 42.3914 23.9021 42.7496 24.4447 42.6484C24.9873 42.5472 25.3455 42.0247 25.2443 41.4821C25.1431 40.9395 24.6206 40.5812 24.0779 40.6825C23.5353 40.7837 23.1771 41.3062 23.2783 41.8488Z" fill="#212529"/>
<path d="M12.5823 49.9477C12.6835 50.4903 13.206 50.8485 13.7486 50.7473C14.2913 50.6461 14.6495 50.1236 14.5483 49.581C14.447 49.0383 13.9245 48.6801 13.3819 48.7813C12.8394 48.8824 12.4811 49.405 12.5823 49.9477Z" fill="#212529"/>
<path d="M10.1834 53.4468C10.2846 53.9895 10.8071 54.3477 11.3497 54.2464C11.8923 54.1452 12.2505 53.6227 12.1493 53.0801C12.0481 52.5375 11.5256 52.1793 10.983 52.2805C10.4404 52.3817 10.0821 52.9042 10.1834 53.4468Z" fill="#212529"/>
<path d="M18.4805 48.8474C18.5817 49.39 19.1042 49.7482 19.6468 49.647C20.1895 49.5457 20.5477 49.0232 20.4464 48.4806C20.3452 47.938 19.8227 47.5798 19.2801 47.681C18.7375 47.7822 18.3792 48.3046 18.4805 48.8474Z" fill="#212529"/>
<path d="M14.9812 46.4483C15.0824 46.9909 15.605 47.3491 16.1476 47.2479C16.6902 47.1467 17.0484 46.6242 16.9472 46.0816C16.846 45.539 16.3234 45.1807 15.7808 45.282C15.2382 45.3832 14.88 45.9057 14.9812 46.4483Z" fill="#212529"/>
<path d="M16.0816 52.3465C16.1828 52.8891 16.7053 53.2473 17.2479 53.1461C17.7905 53.0449 18.1487 52.5224 18.0475 51.9798C17.9463 51.4371 17.4238 51.0789 16.8812 51.1802C16.3385 51.2813 15.9803 51.8039 16.0816 52.3465Z" fill="#212529"/>
<path d="M30.2769 46.6468C30.3781 47.1894 30.9006 47.5476 31.4432 47.4464C31.9858 47.3452 32.3441 46.8227 32.2428 46.28C32.1416 45.7374 31.6191 45.3792 31.0765 45.4804C30.534 45.5815 30.1756 46.1041 30.2769 46.6468Z" fill="#212529"/>
<path d="M24.3787 47.7471C24.4799 48.2897 25.0024 48.648 25.545 48.5467C26.0876 48.4455 26.4459 47.923 26.3446 47.3804C26.2434 46.8378 25.7209 46.4796 25.1783 46.5808C24.6357 46.682 24.2774 47.2044 24.3787 47.7471Z" fill="#212529"/>
<path d="M26.7776 44.2477C26.8788 44.7904 27.4013 45.1486 27.944 45.0474C28.4866 44.9461 28.8448 44.4236 28.7436 43.881C28.6423 43.3384 28.1198 42.9802 27.5772 43.0814C27.0346 43.1826 26.6764 43.7051 26.7776 44.2477Z" fill="#212529"/>
<path d="M20.8792 45.348C20.9804 45.8906 21.5029 46.2488 22.0455 46.1476C22.5881 46.0463 22.9463 45.5238 22.8451 44.9812C22.7439 44.4386 22.2214 44.0804 21.6788 44.1816C21.1362 44.2828 20.778 44.8054 20.8792 45.348Z" fill="#212529"/>
<path d="M27.8777 50.1459C27.9789 50.6885 28.5014 51.0468 29.0441 50.9455C29.5867 50.8443 29.9449 50.3218 29.8437 49.7792C29.7424 49.2366 29.2199 48.8784 28.6773 48.9796C28.1347 49.0808 27.7765 49.6033 27.8777 50.1459Z" fill="#212529"/>
<path d="M21.9795 51.2463C22.0807 51.7889 22.6033 52.1471 23.1459 52.0459C23.6885 51.9447 24.0467 51.4221 23.9455 50.8795C23.8442 50.3369 23.3217 49.9787 22.7791 50.0799C22.2365 50.1812 21.8783 50.7037 21.9795 51.2463Z" fill="#212529"/>
<path d="M13.6826 55.8456C13.7839 56.3883 14.3064 56.7465 14.849 56.6453C15.3916 56.544 15.7498 56.0215 15.6486 55.4789C15.5474 54.9363 15.0249 54.5781 14.4822 54.6793C13.9398 54.7805 13.5814 55.303 13.6826 55.8456Z" fill="#212529"/>
<path d="M19.5808 54.7453C19.6821 55.2879 20.2046 55.6461 20.7472 55.5449C21.2898 55.4437 21.648 54.9212 21.5468 54.3786C21.4456 53.8359 20.923 53.4777 20.3804 53.579C19.8378 53.6802 19.4796 54.2027 19.5808 54.7453Z" fill="#212529"/>
</g>
<defs>
<clipPath id="clip0">
<rect width="60" height="60" fill="white"/>
</clipPath>
</defs>
</svg>
