<?xml version="1.0" encoding="UTF-8"?>
<svg width="40px" height="41px" viewBox="0 0 40 41" version="1.1" xmlns="http://www.w3.org/2000/svg" xmlns:xlink="http://www.w3.org/1999/xlink">
    <title>icon-category</title>
    <g id="Page-1" stroke="none" stroke-width="1" fill="none" fill-rule="evenodd">
        <g id="icon-category" transform="translate(1.000000, 1.000000)" stroke="#AAAAAA" stroke-width="2">
            <line x1="13" y1="4" x2="25" y2="4" id="Line_11"></line>
            <path d="M4,23 L5.461,23.487 C6.48054798,23.8269551 7.54826864,24.0001811 8.623,24 L29.377,24 C30.4517314,24.0001811 31.519452,23.8269551 32.539,23.487 L34,23" id="Path_64"></path>
            <path d="M4,10 L4.973,9.35 C6.28880398,8.47005553 7.83607792,8.00023551 9.419,8 L28.581,8 C30.1639221,8.00023551 31.711196,8.47005553 33.027,9.35 L34,10" id="Path_65"></path>
            <path d="M4,33 L4,4 C4,1.790861 5.790861,0 8,0 L30,0 C32.209139,0 34,1.790861 34,4 L34,33 C34,34.1045695 33.1045695,35 32,35 L6,35 C4.8954305,35 4,34.1045695 4,33 Z" id="Path_66"></path>
            <path d="M6,35 L6,38 C6,38.5522847 6.44771525,39 7,39 L11,39 C11.5522847,39 12,38.5522847 12,38 L12,35" id="Path_67"></path>
            <path d="M26,35 L26,38 C26,38.5522847 26.4477153,39 27,39 L31,39 C31.5522847,39 32,38.5522847 32,38 L32,35" id="Path_68"></path>
            <line x1="19" y1="8" x2="19" y2="23" id="Line_12"></line>
            <path d="M30,28 L30,29 C30,30.1045695 29.1045695,31 28,31 L27,31" id="Path_69"></path>
            <path d="M8,28 L8,29 C8,30.1045695 8.8954305,31 10,31 L11,31" id="Path_70"></path>
            <path d="M36,13 L37,13 C37.5522847,13 38,13.4477153 38,14 L38,19 C38,19.5522847 37.5522847,20 37,20 L36,20" id="Path_71" stroke-linejoin="round"></path>
            <path d="M2,13 L1,13 C0.44771525,13 0,13.4477153 0,14 L0,19 C0,19.5522847 0.44771525,20 1,20 L2,20" id="Path_72" stroke-linejoin="round"></path>
            <line x1="15" y1="31" x2="23" y2="31" id="Line_13"></line>
        </g>
    </g>
</svg>