<svg width="173" height="44" viewBox="0 0 173 44" fill="none" xmlns="http://www.w3.org/2000/svg">
<g clip-path="url(#clip0)">
<path fill-rule="evenodd" clip-rule="evenodd" d="M165.816 31.4183C166.858 31.4183 167.757 31.1857 168.51 30.7206C169.264 30.2555 169.817 29.598 170.154 28.7479V26.647H165.952C163.643 26.647 162.488 27.4248 162.488 28.9725C162.488 29.7263 162.785 30.3277 163.37 30.7607C163.956 31.2018 164.773 31.4183 165.816 31.4183ZM166.433 18.1549C168.518 18.1549 170.114 18.6681 171.221 19.6865C172.327 20.7049 172.881 22.2366 172.881 24.2573V33.3428H170.299V31.3541C169.841 32.0518 169.192 32.589 168.35 32.9579C167.508 33.3268 166.506 33.5112 165.351 33.5112C163.667 33.5112 162.32 33.1022 161.301 32.2923C160.291 31.4744 159.778 30.4079 159.778 29.0847C159.778 27.7616 160.259 26.6951 161.229 25.8932C162.191 25.0913 163.731 24.6904 165.832 24.6904H170.146V24.1531C170.146 22.9823 169.809 22.0842 169.128 21.4587C168.446 20.8332 167.444 20.5205 166.121 20.5205C165.231 20.5205 164.356 20.6648 163.506 20.9615C162.656 21.2582 161.935 21.6512 161.349 22.1403L160.211 20.0955C160.989 19.47 161.911 18.9889 162.993 18.6601C164.084 18.3233 165.223 18.1549 166.433 18.1549ZM154.397 15.4044C153.868 15.4044 153.427 15.236 153.074 14.8912C152.721 14.5464 152.545 14.1374 152.545 13.6402C152.545 13.1511 152.721 12.7261 153.074 12.3732C153.427 12.0204 153.868 11.844 154.397 11.844C154.926 11.844 155.367 12.0124 155.72 12.3412C156.073 12.6699 156.249 13.0869 156.249 13.5761C156.249 14.0893 156.073 14.5143 155.72 14.8671C155.367 15.228 154.926 15.4044 154.397 15.4044ZM153.034 18.2993H155.76V33.3508H153.034V18.2993ZM140.115 31.1376C141.061 31.1376 141.919 30.9131 142.697 30.472C143.475 30.031 144.077 29.4055 144.518 28.5956C144.951 27.7937 145.167 26.8715 145.167 25.8291C145.167 24.7866 144.951 23.8644 144.518 23.0625C144.085 22.2606 143.475 21.6351 142.697 21.2021C141.919 20.7691 141.061 20.5526 140.115 20.5526C139.153 20.5526 138.287 20.7691 137.517 21.2021C136.747 21.6351 136.146 22.2606 135.697 23.0625C135.256 23.8644 135.031 24.7866 135.031 25.8291C135.031 26.8715 135.256 27.7937 135.697 28.5956C136.138 29.3975 136.747 30.023 137.517 30.472C138.279 30.9131 139.145 31.1376 140.115 31.1376ZM147.861 12.277V33.3508H145.247V30.9692C144.646 31.8032 143.876 32.4367 142.946 32.8697C142.016 33.3027 140.997 33.5192 139.883 33.5192C138.423 33.5192 137.116 33.1985 135.961 32.557C134.807 31.9154 133.9 31.0093 133.251 29.8465C132.601 28.6838 132.273 27.3446 132.273 25.8291C132.273 24.3135 132.601 22.9823 133.251 21.8276C133.9 20.6729 134.807 19.7747 135.961 19.1332C137.116 18.4917 138.423 18.1709 139.883 18.1709C140.965 18.1709 141.952 18.3714 142.866 18.7804C143.772 19.1894 144.534 19.7908 145.135 20.5847V12.277H147.861ZM122.449 20.4564C121.142 20.4564 120.052 20.8573 119.17 21.6512C118.288 22.4451 117.774 23.4875 117.622 24.7786H127.277C127.124 23.5116 126.611 22.4771 125.729 21.6672C124.847 20.8653 123.757 20.4564 122.449 20.4564ZM129.891 25.9092C129.891 26.1177 129.875 26.3904 129.835 26.7352H117.622C117.79 28.0583 118.376 29.1248 119.37 29.9267C120.365 30.7286 121.599 31.1296 123.075 31.1296C124.871 31.1296 126.323 30.5201 127.421 29.3093L128.929 31.0734C128.247 31.8673 127.397 32.4768 126.387 32.8938C125.376 33.3107 124.246 33.5192 122.995 33.5192C121.407 33.5192 119.996 33.1905 118.761 32.5409C117.526 31.8914 116.58 30.9772 115.906 29.7984C115.232 28.6277 114.896 27.2965 114.896 25.821C114.896 24.3616 115.224 23.0465 115.874 21.8757C116.523 20.7049 117.43 19.7908 118.568 19.1332C119.715 18.4757 121.006 18.1549 122.441 18.1549C123.877 18.1549 125.16 18.4837 126.291 19.1332C127.421 19.7828 128.295 20.6969 128.929 21.8757C129.57 23.0545 129.891 24.3937 129.891 25.9092ZM105.096 18.1549C106.989 18.1549 108.488 18.7002 109.595 19.7988C110.702 20.8974 111.255 22.5252 111.255 24.6823V33.3428H108.529V25.0031C108.529 23.5436 108.192 22.4451 107.518 21.7073C106.845 20.9696 105.882 20.6007 104.639 20.6007C103.26 20.6007 102.161 21.0337 101.344 21.8917C100.526 22.7498 100.125 23.9847 100.125 25.5965V33.3508H97.3982V25.0031C97.3982 23.5436 97.0614 22.4451 96.3878 21.7073C95.7142 20.9696 94.752 20.6007 93.509 20.6007C92.1298 20.6007 91.0312 21.0337 90.2132 21.8917C89.3953 22.7498 88.9944 23.9847 88.9944 25.5965V33.3508H86.2679V18.2993H88.8821V20.5446C89.4274 19.7667 90.1491 19.1733 91.0392 18.7724C91.9293 18.3634 92.9397 18.1629 94.0784 18.1629C95.2491 18.1629 96.2916 18.3955 97.2058 18.8766C98.1119 19.3497 98.8176 20.0394 99.3067 20.9535C99.8761 20.0795 100.662 19.3978 101.68 18.9087C102.683 18.4035 103.829 18.1549 105.096 18.1549ZM73.5418 27.3607L71.4088 29.4616V33.3508H66.9823V12.277H71.4088V24.2012L77.8801 18.0667H83.1646L76.8055 24.538L83.7339 33.3428H78.3692L73.5418 27.3607ZM64.4884 32.6131C64.0554 32.9338 63.5181 33.1744 62.8846 33.3348C62.2511 33.4952 61.5856 33.5754 60.8799 33.5754C59.0596 33.5754 57.6563 33.1103 56.6619 32.1801C55.6676 31.2499 55.1704 29.8866 55.1704 28.0904V21.8116H52.8128V18.4035H55.1704V14.6827H59.5969V18.4035H63.4059V21.8116H59.5969V28.0343C59.5969 28.6758 59.7653 29.173 60.094 29.5258C60.4228 29.8786 60.8959 30.055 61.4974 30.055C62.195 30.055 62.7964 29.8626 63.2856 29.4857L64.4884 32.6131Z" fill="white"/>
<path fill-rule="evenodd" clip-rule="evenodd" d="M24.5701 19.5021L25.4682 17.0964L27.0319 17.7861L24.5701 19.5021ZM23.0465 14.5865L32.6131 10.9138L24.6102 15.1158C24.4177 15.204 24.2573 15.3563 24.1691 15.5648C24.1531 15.6049 24.1371 15.645 24.129 15.6851L23.279 17.9464L23.0465 14.5865ZM26.9918 15.8535L38.0259 10.0558L39.8301 9.10956L45.1547 6.31094L36.2617 19.9432C32.3805 18.2271 36.8391 20.1998 30.448 17.3771L30.4239 17.3691L29.173 16.8158L29.1248 16.7997L26.9918 15.8535ZM37.9778 6.88029L35.556 7.32133L16.5591 10.7775L22.1403 13.0629L38.491 6.78406L37.9778 6.88029ZM16.2464 0.769843C22.1083 -0.81791 28.0583 0.120307 32.9419 2.91892C34.1688 3.62459 35.3315 4.45054 36.4061 5.38074L47.384 3.38402H47.392C47.8732 3.29581 48.3302 3.61657 48.4184 4.08969C48.4666 4.3463 48.3944 4.59488 48.25 4.77932L43.3184 12.3332L42.3882 13.7525C42.709 14.5544 42.9896 15.3884 43.2222 16.2464C44.8099 22.1083 43.8717 28.0583 41.0731 32.9419C38.2745 37.8254 33.6074 41.6425 27.7456 43.2302C25.5725 43.8156 23.3913 44.0562 21.2502 43.992C19.1012 43.9198 16.8879 43.1821 15.2039 41.7788C13.9931 40.7684 13.1751 39.4854 12.7501 38.082C12.3332 36.6867 12.2931 35.1712 12.6379 33.6716C12.9827 32.156 13.7124 30.6565 14.8271 29.3253L18.0026 25.5163C18.3394 25.1074 18.9488 25.0512 19.3497 25.3961C19.7587 25.7328 19.8148 26.3423 19.47 26.7432L16.2945 30.5522C15.3804 31.6508 14.787 32.8697 14.5063 34.0966C14.2417 35.2754 14.2657 36.4542 14.5945 37.5368C14.9153 38.6033 15.5247 39.5655 16.4308 40.3193C17.778 41.442 19.5582 41.9311 21.2823 41.9873C23.2389 42.0594 25.2276 41.8349 27.2163 41.2976C32.5409 39.8542 36.7749 36.39 39.325 31.9556C41.867 27.5211 42.725 22.1163 41.2816 16.7917C41.2014 16.487 41.1052 16.1823 41.0089 15.8856L38.0259 20.4564L37.3122 21.547C37.0636 21.9238 36.5825 22.0521 36.1895 21.8517L29.7263 18.9969L29.7022 18.9889L28.9003 18.6361L23.1748 22.6135C22.7738 22.8941 22.2285 22.7899 21.9479 22.397C21.8436 22.2446 21.7955 22.0762 21.7875 21.9078L21.2903 14.6106L13.119 11.2667C12.67 11.0822 12.4534 10.569 12.6379 10.1199C12.7662 9.8072 13.0549 9.60673 13.3756 9.57465L33.7758 5.86188C33.1824 5.42886 32.573 5.03593 31.9395 4.66705C27.505 2.12505 22.1002 1.27504 16.7757 2.71845C11.4511 4.16186 7.21707 7.62605 4.66704 12.0605C2.12503 16.495 1.267 21.8998 2.71042 27.2244C3.96137 31.8433 6.73593 35.6443 10.3364 38.2264C10.4567 38.3146 11.1704 38.8198 11.2907 38.9C12.8384 39.9905 11.6836 41.5462 10.593 40.8085C5.92601 37.9858 2.29343 33.431 0.75379 27.7456C-0.833962 21.8837 0.104255 15.9337 2.90287 11.0501C5.72554 6.17462 10.3846 2.3576 16.2464 0.769843Z" fill="#FCC419"/>
</g>
<defs>
<clipPath id="clip0">
<rect width="172.881" height="44" fill="white"/>
</clipPath>
</defs>
</svg>
