<svg width="120" height="144" viewBox="0 0 120 144" fill="none" xmlns="http://www.w3.org/2000/svg">
<path d="M99.4454 130.452L99.9284 141.308H115.474C115.76 136.544 116.342 126.855 116.503 124.181C116.628 122.1 116.521 120.162 116.225 118.403L99.4454 130.452Z" fill="white"/>
<path d="M85.3578 101.975C79.9821 100.307 75.6887 98.88 74.8569 98.3417C72.3345 96.6998 68.2558 96.0359 68.2558 88.8852C68.2558 86.9473 68.2558 84.3634 68.2558 83.0804C68.2379 82.9009 68.2201 82.7125 68.2022 82.5241C65.2326 83.5738 63.3005 83.7712 59.9911 83.7712C56.6726 83.7712 54.7853 83.5828 51.7979 82.5151C51.7889 82.5869 51.7889 82.6766 51.78 82.7484C51.78 83.8609 51.78 86.7678 51.78 88.8942C51.78 96.0449 47.6387 96.7088 45.1163 98.3507C45.0716 98.3776 34.2487 101.796 34.1861 101.832C35 100.585 35.5099 99.2389 35.7961 97.8123C33.2827 99.3376 30.7424 100.818 28.6404 101.877C31.6637 108.812 39.9463 121.588 60 121.588C80.0537 121.588 88.3363 108.821 91.3596 101.877C89.5617 100.97 87.4419 99.7592 85.2862 98.4763C85.2773 99.6067 85.2862 100.773 85.3578 101.975Z" fill="white"/>
<path d="M3.49733 124.172C3.65833 126.855 4.23973 136.535 4.52595 141.299H20.0716L20.5635 130.443L3.77461 118.394C3.4705 120.162 3.37211 122.09 3.49733 124.172Z" fill="white"/>
<path d="M30.975 58.2102C30.5903 56.676 30.2773 55.079 30.0179 53.4281C29.7943 52.0195 29.6243 50.5661 29.4902 49.0767C28.8014 47.3093 28.1306 45.5956 27.6208 44.2947C26.8784 45.6046 26.7889 47.9194 27.3971 50.9339C28.0501 54.2266 29.025 56.1466 29.9821 57.2771C30.3131 57.6809 30.653 57.9859 30.975 58.2102Z" fill="white"/>
<path d="M91.6279 43.4602L90.7782 44.5279C90.7513 44.9765 90.7334 45.4161 90.6977 45.8737C90.5814 48.8703 90.2862 51.7324 89.8032 54.4509C89.5796 55.7338 89.3113 56.981 89.0071 58.2011C89.356 57.9499 89.7317 57.618 90.0984 57.1604C91.0197 56.012 91.9499 54.1099 92.585 50.9339C93.2469 47.5873 93.0769 45.0841 92.102 43.8909C91.9588 43.7114 91.7889 43.5679 91.6279 43.4602Z" fill="white"/>
<path d="M33.7388 48.6191C34.0519 52.4053 34.6691 55.7877 35.5367 58.7933C35.7156 59.4034 35.8945 60.0045 36.0912 60.5788C36.297 61.1888 36.5116 61.79 36.7442 62.3642C39.5886 69.6135 44.0429 74.2251 49.0429 76.818C49.9821 77.3025 50.9392 77.7242 51.9052 78.0741C54.5617 79.0251 57.3077 79.4737 60 79.4737C62.6923 79.4737 65.4472 79.0251 68.1127 78.0741C69.0787 77.7242 70.0358 77.3025 70.975 76.818C75.966 74.2251 80.4204 69.6046 83.2648 62.3642C83.4884 61.79 83.712 61.1888 83.9177 60.5788C84.1145 59.9956 84.3023 59.4034 84.4723 58.7933C85.4383 55.4378 86.0823 51.6158 86.3596 47.2823C86.3596 46.9773 86.3596 46.6543 86.3596 46.3582C86.3596 45.1918 86.3417 44.0973 86.3059 43.0655C86.288 42.4464 86.2701 41.8453 86.2433 41.2801C86.2165 40.652 86.1807 40.0689 86.136 39.4946C85.322 27.7324 82.5492 27.0774 82.5492 27.0774C82.5492 27.0774 83.9714 32.8554 83.2469 35.2419C81.5474 31.3122 75.8229 21.6404 72.7191 16.4905C64.839 27.6696 46.9589 31.2584 46.9589 31.2584C46.9589 31.2584 58.5063 25.3279 64.8748 16.2483C58.2916 20.1601 47.424 27.8131 39.1592 39.4946C38.7478 40.0778 38.3363 40.6789 37.9338 41.2801C37.5492 41.8632 37.1646 42.4644 36.7979 43.0655C35.7692 44.7343 34.8032 46.4748 33.9088 48.2961C33.8462 48.4038 33.7925 48.5115 33.7388 48.6191ZM46.9768 51.0864C45.0805 51.1403 43.9624 50.0457 43.7567 47.9373C43.7299 47.6502 43.712 47.3361 43.7209 47.0132C43.6762 44.824 44.4276 43.4782 45.8587 43.0745C46.1986 42.9758 46.5653 42.9219 46.9768 42.9309C47.3882 42.9219 47.7549 42.9758 48.0948 43.0745C49.517 43.4782 50.2683 44.824 50.2326 47.0132C50.2415 47.2554 50.2236 47.4797 50.2057 47.704C50.0537 49.947 48.9446 51.1403 46.9768 51.0864ZM70.6619 66.1324C70.5367 66.2939 67.5134 70.0621 59.9911 70.0621C52.4687 70.0621 49.4454 66.2939 49.3202 66.1324C48.9535 65.6659 49.0429 64.993 49.5081 64.6251C49.9732 64.2573 50.6351 64.347 51.0018 64.8046C51.1181 64.9391 53.6047 67.9178 60 67.9178C66.4937 67.9178 68.9624 64.8404 68.9893 64.8135C69.356 64.347 70.0268 64.2662 70.492 64.6251C70.9481 64.993 71.0286 65.6659 70.6619 66.1324ZM73.0054 51.0864C70.8408 51.1492 69.6959 49.7227 69.7496 47.0042C69.7496 46.9952 69.7496 46.9862 69.7496 46.9683C69.7138 44.7971 70.4651 43.4692 71.8784 43.0655C72.2183 42.9668 72.585 42.913 72.9964 42.9219C73.4079 42.913 73.7746 42.9668 74.1145 43.0655C75.4741 43.4513 76.2165 44.7074 76.2433 46.726C76.2433 46.8247 76.2522 46.9055 76.2522 47.0042C76.3148 49.7137 75.1699 51.1492 73.0054 51.0864ZM68.0054 35.3855H76.9141C77.4061 35.3855 77.8086 35.7892 77.8086 36.2827C77.8086 36.7761 77.4061 37.1799 76.9141 37.1799H68.0054C67.5134 37.1799 67.1109 36.7761 67.1109 36.2827C67.1109 35.7892 67.5134 35.3855 68.0054 35.3855ZM56.8605 60.5788C57.0662 60.4801 57.4061 60.4173 57.907 60.4173H62.0662C62.5671 60.4173 62.9159 60.4801 63.1127 60.5788C63.5063 60.7672 63.3542 61.1171 62.5671 61.5118L62.1378 61.7272C60.9481 62.3283 59.0161 62.3283 57.8265 61.7272L57.3971 61.5118C56.6279 61.1171 56.4669 60.7761 56.8605 60.5788ZM43.068 35.3855H51.9768C52.4687 35.3855 52.8712 35.7892 52.8712 36.2827C52.8712 36.7761 52.4776 37.1799 51.9768 37.1799H43.068C42.576 37.1799 42.1735 36.7761 42.1735 36.2827C42.1735 35.7892 42.5671 35.3855 43.068 35.3855Z" fill="white"/>
<path d="M108.327 104.703C100.429 101.715 92.8891 97.4893 92.8891 97.4893C92.8891 97.4893 92.746 98.1174 92.3971 99.1671C90.3667 98.1264 87.8801 96.6819 85.4383 95.1835C86.297 84.0404 90.4204 74.3955 90.3131 61.6105C92.4419 60.4621 94.8569 57.7794 96.0823 51.6336C96.9857 47.0938 96.5742 43.7204 94.8569 41.6209C94.4007 41.0647 93.8909 40.6609 93.39 40.3559C93.6047 34.2639 93.3095 0 59.8479 0C27.5313 0 26.4311 32.5323 26.6369 40.329C26.1181 40.643 25.5903 41.0467 25.1163 41.6299C23.3989 43.7293 22.9875 47.1028 23.8909 51.6426C25.2057 58.2191 27.8801 60.8389 30.1073 61.8437C30.8408 75.4093 35.8676 86.1039 36.0644 94.2684C33.1664 96.0718 30.0447 97.929 27.5939 99.1761C27.2451 98.1264 27.102 97.4983 27.102 97.4983C27.102 97.4983 19.5707 101.724 11.6637 104.712C3.75671 107.699 0.366726 113.127 0 115.684L1.21646 116.564C0.670841 118.896 0.465116 121.516 0.635063 124.351C0.849732 127.949 1.82469 144 1.82469 144H2.9517H3.39893H4.678H19.9463H60H100.054H115.313H117.039H117.451H118.166C118.166 144 119.141 127.94 119.356 124.351C119.526 121.516 119.32 118.905 118.775 116.564L119.991 115.684C119.633 113.127 116.225 107.699 108.327 104.703ZM20.0716 141.308H4.52594C4.23971 136.544 3.65832 126.855 3.49732 124.181C3.37209 122.099 3.47943 120.161 3.7746 118.403L20.5546 130.452L20.0716 141.308ZM89.8032 54.4598C90.2773 51.7413 90.5814 48.8703 90.6977 45.8826C90.7335 45.425 90.7513 44.9854 90.7782 44.5368L91.6279 43.4692C91.7979 43.5768 91.9589 43.7204 92.1109 43.9088C93.0948 45.1021 93.2648 47.6052 92.5939 50.9518C91.9588 54.1278 91.0286 56.0299 90.1073 57.1783C89.7406 57.6359 89.3649 57.9768 89.0161 58.2191C89.3202 56.9899 89.5796 55.7338 89.8032 54.4598ZM29.9732 57.286C29.0161 56.1555 28.0411 54.2265 27.3882 50.9428C26.7889 47.9282 26.8784 45.6045 27.6118 44.3036C28.1216 45.6045 28.7925 47.3271 29.4812 49.0856C29.6064 50.575 29.7853 52.0194 30.0089 53.437C30.2683 55.0789 30.5814 56.6849 30.966 58.2191C30.653 57.9858 30.3131 57.6807 29.9732 57.286ZM35.5367 58.7933C34.6691 55.7877 34.0608 52.4052 33.7388 48.6191C33.7925 48.5114 33.8462 48.4037 33.8998 48.2961C34.7943 46.4748 35.7603 44.7342 36.7889 43.0654C37.1646 42.4643 37.5403 41.8632 37.9249 41.28C38.3274 40.6789 38.7299 40.0778 39.1503 39.4946C47.424 27.8131 58.2916 20.16 64.8748 16.2482C58.5063 25.3279 46.9589 31.2583 46.9589 31.2583C46.9589 31.2583 64.839 27.6695 72.7102 16.4905C75.805 21.6404 81.5385 31.3121 83.2379 35.2419C83.9624 32.8553 82.5402 27.0774 82.5402 27.0774C82.5402 27.0774 85.3131 27.7323 86.127 39.4946C86.1628 40.0688 86.1986 40.652 86.2343 41.28C86.2612 41.8542 86.2791 42.4464 86.297 43.0654C86.3327 44.0972 86.3506 45.1918 86.3506 46.3581C86.3506 46.6542 86.3506 46.9772 86.3506 47.2822C86.0823 51.6157 85.4293 55.4378 84.4633 58.7933C84.2844 59.4034 84.1055 60.0045 83.9088 60.5787C83.703 61.1888 83.4884 61.7899 83.2558 62.3641C80.4114 69.6045 75.9571 74.2161 70.966 76.8179C70.0268 77.3024 69.0698 77.7331 68.1038 78.074C65.4383 79.025 62.6923 79.4736 59.9911 79.4736C57.2987 79.4736 54.5528 79.025 51.8962 78.074C50.9302 77.7241 49.9732 77.3024 49.034 76.8179C44.0429 74.225 39.5886 69.6045 36.7352 62.3641C36.5116 61.7899 36.288 61.1888 36.0823 60.5787C35.8945 60.0045 35.7066 59.4034 35.5367 58.7933ZM60 121.57C39.9463 121.57 31.6637 108.803 28.6404 101.859C30.7424 100.8 33.2826 99.3286 35.7961 97.7944C35.5098 99.2299 35 100.567 34.186 101.814C34.2487 101.778 45.0716 98.3686 45.1163 98.3327C47.6386 96.6908 51.78 96.0269 51.78 88.8763C51.78 86.7499 51.78 83.843 51.78 82.7305C51.7889 82.6587 51.7889 82.5779 51.7979 82.4972C54.7853 83.5649 56.6637 83.7533 59.9911 83.7533C63.3005 83.7533 65.2326 83.5649 68.2021 82.5062C68.22 82.6946 68.2379 82.883 68.2558 83.0624C68.2558 84.3454 68.2558 86.9293 68.2558 88.8673C68.2558 96.0179 72.3345 96.6819 74.8569 98.3237C75.6887 98.8621 79.9821 100.289 85.3578 101.957C85.2862 100.764 85.2773 99.5978 85.2952 98.4404C87.4419 99.7234 89.5707 100.944 91.3685 101.841C88.3363 108.794 80.0537 121.57 60 121.57ZM116.503 124.172C116.342 126.855 115.76 136.535 115.474 141.299H99.9284L99.4454 130.443L116.225 118.394C116.53 120.161 116.628 122.09 116.503 124.172Z" fill="#343A40"/>
<path d="M50.2057 47.695C50.2236 47.4707 50.2415 47.2464 50.2326 47.0041C50.2773 44.815 49.526 43.4692 48.0948 43.0654C47.7549 42.9667 47.3882 42.9129 46.9768 42.9219C46.5564 42.9129 46.1986 42.9667 45.8587 43.0654C44.4276 43.4692 43.6762 44.815 43.721 47.0041C43.712 47.3361 43.7299 47.6411 43.7567 47.9282C43.9625 50.0366 45.0805 51.1402 46.9768 51.0774C48.9446 51.1402 50.0537 49.9469 50.2057 47.695Z" fill="#343A40"/>
<path d="M74.1235 43.0654C73.7836 42.9667 73.4168 42.9129 73.0054 42.9219C72.5939 42.9129 72.2272 42.9667 71.8873 43.0654C70.4741 43.4692 69.7227 44.797 69.7585 46.9682C69.7585 46.9772 69.7585 46.9862 69.7585 47.0041C69.7049 49.7136 70.8498 51.1492 73.0143 51.0864C75.1789 51.1492 76.3238 49.7226 76.2701 47.0041C76.2701 46.9054 76.2612 46.8247 76.2612 46.726C76.2254 44.7073 75.483 43.4602 74.1235 43.0654Z" fill="#343A40"/>
<path d="M57.4061 61.5118L57.8354 61.7271C59.0251 62.3283 60.9571 62.3283 62.1467 61.7271L62.576 61.5118C63.3542 61.117 63.5152 60.7761 63.1217 60.5787C62.9159 60.48 62.5761 60.4172 62.0752 60.4172H57.9159C57.415 60.4172 57.0752 60.48 56.8694 60.5787C56.4669 60.7761 56.6279 61.117 57.4061 61.5118Z" fill="#343A40"/>
<path d="M68.9803 64.8135C68.9535 64.8404 66.4848 67.9178 59.9911 67.9178C53.5957 67.9178 51.1091 64.9481 50.9929 64.8045C50.6261 64.3469 49.9553 64.2662 49.4991 64.6251C49.034 64.9929 48.9535 65.6658 49.3113 66.1324C49.4365 66.2939 52.4598 70.0621 59.9821 70.0621C67.5045 70.0621 70.5277 66.2939 70.653 66.1324C71.0197 65.6658 70.9392 64.9929 70.4651 64.6251C70.0179 64.2662 69.3471 64.3469 68.9803 64.8135Z" fill="#343A40"/>
<path d="M43.068 37.1709H51.9767C52.4687 37.1709 52.8712 36.7671 52.8712 36.2737C52.8712 35.7802 52.4776 35.3765 51.9767 35.3765H43.068C42.576 35.3765 42.1735 35.7802 42.1735 36.2737C42.1735 36.7671 42.5671 37.1709 43.068 37.1709Z" fill="#343A40"/>
<path d="M68.0054 37.1709H76.9141C77.4061 37.1709 77.8086 36.7671 77.8086 36.2737C77.8086 35.7802 77.4061 35.3765 76.9141 35.3765H68.0054C67.5134 35.3765 67.1109 35.7802 67.1109 36.2737C67.1109 36.7671 67.5134 37.1709 68.0054 37.1709Z" fill="#343A40"/>
</svg>
