<svg width="120" height="144" viewBox="0 0 120 144" fill="none" xmlns="http://www.w3.org/2000/svg">
<g clip-path="url(#clip0)">
<path d="M39.1562 92.3801C39.0527 92.4358 38.9492 92.4836 38.8378 92.5234C38.8139 92.5313 38.5273 92.6189 38.0338 92.7781L49.9502 140.815H61.9701V102.196C61.9701 101.535 62.5035 101.002 63.1642 101.002C63.8249 101.002 64.3582 101.535 64.3582 102.196V140.815H70.0418L81.9582 92.7781C81.4726 92.6189 81.1781 92.5234 81.1622 92.5234C81.0507 92.4915 80.9472 92.4358 80.8438 92.3801L79.2438 91.4407L71.4905 103.764C71.2676 104.115 70.8856 104.322 70.4796 104.322C70.4637 104.322 70.4477 104.322 70.4318 104.322C70.002 104.306 69.6199 104.059 69.4209 103.677L63.395 92.1094L59.7254 99.6645C59.5263 100.078 59.1045 100.333 58.6507 100.333C58.587 100.333 58.5154 100.325 58.4517 100.317C57.9263 100.23 57.5283 99.7998 57.4647 99.2744L56.6368 92.0298L50.5711 103.669C50.3721 104.051 49.99 104.29 49.5602 104.314C49.5443 104.314 49.5283 104.314 49.5124 104.314C49.1064 104.314 48.7244 104.107 48.5015 103.756L40.7482 91.4407L39.1562 92.3801ZM59.399 104.457C60.3542 104.457 61.1263 105.229 61.1263 106.185C61.1263 107.14 60.3542 107.912 59.399 107.912C58.4438 107.912 57.6716 107.14 57.6716 106.185C57.6796 105.229 58.4517 104.457 59.399 104.457ZM59.399 123.166C60.3542 123.166 61.1263 123.938 61.1263 124.893C61.1263 125.848 60.3542 126.621 59.399 126.621C58.4438 126.621 57.6716 125.848 57.6716 124.893C57.6796 123.938 58.4517 123.166 59.399 123.166Z" fill="white"/>
<path d="M59.9961 84.7294C59.6459 84.7374 59.3036 84.7453 58.9613 84.7453C56.6687 84.7453 54.2807 84.4985 51.9165 83.8935L58.3324 88.9249C58.5872 89.1239 58.7464 89.4105 58.7782 89.729L59.3752 94.9355L62.0896 89.3389C62.1613 89.1876 62.2727 89.0523 62.4001 88.9408L68.6966 83.7263C66.1334 84.4587 63.5225 84.7453 61.0309 84.7453C60.6966 84.7453 60.3464 84.7374 59.9961 84.7294Z" fill="white"/>
<path d="M45.6437 81.2268L42.189 89.2436L49.4168 100.731L55.0924 89.8407C55.1482 89.7372 55.2118 89.6496 55.2915 89.578L47.0367 83.1136C46.6387 82.8031 46.4954 82.2856 46.6387 81.8239C46.3044 81.6249 45.9701 81.4338 45.6437 81.2268Z" fill="white"/>
<path d="M64.9552 89.9281L70.5831 100.731L77.8109 89.2435L74.3642 81.2346C74.0935 81.4018 73.8308 81.561 73.5522 81.7123C73.7433 82.182 73.6239 82.7393 73.2179 83.0816L64.9552 89.9281Z" fill="white"/>
<path d="M33.1944 59.8113C32.9397 58.4659 32.7247 57.0488 32.5496 55.5601L32.2709 55.1302C32.2709 55.1302 31.4111 51.5796 30.4399 46.6357C30.3364 46.7154 30.2408 46.8029 30.1453 46.9223C29.2776 47.9891 29.1183 50.2023 29.7154 53.1718C30.5832 57.4867 32.0639 59.1665 33.1944 59.8113Z" fill="white"/>
<path d="M89.433 46.5403C88.7325 51.6433 88.0398 55.393 88.0398 55.393L87.395 56.0378C87.2278 57.3514 87.0368 58.6013 86.8138 59.8034C87.9523 59.1586 89.4251 57.4788 90.2849 53.1719C90.882 50.2024 90.7227 47.9812 89.855 46.9224C89.7196 46.7632 89.5763 46.6358 89.433 46.5403Z" fill="white"/>
<path d="M37.1343 60.1458C37.2457 60.6872 37.3651 61.2126 37.4925 61.7301C37.6198 62.2714 37.7631 62.7969 37.9064 63.3143C39.6258 69.4603 42.3959 73.9981 46.185 76.9278C48.3979 78.6394 50.9532 79.8017 53.8586 80.4147C55.4586 80.7491 57.1542 80.9322 58.9691 80.9322C59.2875 80.9322 59.6218 80.9242 59.9482 80.9163C59.988 80.9163 60.0278 80.9163 60.0676 80.9163C62.2646 80.9879 64.3104 80.8128 66.2049 80.4147C69.0944 79.8017 71.6417 78.6394 73.8387 76.9278C77.6198 73.9901 80.39 69.4523 82.1094 63.3143C82.2527 62.7969 82.3959 62.2714 82.5233 61.7301C82.6507 61.2126 82.7621 60.6872 82.8736 60.1458C83.4865 57.1684 83.8925 53.8805 84.0915 50.2741C84.0676 49.0003 84.0119 47.5912 83.9004 46.1901C83.8606 45.6567 83.8129 45.1233 83.7492 44.6058C83.6855 44.0645 83.6218 43.5311 83.5342 43.0216C83.3193 41.6682 83.0168 40.482 82.6109 39.6699C80.7641 35.968 79.0447 31.876 79.0447 31.876C79.0447 31.876 76.2666 34.7818 68.0755 33.0622C59.8845 31.3427 43.4944 25.6584 43.4944 25.6584C43.4944 25.6584 40.8517 29.8858 38.3442 32.5289C37.2377 33.6991 36.6964 38.2688 36.4338 43.0136C36.4019 43.539 36.378 44.0724 36.3541 44.5978C36.3303 45.1312 36.3143 45.6567 36.2984 46.1821C36.187 49.5735 36.2029 52.6624 36.2109 54.2069C36.4417 56.3166 36.7522 58.2909 37.1343 60.1458ZM45.5243 50.29C45.4765 48.1644 46.4954 47.0499 48.4218 47.0976C50.3482 47.0419 51.3671 48.1644 51.3193 50.29C51.3671 52.4077 50.3482 53.5302 48.4218 53.4824C46.4875 53.5302 45.4686 52.4077 45.5243 50.29ZM51.9959 66.7456C52.0915 66.865 54.3044 69.5081 59.9959 69.5081C65.6954 69.5081 67.9084 66.857 68.0039 66.7456C68.3303 66.3395 68.9273 66.2679 69.3412 66.5943C69.7472 66.9207 69.8188 67.5098 69.5004 67.9238C69.389 68.0671 66.6984 71.4108 60.0039 71.4108C53.3094 71.4108 50.6188 68.0671 50.5074 67.9238C50.181 67.5098 50.2527 66.9127 50.6666 66.5863C51.0726 66.2599 51.6696 66.3316 51.9959 66.7456ZM71.578 53.4744C69.6517 53.5302 68.6328 52.4077 68.6805 50.2821C68.6328 48.1565 69.6517 47.0419 71.578 47.0897C73.5044 47.0419 74.5233 48.1565 74.4755 50.2821C74.5233 52.4077 73.5044 53.5302 71.578 53.4744ZM67.1362 40.3785H75.0646C75.59 40.3785 76.0198 40.8084 76.0198 41.3338C76.0198 41.8592 75.59 42.2891 75.0646 42.2891H67.1362C66.6109 42.2891 66.189 41.8592 66.189 41.3338C66.181 40.8004 66.6109 40.3785 67.1362 40.3785ZM58.1492 62.0087H61.8507C63.1561 62.0087 63.3551 62.4466 62.3044 62.98L61.9223 63.171C61.8109 63.2268 61.6915 63.2745 61.5641 63.3143C60.6328 63.6487 59.375 63.6487 58.4437 63.3143C58.3163 63.2745 58.1969 63.2268 58.0855 63.171L57.7034 62.98C56.6447 62.4466 56.8437 62.0087 58.1492 62.0087ZM44.9352 40.3785H52.8636C53.389 40.3785 53.8188 40.8084 53.8188 41.3338C53.8188 41.8592 53.389 42.2891 52.8636 42.2891H44.9352C44.4099 42.2891 43.988 41.8592 43.988 41.3338C43.98 40.8004 44.4099 40.3785 44.9352 40.3785Z" fill="white"/>
<path d="M59.3992 104.457C58.4439 104.457 57.6716 105.229 57.6716 106.185C57.6716 107.14 58.4439 107.912 59.3992 107.912C60.3545 107.912 61.1267 107.14 61.1267 106.185C61.1267 105.229 60.3545 104.457 59.3992 104.457Z" fill="#343A40"/>
<path d="M59.3992 123.166C58.4439 123.166 57.6716 123.938 57.6716 124.893C57.6716 125.848 58.4439 126.621 59.3992 126.621C60.3545 126.621 61.1267 125.848 61.1267 124.893C61.1267 123.938 60.3545 123.166 59.3992 123.166Z" fill="#343A40"/>
<path d="M118.289 105.604C117.453 101.481 113.934 98.4156 109.715 98.1529C105.29 96.6403 96.2308 93.9017 89.8229 91.9831C86.0418 90.7571 83.0328 89.7779 82.3085 89.547L81.1065 88.8385L76.999 79.3011C80.8279 76.0291 84.0836 70.9658 86.0418 63.3391C88.0796 63.1242 91.8289 61.6195 93.397 53.7938C94.201 49.7655 93.8348 46.7721 92.3065 44.9092C91.5423 43.9778 90.6428 43.5081 89.8547 43.2613C90.7622 35.7142 91.4149 26.5828 90.0617 21.8938C87.2279 12.0698 84.999 7.03042 64.3821 1.34621C43.7652 -4.338 38.0896 9.80088 38.0896 9.80088C38.0896 9.80088 28.0438 13.1047 27.7811 24.3378C27.6537 29.7832 28.7045 37.195 29.8269 43.3727C29.1184 43.6434 28.3542 44.1052 27.7015 44.9092C26.1731 46.7721 25.807 49.7655 26.6109 53.7938C28.1791 61.6275 31.9363 63.1321 33.9741 63.3391C35.9323 70.9658 39.1801 76.0211 43.009 79.2931L38.9015 88.8305L37.6995 89.539C36.9672 89.7779 33.9184 90.7571 30.0975 91.999C23.6896 93.9097 14.6945 96.6403 10.2846 98.145C6.06567 98.4077 2.54726 101.473 1.71144 105.597C1.61592 106.042 1.5602 106.504 1.53632 106.982L0 144.001H2.78607H57.1144H77.2139H117.214H120L118.464 106.99C118.44 106.512 118.376 106.05 118.289 105.604ZM87.395 56.0388L88.0398 55.394C88.0398 55.394 88.7323 51.6363 89.4328 46.5413C89.5761 46.6368 89.7194 46.7642 89.8547 46.9234C90.7224 47.9902 90.8816 50.2034 90.2846 53.1728C89.4249 57.4798 87.9443 59.1596 86.8139 59.8044C87.0289 58.6023 87.2279 57.3524 87.395 56.0388ZM29.7154 53.1728C29.1184 50.2034 29.2776 47.9822 30.1453 46.9234C30.2408 46.8119 30.3363 46.7244 30.4398 46.6368C31.4109 51.5806 32.2706 55.1313 32.2706 55.1313L32.5493 55.5612C32.7244 57.0499 32.9393 58.4669 33.194 59.8124C32.0637 59.1675 30.5831 57.4877 29.7154 53.1728ZM77.8109 89.2445L70.5831 100.732L64.9552 89.9291L73.2179 83.0826C73.6318 82.7403 73.7512 82.183 73.5522 81.7133C73.8229 81.562 74.0935 81.4028 74.3642 81.2356L77.8109 89.2445ZM62.4 88.942C62.2647 89.0534 62.1612 89.1888 62.0896 89.34L59.3751 94.9367L58.7781 89.7301C58.7383 89.4117 58.5791 89.1251 58.3323 88.926L51.9164 83.8946C54.2806 84.5076 56.6687 84.7465 58.9612 84.7465C59.3035 84.7465 59.6537 84.7385 59.996 84.7306C60.3463 84.7385 60.6886 84.7465 61.0388 84.7465C63.5303 84.7465 66.1333 84.4599 68.7045 83.7275L62.4 88.942ZM37.8985 63.3153C37.7552 62.7978 37.6199 62.2724 37.4846 61.731C37.3572 61.2135 37.2378 60.6881 37.1264 60.1467C36.7443 58.2918 36.4418 56.3175 36.2189 54.2157C36.203 52.6713 36.195 49.5824 36.3065 46.191C36.3224 45.6655 36.3383 45.1401 36.3622 44.6067C36.3861 44.0813 36.41 43.5479 36.4418 43.0225C36.7045 38.2777 37.2458 33.708 38.3522 32.5377C40.8597 29.8946 43.5025 25.6673 43.5025 25.6673C43.5025 25.6673 59.8846 31.3515 68.0836 33.0711C76.2746 34.7907 79.0527 31.8849 79.0527 31.8849C79.0527 31.8849 80.7721 35.9849 82.6189 39.6788C83.0249 40.4908 83.3194 41.6691 83.5423 43.0304C83.6219 43.5399 83.6935 44.0733 83.7572 44.6147C83.8129 45.1321 83.8687 45.6655 83.9085 46.1989C84.0199 47.5921 84.0756 49.0092 84.0995 50.283C83.9005 53.8893 83.4945 57.1852 82.8816 60.1547C82.7701 60.6961 82.6507 61.2215 82.5313 61.739C82.404 62.2803 82.2607 62.8057 82.1174 63.3232C80.398 69.4612 77.6358 73.999 73.8468 76.9367C71.6497 78.6403 69.1025 79.8106 66.2129 80.4236C64.3104 80.8296 62.2647 80.9968 60.0756 80.9252C60.0358 80.9252 59.996 80.9252 59.9562 80.9252C59.6299 80.9331 59.3035 80.9411 58.9771 80.9411C57.1701 80.9411 55.4667 80.758 53.8667 80.4236C50.9612 79.8106 48.406 78.6483 46.193 76.9367C42.3881 73.999 39.6179 69.4692 37.8985 63.3153ZM45.6438 81.2277C45.9701 81.4347 46.3045 81.6257 46.6388 81.8088C46.4955 82.2706 46.6388 82.788 47.0368 83.0985L55.2915 89.5629C55.2199 89.6425 55.1483 89.7301 55.0925 89.8256L49.4169 100.716L42.1891 89.2445L45.6438 81.2277ZM70.0418 140.816H64.3582V102.197C64.3582 101.536 63.8249 101.003 63.1642 101.003C62.5035 101.003 61.9701 101.536 61.9701 102.197V140.816H49.9502L38.0338 92.7792C38.5274 92.62 38.8139 92.5245 38.8378 92.5245C38.9493 92.4926 39.0527 92.4369 39.1562 92.3811L40.7483 91.4417L48.5015 103.758C48.7244 104.108 49.1065 104.315 49.5124 104.315C49.5284 104.315 49.5443 104.315 49.5602 104.315C49.99 104.299 50.3721 104.052 50.5711 103.67L56.6368 92.0309L57.4647 99.2754C57.5284 99.8009 57.9264 100.231 58.4517 100.318C58.5154 100.326 58.5871 100.334 58.6507 100.334C59.1045 100.334 59.5184 100.08 59.7254 99.6655L63.395 92.1105L69.4209 103.678C69.6199 104.06 70.002 104.299 70.4318 104.323C70.4478 104.323 70.4637 104.323 70.4796 104.323C70.8856 104.323 71.2677 104.116 71.4905 103.765L79.2438 91.4417L80.8438 92.3811C80.9473 92.4369 81.0507 92.4846 81.1622 92.5245C81.1861 92.5324 81.4726 92.6279 81.9582 92.7792L70.0418 140.816Z" fill="#343A40"/>
<path d="M48 79.5L44 80L40.5 89L49 102.5L57 89.5L49.5 83.5L48 79.5Z" stroke="black"/>
<path d="M51.3122 50.2898C51.3599 48.1642 50.3409 47.0497 48.4143 47.0974C46.4877 47.0417 45.4687 48.1642 45.5165 50.2898C45.4687 52.4075 46.4877 53.53 48.4143 53.4822C50.3409 53.53 51.3599 52.4075 51.3122 50.2898Z" fill="#343A40"/>
<path d="M71.5784 47.0974C69.6518 47.0417 68.6328 48.1642 68.6806 50.2898C68.6328 52.4075 69.6518 53.53 71.5784 53.4822C73.505 53.538 74.524 52.4154 74.4762 50.2898C74.524 48.1642 73.505 47.0417 71.5784 47.0974Z" fill="#343A40"/>
<path d="M57.6957 62.9798L58.0778 63.1709C58.1893 63.2266 58.3087 63.2744 58.4361 63.3142C59.3675 63.6485 60.6254 63.6485 61.5568 63.3142C61.6842 63.2744 61.8036 63.2266 61.9151 63.1709L62.2972 62.9798C63.356 62.4464 63.149 62.0085 61.8434 62.0085H58.1415C56.8439 62.0085 56.6448 62.4464 57.6957 62.9798Z" fill="#343A40"/>
<path d="M68.0041 66.7456C67.9165 66.8571 65.7036 69.5081 59.9961 69.5081C54.3046 69.5081 52.0917 66.873 51.9961 66.7456C51.6698 66.3396 51.0728 66.2679 50.6668 66.5864C50.2529 66.9128 50.1812 67.5099 50.5076 67.9238C50.619 68.0671 53.3096 71.4108 60.0041 71.4108C66.6986 71.4108 69.3892 68.0671 69.5006 67.9238C69.827 67.5099 69.7474 66.9207 69.3414 66.5943C68.9275 66.2679 68.3305 66.3396 68.0041 66.7456Z" fill="#343A40"/>
<path d="M52.8637 42.281C53.389 42.281 53.8189 41.8511 53.8189 41.3257C53.8189 40.8003 53.389 40.3704 52.8637 40.3704H44.9353C44.4099 40.3704 43.988 40.8003 43.988 41.3257C43.988 41.8511 44.4179 42.281 44.9353 42.281H52.8637Z" fill="#343A40"/>
<path d="M67.1362 42.281H75.0646C75.5899 42.281 76.0198 41.8511 76.0198 41.3257C76.0198 40.8003 75.5899 40.3704 75.0646 40.3704H67.1362C66.6108 40.3704 66.189 40.8003 66.189 41.3257C66.181 41.8511 66.6108 42.281 67.1362 42.281Z" fill="#343A40"/>
</g>
<defs>
<clipPath id="clip0">
<rect width="120" height="144" fill="white"/>
</clipPath>
</defs>
</svg>
