<svg width="120" height="144" viewBox="0 0 120 144" fill="none" xmlns="http://www.w3.org/2000/svg">
<g clip-path="url(#clip0)">
<path d="M76.6169 90.716L74.5234 81.3064C70.2886 83.9233 65.592 84.7903 61.2378 84.7903C60.8955 84.7903 60.5453 84.7823 60.195 84.7744C59.8448 84.7823 59.5025 84.7903 59.1602 84.7903C54.9254 84.7903 50.3721 83.971 46.2328 81.5132L44.1871 90.716C44.0915 91.1455 43.7811 91.4955 43.3672 91.6387L39.2597 93.0863C42.6189 99.1632 50.81 103.466 60.402 103.466C69.994 103.466 78.1851 99.1632 81.5443 93.0863L77.4368 91.6387C77.0229 91.4955 76.7124 91.1455 76.6169 90.716Z" fill="white"/>
<path d="M19.6378 129.977C19.1602 128.577 15.1244 116.789 11.8607 111.906C11.4945 111.357 11.6458 110.617 12.195 110.251C12.7443 109.885 13.4846 110.036 13.8507 110.585C17.4806 116.026 21.7711 128.824 21.9463 129.365C21.9781 129.46 21.994 129.548 22.002 129.643L22.9333 141.137H33.1781H87.6179H97.1065L98.0298 129.643C98.0378 129.548 98.0537 129.452 98.0856 129.365C98.2687 128.824 102.559 116.026 106.189 110.585C106.555 110.036 107.296 109.885 107.845 110.251C108.394 110.617 108.545 111.357 108.179 111.906C104.915 116.789 100.88 128.577 100.402 129.977L99.5025 141.137H116.856L113.703 107.332L113.552 106.115C112.955 103.387 110.702 101.366 107.916 101.072L107.598 101.04L107.296 100.937C103.315 99.5847 93.8189 97.1985 87.6259 95.4407C86.2647 95.0589 85.0627 94.7009 84.1154 94.3987C80.2149 101.541 70.9254 106.338 60.402 106.338C49.8786 106.338 40.5891 101.549 36.6886 94.3987C35.7015 94.7168 34.5075 95.0668 33.1781 95.4486C26.8498 97.2462 17.5204 99.5688 13.596 100.905L13.2299 101.032L12.8478 101.056C9.92637 101.239 7.49055 103.355 6.90149 106.25C6.83781 106.529 6.80597 106.823 6.79005 107.141V107.237L3.18408 141.137H20.5373L19.6378 129.977ZM33.1781 95.8463C33.2418 95.7588 33.3294 95.6872 33.4249 95.6316C33.8149 95.4248 34.2925 95.56 34.5075 95.9497C38.7423 103.713 48.7562 108.732 60.0199 108.732C71.2836 108.732 81.2975 103.713 85.5323 95.9497C85.7393 95.56 86.2249 95.4168 86.6149 95.6316C86.997 95.8384 87.1403 96.3236 86.9333 96.7133C82.4199 104.978 71.8567 110.323 60.0199 110.323C48.2388 110.323 37.7234 105.025 33.1781 96.8247C33.1542 96.7849 33.1303 96.7451 33.1065 96.7054C32.9552 96.427 32.995 96.0929 33.1781 95.8463Z" fill="white"/>
<path d="M90.4836 53.2524C91.0726 50.2856 90.9214 48.0664 90.0537 47.0085C89.5045 46.3404 88.7482 46.2688 88.4457 46.2688C88.4139 46.2688 88.3661 46.2768 88.3184 46.2768C88.2786 47.1597 88.2308 48.0585 88.1671 48.9652C88.0159 53.0377 87.6179 56.6488 87.0129 59.8782C88.1433 59.2259 89.6159 57.5556 90.4836 53.2524Z" fill="white"/>
<path d="M33.401 59.8781C32.796 56.6328 32.3821 52.9899 32.2388 48.8935C32.1751 48.0027 32.1274 47.1357 32.0875 46.2687C32.0557 46.2687 32.0239 46.2687 31.992 46.2607C31.6497 46.2607 30.8935 46.3323 30.3522 47.0005C29.4846 48.0584 29.3254 50.2775 29.9224 53.2444C30.7821 57.5634 32.2627 59.2338 33.401 59.8781Z" fill="white"/>
<path d="M82.7224 61.795C82.8498 61.278 82.9612 60.753 83.0727 60.2122C83.7732 56.8078 84.211 52.9899 84.3622 48.7504C84.3781 48.5436 84.3861 48.3447 84.394 48.1379L82.5314 48.2493C82.5314 48.2493 82.3881 53.3001 80.5095 55.567C78.6309 57.826 69.7791 57.7941 67.1204 56.9431C64.9393 56.2431 63.0209 54.4773 62.7821 51.1287H57.6C57.3692 54.4773 55.4508 56.2431 53.2617 56.9431C50.603 57.8021 41.7513 57.8339 39.8726 55.567C37.994 53.3001 37.8587 48.2493 37.8587 48.2493L35.996 48.1459C36.004 48.3288 36.012 48.5038 36.0279 48.6947C36.1871 52.9581 36.6249 56.7999 37.3254 60.2201C37.4368 60.761 37.5562 61.286 37.6836 61.803C37.811 62.3439 37.9542 62.8688 38.0975 63.3858C40.3264 71.3319 44.2906 76.5975 49.9741 79.1667C52.6567 80.3757 55.7134 80.9961 59.1602 80.9961C59.4786 80.9961 59.813 80.9881 60.1393 80.9802C60.1791 80.9802 60.2189 80.9802 60.2587 80.9802C64.0796 81.1074 67.4388 80.495 70.3602 79.1905C76.0756 76.6373 80.0717 71.3637 82.3085 63.3938C82.4518 62.8688 82.5871 62.3359 82.7224 61.795ZM58.3483 62.0734H62.0498C63.3552 62.0734 63.5542 62.5109 62.5035 63.0438L62.1214 63.2347C62.01 63.2904 61.8906 63.3381 61.7632 63.3779C60.8319 63.712 59.5741 63.712 58.6428 63.3779C58.5154 63.3381 58.396 63.2904 58.2846 63.2347L57.9025 63.0438C56.8438 62.5109 57.0428 62.0734 58.3483 62.0734ZM50.8657 66.647C51.2796 66.3209 51.8687 66.3925 52.195 66.8061C52.2906 66.9254 54.5035 69.5661 60.195 69.5661C65.8945 69.5661 68.1075 66.9174 68.203 66.8061C68.5294 66.4004 69.1264 66.3288 69.5324 66.655C69.9383 66.9811 70.0179 67.5697 69.6916 67.9833C69.5801 68.1264 66.8896 71.4671 60.195 71.4671C53.5005 71.4671 50.81 68.1264 50.6985 67.9833C50.3801 67.5697 50.4518 66.9731 50.8657 66.647Z" fill="white"/>
<path d="M78.5353 54.2863C80.0955 52.6637 80.0796 48.2333 79.2995 46.6107C79.2119 46.4834 79.0607 46.372 78.8696 46.2686C77.2537 45.4255 72.2945 45.4812 68.8239 46.2686C66.993 46.6822 65.5761 47.3027 65.2895 48.106C64.398 50.6036 65.4806 53.7932 67.1522 54.9147C68.8318 56.0362 76.9751 55.9089 78.5353 54.2863ZM71.7851 47.1754C73.7114 47.1277 74.7303 48.2412 74.6826 50.365C74.7303 52.4807 73.7114 53.6023 71.7851 53.5545C69.8587 53.6023 68.8398 52.4887 68.8876 50.365C68.8398 48.2412 69.8587 47.1197 71.7851 47.1754Z" fill="white"/>
<path d="M53.2378 54.9147C54.9095 53.7932 56 50.6036 55.1085 48.106C54.8219 47.3027 53.405 46.6902 51.5741 46.2686C48.1035 45.4812 43.1443 45.4255 41.5284 46.2686C41.3373 46.372 41.1861 46.4834 41.0985 46.6107C40.3184 48.2333 40.3025 52.6637 41.8627 54.2863C43.4229 55.9089 51.5662 56.0362 53.2378 54.9147ZM45.7234 50.365C45.6756 48.2412 46.6945 47.1277 48.6209 47.1754C50.5473 47.1197 51.5662 48.2412 51.5184 50.365C51.5662 52.4807 50.5473 53.6023 48.6209 53.5545C46.6945 53.6023 45.6756 52.4807 45.7234 50.365Z" fill="white"/>
<path d="M35.8448 44.6937C35.8527 44.6937 35.8687 44.6857 35.8766 44.6857C37.7791 44.113 41.4249 43.6119 43.805 43.6119C46.0736 43.6119 50.4677 43.6199 53.6756 44.6857C54.8219 45.0675 55.8169 45.5766 56.5015 46.2686C57.0269 46.7935 57.3851 47.414 57.4965 48.1696H62.8856C63.005 47.4219 63.3552 46.7935 63.8806 46.2686C64.5731 45.5766 65.5682 45.0596 66.7144 44.6857C69.9224 43.6278 74.3164 43.6119 76.5851 43.6119C78.9652 43.6119 82.611 44.113 84.5134 44.6857C84.5214 44.6857 84.5373 44.6937 84.5453 44.6937V44.6857C84.5612 44.1528 84.5692 43.6199 84.5771 43.1029C84.593 40.6133 84.4816 38.2429 84.2587 36.0158C82.8577 34.7829 80.5572 32.7467 78.7582 31.1161C76.808 29.3424 72.4378 23.2496 72.4378 23.2496C56.6129 22.8519 57.3373 27.4732 48.6129 31.5695C40.2547 35.4908 36.8876 35.3954 36.8876 35.3954L35.8209 42.2677C35.8209 42.5461 35.8129 42.8245 35.8129 43.1029C35.8129 43.6199 35.8289 44.1528 35.8448 44.6857V44.6937ZM67.3353 40.4621H75.2637C75.7891 40.4621 76.2189 40.8916 76.2189 41.4166C76.2189 41.9416 75.7891 42.3711 75.2637 42.3711H67.3353C66.81 42.3711 66.3801 41.9416 66.3801 41.4166C66.3801 40.8916 66.81 40.4621 67.3353 40.4621ZM45.1343 40.4621H53.0627C53.5881 40.4621 54.0179 40.8916 54.0179 41.4166C54.0179 41.9416 53.5881 42.3711 53.0627 42.3711H45.1343C44.609 42.3711 44.1871 41.9416 44.1871 41.4166C44.1871 40.8916 44.609 40.4621 45.1343 40.4621Z" fill="white"/>
<path d="M87.6179 144.001H120L116.553 107.023L116.378 105.639C115.566 101.654 112.255 98.6549 108.219 98.2254C103.546 96.6346 91.9005 93.6359 85.2617 91.7111L78.9413 89.4839L76.7682 79.7084C80.7801 76.4472 84.203 71.3169 86.2328 63.4185C88.2707 63.2038 92.0199 61.7004 93.5881 53.8816C94.392 49.8569 94.0259 46.8662 92.4975 45.0049C91.5502 43.8436 90.3801 43.3902 89.4886 43.2152C90.5711 40.0734 92.7602 32.692 92.2587 25.772C91.7015 18.0964 85.8826 8.34472 77.1582 4.64609C72.008 -2.62391 54.997 -0.64335 44.5612 5.68807C34.1493 12.0115 32.2866 19.6554 30.5194 22.4393C28.792 25.1755 26.6746 25.1278 26.2129 25.6527C25.7512 26.1777 25.9502 30.5365 27.5343 32.3898C29.3333 34.4897 29.3652 35.2692 29.3652 35.2692C29.3652 35.2692 29.795 39.4053 31.4269 43.1278C30.5194 43.2232 29.0468 43.597 27.8925 44.997C26.3642 46.8582 25.998 49.8489 26.802 53.8737C28.3701 61.7005 32.1274 63.2038 34.1652 63.4106C36.2507 71.5237 39.801 76.7336 43.9562 79.9709L41.8468 89.476L35.5741 91.6872C28.9751 93.6041 17.3532 96.5869 12.6647 98.1856C8.44577 98.4481 4.92736 101.51 4.09154 105.631C3.99602 106.076 3.9403 106.537 3.91642 107.015L0 144.001H33.1781H87.6179ZM88.1592 48.9581C88.2229 48.0513 88.2707 47.1525 88.3104 46.2696C88.3582 46.2696 88.406 46.2696 88.4378 46.2616C88.7403 46.2616 89.4965 46.3332 90.0458 47.0014C90.9214 48.0593 91.0726 50.2784 90.4756 53.2453C89.6159 57.5484 88.1353 59.2267 87.005 59.871C87.61 56.6417 88.0159 53.0305 88.1592 48.9581ZM29.9144 53.2533C29.3174 50.2864 29.4766 48.0672 30.3443 47.0093C30.8935 46.3412 31.6498 46.2696 31.9841 46.2696C32.0159 46.2696 32.0478 46.2696 32.0796 46.2776C32.1114 47.1445 32.1672 48.0195 32.2308 48.9024C32.3821 52.9987 32.7881 56.6417 33.393 59.8869C32.2627 59.2347 30.7821 57.5643 29.9144 53.2533ZM35.8448 44.6947V44.6867C35.8289 44.1538 35.8129 43.6209 35.8129 43.1039C35.8129 42.8255 35.8129 42.5471 35.8209 42.2687L36.8955 35.4044C36.8955 35.4044 40.2627 35.4998 48.6209 31.5785C57.3373 27.4821 56.6209 22.8529 72.4378 23.2506C72.4378 23.2506 76.808 29.3354 78.7662 31.1092C80.5652 32.7398 82.8657 34.776 84.2667 36.0089C84.4896 38.244 84.593 40.6063 84.5851 43.0959C84.5771 43.6129 84.5692 44.1459 84.5532 44.6788V44.6867C84.5453 44.6867 84.5294 44.6788 84.5214 44.6788C82.6189 44.1061 78.9731 43.605 76.593 43.605C74.3244 43.605 69.9304 43.6129 66.7224 44.6788C65.5761 45.0606 64.5811 45.5696 63.8886 46.2616C63.3632 46.7866 63.0129 47.407 62.8935 48.1627H57.5124C57.401 47.415 57.0428 46.7866 56.5174 46.2616C55.8249 45.5696 54.8298 45.0526 53.6915 44.6788C50.4836 43.6209 46.0975 43.605 43.8209 43.605C41.4408 43.605 37.795 44.1061 35.8925 44.6788C35.8687 44.6867 35.8527 44.6947 35.8448 44.6947ZM78.5353 54.2873C76.9751 55.9099 68.8318 56.0372 67.1602 54.9077C65.4886 53.7862 64.406 50.5966 65.2975 48.099C65.5841 47.2957 67.001 46.6832 68.8318 46.2616C72.3025 45.4742 77.2617 45.4185 78.8776 46.2616C79.0687 46.365 79.2199 46.4764 79.3075 46.6037C80.0796 48.2342 80.0955 52.6647 78.5353 54.2873ZM53.2378 54.9156C51.5662 56.0372 43.4229 55.9099 41.8627 54.2952C40.3025 52.6726 40.3184 48.2422 41.0985 46.6196C41.1861 46.4923 41.3373 46.381 41.5284 46.2776C43.1363 45.4344 48.1035 45.4901 51.5741 46.2776C53.405 46.6912 54.8219 47.3116 55.1085 48.1149C56 50.6046 54.9095 53.7941 53.2378 54.9156ZM38.0975 63.3867C37.9542 62.8697 37.8189 62.3447 37.6836 61.8038C37.5562 61.2868 37.4448 60.7619 37.3254 60.221C36.6169 56.7928 36.1791 52.959 36.0279 48.6956C36.0119 48.5126 36.004 48.3297 35.996 48.1468L37.8587 48.2502C37.8587 48.2502 38.002 53.301 39.8726 55.5679C41.7512 57.8268 50.603 57.795 53.2617 56.9439C55.4507 56.244 57.3692 54.4782 57.6 51.1295H62.7821C63.0129 54.4782 64.9393 56.244 67.1204 56.9439C69.7791 57.803 78.6308 57.8348 80.5095 55.5679C82.3881 53.301 82.5313 48.2502 82.5313 48.2502L84.394 48.1388C84.3781 48.3456 84.3781 48.5445 84.3622 48.7513C84.203 52.9908 83.7731 56.8008 83.0726 60.213C82.9612 60.7539 82.8418 61.2789 82.7224 61.7959C82.595 62.3368 82.4517 62.8617 82.3085 63.3787C80.0716 71.3487 76.0756 76.6143 70.3602 79.1755C67.4388 80.4799 64.0796 81.0924 60.2587 80.9651C60.2189 80.9651 60.1791 80.9651 60.1393 80.9651C59.8129 80.9731 59.4866 80.981 59.1602 80.981C55.7134 80.981 52.6567 80.3686 49.9741 79.1516C44.2985 76.5984 40.3264 71.3328 38.0975 63.3867ZM43.3672 91.6395C43.7811 91.4963 44.0915 91.1463 44.1871 90.7168L46.2328 81.514C50.3721 83.9638 54.9254 84.791 59.1602 84.791C59.5025 84.791 59.8527 84.7831 60.195 84.7751C60.5453 84.7831 60.8876 84.791 61.2378 84.791C65.592 84.791 70.2886 83.924 74.5234 81.3072L76.6169 90.7168C76.7124 91.1463 77.0229 91.4963 77.4368 91.6395L81.5443 93.0871C78.1851 99.164 69.994 103.467 60.402 103.467C50.8099 103.467 42.6189 99.164 39.2597 93.0871L43.3672 91.6395ZM22.01 129.644C22.002 129.548 21.9861 129.453 21.9542 129.365C21.7711 128.825 17.4806 116.027 13.8587 110.586C13.4925 110.037 12.7522 109.886 12.203 110.252C11.6537 110.618 11.5025 111.358 11.8687 111.906C15.1323 116.79 19.1682 128.578 19.6458 129.978L20.5453 141.13H3.18408L6.78209 107.221V107.126C6.79801 106.816 6.82985 106.514 6.89353 106.235C7.48259 103.34 9.92637 101.216 12.8398 101.041L13.2219 101.017L13.5881 100.89C17.5124 99.5537 26.8418 97.2232 33.1701 95.4335C34.4995 95.0597 35.6935 94.7018 36.6806 94.3836C40.5731 101.526 49.8707 106.323 60.394 106.323C70.9174 106.323 80.207 101.534 84.1075 94.3836C85.0547 94.6859 86.2567 95.0438 87.6179 95.4256C93.8189 97.1755 103.307 99.5617 107.288 100.922L107.59 101.025L107.908 101.057C110.695 101.351 112.947 103.372 113.544 106.1L113.696 107.317L116.848 141.122H99.5025L100.402 129.97C100.872 128.57 104.915 116.782 108.179 111.898C108.545 111.35 108.394 110.61 107.845 110.244C107.296 109.878 106.555 110.029 106.189 110.578C102.559 116.019 98.2687 128.817 98.0856 129.358C98.0537 129.453 98.0378 129.54 98.0299 129.636L97.1065 141.13H87.6179H33.1781H22.9333L22.01 129.644Z" fill="#343A40"/>
<path d="M60.0199 110.323C71.8567 110.323 82.4199 104.978 86.9333 96.7134C87.1403 96.3236 86.997 95.8464 86.6149 95.6316C86.2249 95.4169 85.7473 95.56 85.5323 95.9498C81.2975 103.713 71.2836 108.732 60.0199 108.732C48.7562 108.732 38.7343 103.713 34.5075 95.9498C34.3005 95.56 33.8149 95.4248 33.4249 95.6316C33.3214 95.6873 33.2418 95.7589 33.1781 95.8464C32.995 96.085 32.9552 96.427 33.1065 96.7134C33.1303 96.7531 33.1542 96.7929 33.1781 96.8327C37.7234 105.033 48.2388 110.323 60.0199 110.323Z" fill="#343A40"/>
<path d="M48.6209 47.1756C46.6945 47.1278 45.6756 48.2414 45.7234 50.3651C45.6756 52.4809 46.6945 53.6024 48.6209 53.5547C50.5473 53.6104 51.5662 52.4889 51.5184 50.3651C51.5582 48.2414 50.5393 47.1199 48.6209 47.1756Z" fill="#343A40"/>
<path d="M71.7851 47.1756C69.8587 47.1278 68.8398 48.2414 68.8876 50.3651C68.8398 52.4809 69.8587 53.6024 71.7851 53.5547C73.7115 53.6104 74.7304 52.4889 74.6826 50.3651C74.7224 48.2414 73.7035 47.1199 71.7851 47.1756Z" fill="#343A40"/>
<path d="M57.8945 63.0439L58.2766 63.2348C58.3881 63.2905 58.5075 63.3382 58.6348 63.378C59.5662 63.712 60.8239 63.712 61.7552 63.378C61.8826 63.3382 62.002 63.2905 62.1134 63.2348L62.4955 63.0439C63.5463 62.511 63.3473 62.0735 62.0418 62.0735H58.3483C57.0428 62.0735 56.8438 62.511 57.8945 63.0439Z" fill="#343A40"/>
<path d="M60.203 71.4671C66.8975 71.4671 69.5881 68.1265 69.6995 67.9833C70.0179 67.5697 69.9463 66.9811 69.5403 66.655C69.1344 66.3288 68.5373 66.4004 68.211 66.8061C68.1154 66.9174 65.9105 69.5661 60.203 69.5661C54.5115 69.5661 52.2985 66.9333 52.203 66.8061C51.8766 66.4004 51.2796 66.3288 50.8736 66.647C50.4597 66.9731 50.3881 67.5697 50.7065 67.9833C50.81 68.1265 53.5085 71.4671 60.203 71.4671Z" fill="#343A40"/>
<path d="M45.1343 42.3633H53.0627C53.5881 42.3633 54.0179 41.9338 54.0179 41.4088C54.0179 40.8839 53.5881 40.4543 53.0627 40.4543H45.1343C44.609 40.4543 44.1871 40.8839 44.1871 41.4088C44.1871 41.9338 44.609 42.3633 45.1343 42.3633Z" fill="#343A40"/>
<path d="M67.3353 42.3633H75.2637C75.7891 42.3633 76.2189 41.9338 76.2189 41.4088C76.2189 40.8839 75.7891 40.4543 75.2637 40.4543H67.3353C66.8099 40.4543 66.3801 40.8839 66.3801 41.4088C66.3801 41.9338 66.8099 42.3633 67.3353 42.3633Z" fill="#343A40"/>
</g>
<defs>
<clipPath id="clip0">
<rect width="120" height="144" fill="white"/>
</clipPath>
</defs>
</svg>
