<svg width="120" height="144" viewBox="0 0 120 144" fill="none" xmlns="http://www.w3.org/2000/svg">
<g clip-path="url(#clip0)">
<path d="M59.8284 90.324C59.9729 90.441 60.0994 90.5759 60.1897 90.7378L60.4968 91.3135L60.8039 90.7378C60.8942 90.5759 61.0206 90.441 61.1651 90.324C61.2013 90.297 61.2374 90.261 61.2735 90.2341L68.8605 85.4035C68.6708 84.8008 68.5172 84.1171 68.4089 83.3705C65.9431 84.0541 63.3599 84.423 60.6955 84.423C57.5523 84.423 54.5175 83.9282 51.6634 82.9927C51.5731 83.6853 51.4557 84.315 51.3112 84.8817L59.7381 90.243C59.7652 90.261 59.7923 90.297 59.8284 90.324Z" fill="white"/>
<path d="M55.1498 141.122V102.216L50.9138 107.91C50.6609 108.252 50.2544 108.459 49.8299 108.459C49.8209 108.459 49.8209 108.459 49.8118 108.459C49.3783 108.45 48.9719 108.243 48.719 107.883L45.9822 104.006C42.0804 113.748 32.3619 111.346 32.3619 111.346C32.3619 111.346 36.5528 107.847 35.785 97.5563C35.785 97.5563 35.785 97.5473 35.785 97.5383C32.2535 99.6793 28.6317 101.73 26.2291 102.72C23.1402 103.979 19.4189 105.247 16.1222 106.354C13.8371 107.128 11.6875 107.856 10.152 108.45C5.16635 110.384 2.46576 116.24 2.94446 124.111C3.1251 127.044 3.69412 137.379 3.89283 141.122H21.3157V133.232L13.7197 118.831C13.3765 118.174 13.6294 117.355 14.2887 117.005C14.9481 116.663 15.77 116.915 16.1222 117.571L23.8718 132.261C23.9711 132.45 24.0253 132.666 24.0253 132.891V141.113H55.1498V141.122Z" fill="white"/>
<path d="M98.6843 133.232V141.122H116.107C116.315 137.388 116.884 127.053 117.056 124.111C117.525 116.231 114.834 110.375 109.848 108.45C108.313 107.856 106.163 107.128 103.878 106.354C100.59 105.238 96.8599 103.979 93.7709 102.72C91.7568 101.892 88.8846 100.318 85.9311 98.5728C86.2562 99.3194 86.6265 100.075 87.042 100.831C83.5285 100.885 80.8641 100.066 78.8048 98.6178L72.2656 107.883C72.0127 108.234 71.6062 108.45 71.1727 108.459C71.1637 108.459 71.1636 108.459 71.1546 108.459C70.7301 108.459 70.3237 108.261 70.0617 107.91L60.4787 95.0286L56.7665 100.012C56.8659 100.156 56.9382 100.318 56.9382 100.507V141.113H60.1626H61.8516H95.9657V132.891C95.9657 132.675 96.0199 132.459 96.1192 132.261L103.869 117.571C104.221 116.915 105.034 116.663 105.702 117.005C106.362 117.355 106.615 118.165 106.271 118.831L98.6843 133.232ZM59.3046 128.123C58.2207 128.123 57.3446 127.25 57.3446 126.171C57.3446 125.092 58.2207 124.219 59.3046 124.219C60.3884 124.219 61.2645 125.092 61.2645 126.171C61.2645 127.25 60.3884 128.123 59.3046 128.123ZM59.3046 110.474C58.2207 110.474 57.3446 109.601 57.3446 108.522C57.3446 107.442 58.2207 106.57 59.3046 106.57C60.3884 106.57 61.2645 107.442 61.2645 108.522C61.2645 109.601 60.3884 110.474 59.3046 110.474Z" fill="white"/>
<path d="M76.7997 96.7916C75.2732 95.0375 74.2075 92.8156 73.4217 90.3238C73.0243 89.0555 72.6991 87.7151 72.4281 86.3298L71.2811 87.0585L70.0527 87.8411L66.1689 90.3148L63.0438 92.3028L62.5561 93.2384L71.1546 104.798L76.7997 96.7916Z" fill="white"/>
<path d="M46.9577 100.696L49.857 104.807L58.4555 93.2473L57.9678 92.3118L54.8427 90.3238L50.2544 87.4003L49.0351 86.6176L47.8158 85.844L45.91 84.6296L45.7926 84.8005C46.3435 86.6626 46.7951 88.5067 47.1022 90.3238C47.4906 92.5997 47.6441 94.8305 47.4816 97.0074C47.3732 98.3658 47.1925 99.5802 46.9577 100.696Z" fill="white"/>
<path d="M93.6083 51.4993C94.2315 48.3958 94.1231 46.039 93.3193 44.7437L91.8651 47.3164L91.549 49.0255C91.2871 52.4708 90.7632 55.7361 90.0045 58.7766C91.2238 57.9311 92.7051 55.961 93.6083 51.4993Z" fill="white"/>
<path d="M52.7924 52.7767C54.6891 51.5083 55.9175 47.9011 54.9149 45.0765C53.9034 42.252 40.4095 41.4064 39.0185 43.3854C38.1334 45.2205 38.1153 50.24 39.8856 52.066C41.6468 53.9011 50.8957 54.0451 52.7924 52.7767ZM47.5448 43.4663C49.7305 43.4034 50.8866 44.8427 50.8325 47.5593C50.8866 50.2759 49.7305 51.7152 47.5448 51.6523C45.359 51.7152 44.2029 50.2849 44.2571 47.5593C44.2029 44.8337 45.359 43.3944 47.5448 43.4663Z" fill="white"/>
<path d="M86.8343 40.3719C83.9982 26.3659 76.2577 14.5818 76.2577 14.5818C76.2577 14.5818 48.2674 23.2355 39.7953 38.4738C39.4792 39.0406 39.1992 39.6073 38.9282 40.174C40.0572 40.057 41.1591 39.9941 42.0894 39.9941C46.2803 39.9941 56.8388 40.0211 57.6336 45.1485H63.7393C64.1186 42.7107 66.7108 41.4244 69.7727 40.7497C73.1417 40.0031 77.0796 39.9941 79.2835 39.9941C81.4963 39.9941 84.6666 40.3719 86.9246 40.8666C86.8885 40.7047 86.8614 40.5428 86.8343 40.3719ZM52.5847 37.7002H43.5887C43.092 37.7002 42.6855 37.3044 42.6855 36.8007C42.6855 36.3059 43.092 35.9011 43.5887 35.9011H52.5847C53.0814 35.9011 53.4879 36.2969 53.4879 36.8007C53.4879 37.2954 53.0905 37.7002 52.5847 37.7002ZM77.7751 37.7002H68.7792C68.2824 37.7002 67.876 37.3044 67.876 36.8007C67.876 36.3059 68.2824 35.9011 68.7792 35.9011H77.7751C78.2719 35.9011 78.6783 36.2969 78.6783 36.8007C78.6783 37.2954 78.2719 37.7002 77.7751 37.7002Z" fill="white"/>
<path d="M87.3852 46.183C87.4123 45.8321 87.4214 45.4993 87.4484 45.1575L86.0304 45.2384C86.0304 45.2384 85.8678 50.9506 83.7363 53.5143C81.8034 55.8441 73.3313 56.015 69.5469 55.3044C69.1675 55.2324 68.8243 55.1605 68.5534 55.0705C66.0786 54.2699 63.9019 52.2819 63.6309 48.4948H57.751C57.4891 52.2819 55.3124 54.2789 52.8285 55.0705C49.8118 56.033 39.7682 56.078 37.6366 53.5143C37.1489 52.9296 36.7786 52.192 36.4715 51.3914C36.4444 57.0945 38.0069 62.8156 39.9669 68.4468C41.9901 71.6582 44.4197 74.114 47.0661 75.9401C47.6712 76.3629 48.2944 76.7407 48.9267 77.0915C49.8751 77.6222 50.8325 78.072 51.817 78.4588C54.7162 79.5922 57.733 80.123 60.6864 80.123C63.1793 80.123 65.7083 79.7452 68.1831 78.9536C69.1585 78.6387 70.125 78.2699 71.0733 77.8201C71.1094 77.8021 71.1456 77.7841 71.1817 77.7662C72.2565 77.2534 73.3042 76.6417 74.3249 75.9401C81.3247 71.1095 86.7891 61.7812 87.3852 46.183ZM58.582 61.0075H62.7819C64.2631 61.0075 64.4889 61.5023 63.2967 62.105L62.8632 62.3209C61.6619 62.9236 59.711 62.9236 58.5097 62.3209L58.0762 62.105C56.8749 61.5023 57.1097 61.0075 58.582 61.0075ZM50.0918 65.2264C50.5615 64.8576 51.2299 64.9476 51.6002 65.4063C51.7176 65.5413 54.2285 68.5278 60.6864 68.5278C67.2437 68.5278 69.7366 65.4423 69.7637 65.4153C69.7908 65.3794 69.8269 65.3704 69.854 65.3434C70.2333 64.9566 70.8385 64.8936 71.2811 65.2354C71.7507 65.6042 71.832 66.2789 71.4707 66.7467C71.4256 66.8096 70.974 67.3584 70.0437 68.033C68.4631 69.1845 65.4825 70.6867 60.6864 70.6867C53.0905 70.6867 50.0376 66.9086 49.9112 66.7467C49.5409 66.2699 49.6222 65.5952 50.0918 65.2264Z" fill="white"/>
<path d="M69.6914 43.1966C68.0024 43.6553 66.747 44.294 66.4579 45.0766C65.4463 47.9012 66.6837 51.4994 68.5805 52.7768C68.8063 52.9297 69.1314 53.0556 69.5379 53.1636C72.5546 53.9912 79.9338 53.6943 81.4963 52.0751C83.2666 50.24 83.2485 45.2295 82.3634 43.3945C81.3518 41.9642 74.0629 42.0002 69.6914 43.1966ZM73.8281 51.6433C71.6423 51.7063 70.4862 50.276 70.5404 47.5504C70.4862 44.8337 71.6423 43.3945 73.8281 43.4574C76.0139 43.3945 77.17 44.8337 77.1158 47.5504C77.17 50.276 76.0139 51.7153 73.8281 51.6433Z" fill="white"/>
<path d="M15.1915 103.628C12.8793 104.41 10.6935 105.148 9.1039 105.768C2.88984 108.179 -0.497182 115.097 0.0537735 124.29C0.270543 127.888 1.0744 142.641 1.0744 142.641C1.11053 143.361 1.68858 143.927 2.39308 143.99C2.40211 143.99 2.41114 143.99 2.42017 143.99C2.44727 143.99 2.4834 143.999 2.5105 143.999H60.1622H61.8512H117.462C117.489 143.999 117.525 143.99 117.552 143.99C117.561 143.99 117.57 143.99 117.579 143.99C118.293 143.927 118.862 143.361 118.898 142.641C118.898 142.641 119.702 127.888 119.918 124.29C120.469 115.106 117.091 108.179 110.868 105.768C109.279 105.148 107.093 104.41 104.781 103.628C101.529 102.53 97.853 101.28 94.8453 100.047C92.3615 99.0308 88.3151 96.683 84.5487 94.3712C82.2727 83.9274 88.288 74.2572 92.2802 61.5466C94.1408 60.1343 96.0556 57.3996 97.0943 52.1912C98.0065 47.6395 97.591 44.2572 95.8569 42.1523C95.7395 42.0083 95.613 41.8914 95.4866 41.7655C95.4866 41.7025 95.4866 41.6485 95.4866 41.5855L95.2879 41.5586C95.1885 41.4686 95.0801 41.3876 94.9808 41.3067C95.3511 37.2227 97.1936 8.71598 76.2483 3.84941C49.1521 -8.27652 28.0441 9.56155 25.1629 38.2392C22.5526 64.2812 32.8131 83.4506 35.2969 94.4611C31.5757 96.746 27.5835 99.0488 25.1358 100.056C22.1191 101.28 18.4431 102.53 15.1915 103.628ZM93.7795 102.719C96.8685 103.978 100.59 105.247 103.886 106.353C106.171 107.127 108.321 107.855 109.857 108.449C114.842 110.383 117.543 116.239 117.064 124.11C116.884 127.043 116.315 137.379 116.116 141.121H98.6929V133.232L106.289 118.839C106.632 118.182 106.379 117.364 105.72 117.013C105.061 116.671 104.239 116.923 103.886 117.58L96.1369 132.269C96.0375 132.467 95.9833 132.683 95.9833 132.899V141.121H61.8692H60.1802H56.9558V100.515C56.9558 100.326 56.8835 100.164 56.7842 100.02L60.4963 95.0368L70.0794 107.918C70.3323 108.26 70.7387 108.467 71.1722 108.467C71.1813 108.467 71.1813 108.467 71.1903 108.467C71.6238 108.458 72.0303 108.251 72.2832 107.891L78.8224 98.626C80.8817 100.074 83.5552 100.893 87.0596 100.839C86.6351 100.074 86.2739 99.3277 85.9487 98.581C88.8932 100.317 91.7654 101.891 93.7795 102.719ZM60.686 84.4131C63.3505 84.4131 65.9337 84.0533 68.3994 83.3606C68.5168 84.1163 68.6613 84.7999 68.851 85.3936L61.2641 90.2242C61.2279 90.2512 61.1918 90.2872 61.1557 90.3142C61.0112 90.4311 60.8847 90.566 60.7944 90.728L60.4873 91.3037L60.1802 90.728C60.0899 90.566 59.9635 90.4311 59.8189 90.3142C59.7828 90.2872 59.7467 90.2512 59.7106 90.2242L51.2836 84.8629C51.4372 84.2962 51.5546 83.6665 51.6359 82.9738C54.5081 83.9274 57.5429 84.4131 60.686 84.4131ZM63.0344 92.3112L66.1595 90.3232L70.0432 87.8494L71.2716 87.0668L72.4187 86.3382C72.6896 87.7235 73.0148 89.0638 73.4122 90.3322C74.189 92.8239 75.2547 95.0458 76.7902 96.7999L71.1361 104.815L62.5376 93.2557L63.0344 92.3112ZM47.0928 90.3232C46.7857 88.5061 46.3341 86.662 45.7831 84.7999L45.9005 84.629L47.8063 85.8434L49.0256 86.617L50.245 87.3996L54.8332 90.3232L57.9583 92.3112L58.4461 93.2467L49.8475 104.806L46.9483 100.695C47.1831 99.5795 47.3637 98.3652 47.4631 97.0068C47.6347 94.8299 47.4721 92.599 47.0928 90.3232ZM91.5396 49.0338L91.8557 47.3247L93.3098 44.752C94.1137 46.0473 94.2221 48.4041 93.5989 51.5076C92.7047 55.9693 91.2234 57.9394 89.986 58.7939C90.7538 55.7445 91.2776 52.4791 91.5396 49.0338ZM39.7949 38.4731C48.276 23.2437 76.2573 14.581 76.2573 14.581C76.2573 14.581 83.9978 26.3652 86.8338 40.3712C86.87 40.5331 86.8971 40.695 86.9242 40.8659C84.6571 40.3801 81.4869 39.9933 79.283 39.9933C77.0882 39.9933 73.1503 40.0023 69.7723 40.749C66.7104 41.4236 64.1182 42.71 63.7389 45.1478H57.6332C56.8384 40.0203 46.2799 39.9933 42.089 39.9933C41.1587 39.9933 40.0568 40.0563 38.9278 40.1732C39.1987 39.6065 39.4787 39.0398 39.7949 38.4731ZM81.4869 52.0653C79.9243 53.6845 72.5451 53.9813 69.5284 53.1538C69.131 53.0458 68.7968 52.9199 68.571 52.767C66.6743 51.4986 65.4459 47.8914 66.4485 45.0668C66.7285 44.2752 67.9839 43.6455 69.682 43.1867C74.0535 41.9903 81.3424 41.9544 82.3449 43.3756C83.2391 45.2197 83.2662 50.2302 81.4869 52.0653ZM39.0181 43.3846C40.409 41.4056 53.8939 42.2602 54.9145 45.0758C55.9261 47.9004 54.6978 51.4986 52.792 52.7759C50.8953 54.0443 41.6555 53.9004 39.8852 52.0743C38.1059 50.2302 38.133 45.2197 39.0181 43.3846ZM37.6362 53.5136C39.7678 56.0773 49.8114 56.0323 52.8281 55.0698C55.3119 54.2692 57.4796 52.2812 57.7506 48.4941H63.6305C63.8924 52.2812 66.0691 54.2782 68.5529 55.0698C68.8239 55.1598 69.1762 55.2317 69.5465 55.3037C73.3399 56.0143 81.803 55.8434 83.7358 53.5136C85.8674 50.9499 86.03 45.2377 86.03 45.2377L87.448 45.1568C87.43 45.4986 87.4119 45.8314 87.3848 46.1822C86.7887 61.7804 81.3333 71.1088 74.3335 75.9304C73.3129 76.632 72.2651 77.2347 71.1903 77.7565C71.1542 77.7745 71.118 77.7924 71.0819 77.8104C70.1336 78.2602 69.1671 78.638 68.1917 78.9439C65.7169 79.7355 63.1879 80.1133 60.695 80.1133C57.7416 80.1133 54.7249 79.5825 51.8256 78.4491C50.8501 78.0623 49.8837 77.6125 48.9353 77.0818C48.3031 76.731 47.6799 76.3532 47.0747 75.9304C44.4283 74.1043 41.9987 71.6485 39.9755 68.4371C38.0155 62.7969 36.453 57.0848 36.4801 51.3816C36.7781 52.1822 37.1485 52.9289 37.6362 53.5136ZM35.7846 97.5376C35.7846 97.5466 35.7846 97.5466 35.7846 97.5555C36.5433 107.855 32.3615 111.346 32.3615 111.346C32.3615 111.346 42.08 113.747 45.9818 104.005L48.7185 107.882C48.9714 108.233 49.3779 108.449 49.8114 108.458C49.8205 108.458 49.8204 108.458 49.8295 108.458C50.254 108.458 50.6604 108.26 50.9133 107.909L55.1494 102.215V141.121H24.0249V132.899C24.0249 132.683 23.9707 132.467 23.8713 132.269L16.1218 117.58C15.7696 116.923 14.9476 116.671 14.2883 117.013C13.629 117.364 13.367 118.173 13.7193 118.839L21.3153 133.241V141.13H3.8924C3.68466 137.397 3.11564 127.061 2.94403 124.119C2.47437 116.239 5.16592 110.383 10.1516 108.458C11.6871 107.864 13.8367 107.136 16.1218 106.362C19.4095 105.247 23.1397 103.987 26.2287 102.728C28.6312 101.738 32.2531 99.6785 35.7846 97.5376Z" fill="#343A40"/>
<path d="M59.3046 106.57C58.2207 106.57 57.3446 107.442 57.3446 108.522C57.3446 109.601 58.2207 110.474 59.3046 110.474C60.3884 110.474 61.2645 109.601 61.2645 108.522C61.2645 107.442 60.3884 106.57 59.3046 106.57Z" fill="#343A40"/>
<path d="M59.3046 124.228C58.2207 124.228 57.3446 125.101 57.3446 126.18C57.3446 127.26 58.2207 128.132 59.3046 128.132C60.3884 128.132 61.2645 127.26 61.2645 126.18C61.2645 125.101 60.3884 124.228 59.3046 124.228Z" fill="#343A40"/>
<path d="M47.5448 51.6432C49.7305 51.7062 50.8866 50.2759 50.8324 47.5503C50.8866 44.8336 49.7305 43.3943 47.5448 43.4573C45.359 43.3943 44.2029 44.8336 44.2571 47.5503C44.2029 50.2759 45.359 51.7152 47.5448 51.6432Z" fill="#343A40"/>
<path d="M73.8281 43.4664C71.6423 43.4035 70.4862 44.8428 70.5404 47.5594C70.4862 50.276 71.6423 51.7153 73.8281 51.6523C76.0138 51.7153 77.1699 50.285 77.1157 47.5594C77.1699 44.8338 76.0138 43.3945 73.8281 43.4664Z" fill="#343A40"/>
<path d="M58.0762 62.105L58.5097 62.3209C59.711 62.9236 61.671 62.9236 62.8632 62.3209L63.2967 62.105C64.489 61.5023 64.2632 61.0076 62.7819 61.0076H58.582C57.1098 61.0076 56.8749 61.5023 58.0762 62.105Z" fill="#343A40"/>
<path d="M60.6864 70.6687C65.4734 70.6687 68.454 69.1664 70.0437 68.015C70.974 67.3404 71.4256 66.7826 71.4707 66.7287C71.841 66.2609 71.7597 65.5862 71.281 65.2174C70.8475 64.8756 70.2333 64.9386 69.854 65.3254C69.8269 65.3524 69.7908 65.3703 69.7637 65.3973C69.7366 65.4243 67.2437 68.5098 60.6864 68.5098C54.2285 68.5098 51.7176 65.5323 51.6002 65.3883C51.2299 64.9296 50.5525 64.8486 50.0918 65.2084C49.6222 65.5772 49.5409 66.2519 49.9021 66.7197C50.0376 66.8906 53.0905 70.6687 60.6864 70.6687Z" fill="#343A40"/>
<path d="M43.5888 37.7002H52.5847C53.0815 37.7002 53.4879 37.3044 53.4879 36.8007C53.4879 36.3059 53.0815 35.9011 52.5847 35.9011H43.5888C43.092 35.9011 42.6855 36.2969 42.6855 36.8007C42.6946 37.2954 43.101 37.7002 43.5888 37.7002Z" fill="#343A40"/>
<path d="M68.7792 37.7002H77.7751C78.2719 37.7002 78.6783 37.3044 78.6783 36.8007C78.6783 36.3059 78.2719 35.9011 77.7751 35.9011H68.7792C68.2824 35.9011 67.876 36.2969 67.876 36.8007C67.885 37.2954 68.2824 37.7002 68.7792 37.7002Z" fill="#343A40"/>
</g>
<defs>
<clipPath id="clip0">
<rect width="120" height="144" fill="white"/>
</clipPath>
</defs>
</svg>
