<?xml version="1.0" encoding="UTF-8"?>
<svg width="51px" height="36px" viewBox="0 0 51 36" version="1.1" xmlns="http://www.w3.org/2000/svg" xmlns:xlink="http://www.w3.org/1999/xlink">
    <title>plane-icon-1</title>
    <g id="Page-1" stroke="none" stroke-width="1" fill="none" fill-rule="evenodd">
        <g id="plane-icon-1" fill-rule="nonzero">
            <path d="M49.7763,6.8332 L49.7733,6.8326 C49.7702,6.8324 49.7671,6.8318 49.7644,6.8317 L1.2026,0.5778 C0.8076,0.5271 0.4213,0.7203 0.2257,1.0667 C0.0299,1.4135 0.0634,1.8438 0.3104,2.1559 L10.1082,14.5264 L7.7781,28.5503 C7.6612,29.2557 8.3158,29.8399 8.9997,29.6542 C9.0029,29.6533 9.0061,29.6531 9.0093,29.6521 L19.6988,26.635 L26.5952,35.3422 C26.9831,35.8321 27.7214,35.836 28.1161,35.3587 L50.405,8.4274 C50.4058,8.4264 50.4061,8.4253 50.4067,8.4247 C50.8873,7.8395 50.5482,6.9347 49.7763,6.8332 L49.7763,6.8332 Z" id="Shape" fill="#343A40"></path>
            <path d="M42.9761,7.9303 L11.5528,13.1981 L3.3375,2.826 L42.9761,7.9303 Z M37.9884,10.7507 L14.999,18.5983 C14.8197,18.6596 14.6493,18.7801 14.5275,18.9455 C14.5248,18.9491 14.5219,18.9517 14.5191,18.9553 L10.3992,24.7143 L11.9952,15.1084 L37.9884,10.7507 Z M11.1621,27.0112 L15.3551,21.1504 L18.3826,24.973 L11.1621,27.0112 Z M27.3792,33.1799 C26.5883,32.1816 18.1769,21.5613 16.9421,20.0028 L46.6883,9.8489 L27.3792,33.1799 Z" id="Shape" fill="#FFFFFF"></path>
        </g>
    </g>
</svg>