<?xml version="1.0" encoding="UTF-8"?>
<svg width="28px" height="28px" viewBox="0 0 28 28" version="1.1" xmlns="http://www.w3.org/2000/svg" xmlns:xlink="http://www.w3.org/1999/xlink">
    <title>plane-3</title>
    <g id="Page-1" stroke="none" stroke-width="1" fill="none" fill-rule="evenodd" stroke-linecap="round" stroke-linejoin="round">
        <g id="plane-3" transform="translate(14.000000, 14.000000) rotate(-22.000000) translate(-14.000000, -14.000000) translate(4.000000, 4.000000)" stroke="#212529" stroke-width="1.5">
            <path d="M1.21526,9.0241 C0.9174,9.0681 0.64192,9.2078 0.43046,9.4221 C0.219,9.6364 0.08304,9.9138 0.04314,10.2122 C0.00323,10.5106 0.06154,10.8139 0.20926,11.0763 C0.35698,11.3387 0.58608,11.5458 0.86194,11.6665 L17.5042,18.9449 C17.7511,19.053 18.0242,19.0868 18.29,19.0421 C18.5558,18.9974 18.8028,18.8761 19.0008,18.6932 C19.1987,18.5102 19.339,18.2735 19.4045,18.0121 C19.47,17.7506 19.4578,17.4757 19.3694,17.221 L14.0707,1.8521 C13.9829,1.59786 13.823,1.37465 13.6106,1.20965 C13.3982,1.04466 13.1423,0.94502 12.8743,0.92285 C12.6062,0.90069 12.3375,0.95697 12.1008,1.08483 C11.8642,1.21269 11.6699,1.40662 11.5415,1.64299 L8.0917,8.01017 L1.21526,9.0241 Z" id="Path"></path>
            <path d="M8.0917,8.01017 L6.0307,8.31409 L5.40209,4.05102 C5.3653,3.80163 5.39723,3.54694 5.49444,3.31435 C5.59165,3.08177 5.75046,2.8801 5.95377,2.73107 C6.15708,2.58204 6.39718,2.49128 6.64824,2.46857 C6.8993,2.44586 7.1518,2.49206 7.3785,2.6022 L10.2619,4.00155 L8.0917,8.01017 Z" id="Path"></path>
            <line x1="8.0909" y1="8.0103" x2="18.9991" y2="18.6916" id="Path"></line>
        </g>
    </g>
</svg>