<svg width="29" height="29" viewBox="0 0 29 29" fill="none" xmlns="http://www.w3.org/2000/svg">
<g clip-path="url(#clip0)">
<path d="M6.6807 10.5353C6.47616 10.3144 6.34908 10.0328 6.31867 9.73329C6.28826 9.43375 6.35618 9.13244 6.51216 8.8749C6.66813 8.61736 6.90369 8.41759 7.18325 8.30577C7.4628 8.19395 7.77115 8.17615 8.06171 8.25507L25.591 13.0161C25.8511 13.0866 26.0851 13.2315 26.2641 13.433C26.4432 13.6344 26.5597 13.8837 26.5992 14.1504C26.6388 14.417 26.5997 14.6894 26.4868 14.9341C26.3739 15.1789 26.1921 15.3854 25.9636 15.5284L12.2013 24.1817C11.9735 24.3247 11.709 24.3984 11.4401 24.3938C11.1711 24.3892 10.9093 24.3065 10.6866 24.1557C10.4638 24.005 10.2897 23.7927 10.1855 23.5447C10.0813 23.2968 10.0514 23.0238 10.0996 22.7592L11.4029 15.6358L6.6807 10.5353Z" stroke="#212529" stroke-width="1.5" stroke-linecap="round" stroke-linejoin="round"/>
<path d="M11.4029 15.6359L9.98755 14.1072L6.8255 17.0347C6.64052 17.2059 6.50574 17.4244 6.43569 17.6666C6.36564 17.9087 6.36296 18.1654 6.42795 18.409C6.49294 18.6525 6.62313 18.8737 6.8045 19.0488C6.98588 19.2239 7.21157 19.3461 7.45728 19.4025L10.581 20.1195L11.4029 15.6359Z" stroke="#212529" stroke-width="1.5" stroke-linecap="round" stroke-linejoin="round"/>
<path d="M11.4023 15.6353L26.5969 14.1506" stroke="#212529" stroke-width="1.5" stroke-linecap="round" stroke-linejoin="round"/>
</g>
<defs>
<clipPath id="clip0">
<rect width="20" height="20" fill="white" transform="translate(14.6758) rotate(47.2055)"/>
</clipPath>
</defs>
</svg>
