<?xml version="1.0" encoding="UTF-8"?>
<svg width="29px" height="27px" viewBox="0 0 29 27" version="1.1" xmlns="http://www.w3.org/2000/svg" xmlns:xlink="http://www.w3.org/1999/xlink">
    <title>plane-5</title>
    <g id="Page-1" stroke="none" stroke-width="1" fill="none" fill-rule="evenodd" stroke-linecap="round" stroke-linejoin="round">
        <g id="plane-5" transform="translate(14.500000, 13.500000) scale(-1, 1) rotate(23.000000) translate(-14.500000, -13.500000) translate(4.000000, 5.000000)" stroke="#212529" stroke-width="1.5">
            <path d="M19.9115,10.7197 C20.1907,10.8325 20.4255,11.0331 20.5806,11.2912 C20.7357,11.5493 20.8025,11.8508 20.7711,12.1503 C20.7396,12.4497 20.6116,12.7308 20.4063,12.951 C20.201,13.1712 19.9295,13.3187 19.633,13.371 L1.74526,16.5283 C1.47984,16.5753 1.20648,16.5439 0.95865,16.4379 C0.71083,16.3319 0.4993,16.1559 0.34997,15.9315 C0.20064,15.7071 0.11999,15.444 0.117858324,15.1745 C0.11581,14.9049 0.19237,14.6406 0.3382,14.414 L9.105,0.7237 C9.2502,0.49726 9.4581,0.31794 9.7034,0.20758 C9.9487,0.09722 10.2208,0.06058 10.4865,0.10212 C10.7523,0.14367 11.0002,0.26161 11.2001,0.44157 C11.4,0.62154 11.5433,0.85576 11.6124,1.1157 L13.4668,8.1159 L19.9115,10.7197 Z" id="Path"></path>
            <path d="M13.4668,8.1158 L15.3984,8.8962 L17.0126,4.90085 C17.1071,4.66713 17.136,4.41207 17.0963,4.16314 C17.0565,3.91421 16.9496,3.68084 16.7871,3.48814 C16.6246,3.29545 16.4126,3.15073 16.1739,3.06958 C15.9353,2.98842 15.679,2.9739 15.4327,3.02758 L12.301,3.70906 L13.4668,8.1158 Z" id="Path"></path>
            <line x1="13.4676" y1="8.1161" x2="0.35197" y2="15.9303" id="Path"></line>
        </g>
    </g>
</svg>