<?xml version="1.0" encoding="UTF-8"?>
<svg width="45px" height="45px" viewBox="0 0 45 45" version="1.1" xmlns="http://www.w3.org/2000/svg" xmlns:xlink="http://www.w3.org/1999/xlink">
    <title>plane-2</title>
    <g id="Page-1" stroke="none" stroke-width="1" fill="none" fill-rule="evenodd">
        <g id="plane-2" transform="translate(21.500000, 22.500000) rotate(-22.000000) translate(-21.500000, -22.500000) translate(7.000000, 8.000000)" stroke="#212529" stroke-width="1.5">
            <g transform="translate(14.500000, 14.500000) rotate(-24.000000) translate(-14.500000, -14.500000) translate(4.000000, 4.000000)" id="Path">
                <g transform="translate(10.500000, 10.500000) rotate(-6.000000) translate(-10.500000, -10.500000) translate(1.000000, 1.000000)">
                    <path d="M7.81358,1.32247 C7.83685,1.02229 7.95719,0.73783 8.15642,0.51208 C8.35565,0.28633 8.62294,0.13156 8.9179,0.07115 C9.2129,0.01075 9.5195,0.04799 9.7914,0.17725 C10.0633,0.30651 10.2858,0.52076 10.4252,0.78764 L18.8348,16.888 C18.9597,17.1268 19.0123,17.3969 18.986,17.6652 C18.9598,17.9334 18.8558,18.1882 18.687,18.3983 C18.5181,18.6084 18.2917,18.7647 18.0353,18.8481 C17.779,18.9314 17.5039,18.9382 17.2438,18.8676 L1.54582,14.6422 C1.28612,14.5722 1.05241,14.4281 0.87315,14.2276 C0.69389,14.027 0.57683,13.7787 0.53622,13.5128 C0.49561,13.2469 0.53321,12.9749 0.64443,12.73 C0.75566,12.4851 0.93571,12.2778 1.16266,12.1335 L7.27659,8.2525 L7.81358,1.32247 Z"></path>
                    <path d="M7.27658,8.2525 L7.43753,6.17543 L3.14124,5.84252 C2.88991,5.82303 2.63803,5.87246 2.41271,5.98549 C2.18739,6.09852 1.99716,6.27087 1.86252,6.48398 C1.72787,6.69708 1.6539,6.94288 1.64857,7.19491 C1.64324,7.44694 1.70676,7.69564 1.83227,7.91425 L3.42728,10.6941 L7.27658,8.2525 Z"></path>
                    <line x1="7.27666" y1="8.2517" x2="18.6853" y2="18.3968"></line>
                </g>
            </g>
        </g>
    </g>
</svg>