<svg width="24" height="24" viewBox="0 0 24 24" fill="none" xmlns="http://www.w3.org/2000/svg">
<g clip-path="url(#clip0)">
<path d="M4.21526 10.0241C3.9174 10.0681 3.64192 10.2078 3.43046 10.4221C3.219 10.6364 3.08304 10.9138 3.04314 11.2122C3.00323 11.5106 3.06154 11.8139 3.20926 12.0763C3.35698 12.3387 3.58608 12.5458 3.86194 12.6665L20.5042 19.9449C20.7511 20.053 21.0242 20.0868 21.29 20.0421C21.5558 19.9974 21.8028 19.8761 22.0008 19.6932C22.1987 19.5102 22.339 19.2735 22.4045 19.0121C22.47 18.7506 22.4578 18.4757 22.3694 18.221L17.0707 2.8521C16.9829 2.59786 16.823 2.37465 16.6106 2.20965C16.3982 2.04466 16.1423 1.94502 15.8743 1.92285C15.6062 1.90069 15.3375 1.95697 15.1008 2.08483C14.8642 2.21269 14.6699 2.40662 14.5415 2.64299L11.0917 9.01017L4.21526 10.0241Z" stroke="#212529" stroke-width="1.5" stroke-linecap="round" stroke-linejoin="round"/>
<path d="M11.0917 9.01017L9.0307 9.31409L8.40209 5.05102C8.3653 4.80163 8.39723 4.54694 8.49444 4.31435C8.59165 4.08177 8.75046 3.8801 8.95377 3.73107C9.15708 3.58204 9.39718 3.49128 9.64824 3.46857C9.8993 3.44586 10.1518 3.49206 10.3785 3.6022L13.2619 5.00155L11.0917 9.01017Z" stroke="#212529" stroke-width="1.5" stroke-linecap="round" stroke-linejoin="round"/>
<path d="M11.0909 9.0103L21.9991 19.6916" stroke="#212529" stroke-width="1.5" stroke-linecap="round" stroke-linejoin="round"/>
</g>
<defs>
<clipPath id="clip0">
<rect width="20" height="20" fill="white" transform="matrix(0.989303 -0.145878 -0.145878 -0.989303 3.84064 23.2444)"/>
</clipPath>
</defs>
</svg>
