<svg width="51" height="50" viewBox="0 0 51 50" fill="none" xmlns="http://www.w3.org/2000/svg">
<g clip-path="url(#clip0)">
<path d="M48.9393 7.89395L48.9363 7.89433C48.9332 7.89509 48.9301 7.89548 48.9275 7.89624L0.798805 16.8955C0.407415 16.9689 0.0993492 17.2716 0.0198482 17.6615C-0.0596527 18.0517 0.1047 18.4508 0.435699 18.6717L13.566 27.4252L15.6663 41.4854C15.7721 42.1925 16.5748 42.5468 17.1684 42.1596C17.171 42.1577 17.1741 42.1566 17.1768 42.1547L26.4184 35.9933L35.6604 42.1547C36.1802 42.5013 36.8838 42.2777 37.1124 41.7021L50.0283 9.21718C50.0286 9.21603 50.0286 9.21489 50.029 9.21412C50.3061 8.50931 49.7049 7.75291 48.9393 7.89395ZM42.807 11.0312L14.5315 25.7167L3.5221 18.3774L42.807 11.0312ZM38.9298 15.2501L19.4727 29.7938C19.321 29.9073 19.196 30.0743 19.131 30.2693C19.1295 30.2735 19.1276 30.2769 19.1261 30.2811L16.9792 37.0288L15.5405 27.3981L38.9298 15.2501ZM18.4121 38.9792L20.5972 32.1123L24.6544 34.8173L18.4121 38.9792ZM35.7406 39.856C34.6807 39.1497 23.4084 31.6345 21.7538 30.5318L46.9296 11.7138L35.7406 39.856Z" fill="#343A40"/>
</g>
<defs>
<clipPath id="clip0">
<rect width="50.0978" height="50" fill="white"/>
</clipPath>
</defs>
</svg>
