<?xml version="1.0" encoding="UTF-8"?>
<svg width="29px" height="28px" viewBox="0 0 29 28" version="1.1" xmlns="http://www.w3.org/2000/svg" xmlns:xlink="http://www.w3.org/1999/xlink">
    <title>plane-4</title>
    <g id="Page-1" stroke="none" stroke-width="1" fill="none" fill-rule="evenodd" stroke-linecap="round" stroke-linejoin="round">
        <g id="plane-4" transform="translate(15.000000, 13.500000) scale(-1, -1) rotate(25.000000) translate(-15.000000, -13.500000) translate(5.000000, 4.000000)" stroke="#212529" stroke-width="1.5">
            <path d="M13.7747,1.85817 C13.7877,1.55736 13.7024,1.2605 13.5317,1.01245 C13.3611,0.76441 13.1143,0.57864 12.8287,0.48324 C12.5432,0.38783 12.2343,0.38797 11.9488,0.48362 C11.6633,0.57927 11.4167,0.76525 11.2463,1.01344 L0.963247,15.9868 C0.810544,16.2089 0.725931,16.4708 0.719769,16.7402 C0.713608,17.0097 0.786165,17.2751 0.928556,17.504 C1.07095,17.7329 1.27699,17.9152 1.52145,18.0288 C1.76591,18.1423 2.03818,18.1821 2.30491,18.1433 L18.3968,15.8345 C18.6631,15.7961 18.9124,15.6812 19.1144,15.5036 C19.3165,15.3261 19.4626,15.0936 19.5348,14.8345 C19.6071,14.5754 19.6024,14.3009 19.5214,14.0444 C19.4404,13.7879 19.2866,13.5605 19.0786,13.3899 L13.4752,8.80255 L13.7747,1.85817 Z" id="Path"></path>
            <path d="M13.4752,8.80259 L13.565,6.72119 L17.8702,6.90685 C18.122,6.9177 18.3661,6.99703 18.5762,7.13631 C18.7864,7.27559 18.9545,7.46955 19.0626,7.69729 C19.1706,7.92503 19.2145,8.17794 19.1896,8.42878 C19.1646,8.67962 19.0716,8.91889 18.9208,9.1208 L17.0033,11.6889 L13.4752,8.80259 Z" id="Path"></path>
            <line x1="13.4753" y1="8.80167" x2="0.930399" y2="17.5026" id="Path"></line>
        </g>
    </g>
</svg>