<svg width="21" height="21" viewBox="0 0 21 21" fill="none" xmlns="http://www.w3.org/2000/svg">
<g clip-path="url(#clip0)">
<path d="M13.7747 2.85817C13.7877 2.55736 13.7024 2.2605 13.5317 2.01245C13.3611 1.76441 13.1143 1.57864 12.8287 1.48324C12.5432 1.38783 12.2343 1.38797 11.9488 1.48362C11.6633 1.57927 11.4167 1.76525 11.2463 2.01344L0.963247 16.9868C0.810544 17.2089 0.725931 17.4708 0.719769 17.7402C0.713608 18.0097 0.786165 18.2751 0.928556 18.504C1.07095 18.7329 1.27699 18.9152 1.52145 19.0288C1.76591 19.1423 2.03818 19.1821 2.30491 19.1433L18.3968 16.8345C18.6631 16.7961 18.9124 16.6812 19.1144 16.5036C19.3165 16.3261 19.4626 16.0936 19.5348 15.8345C19.6071 15.5754 19.6024 15.3009 19.5214 15.0444C19.4404 14.7879 19.2866 14.5605 19.0786 14.3899L13.4752 9.80255L13.7747 2.85817Z" stroke="#212529" stroke-width="1.5" stroke-linecap="round" stroke-linejoin="round"/>
<path d="M13.4752 9.80259L13.565 7.72119L17.8702 7.90685C18.122 7.9177 18.3661 7.99703 18.5762 8.13631C18.7864 8.27559 18.9545 8.46955 19.0626 8.69729C19.1706 8.92503 19.2145 9.17794 19.1896 9.42878C19.1646 9.67962 19.0716 9.91889 18.9208 10.1208L17.0033 12.6889L13.4752 9.80259Z" stroke="#212529" stroke-width="1.5" stroke-linecap="round" stroke-linejoin="round"/>
<path d="M13.4753 9.80167L0.930399 18.5026" stroke="#212529" stroke-width="1.5" stroke-linecap="round" stroke-linejoin="round"/>
</g>
<defs>
<clipPath id="clip0">
<rect width="20" height="20" fill="white" transform="matrix(-0.043085 0.999071 0.999071 0.043085 0.861694 0)"/>
</clipPath>
</defs>
</svg>
