<svg xmlns="http://www.w3.org/2000/svg" width="10.727" height="20.544" viewBox="0 0 10.727 20.544">
  <path id="Path_178" data-name="Path 178" d="M68.519,73.206c.637-.021,1.273,0,1.911-.006h.262V69.89c-.34-.034-.7-.083-1.052-.1-.653-.03-1.307-.062-1.96-.046a4.8,4.8,0,0,0-2.767.855,4.137,4.137,0,0,0-1.662,2.763,9.586,9.586,0,0,0-.116,1.422c-.018.743,0,1.486,0,2.229v.278H59.966v3.7h3.15v9.3h3.848V81H70.1c.161-1.23.319-2.447.483-3.716h-.706c-.892,0-2.941,0-2.941,0s.008-1.832.031-2.628C67,73.571,67.647,73.238,68.519,73.206Z" transform="translate(-59.966 -69.74)" fill="#fff" fill-rule="evenodd"/>
</svg>
