<svg xmlns="http://www.w3.org/2000/svg" width="19.913" height="19.904" viewBox="0 0 19.913 19.904">
  <path id="Path_180" data-name="Path 180" d="M232.565,74.065a5.284,5.284,0,0,0-1.611-3.4,5.522,5.522,0,0,0-3.651-1.483,71.975,71.975,0,0,0-9.849.11,5.025,5.025,0,0,0-4.308,3.867c-.475,1.694-.38,9.5-.1,11.178a5.039,5.039,0,0,0,4,4.342c1.571.406,9.29.354,11.022.073a5.049,5.049,0,0,0,4.362-3.982C232.883,83.034,232.724,75.634,232.565,74.065Zm-1.833,9.95a3.371,3.371,0,0,1-3.169,3.008c-1.606.176-8.779.273-10.269-.144a3.265,3.265,0,0,1-2.477-2.812,66.607,66.607,0,0,1,0-10.049,3.365,3.365,0,0,1,3.155-3,70.243,70.243,0,0,1,9.8.04,3.37,3.37,0,0,1,3,3.175A71.451,71.451,0,0,1,230.732,84.015Zm-7.96-10.1a5.106,5.106,0,1,0,5.1,5.108A5.105,5.105,0,0,0,222.772,73.92Zm-.035,8.4a3.3,3.3,0,1,1,3.332-3.271A3.3,3.3,0,0,1,222.737,82.324Zm6.536-8.6a1.2,1.2,0,1,1-1.192-1.2A1.2,1.2,0,0,1,229.272,73.727Z" transform="translate(-212.813 -69.072)" fill="#fff"/>
</svg>
