<svg xmlns="http://www.w3.org/2000/svg" width="65.27" height="84.755" viewBox="0 0 65.27 84.755">
  <g id="Meta_Creative_-_Logo_-_Stacked_White" data-name="Meta Creative - Logo - Stacked White" transform="translate(-348.8 -189.1)">
    <g id="Group_1" data-name="Group 1" transform="translate(348.848 268.329)">
      <path id="Path_1" data-name="Path 1" d="M351.616,360.021a1.469,1.469,0,0,0,1.429-1l1,.381a2.084,2.084,0,0,1-.953,1.143,2.957,2.957,0,0,1-1.477.381,2.705,2.705,0,0,1-2-.715,2.823,2.823,0,0,1-.715-2.049,2.94,2.94,0,0,1,.667-2.049,2.632,2.632,0,0,1,2-.715,2.885,2.885,0,0,1,1.525.381,2.227,2.227,0,0,1,.858,1.1l-1,.286a1.337,1.337,0,0,0-.476-.667,1.645,1.645,0,0,0-.858-.238,1.3,1.3,0,0,0-1.143.476,2.271,2.271,0,0,0-.381,1.382,2.134,2.134,0,0,0,.429,1.429A1.156,1.156,0,0,0,351.616,360.021Z" transform="translate(-348.9 -355.4)"/>
      <path id="Path_2" data-name="Path 2" d="M372.916,360.884l-1.239-2.049h-1.334v2.049H369.2V355.5h2.668a2.273,2.273,0,0,1,1.477.429,1.479,1.479,0,0,1,.524,1.191,1.3,1.3,0,0,1-.333.953,1.264,1.264,0,0,1-.858.524l1.477,2.239h-1.239Zm-.143-3.716c0-.524-.333-.762-1-.762h-1.429v1.572h1.477a.989.989,0,0,0,.715-.191A1,1,0,0,0,372.773,357.167Z" transform="translate(-359.529 -355.452)"/>
      <path id="Path_3" data-name="Path 3" d="M389.1,360.884V355.5h4.383v.858h-3.24v1.334h2.382v.858h-2.382v1.429h3.24v.858H389.1Z" transform="translate(-369.948 -355.452)"/>
      <path id="Path_4" data-name="Path 4" d="M411.545,360.884l-.476-1.382H409.02l-.476,1.382H407.4l1.953-5.384h1.334l1.953,5.384Zm-1.525-4.574v.1a3.054,3.054,0,0,0-.1.333c-.048.1-.238.762-.667,1.953h1.525l-.524-1.525-.143-.524Z" transform="translate(-379.529 -355.452)"/>
      <path id="Path_5" data-name="Path 5" d="M428.758,356.358v4.526h-1.143v-4.526H425.9V355.5h4.621v.858Z" transform="translate(-389.216 -355.452)"/>
      <path id="Path_6" data-name="Path 6" d="M444.9,360.884V355.5h1.143v5.384Z" transform="translate(-399.164 -355.452)"/>
      <path id="Path_7" data-name="Path 7" d="M459.644,360.884H458.5l-2-5.384h1.191l1.1,3.478a9,9,0,0,0,.286,1l.1-.334.191-.667,1.1-3.478H461.6Z" transform="translate(-405.237 -355.452)"/>
      <path id="Path_8" data-name="Path 8" d="M476.5,360.884V355.5h4.383v.858h-3.24v1.334h2.382v.858h-2.382v1.429h3.24v.858H476.5Z" transform="translate(-415.709 -355.452)"/>
    </g>
    <g id="Group_2" data-name="Group 2" transform="translate(348.8 189.1)">
      <path id="Path_9" data-name="Path 9" d="M446.126,284.458l2.525-7,6.194,16.961h-5.1Zm-3.811-8.861h5.1l-6.86,18.771H435.5Zm15.579,20.915-8.48-23.011h-8.576L432.5,296.511h9.576l3.1-8.433,3.144,8.433Z" transform="translate(-392.624 -233.29)"/>
      <path id="Path_10" data-name="Path 10" d="M359.609,282.409h4.717v12.006h-4.717Zm-6.86-6.813h18.39v4.717h-18.39Zm-2.049-2.1v8.909h6.813v14.1h8.909v-14.1h6.813V273.5Z" transform="translate(-349.795 -233.29)"/>
      <path id="Path_11" data-name="Path 11" d="M350.944,195.293l5.288,14.674h-5.288Zm20.105,0v14.721h-5.288Zm-19.724-4.05h5.1l3.668,9.957-2.525,7Zm14.293,0h5.05l-6.813,18.771h-5.1Zm-1.525-2.144-3.1,8.433-3.144-8.433H348.8v23.011h24.345V189.1Z" transform="translate(-348.8 -189.1)"/>
      <path id="Path_12" data-name="Path 12" d="M458.087,198.009V189.1H439.935v6.765H436.6V205.3h3.335v6.765h18.152v-8.909h-3.335v-5.241h3.335ZM438.744,203.2v-5.241h13.911V203.2Zm17.2,2.144v4.669H442.031v-4.669Zm-13.864-9.433v-4.669H455.99v4.669Z" transform="translate(-394.77 -189.1)"/>
    </g>
  </g>
</svg>
