<svg xmlns="http://www.w3.org/2000/svg" width="30.995" height="38.667" viewBox="0 0 30.995 38.667">
  <g id="Group_285" data-name="Group 285" transform="translate(-658.822 -306.824)">
    <path id="Path_742" data-name="Path 742" d="M675.392,310.148c0-.223.014-.271,0-.3-.383-.659-1.581-1.233-.522-2.1.99-.811,1.51.329,2.055.865,2.783,2.74,2.815,2.248.038,4.97-.584.572-1.138,1.763-2.162.947-1.114-.888.323-1.475.639-2.406-1.239,0-2.387.014-3.533,0-.744-.013-1.718.139-1.735-.956-.018-1.073.9-1.02,1.683-1.017C673.011,310.154,674.174,310.148,675.392,310.148Z" transform="translate(6.768 0.383)" fill="#fff"/>
    <path id="Path_743" data-name="Path 743" d="M662.267,310.076c1.429,0,2.593,0,3.755,0,.758,0,1.689-.121,1.67,1.011s-.993.937-1.718.955c-1.148.029-2.3.008-3.458.008.021.247,0,.354.04.407.489.6,1.391,1.217.482,2.01-.8.7-1.37-.145-1.889-.672-3.185-3.223-3.022-2.315,0-5.439.219-.225.415-.544.682-.631.372-.12,1.019-.227,1.158-.042a1.655,1.655,0,0,1,.171,1.277C663.066,309.324,662.665,309.605,662.267,310.076Z" transform="translate(0 0.455)" fill="#fff"/>
    <path id="Path_744" data-name="Path 744" d="M688.756,325.012a3.2,3.2,0,0,0-3.184-3.308,9.861,9.861,0,0,0-1.847.311c-1.039-1.423-2.345-2.167-4.167-1.552-.193.064-.552.089-.626-.014a3.889,3.889,0,0,0-4.347-1.464v-1.707c0-2.2.03-4.4-.019-6.6a5.461,5.461,0,0,0-.407-2.08,3.27,3.27,0,0,0-6.167,1.534c-.029,4.761-.01,9.52-.01,14.281l-.267.064q-.393-.762-.782-1.525a3.366,3.366,0,0,0-4.6-1.748,3.324,3.324,0,0,0-1.368,4.593q3.166,6.758,6.351,13.508a11.348,11.348,0,0,0,21.438-4.584C688.8,331.482,688.777,328.248,688.756,325.012Zm-1.673.635c-.051,3.278.11,6.578-.225,9.827a9.446,9.446,0,0,1-7.885,7.96,9.269,9.269,0,0,1-10.154-5.382q-2.888-6.152-5.781-12.3c-.134-.283-.417-.589-.375-.845.1-.64.161-1.51.584-1.828.688-.519,1.475-.142,1.873.672.869,1.772,1.652,3.587,2.588,5.323.286.53.956.853,1.451,1.271a5.454,5.454,0,0,0,.675-1.719q.026-1.114.035-2.226c.017-2.224,0-4.451,0-6.677,0-3.013.016-6.024-.008-9.036-.008-1.012.2-1.873,1.379-1.893s1.421.824,1.416,1.846c-.021,3.461-.008,6.924-.006,10.385a2.581,2.581,0,0,0,.043,1.065c.2.394.565.931.9.963a1.325,1.325,0,0,0,1-.806c.238-.963.643-1.648,1.708-1.462s1.217,1.051,1.161,1.973c-.013.225-.086.508.019.664a11.685,11.685,0,0,0,.932,1.1c.334-.3.851-.533.964-.9.268-.87.659-1.569,1.636-1.435,1.02.141,1.331.944,1.285,1.906a1.685,1.685,0,0,0,.021.8c.208.382.5.932.821.976a1.281,1.281,0,0,0,1-.739c.275-.932.663-1.624,1.742-1.45C686.992,323.864,687.1,324.751,687.083,325.647Z" transform="translate(1.038)" fill="#fff"/>
  </g>
</svg>
