<?xml version="1.0" encoding="UTF-8"?>
<svg width="28px" height="28px" viewBox="0 0 28 28" version="1.1" xmlns="http://www.w3.org/2000/svg" xmlns:xlink="http://www.w3.org/1999/xlink">
    <title>icon-search</title>
    <g id="Page-1" stroke="none" stroke-width="1" fill="none" fill-rule="evenodd">
        <g id="icon-search" fill="#FFFFFF" fill-rule="nonzero">
            <path d="M16.74,19.398 C14.2099245,21.1530674 11.0433569,21.7253914 8.059,20.967 C5.63335746,20.3991663 3.49820122,18.9658915 2.054,16.936 C-0.953522624,12.8250659 -0.627389864,7.15966197 2.832,3.421 C6.37694221,-0.412816079 12.1785729,-1.11112915 16.532,1.772 C18.949415,3.319362 20.6077224,5.80899929 21.104,8.636 C21.6622537,11.4558012 21.0457318,14.3813005 19.397,16.736 C20.1732381,16.9890407 20.8492837,17.4816333 21.328,18.143 C23.062,19.861 24.783,21.592 26.509,23.319 C27.2965872,24.0338584 27.4725484,25.2041463 26.93,26.119 C26.6134661,26.6677722 26.0773768,27.054999 25.4569301,27.1830247 C24.8364834,27.3110503 24.1909031,27.1676543 23.683,26.789 C23.008,26.22 22.4,25.57 21.772,24.946 C20.326,23.508 18.889,22.061 17.443,20.623 C17.0981316,20.2889009 16.854473,19.8643179 16.74,19.398 L16.74,19.398 Z M2.7029666,10.647 C2.69688617,12.7553727 3.53042624,14.7794295 5.01949358,16.2720619 C6.50856091,17.7646943 8.53061867,18.6030721 10.639,18.602 C12.7534811,18.618868 14.7866429,17.7882032 16.2843889,16.2955305 C17.7821349,14.8028578 18.6196934,12.7725261 18.6100832,10.658 C18.6171818,8.54921066 17.7840173,6.52443089 16.2947471,5.03140758 C14.805477,3.53838426 12.7828007,2.70012605 10.674,2.70197222 C8.56285091,2.6964224 6.5361997,3.53089178 5.04104352,5.02135801 C3.54588734,6.51182424 2.70505498,8.53584381 2.704,10.647 L2.7029666,10.647 Z" id="Path_13"></path>
        </g>
    </g>
</svg>