<?xml version="1.0" encoding="UTF-8"?>
<svg width="35px" height="28px" viewBox="0 0 35 28" version="1.1" xmlns="http://www.w3.org/2000/svg" xmlns:xlink="http://www.w3.org/1999/xlink">
    <title>icon-cart</title>
    <g id="Page-1" stroke="none" stroke-width="1" fill="none" fill-rule="evenodd">
        <g id="icon-cart" fill="#FFFFFF" fill-rule="nonzero">
            <path d="M4.838,2.429 L0,2.429 L0,0 L6.8,0 C7.162,1.464 7.541,2.932 7.881,4.409 C7.972,4.803 8.124,4.927 8.537,4.927 C17.0596667,4.91366667 25.5823333,4.91033333 34.105,4.917 L34.754,4.917 C34.454,5.726 34.163,6.488 33.875,7.249 C32.744,10.238 31.603,13.222 30.491,16.218 C30.41184,16.5581152 30.0811113,16.7774313 29.737,16.718 C23.6903333,16.704 17.6433333,16.7006667 11.596,16.708 L10.965,16.708 C11.137,17.402 11.284,18.044 11.465,18.676 C11.491,18.766 11.7,18.852 11.826,18.855 C12.683,18.871 13.54,18.864 14.397,18.864 L28.806,18.864 L28.806,21.315 L28.193,21.315 C22.193,21.315 16.193,21.306 10.193,21.329 C9.669,21.329 9.499,21.162 9.381,20.683 C7.897,14.649 6.40066667,8.61833333 4.892,2.591 C4.893,2.558 4.878,2.529 4.838,2.429 Z M18.754,7.417 L14.973,7.417 C15.008,7.848 15.03,8.253 15.073,8.655 C15.179,9.577 15.184,9.577 16.139,9.577 L18.608,9.577 L18.754,7.417 Z M12.664,9.575 L12.475,7.423 L8.691,7.423 C8.856,8.09 9.002,8.718 9.176,9.337 C9.22504135,9.45347334 9.32825153,9.53835998 9.452,9.564 C10.494,9.582 11.535,9.576 12.665,9.576 L12.664,9.575 Z M21.238,7.415 L21.095,9.556 L24.507,9.556 L24.991,7.415 L21.238,7.415 Z M27.523,7.415 L27.049,9.578 C28.132,9.578 29.142,9.578 30.149,9.571 C30.2525763,9.56146296 30.3455941,9.50365109 30.4,9.415 C30.662,8.763 30.9,8.103 31.165,7.415 L27.523,7.415 Z M15.568,14.238 C16.433,14.238 17.237,14.244 18.04,14.23 C18.134,14.23 18.3,14.122 18.306,14.052 C18.365,13.4 18.397,12.745 18.437,12.081 L15.372,12.081 L15.568,14.238 Z M9.84,12.077 L10.367,14.2 L13.084,14.2 L12.884,12.077 L9.84,12.077 Z M20.92,12.064 L20.787,14.236 C21.654,14.236 22.442,14.242 23.23,14.228 C23.3423007,14.2126049 23.4396778,14.1425684 23.49,14.041 C23.654,13.395 23.79,12.741 23.947,12.064 L20.92,12.064 Z M26.479,12.064 L26.008,14.238 C26.855,14.238 27.608,14.238 28.367,14.232 C28.4695096,14.2285044 28.5646886,14.1779636 28.625,14.095 C28.893,13.435 29.142,12.767 29.41,12.064 L26.479,12.064 Z" id="Path_7"></path>
            <path d="M16.936,25.232 C16.9421326,25.8480249 16.7020498,26.4410006 16.2690694,26.8792383 C15.8360891,27.317476 15.246054,27.5646976 14.63,27.566 C14.0052738,27.5783135 13.4016132,27.3400444 12.9537155,26.9043586 C12.5058178,26.4686729 12.2509565,25.8718278 12.246,25.247 C12.2411898,24.6225958 12.4863519,24.0222121 12.9268511,23.5796466 C13.3673503,23.1370811 13.9665801,22.8891119 14.591,22.891 C15.2159341,22.8786691 15.8189719,23.1212154 16.2613302,23.5628191 C16.7036885,24.0044229 16.9472639,24.6070457 16.936,25.232 Z" id="Path_9"></path>
            <path d="M24.293,22.892 C25.5829358,22.8947616 26.6269146,23.9417246 26.6259947,25.2316631 C26.6250735,26.5216016 25.5796016,27.5670735 24.2896631,27.5679947 C22.9997246,27.5689146 21.9527616,26.5249358 21.95,25.235 C21.9435145,24.6116322 22.1882824,24.0119053 22.6290939,23.5710939 C23.0699053,23.1302824 23.6696322,22.8855145 24.293,22.892 Z" id="Path_10"></path>
        </g>
    </g>
</svg>