<?xml version="1.0" encoding="UTF-8"?>
<svg width="35px" height="36px" viewBox="0 0 35 36" version="1.1" xmlns="http://www.w3.org/2000/svg" xmlns:xlink="http://www.w3.org/1999/xlink">
    <title>icon-cart-plus</title>
    <g id="Page-1" stroke="none" stroke-width="1" fill="none" fill-rule="evenodd">
        <g id="icon-cart-plus" fill-rule="nonzero">
            <path d="M4.838,10.719 L0,10.719 L0,8.29 L6.8,8.29 C7.162,9.754 7.541,11.222 7.881,12.699 C7.972,13.093 8.124,13.217 8.537,13.217 C17.0596667,13.2036667 25.5823333,13.2003333 34.105,13.207 L34.754,13.207 C34.454,14.016 34.163,14.778 33.875,15.539 C32.744,18.528 31.603,21.512 30.491,24.508 C30.41184,24.8481152 30.0811113,25.0674313 29.737,25.008 C23.6903333,24.994 17.6433333,24.9906667 11.596,24.998 L10.965,24.998 C11.137,25.692 11.284,26.334 11.465,26.966 C11.491,27.056 11.7,27.142 11.826,27.145 C12.683,27.161 13.54,27.154 14.397,27.154 L28.806,27.154 L28.806,29.605 L28.193,29.605 C22.193,29.605 16.193,29.596 10.193,29.619 C9.669,29.619 9.499,29.452 9.381,28.973 C7.897,22.939 6.40066667,16.9083333 4.892,10.881 C4.893,10.848 4.878,10.819 4.838,10.719 Z M18.754,15.707 L14.973,15.707 C15.008,16.138 15.03,16.543 15.073,16.945 C15.179,17.867 15.184,17.867 16.139,17.867 L18.608,17.867 L18.754,15.707 Z M12.664,17.865 L12.475,15.713 L8.691,15.713 C8.856,16.38 9.002,17.008 9.176,17.627 C9.22504135,17.7434733 9.32825153,17.82836 9.452,17.854 C10.494,17.872 11.535,17.866 12.665,17.866 L12.664,17.865 Z M21.238,15.705 L21.095,17.846 L24.507,17.846 L24.991,15.705 L21.238,15.705 Z M27.523,15.705 L27.049,17.868 C28.132,17.868 29.142,17.868 30.149,17.861 C30.2525763,17.851463 30.3455941,17.7936511 30.4,17.705 C30.662,17.053 30.9,16.393 31.165,15.705 L27.523,15.705 Z M15.568,22.528 C16.433,22.528 17.237,22.534 18.04,22.52 C18.134,22.52 18.3,22.412 18.306,22.342 C18.365,21.69 18.397,21.035 18.437,20.371 L15.372,20.371 L15.568,22.528 Z M9.84,20.367 L10.367,22.49 L13.084,22.49 L12.884,20.367 L9.84,20.367 Z M20.92,20.354 L20.787,22.526 C21.654,22.526 22.442,22.532 23.23,22.518 C23.3423007,22.5026049 23.4396778,22.4325684 23.49,22.331 C23.654,21.685 23.79,21.031 23.947,20.354 L20.92,20.354 Z M26.479,20.354 L26.008,22.528 C26.855,22.528 27.608,22.528 28.367,22.522 C28.4695096,22.5185044 28.5646886,22.4679636 28.625,22.385 C28.893,21.725 29.142,21.057 29.41,20.354 L26.479,20.354 Z" id="Path_7" fill="#000000"></path>
            <path d="M18.574,6.557 C17.813,6.557 17.134,6.557 16.455,6.557 C16.0546738,6.58954487 15.659082,6.45247117 15.3647172,6.17921388 C15.0703523,5.9059566 14.9042769,5.52163763 14.9069544,5.12 C14.9037879,4.71799724 15.0702934,4.3332879 15.3655717,4.06047432 C15.66085,3.78766075 16.0575062,3.65205379 16.458,3.687 C17.137,3.68 17.816,3.687 18.574,3.687 C18.574,2.959 18.566,2.268 18.574,1.578 C18.5291623,0.9224028 18.922266,0.315841838 19.539,0.089 C19.9900813,-0.0673923299 20.4892188,0.00795346129 20.8740374,0.290526519 C21.2588559,0.573099577 21.4801761,1.02678736 21.466,1.504 C21.49,2.212 21.466,2.922 21.466,3.691 C22.257,3.691 22.998,3.674 23.738,3.691 C24.106904,3.69284558 24.4598741,3.84157891 24.7188484,4.10430654 C24.9778228,4.36703417 25.1214623,4.72210768 25.118,5.091 C25.1311993,5.46776471 24.9926475,5.83406649 24.7334071,6.10778221 C24.4741667,6.38149794 24.1159257,6.53972873 23.739,6.547 C23.339,6.565 22.946,6.552 22.549,6.553 L21.466,6.553 C21.466,6.953 21.466,7.32 21.466,7.691 C21.466,8.062 21.482,8.453 21.456,8.832 C21.4166202,9.61276864 20.778658,10.2293051 19.997,10.242 C19.230813,10.2236681 18.6104068,9.61376244 18.579,8.848 C18.545,8.295 18.569,7.739 18.568,7.184 C18.573,7.001 18.574,6.813 18.574,6.557 Z" id="Path_8" fill="#FFFFFF"></path>
            <path d="M16.936,33.522 C16.9421326,34.1380249 16.7020498,34.7310006 16.2690694,35.1692383 C15.8360891,35.607476 15.246054,35.8546976 14.63,35.856 C14.0052738,35.8683135 13.4016132,35.6300444 12.9537155,35.1943586 C12.5058178,34.7586729 12.2509565,34.1618278 12.246,33.537 C12.2411898,32.9125958 12.4863519,32.3122121 12.9268511,31.8696466 C13.3673503,31.4270811 13.9665801,31.1791119 14.591,31.181 C15.2159341,31.1686691 15.8189719,31.4112154 16.2613302,31.8528191 C16.7036885,32.2944229 16.9472639,32.8970457 16.936,33.522 Z" id="Path_9" fill="#000000"></path>
            <path d="M24.293,31.182 C25.5829358,31.1847616 26.6269146,32.2317246 26.6259947,33.5216631 C26.6250735,34.8116016 25.5796016,35.8570735 24.2896631,35.8579947 C22.9997246,35.8589146 21.9527616,34.8149358 21.95,33.525 C21.9435145,32.9016322 22.1882824,32.3019053 22.6290939,31.8610939 C23.0699053,31.4202824 23.6696322,31.1755145 24.293,31.182 Z" id="Path_10" fill="#000000"></path>
        </g>
    </g>
</svg>