<?xml version="1.0" encoding="UTF-8"?>
<svg width="27px" height="19px" viewBox="0 0 27 19" version="1.1" xmlns="http://www.w3.org/2000/svg" xmlns:xlink="http://www.w3.org/1999/xlink">
    <title>Subscribe_icon</title>
    <g id="Page-1" stroke="none" stroke-width="1" fill="none" fill-rule="evenodd">
        <g id="Button-–-sign-up" fill="#FFFFFF" fill-rule="nonzero">
            <g id="Subscribe_icon" transform="translate(0.095000, 0.803000)">
                <path d="M20.719,5.937 L20.719,0.737 L0.905,0.737 L0.905,15.369 L15.377,15.369 C17.0086853,17.4796261 19.8569984,18.2269881 22.314742,17.1893771 C24.7724855,16.1517662 26.2234659,13.5893273 25.8489487,10.9479495 C25.4744316,8.30657173 23.368314,6.24848857 20.719,5.935 L20.719,5.937 Z M19.311,2.128 L11.249,8.544 C10.985108,8.72282482 10.638892,8.72282482 10.375,8.544 L2.313,2.128 L19.311,2.128 Z M2.294,13.982 L2.294,3.888 L9.51,9.631 C10.2799616,10.2100029 11.3400384,10.2100029 12.11,9.631 L19.326,3.888 L19.326,5.936 C17.5056136,6.15116228 15.8899225,7.20352686 14.957227,8.7815574 C14.0245315,10.359588 13.8816942,12.2824833 14.571,13.981 L2.294,13.982 Z M20.024,16.266 C17.5436892,16.266 15.533,14.2553108 15.533,11.775 C15.533,9.29468919 17.5436892,7.284 20.024,7.284 C22.5043108,7.284 24.515,9.29468919 24.515,11.775 C24.5100504,14.2528675 22.5028664,16.2604986 20.025,16.266 L20.024,16.266 Z" id="Path_43"></path>
                <circle id="Ellipse_45" cx="18.158" cy="13.642" r="1"></circle>
                <path d="M18.358,10.859 L18.358,10.859 C17.9714007,10.859 17.658,11.1724007 17.658,11.559 C17.658,11.9455993 17.9714007,12.259 18.358,12.259 C19.0132029,12.261195 19.543805,12.7917971 19.546,13.447 C19.546,13.8335993 19.8594007,14.147 20.246,14.147 C20.6325993,14.147 20.946,13.8335993 20.946,13.447 C20.9448971,12.0181442 19.7868558,10.8601029 18.358,10.859 Z" id="Path_44"></path>
                <path d="M18.645,8.765 L18.645,8.765 C18.2584007,8.765 17.945,9.07840068 17.945,9.465 C17.945,9.85159932 18.2584007,10.165 18.645,10.165 C20.2963914,10.1688488 21.6341512,11.5066086 21.638,13.158 C21.638,13.5445993 21.9514007,13.858 22.338,13.858 C22.7245993,13.858 23.038,13.5445993 23.038,13.158 C23.0341458,10.7334114 21.0695886,8.76885424 18.645,8.765 L18.645,8.765 Z" id="Path_45"></path>
            </g>
        </g>
    </g>
</svg>