<svg xmlns="http://www.w3.org/2000/svg" width="366.525" height="95.645" viewBox="0 0 366.525 95.645">
  <path id="Path_70" data-name="Path 70" d="M282.77,75.651a.132.132,0,0,1,.04-.072c-.022.108-.036.135-.04.072m1.665,2.41a28.086,28.086,0,0,0,2.892.352,41.124,41.124,0,0,0,5.816-.059c.514-.072,1.015-.113,1.579-.239a6.277,6.277,0,0,0,.9-.23l.216-.063.018.023,0,.032a16.033,16.033,0,0,1,1.967.226,36.25,36.25,0,0,1,9.354,3.2,17.775,17.775,0,0,1,6.971,5.613,12.624,12.624,0,0,1,2.2,7.1c-.32-.153-.632-.3-.948-.456-2.252-1.006-4.395-1.755-6.538-2.491-4.3-1.426-8.582-2.667-12.878-3.849-4.778-1.3-9.552-2.536-14.34-3.732a22.408,22.408,0,0,1,.483-6.069,4.012,4.012,0,0,0,.8.3,12.374,12.374,0,0,0,1.507.343m29.686,19.867a2.466,2.466,0,0,1,.442-.555ZM437.24,69.83c-5.085,1.516-10.062,3.4-15.057,5.2l-7.373,3.032c-2.464,1-4.86,2.206-7.287,3.3-4.832,2.419-9.516,4.548-14.177,8.393a10.722,10.722,0,0,0-.862.767l-.857,1.065c-.086.144-.153.28-.235.424q-.433-2.274-.772-4.575c-.122-.74-.208-1.421-.375-2.216l-.532-2.455a16.732,16.732,0,0,0-.7-2.41c-.28-.8-.519-1.62-.848-2.387a38.894,38.894,0,0,0-5.121-8.686,64.845,64.845,0,0,0-14.493-12.733c-5.175-3.492-10.405-6.538-15.283-9.737l-.921-.6-1.1-.677-2.2-1.313a46.421,46.421,0,0,0-4.674-2.089,40.488,40.488,0,0,0-9.819-2.441,49.834,49.834,0,0,0-19.7,1.457,39.325,39.325,0,0,0-4.778,1.665c-.785.311-1.624.758-2.41,1.146-.74.42-1.475.839-2.2,1.3a30.779,30.779,0,0,0-4.083,3.195,22.922,22.922,0,0,0-1.868,1.931c-.284.329-.564.672-.835,1.042a43.4,43.4,0,0,0-9.9,2.915,22.2,22.2,0,0,0-9.877,7.793,16.576,16.576,0,0,0-2.4,5.879,17.416,17.416,0,0,0-.262,6.11,14.2,14.2,0,0,0,4.806,9.209c-12.025-3-24.091-5.7-36.219-8.212-.569-.248-1.069-.447-1.584-.654-.677-.284-1.331-.505-1.99-.74-1.3-.474-2.617-.925-3.93-1.3-2.613-.848-5.234-1.512-7.847-2.188-2.631-.7-5.261-1.191-7.9-1.791-2.635-.564-5.288-.911-7.932-1.376A300.13,300.13,0,0,0,181.8,63.951q-3.993-.2-7.973-.338H165.85l-7.96.014-7.951.275c-10.608.208-21.167,1.169-31.689,2.2L102.5,67.908c-5.252.627-10.446,1.579-15.657,2.369l-7.829,1.241c-2.594.424-5.157.97-7.752,1.448-5.157.957,27.078,4.44,47.843,3,5.18-.474,10.387-.555,15.567-.853,2.6-.117,5.184-.338,7.783-.411l7.788-.181,7.77-.194,7.774.077,7.77.09,7.738.329a287.426,287.426,0,0,1,30.778,2.671c5.076.745,10.116,1.611,15.084,2.649,2.482.56,4.968,1.1,7.359,1.8,1.232.3,2.405.668,3.578,1.051.6.189,1.187.361,1.733.568l1.53.573.8.293.275.05c8.6,1.6,17.237,3.353,25.832,5.081s17.187,3.56,25.67,5.586c4.232,1.024,8.469,2.1,12.562,3.321,1.99.6,3.971,1.241,5.739,1.954a34.452,34.452,0,0,0-5.388,10.956,31.9,31.9,0,0,0-.948,4.81,15.275,15.275,0,0,0-.09,8.059c.032-.23.1-.429.145-.641.063.465.1.961.19,1.421a37.4,37.4,0,0,1,2.883-8.921c.329-.514.659-1.033,1.02-1.525a59.649,59.649,0,0,1,6.876-7.96c.623-.627,1.259-1.241,1.9-1.855.162-.153.3-.275.492-.474l.65-.713a15,15,0,0,0,1.065-1.516,17.054,17.054,0,0,0,2.148-6.425,18.515,18.515,0,0,0-3.059-12.8,20.766,20.766,0,0,0-4.648-4.751,29.429,29.429,0,0,0-5.437-3.028,33.747,33.747,0,0,0-11.727-2.626,13.581,13.581,0,0,0-3.5.3l-.654.2-.32.122-.1.045a1.863,1.863,0,0,1-.4.194c-.316.126-.713.271-1.1.4a38.422,38.422,0,0,1-5.081,1.169,25.285,25.285,0,0,1-2.585.393,10.991,10.991,0,0,1-1.227.077,1.939,1.939,0,0,1-.375-.009,9.972,9.972,0,0,1,.65-1,18.862,18.862,0,0,1,2.414-2.446,6.244,6.244,0,0,0-3.5,1.345,6.357,6.357,0,0,0-2.211,3.249,8.109,8.109,0,0,0-.176,3.84,8.274,8.274,0,0,0,.88,2.464,13.908,13.908,0,0,1-2.292-8.727,15.38,15.38,0,0,1,3.714-9.214,17.973,17.973,0,0,1,8.424-4.882,51.178,51.178,0,0,1,10.355-1.71l1.218-.086,1.466-1.674c6.1-6.994,18.915-9.092,29.347-7.549a34.9,34.9,0,0,1,7.7,2.035,38.455,38.455,0,0,1,3.587,1.633l1.688,1.006.853.5.979.632c5.252,3.416,10.567,6.308,15.517,9.417A81.524,81.524,0,0,1,370.722,69a45.007,45.007,0,0,1,6.182,5.5,31.822,31.822,0,0,1,4.711,6.5c.32.578.559,1.209.848,1.809a12.359,12.359,0,0,1,.735,1.877l.627,1.936.636,2.2a118.07,118.07,0,0,0,6.385,17.358c.284.614.6,1.214.893,1.832,3.362,9.823,8.533,18.563,14.164,26.929-2.4-4.666-4.5-9.485-6.443-14.3a1.773,1.773,0,0,0-.072-.2,17.291,17.291,0,0,0,1.209,1.295,60.874,60.874,0,0,1-5.049-12.788c-.257-1.011-.514-2.021-.722-3.041a26.547,26.547,0,0,1-.645-7.251,8.536,8.536,0,0,1,.695-3.082,5.479,5.479,0,0,1,.672-1.146,5.4,5.4,0,0,0,.429-.424,4.643,4.643,0,0,1,.668-.456,47.672,47.672,0,0,1,6.322-3.5c2.36-1,4.625-2.13,7.048-3.014,19.213-7.463,6.917-5.943,27.227-9.615" transform="translate(-70.715 -39.292)" fill="#fff"/>
</svg>
