<svg xmlns="http://www.w3.org/2000/svg" width="83.862" height="71.414" viewBox="0 0 83.862 71.414">
  <g id="Group_1" data-name="Group 1" transform="translate(-295.297 590.275)">
    <path id="Path_1" data-name="Path 1" d="M107.721,72.977a5.6,5.6,0,0,0,4.229.693,6.168,6.168,0,0,0,4.011-2.726s2.345-3.935,2.4-4.053c4.108-6.945,12.725-20.771,12.764-20.838.736-1.286,1.007-1.777,1.6-2.671.953-1.426,1.839-1.947,2.7-1.946.7,0,2.135-.015,3.132,0a2.853,2.853,0,0,1,2.29,1.443c2.3,3.3,4.447,6.709,6.605,10.1.987,1.48,1.891,3.013,2.893,4.483a9.352,9.352,0,0,1,2,4.3,5.716,5.716,0,0,1-.279,2.336,8.673,8.673,0,0,1-1.045,1.9c-.417.62-.79,1.272-1.175,1.913-.925,1.539-1.831,3.089-2.739,4.639-2.216,3.782-4.965,8.476-9.052,15.045-.089.143-.184.285-.279.425a1.994,1.994,0,0,1-1.6.815h-1.3c-3.371,0-5.323,2.75-5.256,6.12a6.006,6.006,0,0,0,6,5.883s3.985,0,5.016-.016a3.776,3.776,0,0,0,2.175-.7,9.6,9.6,0,0,0,1.756-1.641,5.514,5.514,0,0,0,.345-.445l1.311-1.877q.127-.181.244-.368L163.46,68.536a10.945,10.945,0,0,0,1.732-8.225,11.729,11.729,0,0,0-1.072-3.227,5.726,5.726,0,0,0-.3-.514L148.856,33.635a8.174,8.174,0,0,0-7.144-4.2h-9.781q-.392.007-.753.034A8.159,8.159,0,0,0,125.3,32.8c-.142.206-.282.419-.423.64-.038.064-.076.128-.113.193v-.014l-.009.014-17.4,29.318-1.331,2.252A5.818,5.818,0,0,0,105.2,68.2,5.708,5.708,0,0,0,107.721,72.977Z" transform="translate(213.773 -619.708)" fill="#ac8d6c"/>
    <path id="Path_2" data-name="Path 2" d="M124.047,57.3a5.6,5.6,0,0,0-4.228-.693,6.169,6.169,0,0,0-4.012,2.726s-2.345,3.935-2.4,4.053c-4.108,6.945-12.725,20.771-12.764,20.838C99.9,85.513,99.632,86,99.034,86.9c-.953,1.426-1.839,1.946-2.7,1.946-.7,0-2.135.015-3.132,0a2.852,2.852,0,0,1-2.29-1.444c-2.3-3.3-4.448-6.708-6.606-10.1-.986-1.48-1.89-3.013-2.893-4.483a9.349,9.349,0,0,1-2-4.3,5.715,5.715,0,0,1,.278-2.336,8.7,8.7,0,0,1,1.045-1.9c.417-.62.79-1.272,1.175-1.913.925-1.539,1.832-3.09,2.739-4.639,2.215-3.782,4.965-8.477,9.051-15.045.09-.144.184-.285.28-.425a1.992,1.992,0,0,1,1.6-.815h1.3c3.37,0,5.323-2.75,5.255-6.12a6.006,6.006,0,0,0-6-5.883s-3.985,0-5.016.016a3.777,3.777,0,0,0-2.176.7,9.589,9.589,0,0,0-1.755,1.641,5.52,5.52,0,0,0-.345.445L85.528,34.11q-.127.181-.245.368L68.307,61.744a10.946,10.946,0,0,0-1.732,8.224A11.724,11.724,0,0,0,67.647,73.2a5.885,5.885,0,0,0,.3.514L82.912,96.644a8.173,8.173,0,0,0,7.143,4.2h9.781q.392-.007.753-.034a8.161,8.161,0,0,0,5.88-3.335q.213-.308.422-.64c.038-.064.076-.128.113-.193v.013l.009-.013,17.4-29.318,1.331-2.252a5.823,5.823,0,0,0,.823-2.989A5.708,5.708,0,0,0,124.047,57.3Z" transform="translate(228.916 -619.708)" fill="#ac8d6c"/>
  </g>
</svg>
