<?xml version="1.0" encoding="UTF-8"?>
<svg width="1925px" height="1640px" viewBox="0 0 1925 1640" version="1.1" xmlns="http://www.w3.org/2000/svg" xmlns:xlink="http://www.w3.org/1999/xlink">
    <title>Group_14</title>
    <g id="Page-1" stroke="none" stroke-width="1" fill="none" fill-rule="evenodd" opacity="0.4">
        <g id="logo-border-shape" transform="translate(1.000000, 1.000000)" stroke="#AC8D6C" stroke-width="2">
            <g id="Group_14">
                <path d="M600.856,999.004 C627.213,1016.51 662.547,1022.304 697.798,1014.888 C736.898,1006.652 771.277,983.301 789.762,952.388 C789.762,952.388 843.525,862.188 844.896,859.473 C939.069,700.264 1136.63,383.292 1137.511,381.739 C1154.374,352.249 1160.596,341.007 1174.299,320.509 C1196.14,287.818 1216.457,275.876 1236.284,275.89 C1252.35,275.89 1285.223,275.54 1308.084,275.89 C1331.519,276.24 1347.837,290.684 1360.589,308.973 C1413.317,384.673 1462.537,462.782 1512.021,540.61 C1534.645,574.532 1555.367,609.684 1578.355,643.383 C1598.714,673.236 1621.002,704.935 1624.12,742.059 C1625.462,760.111 1623.812,778.47 1617.73,795.613 C1612.165,811.313 1603.006,825.466 1593.764,839.213 C1584.214,853.419 1575.643,868.381 1566.82,883.063 C1545.62,918.341 1524.844,953.885 1504.038,989.415 C1453.238,1076.122 1390.205,1183.732 1296.521,1334.326 C1294.48,1337.612 1292.298,1340.87 1290.121,1344.072 C1282.235,1355.636 1267.399,1362.753 1253.421,1362.753 L1223.701,1362.753 C1146.419,1362.753 1101.674,1425.801 1103.212,1503.053 C1104.74846,1577.98236 1165.92689,1637.93 1240.872,1637.93 C1240.872,1637.93 1332.221,1637.888 1355.865,1637.567 C1372.491,1637.329 1392.038,1632.184 1405.727,1621.529 C1427.749,1604.372 1433.399,1598.485 1445.983,1583.915 C1448.7928,1580.65393 1451.43424,1577.2515 1453.897,1573.721 L1483.946,1530.697 C1485.88933,1527.92833 1487.75367,1525.113 1489.539,1522.251 L1878.719,897.184 C1917.213,840.554 1930.832,772.431 1918.43,708.628 C1913.87808,682.904799 1905.60178,657.982252 1893.862,634.646 C1891.75629,630.599202 1889.44115,626.664868 1886.926,622.859 L1543.917,97.069 C1510.86271,37.6035758 1448.17372,0.725 1380.139,0.725 L1155.913,0.725 C1149.92833,0.851 1144.172,1.112 1138.644,1.522 C1084.7772,6.32486396 1035.62572,34.2073623 1003.865,77.979 C1000.607,82.691 997.391,87.585 994.175,92.647 C993.308,94.115 992.441,95.583 991.588,97.08 L991.588,96.758 L991.388,97.08 L592.493,769.199 C590.773,772.107 561.983,820.837 561.983,820.837 C549.603477,841.550777 543.074971,865.234841 543.092963,889.366 C543.092963,933.984 564.683,974.968 600.856,999.004 Z" id="Path_1"></path>
                <path d="M1322.306,639.649 C1295.963,622.143 1260.629,616.349 1225.378,623.765 C1186.278,631.987 1151.899,655.352 1133.4,686.265 C1133.4,686.265 1079.651,776.465 1078.28,779.18 C984.093,938.386 786.546,1255.36 785.651,1256.912 C768.802,1286.387 762.58,1297.643 748.877,1318.142 C727.036,1350.834 706.719,1362.761 686.892,1362.761 C670.812,1362.761 637.939,1363.11 615.092,1362.761 C591.643,1362.412 575.339,1347.967 562.587,1329.661 C509.845,1253.973 460.625,1175.861 411.141,1098.038 C388.531,1064.102 367.809,1028.963 344.821,995.265 C324.462,965.412 302.16,933.699 299.056,896.589 C297.714,878.538 299.35,860.178 305.432,843.036 C311.011,827.336 320.156,813.183 329.398,799.436 C338.962,785.23 347.519,770.268 356.343,755.586 C377.555,720.308 398.333,684.75 419.143,649.234 C469.928,562.527 532.976,454.903 626.643,304.323 C628.698,301.023 630.866,297.779 633.061,294.577 C640.933,283.013 655.769,275.896 669.761,275.896 L699.476,275.896 C776.744,275.896 821.503,212.848 819.951,135.596 C818.420424,60.670553 757.246079,0.725 682.305,0.725 C682.305,0.725 590.956,0.767 567.311,1.089 C550.672,1.327 531.124,6.472 517.435,17.127 C495.426,34.284 489.763,40.17 477.193,54.74 C474.383342,58.0008435 471.741907,61.4029337 469.279,64.933 L439.23,107.958 C437.286667,110.726667 435.417667,113.542 433.623,116.404 L44.444,741.471 C5.964,798.101 -7.656,866.224 4.744,930.013 C9.28855524,955.741957 17.5602254,980.670831 29.298,1004.013 C31.4134755,1008.05701 33.7327909,1011.99107 36.247,1015.8 L379.256,1541.577 C412.303999,1601.04361 474.988306,1637.931 543.021,1637.931 L767.261,1637.903 C773.245667,1637.791 778.997333,1637.53467 784.516,1637.134 C838.388652,1632.32921 887.546251,1604.4465 919.316,1560.674 C922.574,1555.962 925.799333,1551.073 928.992,1546.007 C929.873,1544.538 930.74,1543.071 931.579,1541.574 L931.579,1541.881 L931.789,1541.574 L1330.673,869.455 C1332.393,866.547 1361.197,817.817 1361.197,817.817 C1373.56396,797.100207 1380.08575,773.419305 1380.06903,749.292 C1380.06903,704.669 1358.48,663.685 1322.306,639.649 Z" id="Path_2"></path>
            </g>
        </g>
    </g>
</svg>