<svg xmlns="http://www.w3.org/2000/svg" width="261.07" height="73.684" viewBox="0 0 261.07 73.684">
  <g id="PRIMARY-LOGO-RGB" transform="translate(-26.117 -20.34)">
    <g id="Group_2" data-name="Group 2" transform="translate(26.117 20.34)">
      <path id="Path_3" data-name="Path 3" d="M63.153,65.274a5.773,5.773,0,0,0,4.362.716,6.361,6.361,0,0,0,4.142-2.816s2.419-4.057,2.482-4.185c4.241-7.163,13.128-21.426,13.171-21.5.759-1.326,1.036-1.83,1.653-2.752.986-1.468,1.9-2.007,2.787-2.007.723,0,2.206-.014,3.234,0a2.938,2.938,0,0,1,2.362,1.489c2.376,3.4,4.589,6.922,6.816,10.426,1.021,1.525,1.95,3.107,2.986,4.624a9.6,9.6,0,0,1,2.057,4.44,5.8,5.8,0,0,1-.291,2.411,8.838,8.838,0,0,1-1.078,1.965c-.433.638-.816,1.312-1.213,1.972-.957,1.589-1.887,3.185-2.823,4.787-2.284,3.9-5.121,8.745-9.341,15.518-.092.149-.192.3-.291.44a2.059,2.059,0,0,1-1.653.837h-1.34c-3.475,0-5.49,2.837-5.419,6.312a6.2,6.2,0,0,0,6.192,6.071s4.114,0,5.178-.014a3.822,3.822,0,0,0,2.241-.723,9.518,9.518,0,0,0,1.809-1.7,4.422,4.422,0,0,0,.355-.461l1.355-1.936c.085-.128.17-.248.255-.383l17.511-28.129a11.287,11.287,0,0,0,1.787-8.483,11.924,11.924,0,0,0-1.106-3.326,4.969,4.969,0,0,0-.312-.532L105.587,24.684a8.439,8.439,0,0,0-7.369-4.334H88.126c-.27.007-.525.014-.78.035a8.419,8.419,0,0,0-6.064,3.44c-.149.213-.291.433-.433.66-.043.064-.078.135-.113.2v-.014c0,.007-.007.007-.007.014L62.777,54.933c-.078.128-1.376,2.326-1.376,2.326a6.029,6.029,0,0,0-.851,3.085A5.925,5.925,0,0,0,63.153,65.274Z" transform="translate(-36.128 -20.343)" fill="#fff"/>
      <path id="Path_4" data-name="Path 4" d="M85.611,49.1a5.773,5.773,0,0,0-4.362-.716A6.361,6.361,0,0,0,77.107,51.2s-2.419,4.057-2.482,4.185C70.39,62.54,61.5,76.811,61.461,76.874c-.759,1.326-1.036,1.83-1.653,2.752-.986,1.468-1.9,2.007-2.787,2.007-.723,0-2.206.014-3.234,0a2.938,2.938,0,0,1-2.362-1.489c-2.376-3.4-4.589-6.922-6.816-10.426-1.021-1.525-1.95-3.107-2.986-4.624a9.6,9.6,0,0,1-2.057-4.44,5.915,5.915,0,0,1,.291-2.411,8.838,8.838,0,0,1,1.078-1.965c.433-.638.816-1.312,1.213-1.972.957-1.589,1.887-3.185,2.823-4.787,2.284-3.9,5.121-8.745,9.341-15.518.092-.149.191-.3.291-.44a2.059,2.059,0,0,1,1.653-.837H57.6c3.475,0,5.49-2.837,5.419-6.312a6.2,6.2,0,0,0-6.192-6.071s-4.114,0-5.178.014a3.822,3.822,0,0,0-2.241.723,9.518,9.518,0,0,0-1.809,1.7,4.424,4.424,0,0,0-.355.461L45.886,25.17c-.085.128-.17.248-.255.383L28.1,53.682a11.287,11.287,0,0,0-1.787,8.483,11.924,11.924,0,0,0,1.106,3.326,4.97,4.97,0,0,0,.312.532L43.169,89.683a8.439,8.439,0,0,0,7.369,4.334H60.631c.27-.007.525-.014.78-.035a8.42,8.42,0,0,0,6.064-3.44c.149-.213.291-.433.433-.66.043-.064.078-.135.113-.2V89.7c0-.007.007-.007.007-.014L85.98,59.441c.078-.128,1.376-2.326,1.376-2.326a6.029,6.029,0,0,0,.851-3.085A5.892,5.892,0,0,0,85.611,49.1Z" transform="translate(-26.117 -20.34)" fill="#fff"/>
    </g>
    <g id="Group_3" data-name="Group 3" transform="translate(122.669 34.206)">
      <path id="Path_5" data-name="Path 5" d="M162.25,54.678a14.725,14.725,0,0,1,26.888-8.362l-5.128,3.568a7.737,7.737,0,0,0-6.766-3.738,8.24,8.24,0,0,0-8.362,8.525c0,4.787,3.362,8.653,8.32,8.653a7.736,7.736,0,0,0,6.809-3.78l5.128,3.61a14.744,14.744,0,0,1-26.888-8.476Z" transform="translate(-162.25 -39.89)" fill="#fff"/>
      <path id="Path_6" data-name="Path 6" d="M228.981,40.43V69.375h-6.6V57.941h-9.539V69.367h-6.6V40.43h6.6v11.6h9.539V40.43Z" transform="translate(-175.043 -40.047)" fill="#fff"/>
      <path id="Path_7" data-name="Path 7" d="M255.621,59.2h-1.305V69.367h-6.6V40.43h11.844c6.724,0,9.745,4.787,9.745,9.575a8.6,8.6,0,0,1-6.809,8.823l7.475,10.547h-7.688ZM254.316,54h4.2c2.9,0,4.156-1.887,4.156-3.823a3.857,3.857,0,0,0-3.993-3.993h-4.369V54Z" transform="translate(-187.1 -40.047)" fill="#fff"/>
      <path id="Path_8" data-name="Path 8" d="M283.15,54.72a14.767,14.767,0,1,1,14.788,14.873A14.739,14.739,0,0,1,283.15,54.72Zm22.895,0c0-4.83-3.319-8.61-8.149-8.61-4.873,0-8.107,3.78-8.107,8.61s3.234,8.653,8.107,8.653C302.725,63.373,306.045,59.55,306.045,54.72Z" transform="translate(-197.402 -39.89)" fill="#fff"/>
      <path id="Path_9" data-name="Path 9" d="M329.65,60.643h6.6c0,1.844,1.851,3.277,4.114,3.277,2.142,0,3.78-.965,3.78-2.858,0-1.135-.631-2.184-3.192-3.021l-3.44-1.05c-6.383-1.723-7.6-5.631-7.6-8.362,0-5.213,4.454-8.738,10.206-8.738,5.546,0,9.788,3.319,9.788,8.951h-6.6a3.03,3.03,0,0,0-3.319-3.192c-2.057,0-3.4,1.262-3.4,2.858,0,.589.17,1.894,2.858,2.646l3.021.922c4.114,1.262,8.32,3.4,8.32,8.653,0,6.22-5.376,8.866-10.667,8.866C333.934,69.593,329.65,65.976,329.65,60.643Z" transform="translate(-210.921 -39.89)" fill="#fff"/>
      <path id="Path_10" data-name="Path 10" d="M364.43,60.643h6.6c0,1.844,1.851,3.277,4.114,3.277,2.142,0,3.78-.965,3.78-2.858,0-1.135-.631-2.184-3.192-3.021l-3.447-1.05c-6.383-1.723-7.6-5.631-7.6-8.362,0-5.213,4.454-8.738,10.206-8.738,5.546,0,9.788,3.319,9.788,8.951h-6.6a3.03,3.03,0,0,0-3.319-3.192c-2.057,0-3.4,1.262-3.4,2.858,0,.589.17,1.894,2.858,2.646l3.021.922c4.114,1.262,8.319,3.4,8.319,8.653,0,6.22-5.376,8.866-10.667,8.866C368.714,69.593,364.43,65.976,364.43,60.643Z" transform="translate(-221.034 -39.89)" fill="#fff"/>
    </g>
    <g id="Group_8" data-name="Group 8" transform="translate(123.896 68.718)">
      <path id="Path_11" data-name="Path 11" d="M170.931,88.71v9.149h-1.362V93.93h-4.227v3.929H163.98V88.71h1.362V92.7h4.227V88.71Z" transform="translate(-163.98 -88.597)" fill="#fff"/>
      <g id="Group_4" data-name="Group 4" transform="translate(8.802 0)">
        <path id="Path_12" data-name="Path 12" d="M184.284,93.245a3.266,3.266,0,1,0-3.277,3.411,3.317,3.317,0,0,0,3.277-3.411m-7.894,0a4.632,4.632,0,1,1,4.617,4.688,4.617,4.617,0,0,1-4.617-4.688" transform="translate(-176.39 -88.55)" fill="#fff"/>
      </g>
      <path id="Path_13" data-name="Path 13" d="M200.95,97.859l-.809-6.639-2.724,5.624h-1.17L193.5,91.221l-.809,6.639H191.34l1.113-9.149h1.22l3.149,6.589,3.142-6.589h1.227l1.114,9.149Z" transform="translate(-171.935 -88.597)" fill="#fff"/>
      <path id="Path_14" data-name="Path 14" d="M215.153,96.611v1.248h-5.6V88.71h5.482v1.248H210.9v2.773h3.6v1.262h-3.6v2.617Z" transform="translate(-177.229 -88.597)" fill="#fff"/>
      <g id="Group_5" data-name="Group 5" transform="translate(39.264 0)">
        <path id="Path_15" data-name="Path 15" d="M219.34,95.146h1.355a1.756,1.756,0,0,0,1.9,1.539,1.533,1.533,0,0,0,1.723-1.419c0-.809-.731-1.192-1.475-1.39l-1.17-.291c-1.95-.489-2.27-1.645-2.27-2.4a2.793,2.793,0,0,1,3.036-2.631,2.7,2.7,0,0,1,2.936,2.7h-1.355a1.643,1.643,0,0,0-3.248-.092c0,.291.092.9,1.248,1.192l1.156.291c1.539.383,2.511,1.22,2.511,2.56a2.836,2.836,0,0,1-3.092,2.731,2.986,2.986,0,0,1-3.255-2.78" transform="translate(-219.34 -88.55)" fill="#fff"/>
        <path id="Path_16" data-name="Path 16" d="M239.446,94.983V93.352H238c-1.433,0-2.028.759-2.028,1.631a1.638,1.638,0,0,0,1.724,1.674,1.665,1.665,0,0,0,1.752-1.674m2.681,1.723v1.206h-.3a1.964,1.964,0,0,1-1.887-.993,3.011,3.011,0,0,1-5.256-1.858,2.656,2.656,0,0,1,1.447-2.319,2.24,2.24,0,0,1-.965-1.858,2.4,2.4,0,0,1,2.518-2.333,2.609,2.609,0,0,1,2.284,1.248l-1.064.688a1.339,1.339,0,0,0-1.206-.66,1.147,1.147,0,0,0-1.248,1.156,1.309,1.309,0,0,0,1.489,1.312h1.511V91.224h1.291v1.085h1.142v1.05h-1.142V94.99c0,.9.2,1.723,1.114,1.723h.277Z" transform="translate(-223.8 -88.55)" fill="#fff"/>
        <path id="Path_17" data-name="Path 17" d="M255.8,96.611c1.83,0,2.773-1.447,2.773-3.305s-.943-3.348-2.773-3.348h-2.192v6.653Zm-3.561-7.9h3.553c2.617,0,4.142,1.993,4.142,4.6s-1.525,4.553-4.142,4.553H252.24Z" transform="translate(-228.906 -88.597)" fill="#fff"/>
      </g>
      <path id="Path_18" data-name="Path 18" d="M271.373,96.611v1.248h-5.6V88.71h5.483v1.248h-4.128v2.773h3.6v1.262h-3.6v2.617Z" transform="translate(-193.575 -88.597)" fill="#fff"/>
      <path id="Path_19" data-name="Path 19" d="M281.875,88.71l-2.752,9.149h-1.27L275.08,88.71h1.4l1.993,6.88,1.986-6.88Z" transform="translate(-196.282 -88.597)" fill="#fff"/>
      <path id="Path_20" data-name="Path 20" d="M292.466,96.611v1.248h-5.6V88.71h5.475v1.248h-4.128v2.773h3.6v1.262h-3.6v2.617Z" transform="translate(-199.71 -88.597)" fill="#fff"/>
      <path id="Path_21" data-name="Path 21" d="M297.46,88.71h1.369v7.9H302.5v1.248H297.46Z" transform="translate(-202.789 -88.597)" fill="#fff"/>
      <g id="Group_6" data-name="Group 6" transform="translate(100.139 0)">
        <path id="Path_22" data-name="Path 22" d="M313.064,93.245a3.266,3.266,0,1,0-3.277,3.411,3.317,3.317,0,0,0,3.277-3.411m-7.894,0a4.632,4.632,0,1,1,4.617,4.688,4.617,4.617,0,0,1-4.617-4.688" transform="translate(-305.17 -88.55)" fill="#fff"/>
        <path id="Path_23" data-name="Path 23" d="M325.935,91.6a1.474,1.474,0,0,0-1.447-1.645h-2.27v3.263h2.22a1.462,1.462,0,0,0,1.5-1.617m1.369,0a2.644,2.644,0,0,1-2.787,2.865h-2.3v3.383H320.85V88.71h3.667A2.673,2.673,0,0,1,327.3,91.6" transform="translate(-309.729 -88.597)" fill="#fff"/>
      </g>
      <path id="Path_24" data-name="Path 24" d="M342.18,97.859l-.809-6.639-2.724,5.624h-1.17l-2.745-5.624-.809,6.639H332.57l1.114-9.149h1.22l3.149,6.589L341.2,88.71h1.22l1.114,9.149Z" transform="translate(-212.997 -88.597)" fill="#fff"/>
      <path id="Path_25" data-name="Path 25" d="M356.383,96.611v1.248h-5.6V88.71h5.482v1.248h-4.128v2.773h3.6v1.262h-3.6v2.617Z" transform="translate(-218.292 -88.597)" fill="#fff"/>
      <path id="Path_26" data-name="Path 26" d="M368.026,88.71v9.149h-1.284l-4-6.667v6.667H361.38V88.71h1.326l3.951,6.61V88.71Z" transform="translate(-221.374 -88.597)" fill="#fff"/>
      <path id="Path_27" data-name="Path 27" d="M379.679,89.958h-2.723v7.9h-1.369v-7.9H372.87V88.71h6.809Z" transform="translate(-224.715 -88.597)" fill="#fff"/>
      <g id="Group_7" data-name="Group 7" transform="translate(156.113 0)">
        <path id="Path_28" data-name="Path 28" d="M384.09,95.146h1.355a1.756,1.756,0,0,0,1.9,1.539,1.533,1.533,0,0,0,1.723-1.419c0-.809-.73-1.192-1.475-1.39l-1.17-.291c-1.95-.489-2.27-1.645-2.27-2.4a2.793,2.793,0,0,1,3.036-2.631,2.7,2.7,0,0,1,2.936,2.7h-1.355a1.643,1.643,0,0,0-3.248-.092c0,.291.092.9,1.248,1.192l1.156.291c1.539.383,2.511,1.22,2.511,2.56a2.836,2.836,0,0,1-3.092,2.731,2.986,2.986,0,0,1-3.256-2.78" transform="translate(-384.09 -88.55)" fill="#fff"/>
      </g>
    </g>
  </g>
</svg>
