<svg xmlns="http://www.w3.org/2000/svg" width="20.926" height="26.189" viewBox="0 0 20.926 26.189">
  <path id="Path_40" data-name="Path 40" d="M183.2,173.745a5.753,5.753,0,0,0,.416,1.235,4.026,4.026,0,0,0,1.2,1.482,4.767,4.767,0,0,0,1.924.858.473.473,0,0,0,.494-.221,3.943,3.943,0,0,0,.364-.832,2.386,2.386,0,0,0,.117-.741,2.331,2.331,0,0,0-.169-.845,8.369,8.369,0,0,0-.52-.949,2.735,2.735,0,0,1-.351-.884h0a5.629,5.629,0,0,1,.481-3.379,6.5,6.5,0,0,1,2.5-2.7,6.7,6.7,0,0,1,3.509-1.027,5.72,5.72,0,0,1,2.028.377,5.258,5.258,0,0,1,1.807,1.209,4.181,4.181,0,0,1,.923,1.638,8.144,8.144,0,0,1,.312,2.236,9.424,9.424,0,0,1-.286,2.326,7.082,7.082,0,0,1-1.378,2.9,3.573,3.573,0,0,1-1.027.845,2.561,2.561,0,0,1-1.209.3,2.856,2.856,0,0,1-.572-.065,2.1,2.1,0,0,1-.624-.221,1.457,1.457,0,0,1-.286-.208,1.016,1.016,0,0,1-.234-.416,2.19,2.19,0,0,1-.078-.585,5.3,5.3,0,0,1,.195-1.274c.182-.715.455-1.495.689-2.274.117-.39.221-.78.3-1.157a5.36,5.36,0,0,0,.13-1.118,3.553,3.553,0,0,0-.065-.65,2.079,2.079,0,0,0-.429-.884,2.21,2.21,0,0,0-.884-.611,2.852,2.852,0,0,0-1.04-.208,2.444,2.444,0,0,0-1.365.416,3.716,3.716,0,0,0-1.313,1.69,5.78,5.78,0,0,0-.442,2.249,4.565,4.565,0,0,0,.481,2.119c-.325,1.573-.806,3.132-1.209,4.77a22.5,22.5,0,0,0-.754,5.459,16.441,16.441,0,0,0,.169,2.391.467.467,0,0,0,.52.39.574.574,0,0,0,.208-.078,6.948,6.948,0,0,0,1.547-1.6,11.322,11.322,0,0,0,1.443-3.132c.286-.962.52-1.95.715-2.937.312.208.6.429.936.624a5.487,5.487,0,0,0,.845.39,4.188,4.188,0,0,0,1.066.208l.039-.455-.039.455c.195.013.39.026.572.026a6.548,6.548,0,0,0,3.236-.819,8.135,8.135,0,0,0,3.262-3.6,11.669,11.669,0,0,0,1.131-5.095,11.933,11.933,0,0,0-.117-1.664h0a7.52,7.52,0,0,0-1.079-3,8.176,8.176,0,0,0-3.47-2.989A11.335,11.335,0,0,0,193,162.7a13.712,13.712,0,0,0-1.469.078,10.03,10.03,0,0,0-5.706,2.677,8.952,8.952,0,0,0-1.924,2.638,8.421,8.421,0,0,0-.819,3.327c0,.156-.013.312-.013.468A6.408,6.408,0,0,0,183.2,173.745Z" transform="translate(-182.296 -161.947)" fill="none" stroke="#fff" stroke-width="1.5"/>
</svg>
