<?xml version="1.0" encoding="UTF-8"?>
<svg width="157px" height="143px" viewBox="0 0 157 143" version="1.1" xmlns="http://www.w3.org/2000/svg" xmlns:xlink="http://www.w3.org/1999/xlink">
    <title>shape-2</title>
    <g id="Page-1" stroke="none" stroke-width="1" fill="none" fill-rule="evenodd">
        <g id="shape-2" fill="#C22238" fill-rule="nonzero">
            <g id="Group_5" transform="translate(78.326069, 71.326446) rotate(-166.000000) translate(-78.326069, -71.326446) translate(12.326069, 14.826446)">
                <path d="M0,40.217 C0,46.893 2.526,53.93 7.037,60.246 C13.537,69.446 22.013,75.946 33.2,78.646 C49.62,82.44 64.416,75.042 71.994,59.7 C74.7343885,54.0014181 76.2700421,47.7988892 76.505,41.48 C76.685,37.15 76.685,32.819 75.422,28.669 C72.535,19.106 67.122,11.527 58.1,6.656 C53.0115384,3.97706894 47.6204585,1.91739309 42.042,0.521 C36.4810641,-0.68802598 30.6682282,0.280780004 25.8,3.228 C23.1184886,4.82500142 20.5290545,6.57176771 18.044,8.46 C13.5852083,12.0450877 9.58537712,16.1661666 6.135,20.73 C1.8,25.963 0,32.1 0,40.217 Z M42.222,73.237 C35.140344,73.2275308 28.2250825,71.0893325 22.374,67.1 C12.63,60.785 7.574,51.763 6.135,40.4 C5.413,34.085 7.578,28.491 11.187,23.619 C16.6,16.039 24,10.806 32.3,6.656 C34.3029209,5.63076332 36.5938618,5.31355612 38.8,5.756 C45.4172835,6.8874214 51.7383466,9.34204138 57.385,12.973 C63.339,16.943 67.67,21.995 69.474,29.032 C72.0241179,38.5517641 71.0632415,48.6713146 66.767,57.541 C61.89,67.824 53.77,73.418 42.222,73.237 Z" id="Path_51"></path>
                <path d="M40.057,60.246 C42.403,60.066 44.929,59.885 47.274,59.524 C48.9193649,59.2562299 50.5062631,58.7068539 51.965,57.9 C59.0927755,53.6992254 63.7355671,46.2976086 64.415,38.052 C64.7679109,33.8705979 63.3242308,29.7366545 60.445,26.684 C53.945,19.284 45.645,16.94 36.266,19.647 C30.313,21.271 25.261,24.16 21.652,29.391 C19.0541981,32.9768131 17.5499886,37.2379875 17.321,41.66 C17.1660421,44.8613939 18.1935612,48.0080156 20.208,50.501 C24.902,57.178 31.576,60.246 40.057,60.246 Z M42.944,23.437 C47.275,23.617 52.144,25.061 55.575,29.031 C57.739,31.56 59.363,34.443 59.002,37.872 C58.461,44.372 55.213,49.42 50.341,53.39 C49.6854615,53.9153096 48.9559208,54.3409031 48.176,54.653 C40.776,57.36 33.741,56.818 27.426,51.946 C23.096,48.698 20.75,44.729 22.013,38.955 C24.002,30.474 33.019,23.437 42.944,23.437 Z" id="Path_52"></path>
                <path d="M40.778,25.421 C34.824,25.421 30.313,29.03 28.689,35.165 C27.846315,38.1830659 27.9089068,41.3822058 28.869,44.365 C29.952,48.335 33.019,50.139 36.808,50.865 C40.2036886,51.6170726 43.7292063,51.5543617 47.096,50.682 C51.966,49.421 57.559,44.006 55.213,36.247 C52.868,29.391 47.996,25.601 40.778,25.421 Z M34.463,38.954 C34.4476524,38.5844485 34.5089372,38.2157188 34.643,37.871 C35.3281779,34.9134045 37.769889,32.6870098 40.778,32.277 C43.9160498,31.9753159 46.9201295,33.6204638 48.356,36.427 C49.6132574,38.4857254 49.0628089,41.1663221 47.096,42.563 C45.1265302,44.1823914 42.5981514,44.9602712 40.059,44.728 C36.9412,44.6286983 34.4646571,42.0733805 34.463,38.954 Z" id="Path_53"></path>
                <path d="M41.32,41.661 C42.8238925,41.8096099 44.2365576,40.9176822 44.749,39.496 C45.0619003,37.9236517 44.3378708,36.3267644 42.949,35.526 C41.5783327,34.4814799 39.699602,34.4094673 38.253,35.346 C37.1601936,36.1998242 36.7890713,37.6880249 37.353,38.955 C37.9419349,40.6269676 39.5484184,41.7227943 41.32,41.661 Z" id="Path_54"></path>
                <path d="M70.01,81.176 C70.01,86.409 72.175,92.183 75.604,97.235 C80.836,104.633 87.51,109.865 96.534,111.851 C109.71,114.918 121.795,109.144 127.75,96.874 C130.001117,92.322609 131.232724,87.3350952 131.359,82.259 C131.688256,78.804467 131.383243,75.3188442 130.459,71.974 C128.11,64.215 123.78,58.265 116.563,54.291 C112.511892,52.1407961 108.208314,50.5044889 103.752,49.42 C99.3057075,48.3863458 94.630834,49.1653715 90.76,51.585 C88.5452318,52.8613288 86.4337812,54.3090851 84.445,55.915 C80.9031191,58.7953183 77.6954088,62.0637413 74.882,65.659 C71.454,69.989 70.01,74.865 70.01,81.176 Z M103.752,107.876 C98.0837753,107.926745 92.5382732,106.225165 87.874,103.004 C80.11,97.957 75.964,90.74 74.882,81.537 C74.4322723,76.6853665 75.8519484,71.8450901 78.851,68.005 C83.182,62.05 89.136,57.72 95.81,54.472 C97.4370141,53.6936869 99.2660154,53.4413386 101.043,53.75 C106.333604,54.5899949 111.381323,56.5592875 115.843,59.524 C120.534,62.591 124.143,66.741 125.587,72.335 C127.595799,79.989186 126.828786,88.1074763 123.422,95.25 C119.45,103.37 113.134,107.881 103.752,107.881 L103.752,107.876 Z" id="Path_55"></path>
                <path d="M101.947,97.416 C103.932,97.236 105.736,97.236 107.721,96.875 C109.009764,96.7581396 110.249598,96.3242493 111.33,95.612 C117.047889,92.2734265 120.758477,86.3366348 121.254,79.734 C121.537585,76.3438596 120.355173,72.9946625 118.006,70.534 C112.773,64.576 106.097,62.772 98.518,64.937 C93.7985508,66.0189078 89.6316083,68.77567 86.79,72.696 C84.7541792,75.557228 83.5660846,78.9343558 83.362,82.44 C83.1936068,85.0022091 84.0357938,87.5284111 85.708,89.477 C89.47709,94.6435218 95.5548607,97.6148515 101.947,97.416 Z M104.292,67.824 C107.901,68.004 111.692,69.087 114.392,72.335 C116.192,74.32 117.459,76.665 117.099,79.552 C116.535674,84.4835761 113.996522,88.9758942 110.062,92.002 C109.561104,92.3697807 109.015373,92.6722177 108.438,92.902 C102.484,95.067 96.89,94.526 91.838,90.737 C88.41,88.211 86.425,84.963 87.508,80.272 C89.316,73.598 96.353,67.824 104.292,67.824 Z" id="Path_56"></path>
                <path d="M102.669,69.448 C97.977,69.448 94.369,72.335 92.925,77.387 C92.2931366,79.813202 92.2931366,82.360798 92.925,84.787 C93.825,88.035 96.173,89.298 99.24,90.02 C101.975475,90.680674 104.835739,90.6186442 107.54,89.84 C111.51,88.757 116.021,84.427 114.04,78.292 C112.412,72.696 108.443,69.628 102.669,69.448 Z M97.616,80.274 C97.6039992,79.963988 97.665687,79.6555492 97.796,79.374 C98.3032601,76.9909525 100.254099,75.1842348 102.669,74.861 C105.224835,74.6311039 107.660167,75.9918734 108.804,78.289 C109.726287,79.9161818 109.346755,81.9707101 107.904,83.161 C106.368279,84.4975202 104.322673,85.0913821 102.31,84.785 C101.082227,84.8348491 99.8872519,84.3816832 99.0012714,83.5302435 C98.1152909,82.6788038 97.6149884,81.5027839 97.616,80.274 L97.616,80.274 Z" id="Path_57"></path>
                <path d="M103.03,82.44 C104.283623,82.5408408 105.45575,81.8100377 105.917,80.64 C106.209427,79.3557868 105.621746,78.0322828 104.473,77.388 C103.372183,76.4870253 101.788817,76.4870253 100.688,77.388 C99.8352332,78.0845579 99.5401664,79.2579156 99.962,80.275 C100.37655,81.6080467 101.635113,82.4961788 103.03,82.44 Z" id="Path_58"></path>
            </g>
        </g>
    </g>
</svg>