<svg xmlns="http://www.w3.org/2000/svg" width="265.183" height="71.882" viewBox="0 0 265.183 71.882">
  <g id="Group_182" data-name="Group 182" transform="translate(8683 -3246.979)">
    <path id="Path_185" data-name="Path 185" d="M12.243-11.716a7.446,7.446,0,0,1-1.35,4.767A4.581,4.581,0,0,1,7.1-5.266,4.619,4.619,0,0,1,3.317-6.95a7.348,7.348,0,0,1-1.383-4.734v-3.466A7.433,7.433,0,0,1,3.3-19.921a4.585,4.585,0,0,1,3.783-1.7,4.584,4.584,0,0,1,3.8,1.705,7.538,7.538,0,0,1,1.356,4.8Zm-1.257-3.455A6.4,6.4,0,0,0,9.98-19.1a3.431,3.431,0,0,0-2.9-1.312,3.451,3.451,0,0,0-2.853,1.285A6.155,6.155,0,0,0,3.18-15.28v3.564A6.29,6.29,0,0,0,4.219-7.775,3.469,3.469,0,0,0,7.1-6.458,3.4,3.4,0,0,0,10-7.769a6.519,6.519,0,0,0,.989-3.947ZM27.831-5.485H26.584L19.074-19.041V-5.485H17.816V-21.4h1.257L26.6-7.824V-21.4h1.235ZM35.11-6.643h6.56v1.159H33.852V-21.4H35.11ZM47.953-5.485H46.707V-21.4h1.246Zm16.244,0H62.951L55.44-19.041V-5.485H54.183V-21.4H55.44L62.962-7.824V-21.4H64.2ZM77.642-13.1H71.465v6.461h7.106v1.159H70.219V-21.4h8.3v1.181H71.465v5.958h6.177Z" transform="translate(-8684.934 3324.127)" fill="#78662a"/>
    <g id="PilatesITC-PrimaryLogo-Black" transform="translate(-8683 3246.979)">
      <path id="Path_174" data-name="Path 174" d="M60.5,307.46h5.193L73.9,279.5h-5.24Z" transform="translate(-37.084 -267.908)" fill="#78662a"/>
      <path id="Path_175" data-name="Path 175" d="M20.989,279.7H10v27.868h4.915v-8.949h5.518c6.121,0,11.128-3.246,11.128-9.506v-.093C31.561,283.409,27.527,279.7,20.989,279.7Zm5.611,9.506c0,2.921-2.318,4.961-6.028,4.961H14.915V284.151h5.7c3.663,0,6.028,1.716,6.028,4.961v.093Z" transform="translate(-10 -268.015)" fill="#78662a"/>
      <path id="Path_176" data-name="Path 176" d="M108.615,279.7H103.7v27.821h19.568V303.07H108.615Z" transform="translate(-60.253 -268.015)" fill="#78662a"/>
      <path id="Path_177" data-name="Path 177" d="M169.141,279.2,156.9,307.253h5.008l2.875-6.723h13.169l2.829,6.723h5.193L173.732,279.2Zm-2.6,17.017,4.776-11.129,4.822,11.129Z" transform="translate(-88.784 -267.747)" fill="#78662a"/>
      <path id="Path_178" data-name="Path 178" d="M223.5,284.244h8.856v23.277h4.915V284.244h8.856V279.7H223.5Z" transform="translate(-124.503 -268.015)" fill="#78662a"/>
      <path id="Path_179" data-name="Path 179" d="M292.269,295.7h14v-4.4h-14v-7.234h15.765V279.7H287.4v27.821h20.866v-4.359h-16Z" transform="translate(-158.773 -268.015)" fill="#78662a"/>
      <path id="Path_180" data-name="Path 180" d="M358.659,290.9c-5.379-1.252-6.631-2.226-6.631-4.359v-.093c0-1.808,1.669-3.292,4.544-3.292a12.451,12.451,0,0,1,7.558,2.875l2.643-3.709a15.4,15.4,0,0,0-10.108-3.524c-5.518,0-9.506,3.292-9.506,8.068v.093c0,5.147,3.339,6.863,9.274,8.3,5.193,1.206,6.306,2.272,6.306,4.266v.093c0,2.087-1.9,3.524-4.915,3.524a12.912,12.912,0,0,1-8.81-3.617L346,303a17.259,17.259,0,0,0,11.639,4.451c5.842,0,9.969-3.107,9.969-8.3v-.093C367.561,294.426,364.547,292.34,358.659,290.9Z" transform="translate(-190.201 -267.532)" fill="#78662a"/>
      <path id="Path_181" data-name="Path 181" d="M472.1,284.244h8.857v23.277h4.915V284.244h8.857V279.7H472.1Z" transform="translate(-257.83 -268.015)" fill="#78662a"/>
      <path id="Path_182" data-name="Path 182" d="M549.25,299.327c-2.411,2.226-4.591,3.57-8.022,3.57-5.332,0-9.181-4.405-9.181-9.876v-.093c0-5.472,3.9-9.83,9.181-9.83,3.2,0,5.564,1.391,7.79,3.478l3.153-3.617a14.517,14.517,0,0,0-10.9-4.359A14.108,14.108,0,0,0,526.9,293.021v.093a13.99,13.99,0,0,0,14.189,14.328,14.474,14.474,0,0,0,11.314-4.915Z" transform="translate(-287.22 -267.425)" fill="#78662a"/>
      <path id="Path_183" data-name="Path 183" d="M432,307.46h5.24L445.4,279.5h-5.193Z" transform="translate(-236.324 -267.908)" fill="#78662a"/>
      <circle id="Ellipse_28" data-name="Ellipse 28" cx="3.292" cy="3.292" r="3.292" transform="translate(32.875 0)" fill="#78662a"/>
      <circle id="Ellipse_29" data-name="Ellipse 29" cx="3.292" cy="3.292" r="3.292" transform="translate(205.228 0)" fill="#78662a"/>
    </g>
  </g>
</svg>
