<svg xmlns="http://www.w3.org/2000/svg" width="241.111" height="158.887" viewBox="0 0 241.111 158.887">
  <g id="Group_180" data-name="Group 180" transform="translate(9118 -3024.406)">
    <g id="PilatesITC-StackedLogo-White" transform="translate(-9155.1 2855.806)">
      <path id="Path_1" data-name="Path 1" d="M116.2,202.7l-10.3,35.238h6.567l10.3-35.238Z" transform="translate(-39.271 -19.464)" fill="#fff"/>
      <path id="Path_2" data-name="Path 2" d="M64.311,214.746v-.086c0-7.082-5.108-11.76-13.348-11.76H37.1v35.109h6.181V226.721h7C58,226.721,64.311,222.6,64.311,214.746Zm-21.031-6.223h7.168c4.635,0,7.6,2.146,7.6,6.266v.086c0,3.648-2.919,6.266-7.6,6.266H43.281Z" transform="translate(0 -19.578)" fill="#fff"/>
      <path id="Path_3" data-name="Path 3" d="M189.436,232.386H170.981V202.9H164.8v35.109h24.636Z" transform="translate(-68.071 -19.578)" fill="#fff"/>
      <path id="Path_4" data-name="Path 4" d="M252.651,202.3,237.2,237.666h6.309l3.605-8.5h16.61l3.562,8.5h6.524L258.36,202.3h-5.708Zm-3.262,21.417,6.009-14.035,6.052,14.035Z" transform="translate(-106.181 -19.236)" fill="#fff"/>
      <path id="Path_5" data-name="Path 5" d="M328,208.608h11.116v29.4h6.223v-29.4H356.5V202.9H328Z" transform="translate(-154.849 -19.578)" fill="#fff"/>
      <path id="Path_6" data-name="Path 6" d="M421.081,223.073h17.64v-5.537h-17.64v-9.1h19.872V202.9H414.9v35.109h26.31v-5.494h-20.13Z" transform="translate(-201.268 -19.578)" fill="#fff"/>
      <path id="Path_7" data-name="Path 7" d="M510.766,216.98c-6.781-1.588-8.369-2.79-8.369-5.537v-.086c0-2.318,2.1-4.163,5.708-4.163,3.219,0,6.352,1.245,9.528,3.605l3.3-4.678a19.415,19.415,0,0,0-12.747-4.421c-7,0-11.975,4.163-11.975,10.172v.086c0,6.481,4.206,8.67,11.674,10.473,6.524,1.5,7.94,2.876,7.94,5.365v.086c0,2.618-2.4,4.421-6.223,4.421-4.335,0-7.726-1.674-11.073-4.55l-3.734,4.421a21.526,21.526,0,0,0,14.636,5.623c7.382,0,12.533-3.906,12.533-10.473v-.086C522.011,221.443,518.192,218.782,510.766,216.98Z" transform="translate(-243.758 -18.893)" fill="#fff"/>
      <path id="Path_8" data-name="Path 8" d="M132.6,317.208h11.159v29.4h6.223v-29.4H161.1V311.5H132.6Z" transform="translate(-50.836 -72.903)" fill="#fff"/>
      <path id="Path_9" data-name="Path 9" d="M225.469,340.759c-6.738,0-11.588-5.58-11.588-12.447v-.086c0-6.867,4.936-12.4,11.588-12.4,4.035,0,7.039,1.76,9.829,4.378l3.949-4.55a18.271,18.271,0,0,0-13.734-5.451A17.778,17.778,0,0,0,207.4,328.355v.086a17.675,17.675,0,0,0,17.855,18.069c6.567,0,10.6-2.4,14.25-6.223l-3.949-4.035C232.508,339.042,229.761,340.759,225.469,340.759Z" transform="translate(-90.529 -72.161)" fill="#fff"/>
      <circle id="Ellipse_1" data-name="Ellipse 1" cx="4.12" cy="4.12" r="4.12" transform="translate(81.976 168.6)" fill="#fff"/>
      <path id="Path_10" data-name="Path 10" d="M75.2,345.738h6.61l10.3-35.238H85.544Z" transform="translate(-21.747 -72.332)" fill="#fff"/>
      <circle id="Ellipse_2" data-name="Ellipse 2" cx="4.12" cy="4.12" r="4.12" transform="translate(50.062 279.758)" fill="#fff"/>
    </g>
    <path id="Path_172" data-name="Path 172" d="M15.747-8.35a9.976,9.976,0,0,1-1.809,6.387A6.138,6.138,0,0,1,8.862.293,6.189,6.189,0,0,1,3.787-1.963,9.845,9.845,0,0,1,1.934-8.306v-4.644a9.959,9.959,0,0,1,1.831-6.394,6.143,6.143,0,0,1,5.068-2.278,6.142,6.142,0,0,1,5.1,2.285,10.1,10.1,0,0,1,1.816,6.431Zm-1.685-4.629a8.57,8.57,0,0,0-1.348-5.259A4.6,4.6,0,0,0,8.833-20,4.623,4.623,0,0,0,5.01-18.274,8.247,8.247,0,0,0,3.6-13.125V-8.35A8.428,8.428,0,0,0,5-3.069,4.648,4.648,0,0,0,8.862-1.3a4.553,4.553,0,0,0,3.875-1.758A8.735,8.735,0,0,0,14.063-8.35ZM36.633,0h-1.67L24.9-18.164V0H23.215V-21.328H24.9L34.978-3.135V-21.328h1.655Zm9.753-1.553h8.789V0H44.7V-21.328h1.685ZM63.595,0h-1.67V-21.328h1.67ZM85.359,0h-1.67L73.626-18.164V0H71.941V-21.328h1.685L83.7-3.135V-21.328h1.655Zm18.015-10.21H95.1v8.657h9.521V0H93.428V-21.328h11.118v1.582H95.1v7.983h8.276Z" transform="translate(-9119.934 3183)" fill="#fff"/>
  </g>
</svg>
