<svg width="20" height="20" viewBox="0 0 20 20" fill="none" xmlns="http://www.w3.org/2000/svg">
<path d="M7.917 0L7.58825 1.70833C6.11695 2.10417 4.81811 2.83333 3.76179 3.83333L2.0803 3.26042L0 6.73958L1.33657 7.85417C1.15333 8.54688 0.991646 9.25 0.991646 10C0.991646 10.75 1.15333 11.4531 1.33657 12.1458L0 13.2604L2.0803 16.7396L3.76179 16.1667C4.81811 17.1667 6.11695 17.8958 7.58825 18.2917L7.917 20H12.083L12.4171 18.2708C13.8561 17.8646 15.1388 17.1354 16.1843 16.1458L17.9143 16.7396L20 13.2604L18.5988 12.0938C18.7766 11.4167 18.9275 10.7292 18.9275 10C18.9275 9.27083 18.7766 8.58333 18.5988 7.90625L20 6.73958L17.9197 3.26042L16.1843 3.85417C15.1388 2.86458 13.8561 2.13542 12.4171 1.72917L12.083 0H7.917ZM9.06494 1.33333H10.9297L11.2099 2.76042L11.6518 2.85417C13.177 3.19271 14.5244 3.97396 15.543 5.05208L15.8502 5.375L17.2945 4.88542L18.2323 6.44792L17.0736 7.40625L17.2083 7.82813C17.4293 8.51563 17.5478 9.23958 17.5478 10C17.5478 10.7604 17.4293 11.4896 17.2083 12.1719L17.0736 12.5885L18.2323 13.5469L17.2945 15.1146L15.8502 14.625L15.543 14.9531C14.5244 16.026 13.177 16.8073 11.6518 17.1458L11.2099 17.2396L10.9297 18.6667H9.06494L8.78469 17.2552L8.34276 17.1615C6.79601 16.8385 5.42711 16.0573 4.38696 14.9688L4.08515 14.6458L2.70008 15.1146L1.76233 13.5469L2.86715 12.6354L2.72703 12.2188C2.49528 11.5156 2.37133 10.776 2.37133 10C2.37133 9.22396 2.49528 8.48438 2.72703 7.78125L2.86715 7.36458L1.76233 6.44792L2.70008 4.88542L4.08515 5.35417L4.38696 5.03125C5.42711 3.94271 6.79601 3.16146 8.34276 2.83854L8.78469 2.74479L9.06494 1.33333ZM5.82053 6.66667C4.68337 6.66667 3.75101 7.56771 3.75101 8.66667V13.3333H5.13069V11.9896H6.51037V13.3333H7.89006V8.66667C7.89006 7.74479 7.17327 7.08333 6.2948 6.85417C6.16545 6.73958 5.99838 6.67188 5.82053 6.66667ZM9.26974 6.66667V13.3333H10.6494V10.6667H11.3393C12.207 10.6667 12.816 10.0729 13.1178 9.33333H13.4088V8.66667C13.4088 7.56771 12.4764 6.66667 11.3393 6.66667H9.26974ZM14.7885 6.66667V13.3333H16.1681V6.66667H14.7885ZM5.82053 8C6.20857 8 6.51037 8.29167 6.51037 8.66667V10.6563H5.13069V8.66667C5.13069 8.29167 5.4325 8 5.82053 8ZM10.6494 8H11.3393C11.7219 8 12.0291 8.29688 12.0291 8.66667C12.0291 9.03646 11.7219 9.33333 11.3393 9.33333H10.6494V8Z" fill="white"/>
</svg>
