<svg width="62" height="60" viewBox="0 0 62 60" fill="none" xmlns="http://www.w3.org/2000/svg">
<path d="M9 27H5V52H9V27Z" fill="white"/>
<path d="M41 27H37V52H41V27Z" fill="white"/>
<path d="M25 27H21V52H25V27Z" fill="white"/>
<path d="M57 27H53V52H57V27Z" fill="white"/>
<path d="M61 54H1C0.448 54 0 54.447 0 55V59C0 59.553 0.448 60 1 60H61C61.552 60 62 59.553 62 59V55C62 54.447 61.552 54 61 54Z" fill="white"/>
<path d="M61.471 16.117L31.471 0.117C31.177 -0.039 30.824 -0.039 30.53 0.117L0.53 16.117C0.204 16.291 0 16.631 0 17V24C0 24.553 0.448 25 1 25H61C61.552 25 62 24.553 62 24V17C62 16.631 61.796 16.291 61.471 16.117ZM31 18C28.791 18 27 16.209 27 14C27 11.791 28.791 10 31 10C33.209 10 35 11.791 35 14C35 16.209 33.209 18 31 18Z" fill="white"/>
</svg>
