<svg width="80" height="80" viewBox="0 0 80 80" fill="none" xmlns="http://www.w3.org/2000/svg">
<path d="M80 25V30C80 34.5498 76.95 38.4 72.75 39.5998C74.2002 42.75 75 46.3 75 50C75 56.9 72.2 63.15 67.6998 67.6998C66.85 68.5498 65.95 69.3 65 70V80H55V74.4998C53.4 74.8498 51.7002 75 50 75H30V80H20V72.9498C14.2498 70.3998 9.59984 65.7498 7.04984 60H0V40H7.04984C7.9 38.05 8.99984 36.3 10.2498 34.65L0 24.4C2.90016 21.5 6.74984 20 10.6 20C14.4502 20 18.2998 21.5 21.2 24.4L22.8502 26.0498C25.1002 25.35 27.5 25 30 25H50C58.15 25 65.4502 28.9498 70 35C72.75 35 75 32.75 75 30V25H80Z" fill="#6366F1"/>
<path d="M40 70C48.2843 70 55 63.2843 55 55C55 46.7157 48.2843 40 40 40C31.7157 40 25 46.7157 25 55C25 63.2843 31.7157 70 40 70Z" fill="#A5B4FC"/>
<path d="M37.5 45H42.5V57.5H37.5V45Z" fill="#6366F1"/>
<path d="M42.5 52.5H47.5V57.5H42.5V52.5Z" fill="#6366F1"/>
<path d="M37.5 52.5H42.5V57.5H37.5V52.5Z" fill="#7679FF"/>
<path d="M50 25C50 30.4998 45.4998 35 40 35C34.5002 35 30 30.4998 30 25H50Z" fill="#818CF8"/>
<path d="M50 25H30C30 19.4998 34.5002 15 40 15C45.4998 15 50 19.4998 50 25Z" fill="#A5B4FC"/>
<path d="M17.5 45C18.8807 45 20 43.8807 20 42.5C20 41.1193 18.8807 40 17.5 40C16.1193 40 15 41.1193 15 42.5C15 43.8807 16.1193 45 17.5 45Z" fill="#A5B4FC"/>
<path d="M32.5 0H37.5V10H32.5V0Z" fill="#A5B4FC"/>
<path d="M42.5 0H47.5V10H42.5V0Z" fill="#A5B4FC"/>
</svg>
