<svg width="80" height="80" viewBox="0 0 80 80" fill="none" xmlns="http://www.w3.org/2000/svg">
<path d="M71.7647 44.5098V76.0785H8.62744V35.4902H26.6667L35.6863 44.5098H71.7647Z" fill="#F59E0B"/>
<path d="M62.7451 44.5098V62.5491H17.647V35.4902H26.6666L35.6862 44.5098H62.7451Z" fill="#FBBF24"/>
<path d="M62.7451 3.92163V44.5099H35.6862L26.6666 35.4903H17.647V3.92163H62.7451Z" fill="#FDE68A"/>
<path d="M26.6667 8.4314H31.1765V12.9412H26.6667V8.4314Z" fill="#FEF3C7"/>
<path d="M35.6863 8.4314H53.7255V12.9412H35.6863V8.4314Z" fill="#FEF3C7"/>
<path d="M26.6667 17.4509H31.1765V21.9607H26.6667V17.4509Z" fill="#FEF3C7"/>
<path d="M35.6863 17.4509H53.7255V21.9607H35.6863V17.4509Z" fill="#FEF3C7"/>
<path d="M26.6667 26.4707H31.1765V30.9805H26.6667V26.4707Z" fill="#FEF3C7"/>
<path d="M35.6863 26.4707H53.7255V30.9805H35.6863V26.4707Z" fill="#FEF3C7"/>
</svg>
