<svg width="80" height="80" viewBox="0 0 80 80" fill="none" xmlns="http://www.w3.org/2000/svg">
<path d="M80 40C80 56.55 66.55 70 50 70C43.9002 70 38.2 68.2 33.45 65C31.3502 63.5998 29.35 61.9 27.6998 60C25.05 57.15 22.9998 53.75 21.7498 50C21.1498 48.4 20.7 46.7498 20.4502 45C20.1502 43.4 20 41.6998 20 40C20 38.2998 20.1502 36.6 20.4502 35C20.7002 33.2498 21.15 31.6 21.7498 30C22.9998 26.25 25.05 22.85 27.6998 20C29.35 18.1 31.35 16.3998 33.45 15C38.2 11.8 43.9002 10 50 10C66.55 10 80 23.45 80 40Z" fill="#F43F5E"/>
<path d="M75 40C75 53.8 63.8 65 50 65C44.35 65 39.1502 63.15 35 60C31.55 57.3998 28.8 53.9498 27.0498 50C26.4002 48.4 25.8498 46.7498 25.4998 45C25.1502 43.4 25 41.6998 25 40C25 38.2998 25.1502 36.6 25.4998 35C25.8498 33.2498 26.4002 31.6 27.0498 30C28.8 26.0498 31.55 22.5998 35 20C39.1502 16.85 44.35 15 50 15C63.8 15 75 26.2 75 40Z" fill="#FDA4AF"/>
<path d="M47.5 20H52.5V25H47.5V20Z" fill="#F43F5E"/>
<path d="M47.5 55H52.5V60H47.5V55Z" fill="#F43F5E"/>
<path d="M30 37.5H35V42.5H30V37.5Z" fill="#F43F5E"/>
<path d="M65 37.5H70V42.5H65V37.5Z" fill="#F43F5E"/>
<path d="M47.5 30H52.5V42.5H47.5V30Z" fill="#F43F5E"/>
<path d="M52.5 37.5H57.5V42.5H52.5V37.5Z" fill="#F43F5E"/>
<path d="M47.5 37.5H52.5V42.5H47.5V37.5Z" fill="#FB7185"/>
<path d="M50 15C44.35 15 39.1502 16.85 35 20H27.6999C29.35 18.1 31.35 16.3998 33.45 15H50Z" fill="#FB7185"/>
<path d="M33.45 15C31.3502 16.3998 29.35 18.1 27.6998 20H15V15H33.45Z" fill="#FDA4AF"/>
<path d="M27.0499 30C26.4002 31.6 25.8499 33.2498 25.4999 35H20.4502C20.7002 33.2498 21.15 31.6 21.7499 30H27.0499Z" fill="#FB7185"/>
<path d="M21.7498 30C21.1498 31.6 20.7 33.2498 20.4502 35H10V30H21.7498Z" fill="#FDA4AF"/>
<path d="M27.0499 50H21.7499C21.1499 48.4 20.7 46.7498 20.4502 45H25.4999C25.8499 46.7498 26.4002 48.4 27.0499 50Z" fill="#FB7185"/>
<path d="M21.7498 50H5V45H20.4502C20.7 46.7498 21.1498 48.4 21.7498 50Z" fill="#FDA4AF"/>
<path d="M50 65H33.45C31.3502 63.5998 29.35 61.9 27.6999 60H35C39.1502 63.15 44.35 65 50 65Z" fill="#FB7185"/>
<path d="M33.45 65H0V60H27.6998C29.35 61.9 31.3502 63.5998 33.45 65Z" fill="#FDA4AF"/>
</svg>
