<svg width="62" height="54" viewBox="0 0 62 54" fill="none" xmlns="http://www.w3.org/2000/svg">
<path d="M58.856 39.0649L47.468 34.5099C47.3025 34.4441 47.1575 34.3352 47.0482 34.1946C46.9388 34.0539 46.869 33.8866 46.846 33.7099L46.468 30.685C48.435 29.678 50.0858 28.1475 51.2384 26.2621C52.391 24.3768 53.0006 22.2097 53 20V10.725C52.9981 8.97833 52.3441 7.29535 51.1662 6.00571C49.9883 4.71606 48.3713 3.91268 46.632 3.75295L45.341 1.17195C45.1039 0.711475 44.709 0.351695 44.2285 0.158356C43.748 -0.0349825 43.214 -0.04897 42.724 0.11895L35.316 2.76395C34.1116 3.21795 33.0199 3.92757 32.116 4.84395C33.3185 5.77718 34.2931 6.97164 34.966 8.33698C35.6388 9.70233 35.9924 11.2028 36 12.725V22C35.9968 24.6945 35.2653 27.338 33.883 29.651C34.404 30.0379 34.9555 30.382 35.532 30.68L35.154 33.7C35.1321 33.8776 35.0629 34.0461 34.9537 34.1878C34.8444 34.3296 34.6992 34.4395 34.533 34.506L32.539 35.306L39.971 38.2789C41.4587 38.8684 42.7343 39.8926 43.6314 41.2177C44.5285 42.5429 45.0054 44.1077 45 45.708V53C44.9958 53.338 44.948 53.6741 44.858 54H61C61.2652 54 61.5196 53.8946 61.7071 53.7071C61.8946 53.5195 62 53.2652 62 53V43.708C62.0035 42.7077 61.7053 41.7296 61.1444 40.9013C60.5836 40.0731 59.7861 39.4331 58.856 39.0649Z" fill="#002138"/>
<path d="M38.856 41.0649L27.468 36.5099C27.3025 36.4441 27.1575 36.3352 27.0482 36.1946C26.9388 36.0539 26.869 35.8866 26.846 35.7099L26.468 32.685C28.435 31.678 30.0858 30.1475 31.2384 28.2621C32.391 26.3768 33.0006 24.2097 33 22V12.725C32.9981 10.9783 32.3441 9.29535 31.1662 8.00571C29.9883 6.71606 28.3713 5.91268 26.632 5.75295L25.341 3.17195C25.1039 2.71148 24.709 2.3517 24.2285 2.15836C23.748 1.96502 23.214 1.95103 22.724 2.11895L15.316 4.76395C13.5194 5.50256 11.9708 6.73841 10.8521 8.32639C9.73329 9.91437 9.0908 11.7886 9 13.729V22C9.00033 24.2089 9.61036 26.3748 10.7629 28.2593C11.9154 30.1437 13.5657 31.6734 15.532 32.68L15.154 35.7C15.1321 35.8776 15.0629 36.0461 14.9537 36.1878C14.8444 36.3296 14.6992 36.4395 14.533 36.506L3.144 41.0649C2.21392 41.4331 1.41641 42.0731 0.855556 42.9013C0.2947 43.7296 -0.00345591 44.7077 -8.25565e-07 45.708V53C-8.25565e-07 53.2652 0.105356 53.5195 0.292892 53.7071C0.480429 53.8946 0.734783 54 0.999999 54H41C41.2652 54 41.5196 53.8946 41.7071 53.7071C41.8946 53.5195 42 53.2652 42 53V45.708C42.0035 44.7077 41.7053 43.7296 41.1444 42.9013C40.5836 42.0731 39.7861 41.4331 38.856 41.0649Z" fill="#0CA750"/>
</svg>
