<svg width="57" height="56" viewBox="0 0 57 56" fill="none" xmlns="http://www.w3.org/2000/svg">
<path d="M24.8083 43.9585C18.4249 44.2487 11.4611 44.1036 4.78757 43.6684C9.86529 51.0674 18.2798 56 28 56C28.1451 56 28.1451 56 28.2902 56C26.9845 52.3731 25.8238 48.1658 24.8083 43.9585Z" fill="#0CA750"/>
<path d="M28 0C12.4767 0 0 12.4767 0 28C0 31.6269 0.725389 35.1088 2.03109 38.3005C9.72021 38.8808 17.2642 39.171 23.7927 38.8808C21.4715 27.1295 20.8912 15.5233 25.9689 12.1865C31.1917 8.55959 38.0104 14.6529 42.6529 19.5855C48.8912 26.114 50.9223 31.4819 48.601 35.8342C46.2798 40.3316 39.0259 42.6529 30.0311 43.6684C30.9016 47.5855 32.0622 51.6477 33.513 55.5648C46.4249 53.0984 56.2902 41.7824 56.2902 28.1451C56 12.4767 43.3782 0 28 0Z" fill="#0CA750"/>
<path d="M43.9586 33.513C45.1192 31.3368 43.2332 27.5648 38.8808 23.0674C33.658 17.6995 30.6114 16.2487 29.3057 16.2487C29.0155 16.2487 28.8705 16.2487 28.7254 16.3938C26.4041 17.9896 26.6943 27.5648 28.7254 38.7358C36.7047 38.0104 42.5078 36.4145 43.9586 33.513Z" fill="#0CA750"/>
</svg>
