<svg width="173" height="32" viewBox="0 0 173 32" fill="none" xmlns="http://www.w3.org/2000/svg">
<g clip-path="url(#clip0)">
<path d="M44.882 23.3846C42.8307 21.3333 41.8461 18.7897 41.8461 15.7538C41.8461 12.7179 42.8307 10.1744 44.882 8.12308C46.9333 6.07179 49.4769 5.00513 52.5949 5.00513C56.3692 5.00513 59.6513 6.89231 61.4564 9.84615L57.9282 11.8974C56.8615 10.0103 54.8923 8.94359 52.5949 8.94359C50.6256 8.94359 48.9846 9.6 47.7538 10.8308C46.5231 12.0615 45.9487 13.7026 45.9487 15.7538C45.9487 17.7231 46.6051 19.3641 47.7538 20.5949C48.9846 21.8256 50.6256 22.482 52.5949 22.482C54.9743 22.482 56.9436 21.3333 57.9282 19.5282L61.4564 21.5795C59.6513 24.5333 56.3692 26.4205 52.5949 26.4205C49.4769 26.5026 46.9333 25.4359 44.882 23.3846Z" fill="white"/>
<path d="M76.1436 12.5538C77.2103 13.6205 77.7026 15.0974 77.7026 17.0667V26.0923H73.9282V17.4769C73.9282 15.5077 72.7795 14.441 70.9744 14.441C69.0051 14.441 67.7744 15.6718 67.7744 18.0513V26.0103H64V5.49744H67.7744V13.0462C68.6769 11.6513 70.1539 10.9949 72.1231 10.9949C73.7641 10.9128 75.0769 11.4872 76.1436 12.5538Z" fill="white"/>
<path d="M92.1436 11.3231H95.9179V26.0103H92.1436V24.2872C90.9949 25.7641 89.4359 26.4205 87.3846 26.4205C85.4154 26.4205 83.7744 25.6821 82.2974 24.2051C80.9026 22.7282 80.2462 20.841 80.2462 18.7077C80.2462 16.4923 80.9846 14.6872 82.2974 13.2103C83.6923 11.7334 85.4154 10.9128 87.3846 10.9128C89.4359 10.9128 90.9949 11.6513 92.1436 13.0462V11.3231ZM88.041 22.8923C89.1897 22.8923 90.1744 22.4821 90.9949 21.7436C91.8154 20.9231 92.1436 19.9385 92.1436 18.7077C92.1436 17.4769 91.7333 16.4923 90.9949 15.7539C90.2564 14.9334 89.2718 14.6051 88.041 14.6051C86.8923 14.6051 85.9077 15.0154 85.0872 15.7539C84.3487 16.4923 83.9385 17.559 83.9385 18.7077C83.9385 19.9385 84.3487 20.9231 85.0872 21.7436C85.9077 22.4821 86.8923 22.8923 88.041 22.8923Z" fill="white"/>
<path d="M98.9539 7.79487C98.9539 6.5641 100.021 5.49744 101.251 5.49744C102.564 5.49744 103.631 6.5641 103.631 7.79487C103.631 9.02564 102.564 10.0923 101.251 10.0923C100.021 10.0923 98.9539 9.02564 98.9539 7.79487ZM99.3641 11.3231H103.138V26.0103H99.3641V11.3231Z" fill="white"/>
<path d="M118.81 12.5539C119.877 13.6205 120.369 15.0975 120.369 17.0667V26.0923H116.595V17.4769C116.595 15.5077 115.446 14.441 113.641 14.441C111.672 14.441 110.441 15.6718 110.441 18.0513V26.0103H106.667V11.3231H110.441V12.9641C111.344 11.5693 112.821 10.9128 114.79 10.9128C116.431 10.9128 117.826 11.4872 118.81 12.5539Z" fill="white"/>
<path d="M131.528 5.49744C133.497 5.49744 135.138 6.15385 136.533 7.46667C137.846 8.77949 138.585 10.4205 138.585 12.3897C138.585 14.359 137.928 16 136.533 17.3128C135.138 18.6256 133.497 19.282 131.528 19.282H127.918V26.0923H123.815V5.49744H131.528ZM131.528 15.5077C133.251 15.5077 134.564 14.1949 134.564 12.3897C134.564 10.5846 133.333 9.2718 131.528 9.2718H127.918V15.5077H131.528Z" fill="white"/>
<path d="M151.221 11.3231H154.995V26.0103H151.221V24.2872C150.072 25.7641 148.513 26.4205 146.462 26.4205C144.492 26.4205 142.851 25.6821 141.374 24.2051C139.979 22.7282 139.323 20.841 139.323 18.7077C139.323 16.4923 140.062 14.6872 141.374 13.2103C142.769 11.7334 144.492 10.9128 146.462 10.9128C148.513 10.9128 150.072 11.6513 151.221 13.0462V11.3231ZM147.118 22.8923C148.267 22.8923 149.251 22.4821 150.072 21.7436C150.892 20.9231 151.221 19.9385 151.221 18.7077C151.221 17.4769 150.81 16.4923 150.072 15.7539C149.333 14.9334 148.349 14.6051 147.118 14.6051C145.969 14.6051 144.985 15.0154 144.164 15.7539C143.426 16.4923 143.015 17.559 143.015 18.7077C143.015 19.9385 143.426 20.9231 144.164 21.7436C144.985 22.4821 145.969 22.8923 147.118 22.8923Z" fill="white"/>
<path d="M168.041 11.3231H172.062L166.728 26.0103C165.169 30.277 162.708 32.0821 158.933 31.918V28.3898C160.985 28.3898 162.051 27.5693 162.79 25.6L156.718 11.3231H160.903L164.759 21.2513L168.041 11.3231Z" fill="white"/>
<path d="M14.0308 24.8615C10.4205 25.0256 6.48205 24.9436 2.70769 24.6974C5.57949 28.8821 10.3385 31.6718 15.8359 31.6718C15.9179 31.6718 15.9179 31.6718 16 31.6718C15.2615 29.6205 14.6051 27.241 14.0308 24.8615Z" fill="#0CA750"/>
<path d="M15.8359 0C7.05641 0 0 7.05641 0 15.8359C0 17.8872 0.410256 19.8564 1.14872 21.6615C5.49744 21.9897 9.7641 22.1538 13.4564 21.9897C12.1436 15.3436 11.8154 8.77949 14.6872 6.89231C17.641 4.84103 21.4974 8.28718 24.1231 11.0769C27.6513 14.7692 28.8 17.8051 27.4872 20.2667C26.1744 22.8103 22.0718 24.1231 16.9846 24.6974C17.4769 26.9128 18.1333 29.2103 18.9538 31.4256C26.2564 30.0308 31.8359 23.6308 31.8359 15.9179C31.6718 7.05641 24.5333 0 15.8359 0Z" fill="#0CA750"/>
<path d="M24.8615 18.9538C25.5179 17.7231 24.4513 15.5897 21.9897 13.0462C19.0359 10.0103 17.3128 9.18974 16.5744 9.18974C16.4103 9.18974 16.3282 9.18974 16.2462 9.2718C14.9333 10.1744 15.0974 15.5897 16.2462 21.9077C20.759 21.4974 24.041 20.5949 24.8615 18.9538Z" fill="#0CA750"/>
</g>
<defs>
<clipPath id="clip0">
<rect width="172.144" height="32" fill="white"/>
</clipPath>
</defs>
</svg>
