<?xml version="1.0" encoding="UTF-8"?>
<svg width="874px" height="870px" viewBox="0 0 874 870" version="1.1" xmlns="http://www.w3.org/2000/svg" xmlns:xlink="http://www.w3.org/1999/xlink">
    <title>Shape</title>
    <g id="Page-1" stroke="none" stroke-width="1" fill="none" fill-rule="evenodd">
        <g id="sharpe-logo" transform="translate(1.000000, 1.000000)" fill="#FFFFFF" fill-rule="nonzero" stroke="#0CA750">
            <path d="M680.809,519.314 L680.803,519.326 C669.649,541.647 641.698,559.041 600.94,572.26 C560.309,585.438 507.0758,594.427 445.41019,600.056 C429.7138,513.57 420.7486,433.287 420.1874,371.522 C419.9063,340.584 421.7342,314.311 425.8725,294.239 C427.9416,284.204 430.5853,275.733 433.8225,269.011 C437.061,262.285 440.8797,257.338 445.28336,254.308 L445.32117,254.282 L445.35364,254.25 C447.43423,252.168 449.4595,252.145 454.00003,252.145 C463.9746,252.145 480.7473,257.706 505.1946,273.732 C529.6233,289.746 561.658,316.172 602.142,357.805 C635.873,392.68 660.021,424.718 673.488,452.23 C686.965,479.761 689.694,502.645 680.809,519.314 Z M437.539,868 L437.534,868 L437.5236,868 L437.5132,868 L437.5029,868 L437.4926,868 L437.4824,868 L437.4722,868 L437.462,868 L437.4519,868 L437.4418,868 L437.4318,868 L437.4218,868 L437.4118,868 L437.4018,868 L437.3919,868 L437.382,868 L437.3722,868 L437.3624,868 L437.3527,868 L437.3429,868 L437.3333,868 L437.3236,868 L437.314,868 L437.3044,868 L437.2948,868 L437.2853,868 L437.2758,868 L437.2664,868 L437.257,868 L437.2476,868 L437.2383,868 L437.2289,868 L437.2197,868 L437.2104,868 L437.2012,868 L437.192,868 L437.1829,868 L437.1737,868 L437.1646,868 L437.1556,868 L437.1466,868 L437.1376,868 L437.1286,868 L437.1197,868 L437.1108,868 L437.1019,868 L437.0931,868 L437.0843,868 L437.0755,868 L437.0667,868 L437.058,868 L437.0493,868 L437.0407,868 L437.032,868 L437.0234,868 L437.0149,868 L437.0063,868 L436.9978,868 L436.9893,868 L436.9808,868 L436.9724,868 L436.964,868 L436.9556,868 L436.9472,868 L436.9389,868 L436.9306,868 L436.9223,868 L436.9141,868 L436.9058,868 L436.8976,868 L436.8895,868 L436.8813,868 L436.8732,868 L436.8651,868 L436.857,868 L436.8489,868 L436.8409,868 L436.8329,868 L436.8249,868 L436.817,868 L436.8091,868 L436.8011,868 L436.7932,868 L436.7854,868 L436.7775,868 L436.7697,868 L436.7619,868 L436.7542,868 L436.7464,868 L436.7386,868 L436.731,868 L436.7233,868 L436.7156,868 L436.7079,868 L436.7003,868 L436.6927,868 L436.6851,868 L436.6776,868 L436.67,868 L436.6625,868 L436.655,868 L436.6475,868 L436.64,868 L436.6325,868 L436.6251,868 L436.6177,868 L436.6103,868 L436.6029,868 L436.5956,868 L436.5882,868 L436.5809,868 L436.5736,868 L436.5663,868 L436.559,868 L436.5518,868 L436.5445,868 L436.5373,868 L436.5301,868 L436.5229,868 L436.5157,868 L436.5085,868 L436.5014,868 L436.4942,868 L436.4871,868 L436.48,868 L436.4729,868 L436.4659,868 L436.4588,868 L436.4517,868 L436.4447,868 L436.4377,868 L436.4307,868 L436.4236,868 L436.4167,868 L436.4097,868 L436.4027,868 L436.3958,868 L436.3889,868 L436.3819,868 L436.375,868 L436.3681,868 L436.3612,868 L436.3543,868 L436.3475,868 L436.3406,868 L436.3338,868 L436.3269,868 L436.3201,868 L436.3133,868 L436.3065,868 L436.2997,868 L436.2929,868 L436.2861,868 L436.2793,868 L436.2726,868 L436.2658,868 L436.2591,868 L436.2523,868 L436.2456,868 L436.2389,868 L436.2321,868 L436.2254,868 L436.2187,868 L436.212,868 L436.2053,868 L436.1986,868 L436.192,868 L436.1853,868 L436.1786,868 L436.172,868 L436.1653,868 L436.1587,868 L436.152,868 L436.1454,868 L436.1387,868 L436.1321,868 L436.1255,868 L436.1188,868 L436.1122,868 L436.1056,868 L436.099,868 L436.0924,868 L436.0858,868 L436.0791,868 L436.0725,868 L436.0659,868 L436.0593,868 L436.0527,868 L436.0461,868 L436.0396,868 L436.033,868 L436.0264,868 L436.0198,868 L436.0132,868 L436.0066,868 L436,868 L435.9934,868 L435.9868,868 L435.9802,868 L435.9736,868 L435.967,868 L435.9604,868 L435.9538,868 L435.9472,868 L435.9406,868 L435.934,868 L435.9274,868 L435.9208,868 L435.9142,868 L435.9076,868 L435.901,868 L435.8944,868 L435.8878,868 L435.8811,868 L435.8745,868 L435.8679,868 L435.8612,868 L435.8546,868 L435.848,868 L435.8413,868 L435.8347,868 L435.828,868 L435.8214,868 L435.8147,868 L435.808,868 L435.8013,868 L435.7946,868 L435.7879,868 L435.7812,868 L435.7745,868 L435.7678,868 L435.7611,868 L435.7544,868 L435.7477,868 L435.7409,868 L435.7342,868 L435.7274,868 L435.7206,868 L435.7139,868 L435.7071,868 L435.7003,868 L435.6935,868 L435.6867,868 L435.6799,868 L435.673,868 L435.6662,868 L435.6594,868 L435.6525,868 L435.6456,868 L435.6387,868 L435.6319,868 L435.6249,868 L435.618,868 L435.6111,868 L435.6042,868 L435.5972,868 L435.5903,868 L435.5833,868 L435.5763,868 L435.5693,868 L435.5623,868 L435.5553,868 L435.5482,868 L435.5412,868 L435.5341,868 L435.527,868 L435.52,868 L435.5128,868 L435.5057,868 L435.4986,868 L435.4915,868 L435.4843,868 L435.4771,868 L435.4699,868 L435.4627,868 L435.4555,868 L435.4482,868 L435.441,868 L435.4337,868 L435.4264,868 L435.4191,868 L435.4117,868 L435.4044,868 L435.3971,868 L435.3897,868 L435.3823,868 L435.3748,868 L435.3674,868 L435.36,868 L435.3525,868 L435.345,868 L435.3375,868 L435.33,868 L435.3224,868 L435.3148,868 L435.3073,868 L435.2997,868 L435.292,868 L435.2844,868 L435.2767,868 L435.269,868 L435.2613,868 L435.2536,868 L435.2458,868 L435.238,868 L435.2303,868 L435.2224,868 L435.2146,868 L435.2067,868 L435.1989,868 L435.1909,868 L435.183,868 L435.175,868 L435.1671,868 L435.1591,868 L435.151,868 L435.143,868 L435.1349,868 L435.1268,868 L435.1187,868 L435.1105,868 L435.1023,868 L435.0941,868 L435.0859,868 L435.0777,868 L435.0694,868 L435.0611,868 L435.0527,868 L435.0444,868 L435.036,868 L435.0276,868 L435.0192,868 L435.0107,868 L435.0022,868 L434.9937,868 L434.9851,868 L434.9765,868 L434.9679,868 L434.9593,868 L434.9507,868 L434.942,868 L434.9332,868 L434.9245,868 L434.9157,868 L434.9069,868 L434.898,868 L434.8892,868 L434.8803,868 L434.8713,868 L434.8624,868 L434.8534,868 L434.8444,868 L434.8353,868 L434.8262,868 L434.8171,868 L434.808,868 L434.7988,868 L434.7896,868 L434.7803,868 L434.771,868 L434.7617,868 L434.7524,868 L434.743,868 L434.7336,868 L434.7241,868 L434.7146,868 L434.7051,868 L434.6956,868 L434.686,868 L434.6764,868 L434.6667,868 L434.657,868 L434.6473,868 L434.6375,868 L434.6277,868 L434.6179,868 L434.608,868 L434.5981,868 L434.5882,868 L434.5782,868 L434.5682,868 L434.5582,868 L434.5481,868 L434.5379,868 L434.5278,868 L434.5176,868 L434.5073,868 L434.497,868 L434.4867,868 L434.4764,868 L434.466,868 L434.4555,868 L434.4451,868 L434.4345,868 L434.424,868 L434.4134,868 L434.4027,868 L434.3921,868 L434.3813,868 L434.3706,868 L434.3598,868 L434.349,868 L434.3381,868 L434.3272,868 L434.3162,868 L434.3052,868 L434.2942,868 L434.2831,868 L434.2719,868 L434.2607,868 L434.2495,868 L434.2383,868 L434.227,868 L434.2156,868 L434.2042,868 L434.1928,868 L434.1813,868 L434.1698,868 L434.1582,868 L434.1466,868 L434.1349,868 L434.1232,868 L434.1115,868 L434.0997,868 L434.0878,868 L434.0759,868 L434.064,868 L434.052,868 L434.04,868 L434.0279,868 L434.0158,868 L434.0036,868 L433.9914,868 L433.9791,868 L433.9668,868 L433.9545,868 L433.942,868 L433.9296,868 L433.9171,868 L433.9045,868 L433.8919,868 L433.8793,868 L433.8665,868 L433.8538,868 L433.841,868 L433.8282,868 L433.8152,868 L433.8023,868 L433.7893,868 L433.7762,868 L433.7631,868 L433.75,868 C283.548,868 153.469,791.924 74.746,677.706 C177.803,684.399 285.279,686.624 383.8607,682.161 C399.5273,747.064 417.4197,811.961 437.539,868 Z M0,434 C0,193.387 193.276,0 433.75,0 C671.971,0 867.503,193.386 872,436.257 C872,647.482 719.388,822.784 519.572,861.175 C497.2161,800.717 479.3115,738.039 465.8588,677.574 C535.4106,669.686 598.258,656.751 648.246,637.082 C698.354,617.365 735.61,590.853 753.692,555.804 C771.77,521.886 772.884,484.025 757.375,441.988 C741.873,399.967 709.76,353.759 661.364,303.082 C625.359,264.805 580.88,221.984 535.249,195.773 C489.6255,169.567 442.70691,159.892 401.9698,188.195 C382.1663,201.218 367.911,222.288 358.2206,249.366 C348.53,276.446 343.392,309.566 341.844,346.742 C338.755,420.937 349.959,511.373 367.8969,602.373 C266.896,606.828 150.252,602.338 31.346,593.367 C11.193,543.974 0,490.107 0,434 Z" id="Shape"></path>
        </g>
    </g>
</svg>