<svg width="173" height="32" viewBox="0 0 173 32" fill="none" xmlns="http://www.w3.org/2000/svg">
<path d="M44.983 23.4369C42.9271 21.3811 41.9403 18.8317 41.9403 15.789C41.9403 12.7463 42.9271 10.197 44.983 8.14108C47.0389 6.08518 49.5882 5.01611 52.7132 5.01611C56.4961 5.01611 59.7855 6.90754 61.5947 9.86803L58.0585 11.9239C56.9895 10.0325 55.0158 8.96343 52.7132 8.96343C50.7395 8.96343 49.0948 9.62132 47.8613 10.8549C46.6278 12.0884 46.0521 13.7331 46.0521 15.789C46.0521 17.7627 46.71 19.4074 47.8613 20.6409C49.0948 21.8745 50.7395 22.5324 52.7132 22.5324C55.098 22.5324 57.0717 21.3811 58.0585 19.5719L61.5947 21.6278C59.7855 24.5882 56.4961 26.4797 52.7132 26.4797C49.5882 26.5619 47.0389 25.4928 44.983 23.4369Z" fill="#0F172A"/>
<path d="M76.3149 12.582C77.3839 13.6511 77.8773 15.1314 77.8773 17.105V26.151H74.0945V17.5162C74.0945 15.5425 72.9432 14.4735 71.134 14.4735C69.1603 14.4735 67.9268 15.707 67.9268 18.0919V26.0687H64.144V5.50977H67.9268V13.0755C68.8314 11.6775 70.3116 11.0196 72.2853 11.0196C73.93 10.9373 75.2458 11.513 76.3149 12.582Z" fill="#0F172A"/>
<path d="M92.3509 11.3487H96.1337V26.0689H92.3509V24.3419C91.1996 25.8222 89.6371 26.4801 87.5812 26.4801C85.6076 26.4801 83.9628 25.7399 82.4826 24.2597C81.0846 22.7795 80.4267 20.888 80.4267 18.7499C80.4267 16.5295 81.1668 14.7203 82.4826 13.2401C83.8806 11.7599 85.6076 10.9375 87.5812 10.9375C89.6371 10.9375 91.1996 11.6776 92.3509 13.0756V11.3487ZM88.2391 22.9439C89.3904 22.9439 90.3772 22.5328 91.1996 21.7926C92.022 20.9703 92.3509 19.9834 92.3509 18.7499C92.3509 17.5164 91.9397 16.5295 91.1996 15.7894C90.4595 14.9671 89.4726 14.6381 88.2391 14.6381C87.0878 14.6381 86.101 15.0493 85.2786 15.7894C84.5385 16.5295 84.1273 17.5986 84.1273 18.7499C84.1273 19.9834 84.5385 20.9703 85.2786 21.7926C86.101 22.5328 87.0878 22.9439 88.2391 22.9439Z" fill="#0F172A"/>
<path d="M99.1765 7.81237C99.1765 6.57883 100.246 5.50977 101.479 5.50977C102.795 5.50977 103.864 6.57883 103.864 7.81237C103.864 9.04591 102.795 10.115 101.479 10.115C100.246 10.115 99.1765 9.04591 99.1765 7.81237ZM99.5877 11.3485H103.371V26.0687H99.5877V11.3485Z" fill="#0F172A"/>
<path d="M119.078 12.5822C120.147 13.6513 120.64 15.1315 120.64 17.1052V26.1511H116.857V17.5164C116.857 15.5427 115.706 14.4736 113.897 14.4736C111.923 14.4736 110.689 15.7072 110.689 18.092V26.0689H106.907V11.3487H110.689V12.9934C111.594 11.5954 113.074 10.9375 115.048 10.9375C116.693 10.9375 118.091 11.5132 119.078 12.5822Z" fill="#0F172A"/>
<path d="M131.824 5.50977C133.798 5.50977 135.442 6.16765 136.84 7.48343C138.156 8.7992 138.896 10.4439 138.896 12.4176C138.896 14.3912 138.238 16.036 136.84 17.3517C135.442 18.6675 133.798 19.3254 131.824 19.3254H128.206V26.151H124.094V5.50977H131.824ZM131.824 15.5425C133.551 15.5425 134.867 14.2268 134.867 12.4176C134.867 10.6084 133.633 9.29261 131.824 9.29261H128.206V15.5425H131.824Z" fill="#0F172A"/>
<path d="M151.561 11.3487H155.344V26.0689H151.561V24.3419C150.409 25.8222 148.847 26.4801 146.791 26.4801C144.817 26.4801 143.173 25.7399 141.692 24.2597C140.294 22.7795 139.636 20.888 139.636 18.7499C139.636 16.5295 140.377 14.7203 141.692 13.2401C143.09 11.7599 144.817 10.9375 146.791 10.9375C148.847 10.9375 150.409 11.6776 151.561 13.0756V11.3487ZM147.449 22.9439C148.6 22.9439 149.587 22.5328 150.409 21.7926C151.232 20.9703 151.561 19.9834 151.561 18.7499C151.561 17.5164 151.15 16.5295 150.409 15.7894C149.669 14.9671 148.682 14.6381 147.449 14.6381C146.298 14.6381 145.311 15.0493 144.488 15.7894C143.748 16.5295 143.337 17.5986 143.337 18.7499C143.337 19.9834 143.748 20.9703 144.488 21.7926C145.311 22.5328 146.298 22.9439 147.449 22.9439Z" fill="#0F172A"/>
<path d="M168.419 11.3486H172.449L167.103 26.0689C165.541 30.3451 163.074 32.1543 159.291 31.9898V28.4537C161.347 28.4537 162.416 27.6313 163.156 25.6577L157.07 11.3486H161.265L165.13 21.2992L168.419 11.3486Z" fill="#0F172A"/>
<path d="M14.0623 24.9175C10.444 25.0819 6.49663 24.9997 2.71378 24.753C5.59204 28.947 10.3617 31.743 15.8715 31.743C15.9538 31.743 15.9538 31.743 16.036 31.743C15.2959 29.6871 14.638 27.3023 14.0623 24.9175Z" fill="#0CA750"/>
<path d="M15.8715 0C7.07228 0 0 7.07228 0 15.8715C0 17.9274 0.411179 19.9011 1.1513 21.7103C5.5098 22.0392 9.78607 22.2037 13.4867 22.0392C12.1709 15.3781 11.842 8.79924 14.7202 6.90781C17.6807 4.85192 21.5458 8.30582 24.1773 11.1018C27.7135 14.8025 28.8648 17.8452 27.549 20.3123C26.2332 22.8616 22.1214 24.1773 17.0228 24.753C17.5162 26.9734 18.1741 29.276 18.9965 31.4963C26.3155 30.0983 31.9075 23.6839 31.9075 15.9538C31.743 7.07228 24.5885 0 15.8715 0Z" fill="#0CA750"/>
<path d="M24.9175 18.9965C25.5754 17.7629 24.5063 15.6248 22.0392 13.0755C19.0787 10.0328 17.3518 9.21042 16.6116 9.21042C16.4472 9.21042 16.3649 9.21042 16.2827 9.29265C14.9669 10.1972 15.1314 15.6248 16.2827 21.957C20.8057 21.5458 24.0951 20.6412 24.9175 18.9965Z" fill="#0CA750"/>
</svg>
