<svg width="194" height="36" viewBox="0 0 194 36" fill="none" xmlns="http://www.w3.org/2000/svg">
<path d="M50.4925 26.3078C48.1848 24.0001 47.0771 21.1386 47.0771 17.7232C47.0771 14.3078 48.1848 11.4462 50.4925 9.13855C52.8002 6.83086 55.6617 5.63086 59.1694 5.63086C63.4156 5.63086 67.1079 7.75394 69.1386 11.077L65.1694 13.3847C63.9694 11.2616 61.754 10.0616 59.1694 10.0616C56.954 10.0616 55.1079 10.8001 53.7232 12.1847C52.3386 13.5693 51.6925 15.4155 51.6925 17.7232C51.6925 19.9386 52.4309 21.7847 53.7232 23.1693C55.1079 24.5539 56.954 25.2924 59.1694 25.2924C61.8463 25.2924 64.0617 24.0001 65.1694 21.9693L69.1386 24.277C67.1079 27.6001 63.4156 29.7232 59.1694 29.7232C55.6617 29.8155 52.8002 28.6155 50.4925 26.3078Z" fill="white"/>
<path d="M85.6615 14.123C86.8615 15.323 87.4154 16.9846 87.4154 19.2V29.3538H83.1692V19.6615C83.1692 17.4461 81.8769 16.2461 79.8462 16.2461C77.6308 16.2461 76.2462 17.6307 76.2462 20.3076V29.2615H72V6.18457H76.2462V14.6769C77.2615 13.1076 78.9231 12.3692 81.1385 12.3692C82.9846 12.2769 84.4615 12.923 85.6615 14.123Z" fill="white"/>
<path d="M103.661 12.7369H107.908V29.26H103.661V27.3215C102.369 28.9831 100.615 29.7215 98.3076 29.7215C96.0922 29.7215 94.2461 28.8908 92.5845 27.2292C91.0153 25.5677 90.2768 23.4446 90.2768 21.0446C90.2768 18.5523 91.1076 16.5215 92.5845 14.86C94.1537 13.1985 96.0922 12.2754 98.3076 12.2754C100.615 12.2754 102.369 13.1062 103.661 14.6754V12.7369ZM99.0461 25.7523C100.338 25.7523 101.446 25.2908 102.369 24.46C103.292 23.5369 103.661 22.4292 103.661 21.0446C103.661 19.66 103.2 18.5523 102.369 17.7215C101.538 16.7985 100.431 16.4292 99.0461 16.4292C97.7537 16.4292 96.646 16.8908 95.723 17.7215C94.8922 18.5523 94.4307 19.7523 94.4307 21.0446C94.4307 22.4292 94.8922 23.5369 95.723 24.46C96.646 25.2908 97.7537 25.7523 99.0461 25.7523Z" fill="white"/>
<path d="M111.324 8.76919C111.324 7.38457 112.524 6.18457 113.908 6.18457C115.385 6.18457 116.585 7.38457 116.585 8.76919C116.585 10.1538 115.385 11.3538 113.908 11.3538C112.524 11.3538 111.324 10.1538 111.324 8.76919ZM111.785 12.7384H116.031V29.2615H111.785V12.7384Z" fill="white"/>
<path d="M133.662 14.1215C134.862 15.3215 135.415 16.9831 135.415 19.1985V29.3523H131.169V19.66C131.169 17.4446 129.877 16.2446 127.846 16.2446C125.631 16.2446 124.246 17.6292 124.246 20.3062V29.26H120V12.7369H124.246V14.5831C125.262 13.0139 126.923 12.2754 129.139 12.2754C130.985 12.2754 132.554 12.9215 133.662 14.1215Z" fill="white"/>
<path d="M147.969 6.18457C150.184 6.18457 152.03 6.92303 153.6 8.39996C155.077 9.87688 155.907 11.723 155.907 13.9384C155.907 16.1538 155.169 18 153.6 19.4769C152.03 20.9538 150.184 21.6923 147.969 21.6923H143.907V29.3538H139.292V6.18457H147.969ZM147.969 17.4461C149.907 17.4461 151.384 15.9692 151.384 13.9384C151.384 11.9076 150 10.4307 147.969 10.4307H143.907V17.4461H147.969Z" fill="white"/>
<path d="M170.124 12.7369H174.37V29.26H170.124V27.3215C168.832 28.9831 167.078 29.7215 164.77 29.7215C162.555 29.7215 160.709 28.8908 159.047 27.2292C157.478 25.5677 156.74 23.4446 156.74 21.0446C156.74 18.5523 157.57 16.5215 159.047 14.86C160.617 13.1985 162.555 12.2754 164.77 12.2754C167.078 12.2754 168.832 13.1062 170.124 14.6754V12.7369ZM165.509 25.7523C166.801 25.7523 167.909 25.2908 168.832 24.46C169.755 23.5369 170.124 22.4292 170.124 21.0446C170.124 19.66 169.663 18.5523 168.832 17.7215C168.001 16.7985 166.894 16.4292 165.509 16.4292C164.217 16.4292 163.109 16.8908 162.186 17.7215C161.355 18.5523 160.894 19.7523 160.894 21.0446C160.894 22.4292 161.355 23.5369 162.186 24.46C163.109 25.2908 164.217 25.7523 165.509 25.7523Z" fill="white"/>
<path d="M189.047 12.7383H193.57L187.57 29.2614C185.816 34.0614 183.047 36.0921 178.801 35.9075V31.9383C181.109 31.9383 182.309 31.0152 183.139 28.7998L176.309 12.7383H181.016L185.355 23.9075L189.047 12.7383Z" fill="white"/>
<path d="M15.7846 27.9692C11.7231 28.1538 7.29231 28.0615 3.04615 27.7846C6.27692 32.4923 11.6308 35.6308 17.8154 35.6308C17.9077 35.6308 17.9077 35.6308 18 35.6308C17.1692 33.3231 16.4308 30.6462 15.7846 27.9692Z" fill="white"/>
<path d="M17.8154 0C7.93846 0 0 7.93846 0 17.8154C0 20.1231 0.461538 22.3385 1.29231 24.3692C6.18462 24.7385 10.9846 24.9231 15.1385 24.7385C13.6615 17.2615 13.2923 9.87692 16.5231 7.75385C19.8462 5.44615 24.1846 9.32308 27.1385 12.4615C31.1077 16.6154 32.4 20.0308 30.9231 22.8C29.4462 25.6615 24.8308 27.1385 19.1077 27.7846C19.6615 30.2769 20.4 32.8615 21.3231 35.3538C29.5385 33.7846 35.8154 26.5846 35.8154 17.9077C35.6308 7.93846 27.6 0 17.8154 0Z" fill="white"/>
<path d="M27.9692 21.3231C28.7077 19.9385 27.5077 17.5385 24.7385 14.6769C21.4154 11.2615 19.4769 10.3385 18.6462 10.3385C18.4615 10.3385 18.3692 10.3385 18.2769 10.4308C16.8 11.4462 16.9846 17.5385 18.2769 24.6462C23.3538 24.1846 27.0462 23.1692 27.9692 21.3231Z" fill="white"/>
</svg>
