<svg id="facebook" xmlns="http://www.w3.org/2000/svg" width="16.717" height="30.648" viewBox="0 0 16.717 30.648">
  <path id="Path" d="M11.9,7.587c.04-.048.23-.2.967-.2H15.29A1.457,1.457,0,0,0,16.717,5.9V1.491A1.457,1.457,0,0,0,15.29.006L11.693,0A7.254,7.254,0,0,0,6.232,2.2,8.28,8.28,0,0,0,4.178,8v2.377H1.427A1.457,1.457,0,0,0,0,11.863v4.743a1.457,1.457,0,0,0,1.427,1.485H4.178V29.163A1.457,1.457,0,0,0,5.6,30.648h4.719a1.457,1.457,0,0,0,1.427-1.485V18.1h3.366a1.457,1.457,0,0,0,1.427-1.485V11.869a1.5,1.5,0,0,0-.737-1.3,1.439,1.439,0,0,0-.708-.186H11.745V8.5C11.751,7.887,11.831,7.665,11.9,7.587Z" fill="#fff"/>
</svg>
