<?xml version="1.0" encoding="UTF-8"?>
<svg width="32px" height="32px" viewBox="0 0 32 32" version="1.1" xmlns="http://www.w3.org/2000/svg" xmlns:xlink="http://www.w3.org/1999/xlink">
    <title>instagram-white</title>
    <g id="Page-1" stroke="none" stroke-width="1" fill="none" fill-rule="evenodd">
        <g id="instagram-white" fill="#FFFFFF" fill-rule="nonzero">
            <path d="M15.5,10.3326875 C12.6464245,10.3337575 10.3339119,12.6477157 10.3346248,15.5012912 C10.3353384,18.3548667 12.6490075,20.6676686 15.5025831,20.6673121 C18.3561587,20.6669556 20.66925,18.3535757 20.66925,15.5 C20.6671118,12.6463018 18.3536988,10.3337559 15.5,10.3326875 L15.5,10.3326875 Z M27.5812813,6.3608125 C27.049552,5.01328018 25.9828448,3.94657296 24.6353125,3.41484375 C22.6009375,2.61175 17.7571875,2.7919375 15.5,2.7919375 C13.2428125,2.7919375 8.40390625,2.60496875 6.36371875,3.41484375 C5.01618643,3.94657296 3.94947921,5.01328018 3.41775,6.3608125 C2.615625,8.3951875 2.79484375,13.2437813 2.79484375,15.4990313 C2.79484375,17.7542812 2.615625,22.5970625 3.421625,24.6382188 C3.95335421,25.9857511 5.02006143,27.0524583 6.36759375,27.5841875 C8.40196875,28.3872812 13.2457188,28.2070938 15.503875,28.2070938 C17.7620313,28.2070938 22.599,28.3940625 24.6391875,27.5841875 C25.9867198,27.0524583 27.053427,25.9857511 27.5851563,24.6382188 C28.3940625,22.6038438 28.2080625,17.75525 28.2080625,15.5 C28.2080625,13.24475 28.3940625,8.4029375 27.5851563,6.36178125 L27.5812813,6.3608125 Z M15.5,23.4437618 C11.1127881,23.4437618 7.55625,19.8872119 7.55625,15.5 C7.55625,11.1127881 11.1127881,7.55625 15.5,7.55625 C19.8872119,7.55625 23.4437618,11.1127881 23.4437618,15.5 C23.4463249,17.6076018 22.6102235,19.6296222 21.1199229,21.1199229 C19.6296222,22.6102235 17.6076018,23.4463249 15.5,23.4437618 L15.5,23.4437618 Z M23.7711875,9.0771875 C23.0211506,9.07757937 22.3447493,8.62606963 22.057451,7.93323835 C21.7701528,7.24040707 21.92855,6.44272913 22.4587676,5.91223433 C22.9889852,5.38173954 23.7865804,5.22292549 24.4795616,5.50986164 C25.172543,5.79679777 25.6244385,6.47296302 25.6244385,7.223 C25.6264667,7.71490696 25.4325666,8.18738741 25.0855518,8.53603825 C24.738537,8.88468909 24.2669737,9.08080927 23.7750625,9.0810625 L23.7711875,9.0771875 Z M30.8915,21.89375 C30.7665312,24.3766562 30.1998125,26.5766875 28.3872812,28.384375 C26.57475,30.1920625 24.3766562,30.7704063 21.8966562,30.8885938 C19.3381875,31.0329375 11.667625,31.0329375 9.10915625,30.8885938 C6.62625,30.763625 4.43396875,30.1959375 2.61853125,28.384375 C0.80309375,26.5728125 0.2325,24.3718125 0.1143125,21.89375 C-0.03003125,19.3343125 -0.03003125,11.6627813 0.1143125,9.10625 C0.23928125,6.62334375 0.79921875,4.4233125 2.61853125,2.615625 C4.43784375,0.8079375 6.6359375,0.236375 9.10915625,0.1181875 C11.667625,-0.02615625 19.3381875,-0.02615625 21.8966562,0.1181875 C24.3795625,0.24315625 26.578625,0.81084375 28.3872812,2.62240625 C30.1959375,4.43396875 30.7733125,6.63496875 30.8915,9.117875 C31.0358438,11.667625 31.0358438,19.332375 30.8915,21.89375 Z" id="Shape"></path>
        </g>
    </g>
</svg>