<svg xmlns="http://www.w3.org/2000/svg" width="454.907" height="464.684" viewBox="0 0 454.907 464.684">
  <g id="Atc_Logo_Full_Color_RGB" transform="translate(-1 -1)">
    <path id="fullLogo" d="M339.471,266.542A146.388,146.388,0,1,1,218.41,98.608,146.388,146.388,0,0,1,339.471,266.542Z" transform="translate(21.445 43.148)" fill="#ebab21"/>
    <path id="fullLogo-2" data-name="fullLogo" d="M174.622,233.595c-.84,11.412-9.963,22.409-21.258,20.577l-1-.162c-11.295-1.832-16.474-15.148-13.664-26.241,6.264-24.754,23.323-73.964,30.3-95.3,1.458-4.445,6.916-1.975,6.865,1.876C175.517,160.594,176.5,208.131,174.622,233.595Z" transform="translate(61.747 58.206)" fill="#462e8d"/>
    <rect id="fullLogo-3" data-name="fullLogo" width="21.967" height="13.18" transform="translate(228.476 175.945) rotate(-80.787)" fill="#462e8d"/>
    <rect id="fullLogo-4" data-name="fullLogo" width="12.647" height="22.132" transform="matrix(0.811, -0.585, 0.585, 0.811, 133.985, 181.874)" fill="#462e8d"/>
    <rect id="fullLogo-5" data-name="fullLogo" width="13.18" height="24.163" transform="translate(83.721 272.637) rotate(-80.787)" fill="#462e8d"/>
    <rect id="fullLogo-6" data-name="fullLogo" width="22.132" height="12.647" transform="matrix(0.811, -0.585, 0.585, 0.811, 105.351, 358.426)" fill="#462e8d"/>
    <rect id="fullLogo-7" data-name="fullLogo" width="21.967" height="13.18" transform="translate(189.439 416.63) rotate(-80.787)" fill="#462e8d"/>
    <rect id="fullLogo-8" data-name="fullLogo" width="12.648" height="22.131" transform="translate(276.353 379.365) rotate(-35.787)" fill="#462e8d"/>
    <rect id="fullLogo-9" data-name="fullLogo" width="13.18" height="21.967" transform="translate(324.407 311.675) rotate(-80.787)" fill="#462e8d"/>
    <rect id="fullLogo-10" data-name="fullLogo" width="22.131" height="12.648" transform="translate(302.84 216.051) rotate(-35.774)" fill="#462e8d"/>
    <path id="fullLogo-11" data-name="fullLogo" d="M202.335,155.2a86.371,86.371,0,0,1-13.838-1.12c-44.361-7.2-74.924-47.131-68.129-89.025S168.782-5.075,213.143,2.12A83.517,83.517,0,0,1,266.1,33.227a74.357,74.357,0,0,1,15.168,57.921C275.19,128.644,241.208,155.2,202.335,155.2ZM199.284,41.757c-19.23,0-35.847,12.3-38.688,29.819a34.039,34.039,0,0,0,7.337,26.688,43,43,0,0,0,27.089,15.581c22.179,3.6,42.824-9.511,46.021-29.221S228.8,45.948,206.618,42.351a45.806,45.806,0,0,0-7.334-.594Z" transform="translate(53.394 0)" fill="#fff"/>
    <path id="fullLogo-12" data-name="fullLogo" d="M206.967,432.179A178.434,178.434,0,1,1,382.99,282.3,178.434,178.434,0,0,1,206.967,432.179Zm-.3-309.814a131.445,131.445,0,1,0,21.224,1.718,131.445,131.445,0,0,0-21.224-1.718Z" transform="translate(12.359 33.504)" fill="#fff"/>
    <path id="fullLogo-13" data-name="fullLogo" d="M88.951,152.5,77.407,136.489a23.642,23.642,0,0,1-18.048-9.865,24.437,24.437,0,0,1-4.553-17.489,23.381,23.381,0,0,1,9.677-16.05L84.579,78.6a23.381,23.381,0,0,1,18.287-4.106,24.428,24.428,0,0,1,15.146,9.841h0a23.637,23.637,0,0,1,3.663,20.248l11.538,16.009Z" transform="translate(24.175 32.943)" fill="#fff"/>
    <path id="fullLogo-14" data-name="fullLogo" d="M212.645,139.444,143.7,128.262l12.941-79.786,68.945,11.182Zm-36.7-34.428L189.4,107.2,193.34,82.9l-13.452-2.182Z" transform="translate(64.34 21.406)" fill="#fff"/>
    <path id="fullLogo-15" data-name="fullLogo" d="M222.375,106.092a17.246,17.246,0,0,1-2.762-.223l-65.32-10.595a17.235,17.235,0,0,1-14.236-19.75l5.67-34.956A17.235,17.235,0,0,1,165.475,26.33l65.317,10.594a17.216,17.216,0,0,1,14.236,19.75L239.358,91.63A17.244,17.244,0,0,1,222.375,106.092ZM169.546,69.272l43.809,7.106,2.182-13.453L171.728,55.82Z" transform="translate(62.597 11.321)" fill="#fff"/>
    <path id="fullLogo-16" data-name="fullLogo" d="M186.379,135.835c-36.712-5.954-62.06-38.661-56.506-72.9s39.941-57.262,76.652-51.308,62.06,38.661,56.506,72.905S223.091,141.789,186.379,135.835ZM204.5,24.11c-29.829-4.838-57.707,13.485-62.145,40.848s16.219,53.554,46.049,58.392,57.707-13.485,62.144-40.844S234.33,28.948,204.5,24.11Z" transform="translate(57.762 4.368)" fill="#462e8d"/>
    <path id="fullLogo-17" data-name="fullLogo" d="M176.181,411.627A164.371,164.371,0,1,1,364.748,275.69,164.371,164.371,0,0,1,176.181,411.627Zm49.6-305.778a145.4,145.4,0,1,0,120.247,166.8A145.4,145.4,0,0,0,225.776,105.849Z" transform="translate(16.728 37.865)" fill="#462e8d"/>
    <path id="fullLogo-18" data-name="fullLogo" d="M102.253,88.177A9.667,9.667,0,0,0,88.44,85.623l-20.1,14.492A9.668,9.668,0,0,0,66.4,114.026,10.16,10.16,0,0,0,79.406,116.9l8.368,11.606,21.462-15.474-8.364-11.606a10.156,10.156,0,0,0,1.38-13.25Z" transform="translate(28.532 37.317)" fill="#462e8d"/>
    <rect id="fullLogo-19" data-name="fullLogo" width="52.72" height="41.737" transform="translate(224.165 138.045) rotate(-80.787)" fill="#462e8d"/>
    <path id="fullLogo-20" data-name="fullLogo" d="M3.162,0H38.577a3.16,3.16,0,0,1,3.16,3.16V69.328a3.162,3.162,0,0,1-3.162,3.162H3.162A3.162,3.162,0,0,1,0,69.328V3.162A3.162,3.162,0,0,1,3.162,0Z" transform="translate(216.02 92.216) rotate(-80.787)" fill="#462e8d"/>
    <path id="fullLogo-21" data-name="fullLogo" d="M31.447,252.463A26.233,26.233,0,0,1,5.561,230.475a26.234,26.234,0,0,1-4.317-18.348l1.094-7.975a26.253,26.253,0,0,1,1.213-5.059,26.229,26.229,0,0,1,.2-4.461l1.034-7.894a26.212,26.212,0,0,1,8.628-16.24A26.234,26.234,0,0,1,34.19,151.487l8.794-1.551a26.3,26.3,0,0,1,2.724-.335,26.317,26.317,0,0,1,2.677-.617l8.793-1.551A26.233,26.233,0,0,1,87.619,169.01a26.235,26.235,0,0,1,4.461,18.113l-.966,7.883a26.252,26.252,0,0,1-1.261,5.432,26.236,26.236,0,0,1-.193,4.394L88.637,212.8a26.212,26.212,0,0,1-8.98,16.6A26.235,26.235,0,0,1,58.992,248.01L50.2,249.561a26.242,26.242,0,0,1-2.724.335,26.313,26.313,0,0,1-2.677.617L36,252.064a26.244,26.244,0,0,1-4.558.4Z" transform="translate(0 65.844)" fill="#fff"/>
    <path id="fullLogo-22" data-name="fullLogo" d="M58.437,247.264a26.233,26.233,0,0,1-25.813-30.9l8.889-49.189a26.233,26.233,0,0,1,21.259-21.168l17.588-3.1a26.233,26.233,0,0,1,27.217,12.62l25.179,43.182a26.232,26.232,0,0,1-18.106,39.048l-15.164,2.675a26.183,26.183,0,0,1-11.07-.422,26.182,26.182,0,0,1-10.258,4.182l-15.165,2.673A26.247,26.247,0,0,1,58.437,247.264Z" transform="translate(14.07 63.802)" fill="#fff"/>
    <path id="fullLogo-23" data-name="fullLogo" d="M114.479,237.87c-24.868,0-45.486-16.562-49.9-41.583-5-28.348,13.264-53.609,42.478-58.76h0c18.594-3.279,36.347,3.232,47.482,17.417a26.231,26.231,0,0,1,5.45,13.415,26.268,26.268,0,0,1,2.083,6.6l3.273,18.557A26.233,26.233,0,0,1,161.739,212a53.759,53.759,0,0,1-37.146,24.974A58.253,58.253,0,0,1,114.479,237.87Z" transform="translate(28.296 61.18)" fill="#fff"/>
    <path id="fullLogo-24" data-name="fullLogo" d="M126.014,235.348a26.233,26.233,0,0,1-25.813-30.9l8.891-49.19a26.232,26.232,0,0,1,21.26-21.168l17.588-3.1a26.233,26.233,0,0,1,27.217,12.621l25.178,43.182a26.232,26.232,0,0,1-18.107,39.047l-15.165,2.674a26.181,26.181,0,0,1-11.07-.422,26.179,26.179,0,0,1-10.257,4.182l-15.163,2.674a26.225,26.225,0,0,1-4.557.4Z" transform="translate(44.539 58.43)" fill="#fff"/>
    <path id="fullLogo-25" data-name="fullLogo" d="M166.344,227.554a26.233,26.233,0,0,1-25.834-21.677l-8.144-46.186A26.233,26.233,0,0,1,153.644,129.3l13.987-2.466a26.233,26.233,0,0,1,30.39,21.278l8.144,46.186a26.232,26.232,0,0,1-21.278,30.389L170.9,227.155a26.223,26.223,0,0,1-4.556.4Z" transform="translate(59.048 56.554)" fill="#fff"/>
    <path id="fullLogo-26" data-name="fullLogo" d="M181.615,226.53a26.233,26.233,0,0,1-25.834-21.678l-8.143-46.186a26.233,26.233,0,0,1,21.28-30.389l14.4-2.539a26.218,26.218,0,0,1,8.257-.136,26.225,26.225,0,0,1,7.807-2.7l13.987-2.466a26.232,26.232,0,0,1,30.389,21.279l8.144,46.186a26.233,26.233,0,0,1-21.278,30.389l-13.433,2.369a26.216,26.216,0,0,1-8.774.058,26.222,26.222,0,0,1-8.262,2.945l-13.988,2.467a26.228,26.228,0,0,1-4.555.4Z" transform="translate(65.934 53.67)" fill="#fff"/>
    <path id="fullLogo-27" data-name="fullLogo" d="M228.458,217.406a54.189,54.189,0,0,1-29.263-8.232,26.235,26.235,0,0,1-10.725-31.252,40.37,40.37,0,0,1,4.385-44.553c6.964-8.507,17.091-14.14,29.283-16.29A56.894,56.894,0,0,1,260.224,123a26.244,26.244,0,0,1,12.8,28.676,38.387,38.387,0,0,1,5.792,14.676c4.348,24.672-11.438,45.219-38.388,49.971A68.893,68.893,0,0,1,228.458,217.406Z" transform="translate(82.387 51.869)" fill="#fff"/>
    <path id="fullLogo-28" data-name="fullLogo" d="M258.295,212.7a26.233,26.233,0,0,1-25.834-21.677l-2.1-11.932A26.215,26.215,0,0,1,214.071,159.2l-2.149-12.186a26.232,26.232,0,0,1,21.279-30.39l38.708-6.825A26.232,26.232,0,0,1,302.3,131.08l2.149,12.187a26.233,26.233,0,0,1-8.443,24.2l2.112,11.979a26.233,26.233,0,0,1-21.278,30.389L262.851,212.3a26.241,26.241,0,0,1-4.556.4Z" transform="translate(94.918 48.875)" fill="#fff"/>
    <path id="fullLogo-29" data-name="fullLogo" d="M51.108,292.284a26.24,26.24,0,0,1-25.8-21.682l-2.1-11.935A26.234,26.234,0,0,1,6.916,238.79L4.767,226.6a26.233,26.233,0,0,1,21.278-30.39l38.708-6.826a26.233,26.233,0,0,1,30.389,21.278l2.149,12.187a26.234,26.234,0,0,1-8.443,24.2l2.112,11.979a26.232,26.232,0,0,1-21.28,30.389l-13.987,2.467A26.414,26.414,0,0,1,51.108,292.284Z" transform="translate(1.517 84.757)" fill="#fff"/>
    <path id="fullLogo-30" data-name="fullLogo" d="M69.335,289.39A26.233,26.233,0,0,1,43.5,267.712l-8.143-46.187a26.233,26.233,0,0,1,21.279-30.389l13.986-2.466a26.215,26.215,0,0,1,8.514-.105,26.192,26.192,0,0,1,8.036-2.813l13.986-2.466a26.232,26.232,0,0,1,30.389,21.279l8.144,46.187a26.232,26.232,0,0,1-21.279,30.389l-13.987,2.466a26.231,26.231,0,0,1-8.5.1,26.2,26.2,0,0,1-8.047,2.818l-13.987,2.467A26.228,26.228,0,0,1,69.335,289.39Z" transform="translate(15.31 82.006)" fill="#fff"/>
    <path id="fullLogo-31" data-name="fullLogo" d="M105.651,282.467a26.233,26.233,0,0,1-25.834-21.678L71.674,214.6a26.232,26.232,0,0,1,21.279-30.389l35.036-6.178a26.233,26.233,0,0,1,30.389,21.278l2.052,11.634a26.22,26.22,0,0,1,.393,5.084c.026.133.05.268.074.4l2.052,11.633q.074.418.134.836a26.231,26.231,0,0,1,1.39,4.967l2.05,11.634a26.232,26.232,0,0,1-21.279,30.387l-35.038,6.178A26.235,26.235,0,0,1,105.651,282.467Z" transform="translate(31.684 79.639)" fill="#fff"/>
    <path id="fullLogo-32" data-name="fullLogo" d="M164.38,272.139a51.4,51.4,0,0,1-28.1-8.171A50.845,50.845,0,0,1,123.534,191.6a52.461,52.461,0,0,1,33.048-19.767c20.3-3.58,39.04,4.28,50.124,21.026a26.169,26.169,0,0,1,3.6,20.734A26.168,26.168,0,0,1,214,234.383c-4.751,19.539-19.659,33.332-39.879,36.9A56.073,56.073,0,0,1,164.38,272.139Zm-1.269-50.13,2.642.642a3.062,3.062,0,0,0,.353-1.238,3.113,3.113,0,0,0-.835-1.125l-2.159,1.429a1.7,1.7,0,0,0-.076.2Q163.071,221.965,163.111,222.009Zm3.024-.5Z" transform="translate(50.803 76.642)" fill="#fff"/>
    <path id="fullLogo-33" data-name="fullLogo" d="M180.959,268.034a26.233,26.233,0,0,1-25.834-21.677l-8.144-46.187a26.233,26.233,0,0,1,21.278-30.389l13.987-2.466a26.233,26.233,0,0,1,30.39,21.278l1.683,9.541a26.232,26.232,0,0,1,21.832,21.372l2.147,12.187a26.233,26.233,0,0,1-21.278,30.387l-31.505,5.556a26.236,26.236,0,0,1-4.556.4Z" transform="translate(65.638 74.805)" fill="#fff"/>
    <path id="fullLogo-34" data-name="fullLogo" d="M223.12,261.79c-24.814,0-45.4-16.572-49.812-41.6-5-28.349,13.205-53.6,42.339-58.737h0a52.787,52.787,0,0,1,37.914,7.231,50.694,50.694,0,0,1,12.776,72.454A52.785,52.785,0,0,1,233.182,260.9,57.934,57.934,0,0,1,223.12,261.79Zm2.618-48.725ZM224.2,209.98a2.875,2.875,0,0,0-.339,1.362,2.764,2.764,0,0,0,.757,1.039l0-.007Zm0,0,.422,2.394a2.873,2.873,0,0,0,.338-1.36,2.762,2.762,0,0,0-.756-1.041ZM225.012,208.946Z" transform="translate(77.319 71.934)" fill="#fff"/>
    <path id="fullLogo-35" data-name="fullLogo" d="M260.028,255.26c-24.736,0-45.268-16.588-49.685-41.631v0c-5-28.347,13.116-53.582,42.133-58.7,20.3-3.579,39.038,4.28,50.124,21.023a26.171,26.171,0,0,1,3.6,20.736,26.167,26.167,0,0,1,3.689,20.789c-4.751,19.539-19.66,33.332-39.881,36.9a57.5,57.5,0,0,1-9.983.886ZM259.006,205.1l2.641.642a3.072,3.072,0,0,0,.352-1.228h0l0-.009c0-.032,0-.064,0-.094l-.032.006a3.271,3.271,0,0,0-.8-1.035l-2.162,1.432c-.022.05-.041.1-.058.147l-.051.009.035.044-.013.045.044-.008Z" transform="translate(94.015 69.019)" fill="#fff"/>
    <path id="fullLogo-36" data-name="fullLogo" d="M276.806,252.732A26.24,26.24,0,0,1,251,231.051l-8.144-46.187a26.232,26.232,0,0,1,21.279-30.389l13.987-2.466a26.3,26.3,0,0,1,6.2-.353,26.216,26.216,0,0,1,5.92-1.784l17.1-3.016a26.233,26.233,0,0,1,27.475,38.594l-3.787,6.8,7.87,7.5a26.233,26.233,0,0,1-13.543,44.824l-17.033,3a26.231,26.231,0,0,1-6.607.319,26.286,26.286,0,0,1-6.341,1.965l-13.986,2.467A26.4,26.4,0,0,1,276.806,252.732Z" transform="translate(108.867 65.583)" fill="#fff"/>
    <path id="fullLogo-37" data-name="fullLogo" d="M119.466,303.46a39.982,39.982,0,0,1-39.8-33.227v0c-3.923-22.251,10.734-42.807,33.368-46.8,16.225-2.861,31.239,3.479,40.163,16.958a26.122,26.122,0,0,1,4.311,16.1,26.125,26.125,0,0,1,1.436,16.664,39.31,39.31,0,0,1-31.918,29.645A43.533,43.533,0,0,1,119.466,303.46Zm6.435-38.487,5.277.752a11.536,11.536,0,0,0,.153-4.606l-12.683,2.236,7.217,1.754Zm-7.356-1.643.1.024,12.688-2.24a11.529,11.529,0,0,0-1.719-4.273l-4.7,2.512-.113-.162Z" transform="translate(35.181 99.984)" fill="#fff"/>
    <path id="fullLogo-38" data-name="fullLogo" d="M129.046,302.047a26.239,26.239,0,0,1-25.8-21.681l-4.721-26.772A26.232,26.232,0,0,1,119.8,223.2l8.109-1.43a26.228,26.228,0,0,1,4.874-.4,26.23,26.23,0,0,1,4.718-1.295l8.107-1.43A26.233,26.233,0,0,1,176,239.931l4.721,26.772a26.233,26.233,0,0,1-21.278,30.39l-8.107,1.43a26.416,26.416,0,0,1-4.875.4,26.39,26.39,0,0,1-4.719,1.29l-8.107,1.43A26.394,26.394,0,0,1,129.046,302.047Z" transform="translate(43.788 97.953)" fill="#fff"/>
    <path id="fullLogo-39" data-name="fullLogo" d="M146.672,298.365a26.233,26.233,0,0,1-25.813-30.9l5.153-28.513a26.233,26.233,0,0,1,21.258-21.168l10.194-1.8a26.233,26.233,0,0,1,27.218,12.62l14.6,25.031a26.232,26.232,0,0,1-18.106,39.048l-8.79,1.55a26.238,26.238,0,0,1-6.313.342,26.215,26.215,0,0,1-6.049,1.838l-8.79,1.55A26.258,26.258,0,0,1,146.672,298.365Z" transform="translate(53.853 96.753)" fill="#fff"/>
    <path id="fullLogo-40" data-name="fullLogo" d="M170.056,293.846a26.233,26.233,0,0,1-25.834-21.678L139.5,245.4a26.232,26.232,0,0,1,21.279-30.388l8.107-1.43a26.233,26.233,0,0,1,30.229,20.447,26.236,26.236,0,0,1,13.79,18.75l1.245,7.065a26.232,26.232,0,0,1-21.279,30.389l-18.262,3.22A26.234,26.234,0,0,1,170.056,293.846Z" transform="translate(62.266 95.665)" fill="#fff"/>
    <path id="fullLogo-41" data-name="fullLogo" d="M185.134,291.187a26.24,26.24,0,0,1-25.8-21.681l-4.721-26.772a26.232,26.232,0,0,1,21.278-30.39l8.107-1.43a26.232,26.232,0,0,1,30.229,20.446,26.235,26.235,0,0,1,13.791,18.75l1.245,7.064a26.232,26.232,0,0,1-21.279,30.389l-18.262,3.22A26.392,26.392,0,0,1,185.134,291.187Z" transform="translate(69.077 94.464)" fill="#fff"/>
    <path id="fullLogo-42" data-name="fullLogo" d="M200.274,289.188a26.233,26.233,0,0,1-25.834-21.677l-4.721-26.772A26.233,26.233,0,0,1,191,210.349l20.31-3.582a26.232,26.232,0,0,1,30.39,21.279l1.189,6.743a26.453,26.453,0,0,1,.393,3.866l1,5.667a26.228,26.228,0,0,1,.951,3.753l1.189,6.743a26.233,26.233,0,0,1-21.278,30.388l-20.31,3.582A26.235,26.235,0,0,1,200.274,289.188Z" transform="translate(75.889 92.594)" fill="#fff"/>
    <path id="fullLogo-43" data-name="fullLogo" d="M217.041,286.53a26.233,26.233,0,0,1-25.834-21.678l-4.72-26.772a26.232,26.232,0,0,1,21.279-30.388l8.348-1.472a26.233,26.233,0,0,1,4.718-.4,26.393,26.393,0,0,1,4.594-1.244l8.107-1.43a26.233,26.233,0,0,1,30.389,21.278l4.721,26.772a26.232,26.232,0,0,1-21.278,30.389l-7.786,1.373a26.252,26.252,0,0,1-5.021.395A26.22,26.22,0,0,1,229.7,284.7l-8.109,1.43a26.248,26.248,0,0,1-4.555.4Z" transform="translate(83.45 90.962)" fill="#fff"/>
    <path id="fullLogo-44" data-name="fullLogo" d="M248.167,280.788a40.034,40.034,0,0,1-39.93-33.2,39.47,39.47,0,0,1,7.751-31.68A41.909,41.909,0,0,1,241.8,200.753h0a38.983,38.983,0,0,1,38.1,14.134,26.228,26.228,0,0,1,5.2,11.6,26.363,26.363,0,0,1,1.36,4.9l1.9,10.757a26.233,26.233,0,0,1-3.6,18.484A42.467,42.467,0,0,1,255.8,280.115a43.97,43.97,0,0,1-7.633.673Z" transform="translate(93.131 89.737)" fill="#fff"/>
    <path id="fullLogo-45" data-name="fullLogo" d="M258.407,278.936a26.24,26.24,0,0,1-25.8-21.681l-4.721-26.772a26.233,26.233,0,0,1,21.279-30.39l20.311-3.581a26.233,26.233,0,0,1,30.389,21.28l1.189,6.743a26.426,26.426,0,0,1,.393,3.876l1,5.657a26.237,26.237,0,0,1,.951,3.753l1.189,6.743A26.232,26.232,0,0,1,283.3,274.951l-20.309,3.581a26.4,26.4,0,0,1-4.586.4Z" transform="translate(102.114 87.97)" fill="#fff"/>
    <path id="fullLogo-46" data-name="fullLogo" d="M28.075,238.238A15.38,15.38,0,0,1,12.7,222.9,15.38,15.38,0,0,1,8.623,210.23l1.094-7.975a15.356,15.356,0,0,1,1.531-4.889,15.368,15.368,0,0,1-.108-4.7l1.034-7.894a15.381,15.381,0,0,1,7.742-11.427l.238-1.627A15.379,15.379,0,0,1,32.7,158.8l8.794-1.551a15.5,15.5,0,0,1,2.742-.234A15.4,15.4,0,0,1,46.9,156.3l8.792-1.551a15.38,15.38,0,0,1,18.052,15.134,15.381,15.381,0,0,1,4.194,12.547l-.966,7.883a15.356,15.356,0,0,1-1.559,5.107,15.369,15.369,0,0,1,.113,4.657L74.5,208.039a15.382,15.382,0,0,1-8.019,11.613L66.286,221a15.38,15.38,0,0,1-12.552,12.95L44.94,235.5a15.51,15.51,0,0,1-2.742.234,15.384,15.384,0,0,1-2.659.718L30.747,238a15.389,15.389,0,0,1-2.673.235Z" transform="translate(3.373 69.216)" fill="#462e8d"/>
    <path id="fullLogo-47" data-name="fullLogo" d="M55.065,233.039A15.38,15.38,0,0,1,39.93,214.923l8.889-49.189a15.38,15.38,0,0,1,12.464-12.411l17.588-3.1a15.381,15.381,0,0,1,15.957,7.4L120.008,200.8A15.38,15.38,0,0,1,109.392,223.7L94.227,226.37a15.375,15.375,0,0,1-11.438-2.509,15.373,15.373,0,0,1-9.89,6.269L57.735,232.8A15.371,15.371,0,0,1,55.065,233.039Z" transform="translate(17.442 67.175)" fill="#462e8d"/>
    <path id="fullLogo-48" data-name="fullLogo" d="M111.265,223.634c-19.65,0-35.915-12.977-39.376-32.6-3.924-22.255,10.554-42.111,33.675-46.188h0c14.8-2.611,28.313,2.284,37.061,13.43a15.379,15.379,0,0,1,3.28,9.712,15.34,15.34,0,0,1,2.1,5.483l3.273,18.557a15.38,15.38,0,0,1-2.114,10.839,43.172,43.172,0,0,1-29.835,20.05A46.458,46.458,0,0,1,111.265,223.634Z" transform="translate(31.674 64.547)" fill="#462e8d"/>
    <path id="fullLogo-49" data-name="fullLogo" d="M122.642,221.123a15.38,15.38,0,0,1-15.134-18.116l8.891-49.19a15.38,15.38,0,0,1,12.465-12.411l17.588-3.1a15.38,15.38,0,0,1,15.957,7.4l25.178,43.182a15.38,15.38,0,0,1-10.616,22.894L161.8,214.455a15.375,15.375,0,0,1-11.438-2.51,15.374,15.374,0,0,1-9.889,6.27l-15.163,2.674A15.379,15.379,0,0,1,122.642,221.123Z" transform="translate(47.911 61.802)" fill="#462e8d"/>
    <path id="fullLogo-50" data-name="fullLogo" d="M162.971,213.328a15.38,15.38,0,0,1-15.147-12.71l-8.144-46.185a15.38,15.38,0,0,1,12.475-17.817l13.987-2.466a15.38,15.38,0,0,1,17.818,12.476l8.144,46.186a15.38,15.38,0,0,1-12.475,17.817l-13.987,2.466A15.382,15.382,0,0,1,162.971,213.328Z" transform="translate(62.421 59.927)" fill="#462e8d"/>
    <path id="fullLogo-51" data-name="fullLogo" d="M178.242,212.3a15.381,15.381,0,0,1-15.147-12.71l-8.143-46.185a15.38,15.38,0,0,1,12.476-17.817l14.4-2.539a15.379,15.379,0,0,1,8.438.889,15.379,15.379,0,0,1,7.626-3.722l13.987-2.466A15.38,15.38,0,0,1,229.7,140.229l8.144,46.186a15.38,15.38,0,0,1-12.475,17.818L211.935,206.6a15.379,15.379,0,0,1-8.981-1.12A15.379,15.379,0,0,1,194.9,209.6l-13.987,2.466a15.388,15.388,0,0,1-2.669.233Z" transform="translate(69.307 57.044)" fill="#462e8d"/>
    <path id="fullLogo-52" data-name="fullLogo" d="M225.17,203.169a43.665,43.665,0,0,1-23.589-6.57,15.38,15.38,0,0,1-5.784-19.537l1.572-3.373a27.971,27.971,0,0,1-5.736-13.138,29.328,29.328,0,0,1,6.248-23.681c5.3-6.47,13.171-10.784,22.77-12.477A46.174,46.174,0,0,1,251.56,129.1a15.379,15.379,0,0,1,6.192,20.423l-.434.849a26.819,26.819,0,0,1,7.436,14.493c3.29,18.669-8.6,33.7-29.586,37.4a57.587,57.587,0,0,1-10,.909Z" transform="translate(85.756 55.243)" fill="#462e8d"/>
    <path id="fullLogo-53" data-name="fullLogo" d="M254.922,198.47a15.38,15.38,0,0,1-15.147-12.71l-3.368-19.1a15.383,15.383,0,0,1-15.021-12.711l-2.149-12.187a15.38,15.38,0,0,1,12.476-17.818l38.707-6.825a15.381,15.381,0,0,1,17.817,12.475l2.149,12.186a15.38,15.38,0,0,1-9.7,17.056l3.371,19.118a15.38,15.38,0,0,1-12.475,17.817l-13.987,2.466a15.4,15.4,0,0,1-2.67.235Z" transform="translate(98.291 52.248)" fill="#462e8d"/>
    <path id="fullLogo-54" data-name="fullLogo" d="M47.748,278.056A15.385,15.385,0,0,1,32.62,265.344l-3.368-19.1A15.38,15.38,0,0,1,14.23,233.532l-2.149-12.187a15.38,15.38,0,0,1,12.476-17.818L63.264,196.7a15.38,15.38,0,0,1,17.817,12.475l2.149,12.187a15.38,15.38,0,0,1-9.7,17.055L76.9,257.537a15.38,15.38,0,0,1-12.476,17.817L50.437,277.82a15.478,15.478,0,0,1-2.688.236Z" transform="translate(4.889 88.13)" fill="#462e8d"/>
    <path id="fullLogo-55" data-name="fullLogo" d="M65.962,275.164a15.381,15.381,0,0,1-15.147-12.71l-8.143-46.187A15.38,15.38,0,0,1,55.148,198.45l13.986-2.466a15.311,15.311,0,0,1,8.709,1,15.308,15.308,0,0,1,7.842-3.917L99.671,190.6a15.38,15.38,0,0,1,17.817,12.476l8.144,46.187a15.38,15.38,0,0,1-12.476,17.817l-13.987,2.466a15.38,15.38,0,0,1-8.706-1,15.308,15.308,0,0,1-7.843,3.918L68.632,274.93A15.388,15.388,0,0,1,65.962,275.164Z" transform="translate(18.682 85.379)" fill="#462e8d"/>
    <path id="fullLogo-56" data-name="fullLogo" d="M102.278,268.241a15.381,15.381,0,0,1-15.147-12.71l-8.143-46.187a15.38,15.38,0,0,1,12.476-17.817l35.036-6.178a15.38,15.38,0,0,1,17.818,12.475l2.052,11.634a15.371,15.371,0,0,1,.165,4.127q.18.666.3,1.359l2.052,11.633a15.389,15.389,0,0,1,.206,1.74,15.38,15.38,0,0,1,1.318,4.062l2.05,11.634a15.38,15.38,0,0,1-12.476,17.816l-35.038,6.178a15.377,15.377,0,0,1-2.67.233Z" transform="translate(35.057 83.012)" fill="#462e8d"/>
    <path id="fullLogo-57" data-name="fullLogo" d="M161.016,257.917a40.594,40.594,0,0,1-22.2-6.419,40,40,0,0,1-9.991-56.727,41.651,41.651,0,0,1,26.272-15.619c16.152-2.848,30.436,3.1,39.19,16.329a15.385,15.385,0,0,1,.008,16.973,15.385,15.385,0,0,1,5.787,16c-3.7,15.223-15.372,25.98-31.219,28.774A45.177,45.177,0,0,1,161.016,257.917Z" transform="translate(54.175 80.01)" fill="#462e8d"/>
    <path id="fullLogo-58" data-name="fullLogo" d="M177.586,253.809a15.381,15.381,0,0,1-15.147-12.71L154.3,194.912A15.38,15.38,0,0,1,166.77,177.1l13.987-2.466A15.379,15.379,0,0,1,198.576,187.1l3.325,18.853,2.372-.418a15.38,15.38,0,0,1,17.817,12.478l2.148,12.187a15.38,15.38,0,0,1-12.476,17.817l-31.505,5.556a15.381,15.381,0,0,1-2.67.233Z" transform="translate(69.011 78.178)" fill="#462e8d"/>
    <path id="fullLogo-59" data-name="fullLogo" d="M219.907,247.549c-19.6,0-35.827-12.987-39.29-32.618-3.923-22.255,10.5-42.1,33.537-46.165h0a41.974,41.974,0,0,1,30.153,5.667,39.844,39.844,0,0,1,10.01,56.767,41.972,41.972,0,0,1-26.4,15.638A46.139,46.139,0,0,1,219.907,247.549Zm1.052-43.377a3.191,3.191,0,0,0-.554.047,4.285,4.285,0,1,0,.554-.047Z" transform="translate(80.696 75.307)" fill="#462e8d"/>
    <path id="fullLogo-60" data-name="fullLogo" d="M256.815,241.022c-19.517,0-35.7-13-39.163-32.647h0c-3.923-22.254,10.406-42.084,33.331-46.127,16.151-2.848,30.435,3.1,39.191,16.327a15.385,15.385,0,0,1,.009,16.974,15.384,15.384,0,0,1,5.787,16c-3.7,15.223-15.373,25.98-31.221,28.774A45.686,45.686,0,0,1,256.815,241.022Z" transform="translate(97.393 72.388)" fill="#462e8d"/>
    <path id="fullLogo-61" data-name="fullLogo" d="M273.446,238.506a15.384,15.384,0,0,1-15.129-12.712l-8.144-46.187a15.38,15.38,0,0,1,12.476-17.817l13.987-2.466a15.33,15.33,0,0,1,6.287.193,15.369,15.369,0,0,1,5.832-2.33l17.1-3.016A15.38,15.38,0,0,1,321.966,176.8l-7.873,14.142,13.951,13.3a15.38,15.38,0,0,1-7.941,26.28l-17.033,3a15.373,15.373,0,0,1-6.726-.311,15.323,15.323,0,0,1-6.223,2.594l-13.986,2.466a15.483,15.483,0,0,1-2.689.235Z" transform="translate(112.24 68.955)" fill="#462e8d"/>
    <path id="fullLogo-62" data-name="fullLogo" d="M116.182,289.242a29.265,29.265,0,0,1-29.2-24.252v0c-2.914-16.529,7.646-31.243,24.565-34.226a28.185,28.185,0,0,1,29.23,12.262,15.343,15.343,0,0,1,2.131,12.083,15.343,15.343,0,0,1,2.12,12.122,28.24,28.24,0,0,1-23.257,21.521,32.178,32.178,0,0,1-5.589.494ZM115.274,260l1.793.435a1.83,1.83,0,0,0,.2-.788h0v0l0-.038-.01,0a1.941,1.941,0,0,0-.5-.682l-1.586,1.05.012,0-.06.029.011.016Z" transform="translate(38.55 103.34)" fill="#462e8d"/>
    <path id="fullLogo-63" data-name="fullLogo" d="M125.685,287.819a15.384,15.384,0,0,1-15.129-12.712l-4.721-26.772a15.379,15.379,0,0,1,12.476-17.817l8.109-1.43a15.382,15.382,0,0,1,4.933-.066,15.369,15.369,0,0,1,4.659-1.625l8.107-1.43a15.38,15.38,0,0,1,17.817,12.475l4.721,26.772a15.38,15.38,0,0,1-12.476,17.817l-8.107,1.43a15.367,15.367,0,0,1-4.933.07,15.363,15.363,0,0,1-4.66,1.621l-8.107,1.43a15.494,15.494,0,0,1-2.689.236Z" transform="translate(47.161 101.326)" fill="#462e8d"/>
    <path id="fullLogo-64" data-name="fullLogo" d="M143.3,284.14a15.381,15.381,0,0,1-15.135-18.116l5.153-28.512A15.38,15.38,0,0,1,145.782,225.1l10.194-1.8a15.38,15.38,0,0,1,15.958,7.4l14.6,25.03a15.38,15.38,0,0,1-10.615,22.894l-8.79,1.55a15.349,15.349,0,0,1-6.414-.228,15.347,15.347,0,0,1-5.949,2.408l-8.791,1.549a15.372,15.372,0,0,1-2.671.234Z" transform="translate(57.225 100.125)" fill="#462e8d"/>
    <path id="fullLogo-65" data-name="fullLogo" d="M166.683,279.621a15.381,15.381,0,0,1-15.147-12.71l-4.719-26.771a15.38,15.38,0,0,1,12.476-17.817l8.107-1.43a15.38,15.38,0,0,1,17.818,12.476l.953,5.407a15.38,15.38,0,0,1,12.676,12.51l1.245,7.065a15.38,15.38,0,0,1-12.476,17.817l-18.262,3.22a15.37,15.37,0,0,1-2.67.233Z" transform="translate(65.639 99.038)" fill="#462e8d"/>
    <path id="fullLogo-66" data-name="fullLogo" d="M181.774,276.959a15.384,15.384,0,0,1-15.128-12.712l-4.721-26.772A15.38,15.38,0,0,1,174.4,219.659l8.107-1.43A15.38,15.38,0,0,1,200.324,230.7l.954,5.408a15.38,15.38,0,0,1,12.677,12.51l1.245,7.064A15.38,15.38,0,0,1,202.724,273.5l-18.262,3.22A15.483,15.483,0,0,1,181.774,276.959Z" transform="translate(72.451 97.837)" fill="#462e8d"/>
    <path id="fullLogo-67" data-name="fullLogo" d="M196.9,274.963a15.38,15.38,0,0,1-15.147-12.71l-4.721-26.771a15.38,15.38,0,0,1,12.475-17.817l20.309-3.582a15.38,15.38,0,0,1,17.818,12.476l1.189,6.743a15.466,15.466,0,0,1,.233,2.971q.02.1.039.21l1.189,6.743q.041.236.076.471a15.371,15.371,0,0,1,.807,2.891l1.189,6.743a15.38,15.38,0,0,1-12.475,17.817l-20.309,3.582A15.386,15.386,0,0,1,196.9,274.963Z" transform="translate(79.262 95.967)" fill="#462e8d"/>
    <path id="fullLogo-68" data-name="fullLogo" d="M213.668,272.3a15.38,15.38,0,0,1-15.147-12.71L193.8,232.822a15.38,15.38,0,0,1,12.476-17.817l8.348-1.472a15.376,15.376,0,0,1,4.778-.089,15.371,15.371,0,0,1,4.534-1.553l8.107-1.43a15.381,15.381,0,0,1,17.817,12.476l4.721,26.772a15.38,15.38,0,0,1-12.476,17.817l-7.786,1.373a15.374,15.374,0,0,1-5.083.044,15.376,15.376,0,0,1-4.792,1.7l-8.109,1.43A15.376,15.376,0,0,1,213.668,272.3Z" transform="translate(86.823 94.335)" fill="#462e8d"/>
    <path id="fullLogo-69" data-name="fullLogo" d="M244.629,266.573a29.447,29.447,0,0,1-23.5-47.335A31.074,31.074,0,0,1,240.3,208.063a28.292,28.292,0,0,1,27.684,10.152,15.381,15.381,0,0,1,3.2,7.846,15.4,15.4,0,0,1,1.207,3.838l1.9,10.757a15.381,15.381,0,0,1-2.113,10.838,31.328,31.328,0,0,1-21.649,14.557,33.947,33.947,0,0,1-5.9.522Z" transform="translate(96.52 93.114)" fill="#462e8d"/>
    <path id="fullLogo-70" data-name="fullLogo" d="M255.047,264.708A15.384,15.384,0,0,1,239.918,252L235.2,225.225a15.38,15.38,0,0,1,12.476-17.818l20.311-3.581A15.38,15.38,0,0,1,285.8,216.3l1.189,6.743a15.454,15.454,0,0,1,.233,2.978c.013.068.025.135.037.2l1.189,6.743q.041.236.076.471a15.388,15.388,0,0,1,.807,2.891l1.189,6.743a15.38,15.38,0,0,1-12.476,17.817l-20.31,3.581a15.466,15.466,0,0,1-2.688.236Z" transform="translate(105.487 91.343)" fill="#462e8d"/>
    <path id="fullLogo-71" data-name="fullLogo" d="M39.231,203.987l-5.47.964-1.673,11.576L23.3,218.077l1.74-11.589-5.955,1.051,1.094-7.975,6.093-1.075,1.367-9.664-6.025,1.062,1.034-7.894,6.233-1.1,1.716-11.725,8.795-1.551L37.67,179.344l5.4-.953,1.717-11.725,8.793-1.551L51.8,176.853l6.094-1.075-.966,7.883-6.3,1.111-1.434,9.676,6.3-1.111L54.466,201.3l-6.511,1.148-1.67,11.576-8.795,1.551Zm-2.8-16.711-1.366,9.664,5.332-.94,1.435-9.676Z" transform="translate(8.152 73.996)" fill="#fff"/>
    <path id="fullLogo-72" data-name="fullLogo" d="M83.927,200.807,66.2,203.932l-.75,6.272-15.165,2.674,8.89-49.189,17.588-3.1,25.179,43.182-15.165,2.674Zm-16.177-9.142,10.525-1.856-8.131-15.345Z" transform="translate(22.222 71.954)" fill="#fff"/>
    <path id="fullLogo-73" data-name="fullLogo" d="M103.461,155.215c10.734-1.893,18.057,2.385,22.292,7.78l-10.709,8.1a9.709,9.709,0,0,0-9.41-3.553c-6.716,1.184-10.312,7.1-9.177,13.542a11.212,11.212,0,0,0,13.255,9.585,13.354,13.354,0,0,0,7.182-3.408l-.354-2.008-8.932,1.575-2.026-11.494,22.5-3.968,3.273,18.557a27.848,27.848,0,0,1-19.474,13.071c-13.986,2.466-27.023-4.659-29.624-19.408C79.649,168.766,89.475,157.681,103.461,155.215Z" transform="translate(36.449 69.326)" fill="#fff"/>
    <path id="fullLogo-74" data-name="fullLogo" d="M151.5,188.89l-17.727,3.126-.751,6.272-15.163,2.674,8.891-49.189,17.588-3.1,25.178,43.182-15.165,2.674Zm-16.176-9.142,10.526-1.856-8.133-15.345Z" transform="translate(52.691 66.582)" fill="#fff"/>
    <path id="fullLogo-75" data-name="fullLogo" d="M150.046,146.982l13.987-2.466,8.144,46.186-13.987,2.466Z" transform="translate(67.202 64.708)" fill="#fff"/>
    <path id="fullLogo-76" data-name="fullLogo" d="M183.078,164.889l4.371,24.79-13.987,2.466-8.143-46.186,14.4-2.539,20.167,20.433-4.1-23.267,13.987-2.466,8.144,46.186-13.433,2.369Z" transform="translate(74.088 61.824)" fill="#fff"/>
    <path id="fullLogo-77" data-name="fullLogo" d="M210.4,167.11a21.854,21.854,0,0,0,15.938,3.33c2.631-.463,4.965-1.8,4.647-3.6s-2.416-2.358-7.131-2.385c-7.861-.041-19.812.21-21.851-11.353-1.38-7.825,3.872-16.106,16.542-18.34a30.943,30.943,0,0,1,20.733,2.984l-5.733,11.221a23.355,23.355,0,0,0-13.686-2.3c-3.463.611-4,1.992-3.8,3.169.317,1.8,2.3,2.094,7.361,2.057,7.848-.028,19.526.2,21.407,10.863,1.794,10.177-4.715,17.394-17.11,19.579-9.833,1.734-17.062.011-22.761-3.555Z" transform="translate(90.532 60.024)" fill="#fff"/>
    <path id="fullLogo-78" data-name="fullLogo" d="M244.146,144.31l-12.395,2.185L229.6,134.308l38.708-6.825,2.149,12.187-12.325,2.174,5.995,34-13.987,2.466Z" transform="translate(103.071 57.028)" fill="#fff"/>
    <path id="fullLogo-79" data-name="fullLogo" d="M36.991,223.894,24.6,226.08l-2.149-12.187,38.707-6.826L63.3,219.254l-12.325,2.173,5.995,34-13.987,2.466Z" transform="translate(9.67 92.911)" fill="#fff"/>
    <path id="fullLogo-80" data-name="fullLogo" d="M88.6,231.963,72.056,234.88l3.113,17.657L61.181,255l-8.143-46.187,13.986-2.466,2.882,16.342,16.549-2.918-2.881-16.342,13.986-2.466,8.143,46.187L91.718,249.62Z" transform="translate(23.463 90.16)" fill="#fff"/>
    <path id="fullLogo-81" data-name="fullLogo" d="M89.355,201.893l35.036-6.178,2.052,11.634-21.049,3.711.952,5.4,20.564-3.626,2.052,11.633L108.4,228.094l1.037,5.886,21.05-3.711,2.05,11.634L97.5,248.08Z" transform="translate(39.837 87.792)" fill="#fff"/>
    <path id="fullLogo-82" data-name="fullLogo" d="M132.143,217.83c-2.516-14.265,6.727-25.819,20.854-28.31,12.463-2.2,19.8,3.792,23.694,9.672l-11.059,7.734a10.046,10.046,0,0,0-10.462-5.082c-6.372,1.124-9.969,7.043-8.833,13.483s6.539,10.77,12.911,9.646a10.044,10.044,0,0,0,8.095-8.352l13.024,3.415c-1.614,6.637-6.482,15.064-18.945,17.262C147.3,239.789,134.646,232.024,132.143,217.83Z" transform="translate(58.943 84.79)" fill="#fff"/>
    <path id="fullLogo-83" data-name="fullLogo" d="M164.662,187.461l13.987-2.467,6,34,17.518-3.089,2.147,12.187-31.506,5.556Z" transform="translate(73.791 82.959)" fill="#fff"/>
    <path id="fullLogo-84" data-name="fullLogo" d="M212.046,179.121c14.265-2.515,26.984,5.238,29.486,19.433s-6.8,25.83-21.062,28.345-26.983-5.238-29.486-19.432S197.783,181.636,212.046,179.121Zm2.174,12.324c-6.716,1.185-10.175,7.079-9.04,13.519s6.4,10.795,13.117,9.61,10.176-7.077,9.041-13.516-6.4-10.8-13.119-9.613Z" transform="translate(85.476 80.099)" fill="#fff"/>
    <path id="fullLogo-85" data-name="fullLogo" d="M228.019,200.924c-2.515-14.265,6.729-25.819,20.855-28.31,12.464-2.2,19.8,3.791,23.7,9.672l-11.06,7.734a10.045,10.045,0,0,0-10.462-5.082c-6.37,1.124-9.968,7.043-8.833,13.483s6.54,10.77,12.91,9.646a10.04,10.04,0,0,0,8.093-8.352l13.027,3.415c-1.614,6.637-6.482,15.064-18.946,17.262C243.173,222.884,230.523,215.118,228.019,200.924Z" transform="translate(102.172 77.167)" fill="#fff"/>
    <path id="fullLogo-86" data-name="fullLogo" d="M282.362,199.152l-1.951,3.913,2.259,12.811-13.986,2.466-8.144-46.187,13.986-2.466L277.579,187l9.065-19.448,17.1-3.016-13.664,24.544,22.569,21.51-17.033,3Z" transform="translate(117.02 73.735)" fill="#fff"/>
    <path id="fullLogo-87" data-name="fullLogo" d="M97.346,257.541c-1.458-8.269,3.9-14.965,12.089-16.409a12.775,12.775,0,0,1,13.735,5.606l-6.411,4.482a5.822,5.822,0,0,0-6.065-2.944,6.819,6.819,0,0,0,2.363,13.406,5.823,5.823,0,0,0,4.693-4.842l7.549,1.979a12.925,12.925,0,0,1-10.982,10.007C106.13,270.271,98.8,265.769,97.346,257.541Z" transform="translate(43.333 108.115)" fill="#fff"/>
    <path id="fullLogo-88" data-name="fullLogo" d="M136.819,254.3l-9.592,1.692,1.8,10.234-8.107,1.43L116.2,240.884l8.109-1.43,1.669,9.473,9.594-1.692-1.671-9.473,8.107-1.43,4.721,26.772-8.107,1.43Z" transform="translate(51.942 106.106)" fill="#fff"/>
    <path id="fullLogo-89" data-name="fullLogo" d="M158.022,256.983l-10.275,1.812-.435,3.635-8.79,1.55,5.153-28.512,10.194-1.8,14.6,25.031-8.791,1.55Zm-9.377-5.3,6.1-1.075-4.714-8.894Z" transform="translate(62.005 104.905)" fill="#fff"/>
    <path id="fullLogo-90" data-name="fullLogo" d="M157.183,232.689l8.107-1.43,3.474,19.707,10.155-1.79,1.245,7.064L161.9,259.46Z" transform="translate(70.419 103.818)" fill="#fff"/>
    <path id="fullLogo-91" data-name="fullLogo" d="M172.291,230.024l8.107-1.43,3.476,19.707,10.155-1.79,1.245,7.065-18.262,3.22Z" transform="translate(77.231 102.617)" fill="#fff"/>
    <path id="fullLogo-92" data-name="fullLogo" d="M187.4,228.03l20.309-3.582,1.189,6.743-12.2,2.152.551,3.131,11.922-2.1,1.189,6.743-11.92,2.1.6,3.412,12.2-2.152,1.189,6.743L192.12,254.8Z" transform="translate(84.043 100.747)" fill="#fff"/>
    <path id="fullLogo-93" data-name="fullLogo" d="M214.463,236.345,217,250.714l-8.109,1.43-4.72-26.771,8.348-1.472L224.2,235.745l-2.378-13.487,8.107-1.43,4.721,26.772-7.786,1.373Z" transform="translate(91.603 99.115)" fill="#fff"/>
    <path id="fullLogo-94" data-name="fullLogo" d="M238.2,218.437a12.78,12.78,0,0,1,12.92,4.508l-6.209,4.7a5.627,5.627,0,0,0-5.452-2.059,6.81,6.81,0,0,0,2.363,13.406,7.741,7.741,0,0,0,4.163-1.976l-.205-1.163-5.179.913-1.175-6.664,13.045-2.3,1.9,10.757a16.14,16.14,0,0,1-11.287,7.577c-8.109,1.43-15.665-2.7-17.172-11.25C224.392,226.291,230.088,219.867,238.2,218.437Z" transform="translate(101.295 97.886)" fill="#fff"/>
    <path id="fullLogo-95" data-name="fullLogo" d="M245.563,217.773l20.311-3.581,1.189,6.743-12.2,2.152.553,3.131,11.922-2.1,1.189,6.743-11.922,2.1.6,3.412,12.2-2.152,1.189,6.743-20.309,3.581Z" transform="translate(110.268 96.123)" fill="#fff"/>
    <rect id="fullLogo-96" data-name="fullLogo" width="26.684" height="14.133" transform="translate(248.099 37.293)" fill="#fff"/>
    <rect id="fullLogo-97" data-name="fullLogo" width="8.663" height="7.741" transform="translate(184.264 324.807)" fill="#462e8d"/>
    <rect id="fullLogo-98" data-name="fullLogo" width="8.663" height="7.741" transform="translate(150.912 359.541)" fill="#462e8d"/>
    <rect id="fullLogo-99" data-name="fullLogo" width="18.978" height="18.978" rx="5.994" transform="translate(292.401 273.979)" fill="#462e8d"/>
  </g>
</svg>
