<svg xmlns="http://www.w3.org/2000/svg" width="74.24" height="158.694" viewBox="0 0 74.24 158.694">
  <g id="Group_58" data-name="Group 58" transform="translate(-109.244 -7.105)">
    <path id="Path_154" data-name="Path 154" d="M114.239,50.055a2.036,2.036,0,0,1-2.039-2.039V15.823a7.292,7.292,0,1,1,14.583,0V44a2.039,2.039,0,1,1-4.078,0V15.823a3.214,3.214,0,0,0-6.428,0V48.016A2.036,2.036,0,0,1,114.239,50.055Z" transform="translate(20.049 9.671)" fill="#efaf01"/>
    <path id="Path_155" data-name="Path 155" d="M126.1,55.71a2.041,2.041,0,0,1-2.039-2.039V14.4a3.218,3.218,0,0,0-6.436,0V53.671a2.039,2.039,0,1,1-4.078,0V14.4a7.3,7.3,0,1,1,14.591,0V53.671A2.041,2.041,0,0,1,126.1,55.71Z" transform="translate(29.205 0)" fill="#efaf01"/>
    <path id="Path_156" data-name="Path 156" d="M116.94,52.195a2.036,2.036,0,0,1-2.039-2.039V15.823a7.3,7.3,0,0,1,14.591,0V44.452a2.043,2.043,0,0,1-4.085,0V15.823a3.214,3.214,0,0,0-6.428,0V50.156A2.036,2.036,0,0,1,116.94,52.195Z" transform="translate(38.367 9.671)" fill="#efaf01"/>
    <path id="Path_157" data-name="Path 157" d="M128.8,39.772a2.036,2.036,0,0,1-2.039-2.039V17.049a3.214,3.214,0,1,0-6.428,0V36.185a2.043,2.043,0,0,1-4.085,0V17.049a7.3,7.3,0,1,1,14.591,0V37.733A2.036,2.036,0,0,1,128.8,39.772Z" transform="translate(47.522 17.938)" fill="#efaf01"/>
    <path id="Path_158" data-name="Path 158" d="M176.325,73.438H136.475a2.036,2.036,0,0,1-2.039-2.039V58a6.5,6.5,0,0,0-1.307-3.906l-22.357-29.75a7.638,7.638,0,0,1,11.634-9.86c8.537,8.965,10.786,11.3,10.786,11.307a2.036,2.036,0,0,1-2.934,2.825s-2.249-2.327-10.809-11.323a3.483,3.483,0,0,0-2.731-1.1,3.569,3.569,0,0,0-2.685,5.7l22.357,29.75A10.658,10.658,0,0,1,138.513,58V69.36h35.773v-27.2a2.039,2.039,0,0,1,4.078,0V71.4A2.036,2.036,0,0,1,176.325,73.438Z" transform="translate(0 33.99)" fill="#efaf01"/>
    <path id="Path_159" data-name="Path 159" d="M159.339,47.4H116.073a4.082,4.082,0,0,1-4.078-4.078V23.551a4.082,4.082,0,0,1,4.078-4.078h43.267a4.082,4.082,0,0,1,4.078,4.078V43.324A4.082,4.082,0,0,1,159.339,47.4ZM116.073,23.551V43.324h43.267V23.551Z" transform="translate(18.659 83.877)" fill="#efaf01"/>
    <path id="Path_160" data-name="Path 160" d="M127.558,25.084H114.835a2.039,2.039,0,1,1,0-4.078h12.723a2.039,2.039,0,0,1,0,4.078Z" transform="translate(24.091 94.274)" fill="#efaf01"/>
    <path id="Path_161" data-name="Path 161" d="M112.252,57.919V24.577a2.041,2.041,0,0,1,2.039-2.039h43.345a2.041,2.041,0,0,1,2.039,2.039v10.5a2.043,2.043,0,0,1-4.085,0V26.616H116.337V55.88C116.407,60.086,112.252,58.543,112.252,57.919Z" transform="translate(20.402 104.663)" fill="#efaf01"/>
    <path id="Path_162" data-name="Path 162" d="M119.868,51.987a2.048,2.048,0,0,1-2.047-2.039V46.322a2.043,2.043,0,0,1,4.085,0v3.626A2.046,2.046,0,0,1,119.868,51.987Zm0-13.82a2.043,2.043,0,0,1-2.047-2.039v-10.2a2.043,2.043,0,0,1,4.085,0v10.2A2.041,2.041,0,0,1,119.868,38.167Z" transform="translate(58.17 113.812)" fill="#efaf01"/>
    <path id="Path_163" data-name="Path 163" d="M138.9,56.74a2.071,2.071,0,0,1-1.346-.506l-20.871-18.4a14.356,14.356,0,0,1-3.945-15.867,13.6,13.6,0,0,1,12.739-9.144A17.212,17.212,0,0,1,138.9,19.014a17.087,17.087,0,0,1,13.143-6.187c.591,0,1.175.031,1.751.086a13.493,13.493,0,0,1,11.556,9.5,14.539,14.539,0,0,1-4.163,15.369L140.253,56.234A2.077,2.077,0,0,1,138.9,56.74ZM125.763,16.9a9.714,9.714,0,0,0-9.206,6.474,10.232,10.232,0,0,0,2.817,11.4L138.9,51.985l19.595-17.268a10.346,10.346,0,0,0,2.973-11.058,9.36,9.36,0,0,0-8.085-6.692c-.436-.039-.887-.062-1.338-.062a12.986,12.986,0,0,0-11.354,6.7,2.124,2.124,0,0,1-3.572,0A12.987,12.987,0,0,0,125.763,16.9Z" transform="translate(17.427 38.805)" fill="#efaf01"/>
    <path id="Path_164" data-name="Path 164" d="M117.076,23.515a2.039,2.039,0,0,1-1.331-3.58L119.6,16.6a2.041,2.041,0,0,1,2.669,3.089l-3.852,3.331A2.043,2.043,0,0,1,117.076,23.515Z" transform="translate(39.289 60.988)" fill="#efaf01"/>
    <path id="Path_165" data-name="Path 165" d="M118.424,22.349a2.039,2.039,0,0,1-1.331-3.58l3.852-3.338a2.041,2.041,0,0,1,2.669,3.089l-3.852,3.331A2.043,2.043,0,0,1,118.424,22.349Z" transform="translate(48.43 53.081)" fill="#efaf01"/>
  </g>
</svg>
