<svg xmlns="http://www.w3.org/2000/svg" width="78.002" height="97.46" viewBox="0 0 78.002 97.46">
  <g id="Group_62" data-name="Group 62" transform="translate(276 -2738.306)">
    <g id="Group_10" data-name="Group 10" transform="translate(-276 2746.424)">
      <path id="Path_33" data-name="Path 33" d="M326.568,386.174a2.915,2.915,0,0,1-2.094-4.946c.109-.113,11.135-11.7,5.765-19.277-4.574-6.456-8.707-5.455-25.476-.175-2.436.767-5.1,1.6-8.009,2.49-7.17,2.176-12.694,1.523-16.416-1.947-6.936-6.457-4.154-19.764-3.815-21.258a2.916,2.916,0,0,1,5.689,1.287c-.71,3.165-1.717,12.157,2.107,15.709,2.092,1.944,5.706,2.155,10.742.626,2.892-.877,5.531-1.71,7.951-2.47,16.5-5.2,24.779-7.807,31.986,2.366,8.165,11.528-5.741,26.1-6.338,26.709A2.9,2.9,0,0,1,326.568,386.174Z" transform="translate(-275.688 -338.789)" fill="#efaf01"/>
    </g>
    <g id="Group_11" data-name="Group 11" transform="translate(-274.923 2762.126)">
      <path id="Path_34" data-name="Path 34" d="M280.508,427.142a2.917,2.917,0,0,1-2.8-2.115c-1.293-4.525-4.158-20.611,13.276-37.586a49.9,49.9,0,0,0,15-31.111,2.917,2.917,0,0,1,5.831.178,55.257,55.257,0,0,1-16.762,35.114c-15.118,14.717-12.8,28.061-11.736,31.8a2.917,2.917,0,0,1-2,3.606A2.948,2.948,0,0,1,280.508,427.142Z" transform="translate(-276.697 -353.502)" fill="#efaf01"/>
    </g>
    <g id="Group_12" data-name="Group 12" transform="translate(-257.465 2784.346)">
      <path id="Path_35" data-name="Path 35" d="M327.346,406.063c-16.1,0-32.866-19.6-33.6-20.466a2.917,2.917,0,0,1,4.453-3.769c.169.2,16.918,19.8,30.528,18.331,13.04-1.374,17.981-23.317,18.03-23.539a2.916,2.916,0,0,1,5.7,1.238c-.232,1.073-5.889,26.288-23.118,28.1A19.429,19.429,0,0,1,327.346,406.063Z" transform="translate(-293.056 -374.325)" fill="#efaf01"/>
    </g>
    <g id="Group_13" data-name="Group 13" transform="translate(-259.09 2738.306)">
      <path id="Path_36" data-name="Path 36" d="M313.6,342.217a11.035,11.035,0,1,1-11.035-11.035A11.034,11.034,0,0,1,313.6,342.217Z" transform="translate(-291.533 -331.182)" fill="#efaf01"/>
    </g>
    <g id="Group_14" data-name="Group 14" transform="translate(-260.239 2813.837)">
      <path id="Path_37" data-name="Path 37" d="M300.825,422.694a10.368,10.368,0,1,1,10.368-10.369A10.38,10.38,0,0,1,300.825,422.694Zm0-14.9a4.535,4.535,0,1,0,4.534,4.534A4.539,4.539,0,0,0,300.825,407.791Z" transform="translate(-290.457 -401.959)" fill="#efaf01"/>
    </g>
  </g>
</svg>
