<svg xmlns="http://www.w3.org/2000/svg" width="103.751" height="114.167" viewBox="0 0 103.751 114.167">
  <g id="Group_105" data-name="Group 105" transform="translate(-916 -3392.144)">
    <g id="Group_68" data-name="Group 68" transform="translate(204.31 2961.69)">
      <path id="Path_166" data-name="Path 166" d="M785.72,447.285H754.965a17.172,17.172,0,0,0-17.153,17.152v3.78a2.127,2.127,0,1,0,4.254,0v-3.78a12.913,12.913,0,0,1,12.9-12.9H785.72a12.913,12.913,0,0,1,12.9,12.9v60.9H742.066V505.873a2.127,2.127,0,1,0-4.254,0v21.6a17.173,17.173,0,0,0,17.153,17.153H785.72a17.172,17.172,0,0,0,17.152-17.153V464.437A17.171,17.171,0,0,0,785.72,447.285Zm0,93.082H754.965a12.91,12.91,0,0,1-12.708-10.772h56.17A12.909,12.909,0,0,1,785.72,540.367Z" fill="#efaf01"/>
      <g id="Group_63" data-name="Group 63">
        <path id="Path_167" data-name="Path 167" d="M777.256,459.324H763.427a2.127,2.127,0,1,1,0-4.254h13.829a2.127,2.127,0,1,1,0,4.254Z" fill="#efaf01"/>
      </g>
      <g id="Group_64" data-name="Group 64">
        <path id="Path_168" data-name="Path 168" d="M772.465,536.765h-4.247a2.127,2.127,0,0,1,0-4.254h4.247a2.127,2.127,0,0,1,0,4.254Z" fill="#efaf01"/>
      </g>
      <g id="Group_65" data-name="Group 65">
        <path id="Path_169" data-name="Path 169" d="M745.957,501.048l-1.268-.094c-4.4-.325-12.381-1.306-16.361-4.239-1.958-1.44-5.1-5.145-5.176-8.953A8.1,8.1,0,0,1,726.4,481a9.652,9.652,0,0,1,5.792-1.8,13.2,13.2,0,0,1,2.983.354,10.683,10.683,0,0,1,6.395-6.176,8.2,8.2,0,0,1,7.36,1.439c3.008,2.339,4.106,7.069,4.09,9.5-.023,4.943-4.006,11.93-6.376,15.655Zm-13.769-17.592a5.487,5.487,0,0,0-3.3.986,3.844,3.844,0,0,0-1.485,3.231c.037,1.792,1.848,4.443,3.443,5.616,1.639,1.207,5.857,2.674,12.879,3.318,3.682-6.017,5.025-10.276,5.035-12.31.012-1.982-1.032-5.019-2.447-6.119a3.9,3.9,0,0,0-3.479-.738c-3.279,1.027-4.245,5.176-4.255,5.217l-.553,2.6-2.416-1.113A9.431,9.431,0,0,0,732.188,483.456Z" fill="#efaf01"/>
      </g>
      <g id="Group_66" data-name="Group 66">
        <path id="Path_170" data-name="Path 170" d="M718.136,471.935l-1.885-.016-.589-1.125c-1.608-3.065-4.257-8.792-3.947-12.717.154-1.962,1.37-5.71,3.977-7.409a6.792,6.792,0,0,1,6.2-.674,8.567,8.567,0,0,1,4.655,5.08,11.014,11.014,0,0,1,1.2-.068,8.209,8.209,0,0,1,5.45,1.9,6.736,6.736,0,0,1,2.224,5.83c-.326,3.1-3.109,5.886-4.787,6.916C727.421,471.64,721.423,471.935,718.136,471.935Zm1.346-18.156a2.736,2.736,0,0,0-1.469.454,6.553,6.553,0,0,0-2.058,4.178c-.116,1.472.6,4.639,2.891,9.266,5.179-.068,8.328-.881,9.568-1.643A6.55,6.55,0,0,0,731.2,462.3a2.486,2.486,0,0,0-.767-2.162,3.976,3.976,0,0,0-2.675-.875,6.869,6.869,0,0,0-2.011.308l-2.48.86-.341-2.6c0-.016-.442-3-2.635-3.895A2.11,2.11,0,0,0,719.482,453.779Z" fill="#efaf01"/>
      </g>
      <g id="Group_67" data-name="Group 67">
        <path id="Path_171" data-name="Path 171" d="M744.639,449.876l-1.259-.177c-2.853-.4-8.019-1.39-10.563-3.535-1.343-1.133-3.3-3.8-3.175-6.507a5.912,5.912,0,0,1,2.695-4.766,6.8,6.8,0,0,1,3.679-1.031,8.643,8.643,0,0,1,1.954.233,7.41,7.41,0,0,1,4.506-3.485,5.941,5.941,0,0,1,5.3,1.391c2.026,1.8,2.576,5.061,2.45,6.813-.234,3.32-3.128,7.715-4.831,10.039Zm-8.623-11.762a2.58,2.58,0,0,0-1.415.378,1.689,1.689,0,0,0-.711,1.357,5.038,5.038,0,0,0,1.669,3.063c.832.7,3.175,1.7,7.144,2.378,2.285-3.316,3.2-5.694,3.276-6.779a5.011,5.011,0,0,0-1.033-3.332,1.691,1.691,0,0,0-1.468-.437c-1.657.4-2.333,2.554-2.34,2.575l-.721,2.561-2.339-1.269h0A5.133,5.133,0,0,0,736.016,438.114Z" fill="#efaf01"/>
      </g>
    </g>
    <g id="youtube" transform="translate(974.001 3435.608)">
      <path id="Path_31" data-name="Path 31" d="M43.345,8.757a5.465,5.465,0,0,0-3.814-3.932C36.15,4,22.625,4,22.625,4S9.1,4,5.719,4.9A5.465,5.465,0,0,0,1.9,8.836a57.01,57.01,0,0,0-.9,10.4,57.01,57.01,0,0,0,.9,10.478,5.465,5.465,0,0,0,3.814,3.774c3.381.9,16.906.9,16.906.9s13.525,0,16.906-.9a5.465,5.465,0,0,0,3.814-3.932,57.01,57.01,0,0,0,.9-10.321,57.01,57.01,0,0,0-.9-10.478Z" transform="translate(0)" fill="#472e8d" stroke="#efaf01" stroke-linecap="round" stroke-linejoin="round" stroke-width="3"/>
      <path id="Path_32" data-name="Path 32" d="M9.75,21.337l11.3-6.428L9.75,8.48Z" transform="translate(8.452 4.327)" fill="#472e8d" stroke="#efaf01" stroke-linecap="round" stroke-linejoin="round" stroke-width="3"/>
    </g>
  </g>
</svg>
