<svg xmlns="http://www.w3.org/2000/svg" width="138.828" height="80.37" viewBox="0 0 138.828 80.37">
  <g id="Group_75" data-name="Group 75" transform="translate(-545 -3119.018)">
    <g id="Group_70" data-name="Group 70" transform="translate(605.716 3138.473)">
      <g id="Group_10" data-name="Group 10" transform="translate(0 4.868)">
        <path id="Path_33" data-name="Path 33" d="M306.2,367.2a1.748,1.748,0,0,1-1.255-2.966c.065-.068,6.677-7.013,3.457-11.559-2.743-3.871-5.221-3.271-15.275-.1-1.461.46-3.056.962-4.8,1.493-4.3,1.3-7.611.913-9.843-1.167-4.159-3.872-2.491-11.851-2.288-12.747a1.749,1.749,0,0,1,3.411.772c-.426,1.9-1.03,7.29,1.263,9.419,1.254,1.166,3.421,1.292,6.441.376,1.734-.526,3.317-1.025,4.768-1.481,9.892-3.118,14.858-4.681,19.18,1.419,4.9,6.912-3.443,15.648-3.8,16.015A1.738,1.738,0,0,1,306.2,367.2Z" transform="translate(-275.688 -338.789)" fill="#efaf01"/>
      </g>
      <g id="Group_11" data-name="Group 11" transform="translate(0.646 14.283)">
        <path id="Path_34" data-name="Path 34" d="M278.982,397.658a1.749,1.749,0,0,1-1.68-1.268c-.776-2.713-2.493-12.359,7.96-22.537a29.917,29.917,0,0,0,8.994-18.655,1.749,1.749,0,0,1,3.5.107A33.133,33.133,0,0,1,287.7,376.36c-9.065,8.825-7.678,16.826-7.037,19.069a1.749,1.749,0,0,1-1.683,2.229Z" transform="translate(-276.697 -353.502)" fill="#efaf01"/>
      </g>
      <g id="Group_12" data-name="Group 12" transform="translate(11.114 27.607)">
        <path id="Path_35" data-name="Path 35" d="M313.617,393.355c-9.652,0-19.707-11.752-20.148-12.272a1.749,1.749,0,0,1,2.67-2.26c.1.12,10.144,11.871,18.3,10.991,7.819-.824,10.782-13.981,10.811-14.114a1.749,1.749,0,0,1,3.418.742c-.139.643-3.531,15.762-13.862,16.851A11.656,11.656,0,0,1,313.617,393.355Z" transform="translate(-293.056 -374.325)" fill="#efaf01"/>
      </g>
      <g id="Group_13" data-name="Group 13" transform="translate(10.139)">
        <path id="Path_36" data-name="Path 36" d="M304.766,337.8a6.617,6.617,0,1,1-6.617-6.617A6.616,6.616,0,0,1,304.766,337.8Z" transform="translate(-291.533 -331.182)" fill="#efaf01"/>
      </g>
      <g id="Group_14" data-name="Group 14" transform="translate(9.451 45.29)">
        <path id="Path_37" data-name="Path 37" d="M296.674,414.392a6.217,6.217,0,1,1,6.217-6.217A6.224,6.224,0,0,1,296.674,414.392Zm0-8.936a2.72,2.72,0,1,0,2.719,2.719A2.721,2.721,0,0,0,296.674,405.456Z" transform="translate(-290.457 -401.959)" fill="#efaf01"/>
      </g>
    </g>
    <g id="Group_69" data-name="Group 69" transform="translate(572.318 3199.388) rotate(-90)">
      <path id="Path_166" data-name="Path 166" d="M54.884,0H19.651A19.672,19.672,0,0,0,0,19.65v4.33a2.437,2.437,0,1,0,4.873,0V19.65A14.794,14.794,0,0,1,19.651,4.873H54.884A14.793,14.793,0,0,1,69.66,19.65V89.422H4.873v-22.3a2.437,2.437,0,0,0-4.873,0v24.74a19.673,19.673,0,0,0,19.651,19.651H54.884a19.672,19.672,0,0,0,19.65-19.651V19.65A19.671,19.671,0,0,0,54.884,0Zm0,106.636H19.651A14.789,14.789,0,0,1,5.092,94.3H69.441A14.788,14.788,0,0,1,54.884,106.636Z" transform="translate(0 0)" fill="#efaf01"/>
      <g id="Group_64" data-name="Group 64" transform="translate(32.397 97.636)">
        <path id="Path_168" data-name="Path 168" d="M7.3,4.873H2.437A2.437,2.437,0,0,1,2.437,0H7.3a2.437,2.437,0,0,1,0,4.873Z" transform="translate(0)" fill="#efaf01"/>
      </g>
    </g>
    <g id="Group_72" data-name="Group 72" transform="translate(566.767 3146.735) rotate(90)">
      <path id="Path_168-2" data-name="Path 168" d="M8.752,4.873H2.921A2.713,2.713,0,0,1,0,2.437,2.713,2.713,0,0,1,2.921,0H8.752a2.712,2.712,0,0,1,2.92,2.437A2.712,2.712,0,0,1,8.752,4.873Z" transform="translate(0)" fill="#efaf01"/>
    </g>
    <g id="Group_73" data-name="Group 73" transform="translate(566.767 3119.018) rotate(90)">
      <path id="Path_168-3" data-name="Path 168" d="M8.752,4.873H2.921A2.713,2.713,0,0,1,0,2.437,2.713,2.713,0,0,1,2.921,0H8.752a2.712,2.712,0,0,1,2.92,2.437A2.712,2.712,0,0,1,8.752,4.873Z" transform="translate(0)" fill="#efaf01"/>
    </g>
    <g id="Group_74" data-name="Group 74" transform="translate(556.672 3143.346) rotate(180)">
      <path id="Path_168-4" data-name="Path 168" d="M8.752,4.873H2.921A2.713,2.713,0,0,1,0,2.437,2.713,2.713,0,0,1,2.921,0H8.752a2.712,2.712,0,0,1,2.92,2.437A2.712,2.712,0,0,1,8.752,4.873Z" transform="translate(0)" fill="#efaf01"/>
    </g>
  </g>
</svg>
