<?xml version="1.0" encoding="UTF-8"?>
<svg width="151px" height="87px" viewBox="0 0 151 87" version="1.1" xmlns="http://www.w3.org/2000/svg" xmlns:xlink="http://www.w3.org/1999/xlink">
    <title>step-4</title>
    <g id="Page-1" stroke="none" stroke-width="1" fill="none" fill-rule="evenodd">
        <g id="step-4" transform="translate(2.000000, 0.000000)">
            <g id="Group_56" transform="translate(61.643000, 0.518000)" fill="#EFAF01" fill-rule="nonzero" stroke="#EFAF01" stroke-width="0.5">
                <path d="M31.238,38.223 C30.9795056,38.2227352 30.7317183,38.119726 30.5492166,37.9366616 C30.3667149,37.7535972 30.2644691,37.505494 30.2649979,37.247 L30.2649979,29.734 C30.281836,29.2090389 30.712269,28.7921889 31.2375,28.7921889 C31.762731,28.7921889 32.193164,29.2090389 32.2100021,29.734 L32.2100021,37.247 C32.210531,37.505321 32.1084223,37.7532728 31.9261368,37.9363084 C31.7438513,38.119344 31.496321,38.2224701 31.238,38.223 Z" id="Path_137"></path>
                <path d="M24.146,13.219 C20.697534,13.219 17.902,10.423466 17.902,6.975 C17.902,3.52653402 20.697534,0.731 24.146,0.731 C27.594466,0.731 30.39,3.52653402 30.39,6.975 C30.3866924,10.422095 27.593095,13.2156924 24.146,13.219 L24.146,13.219 Z M24.146,2.677 C22.4068123,2.677 20.8388763,3.72466137 20.173318,5.33146124 C19.5077597,6.93826112 19.8756495,8.78776778 21.1054408,10.0175592 C22.3352322,11.2473505 24.1847389,11.6152403 25.7915388,10.949682 C27.3983386,10.2841237 28.446,8.71618765 28.446,6.977 C28.446,4.60217558 26.5208244,2.677 24.146,2.677 Z" id="Path_138"></path>
                <path d="M17.055,38.223 C16.5173705,38.2207991 16.0825458,37.7846337 16.082,37.247 L16.082,29.734 C16.098836,29.2090389 16.529269,28.7921889 17.0545,28.7921889 C17.579731,28.7921889 18.010164,29.2090389 18.0270021,29.734 L18.0270021,37.247 C18.027531,37.505321 17.9254223,37.7532728 17.7431368,37.9363084 C17.5608513,38.119344 17.313321,38.2224701 17.055,38.223 Z" id="Path_139"></path>
                <path d="M76.046,38.223 C75.7875056,38.2227352 75.5397183,38.119726 75.3572166,37.9366616 C75.1747149,37.7535972 75.0724691,37.505494 75.0729979,37.247 L75.0729979,29.734 C75.089836,29.2090389 75.520269,28.7921889 76.0455,28.7921889 C76.570731,28.7921889 77.001164,29.2090389 77.0180021,29.734 L77.0180021,37.247 C77.018531,37.505321 76.9164223,37.7532728 76.7341368,37.9363084 C76.5518513,38.119344 76.304321,38.2224701 76.046,38.223 L76.046,38.223 Z" id="Path_140"></path>
                <path d="M68.952,13.219 C65.503925,13.2173433 62.709896,10.4210762 62.711,6.97300096 C62.7121046,3.52492577 65.5079242,0.730448844 68.9559995,0.731000801 C72.4040748,0.731552758 75.199,3.52692463 75.199,6.975 C75.1940394,10.4225802 72.3995822,13.2156955 68.952,13.219 L68.952,13.219 Z M68.952,2.677 C67.2128123,2.677 65.6448763,3.72466137 64.979318,5.33146124 C64.3137597,6.93826112 64.6816495,8.78776778 65.9114408,10.0175592 C67.1412322,11.2473505 68.9907389,11.6152403 70.5975388,10.949682 C72.2043386,10.2841237 73.252,8.71618765 73.252,6.977 C73.252,4.60217558 71.3268244,2.677 68.952,2.677 Z" id="Path_141"></path>
                <path d="M61.862,38.223 C61.3243705,38.2207991 60.8895458,37.7846337 60.889,37.247 L60.889,29.734 C60.905836,29.2090389 61.336269,28.7921889 61.8615,28.7921889 C62.386731,28.7921889 62.817164,29.2090389 62.8340021,29.734 L62.8340021,37.247 C62.834531,37.505321 62.7324223,37.7532728 62.5501368,37.9363084 C62.3678513,38.119344 62.120321,38.2224701 61.862,38.223 L61.862,38.223 Z" id="Path_142"></path>
                <path d="M53.644,38.223 C53.1063705,38.2207991 52.6715458,37.7846337 52.671,37.247 L52.671,29.734 C52.687836,29.2090389 53.118269,28.7921889 53.6435,28.7921889 C54.168731,28.7921889 54.599164,29.2090389 54.6160021,29.734 L54.6160021,37.247 C54.616531,37.505321 54.5144223,37.7532728 54.3321368,37.9363084 C54.1498513,38.119344 53.902321,38.2224701 53.644,38.223 L53.644,38.223 Z" id="Path_143"></path>
                <path d="M46.55,13.219 C43.101534,13.219 40.306,10.423466 40.306,6.975 C40.306,3.52653402 43.101534,0.731 46.55,0.731 C49.998466,0.731 52.794,3.52653402 52.794,6.975 C52.7890431,10.4214107 49.9964107,13.2140431 46.55,13.219 L46.55,13.219 Z M46.55,2.677 C44.8108123,2.677 43.2428763,3.72466137 42.577318,5.33146124 C41.9117597,6.93826112 42.2796495,8.78776778 43.5094408,10.0175592 C44.7392322,11.2473505 46.5887389,11.6152403 48.1955388,10.949682 C49.8023386,10.2841237 50.85,8.71618765 50.85,6.977 C50.85,4.60217558 48.9248244,2.677 46.55,2.677 Z" id="Path_144"></path>
                <path d="M39.46,38.223 C39.2015056,38.2227352 38.9537183,38.119726 38.7712166,37.9366616 C38.5887149,37.7535972 38.4864691,37.505494 38.4869979,37.247 L38.4869979,29.734 C38.503836,29.2090389 38.934269,28.7921889 39.4595,28.7921889 C39.984731,28.7921889 40.415164,29.2090389 40.4320021,29.734 L40.4320021,37.247 C40.432531,37.505321 40.3304223,37.7532728 40.1481368,37.9363084 C39.9658513,38.119344 39.718321,38.2224701 39.46,38.223 L39.46,38.223 Z" id="Path_145"></path>
                <path d="M53.64,68.06 L48.305,68.06 C47.7683107,68.0583529 47.3336471,67.6236893 47.332,67.087 L47.332,45.217 C47.3327284,44.984848 47.2302708,44.7643734 47.0523541,44.6152401 C46.8744374,44.4661069 46.6394561,44.4037338 46.411,44.445 C46.0169949,44.5450571 45.7472821,44.907875 45.765,45.314 L45.765,67.088 C45.765,67.6253731 45.3293731,68.061 44.792,68.061 L39.461,68.061 C38.9236269,68.061 38.488,67.6253731 38.488,67.088 L38.488,40.351 C37.4030632,40.8793007 36.1209467,40.802338 35.1069983,40.1480459 C34.0930499,39.4937537 33.494654,38.3572379 33.529,37.151 L33.529,23.576 C33.5266251,19.3753405 36.6791401,15.8427503 40.853,15.369 C42.7507602,15.195914 44.6569474,15.1328085 46.562,15.18 C48.4597264,15.1330114 50.3585808,15.1961174 52.249,15.369 C56.4228599,15.8427503 59.5753749,19.3753405 59.573,23.576 L59.573,37.158 C59.607346,38.3642379 59.0089501,39.5007537 57.9950017,40.1550459 C56.9810533,40.809338 55.6989368,40.8863007 54.614,40.358 L54.614,67.088 C54.6137349,67.3460557 54.5109684,67.5934368 54.3283079,67.7757222 C54.1456475,67.9580075 53.8980557,68.0602654 53.64,68.06 Z M49.278,66.111 L52.667,66.111 L52.667,37.251 C52.683836,36.7260389 53.114269,36.3091889 53.6395,36.3091889 C54.164731,36.3091889 54.595164,36.7260389 54.612,37.251 C54.6132976,37.7043826 54.8179794,38.1332545 55.169638,38.4194252 C55.5212966,38.7055959 55.9828129,38.8188587 56.427,38.728 C57.1453264,38.5528907 57.6447453,37.9011489 57.627,37.162 L57.627,23.576 C57.6260583,20.3648394 55.2172544,17.6648283 52.027,17.299 C50.2104661,17.1369988 48.3861607,17.0789042 46.563,17.125 C44.7325121,17.0785449 42.9008649,17.1366394 41.077,17.299 C37.8867456,17.6648283 35.4779417,20.3648394 35.477,23.576 L35.477,37.158 C35.4592547,37.8971489 35.9586736,38.5488907 36.677,38.724 C37.1197583,38.8130181 37.5791292,38.6994579 37.9294115,38.4143939 C38.2796938,38.12933 38.4842112,37.7026098 38.487,37.251 C38.4756188,36.8961226 38.6584468,36.5632212 38.9640229,36.3824154 C39.2695991,36.2016096 39.6494009,36.2016096 39.9549771,36.3824154 C40.2605532,36.5632212 40.4433812,36.8961226 40.432,37.251 L40.432,66.111 L43.821,66.111 L43.821,45.311 C43.8051995,43.9537442 44.7631599,42.7797689 46.096,42.523 C46.8875899,42.3904062 47.6974217,42.6128701 48.3101877,43.1312459 C48.9229538,43.6496217 49.2765621,44.4113821 49.277,45.214 L49.278,66.111 Z" id="Path_146"></path>
                <path d="M53.64,68.06 L48.305,68.06 C47.7683107,68.0583529 47.3336471,67.6236893 47.332,67.087 L47.332,45.217 C47.3327284,44.984848 47.2302708,44.7643734 47.0523541,44.6152401 C46.8744374,44.4661069 46.6394561,44.4037338 46.411,44.445 C46.0169949,44.5450571 45.7472821,44.907875 45.765,45.314 L45.765,67.088 C45.765,67.6253731 45.3293731,68.061 44.792,68.061 L39.461,68.061 C38.9236269,68.061 38.488,67.6253731 38.488,67.088 L38.488,40.351 C37.4030632,40.8793007 36.1209467,40.802338 35.1069983,40.1480459 C34.0930499,39.4937537 33.494654,38.3572379 33.529,37.151 L33.529,23.576 C33.5266251,19.3753405 36.6791401,15.8427503 40.853,15.369 C42.7507602,15.195914 44.6569474,15.1328085 46.562,15.18 C48.4597264,15.1330114 50.3585808,15.1961174 52.249,15.369 C56.4228599,15.8427503 59.5753749,19.3753405 59.573,23.576 L59.573,37.158 C59.607346,38.3642379 59.0089501,39.5007537 57.9950017,40.1550459 C56.9810533,40.809338 55.6989368,40.8863007 54.614,40.358 L54.614,67.088 C54.6137349,67.3460557 54.5109684,67.5934368 54.3283079,67.7757222 C54.1456475,67.9580075 53.8980557,68.0602654 53.64,68.06 Z M49.278,66.111 L52.667,66.111 L52.667,37.251 C52.683836,36.7260389 53.114269,36.3091889 53.6395,36.3091889 C54.164731,36.3091889 54.595164,36.7260389 54.612,37.251 C54.6132976,37.7043826 54.8179794,38.1332545 55.169638,38.4194252 C55.5212966,38.7055959 55.9828129,38.8188587 56.427,38.728 C57.1453264,38.5528907 57.6447453,37.9011489 57.627,37.162 L57.627,23.576 C57.6260583,20.3648394 55.2172544,17.6648283 52.027,17.299 C50.2104661,17.1369988 48.3861607,17.0789042 46.563,17.125 C44.7325121,17.0785449 42.9008649,17.1366394 41.077,17.299 C37.8867456,17.6648283 35.4779417,20.3648394 35.477,23.576 L35.477,37.158 C35.4592547,37.8971489 35.9586736,38.5488907 36.677,38.724 C37.1197583,38.8130181 37.5791292,38.6994579 37.9294115,38.4143939 C38.2796938,38.12933 38.4842112,37.7026098 38.487,37.251 C38.4756188,36.8961226 38.6584468,36.5632212 38.9640229,36.3824154 C39.2695991,36.2016096 39.6494009,36.2016096 39.9549771,36.3824154 C40.2605532,36.5632212 40.4433812,36.8961226 40.432,37.251 L40.432,66.111 L43.821,66.111 L43.821,45.311 C43.8051995,43.9537442 44.7631599,42.7797689 46.096,42.523 C46.8875899,42.3904062 47.6974217,42.6128701 48.3101877,43.1312459 C48.9229538,43.6496217 49.2765621,44.4113821 49.277,45.214 L49.278,66.111 Z" id="Path_147"></path>
                <path d="M76.048,68.06 L70.711,68.06 C70.1736269,68.06 69.738,67.6243731 69.738,67.087 L69.738,45.217 C69.7394507,44.9855492 69.6375096,44.7655325 69.46,44.617 C69.2808053,44.4666832 69.0444508,44.4030211 68.814,44.443 C68.4209,44.5444057 68.1518344,44.9063531 68.168,45.312 L68.168,67.088 C68.168,67.6253731 67.7323731,68.061 67.195,68.061 L61.861,68.061 C61.3243107,68.0593529 60.8896471,67.6246893 60.888,67.088 L60.888,40.351 C60.2113029,40.6782623 59.4467142,40.7772132 58.709,40.633 C58.1053575,40.51559 57.5462206,40.2327325 57.094,39.816 C56.8922691,39.6326759 56.7774806,39.3725854 56.778,39.1 C56.778214,38.8264124 56.8927828,38.5653695 57.094,38.38 C57.4323238,38.0623415 57.6244644,37.6190793 57.625,37.155 L57.625,23.576 C57.6188786,22.5635285 57.3651714,21.5679253 56.886,20.676 C56.7406003,20.3936176 56.7406003,20.0583824 56.886,19.776 C58.1418452,17.3381648 60.5283159,15.6849547 63.252,15.366 C65.149765,15.1929921 67.0559477,15.1298867 68.961,15.177 C70.8587266,15.1299418 72.7575851,15.1930479 74.648,15.366 C78.8218599,15.8397503 81.9743749,19.3723405 81.972,23.573 L81.972,37.158 C82.0067904,38.3635462 81.4091572,39.49965 80.3960196,40.1539468 C79.382882,40.8082435 78.1015118,40.8856233 77.017,40.358 L77.017,43.948 C77.000164,44.4729611 76.569731,44.8898111 76.0445,44.8898111 C75.519269,44.8898111 75.088836,44.4729611 75.072,43.948 L75.072,37.251 C75.088836,36.7260389 75.519269,36.3091889 76.0445,36.3091889 C76.569731,36.3091889 77.000164,36.7260389 77.017,37.251 C77.0167051,37.704169 77.2203552,38.1334127 77.5715375,38.419827 C77.9227199,38.7062413 78.3841471,38.8194158 78.828,38.728 C79.5463264,38.5528907 80.0457453,37.9011489 80.028,37.162 L80.028,23.576 C80.0284183,20.3643208 77.6189241,17.663536 74.428,17.299 C72.610129,17.137003 70.7844927,17.0789085 68.96,17.125 C67.1295126,17.0787013 65.2978743,17.1367955 63.474,17.299 C61.5596285,17.5254264 59.8547426,18.6170546 58.848,20.261 C59.3197538,21.3026412 59.5651561,22.4325141 59.568,23.576 L59.568,37.158 C59.5683432,37.7070904 59.4438745,38.2490763 59.204,38.743 C59.6322859,38.7953641 60.0623797,38.660763 60.3844031,38.373584 C60.7064265,38.086405 60.8891893,37.6744634 60.886,37.243 C60.902836,36.7180389 61.333269,36.3011889 61.8585,36.3011889 C62.383731,36.3011889 62.814164,36.7180389 62.831,37.243 L62.831,66.111 L66.22,66.111 L66.22,45.311 C66.2041489,43.9523533 67.1643468,42.7777014 68.499,42.523 C69.2905899,42.3904062 70.1004217,42.6128701 70.7131877,43.1312459 C71.3259538,43.6496217 71.6795621,44.4113821 71.68,45.214 L71.68,66.111 L75.069,66.111 L75.069,62.511 C75.085836,61.9860389 75.516269,61.5691889 76.0415,61.5691889 C76.566731,61.5691889 76.997164,61.9860389 77.014,62.511 L77.014,67.092 C77.0112763,67.6247005 76.5806937,68.0561745 76.048,68.06 Z" id="Path_148"></path>
                <path d="M76.046,63.483 C75.7875056,63.4827352 75.5397183,63.379726 75.3572166,63.1966616 C75.1747149,63.0135972 75.0724691,62.765494 75.073,62.507 L75.073,60.076 C75.0616188,59.7211226 75.2444468,59.3882212 75.5500229,59.2074154 C75.8555991,59.0266096 76.2354009,59.0266096 76.5409771,59.2074154 C76.8465532,59.3882212 77.0293812,59.7211226 77.018,60.076 L77.018,62.507 C77.018531,62.765321 76.9164223,63.0132728 76.7341368,63.1963084 C76.5518513,63.379344 76.304321,63.4824701 76.046,63.483 L76.046,63.483 Z" id="Path_149"></path>
                <path d="M76.046,56.4830021 C75.7877815,56.4835324 75.5399857,56.3811912 75.3573973,56.1986027 C75.1748088,56.0160143 75.0724676,55.7682185 75.0729979,55.51 L75.0729979,50.941 C75.089836,50.4160389 75.520269,49.9991889 76.0455,49.9991889 C76.570731,49.9991889 77.001164,50.4160389 77.0180021,50.941 L77.0180021,55.51 C77.0185316,55.7680449 76.9163275,56.0156886 76.7339557,56.1982481 C76.5515838,56.3808076 76.3040453,56.4832663 76.046,56.4830021 Z" id="Path_150"></path>
                <path d="M76.046,47.3470021 C75.7877815,47.3475324 75.5399857,47.2451912 75.3573973,47.0626027 C75.1748088,46.8800143 75.0724676,46.6322185 75.073,46.374 L75.073,43.944 C75.0616188,43.5891226 75.2444468,43.2562212 75.5500229,43.0754154 C75.8555991,42.8946096 76.2354009,42.8946096 76.5409771,43.0754154 C76.8465532,43.2562212 77.0293812,43.5891226 77.018,43.944 L77.018,46.375 C77.0182657,46.6328718 76.9159442,46.8802582 76.7336012,47.0626012 C76.5512582,47.2449442 76.3038718,47.3472657 76.046,47.3470021 Z" id="Path_151"></path>
                <path d="M31.238,68.06 L25.903,68.06 C25.3656269,68.06 24.93,67.6243731 24.93,67.087 L24.93,45.216 C24.9314507,44.9845492 24.8295096,44.7645325 24.652,44.616 C24.4733978,44.4645503 24.2365075,44.4007439 24.006,44.442 C23.6129,44.5434057 23.3438344,44.9053531 23.36,45.311 L23.36,67.087 C23.36,67.6243731 22.9243731,68.06 22.387,68.06 L17.054,68.06 C16.5173107,68.0583529 16.0826471,67.6236893 16.081,67.087 L16.081,40.35 C14.9964011,40.8781045 13.714673,40.8009727 12.7012325,40.1466124 C11.687792,39.4922521 11.0900285,38.35583 11.125,37.15 L11.125,23.576 C11.1226251,19.3753405 14.2751401,15.8427503 18.449,15.369 C20.345423,15.1959121 22.2502793,15.1328064 24.154,15.18 C26.0527323,15.1312485 27.952688,15.1943577 29.844,15.369 C32.5680717,15.6869285 34.9549794,17.3404413 36.21,19.779 C36.3553997,20.0613824 36.3553997,20.3966176 36.21,20.679 C35.7308286,21.5709253 35.4771214,22.5665285 35.471,23.579 L35.471,37.158 C35.4715356,37.6220793 35.6636762,38.0653415 36.002,38.383 C36.2033146,38.5676651 36.3179228,38.8283173 36.3179228,39.1015 C36.3179228,39.3746827 36.2033146,39.6353349 36.002,39.82 C35.5497794,40.2367325 34.9906425,40.51959 34.387,40.637 C33.6492765,40.7809215 32.8847805,40.6819826 32.208,40.355 L32.208,67.087 C32.2080025,67.6232037 31.7742011,68.0583468 31.238,68.06 L31.238,68.06 Z M26.876,66.111 L30.265,66.111 L30.265,37.25 C30.2536188,36.8951226 30.4364468,36.5622212 30.7420229,36.3814154 C31.0475991,36.2006096 31.4274009,36.2006096 31.7329771,36.3814154 C32.0385532,36.5622212 32.2213812,36.8951226 32.21,37.25 C32.2068107,37.6814634 32.3895735,38.093405 32.7115969,38.380584 C33.0336203,38.667763 33.4637141,38.8023641 33.892,38.75 C33.6521255,38.2560763 33.5276568,37.7140904 33.528,37.165 L33.528,23.576 C33.530419,22.4320405 33.7772639,21.3018048 34.252,20.261 C33.2436459,18.6172466 31.5380053,17.525843 29.623,17.299 C27.8051337,17.1369248 25.979493,17.0788301 24.155,17.125 C22.3245126,17.0786991 20.4928741,17.1367934 18.669,17.299 C15.4780759,17.663536 13.0685418,20.3643208 13.069,23.576 L13.069,37.158 C13.0512547,37.8971489 13.5506736,38.5488907 14.269,38.724 C14.7126353,38.815998 15.1741201,38.7035165 15.5256681,38.417702 C15.8772161,38.1318875 16.0815172,37.7030736 16.082,37.25 C16.0706188,36.8951226 16.2534468,36.5622212 16.5590229,36.3814154 C16.8645991,36.2006096 17.2444009,36.2006096 17.5499771,36.3814154 C17.8555532,36.5622212 18.0383812,36.8951226 18.027,37.25 L18.027,66.111 L21.416,66.111 L21.416,45.311 C21.4010351,43.9534164 22.3604952,42.7799942 23.694,42.525 C24.4855899,42.3924062 25.2954217,42.6148701 25.9081877,43.1332459 C26.5209538,43.6516217 26.8745621,44.4133821 26.875,45.216 L26.876,66.111 Z" id="Path_152"></path>
                <path d="M85.162,68.06 L1.862,68.06 C1.49718285,68.0861486 1.14831464,67.9063397 0.957935962,67.5940398 C0.76755728,67.2817398 0.76755728,66.8892602 0.957935962,66.5769602 C1.14831464,66.2646603 1.49718285,66.0848514 1.862,66.111 L85.162,66.111 C85.5268172,66.0848514 85.8756854,66.2646603 86.066064,66.5769602 C86.2564427,66.8892602 86.2564427,67.2817398 86.066064,67.5940398 C85.8756854,67.9063397 85.5268172,68.0861486 85.162,68.06 L85.162,68.06 Z" id="Path_153"></path>
            </g>
            <g id="Group_59" transform="translate(0.000000, 11.047000)">
                <g id="Ellipse_10">
                    <circle id="Oval" cx="36.09" cy="36.09" r="36.09"></circle>
                    <circle id="Oval" stroke="#EFAF01" stroke-width="4" cx="36.09" cy="36.09" r="34.09"></circle>
                </g>
                <g id="_" transform="translate(18.000000, 8.590000)" fill="#EFAF01" fill-rule="nonzero" font-family="Roboto-Black, Roboto" font-size="40" font-weight="700">
                    <text id="@">
                        <tspan x="0.1" y="37">@</tspan>
                    </text>
                </g>
            </g>
        </g>
    </g>
</svg>