<svg id="twitter" xmlns="http://www.w3.org/2000/svg" width="30.648" height="25.076" viewBox="0 0 30.648 25.076">
  <path id="Path" d="M30.648,2.965a12.918,12.918,0,0,1-3.621,1A6.274,6.274,0,0,0,29.792.47,12.549,12.549,0,0,1,25.805,2,6.272,6.272,0,0,0,14.941,6.328a6.641,6.641,0,0,0,.144,1.44A17.763,17.763,0,0,1,2.131,1.151,6.353,6.353,0,0,0,4.058,9.606a6.149,6.149,0,0,1-2.837-.777V8.9a6.34,6.34,0,0,0,5.034,6.213,6.319,6.319,0,0,1-1.646.211,5.584,5.584,0,0,1-1.191-.108A6.346,6.346,0,0,0,9.29,19.622a12.588,12.588,0,0,1-7.788,2.7A12.282,12.282,0,0,1,0,22.237a17.594,17.594,0,0,0,9.637,2.838c11.565,0,17.886-9.642,17.886-18,0-.277-.012-.548-.024-.82A12.629,12.629,0,0,0,30.648,2.965Z" transform="translate(0 0)" fill="#fff"/>
</svg>
