<svg width="52" height="52" viewBox="0 0 52 52" fill="none" xmlns="http://www.w3.org/2000/svg">
<path d="M12.7835 19.3375C12.7835 16.4125 15.1126 14.0834 18.0376 14.0834H29.3043V19.3375C29.3043 20.4209 29.9001 21.3959 30.821 21.8834C31.2543 22.1 31.6876 22.2084 32.121 22.2084C32.7168 22.2084 33.2585 22.0459 33.746 21.6667L45.0668 13.5417C45.8251 13 46.2585 12.1334 46.2585 11.2125C46.2585 10.2917 45.8251 9.42503 45.0668 8.88336L33.746 0.758359C32.8793 0.162526 31.7418 0.0541922 30.821 0.541692C29.9001 1.02919 29.3043 2.00419 29.3043 3.08753V8.34169H18.0918C12.0251 8.34169 7.15015 13.2709 7.15015 19.2834V32.5L12.8376 28.4375V19.3375H12.7835Z" fill="#EAB308"/>
<path d="M40.3001 32.6625C40.3001 35.5875 37.971 37.9167 35.046 37.9167H23.7251V32.6625C23.7251 31.5792 23.1293 30.6042 22.2085 30.1167C21.2876 29.6292 20.1501 29.7375 19.2835 30.3334L7.90846 38.4584C7.15013 39 6.7168 39.8667 6.7168 40.7875C6.7168 41.7084 7.15013 42.575 7.90846 43.1167L19.2293 51.2417C19.7168 51.5667 20.3126 51.7834 20.8543 51.7834C21.2876 51.7834 21.721 51.675 22.1543 51.4584C23.0751 50.9709 23.671 49.9959 23.671 48.9125V43.6584H34.9918C41.0585 43.6584 45.9335 38.7292 45.9335 32.7167V19.4459L40.246 23.5084V32.6625H40.3001Z" fill="#FDE047"/>
</svg>
