<svg width="52" height="52" viewBox="0 0 52 52" fill="none" xmlns="http://www.w3.org/2000/svg">
<g clip-path="url(#clip0)">
<path d="M30.5906 31.5264C30.5906 30.44 29.7067 29.5562 28.6203 29.5562H23.1562V33.4968H28.6203C29.7067 33.4967 30.5906 32.6128 30.5906 31.5264Z" fill="#EC4899"/>
<path d="M23.1562 40.4842H28.6203C29.7067 40.4842 30.5906 39.6003 30.5906 38.5139C30.5906 37.4275 29.7067 36.5437 28.6203 36.5437H23.1562V40.4842Z" fill="#EC4899"/>
<path d="M26.1462 21.3972C26.0976 21.4019 26.0489 21.4043 26 21.4043C25.9511 21.4043 25.9024 21.4019 25.8538 21.3972L0 18.9028V44.3588C0 47.6081 2.64347 50.2516 5.89276 50.2516H46.1072C49.3565 50.2516 52 47.6081 52 44.3588V18.9028L26.1462 21.3972ZM19.8859 29.5562C19.0446 29.5562 18.3625 28.8741 18.3625 28.0327C18.3625 27.1914 19.0446 26.5093 19.8859 26.5093H21.0255V26.2859C21.0255 25.4445 21.7076 24.7624 22.5489 24.7624C23.3903 24.7624 24.0723 25.4445 24.0723 26.2859V26.5093H27.838V26.2859C27.838 25.4445 28.5201 24.7624 29.3614 24.7624C30.2028 24.7624 30.8848 25.4445 30.8848 26.2859V27.0516C32.5163 27.8807 33.6375 29.5746 33.6375 31.5264C33.6375 32.8837 33.0948 34.116 32.2161 35.0201C33.0948 35.9242 33.6375 37.1565 33.6375 38.5139C33.6375 40.4658 32.5163 42.1597 30.8848 42.9887V43.7545C30.8848 44.5958 30.2028 45.2779 29.3614 45.2779C28.5201 45.2779 27.838 44.5958 27.838 43.7545V43.5311H24.0723V43.7545C24.0723 44.5958 23.3903 45.2779 22.5489 45.2779C21.7076 45.2779 21.0255 44.5958 21.0255 43.7545V43.5311H19.8859C19.0446 43.5311 18.3625 42.849 18.3625 42.0076C18.3625 41.1663 19.0446 40.4842 19.8859 40.4842H20.1094V29.5561H19.8859V29.5562Z" fill="#EC4899"/>
<path d="M26 18.3504L52 15.8419V14.6344C52 11.3852 49.3565 8.74164 46.1072 8.74164H34.5167V5.92938C34.5167 3.62401 32.6412 1.74835 30.3357 1.74835H21.6643C19.3589 1.74835 17.4833 3.62401 17.4833 5.92938V8.74164H5.89276C2.64347 8.74154 0 11.3851 0 14.6343V15.8418L26 18.3504ZM20.5301 5.92927C20.5301 5.30395 21.0389 4.79513 21.6643 4.79513H30.3358C30.9611 4.79513 31.47 5.30395 31.47 5.92927V8.74154H20.5301V5.92927Z" fill="#F9A8D4"/>
</g>
<defs>
<clipPath id="clip0">
<rect width="52" height="52" fill="white"/>
</clipPath>
</defs>
</svg>
