<svg width="52" height="52" viewBox="0 0 52 52" fill="none" xmlns="http://www.w3.org/2000/svg">
<g clip-path="url(#clip0)">
<path d="M13.0463 2.78571C6.92463 2.78571 1.85718 7.99141 1.85718 14.28V28.5292C1.85718 34.8179 6.92463 39.9286 13.0463 39.9286C19.1679 39.9286 24.1429 34.8179 24.1429 28.5292V14.28C24.1429 7.99141 19.1679 2.78571 13.0463 2.78571Z" fill="#22C55E"/>
<path d="M10.2721 14.2801H15.8204C16.5879 14.2801 17.2075 13.6436 17.2075 12.8552C17.2075 12.0667 16.5879 11.4302 15.8204 11.4302H10.2721C9.50457 11.4302 8.88501 12.0667 8.88501 12.8552C8.88501 13.6436 9.50457 14.2801 10.2721 14.2801Z" fill="#121317"/>
<path d="M13.0464 17.1299C9.98554 17.1299 7.49805 19.6852 7.49805 22.8296V28.5292C7.49805 31.6735 9.98554 34.2289 13.0464 34.2289C16.1072 34.2289 18.5947 31.6735 18.5947 28.5292V22.8296C18.5947 19.6852 16.1072 17.1299 13.0464 17.1299Z" fill="#121317"/>
</g>
<g clip-path="url(#clip1)">
<path d="M39.9747 13C33.8531 13 28.7856 18.0756 28.7856 24.207V38.0999C28.7856 44.2313 33.8531 49.2143 39.9747 49.2143C46.0964 49.2143 51.0714 44.2313 51.0714 38.0999V24.207C51.0714 18.0756 46.0964 13 39.9747 13Z" fill="#6EE7B7"/>
<path d="M37.2006 24.207H42.7489C43.5164 24.207 44.1359 23.5864 44.1359 22.8177C44.1359 22.049 43.5164 21.4284 42.7489 21.4284H37.2006C36.433 21.4284 35.8135 22.049 35.8135 22.8177C35.8135 23.5864 36.433 24.207 37.2006 24.207Z" fill="#121317"/>
<path d="M39.9748 26.9856C36.914 26.9856 34.4265 29.4771 34.4265 32.5428V38.1C34.4265 41.1657 36.914 43.6571 39.9748 43.6571C43.0356 43.6571 45.5231 41.1657 45.5231 38.1V32.5428C45.5231 29.4771 43.0356 26.9856 39.9748 26.9856Z" fill="#121317"/>
</g>
<defs>
<clipPath id="clip0">
<rect width="22.2857" height="37.1429" fill="white" transform="translate(1.85718 2.78571)"/>
</clipPath>
<clipPath id="clip1">
<rect width="22.2857" height="36.2143" fill="white" transform="translate(28.7856 13)"/>
</clipPath>
</defs>
</svg>
