<svg width="52" height="52" viewBox="0 0 52 52" fill="none" xmlns="http://www.w3.org/2000/svg">
<path d="M48.7291 38.5155L44.1167 33.9032C44.7574 32.9403 45.2017 31.8604 45.4242 30.7254C45.6781 29.5281 45.6781 28.2909 45.4242 27.0936C45.0074 25.0412 43.8939 23.1959 42.2723 21.8705C40.6507 20.5451 38.6207 19.821 36.5264 19.821C34.432 19.821 32.4021 20.5451 30.7805 21.8705C29.1589 23.1959 28.0454 25.0412 27.6286 27.0936C27.3865 28.2921 27.3865 29.5269 27.6286 30.7254C27.9267 32.1789 28.5765 33.5372 29.5211 34.6815C30.4657 35.8257 31.6764 36.721 33.0471 37.289C34.4179 37.857 35.907 38.0804 37.384 37.9397C38.8611 37.799 40.2812 37.2984 41.52 36.4817L46.1324 41.094C46.3012 41.2642 46.502 41.3993 46.7233 41.4915C46.9446 41.5837 47.1819 41.6312 47.4216 41.6312C47.6613 41.6312 47.8987 41.5837 48.12 41.4915C48.3413 41.3993 48.5421 41.2642 48.7109 41.094C48.8823 40.9264 49.0188 40.7265 49.1126 40.5059C49.2063 40.2853 49.2554 40.0483 49.2571 39.8085C49.2588 39.5688 49.213 39.3311 49.1224 39.1092C49.0318 38.8873 48.8981 38.6855 48.7291 38.5155ZM36.5445 34.3571C35.4671 34.3571 34.4139 34.0376 33.518 33.439C32.6222 32.8405 31.9239 31.9897 31.5116 30.9942C31.0993 29.9988 30.9914 28.9035 31.2016 27.8467C31.4118 26.79 31.9306 25.8193 32.6925 25.0575C33.4544 24.2956 34.425 23.7768 35.4818 23.5666C36.5385 23.3564 37.6338 23.4643 38.6293 23.8766C39.6247 24.2889 40.4755 24.9871 41.0741 25.883C41.6727 26.7788 41.9922 27.8321 41.9922 28.9095C41.9922 30.3543 41.4182 31.7399 40.3966 32.7616C39.375 33.7832 37.9893 34.3571 36.5445 34.3571Z" fill="#A855F7"/>
<path d="M25.6493 28.9095C25.6436 28.1715 25.7167 27.4349 25.8672 26.7123C26.3673 24.2494 27.7035 22.035 29.6494 20.4445C31.5954 18.8541 34.0313 17.9852 36.5445 17.9852C39.0577 17.9852 41.4937 18.8541 43.4396 20.4445C45.3855 22.035 46.7217 24.2494 47.2218 26.7123C47.486 28.0309 47.486 29.3887 47.2218 30.7072H49.2556C49.7372 30.7072 50.1991 30.5159 50.5396 30.1754C50.8802 29.8348 51.0715 29.373 51.0715 28.8914V14.3413C51.0715 13.8597 50.8802 13.3978 50.5396 13.0572C50.1991 12.7167 49.7372 12.5254 49.2556 12.5254H2.04292C1.56132 12.5254 1.09945 12.7167 0.758908 13.0572C0.418365 13.3978 0.227051 13.8597 0.227051 14.3413V28.9095C0.227051 29.3911 0.418365 29.853 0.758908 30.1935C1.09945 30.5341 1.56132 30.7254 2.04292 30.7254H25.8127C25.7059 30.1259 25.6513 29.5184 25.6493 28.9095Z" fill="#D8B4FE"/>
</svg>
