<svg width="52" height="52" viewBox="0 0 52 52" fill="none" xmlns="http://www.w3.org/2000/svg">
<g clip-path="url(#clip0)">
<path d="M11.8794 20.2748C11.8794 16.1961 15.164 12.8891 19.2151 12.8891C22.3902 12.8891 25.1274 14.9836 26.1128 17.8497L35.0361 8.86551L30.766 4.56635C30.2733 4.07029 29.4522 4.07029 28.9595 4.56635L26.8792 6.66081C25.7843 6.05452 24.6347 5.55846 23.3756 5.22776V2.25141C23.3756 1.47976 22.7734 0.928589 22.0618 0.928589H16.3684C15.602 0.928589 15.0546 1.47976 15.0546 2.25141V5.22776C13.7954 5.55846 12.6458 6.05452 11.5509 6.66081L9.47068 4.56635C8.97799 4.07029 8.15683 4.07029 7.66414 4.56635L3.66784 8.58993C3.17514 9.08599 3.17514 9.91275 3.66784 10.4088L5.7481 12.5033C5.14592 13.6056 4.65323 14.7631 4.32476 16.0308H1.31385C0.547438 16.0308 0 16.6371 0 17.3536V23.0307C0 23.8024 0.547438 24.3535 1.31385 24.3535H4.27002C4.59848 25.6212 5.09118 26.7787 5.69336 27.8811L3.61309 29.9755C3.06565 30.4716 3.1204 31.2984 3.61309 31.7944L7.88311 36.0936L16.8064 27.1094C13.9049 26.2275 11.8794 23.4717 11.8794 20.2748Z" fill="#5EEAD4"/>
<path d="M36.0823 15.3141L16.5728 34.9568L24.9727 43.4141L44.4822 23.7714L36.0823 15.3141Z" fill="#14B8A6"/>
<path d="M51.4593 14.2671L45.6018 8.31437C44.8901 7.59785 43.7952 7.59785 43.0835 8.31437L39.2515 12.1726L47.682 20.6607L51.5141 16.8025C52.171 16.0859 52.171 14.9285 51.4593 14.2671Z" fill="#14B8A6"/>
<path d="M11.2774 40.3376C11.0584 40.5581 10.8942 40.8888 10.7847 41.2195L9.03292 48.8809C8.7592 50.1486 9.90882 51.306 11.1679 51.0304L18.7773 49.2667C19.1058 49.2116 19.3795 49.0462 19.6532 48.7706L21.843 46.5659L13.4672 38.1329L11.2774 40.3376Z" fill="#14B8A6"/>
</g>
<defs>
<clipPath id="clip0">
<rect width="52" height="52" fill="white"/>
</clipPath>
</defs>
</svg>
