<svg width="52" height="52" viewBox="0 0 52 52" fill="none" xmlns="http://www.w3.org/2000/svg">
<g clip-path="url(#clip0)">
<path d="M51.1601 6.19897L47.5521 4.39563L45.7473 0.786097C45.2295 -0.246489 43.5363 -0.246489 43.0215 0.786097L41.2182 4.39563L37.6087 6.19897C36.4888 6.75726 36.4888 8.36642 37.6087 8.92471L41.2182 10.728L43.0215 14.3376C43.577 15.4518 45.1823 15.4643 45.7473 14.3376L47.5521 10.728L51.1601 8.92471C52.2799 8.36327 52.2799 6.76041 51.1601 6.19897Z" fill="#FCA5A5"/>
<path d="M14.3914 43.0098L10.7818 41.2065L8.97848 37.5969C8.46376 36.5644 6.76746 36.5644 6.25275 37.5969L4.4494 41.2065L0.839871 43.0098C-0.279957 43.5681 -0.279957 45.1773 0.839871 45.7356L4.4494 47.5389L6.25275 51.1484C6.81104 52.2683 8.42019 52.2683 8.97848 51.1484L10.7818 47.5389L14.3914 45.7356C15.5111 45.1772 15.5111 43.568 14.3914 43.0098Z" fill="#FCA5A5"/>
<path d="M16.5216 26.9711L7.5957 31.0396L21.3347 44.4148L25.306 35.5222L16.5216 26.9711Z" fill="#EF4444"/>
<path d="M45.7542 23.642L36.6672 27.7436V34.4967L45.3519 43.1813C45.6363 42.5862 45.8087 41.9281 45.8087 41.2262V24.2005C45.8087 24.0108 45.7769 23.8275 45.7542 23.642Z" fill="#EF4444"/>
<path d="M6.65385 8.79205C6.36876 9.38802 6.1958 10.0467 6.1958 10.7503V27.7477C6.1958 27.9361 6.22942 28.1202 6.25268 28.306L15.3372 24.1652V17.4753L6.65385 8.79205Z" fill="#EF4444"/>
<path d="M31.0803 7.57959L27.0598 16.4873L35.5008 24.9283L44.4085 20.9078L31.0803 7.57959Z" fill="#EF4444"/>
<path d="M24.6318 18.3681H18.3843V24.5323L27.728 33.5972L33.62 33.5897V27.3563L24.6318 18.3681Z" fill="#EF4444"/>
<path d="M34.5273 36.6652L28.1273 36.6747L24.0896 45.7155C24.2762 45.7386 24.4472 45.822 24.6378 45.822L41.2453 45.7967C41.9471 45.7954 42.6041 45.622 43.1988 45.3369L34.5273 36.6652Z" fill="#EF4444"/>
<path d="M27.7877 6.17957H10.7666C10.063 6.17957 9.40432 6.35253 8.80835 6.63761L17.4916 15.3209H24.2447L28.3462 6.2339C28.1608 6.21135 27.9775 6.17957 27.7877 6.17957Z" fill="#EF4444"/>
</g>
<defs>
<clipPath id="clip0">
<rect width="52" height="52" fill="white"/>
</clipPath>
</defs>
</svg>
