<svg width="146" height="36" viewBox="0 0 146 36" fill="none" xmlns="http://www.w3.org/2000/svg">
<path d="M51.7 22C51.8867 22.0533 52.1267 22.0933 52.42 22.12C52.7134 22.1333 52.9934 22.14 53.26 22.14C53.7934 22.14 54.2334 22.0333 54.58 21.82C54.94 21.5933 55.12 21.2467 55.12 20.78C55.12 20.34 54.9734 20.0267 54.68 19.84C54.3867 19.6533 53.94 19.56 53.34 19.56H51.7V22ZM51.7 17.12H53.16C53.7334 17.12 54.1467 17.0133 54.4 16.8C54.6667 16.5867 54.8 16.2733 54.8 15.86C54.8 15.5 54.6467 15.2133 54.34 15C54.0467 14.7867 53.6 14.68 53 14.68C52.8 14.68 52.5667 14.6867 52.3 14.7C52.0467 14.7133 51.8467 14.7333 51.7 14.76V17.12ZM53 24.82C52.7734 24.82 52.5067 24.8133 52.2 24.8C51.8934 24.7867 51.5734 24.76 51.24 24.72C50.92 24.68 50.6 24.6267 50.28 24.56C49.96 24.5067 49.6667 24.4267 49.4 24.32C48.6667 24.04 48.3 23.5533 48.3 22.86V13.52C48.3 13.24 48.3734 13.0267 48.52 12.88C48.68 12.72 48.8934 12.5933 49.16 12.5C49.6134 12.34 50.18 12.2267 50.86 12.16C51.54 12.08 52.24 12.04 52.96 12.04C54.6667 12.04 55.98 12.3267 56.9 12.9C57.82 13.4733 58.28 14.36 58.28 15.56C58.28 16.16 58.1067 16.68 57.76 17.12C57.4134 17.5467 56.9467 17.86 56.36 18.06C57.0267 18.2467 57.58 18.5867 58.02 19.08C58.4734 19.5733 58.7 20.1933 58.7 20.94C58.7 22.26 58.2067 23.24 57.22 23.88C56.2467 24.5067 54.84 24.82 53 24.82Z" fill="#FACC15"/>
<path d="M64.1229 19.68C63.5362 19.48 63.0029 19.28 62.5229 19.08C62.0429 18.8667 61.6295 18.6133 61.2829 18.32C60.9362 18.0267 60.6629 17.68 60.4629 17.28C60.2762 16.8667 60.1829 16.3667 60.1829 15.78C60.1829 14.6467 60.6162 13.74 61.4829 13.06C62.3629 12.38 63.5895 12.04 65.1629 12.04C65.7362 12.04 66.2695 12.08 66.7629 12.16C67.2562 12.24 67.6762 12.3667 68.0229 12.54C68.3829 12.7 68.6629 12.9133 68.8629 13.18C69.0629 13.4333 69.1629 13.7333 69.1629 14.08C69.1629 14.4267 69.0829 14.7267 68.9229 14.98C68.7629 15.22 68.5695 15.4267 68.3429 15.6C68.0495 15.4133 67.6562 15.2533 67.1629 15.12C66.6695 14.9733 66.1295 14.9 65.5429 14.9C64.9429 14.9 64.5029 14.9867 64.2229 15.16C63.9429 15.32 63.8029 15.5267 63.8029 15.78C63.8029 15.98 63.8895 16.1467 64.0629 16.28C64.2362 16.4 64.4962 16.5133 64.8429 16.62L65.9029 16.96C67.1562 17.36 68.1162 17.8733 68.7829 18.5C69.4629 19.1133 69.8029 19.9533 69.8029 21.02C69.8029 22.1533 69.3562 23.0733 68.4629 23.78C67.5695 24.4733 66.2562 24.82 64.5229 24.82C63.9095 24.82 63.3362 24.7667 62.8029 24.66C62.2829 24.5667 61.8229 24.4267 61.4229 24.24C61.0362 24.04 60.7295 23.8 60.5029 23.52C60.2895 23.2267 60.1829 22.8933 60.1829 22.52C60.1829 22.1333 60.2962 21.8067 60.5229 21.54C60.7495 21.26 60.9962 21.0467 61.2629 20.9C61.6362 21.1933 62.0895 21.4467 62.6229 21.66C63.1695 21.8733 63.7629 21.98 64.4029 21.98C65.0562 21.98 65.5162 21.88 65.7829 21.68C66.0495 21.48 66.1829 21.2467 66.1829 20.98C66.1829 20.7133 66.0762 20.5133 65.8629 20.38C65.6495 20.2333 65.3495 20.0933 64.9629 19.96L64.1229 19.68Z" fill="#FACC15"/>
<path d="M77.9566 14.82C76.9299 14.82 76.1433 15.1333 75.5966 15.76C75.0499 16.3867 74.7766 17.2733 74.7766 18.42C74.7766 19.58 75.0766 20.4733 75.6766 21.1C76.2899 21.7267 77.1099 22.04 78.1366 22.04C78.6833 22.04 79.1433 21.9667 79.5166 21.82C79.9033 21.6733 80.2699 21.5067 80.6166 21.32C80.8433 21.5067 81.0166 21.7333 81.1366 22C81.2699 22.2533 81.3366 22.5533 81.3366 22.9C81.3366 23.4467 81.0299 23.9133 80.4166 24.3C79.8166 24.6733 78.8966 24.86 77.6566 24.86C76.7633 24.86 75.9233 24.7333 75.1366 24.48C74.3499 24.2267 73.6633 23.84 73.0766 23.32C72.4899 22.7867 72.0233 22.12 71.6766 21.32C71.3433 20.5067 71.1766 19.54 71.1766 18.42C71.1766 17.38 71.3366 16.4667 71.6566 15.68C71.9899 14.88 72.4366 14.2067 72.9966 13.66C73.5699 13.1133 74.2366 12.7 74.9966 12.42C75.7566 12.14 76.5699 12 77.4366 12C78.6633 12 79.6099 12.2 80.2766 12.6C80.9566 13 81.2966 13.5133 81.2966 14.14C81.2966 14.4867 81.2099 14.7867 81.0366 15.04C80.8633 15.2933 80.6633 15.4933 80.4366 15.64C80.0899 15.4133 79.7166 15.22 79.3166 15.06C78.9299 14.9 78.4766 14.82 77.9566 14.82Z" fill="#FACC15"/>
<path d="M82.6354 22.88C82.6354 22.32 82.8087 21.8533 83.1554 21.48C83.502 21.1067 83.9754 20.92 84.5754 20.92C85.1754 20.92 85.6487 21.1067 85.9954 21.48C86.342 21.8533 86.5154 22.32 86.5154 22.88C86.5154 23.44 86.342 23.9067 85.9954 24.28C85.6487 24.6533 85.1754 24.84 84.5754 24.84C83.9754 24.84 83.502 24.6533 83.1554 24.28C82.8087 23.9067 82.6354 23.44 82.6354 22.88Z" fill="#FACC15"/>
<path d="M86.7049 15.18C86.6116 15.0333 86.5249 14.8333 86.4449 14.58C86.3649 14.3267 86.3249 14.06 86.3249 13.78C86.3249 13.26 86.4382 12.8867 86.6649 12.66C86.9049 12.4333 87.2116 12.32 87.5849 12.32H96.3049C96.3982 12.4667 96.4849 12.6667 96.5649 12.92C96.6449 13.1733 96.6849 13.44 96.6849 13.72C96.6849 14.24 96.5649 14.6133 96.3249 14.84C96.0982 15.0667 95.7982 15.18 95.4249 15.18H93.2049V24.42C93.0582 24.46 92.8249 24.5 92.5049 24.54C92.1982 24.58 91.8916 24.6 91.5849 24.6C91.2782 24.6 91.0049 24.5733 90.7649 24.52C90.5382 24.48 90.3449 24.4 90.1849 24.28C90.0249 24.16 89.9049 23.9933 89.8249 23.78C89.7449 23.5667 89.7049 23.2867 89.7049 22.94V15.18H86.7049Z" fill="#FACC15"/>
<path d="M97.2508 18.42C97.2508 17.38 97.4108 16.46 97.7308 15.66C98.0642 14.86 98.5108 14.1933 99.0708 13.66C99.6442 13.1133 100.311 12.7 101.071 12.42C101.844 12.14 102.677 12 103.571 12C104.464 12 105.291 12.14 106.051 12.42C106.824 12.7 107.497 13.1133 108.071 13.66C108.644 14.1933 109.091 14.86 109.411 15.66C109.744 16.46 109.911 17.38 109.911 18.42C109.911 19.46 109.751 20.3867 109.431 21.2C109.111 22 108.664 22.6733 108.091 23.22C107.531 23.7533 106.864 24.16 106.091 24.44C105.317 24.72 104.477 24.86 103.571 24.86C102.664 24.86 101.824 24.72 101.051 24.44C100.277 24.1467 99.6108 23.7267 99.0508 23.18C98.4908 22.6333 98.0508 21.96 97.7308 21.16C97.4108 20.36 97.2508 19.4467 97.2508 18.42ZM100.851 18.42C100.851 19.6333 101.097 20.54 101.591 21.14C102.084 21.74 102.744 22.04 103.571 22.04C104.411 22.04 105.077 21.74 105.571 21.14C106.064 20.54 106.311 19.6333 106.311 18.42C106.311 17.22 106.064 16.32 105.571 15.72C105.091 15.12 104.431 14.82 103.591 14.82C102.764 14.82 102.097 15.12 101.591 15.72C101.097 16.3067 100.851 17.2067 100.851 18.42Z" fill="#FACC15"/>
<path d="M111.313 18.42C111.313 17.38 111.473 16.46 111.793 15.66C112.127 14.86 112.573 14.1933 113.133 13.66C113.707 13.1133 114.373 12.7 115.133 12.42C115.907 12.14 116.74 12 117.633 12C118.527 12 119.353 12.14 120.113 12.42C120.887 12.7 121.56 13.1133 122.133 13.66C122.707 14.1933 123.153 14.86 123.473 15.66C123.807 16.46 123.973 17.38 123.973 18.42C123.973 19.46 123.813 20.3867 123.493 21.2C123.173 22 122.727 22.6733 122.153 23.22C121.593 23.7533 120.927 24.16 120.153 24.44C119.38 24.72 118.54 24.86 117.633 24.86C116.727 24.86 115.887 24.72 115.113 24.44C114.34 24.1467 113.673 23.7267 113.113 23.18C112.553 22.6333 112.113 21.96 111.793 21.16C111.473 20.36 111.313 19.4467 111.313 18.42ZM114.913 18.42C114.913 19.6333 115.16 20.54 115.653 21.14C116.147 21.74 116.807 22.04 117.633 22.04C118.473 22.04 119.14 21.74 119.633 21.14C120.127 20.54 120.373 19.6333 120.373 18.42C120.373 17.22 120.127 16.32 119.633 15.72C119.153 15.12 118.493 14.82 117.653 14.82C116.827 14.82 116.16 15.12 115.653 15.72C115.16 16.3067 114.913 17.2067 114.913 18.42Z" fill="#FACC15"/>
<path d="M127.836 24.56C127.262 24.56 126.809 24.3933 126.476 24.06C126.142 23.7267 125.976 23.2733 125.976 22.7V12.36C126.122 12.3333 126.356 12.3 126.676 12.26C126.996 12.2067 127.302 12.18 127.596 12.18C127.902 12.18 128.169 12.2067 128.396 12.26C128.636 12.3 128.836 12.38 128.996 12.5C129.156 12.62 129.276 12.7867 129.356 13C129.436 13.2133 129.476 13.4933 129.476 13.84V21.74H134.056C134.149 21.8867 134.236 22.0867 134.316 22.34C134.396 22.58 134.436 22.8333 134.436 23.1C134.436 23.6333 134.322 24.0133 134.096 24.24C133.869 24.4533 133.569 24.56 133.196 24.56H127.836Z" fill="#FACC15"/>
<path d="M139.67 19.68C139.083 19.48 138.55 19.28 138.07 19.08C137.59 18.8667 137.176 18.6133 136.83 18.32C136.483 18.0267 136.21 17.68 136.01 17.28C135.823 16.8667 135.73 16.3667 135.73 15.78C135.73 14.6467 136.163 13.74 137.03 13.06C137.91 12.38 139.136 12.04 140.71 12.04C141.283 12.04 141.816 12.08 142.31 12.16C142.803 12.24 143.223 12.3667 143.57 12.54C143.93 12.7 144.21 12.9133 144.41 13.18C144.61 13.4333 144.71 13.7333 144.71 14.08C144.71 14.4267 144.63 14.7267 144.47 14.98C144.31 15.22 144.116 15.4267 143.89 15.6C143.596 15.4133 143.203 15.2533 142.71 15.12C142.216 14.9733 141.676 14.9 141.09 14.9C140.49 14.9 140.05 14.9867 139.77 15.16C139.49 15.32 139.35 15.5267 139.35 15.78C139.35 15.98 139.436 16.1467 139.61 16.28C139.783 16.4 140.043 16.5133 140.39 16.62L141.45 16.96C142.703 17.36 143.663 17.8733 144.33 18.5C145.01 19.1133 145.35 19.9533 145.35 21.02C145.35 22.1533 144.903 23.0733 144.01 23.78C143.116 24.4733 141.803 24.82 140.07 24.82C139.456 24.82 138.883 24.7667 138.35 24.66C137.83 24.5667 137.37 24.4267 136.97 24.24C136.583 24.04 136.276 23.8 136.05 23.52C135.836 23.2267 135.73 22.8933 135.73 22.52C135.73 22.1333 135.843 21.8067 136.07 21.54C136.296 21.26 136.543 21.0467 136.81 20.9C137.183 21.1933 137.636 21.4467 138.17 21.66C138.716 21.8733 139.31 21.98 139.95 21.98C140.603 21.98 141.063 21.88 141.33 21.68C141.596 21.48 141.73 21.2467 141.73 20.98C141.73 20.7133 141.623 20.5133 141.41 20.38C141.196 20.2333 140.896 20.0933 140.51 19.96L139.67 19.68Z" fill="#FACC15"/>
<path d="M20.9497 22.3075L13.7913 15.1491C12.7924 14.1503 12.2306 12.8185 12.2306 11.4035C12.2306 9.98844 12.7716 8.65665 13.7705 7.65781C14.4364 6.99191 15.2687 6.5133 16.2052 6.2844L16.8503 6.11792C16.8503 4.36995 16.8503 1.70636 16.8503 1.01966V0.020813L15.8514 0.166478C13.4375 0.499426 11.2318 1.60232 9.48378 3.35029C7.34042 5.49364 6.1543 8.36532 6.1543 11.4035C6.1543 14.4416 7.34042 17.2925 9.48378 19.4566L16.6422 26.615C17.2248 27.1977 17.9739 27.5098 18.7855 27.5098C19.5971 27.5098 20.367 27.1977 20.9289 26.615C22.1358 25.4289 22.1358 23.4936 20.9497 22.3075Z" fill="#FACC15"/>
<path d="M32.7487 10.5087L25.5903 3.35031C24.2169 1.9769 22.4689 0.957248 20.5753 0.437017L19.4724 0.124878V6.45089L19.951 6.7006C20.4504 6.95031 20.8874 7.28326 21.2828 7.67864L28.4412 14.837C29.0239 15.4197 29.773 15.7318 30.5845 15.7318C31.3961 15.7318 32.166 15.4197 32.7279 14.837C33.9348 13.6301 33.9348 11.6948 32.7487 10.5087Z" fill="#FACC15"/>
<path d="M15.0608 28.3422L7.90238 21.1838C7.31972 20.6012 6.57058 20.289 5.75902 20.289C4.94746 20.289 4.17752 20.6012 3.61567 21.1838C2.42954 22.37 2.42954 24.3052 3.61567 25.4913L10.7741 32.6497C12.1683 34.0439 13.8954 35.0428 15.7891 35.563L16.892 35.8752V29.5492L16.4134 29.2994C15.8931 29.0497 15.4353 28.7168 15.0608 28.3422Z" fill="#FACC15"/>
<path d="M19.6805 9.38497C19.0978 8.80231 18.3487 8.49017 17.5371 8.49017C16.7255 8.49017 15.9556 8.80231 15.3937 9.38497C14.2076 10.5711 14.2076 12.5064 15.3937 13.6925L22.5521 20.8509C23.551 21.8497 24.1128 23.1815 24.1128 24.5965C24.1128 26.0116 23.5718 27.3434 22.5521 28.3422C21.8862 29.0081 21.0539 29.4867 20.1383 29.7156L19.4724 29.8821V36L20.4712 35.8543C22.9059 35.5006 25.1117 34.3977 26.8596 32.6497C29.003 30.5064 30.1891 27.6347 30.1891 24.5965C30.1891 21.5584 29.003 18.7075 26.8596 16.5434L19.6805 9.38497Z" fill="#FACC15"/>
</svg>
