<svg width="419" height="726" viewBox="0 0 419 726" fill="none" xmlns="http://www.w3.org/2000/svg">
<path d="M397.073 726L395.598 725.061C413.841 692.317 419.878 667.222 414.244 648.435C406.866 623.743 380.037 611.933 351.598 599.319C327.049 588.449 301.561 577.177 284.524 556.779C267.622 536.515 260.244 512.763 262.39 485.923C265.878 442.444 293.78 404.064 310.415 389.973C323.695 378.835 335.098 358.303 330.671 337.234C326.11 315.36 303.171 285.435 219.866 267.318C164.061 255.241 134.415 243.566 120.329 228.133C106.915 213.372 108.927 196.06 111.341 174.052C112.683 162.914 114.024 150.299 113.756 135.94C112.549 79.3098 81.6951 45.895 56.0732 27.7786C28.1707 8.18595 0.268293 1.87874 0 1.87874L0.402439 0C0.670732 0 28.8415 6.44141 57.0122 26.3024C83.0366 44.6872 114.293 78.6388 115.5 136.075C115.768 150.568 114.293 163.182 113.085 174.455C107.988 218.605 105.439 240.613 220.134 265.574C304.378 283.824 327.585 314.421 332.28 336.832C336.841 358.706 325.037 380.043 311.354 391.584C294.854 405.406 267.488 443.249 264 486.192C261.854 512.494 269.232 535.844 285.732 555.571C302.5 575.701 327.854 586.839 352.268 597.709C381.11 610.457 408.341 622.401 415.988 647.898C421.756 667.088 415.585 692.719 397.073 726Z" fill="#FACC15"/>
<rect x="105" y="155" width="16" height="16" rx="8" fill="#1B1C21" stroke="#FACC15" stroke-width="2"/>
<rect x="311" y="305" width="16" height="16" rx="8" fill="#1B1C21" stroke="#FACC15" stroke-width="2"/>
<rect x="258" y="460" width="16" height="16" rx="8" fill="#1B1C21" stroke="#FACC15" stroke-width="2"/>
<rect x="389" y="615" width="16" height="16" rx="8" fill="#1B1C21" stroke="#FACC15" stroke-width="2"/>
</svg>
