<svg xmlns="http://www.w3.org/2000/svg" width="45.746" height="45.746" viewBox="0 0 45.746 45.746">
  <path id="SEACRH" d="M45.124,39.55l-8.909-8.907a2.143,2.143,0,0,0-1.519-.625H33.24a18.58,18.58,0,1,0-3.216,3.216V34.69a2.143,2.143,0,0,0,.625,1.519l8.909,8.907a2.135,2.135,0,0,0,3.029,0l2.529-2.529a2.153,2.153,0,0,0,.009-3.037Zm-26.538-8.1A12.864,12.864,0,1,1,31.452,18.582,12.857,12.857,0,0,1,18.586,31.447Zm0-21.44a6.6,6.6,0,0,0-6.6,6.6c0,2.945,4.312,8.314,5.964,10.262a.826.826,0,0,0,1.267,0c1.652-1.949,5.964-7.317,5.964-10.262a6.6,6.6,0,0,0-6.6-6.6Zm0,8.577a2.144,2.144,0,1,1,2.144-2.144,2.144,2.144,0,0,1-2.144,2.144Z" fill="#feae44"/>
</svg>
