<?xml version="1.0" encoding="UTF-8"?>
<svg width="31px" height="31px" viewBox="0 0 31 31" version="1.1" xmlns="http://www.w3.org/2000/svg" xmlns:xlink="http://www.w3.org/1999/xlink">
    <title>icon-question</title>
    <g id="Page-1" stroke="none" stroke-width="1" fill="none" fill-rule="evenodd">
        <g id="icon-question" fill="#FEAE44" fill-rule="nonzero">
            <path d="M13.496,21.208 L17.352,21.208 L17.352,25.064 L13.496,25.064 L13.496,21.208 Z M21.208,7.708 C21.7193374,7.708 22.2097317,7.91112799 22.5713019,8.27269813 C22.932872,8.63426826 23.136,9.12466261 23.136,9.636 L23.136,15.42 L17.352,19.276 L13.496,19.276 L13.496,17.352 L19.28,13.496 L19.28,11.572 L9.64,11.572 L9.64,7.712 L21.208,7.712 L21.208,7.708 Z M15.424,2.89195333 C9.44537349,2.89195333 4.29931741,7.11528452 3.13289533,12.9790235 C1.96647326,18.8427624 5.104542,24.713899 10.6280199,27.0019477 C16.1514978,29.2899964 22.5220571,27.3577194 25.843791,22.386798 C29.1655249,17.4158767 28.5133069,10.7907478 24.286,6.563 C21.9408857,4.2048007 18.7497453,2.88290086 15.424,2.89195333 Z M15.424,0 C23.94244,0 30.848,6.90556002 30.848,15.424 C30.848,23.94244 23.94244,30.848 15.424,30.848 C6.90556002,30.848 0,23.94244 0,15.424 C0,11.3333009 1.62502391,7.41014611 4.51758501,4.51758501 C7.41014611,1.62502391 11.3333009,0 15.424,0 Z" id="Icon_metro-question"></path>
        </g>
    </g>
</svg>