<svg xmlns="http://www.w3.org/2000/svg" width="473.679" height="825.876" viewBox="0 0 473.679 825.876">
  <g id="Group_19" data-name="Group 19" transform="translate(-380.116 -84.662)" style="mix-blend-mode: overlay;isolation: isolate">
    <path id="Path_13" data-name="Path 13" d="M595.383,440.484c-.617,4.023-.856,7.708-1.332,11.364a106.588,106.588,0,0,0,1.679,39.086,21.363,21.363,0,0,0,4.11,8.7c.6.723,1.335,1.543,2.483,1.182,1.232-.387,1.123-1.582,1.229-2.494.4-3.479-.181-6.86-.667-10.258-6.084-42.478,6.117-80.508,33.981-114.55,5.873-7.177,12.371-13.9,18.933-20.49a77.679,77.679,0,0,0,23.3-66.43,58.74,58.74,0,0,0-1.691-9.443c-.336-1.218-.906-2.4-.336-3.64a2.584,2.584,0,0,1,2.845-1.476,5.059,5.059,0,0,1,1.946.929,43.375,43.375,0,0,1,7.082,6.823,40.437,40.437,0,0,1,5.269,7.738,53.778,53.778,0,0,1,5.364,17.9c.2,1.479.35,2.967.467,4.454a91.3,91.3,0,0,1-3.987,34.743c-.528,1.677-1.9,4.076.025,4.849,2.122.848,3.378-1.649,4.24-3.39a81.048,81.048,0,0,0,8.108-35.6c.378-34.24-13.945-62.268-34.329-87.818-13.906-17.429-32.182-29.732-50.233-42.364q-8.75-6.123-17.2-12.649a61.065,61.065,0,0,1-6.245-6.053c-.773-.8-1.624-1.857-.89-3.034.865-1.385,2.141-.6,3.106-.159,32.644,15.057,68.237,21.374,103.086,29.952,32.157,7.919,63.26,18.24,90.023,37.8,39.637,28.971,58.4,68.585,57.516,118.257-.461,26.076-4.532,51.546-16.522,75.656a91.957,91.957,0,0,1-40.349,41.369c-.448.236-.929.423-1.349.7-1.048.7-2.933.976-2.3,2.719.467,1.271,2.03.723,3.1.612a58.118,58.118,0,0,0,19.786-5.505c4.09-2,8.111-4.157,12.131-6.3,3.665-1.952,4.8-.951,4.249,3.006-3.045,21.685-10.116,42.267-20.153,61.987q-36.453,71.609-104.924,115c-15.749,9.974-32.427,16.622-51.173,15.671-1.935-.1-5.214-.734-5.6,1.724-.462,2.936,2.861,3.52,5.214,4,5.631,1.159,11.345,1.983,16.975,3.139a23.459,23.459,0,0,1,11.011,4.991,10.227,10.227,0,0,1,3.773,8.105c-.025,2.08-.97,3.139-3.178,2.411-10.444-3.44-20.632-.681-30.759,2.747a189.077,189.077,0,0,0-26.432,11.445c-21.366,11.092-43.7,12.109-66.413,10.2-3.951-.334-7.874-.884-11.806-1.357-1.607-.192-3.656.111-4.285-1.718-.667-1.941.881-3.531,2.16-4.794,5.664-5.589,11.548-10.961,17.175-16.583,68.507-68.413,128.342-143.259,175.611-227.26,15.616-27.744,28.064-56.809,34.851-87.712,3.987-18.14,5.742-36.286,1.329-54.262a27.3,27.3,0,0,0-1.19-4.207c-.526-1.235-.473-3.573-2.244-3.212-2.038.42-.906,2.475-.87,3.809a251.244,251.244,0,0,1-.222,26.6c-2,25.606-11.5,49.3-21.669,72.85-16.708,38.7-40,73.7-65.184,107.643-40.635,54.777-85.221,106.2-135.029,153.13-47.1,44.386-97.967,83.9-153.478,117.275-4.994,3-9.423,3.125-12.365.1-3.072-3.159-3.145-6.949-1.121-10.911.948-1.852,2.717-2.972,4.329-4.2,29.324-22.45,58.333-45.292,86.417-69.291,11.331-9.682,21.98-20.159,33.35-29.732,11.506-9.687,15.137-21.491,14.92-34.979-.734-46.2,13.961-88.427,38.8-128.119,1.426-2.283,2.761-4.621,4.249-6.865.69-1.037,1.179-2.806,2.858-2.288,1.415.434.628,1.985.673,3.042.473,10.825,1.3,21.574,4.4,31.929a43.533,43.533,0,0,0,5.906,12.157c.976,1.426,2.071,3.54,4.073,2.847,2.247-.779,2-3.267,1.963-5.211-.072-4.135-1.271-8.036-2.213-11.987-6.676-27.936-5.511-55.475,8.292-82.34.742-1.44,1.9-5.511,4.2-4.693C595.461,438.17,595.542,439.444,595.383,440.484Z" transform="translate(0 129.358)" fill="none" stroke="#fff" stroke-miterlimit="10" stroke-width="1"/>
    <path id="Path_14" data-name="Path 14" d="M644.231,266.625c-.562,12.854-1.362,25.72,2.2,38.152.662,2.308-.147,3.47-2.861,2.853-38.794-8.825-78.934-12.571-116.68-25.342-23.245-7.863-45.095-18.074-62.432-35.541-24.31-24.494-30.833-54.743-24.744-88.936.258-1.463.364-3.381,2.074-3.659,2.25-.367,2.294,1.969,2.73,3.348,3.095,9.785,6.493,19.4,13.049,27.436,2.152,2.641,4.4,5.172,7.519,6.74,1.229.617,2.625,1.985,3.962.436,1.165-1.346-.453-2.388-1.059-3.353-11.806-18.808-16.553-39.623-14.751-62.137,1.129-14.128,5.636-27.241,15.365-38.472,2.275-2.622,4.566-3.6,7.877-2.689,47.714,13.183,87.974,37.073,116.919,77.171,17.717,24.541,25.592,52.683,27,83.141.044.984.111,1.969.122,2.956a2.216,2.216,0,0,0,1.415,2.325c1.382.409,2.127-.69,2.692-1.752a35.259,35.259,0,0,0,4.046-14.314c.614-9.073.67-18.121-1.021-27.007-.211-1.1-.87-2.3.459-3.117,1.2-.734,2.216.114,3.106.742,3.687,2.611,5.8,6.459,7.719,10.385,6.32,12.918,6.771,26.988,6.056,41.258C644.842,260.374,644.492,263.5,644.231,266.625Z" transform="translate(101.38 0)" fill="none" stroke="#fff" stroke-miterlimit="10" stroke-width="1"/>
  </g>
</svg>
