<svg xmlns="http://www.w3.org/2000/svg" width="259.653" height="260" viewBox="0 0 259.653 260">
  <g id="Circle_cluster_header_" data-name="Circle cluster (header)" transform="translate(-1145.324 -73.459)" style="isolation: isolate">
    <circle id="Ellipse_59" data-name="Ellipse 59" cx="3.467" cy="3.467" r="3.467" transform="translate(1146.364 75.539)" fill="#fff"/>
    <circle id="Ellipse_60" data-name="Ellipse 60" cx="5.547" cy="5.547" r="5.547" transform="translate(1172.018 73.459)" fill="#fff"/>
    <circle id="Ellipse_61" data-name="Ellipse 61" cx="3.467" cy="3.467" r="3.467" transform="translate(1201.831 75.539)" fill="#fff"/>
    <circle id="Ellipse_62" data-name="Ellipse 62" cx="3.467" cy="3.467" r="3.467" transform="translate(1229.564 75.539)" fill="#fff"/>
    <circle id="Ellipse_63" data-name="Ellipse 63" cx="3.467" cy="3.467" r="3.467" transform="translate(1257.298 75.539)" fill="#fff"/>
    <circle id="Ellipse_64" data-name="Ellipse 64" cx="3.467" cy="3.467" r="3.467" transform="translate(1285.031 75.539)" fill="#fff"/>
    <circle id="Ellipse_65" data-name="Ellipse 65" cx="4.507" cy="4.507" r="4.507" transform="translate(1311.724 74.499)" fill="#fff"/>
    <circle id="Ellipse_66" data-name="Ellipse 66" cx="3.467" cy="3.467" r="3.467" transform="translate(1340.497 75.539)" fill="#fff"/>
    <circle id="Ellipse_67" data-name="Ellipse 67" cx="3.467" cy="3.467" r="3.467" transform="translate(1368.231 75.539)" fill="#fff"/>
    <circle id="Ellipse_68" data-name="Ellipse 68" cx="4.853" cy="4.853" r="4.853" transform="translate(1394.578 74.152)" fill="#fff"/>
    <circle id="Ellipse_69" data-name="Ellipse 69" cx="4.507" cy="4.507" r="4.507" transform="translate(1145.324 102.232)" fill="#fff"/>
    <circle id="Ellipse_70" data-name="Ellipse 70" cx="3.467" cy="3.467" r="3.467" transform="translate(1174.098 103.272)" fill="#fff"/>
    <circle id="Ellipse_71" data-name="Ellipse 71" cx="3.467" cy="3.467" r="3.467" transform="translate(1201.831 103.272)" fill="#fff"/>
    <circle id="Ellipse_72" data-name="Ellipse 72" cx="4.507" cy="4.507" r="4.507" transform="translate(1228.524 102.232)" fill="#fff"/>
    <circle id="Ellipse_73" data-name="Ellipse 73" cx="3.467" cy="3.467" r="3.467" transform="translate(1257.298 103.272)" fill="#fff"/>
    <circle id="Ellipse_74" data-name="Ellipse 74" cx="5.547" cy="5.547" r="5.547" transform="translate(1282.951 101.192)" fill="#fff"/>
    <circle id="Ellipse_75" data-name="Ellipse 75" cx="3.467" cy="3.467" r="3.467" transform="translate(1312.764 103.272)" fill="#fff"/>
    <circle id="Ellipse_76" data-name="Ellipse 76" cx="4.507" cy="4.507" r="4.507" transform="translate(1339.458 102.232)" fill="#fff"/>
    <circle id="Ellipse_77" data-name="Ellipse 77" cx="3.467" cy="3.467" r="3.467" transform="translate(1368.231 103.272)" fill="#fff"/>
    <circle id="Ellipse_78" data-name="Ellipse 78" cx="3.467" cy="3.467" r="3.467" transform="translate(1395.964 103.272)" fill="#fff"/>
    <circle id="Ellipse_79" data-name="Ellipse 79" cx="3.467" cy="3.467" r="3.467" transform="translate(1146.364 131.005)" fill="#fff"/>
    <circle id="Ellipse_80" data-name="Ellipse 80" cx="3.467" cy="3.467" r="3.467" transform="translate(1174.098 131.005)" fill="#fff"/>
    <circle id="Ellipse_81" data-name="Ellipse 81" cx="3.467" cy="3.467" r="3.467" transform="translate(1201.831 131.005)" fill="#fff"/>
    <circle id="Ellipse_82" data-name="Ellipse 82" cx="3.467" cy="3.467" r="3.467" transform="translate(1229.564 131.005)" fill="#fff"/>
    <circle id="Ellipse_83" data-name="Ellipse 83" cx="4.507" cy="4.507" r="4.507" transform="translate(1256.258 129.965)" fill="#fff"/>
    <circle id="Ellipse_84" data-name="Ellipse 84" cx="3.467" cy="3.467" r="3.467" transform="translate(1285.031 131.005)" fill="#fff"/>
    <circle id="Ellipse_85" data-name="Ellipse 85" cx="3.467" cy="3.467" r="3.467" transform="translate(1312.764 131.005)" fill="#fff"/>
    <circle id="Ellipse_86" data-name="Ellipse 86" cx="3.467" cy="3.467" r="3.467" transform="translate(1340.497 131.005)" fill="#fff"/>
    <circle id="Ellipse_87" data-name="Ellipse 87" cx="4.507" cy="4.507" r="4.507" transform="translate(1367.191 129.965)" fill="#fff"/>
    <circle id="Ellipse_88" data-name="Ellipse 88" cx="3.467" cy="3.467" r="3.467" transform="translate(1395.964 131.005)" fill="#fff"/>
    <circle id="Ellipse_89" data-name="Ellipse 89" cx="3.467" cy="3.467" r="3.467" transform="translate(1146.364 158.739)" fill="#fff"/>
    <circle id="Ellipse_90" data-name="Ellipse 90" cx="3.467" cy="3.467" r="3.467" transform="translate(1174.098 158.739)" fill="#fff"/>
    <circle id="Ellipse_91" data-name="Ellipse 91" cx="5.547" cy="5.547" r="5.547" transform="translate(1199.751 156.659)" fill="#fff"/>
    <circle id="Ellipse_92" data-name="Ellipse 92" cx="3.467" cy="3.467" r="3.467" transform="translate(1229.564 158.739)" fill="#fff"/>
    <circle id="Ellipse_93" data-name="Ellipse 93" cx="3.467" cy="3.467" r="3.467" transform="translate(1257.298 158.739)" fill="#fff"/>
    <circle id="Ellipse_94" data-name="Ellipse 94" cx="3.467" cy="3.467" r="3.467" transform="translate(1285.031 158.739)" fill="#fff"/>
    <circle id="Ellipse_95" data-name="Ellipse 95" cx="5.547" cy="5.547" r="5.547" transform="translate(1310.684 156.659)" fill="#fff"/>
    <circle id="Ellipse_96" data-name="Ellipse 96" cx="3.467" cy="3.467" r="3.467" transform="translate(1340.497 158.739)" fill="#fff"/>
    <circle id="Ellipse_97" data-name="Ellipse 97" cx="3.467" cy="3.467" r="3.467" transform="translate(1368.231 158.739)" fill="#fff"/>
    <circle id="Ellipse_98" data-name="Ellipse 98" cx="3.467" cy="3.467" r="3.467" transform="translate(1395.964 158.739)" fill="#fff"/>
    <circle id="Ellipse_99" data-name="Ellipse 99" cx="4.507" cy="4.507" r="4.507" transform="translate(1145.324 185.432)" fill="#fff"/>
    <circle id="Ellipse_100" data-name="Ellipse 100" cx="3.467" cy="3.467" r="3.467" transform="translate(1174.098 186.472)" fill="#fff"/>
    <circle id="Ellipse_101" data-name="Ellipse 101" cx="4.507" cy="4.507" r="4.507" transform="translate(1200.791 185.432)" fill="#fff"/>
    <circle id="Ellipse_102" data-name="Ellipse 102" cx="3.467" cy="3.467" r="3.467" transform="translate(1229.564 186.472)" fill="#fff"/>
    <circle id="Ellipse_103" data-name="Ellipse 103" cx="3.467" cy="3.467" r="3.467" transform="translate(1257.298 186.472)" fill="#fff"/>
    <circle id="Ellipse_104" data-name="Ellipse 104" cx="4.507" cy="4.507" r="4.507" transform="translate(1283.991 185.432)" fill="#fff"/>
    <circle id="Ellipse_105" data-name="Ellipse 105" cx="3.467" cy="3.467" r="3.467" transform="translate(1312.764 186.472)" fill="#fff"/>
    <circle id="Ellipse_106" data-name="Ellipse 106" cx="3.467" cy="3.467" r="3.467" transform="translate(1340.497 186.472)" fill="#fff"/>
    <circle id="Ellipse_107" data-name="Ellipse 107" cx="4.507" cy="4.507" r="4.507" transform="translate(1367.191 185.432)" fill="#fff"/>
    <circle id="Ellipse_108" data-name="Ellipse 108" cx="3.467" cy="3.467" r="3.467" transform="translate(1395.964 186.472)" fill="#fff"/>
    <circle id="Ellipse_109" data-name="Ellipse 109" cx="3.467" cy="3.467" r="3.467" transform="translate(1146.364 214.205)" fill="#fff"/>
    <circle id="Ellipse_110" data-name="Ellipse 110" cx="3.467" cy="3.467" r="3.467" transform="translate(1174.098 214.205)" fill="#fff"/>
    <circle id="Ellipse_111" data-name="Ellipse 111" cx="3.467" cy="3.467" r="3.467" transform="translate(1201.831 214.205)" fill="#fff"/>
    <circle id="Ellipse_112" data-name="Ellipse 112" cx="5.547" cy="5.547" r="5.547" transform="translate(1227.484 212.125)" fill="#fff"/>
    <circle id="Ellipse_113" data-name="Ellipse 113" cx="3.467" cy="3.467" r="3.467" transform="translate(1257.298 214.205)" fill="#fff"/>
    <circle id="Ellipse_114" data-name="Ellipse 114" cx="3.467" cy="3.467" r="3.467" transform="translate(1285.031 214.205)" fill="#fff"/>
    <circle id="Ellipse_115" data-name="Ellipse 115" cx="4.507" cy="4.507" r="4.507" transform="translate(1311.724 213.165)" fill="#fff"/>
    <circle id="Ellipse_116" data-name="Ellipse 116" cx="3.467" cy="3.467" r="3.467" transform="translate(1340.497 214.205)" fill="#fff"/>
    <circle id="Ellipse_117" data-name="Ellipse 117" cx="3.467" cy="3.467" r="3.467" transform="translate(1368.231 214.205)" fill="#fff"/>
    <circle id="Ellipse_118" data-name="Ellipse 118" cx="5.547" cy="5.547" r="5.547" transform="translate(1393.884 212.125)" fill="#fff"/>
    <circle id="Ellipse_119" data-name="Ellipse 119" cx="3.467" cy="3.467" r="3.467" transform="translate(1146.364 241.939)" fill="#fff"/>
    <circle id="Ellipse_120" data-name="Ellipse 120" cx="3.467" cy="3.467" r="3.467" transform="translate(1174.098 241.939)" fill="#fff"/>
    <circle id="Ellipse_121" data-name="Ellipse 121" cx="3.467" cy="3.467" r="3.467" transform="translate(1201.831 241.939)" fill="#fff"/>
    <circle id="Ellipse_122" data-name="Ellipse 122" cx="3.467" cy="3.467" r="3.467" transform="translate(1229.564 241.939)" fill="#fff"/>
    <circle id="Ellipse_123" data-name="Ellipse 123" cx="3.467" cy="3.467" r="3.467" transform="translate(1257.298 241.939)" fill="#fff"/>
    <circle id="Ellipse_124" data-name="Ellipse 124" cx="4.507" cy="4.507" r="4.507" transform="translate(1283.991 240.899)" fill="#fff"/>
    <circle id="Ellipse_125" data-name="Ellipse 125" cx="5.547" cy="5.547" r="5.547" transform="translate(1310.684 239.859)" fill="#fff"/>
    <circle id="Ellipse_126" data-name="Ellipse 126" cx="3.467" cy="3.467" r="3.467" transform="translate(1340.497 241.939)" fill="#fff"/>
    <circle id="Ellipse_127" data-name="Ellipse 127" cx="3.467" cy="3.467" r="3.467" transform="translate(1368.231 241.939)" fill="#fff"/>
    <circle id="Ellipse_128" data-name="Ellipse 128" cx="3.467" cy="3.467" r="3.467" transform="translate(1395.964 241.939)" fill="#fff"/>
    <circle id="Ellipse_129" data-name="Ellipse 129" cx="3.467" cy="3.467" r="3.467" transform="translate(1146.364 269.672)" fill="#fff"/>
    <circle id="Ellipse_130" data-name="Ellipse 130" cx="5.547" cy="5.547" r="5.547" transform="translate(1172.018 267.592)" fill="#fff"/>
    <circle id="Ellipse_131" data-name="Ellipse 131" cx="3.467" cy="3.467" r="3.467" transform="translate(1201.831 269.672)" fill="#fff"/>
    <circle id="Ellipse_132" data-name="Ellipse 132" cx="4.507" cy="4.507" r="4.507" transform="translate(1228.524 268.632)" fill="#fff"/>
    <circle id="Ellipse_133" data-name="Ellipse 133" cx="3.467" cy="3.467" r="3.467" transform="translate(1257.298 269.672)" fill="#fff"/>
    <circle id="Ellipse_134" data-name="Ellipse 134" cx="3.467" cy="3.467" r="3.467" transform="translate(1285.031 269.672)" fill="#fff"/>
    <circle id="Ellipse_135" data-name="Ellipse 135" cx="3.467" cy="3.467" r="3.467" transform="translate(1312.764 269.672)" fill="#fff"/>
    <circle id="Ellipse_136" data-name="Ellipse 136" cx="3.467" cy="3.467" r="3.467" transform="translate(1340.497 269.672)" fill="#fff"/>
    <circle id="Ellipse_137" data-name="Ellipse 137" cx="3.467" cy="3.467" r="3.467" transform="translate(1368.231 269.672)" fill="#fff"/>
    <circle id="Ellipse_138" data-name="Ellipse 138" cx="4.507" cy="4.507" r="4.507" transform="translate(1394.924 268.632)" fill="#fff"/>
    <circle id="Ellipse_139" data-name="Ellipse 139" cx="3.467" cy="3.467" r="3.467" transform="translate(1146.364 297.405)" fill="#fff"/>
    <circle id="Ellipse_140" data-name="Ellipse 140" cx="3.467" cy="3.467" r="3.467" transform="translate(1174.098 297.405)" fill="#fff"/>
    <circle id="Ellipse_141" data-name="Ellipse 141" cx="3.467" cy="3.467" r="3.467" transform="translate(1201.831 297.405)" fill="#fff"/>
    <circle id="Ellipse_142" data-name="Ellipse 142" cx="3.467" cy="3.467" r="3.467" transform="translate(1229.564 297.405)" fill="#fff"/>
    <circle id="Ellipse_143" data-name="Ellipse 143" cx="4.507" cy="4.507" r="4.507" transform="translate(1256.258 296.365)" fill="#fff"/>
    <circle id="Ellipse_144" data-name="Ellipse 144" cx="3.467" cy="3.467" r="3.467" transform="translate(1285.031 297.405)" fill="#fff"/>
    <circle id="Ellipse_145" data-name="Ellipse 145" cx="3.467" cy="3.467" r="3.467" transform="translate(1312.764 297.405)" fill="#fff"/>
    <circle id="Ellipse_146" data-name="Ellipse 146" cx="5.547" cy="5.547" r="5.547" transform="translate(1338.418 295.325)" fill="#fff"/>
    <circle id="Ellipse_147" data-name="Ellipse 147" cx="3.467" cy="3.467" r="3.467" transform="translate(1368.231 297.405)" fill="#fff"/>
    <circle id="Ellipse_148" data-name="Ellipse 148" cx="3.467" cy="3.467" r="3.467" transform="translate(1395.964 297.405)" fill="#fff"/>
    <circle id="Ellipse_149" data-name="Ellipse 149" cx="3.467" cy="3.467" r="3.467" transform="translate(1146.364 325.139)" fill="#fff"/>
    <circle id="Ellipse_150" data-name="Ellipse 150" cx="4.507" cy="4.507" r="4.507" transform="translate(1173.058 324.099)" fill="#fff"/>
    <circle id="Ellipse_151" data-name="Ellipse 151" cx="3.467" cy="3.467" r="3.467" transform="translate(1201.831 325.139)" fill="#fff"/>
    <circle id="Ellipse_152" data-name="Ellipse 152" cx="3.467" cy="3.467" r="3.467" transform="translate(1229.564 325.139)" fill="#fff"/>
    <circle id="Ellipse_153" data-name="Ellipse 153" cx="3.467" cy="3.467" r="3.467" transform="translate(1257.298 325.139)" fill="#fff"/>
    <circle id="Ellipse_154" data-name="Ellipse 154" cx="4.853" cy="4.853" r="4.853" transform="translate(1283.644 323.752)" fill="#fff"/>
    <circle id="Ellipse_155" data-name="Ellipse 155" cx="3.467" cy="3.467" r="3.467" transform="translate(1312.764 325.139)" fill="#fff"/>
    <circle id="Ellipse_156" data-name="Ellipse 156" cx="3.467" cy="3.467" r="3.467" transform="translate(1340.497 325.139)" fill="#fff"/>
    <circle id="Ellipse_157" data-name="Ellipse 157" cx="3.467" cy="3.467" r="3.467" transform="translate(1368.231 325.139)" fill="#fff"/>
    <circle id="Ellipse_158" data-name="Ellipse 158" cx="3.467" cy="3.467" r="3.467" transform="translate(1395.964 325.139)" fill="#fff"/>
  </g>
</svg>
