<?xml version="1.0" encoding="UTF-8"?>
<svg width="260px" height="260px" viewBox="0 0 260 260" version="1.1" xmlns="http://www.w3.org/2000/svg" xmlns:xlink="http://www.w3.org/1999/xlink">
    <title>circle-cluster-teal</title>
    <g id="Page-1" stroke="none" stroke-width="1" fill="none" fill-rule="evenodd">
        <g id="circle-cluster-teal" fill="#101820" fill-rule="nonzero">
            <circle id="Ellipse_59" cx="4.507" cy="5.547" r="3.467"></circle>
            <circle id="Ellipse_60" cx="32.241" cy="5.547" r="5.547"></circle>
            <circle id="Ellipse_61" cx="59.974" cy="5.547" r="3.467"></circle>
            <circle id="Ellipse_62" cx="87.707" cy="5.547" r="3.467"></circle>
            <circle id="Ellipse_63" cx="115.441" cy="5.547" r="3.467"></circle>
            <circle id="Ellipse_64" cx="143.174" cy="5.547" r="3.467"></circle>
            <circle id="Ellipse_65" cx="170.907" cy="5.547" r="4.507"></circle>
            <circle id="Ellipse_66" cx="198.64" cy="5.547" r="3.467"></circle>
            <circle id="Ellipse_67" cx="226.374" cy="5.547" r="3.467"></circle>
            <circle id="Ellipse_68" cx="254.107" cy="5.546" r="4.853"></circle>
            <circle id="Ellipse_69" cx="4.507" cy="33.28" r="4.507"></circle>
            <circle id="Ellipse_70" cx="32.241" cy="33.28" r="3.467"></circle>
            <circle id="Ellipse_71" cx="59.974" cy="33.28" r="3.467"></circle>
            <circle id="Ellipse_72" cx="87.707" cy="33.28" r="4.507"></circle>
            <circle id="Ellipse_73" cx="115.441" cy="33.28" r="3.467"></circle>
            <circle id="Ellipse_74" cx="143.174" cy="33.28" r="5.547"></circle>
            <circle id="Ellipse_75" cx="170.907" cy="33.28" r="3.467"></circle>
            <circle id="Ellipse_76" cx="198.641" cy="33.28" r="4.507"></circle>
            <circle id="Ellipse_77" cx="226.374" cy="33.28" r="3.467"></circle>
            <circle id="Ellipse_78" cx="254.107" cy="33.28" r="3.467"></circle>
            <circle id="Ellipse_79" cx="4.507" cy="61.013" r="3.467"></circle>
            <circle id="Ellipse_80" cx="32.241" cy="61.013" r="3.467"></circle>
            <circle id="Ellipse_81" cx="59.974" cy="61.013" r="3.467"></circle>
            <circle id="Ellipse_82" cx="87.707" cy="61.013" r="3.467"></circle>
            <circle id="Ellipse_83" cx="115.441" cy="61.013" r="4.507"></circle>
            <circle id="Ellipse_84" cx="143.174" cy="61.013" r="3.467"></circle>
            <circle id="Ellipse_85" cx="170.907" cy="61.013" r="3.467"></circle>
            <circle id="Ellipse_86" cx="198.64" cy="61.013" r="3.467"></circle>
            <circle id="Ellipse_87" cx="226.374" cy="61.013" r="4.507"></circle>
            <circle id="Ellipse_88" cx="254.107" cy="61.013" r="3.467"></circle>
            <circle id="Ellipse_89" cx="4.507" cy="88.747" r="3.467"></circle>
            <circle id="Ellipse_90" cx="32.241" cy="88.747" r="3.467"></circle>
            <circle id="Ellipse_91" cx="59.974" cy="88.747" r="5.547"></circle>
            <circle id="Ellipse_92" cx="87.707" cy="88.747" r="3.467"></circle>
            <circle id="Ellipse_93" cx="115.441" cy="88.747" r="3.467"></circle>
            <circle id="Ellipse_94" cx="143.174" cy="88.747" r="3.467"></circle>
            <circle id="Ellipse_95" cx="170.907" cy="88.747" r="5.547"></circle>
            <circle id="Ellipse_96" cx="198.64" cy="88.747" r="3.467"></circle>
            <circle id="Ellipse_97" cx="226.374" cy="88.747" r="3.467"></circle>
            <circle id="Ellipse_98" cx="254.107" cy="88.747" r="3.467"></circle>
            <circle id="Ellipse_99" cx="4.507" cy="116.48" r="4.507"></circle>
            <circle id="Ellipse_100" cx="32.241" cy="116.48" r="3.467"></circle>
            <circle id="Ellipse_101" cx="59.974" cy="116.48" r="4.507"></circle>
            <circle id="Ellipse_102" cx="87.707" cy="116.48" r="3.467"></circle>
            <circle id="Ellipse_103" cx="115.441" cy="116.48" r="3.467"></circle>
            <circle id="Ellipse_104" cx="143.174" cy="116.48" r="4.507"></circle>
            <circle id="Ellipse_105" cx="170.907" cy="116.48" r="3.467"></circle>
            <circle id="Ellipse_106" cx="198.64" cy="116.48" r="3.467"></circle>
            <circle id="Ellipse_107" cx="226.374" cy="116.48" r="4.507"></circle>
            <circle id="Ellipse_108" cx="254.107" cy="116.48" r="3.467"></circle>
            <circle id="Ellipse_109" cx="4.507" cy="144.213" r="3.467"></circle>
            <circle id="Ellipse_110" cx="32.241" cy="144.213" r="3.467"></circle>
            <circle id="Ellipse_111" cx="59.974" cy="144.213" r="3.467"></circle>
            <circle id="Ellipse_112" cx="87.707" cy="144.213" r="5.547"></circle>
            <circle id="Ellipse_113" cx="115.441" cy="144.213" r="3.467"></circle>
            <circle id="Ellipse_114" cx="143.174" cy="144.213" r="3.467"></circle>
            <circle id="Ellipse_115" cx="170.907" cy="144.213" r="4.507"></circle>
            <circle id="Ellipse_116" cx="198.64" cy="144.213" r="3.467"></circle>
            <circle id="Ellipse_117" cx="226.374" cy="144.213" r="3.467"></circle>
            <circle id="Ellipse_118" cx="254.107" cy="144.213" r="5.547"></circle>
            <circle id="Ellipse_119" cx="4.507" cy="171.947" r="3.467"></circle>
            <circle id="Ellipse_120" cx="32.241" cy="171.947" r="3.467"></circle>
            <circle id="Ellipse_121" cx="59.974" cy="171.947" r="3.467"></circle>
            <circle id="Ellipse_122" cx="87.707" cy="171.947" r="3.467"></circle>
            <circle id="Ellipse_123" cx="115.441" cy="171.947" r="3.467"></circle>
            <circle id="Ellipse_124" cx="143.174" cy="171.947" r="4.507"></circle>
            <circle id="Ellipse_125" cx="170.907" cy="171.947" r="5.547"></circle>
            <circle id="Ellipse_126" cx="198.64" cy="171.947" r="3.467"></circle>
            <circle id="Ellipse_127" cx="226.374" cy="171.947" r="3.467"></circle>
            <circle id="Ellipse_128" cx="254.107" cy="171.947" r="3.467"></circle>
            <circle id="Ellipse_129" cx="4.507" cy="199.68" r="3.467"></circle>
            <circle id="Ellipse_130" cx="32.241" cy="199.68" r="5.547"></circle>
            <circle id="Ellipse_131" cx="59.974" cy="199.68" r="3.467"></circle>
            <circle id="Ellipse_132" cx="87.707" cy="199.68" r="4.507"></circle>
            <circle id="Ellipse_133" cx="115.441" cy="199.68" r="3.467"></circle>
            <circle id="Ellipse_134" cx="143.174" cy="199.68" r="3.467"></circle>
            <circle id="Ellipse_135" cx="170.907" cy="199.68" r="3.467"></circle>
            <circle id="Ellipse_136" cx="198.64" cy="199.68" r="3.467"></circle>
            <circle id="Ellipse_137" cx="226.374" cy="199.68" r="3.467"></circle>
            <circle id="Ellipse_138" cx="254.107" cy="199.68" r="4.507"></circle>
            <circle id="Ellipse_139" cx="4.507" cy="227.413" r="3.467"></circle>
            <circle id="Ellipse_140" cx="32.241" cy="227.413" r="3.467"></circle>
            <circle id="Ellipse_141" cx="59.974" cy="227.413" r="3.467"></circle>
            <circle id="Ellipse_142" cx="87.707" cy="227.413" r="3.467"></circle>
            <circle id="Ellipse_143" cx="115.441" cy="227.413" r="4.507"></circle>
            <circle id="Ellipse_144" cx="143.174" cy="227.413" r="3.467"></circle>
            <circle id="Ellipse_145" cx="170.907" cy="227.413" r="3.467"></circle>
            <circle id="Ellipse_146" cx="198.641" cy="227.413" r="5.547"></circle>
            <circle id="Ellipse_147" cx="226.374" cy="227.413" r="3.467"></circle>
            <circle id="Ellipse_148" cx="254.107" cy="227.413" r="3.467"></circle>
            <circle id="Ellipse_149" cx="4.507" cy="255.147" r="3.467"></circle>
            <circle id="Ellipse_150" cx="32.241" cy="255.147" r="4.507"></circle>
            <circle id="Ellipse_151" cx="59.974" cy="255.147" r="3.467"></circle>
            <circle id="Ellipse_152" cx="87.707" cy="255.147" r="3.467"></circle>
            <circle id="Ellipse_153" cx="115.441" cy="255.147" r="3.467"></circle>
            <circle id="Ellipse_154" cx="143.173" cy="255.146" r="4.853"></circle>
            <circle id="Ellipse_155" cx="170.907" cy="255.147" r="3.467"></circle>
            <circle id="Ellipse_156" cx="198.64" cy="255.147" r="3.467"></circle>
            <circle id="Ellipse_157" cx="226.374" cy="255.147" r="3.467"></circle>
            <circle id="Ellipse_158" cx="254.107" cy="255.147" r="3.467"></circle>
        </g>
    </g>
</svg>