<svg id="twitter-icon" xmlns="http://www.w3.org/2000/svg" width="23.79" height="19.334" viewBox="0 0 23.79 19.334">
  <path id="twitter-icon-2" data-name="twitter-icon" d="M1550.341,6379.312a9.764,9.764,0,0,1-2.8.769,4.9,4.9,0,0,0,2.147-2.7,9.756,9.756,0,0,1-3.1,1.186,4.885,4.885,0,0,0-8.317,4.451,13.857,13.857,0,0,1-10.06-5.1,4.886,4.886,0,0,0,1.51,6.515,4.849,4.849,0,0,1-2.211-.611v.063a4.883,4.883,0,0,0,3.915,4.785,4.845,4.845,0,0,1-2.2.084,4.882,4.882,0,0,0,4.559,3.389,9.862,9.862,0,0,1-7.226,2.022,13.881,13.881,0,0,0,21.368-11.7c0-.212,0-.42-.014-.629A9.916,9.916,0,0,0,1550.341,6379.312Z" transform="translate(-1526.551 -6377.023)" fill="#fff"/>
</svg>
