<?xml version="1.0" encoding="UTF-8"?>
<svg width="24px" height="24px" viewBox="0 0 24 24" version="1.1" xmlns="http://www.w3.org/2000/svg" xmlns:xlink="http://www.w3.org/1999/xlink">
    <title>icon-linkedin-white</title>
    <g id="Page-1" stroke="none" stroke-width="1" fill="none" fill-rule="evenodd">
        <g id="icon-linkedin-white" fill="#F03600" fill-rule="nonzero">
            <path d="M2.845,-7.04997163e-07 C4.4146243,0.00110459175 5.68636742,1.27404155 5.6859993,2.8436662 C5.68563102,4.41329084 4.41329084,5.68563102 2.8436662,5.6859993 C1.27404155,5.68636742 0.00110459175,4.4146243 -7.04997092e-07,2.845 C-0.000531107591,2.09029639 0.299038547,1.36635089 0.832694717,0.832694717 C1.36635089,0.299038547 2.09029639,-0.000531107591 2.845,-7.04997163e-07 M0.391,7.842 L5.3,7.842 L5.3,23.615 L0.387,23.615 L0.391,7.842 Z" id="Path_60"></path>
            <path d="M8.372,7.842 L13.072,7.842 L13.072,9.996 L13.139,9.996 C14.0975437,8.35659321 15.8802431,7.37743432 17.778,7.448 C22.742,7.448 23.659,10.716 23.659,14.964 L23.659,23.614 L18.759,23.614 L18.759,15.944 C18.759,14.113 18.727,11.762 16.211,11.762 C13.662,11.762 13.272,13.756 13.272,15.812 L13.272,23.612 L8.372,23.612 L8.372,7.842 Z" id="Path_61"></path>
        </g>
    </g>
</svg>