<?xml version="1.0" encoding="UTF-8"?>
<svg width="24px" height="20px" viewBox="0 0 24 20" version="1.1" xmlns="http://www.w3.org/2000/svg" xmlns:xlink="http://www.w3.org/1999/xlink">
    <title>icon-twitter-white</title>
    <g id="Page-1" stroke="none" stroke-width="1" fill="none" fill-rule="evenodd">
        <g id="icon-twitter-white" fill="#F03600" fill-rule="nonzero">
            <path d="M23.79,2.289 C22.9002115,2.68345659 21.9564446,2.94265542 20.99,3.058 C22.0092793,2.44799261 22.7722623,1.48848918 23.137,0.358 C22.1789946,0.927498768 21.1304905,1.32863614 20.037,1.544 C18.5241913,-0.0645030591 16.1204493,-0.458168375 14.1735783,0.583736479 C12.2267074,1.62564133 11.2208494,3.8440186 11.72,5.995 C7.79520994,5.79836493 4.1384788,3.94455492 1.66,0.895 C0.36543639,3.12490398 1.02646412,5.97695408 3.17,7.41 C2.39474035,7.38609622 1.63652635,7.17656715 0.959,6.799 L0.959,6.862 C0.959518989,9.18524967 2.59685804,11.1864418 4.874,11.647 C4.15682905,11.8434526 3.40406294,11.8721946 2.674,11.731 C3.31234115,13.7195269 5.14487713,15.0817696 7.233,15.12 C5.18484897,16.7197913 2.58800091,17.4464487 0.007,17.142 C4.28107339,19.8796752 9.70858656,20.0662681 14.1605839,17.628587 C18.6125812,15.190906 21.3791129,10.5176824 21.375,5.442 C21.375,5.23 21.375,5.022 21.361,4.813 C22.3140341,4.12247849 23.1365319,3.26781219 23.79,2.289 Z" id="twitter-icon-2"></path>
        </g>
    </g>
</svg>