<svg xmlns="http://www.w3.org/2000/svg" width="26" height="25.987" viewBox="0 0 26 25.987">
  <path id="ASX_icon" d="M-2027,25.987a12.924,12.924,0,0,1-5.06-1.021,12.957,12.957,0,0,1-4.132-2.784,12.945,12.945,0,0,1-2.786-4.13A12.908,12.908,0,0,1-2040,12.993a12.907,12.907,0,0,1,1.021-5.055A12.947,12.947,0,0,1-2036.2,3.81a12.955,12.955,0,0,1,4.128-2.785A12.926,12.926,0,0,1-2027.014,0h.027a12.926,12.926,0,0,1,5.055,1.024A12.959,12.959,0,0,1-2017.8,3.81a12.945,12.945,0,0,1,2.783,4.128,12.906,12.906,0,0,1,1.02,5.055,12.916,12.916,0,0,1-1.021,5.058,12.953,12.953,0,0,1-2.786,4.13,12.955,12.955,0,0,1-4.132,2.784A12.925,12.925,0,0,1-2027,25.987Zm5-11.181h0v5.952h2V17.55l-2-2.744Zm-2.406-3.337h0v9.289h2.021v-6.49l-2.021-2.8Zm-2.4-3.307h0v9.829l2.014,2.767V10.941l-2.014-2.779Zm-.374,0h0l-2.015,2.779v9.817l2.015-2.767V8.161Zm-2.4,3.307h0l-2.022,2.8v6.49h2.022V11.469Zm-2.407,3.337h0l-1.995,2.744v3.208h1.995V14.806Zm7.579-9.573v5.549l1.393,1.923.628-.84V5.233Zm-7.2,0v6.632l.626.84,1.395-1.924V5.23Zm9.607.006v6.127l2.071-2.741V5.236Zm-12.062-.005V8.615l2.07,2.744V5.231Zm9.272.065h0l-1.827,2.431,1.827,2.523V5.3Zm-4.41,0h0v4.954l1.827-2.523-1.827-2.431Z" transform="translate(2040 0)" fill="#fff"/>
</svg>
