<svg xmlns="http://www.w3.org/2000/svg" width="30" height="30" viewBox="0 0 30 30">
  <g id="publications_icon" transform="translate(2)" style="isolation: isolate">
    <g id="Group_12" data-name="Group 12" transform="translate(-2 0)">
      <path id="Path_51" data-name="Path 51" d="M637.326,650.275a.586.586,0,1,0-.586-.586.586.586,0,0,0,.586.586Zm0,0" transform="translate(-621.74 -639.728)" fill="#fff"/>
      <path id="Path_52" data-name="Path 52" d="M637.326,670.96a.586.586,0,1,0-.586-.586.586.586,0,0,0,.586.586Zm0,0" transform="translate(-621.74 -658.069)" fill="#fff"/>
      <path id="Path_53" data-name="Path 53" d="M528.15,566.361H511.384V569.9c-.195-.018-.39-.027-.586-.027a6.445,6.445,0,0,0,0,12.891c.2,0,.391-.009.586-.027v13.621h22.969v-23.8Zm.343,2,3.859,3.859h-3.859Zm-17.109,2.72a5.281,5.281,0,0,1,4.654,4.655h-4.654Zm-5.859,5.241a5.281,5.281,0,0,1,4.688-5.241v5.826h5.826a5.273,5.273,0,0,1-10.513-.585Zm27.656,18.867H512.556V582.523a6.446,6.446,0,0,0,0-12.4v-2.588h14.766v5.859h5.859Z" transform="translate(-504.353 -566.361)" fill="#fff"/>
      <path id="Path_54" data-name="Path 54" d="M642.951,598.561v-1.172H636.74v1.172Z" transform="translate(-621.74 -593.873)" fill="#fff"/>
      <path id="Path_55" data-name="Path 55" d="M642.951,619.247v-1.172H636.74v1.172Z" transform="translate(-621.74 -612.216)" fill="#fff"/>
      <path id="Path_56" data-name="Path 56" d="M529.141,657.2a2.933,2.933,0,0,1-2.93-2.93h-1.172a4.106,4.106,0,0,0,4.1,4.1V657.2Zm0,0" transform="translate(-522.695 -644.313)" fill="#fff"/>
      <path id="Path_57" data-name="Path 57" d="M603.443,703.919a1.757,1.757,0,0,0-1.458,2.74l-4.069,4.367a1.761,1.761,0,0,0-1.215.072l-1.833-2.272a1.758,1.758,0,1,0-3.14-.029l-2.137,2.316a1.758,1.758,0,1,0,.838.819l2.137-2.316a1.763,1.763,0,0,0,1.445.015l1.833,2.272a1.758,1.758,0,1,0,3.02-.176l4.069-4.367a1.758,1.758,0,1,0,.509-3.44Zm-14.59,9.375a.586.586,0,1,1,.586-.586.586.586,0,0,1-.586.586Zm3.867-5.273a.586.586,0,1,1,.586.586.586.586,0,0,1-.586-.586Zm4.688,5.273a.586.586,0,1,1,.586-.586.586.586,0,0,1-.586.586Zm6.035-7.031a.586.586,0,1,1,.586-.586.586.586,0,0,1-.586.586Zm0,0" transform="translate(-577.72 -688.333)" fill="#fff"/>
      <path id="Path_58" data-name="Path 58" d="M654.323,650.275h8.906V649.1h-8.906Z" transform="translate(-637.331 -639.728)" fill="#fff"/>
      <path id="Path_59" data-name="Path 59" d="M654.323,669.788v1.172h8.906v-1.172Z" transform="translate(-637.331 -658.069)" fill="#fff"/>
    </g>
  </g>
</svg>
