<svg xmlns="http://www.w3.org/2000/svg" width="23.659" height="23.615" viewBox="0 0 23.659 23.615">
  <g id="linkedin-icon" transform="translate(0 0)">
    <path id="Path_60" data-name="Path 60" d="M1503.258,42.553a2.843,2.843,0,1,1-2.845,2.845,2.843,2.843,0,0,1,2.845-2.845m-2.454,7.842h4.909V66.168H1500.8Z" transform="translate(-1500.413 -42.553)" fill="#fff"/>
    <path id="Path_61" data-name="Path 61" d="M1507.044,48.846h4.7V51h.067a5.152,5.152,0,0,1,4.639-2.548c4.964,0,5.881,3.268,5.881,7.516v8.65h-4.9v-7.67c0-1.831-.032-4.182-2.548-4.182-2.549,0-2.939,1.994-2.939,4.05v7.8h-4.9Z" transform="translate(-1498.672 -41.004)" fill="#fff"/>
  </g>
</svg>
