<svg xmlns="http://www.w3.org/2000/svg" width="31.677" height="31.661" viewBox="0 0 31.677 31.661">
  <path id="asx_icon" d="M-2024.162,31.661a15.746,15.746,0,0,1-6.165-1.244,15.786,15.786,0,0,1-5.034-3.392,15.774,15.774,0,0,1-3.395-5.032A15.726,15.726,0,0,1-2040,15.83a15.727,15.727,0,0,1,1.243-6.158,15.775,15.775,0,0,1,3.39-5.03,15.785,15.785,0,0,1,5.029-3.393A15.747,15.747,0,0,1-2024.178,0h.033a15.748,15.748,0,0,1,6.159,1.248,15.786,15.786,0,0,1,5.029,3.393,15.774,15.774,0,0,1,3.39,5.03,15.722,15.722,0,0,1,1.243,6.158,15.732,15.732,0,0,1-1.245,6.163,15.779,15.779,0,0,1-3.394,5.032A15.783,15.783,0,0,1-2018,30.417,15.748,15.748,0,0,1-2024.162,31.661Zm6.087-13.623h0V25.29h2.431V21.382l-2.431-3.343Zm-2.931-4.066h0V25.29h2.462V17.383l-2.462-3.41Zm-2.923-4.029h0V21.919l2.454,3.371V13.33l-2.454-3.386Zm-.455,0h0l-2.455,3.386V25.29l2.455-3.371V9.944Zm-2.923,4.029h0l-2.463,3.41V25.29h2.463V13.973Zm-2.932,4.066h0l-2.431,3.343V25.29h2.431V18.039Zm9.234-11.663v6.761l1.7,2.343.765-1.023V6.375Zm-8.775,0v8.08l.763,1.023,1.7-2.344V6.371Zm11.705.007v7.464l2.523-3.34V6.379Zm-14.7-.006V10.5l2.522,3.343V6.373Zm11.3.08h0l-2.226,2.961,2.226,3.074V6.452Zm-5.373-.005h0v6.036l2.225-3.074-2.225-2.962Z" transform="translate(2040)" fill="#fff"/>
</svg>
