<svg xmlns="http://www.w3.org/2000/svg" width="21" height="20.999" viewBox="0 0 21 20.999">
  <path id="icon-link" d="M-7958.663,18.66a4.584,4.584,0,0,1,0-6.477l4.241-4.24a4.586,4.586,0,0,1,6.478,0l-1.306,1.3a2.739,2.739,0,0,0-3.868,0l-4.238,4.24a2.739,2.739,0,0,0,0,3.869,2.738,2.738,0,0,0,3.867,0l2.826-2.827,1.3,1.3-2.826,2.827h0A4.565,4.565,0,0,1-7955.422,20,4.575,4.575,0,0,1-7958.663,18.66Zm6.606-6.6,1.3-1.3a2.721,2.721,0,0,0,1.935.8,2.721,2.721,0,0,0,1.935-.8l4.239-4.24a2.739,2.739,0,0,0,0-3.869,2.739,2.739,0,0,0-3.867,0h0l-2.826,2.827-1.3-1.3,2.826-2.825h0a4.586,4.586,0,0,1,6.477,0,4.587,4.587,0,0,1,0,6.476l-4.239,4.24a4.553,4.553,0,0,1-3.239,1.342A4.545,4.545,0,0,1-7952.056,12.056Z" transform="translate(7960.502 0.5)" fill="#3e9f9f" stroke="rgba(0,0,0,0)" stroke-miterlimit="10" stroke-width="1"/>
</svg>
