<svg xmlns="http://www.w3.org/2000/svg" width="280" height="108.121" viewBox="0 0 280 108.121">
  <g id="argenica_logo-reversed" style="isolation: isolate">
    <g id="Group_5" data-name="Group 5" transform="translate(48.275 47.176)">
      <path id="Path_23" data-name="Path 23" d="M56.387,48.933a.613.613,0,0,0-.14-.22A.588.588,0,0,0,56,48.57a1.478,1.478,0,0,0-.274-.055,3.5,3.5,0,0,0-.67,0,1.462,1.462,0,0,0-.274.055.65.65,0,0,0-.243.136.593.593,0,0,0-.152.229L49.874,61.248a.82.82,0,0,0-.072.342.419.419,0,0,0,.162.315.66.66,0,0,0,.315.118,3.01,3.01,0,0,0,.734,0,.92.92,0,0,0,.263-.077.551.551,0,0,0,.189-.151.569.569,0,0,0,.1-.189l1.131-3.273h5.33l1.185,3.309a.836.836,0,0,0,.088.161.466.466,0,0,0,.2.164.941.941,0,0,0,.26.062,3.111,3.111,0,0,0,.362.017,3.678,3.678,0,0,0,.37-.016.609.609,0,0,0,.317-.114.417.417,0,0,0,.162-.32.832.832,0,0,0-.07-.343Zm1.1,7.9H53.219L55.327,50.8Z" transform="translate(-49.801 -48.385)" fill="#fff"/>
      <path id="Path_24" data-name="Path 24" d="M72.115,60.768l-1.207-3.022c-.137-.343-.273-.653-.406-.923a5.247,5.247,0,0,0-.444-.749,3.147,3.147,0,0,0-.529-.574q-.1-.079-.2-.15a5.181,5.181,0,0,0,.583-.306,3.545,3.545,0,0,0,.845-.714,3.058,3.058,0,0,0,.552-.965,3.675,3.675,0,0,0,.193-1.226,3.965,3.965,0,0,0-.187-1.23,3.079,3.079,0,0,0-.578-1.04,3.267,3.267,0,0,0-.977-.772,4.618,4.618,0,0,0-1.361-.445q-.268-.042-.591-.067c-.219-.017-.491-.026-.811-.026H64.576a.865.865,0,0,0-.506.179.792.792,0,0,0-.288.689V61.547a.444.444,0,0,0,.063.232.437.437,0,0,0,.209.177,1.135,1.135,0,0,0,.244.066,2.373,2.373,0,0,0,.663,0,1.139,1.139,0,0,0,.238-.066.436.436,0,0,0,.272-.409v-5.6h1.1a2.742,2.742,0,0,1,1.056.182,2.25,2.25,0,0,1,.74.493,3.065,3.065,0,0,1,.536.757c.156.306.3.635.439.978l1.2,3.131a1.067,1.067,0,0,0,.118.253.617.617,0,0,0,.211.2.792.792,0,0,0,.279.088,2.5,2.5,0,0,0,.315.017,2.181,2.181,0,0,0,.351-.023.911.911,0,0,0,.263-.077.429.429,0,0,0,.2-.192.489.489,0,0,0,.051-.226,1,1,0,0,0-.044-.252C72.264,61.185,72.207,61.018,72.115,60.768Zm-2.549-7.653a1.7,1.7,0,0,1-.457.659,2.321,2.321,0,0,1-.81.458,3.759,3.759,0,0,1-1.209.172H65.471V50.125H66.83a8.558,8.558,0,0,1,.862.034,3.569,3.569,0,0,1,.588.107,1.859,1.859,0,0,1,1.1.725,2.571,2.571,0,0,1,.183,2.124Z" transform="translate(-49.833 -48.385)" fill="#fff"/>
      <path id="Path_25" data-name="Path 25" d="M84.958,49.664a2.983,2.983,0,0,0-.517-.375,5.115,5.115,0,0,0-.889-.421,8.079,8.079,0,0,0-1.156-.325,7.067,7.067,0,0,0-3.994.369,5.958,5.958,0,0,0-2.049,1.423,6.429,6.429,0,0,0-1.326,2.207A8.8,8.8,0,0,0,74.99,58.1a6.147,6.147,0,0,0,1.26,2.143,5.632,5.632,0,0,0,2.029,1.4,7.079,7.079,0,0,0,2.707.493,7.49,7.49,0,0,0,.984-.067,8.27,8.27,0,0,0,.991-.2,7.676,7.676,0,0,0,.957-.32,6.409,6.409,0,0,0,.746-.355.99.99,0,0,0,.443-.436,1.255,1.255,0,0,0,.095-.506V55.442a1.064,1.064,0,0,0-.068-.395.7.7,0,0,0-.2-.289.763.763,0,0,0-.266-.145.912.912,0,0,0-.257-.04H80.458a.51.51,0,0,0-.259.068.522.522,0,0,0-.181.181.725.725,0,0,0-.091.249,1.554,1.554,0,0,0-.024.291,1.027,1.027,0,0,0,.111.518.493.493,0,0,0,.444.26h3.055v3.816a4.9,4.9,0,0,1-1.145.431,5.271,5.271,0,0,1-3.221-.19,4.113,4.113,0,0,1-1.472-1.017,4.8,4.8,0,0,1-.973-1.651,6.653,6.653,0,0,1-.355-2.256,6.953,6.953,0,0,1,.312-2.115,4.959,4.959,0,0,1,.9-1.677,4.2,4.2,0,0,1,1.435-1.1,4.5,4.5,0,0,1,1.944-.4,5.081,5.081,0,0,1,1.482.19,6.665,6.665,0,0,1,1.074.42,5.361,5.361,0,0,1,.7.416c.388.284.592.3.786.16a.518.518,0,0,0,.165-.207,1,1,0,0,0,.074-.243,1.571,1.571,0,0,0,.024-.283,1.251,1.251,0,0,0-.061-.434A.934.934,0,0,0,84.958,49.664Z" transform="translate(-49.857 -48.385)" fill="#fff"/>
      <path id="Path_26" data-name="Path 26" d="M96.508,60.656a.559.559,0,0,0-.18-.17.487.487,0,0,0-.248-.068H90.931v-4.69h4.33a.537.537,0,0,0,.245-.055.493.493,0,0,0,.191-.17.687.687,0,0,0,.095-.239,1.32,1.32,0,0,0,.025-.274,1.582,1.582,0,0,0-.024-.29.752.752,0,0,0-.091-.25.528.528,0,0,0-.183-.181.5.5,0,0,0-.258-.067h-4.33V50.125H95.99a.476.476,0,0,0,.248-.068.5.5,0,0,0,.182-.181.722.722,0,0,0,.091-.242,1.46,1.46,0,0,0,.024-.277,1.594,1.594,0,0,0-.024-.291.787.787,0,0,0-.087-.248.522.522,0,0,0-.186-.193.49.49,0,0,0-.248-.067H90.036a.87.87,0,0,0-.506.179.792.792,0,0,0-.288.689V61.116a.792.792,0,0,0,.288.689.87.87,0,0,0,.506.179H96.08a.493.493,0,0,0,.248-.067.56.56,0,0,0,.184-.182.738.738,0,0,0,.1-.252,1.463,1.463,0,0,0,.024-.278,1.48,1.48,0,0,0-.024-.289A.656.656,0,0,0,96.508,60.656Z" transform="translate(-49.89 -48.385)" fill="#fff"/>
      <path id="Path_27" data-name="Path 27" d="M109.674,48.629a.791.791,0,0,0-.265-.073,2.98,2.98,0,0,0-.634,0,.794.794,0,0,0-.26.074.466.466,0,0,0-.2.175.445.445,0,0,0-.064.232v9.288q0,.414,0,.813l-.1-.187q-.274-.5-.553-1.015t-.575-1.052q-.293-.537-.624-1.118l-3.48-6.194a5.012,5.012,0,0,0-.288-.47,1.426,1.426,0,0,0-.306-.323,1.069,1.069,0,0,0-.372-.174,1.916,1.916,0,0,0-.456-.047H101a.87.87,0,0,0-.506.179.792.792,0,0,0-.288.689V61.547a.444.444,0,0,0,.063.232.44.44,0,0,0,.21.177,1.135,1.135,0,0,0,.244.066,2.062,2.062,0,0,0,.327.023,1.959,1.959,0,0,0,.335-.024,1.049,1.049,0,0,0,.236-.065.435.435,0,0,0,.21-.177.445.445,0,0,0,.064-.232V51.663c0-.186,0-.37,0-.553l.212.387q.346.628.684,1.219l4.548,8.088a5.8,5.8,0,0,0,.359.564,1.977,1.977,0,0,0,.351.379,1.166,1.166,0,0,0,.4.217,1.459,1.459,0,0,0,.433.061h.249a.951.951,0,0,0,.259-.039.719.719,0,0,0,.281-.156.816.816,0,0,0,.2-.275.954.954,0,0,0,.076-.4V49.037a.436.436,0,0,0-.078-.248A.53.53,0,0,0,109.674,48.629Z" transform="translate(-49.914 -48.385)" fill="#fff"/>
      <path id="Path_28" data-name="Path 28" d="M115.649,48.588a1.109,1.109,0,0,0-.237-.066,2.281,2.281,0,0,0-.65,0,1.269,1.269,0,0,0-.236.064.474.474,0,0,0-.215.163.43.43,0,0,0-.079.248v12.55a.445.445,0,0,0,.064.232.435.435,0,0,0,.21.177,1.124,1.124,0,0,0,.243.066,2.074,2.074,0,0,0,.328.023,1.945,1.945,0,0,0,.334-.024,1.058,1.058,0,0,0,.237-.065.44.44,0,0,0,.21-.177.444.444,0,0,0,.063-.232V49a.444.444,0,0,0-.063-.232A.438.438,0,0,0,115.649,48.588Z" transform="translate(-49.946 -48.385)" fill="#fff"/>
      <path id="Path_29" data-name="Path 29" d="M129.038,59.454a.413.413,0,0,0-.161-.206c-.184-.114-.434-.075-.79.192a7.484,7.484,0,0,1-.68.44,5.466,5.466,0,0,1-.989.437,4.2,4.2,0,0,1-1.335.192,3.952,3.952,0,0,1-1.666-.338,3.253,3.253,0,0,1-1.218-.976,4.64,4.64,0,0,1-.767-1.6,9.327,9.327,0,0,1,.024-4.554,5.1,5.1,0,0,1,.809-1.674,3.372,3.372,0,0,1,1.215-1.006,3.571,3.571,0,0,1,1.563-.342,4.229,4.229,0,0,1,1.349.192,5.043,5.043,0,0,1,.967.435,6.141,6.141,0,0,1,.643.437c.361.292.62.317.809.166a.559.559,0,0,0,.151-.2.89.89,0,0,0,.07-.248,2.046,2.046,0,0,0,.017-.279,2.183,2.183,0,0,0-.011-.24,1.384,1.384,0,0,0-.037-.207.775.775,0,0,0-.079-.194,1.348,1.348,0,0,0-.207-.243,3.025,3.025,0,0,0-.544-.391,5.087,5.087,0,0,0-.863-.41,6.936,6.936,0,0,0-1.037-.29,5.845,5.845,0,0,0-1.168-.115,5.557,5.557,0,0,0-2.338.487,5.1,5.1,0,0,0-1.818,1.406,6.538,6.538,0,0,0-1.165,2.211,9.625,9.625,0,0,0-.41,2.909,9.51,9.51,0,0,0,.385,2.814,5.972,5.972,0,0,0,1.112,2.1,4.748,4.748,0,0,0,1.768,1.311,5.757,5.757,0,0,0,2.3.445,6.289,6.289,0,0,0,1.441-.156,7.044,7.044,0,0,0,1.15-.374,5.344,5.344,0,0,0,.841-.447,3.147,3.147,0,0,0,.449-.339,1.1,1.1,0,0,0,.167-.2.835.835,0,0,0,.078-.184,1.149,1.149,0,0,0,.038-.2,2.217,2.217,0,0,0,.011-.227,2.323,2.323,0,0,0-.017-.3A1.047,1.047,0,0,0,129.038,59.454Z" transform="translate(-49.957 -48.385)" fill="#fff"/>
      <path id="Path_30" data-name="Path 30" d="M137.208,48.933a.616.616,0,0,0-.14-.22.588.588,0,0,0-.244-.143,1.479,1.479,0,0,0-.274-.055,3.578,3.578,0,0,0-.67,0,1.462,1.462,0,0,0-.274.055.658.658,0,0,0-.243.136.572.572,0,0,0-.152.229l-4.515,12.313a.81.81,0,0,0-.072.342.413.413,0,0,0,.163.315.656.656,0,0,0,.314.118,3.009,3.009,0,0,0,.734,0,.9.9,0,0,0,.262-.077.54.54,0,0,0,.287-.34l1.131-3.273h5.329l1.186,3.309a.829.829,0,0,0,.088.161.464.464,0,0,0,.206.164.933.933,0,0,0,.259.062,3.113,3.113,0,0,0,.362.017,3.681,3.681,0,0,0,.37-.016.615.615,0,0,0,.317-.114.416.416,0,0,0,.162-.32.838.838,0,0,0-.07-.343Zm1.1,7.9h-4.266l2.107-6.033Z" transform="translate(-49.983 -48.385)" fill="#fff"/>
      <path id="Path_31" data-name="Path 31" d="M158.368,48.819a.517.517,0,0,0-.187-.193.49.49,0,0,0-.248-.067h-8.915a.473.473,0,0,0-.262.073.526.526,0,0,0-.172.187.791.791,0,0,0-.087.247,1.558,1.558,0,0,0-.024.292,1.43,1.43,0,0,0,.024.277.715.715,0,0,0,.09.24.5.5,0,0,0,.169.177.469.469,0,0,0,.262.074h3.613V61.547a.445.445,0,0,0,.064.232.437.437,0,0,0,.209.177,1.1,1.1,0,0,0,.244.066,2.357,2.357,0,0,0,.657,0,1.169,1.169,0,0,0,.244-.066.433.433,0,0,0,.271-.409V50.125h3.613a.474.474,0,0,0,.248-.068.508.508,0,0,0,.184-.182.729.729,0,0,0,.089-.241,1.38,1.38,0,0,0,.025-.277,1.525,1.525,0,0,0-.025-.292A.827.827,0,0,0,158.368,48.819Z" transform="translate(-50.023 -48.385)" fill="#fff"/>
      <path id="Path_32" data-name="Path 32" d="M170.123,48.588a1.141,1.141,0,0,0-.243-.066,2.38,2.38,0,0,0-.664,0,1.084,1.084,0,0,0-.236.066.434.434,0,0,0-.21.177.444.444,0,0,0-.063.232v5.187h-5.97V49a.436.436,0,0,0-.064-.232.442.442,0,0,0-.209-.177,1.127,1.127,0,0,0-.237-.066,2.373,2.373,0,0,0-.663,0,1.077,1.077,0,0,0-.243.066.429.429,0,0,0-.21.177.436.436,0,0,0-.064.232v12.55a.432.432,0,0,0,.272.409,1.1,1.1,0,0,0,.244.066,2.372,2.372,0,0,0,.663,0,1.127,1.127,0,0,0,.237-.066.436.436,0,0,0,.272-.409v-5.8h5.97v5.8a.444.444,0,0,0,.063.232.437.437,0,0,0,.209.177,1.109,1.109,0,0,0,.237.066,2.406,2.406,0,0,0,.664,0,1.168,1.168,0,0,0,.244-.066.436.436,0,0,0,.272-.409V49a.445.445,0,0,0-.064-.232A.44.44,0,0,0,170.123,48.588Z" transform="translate(-50.051 -48.385)" fill="#fff"/>
      <path id="Path_33" data-name="Path 33" d="M181.949,60.656a.558.558,0,0,0-.18-.17.484.484,0,0,0-.248-.068h-5.148v-4.69h4.33a.537.537,0,0,0,.245-.055.493.493,0,0,0,.192-.172.671.671,0,0,0,.094-.237,1.319,1.319,0,0,0,.025-.274,1.51,1.51,0,0,0-.025-.291.753.753,0,0,0-.09-.249.528.528,0,0,0-.183-.181.5.5,0,0,0-.258-.067h-4.33V50.125h5.059a.476.476,0,0,0,.248-.068.506.506,0,0,0,.183-.182.752.752,0,0,0,.09-.241,1.458,1.458,0,0,0,.024-.277,1.611,1.611,0,0,0-.024-.292.826.826,0,0,0-.087-.247.522.522,0,0,0-.186-.193.49.49,0,0,0-.248-.067h-5.954a.865.865,0,0,0-.506.179.792.792,0,0,0-.288.689V61.116a.792.792,0,0,0,.288.689.865.865,0,0,0,.506.179h6.043a.49.49,0,0,0,.248-.067.56.56,0,0,0,.184-.182.722.722,0,0,0,.1-.252,1.459,1.459,0,0,0,.024-.278,1.5,1.5,0,0,0-.024-.29A.665.665,0,0,0,181.949,60.656Zm-1.007-5.284Z" transform="translate(-50.082 -48.385)" fill="#fff"/>
      <path id="Path_34" data-name="Path 34" d="M193.982,60.768l-1.206-3.022c-.135-.339-.271-.648-.406-.923a5.248,5.248,0,0,0-.445-.749,3.181,3.181,0,0,0-.529-.575c-.063-.052-.129-.1-.2-.149a5.2,5.2,0,0,0,.584-.306,3.537,3.537,0,0,0,.844-.714,3.058,3.058,0,0,0,.552-.965,3.675,3.675,0,0,0,.193-1.226,3.973,3.973,0,0,0-.186-1.23,3.1,3.1,0,0,0-.578-1.04,3.268,3.268,0,0,0-.978-.772,4.618,4.618,0,0,0-1.361-.445q-.266-.042-.591-.067c-.217-.017-.49-.026-.811-.026h-2.424a.87.87,0,0,0-.506.179.792.792,0,0,0-.288.689V61.547a.444.444,0,0,0,.063.232.44.44,0,0,0,.21.177,1.136,1.136,0,0,0,.244.066,2.373,2.373,0,0,0,.662,0,1.1,1.1,0,0,0,.236-.066.435.435,0,0,0,.21-.177.445.445,0,0,0,.064-.232v-5.6h1.1a2.751,2.751,0,0,1,1.057.182,2.246,2.246,0,0,1,.739.493,3.056,3.056,0,0,1,.537.757c.156.306.3.635.439.978l1.2,3.132a1.077,1.077,0,0,0,.117.252.638.638,0,0,0,.211.2.79.79,0,0,0,.28.088,2.486,2.486,0,0,0,.314.017,2.172,2.172,0,0,0,.351-.023.911.911,0,0,0,.263-.077.437.437,0,0,0,.2-.194.5.5,0,0,0,.049-.224.994.994,0,0,0-.043-.252C194.131,61.185,194.075,61.017,193.982,60.768Zm-2.549-7.653a1.7,1.7,0,0,1-.456.659,2.336,2.336,0,0,1-.811.458,3.759,3.759,0,0,1-1.209.172h-1.618V50.125H188.7a8.593,8.593,0,0,1,.863.034,3.569,3.569,0,0,1,.588.107,1.859,1.859,0,0,1,1.1.725,2.33,2.33,0,0,1,.331,1.279A2.355,2.355,0,0,1,191.433,53.115Z" transform="translate(-50.106 -48.385)" fill="#fff"/>
      <path id="Path_35" data-name="Path 35" d="M202.605,48.933a.616.616,0,0,0-.14-.221.6.6,0,0,0-.244-.142,1.463,1.463,0,0,0-.274-.055,3.568,3.568,0,0,0-.67,0,1.458,1.458,0,0,0-.275.055.646.646,0,0,0-.242.136.585.585,0,0,0-.153.229l-4.515,12.313a.805.805,0,0,0-.071.341.416.416,0,0,0,.162.316.652.652,0,0,0,.314.118,3.018,3.018,0,0,0,.735,0,.913.913,0,0,0,.262-.077.568.568,0,0,0,.189-.149.56.56,0,0,0,.1-.191l1.131-3.273h5.33l1.185,3.309a.906.906,0,0,0,.087.16.47.47,0,0,0,.207.165.942.942,0,0,0,.259.062,3.125,3.125,0,0,0,.362.017c.151,0,.273-.006.371-.016a.615.615,0,0,0,.317-.114.414.414,0,0,0,.161-.32.8.8,0,0,0-.07-.343Zm1.1,7.9h-4.266l2.107-6.033Z" transform="translate(-50.129 -48.385)" fill="#fff"/>
      <path id="Path_36" data-name="Path 36" d="M217.1,50.035a3.541,3.541,0,0,0-.935-.825,3.674,3.674,0,0,0-1.078-.46,7.167,7.167,0,0,0-.893-.155c-.251-.024-.514-.036-.78-.036h-2.623a.87.87,0,0,0-.506.179.792.792,0,0,0-.288.689V61.547a.444.444,0,0,0,.063.232.44.44,0,0,0,.21.177,1.135,1.135,0,0,0,.244.066,2.4,2.4,0,0,0,.663,0,1.1,1.1,0,0,0,.236-.066.435.435,0,0,0,.21-.177.445.445,0,0,0,.064-.232V56.83h1.439a6,6,0,0,0,2.055-.315,4.206,4.206,0,0,0,1.468-.891,3.893,3.893,0,0,0,.929-1.374,4.61,4.61,0,0,0,.321-1.74,4.311,4.311,0,0,0-.207-1.362A3.673,3.673,0,0,0,217.1,50.035Zm-3.9,5.24h-1.519V50.125h1.6a6.559,6.559,0,0,1,.939.072,2.4,2.4,0,0,1,.9.33,2.077,2.077,0,0,1,.718.783,2.648,2.648,0,0,1,.3,1.31,3.037,3.037,0,0,1-.188,1.081,2.307,2.307,0,0,1-.539.831,2.5,2.5,0,0,1-.875.543A3.811,3.811,0,0,1,213.208,55.275Z" transform="translate(-50.161 -48.385)" fill="#fff"/>
      <path id="Path_37" data-name="Path 37" d="M228.622,60.655a.565.565,0,0,0-.18-.169.484.484,0,0,0-.248-.068h-5.148v-4.69h4.33a.534.534,0,0,0,.245-.055.489.489,0,0,0,.192-.17.686.686,0,0,0,.094-.239,1.32,1.32,0,0,0,.025-.274,1.58,1.58,0,0,0-.024-.29.73.73,0,0,0-.091-.25.524.524,0,0,0-.182-.181.5.5,0,0,0-.259-.067h-4.33V50.125H228.1a.476.476,0,0,0,.248-.068.511.511,0,0,0,.183-.181.743.743,0,0,0,.09-.242,1.376,1.376,0,0,0,.025-.277,1.59,1.59,0,0,0-.024-.291.814.814,0,0,0-.087-.248.525.525,0,0,0-.187-.193.49.49,0,0,0-.248-.067H222.15a.87.87,0,0,0-.506.179.792.792,0,0,0-.288.689V61.116a.792.792,0,0,0,.288.689.87.87,0,0,0,.506.179h6.043a.49.49,0,0,0,.248-.067.547.547,0,0,0,.185-.183.72.72,0,0,0,.1-.251,1.459,1.459,0,0,0,.025-.278,1.564,1.564,0,0,0-.024-.289A.692.692,0,0,0,228.622,60.655Z" transform="translate(-50.186 -48.385)" fill="#fff"/>
      <path id="Path_38" data-name="Path 38" d="M241.766,48.588a1.14,1.14,0,0,0-.243-.066,2.332,2.332,0,0,0-.657,0,1.14,1.14,0,0,0-.243.066.434.434,0,0,0-.21.177.445.445,0,0,0-.064.232v8a5.217,5.217,0,0,1-.222,1.6,3.033,3.033,0,0,1-.624,1.11,2.482,2.482,0,0,1-.98.653,3.908,3.908,0,0,1-1.359.22,3.731,3.731,0,0,1-1.346-.229,2.591,2.591,0,0,1-.988-.669,3.03,3.03,0,0,1-.628-1.128,5.38,5.38,0,0,1-.222-1.63V49a.445.445,0,0,0-.063-.232.438.438,0,0,0-.21-.177,1.133,1.133,0,0,0-.244-.066,2.306,2.306,0,0,0-.659,0,1.194,1.194,0,0,0-.231.063.433.433,0,0,0-.219.179.445.445,0,0,0-.064.232v8.127a6.147,6.147,0,0,0,.349,2.149,4.408,4.408,0,0,0,.991,1.587,4.193,4.193,0,0,0,1.522.97,5.429,5.429,0,0,0,1.9.325,5.874,5.874,0,0,0,2.046-.34,4.265,4.265,0,0,0,1.582-1.012,4.505,4.505,0,0,0,1.006-1.637,6.4,6.4,0,0,0,.348-2.182V49a.444.444,0,0,0-.063-.232A.433.433,0,0,0,241.766,48.588Z" transform="translate(-50.211 -48.385)" fill="#fff"/>
      <path id="Path_39" data-name="Path 39" d="M254.473,48.819a.517.517,0,0,0-.187-.193.49.49,0,0,0-.248-.067h-8.915a.481.481,0,0,0-.261.072.533.533,0,0,0-.173.188.789.789,0,0,0-.087.248,1.6,1.6,0,0,0-.024.291,1.462,1.462,0,0,0,.024.277.744.744,0,0,0,.09.242.542.542,0,0,0,.168.175.473.473,0,0,0,.263.074h3.613V61.547a.454.454,0,0,0,.063.232.443.443,0,0,0,.211.177,1.109,1.109,0,0,0,.243.066,2.35,2.35,0,0,0,.656,0,1.136,1.136,0,0,0,.244-.066.432.432,0,0,0,.272-.409V50.125h3.613a.476.476,0,0,0,.248-.068.511.511,0,0,0,.183-.181.721.721,0,0,0,.09-.242,1.377,1.377,0,0,0,.025-.277,1.6,1.6,0,0,0-.024-.291A.813.813,0,0,0,254.473,48.819Z" transform="translate(-50.238 -48.385)" fill="#fff"/>
      <path id="Path_40" data-name="Path 40" d="M258.569,48.588a1.111,1.111,0,0,0-.237-.066,2.274,2.274,0,0,0-.649,0,1.228,1.228,0,0,0-.237.064.47.47,0,0,0-.215.163.43.43,0,0,0-.079.248v12.55a.445.445,0,0,0,.064.232.435.435,0,0,0,.21.177,1.14,1.14,0,0,0,.243.066,2.4,2.4,0,0,0,.663,0,1.111,1.111,0,0,0,.237-.066.435.435,0,0,0,.21-.177.446.446,0,0,0,.064-.232V49a.446.446,0,0,0-.064-.232A.434.434,0,0,0,258.569,48.588Z" transform="translate(-50.267 -48.385)" fill="#fff"/>
      <path id="Path_41" data-name="Path 41" d="M271.957,59.453a.41.41,0,0,0-.16-.2c-.184-.114-.434-.075-.79.192a7.216,7.216,0,0,1-.68.44,5.505,5.505,0,0,1-.989.437,4.2,4.2,0,0,1-1.335.192,3.953,3.953,0,0,1-1.666-.338,3.261,3.261,0,0,1-1.218-.976,4.659,4.659,0,0,1-.767-1.6,9.325,9.325,0,0,1,.024-4.554,5.083,5.083,0,0,1,.809-1.674,3.365,3.365,0,0,1,1.215-1.006,3.571,3.571,0,0,1,1.564-.342,4.224,4.224,0,0,1,1.349.192,5.038,5.038,0,0,1,.967.435,6.042,6.042,0,0,1,.643.437c.361.292.621.317.809.166a.555.555,0,0,0,.151-.2.891.891,0,0,0,.07-.249,2.024,2.024,0,0,0,.017-.278,2.176,2.176,0,0,0-.011-.24,1.266,1.266,0,0,0-.037-.207.8.8,0,0,0-.079-.194,1.313,1.313,0,0,0-.207-.243,3.053,3.053,0,0,0-.544-.391,5.112,5.112,0,0,0-.862-.41,7.036,7.036,0,0,0-1.038-.29,5.845,5.845,0,0,0-1.168-.115,5.561,5.561,0,0,0-2.338.487,5.116,5.116,0,0,0-1.819,1.406,6.581,6.581,0,0,0-1.164,2.211,9.657,9.657,0,0,0-.41,2.909,9.495,9.495,0,0,0,.385,2.814,5.988,5.988,0,0,0,1.112,2.1,4.748,4.748,0,0,0,1.768,1.311,5.757,5.757,0,0,0,2.3.445,6.288,6.288,0,0,0,1.441-.156,7.076,7.076,0,0,0,1.15-.374,5.254,5.254,0,0,0,.841-.447,3.089,3.089,0,0,0,.449-.339,1.067,1.067,0,0,0,.168-.2.835.835,0,0,0,.077-.183,1.147,1.147,0,0,0,.038-.2,2.541,2.541,0,0,0-.006-.53A1.059,1.059,0,0,0,271.957,59.453Z" transform="translate(-50.278 -48.385)" fill="#fff"/>
      <path id="Path_42" data-name="Path 42" d="M281.747,56.827a3.513,3.513,0,0,0-.738-1.04,4.919,4.919,0,0,0-1.021-.757c-.365-.2-.742-.4-1.122-.578s-.743-.353-1.1-.529a5.33,5.33,0,0,1-.931-.57,2.521,2.521,0,0,1-.63-.694,1.737,1.737,0,0,1-.225-.908,1.905,1.905,0,0,1,.128-.694,1.564,1.564,0,0,1,.376-.561,1.867,1.867,0,0,1,.647-.385,2.8,2.8,0,0,1,.947-.145,3.41,3.41,0,0,1,1,.134,4.485,4.485,0,0,1,.767.309c.219.116.4.222.546.315.353.228.563.228.722.084a.531.531,0,0,0,.139-.2,1.053,1.053,0,0,0,.059-.234,1.844,1.844,0,0,0,.018-.27,2.376,2.376,0,0,0-.012-.261,1.141,1.141,0,0,0-.038-.2.774.774,0,0,0-.066-.168,1,1,0,0,0-.159-.191,1.963,1.963,0,0,0-.446-.292,4.768,4.768,0,0,0-.7-.3,6.391,6.391,0,0,0-.823-.213,4.977,4.977,0,0,0-2.444.148,3.639,3.639,0,0,0-1.252.679,3.1,3.1,0,0,0-.82,1.094,3.489,3.489,0,0,0-.29,1.445,3.382,3.382,0,0,0,.281,1.431,3.5,3.5,0,0,0,.731,1.045,5.057,5.057,0,0,0,1.01.762c.367.211.743.408,1.119.584s.741.353,1.1.529a5.518,5.518,0,0,1,.922.566,2.49,2.49,0,0,1,.625.69,1.734,1.734,0,0,1,.225.908,2.284,2.284,0,0,1-.184.938,1.887,1.887,0,0,1-.51.681,2.369,2.369,0,0,1-.8.432,3.377,3.377,0,0,1-1.044.153,4.219,4.219,0,0,1-1.241-.164,6.024,6.024,0,0,1-.931-.366,5.778,5.778,0,0,1-.631-.364c-.324-.224-.544-.261-.739-.172a.433.433,0,0,0-.2.206.867.867,0,0,0-.076.244,1.85,1.85,0,0,0-.024.323,1.5,1.5,0,0,0,.061.458.922.922,0,0,0,.215.362,2,2,0,0,0,.459.324,5.485,5.485,0,0,0,.755.341,7.19,7.19,0,0,0,1.012.285,5.94,5.94,0,0,0,1.215.12,5.634,5.634,0,0,0,1.748-.262,4.114,4.114,0,0,0,1.406-.77,3.5,3.5,0,0,0,.93-1.239,3.933,3.933,0,0,0,.33-1.639A3.347,3.347,0,0,0,281.747,56.827Z" transform="translate(-50.304 -48.385)" fill="#fff"/>
    </g>
    <ellipse id="Ellipse_11" data-name="Ellipse 11" cx="2.595" cy="2.604" rx="2.595" ry="2.604" transform="translate(51.267 23.606)" fill="#007771"/>
    <ellipse id="Ellipse_12" data-name="Ellipse 12" cx="3.807" cy="3.821" rx="3.807" ry="3.821" transform="translate(50.055 11.956)" fill="#3e9f9f"/>
    <ellipse id="Ellipse_13" data-name="Ellipse 13" cx="4.686" cy="4.704" rx="4.686" ry="4.704" transform="translate(49.176)" fill="#a4c5c2"/>
    <ellipse id="Ellipse_14" data-name="Ellipse 14" cx="2.595" cy="2.604" rx="2.595" ry="2.604" transform="translate(51.267 79.306)" fill="#007771"/>
    <ellipse id="Ellipse_15" data-name="Ellipse 15" cx="3.807" cy="3.821" rx="3.807" ry="3.821" transform="translate(50.055 88.523)" fill="#3e9f9f"/>
    <ellipse id="Ellipse_16" data-name="Ellipse 16" cx="4.686" cy="4.704" rx="4.686" ry="4.704" transform="translate(49.176 98.713)" fill="#a4c5c2"/>
    <ellipse id="Ellipse_17" data-name="Ellipse 17" cx="2.595" cy="2.604" rx="2.595" ry="2.604" transform="translate(37.394 27.338)" fill="#007771"/>
    <ellipse id="Ellipse_18" data-name="Ellipse 18" cx="3.807" cy="3.821" rx="3.807" ry="3.821" transform="translate(30.984 17.085)" fill="#3e9f9f"/>
    <ellipse id="Ellipse_19" data-name="Ellipse 19" cx="4.686" cy="4.704" rx="4.686" ry="4.704" transform="translate(24.588 6.613)" fill="#a4c5c2"/>
    <ellipse id="Ellipse_20" data-name="Ellipse 20" cx="2.595" cy="2.604" rx="2.595" ry="2.604" transform="translate(65.141 75.575)" fill="#007771"/>
    <ellipse id="Ellipse_21" data-name="Ellipse 21" cx="3.807" cy="3.821" rx="3.807" ry="3.821" transform="translate(69.127 83.394)" fill="#3e9f9f"/>
    <ellipse id="Ellipse_22" data-name="Ellipse 22" cx="4.686" cy="4.704" rx="4.686" ry="4.704" transform="translate(73.764 92.101)" fill="#a4c5c2"/>
    <ellipse id="Ellipse_23" data-name="Ellipse 23" cx="2.595" cy="2.604" rx="2.595" ry="2.604" transform="translate(27.237 37.531)" fill="#007771"/>
    <ellipse id="Ellipse_24" data-name="Ellipse 24" cx="3.807" cy="3.821" rx="3.807" ry="3.821" transform="translate(17.022 31.098)" fill="#3e9f9f"/>
    <ellipse id="Ellipse_25" data-name="Ellipse 25" cx="4.686" cy="4.704" rx="4.686" ry="4.704" transform="translate(6.588 24.678)" fill="#a4c5c2"/>
    <ellipse id="Ellipse_26" data-name="Ellipse 26" cx="2.595" cy="2.604" rx="2.595" ry="2.604" transform="translate(75.298 65.381)" fill="#007771"/>
    <ellipse id="Ellipse_27" data-name="Ellipse 27" cx="3.807" cy="3.821" rx="3.807" ry="3.821" transform="translate(83.088 69.381)" fill="#3e9f9f"/>
    <ellipse id="Ellipse_28" data-name="Ellipse 28" cx="4.686" cy="4.704" rx="4.686" ry="4.704" transform="translate(91.763 74.035)" fill="#a4c5c2"/>
    <ellipse id="Ellipse_29" data-name="Ellipse 29" cx="2.595" cy="2.604" rx="2.595" ry="2.604" transform="translate(23.52 51.456)" fill="#f03600"/>
    <ellipse id="Ellipse_30" data-name="Ellipse 30" cx="3.807" cy="3.821" rx="3.807" ry="3.821" transform="translate(11.912 50.239)" fill="#3e9f9f"/>
    <ellipse id="Ellipse_31" data-name="Ellipse 31" cx="4.686" cy="4.704" rx="4.686" ry="4.704" transform="translate(0 49.357)" fill="#a4c5c2"/>
    <ellipse id="Ellipse_32" data-name="Ellipse 32" cx="2.595" cy="2.604" rx="2.595" ry="2.604" transform="translate(27.237 65.381)" fill="#007771"/>
    <ellipse id="Ellipse_33" data-name="Ellipse 33" cx="3.807" cy="3.821" rx="3.807" ry="3.821" transform="translate(17.022 69.381)" fill="#3e9f9f"/>
    <ellipse id="Ellipse_34" data-name="Ellipse 34" cx="4.686" cy="4.704" rx="4.686" ry="4.704" transform="translate(6.588 74.035)" fill="#a4c5c2"/>
    <ellipse id="Ellipse_35" data-name="Ellipse 35" cx="2.595" cy="2.604" rx="2.595" ry="2.604" transform="translate(75.298 37.531)" fill="#007771"/>
    <ellipse id="Ellipse_36" data-name="Ellipse 36" cx="3.807" cy="3.821" rx="3.807" ry="3.821" transform="translate(83.088 31.098)" fill="#3e9f9f"/>
    <ellipse id="Ellipse_37" data-name="Ellipse 37" cx="4.686" cy="4.704" rx="4.686" ry="4.704" transform="translate(91.763 24.678)" fill="#a4c5c2"/>
    <ellipse id="Ellipse_38" data-name="Ellipse 38" cx="2.595" cy="2.604" rx="2.595" ry="2.604" transform="translate(37.394 75.575)" fill="#007771"/>
    <ellipse id="Ellipse_39" data-name="Ellipse 39" cx="3.807" cy="3.821" rx="3.807" ry="3.821" transform="translate(30.984 83.394)" fill="#3e9f9f"/>
    <ellipse id="Ellipse_40" data-name="Ellipse 40" cx="4.686" cy="4.704" rx="4.686" ry="4.704" transform="translate(24.588 92.101)" fill="#a4c5c2"/>
    <ellipse id="Ellipse_41" data-name="Ellipse 41" cx="2.595" cy="2.604" rx="2.595" ry="2.604" transform="translate(65.141 27.338)" fill="#007771"/>
    <ellipse id="Ellipse_42" data-name="Ellipse 42" cx="3.807" cy="3.821" rx="3.807" ry="3.821" transform="translate(69.127 17.085)" fill="#3e9f9f"/>
    <ellipse id="Ellipse_43" data-name="Ellipse 43" cx="4.686" cy="4.704" rx="4.686" ry="4.704" transform="translate(73.764 6.613)" fill="#a4c5c2"/>
  </g>
</svg>
