<svg xmlns="http://www.w3.org/2000/svg" width="56.124" height="60" viewBox="0 0 56.124 60">
  <g id="Group_62" data-name="Group 62" transform="translate(-60 -20)">
    <ellipse id="Ellipse_11" data-name="Ellipse 11" cx="1.44" cy="1.445" rx="1.44" ry="1.445" transform="translate(88.45 33.1)" fill="#007771"/>
    <ellipse id="Ellipse_12" data-name="Ellipse 12" cx="2.113" cy="2.12" rx="2.113" ry="2.12" transform="translate(87.777 26.635)" fill="#3e9f9f"/>
    <ellipse id="Ellipse_13" data-name="Ellipse 13" cx="2.601" cy="2.61" rx="2.601" ry="2.61" transform="translate(87.289 20)" fill="#a4c5c2"/>
    <ellipse id="Ellipse_14" data-name="Ellipse 14" cx="1.44" cy="1.445" rx="1.44" ry="1.445" transform="translate(88.45 64.01)" fill="#007771"/>
    <ellipse id="Ellipse_15" data-name="Ellipse 15" cx="2.113" cy="2.12" rx="2.113" ry="2.12" transform="translate(87.777 69.124)" fill="#3e9f9f"/>
    <ellipse id="Ellipse_16" data-name="Ellipse 16" cx="2.601" cy="2.61" rx="2.601" ry="2.61" transform="translate(87.289 74.779)" fill="#a4c5c2"/>
    <ellipse id="Ellipse_17" data-name="Ellipse 17" cx="1.44" cy="1.445" rx="1.44" ry="1.445" transform="translate(80.751 35.171)" fill="#007771"/>
    <ellipse id="Ellipse_18" data-name="Ellipse 18" cx="2.113" cy="2.12" rx="2.113" ry="2.12" transform="translate(77.194 29.481)" fill="#3e9f9f"/>
    <ellipse id="Ellipse_19" data-name="Ellipse 19" cx="2.601" cy="2.61" rx="2.601" ry="2.61" transform="translate(73.645 23.67)" fill="#a4c5c2"/>
    <ellipse id="Ellipse_20" data-name="Ellipse 20" cx="1.44" cy="1.445" rx="1.44" ry="1.445" transform="translate(96.149 61.939)" fill="#007771"/>
    <ellipse id="Ellipse_21" data-name="Ellipse 21" cx="2.113" cy="2.12" rx="2.113" ry="2.12" transform="translate(98.361 66.278)" fill="#3e9f9f"/>
    <ellipse id="Ellipse_22" data-name="Ellipse 22" cx="2.601" cy="2.61" rx="2.601" ry="2.61" transform="translate(100.934 71.11)" fill="#a4c5c2"/>
    <ellipse id="Ellipse_23" data-name="Ellipse 23" cx="1.44" cy="1.445" rx="1.44" ry="1.445" transform="translate(75.115 40.827)" fill="#007771"/>
    <ellipse id="Ellipse_24" data-name="Ellipse 24" cx="2.113" cy="2.12" rx="2.113" ry="2.12" transform="translate(69.446 37.257)" fill="#3e9f9f"/>
    <ellipse id="Ellipse_25" data-name="Ellipse 25" cx="2.601" cy="2.61" rx="2.601" ry="2.61" transform="translate(63.656 33.695)" fill="#a4c5c2"/>
    <ellipse id="Ellipse_26" data-name="Ellipse 26" cx="1.44" cy="1.445" rx="1.44" ry="1.445" transform="translate(101.785 56.282)" fill="#007771"/>
    <ellipse id="Ellipse_27" data-name="Ellipse 27" cx="2.113" cy="2.12" rx="2.113" ry="2.12" transform="translate(106.108 58.502)" fill="#3e9f9f"/>
    <ellipse id="Ellipse_28" data-name="Ellipse 28" cx="2.601" cy="2.61" rx="2.601" ry="2.61" transform="translate(110.923 61.085)" fill="#a4c5c2"/>
    <ellipse id="Ellipse_29" data-name="Ellipse 29" cx="1.44" cy="1.445" rx="1.44" ry="1.445" transform="translate(73.052 48.555)" fill="#f03600"/>
    <ellipse id="Ellipse_30" data-name="Ellipse 30" cx="2.113" cy="2.12" rx="2.113" ry="2.12" transform="translate(66.61 47.88)" fill="#3e9f9f"/>
    <ellipse id="Ellipse_31" data-name="Ellipse 31" cx="2.601" cy="2.61" rx="2.601" ry="2.61" transform="translate(60 47.39)" fill="#a4c5c2"/>
    <ellipse id="Ellipse_32" data-name="Ellipse 32" cx="1.44" cy="1.445" rx="1.44" ry="1.445" transform="translate(75.115 56.282)" fill="#007771"/>
    <ellipse id="Ellipse_33" data-name="Ellipse 33" cx="2.113" cy="2.12" rx="2.113" ry="2.12" transform="translate(69.446 58.502)" fill="#3e9f9f"/>
    <ellipse id="Ellipse_34" data-name="Ellipse 34" cx="2.601" cy="2.61" rx="2.601" ry="2.61" transform="translate(63.656 61.085)" fill="#a4c5c2"/>
    <ellipse id="Ellipse_35" data-name="Ellipse 35" cx="1.44" cy="1.445" rx="1.44" ry="1.445" transform="translate(101.785 40.827)" fill="#007771"/>
    <ellipse id="Ellipse_36" data-name="Ellipse 36" cx="2.113" cy="2.12" rx="2.113" ry="2.12" transform="translate(106.108 37.257)" fill="#3e9f9f"/>
    <ellipse id="Ellipse_37" data-name="Ellipse 37" cx="2.601" cy="2.61" rx="2.601" ry="2.61" transform="translate(110.923 33.695)" fill="#a4c5c2"/>
    <ellipse id="Ellipse_38" data-name="Ellipse 38" cx="1.44" cy="1.445" rx="1.44" ry="1.445" transform="translate(80.751 61.939)" fill="#007771"/>
    <ellipse id="Ellipse_39" data-name="Ellipse 39" cx="2.113" cy="2.12" rx="2.113" ry="2.12" transform="translate(77.194 66.278)" fill="#3e9f9f"/>
    <ellipse id="Ellipse_40" data-name="Ellipse 40" cx="2.601" cy="2.61" rx="2.601" ry="2.61" transform="translate(73.645 71.11)" fill="#a4c5c2"/>
    <ellipse id="Ellipse_41" data-name="Ellipse 41" cx="1.44" cy="1.445" rx="1.44" ry="1.445" transform="translate(96.149 35.171)" fill="#007771"/>
    <ellipse id="Ellipse_42" data-name="Ellipse 42" cx="2.113" cy="2.12" rx="2.113" ry="2.12" transform="translate(98.361 29.481)" fill="#3e9f9f"/>
    <ellipse id="Ellipse_43" data-name="Ellipse 43" cx="2.601" cy="2.61" rx="2.601" ry="2.61" transform="translate(100.934 23.67)" fill="#a4c5c2"/>
  </g>
</svg>
