<svg id="argenica_logo-reversed" xmlns="http://www.w3.org/2000/svg" width="310.763" height="120" viewBox="0 0 310.763 120">
  <g id="Group_5" data-name="Group 5" transform="translate(53.579 52.359)">
    <path id="Path_23" data-name="Path 23" d="M57.111,48.98a.68.68,0,0,0-.155-.244.652.652,0,0,0-.271-.159,1.64,1.64,0,0,0-.3-.061,3.878,3.878,0,0,0-.744,0,1.622,1.622,0,0,0-.3.061.722.722,0,0,0-.27.151.659.659,0,0,0-.168.254L49.882,62.649a.91.91,0,0,0-.08.379.465.465,0,0,0,.179.349.733.733,0,0,0,.35.131,3.34,3.34,0,0,0,.815,0,1.022,1.022,0,0,0,.292-.085.611.611,0,0,0,.209-.167.632.632,0,0,0,.109-.21l1.256-3.633h5.916l1.316,3.673a.927.927,0,0,0,.1.179.518.518,0,0,0,.227.182,1.044,1.044,0,0,0,.289.069,3.454,3.454,0,0,0,.4.019,4.086,4.086,0,0,0,.411-.018.676.676,0,0,0,.352-.126.463.463,0,0,0,.179-.355.923.923,0,0,0-.078-.38Zm1.219,8.771H53.595l2.339-6.7Z" transform="translate(-49.801 -48.373)" fill="#fff"/>
    <path id="Path_24" data-name="Path 24" d="M73.031,62.11l-1.34-3.354c-.152-.38-.3-.725-.451-1.025a5.821,5.821,0,0,0-.493-.832,3.493,3.493,0,0,0-.587-.637q-.106-.088-.219-.166a5.748,5.748,0,0,0,.647-.339,3.934,3.934,0,0,0,.938-.793,3.394,3.394,0,0,0,.612-1.071,4.079,4.079,0,0,0,.214-1.361,4.4,4.4,0,0,0-.207-1.365,3.416,3.416,0,0,0-.641-1.154,3.626,3.626,0,0,0-1.084-.857,5.125,5.125,0,0,0-1.51-.493q-.3-.047-.656-.074c-.243-.019-.545-.029-.9-.029h-2.69a.96.96,0,0,0-.561.2.879.879,0,0,0-.32.765V62.974a.493.493,0,0,0,.07.257.485.485,0,0,0,.231.2,1.261,1.261,0,0,0,.271.073,2.634,2.634,0,0,0,.735,0,1.265,1.265,0,0,0,.265-.073.484.484,0,0,0,.3-.454V56.762h1.22a3.043,3.043,0,0,1,1.172.2,2.5,2.5,0,0,1,.822.547,3.4,3.4,0,0,1,.595.841c.173.339.337.705.487,1.086l1.334,3.475a1.185,1.185,0,0,0,.131.281.686.686,0,0,0,.234.217.878.878,0,0,0,.31.1,2.777,2.777,0,0,0,.35.019,2.421,2.421,0,0,0,.39-.025,1.011,1.011,0,0,0,.292-.085.476.476,0,0,0,.221-.213.542.542,0,0,0,.056-.251,1.114,1.114,0,0,0-.049-.279C73.2,62.572,73.133,62.387,73.031,62.11ZM70.2,53.616a1.883,1.883,0,0,1-.507.732,2.576,2.576,0,0,1-.9.508,4.172,4.172,0,0,1-1.342.191h-1.8V50.3h1.508a9.5,9.5,0,0,1,.957.038,3.962,3.962,0,0,1,.652.119A2.063,2.063,0,0,1,70,51.258a2.854,2.854,0,0,1,.2,2.358Z" transform="translate(-48.3 -48.366)" fill="#fff"/>
    <path id="Path_25" data-name="Path 25" d="M86.1,49.8a3.309,3.309,0,0,0-.574-.416,5.677,5.677,0,0,0-.987-.467,8.967,8.967,0,0,0-1.283-.36,7.844,7.844,0,0,0-4.433.409,6.613,6.613,0,0,0-2.275,1.579A7.135,7.135,0,0,0,75.077,53a9.768,9.768,0,0,0-.04,6.166,6.822,6.822,0,0,0,1.4,2.379A6.251,6.251,0,0,0,78.689,63.1a7.857,7.857,0,0,0,3,.547,8.315,8.315,0,0,0,1.092-.074,9.181,9.181,0,0,0,1.1-.217A8.522,8.522,0,0,0,84.946,63a7.116,7.116,0,0,0,.828-.394,1.1,1.1,0,0,0,.492-.483,1.393,1.393,0,0,0,.105-.561V56.215a1.181,1.181,0,0,0-.075-.438.781.781,0,0,0-.226-.32.847.847,0,0,0-.3-.161,1.013,1.013,0,0,0-.286-.044H81.106a.566.566,0,0,0-.288.075.579.579,0,0,0-.2.2.8.8,0,0,0-.1.276,1.724,1.724,0,0,0-.027.323,1.14,1.14,0,0,0,.123.574.547.547,0,0,0,.493.288H84.5v4.235a5.441,5.441,0,0,1-1.271.478,5.85,5.85,0,0,1-3.575-.211,4.565,4.565,0,0,1-1.633-1.129,5.325,5.325,0,0,1-1.08-1.832,7.384,7.384,0,0,1-.394-2.5,7.716,7.716,0,0,1,.347-2.348,5.5,5.5,0,0,1,1-1.861,4.664,4.664,0,0,1,1.592-1.224,4.991,4.991,0,0,1,2.157-.447,5.64,5.64,0,0,1,1.644.211,7.4,7.4,0,0,1,1.192.466,5.948,5.948,0,0,1,.778.461c.431.315.657.334.873.177a.575.575,0,0,0,.183-.23,1.107,1.107,0,0,0,.082-.269,1.745,1.745,0,0,0,.027-.314,1.389,1.389,0,0,0-.068-.481A1.037,1.037,0,0,0,86.1,49.8Z" transform="translate(-47.143 -48.383)" fill="#fff"/>
    <path id="Path_26" data-name="Path 26" d="M97.306,61.986a.62.62,0,0,0-.2-.188.54.54,0,0,0-.276-.075H91.117V56.516h4.806a.6.6,0,0,0,.272-.061.548.548,0,0,0,.211-.189A.763.763,0,0,0,96.512,56a1.464,1.464,0,0,0,.028-.3,1.756,1.756,0,0,0-.027-.322.835.835,0,0,0-.1-.277.586.586,0,0,0-.2-.2.553.553,0,0,0-.287-.074H91.117V50.3h5.614a.529.529,0,0,0,.276-.075.556.556,0,0,0,.2-.2.8.8,0,0,0,.1-.268,1.619,1.619,0,0,0,.027-.307,1.768,1.768,0,0,0-.027-.323.873.873,0,0,0-.1-.275.579.579,0,0,0-.206-.214.544.544,0,0,0-.276-.074H90.124a.966.966,0,0,0-.561.2.879.879,0,0,0-.32.765V62.5a.879.879,0,0,0,.32.765.965.965,0,0,0,.561.2h6.707a.547.547,0,0,0,.276-.074.621.621,0,0,0,.2-.2.819.819,0,0,0,.11-.279,1.623,1.623,0,0,0,.027-.308,1.642,1.642,0,0,0-.027-.32A.728.728,0,0,0,97.306,61.986Z" transform="translate(-45.566 -48.366)" fill="#fff"/>
    <path id="Path_27" data-name="Path 27" d="M110.714,48.639a.879.879,0,0,0-.295-.081,3.308,3.308,0,0,0-.7,0,.882.882,0,0,0-.289.082.518.518,0,0,0-.217.194.494.494,0,0,0-.071.257V59.4q0,.459,0,.9l-.113-.207q-.3-.556-.613-1.127t-.638-1.168q-.326-.6-.692-1.241l-3.863-6.874a5.56,5.56,0,0,0-.32-.521,1.584,1.584,0,0,0-.34-.358,1.187,1.187,0,0,0-.413-.193,2.126,2.126,0,0,0-.506-.052h-.554a.966.966,0,0,0-.561.2.879.879,0,0,0-.32.765V62.976a.493.493,0,0,0,.07.257.488.488,0,0,0,.233.2,1.258,1.258,0,0,0,.271.073,2.286,2.286,0,0,0,.363.026,2.174,2.174,0,0,0,.372-.027,1.164,1.164,0,0,0,.262-.072.483.483,0,0,0,.233-.2.494.494,0,0,0,.071-.257V52.007c0-.206,0-.41,0-.613l.235.429q.384.7.76,1.353l5.047,8.977a6.438,6.438,0,0,0,.4.625,2.194,2.194,0,0,0,.39.42,1.3,1.3,0,0,0,.442.241,1.62,1.62,0,0,0,.481.068h.277a1.055,1.055,0,0,0,.288-.043.8.8,0,0,0,.312-.173.905.905,0,0,0,.219-.3,1.058,1.058,0,0,0,.084-.442V49.091a.484.484,0,0,0-.086-.275A.589.589,0,0,0,110.714,48.639Z" transform="translate(-44.389 -48.368)" fill="#fff"/>
    <path id="Path_28" data-name="Path 28" d="M115.8,48.6a1.231,1.231,0,0,0-.264-.073,2.531,2.531,0,0,0-.721,0,1.409,1.409,0,0,0-.262.071.526.526,0,0,0-.238.181.477.477,0,0,0-.087.275V62.98a.494.494,0,0,0,.071.257.483.483,0,0,0,.233.2,1.248,1.248,0,0,0,.27.073,2.3,2.3,0,0,0,.364.026,2.16,2.16,0,0,0,.371-.027,1.174,1.174,0,0,0,.264-.072.479.479,0,0,0,.3-.454V49.051a.493.493,0,0,0-.07-.257A.486.486,0,0,0,115.8,48.6Z" transform="translate(-42.883 -48.373)" fill="#fff"/>
    <path id="Path_29" data-name="Path 29" d="M130.1,60.666a.458.458,0,0,0-.178-.228c-.2-.126-.482-.083-.877.213a8.3,8.3,0,0,1-.755.488,6.066,6.066,0,0,1-1.1.485,4.665,4.665,0,0,1-1.482.213,4.387,4.387,0,0,1-1.849-.375,3.611,3.611,0,0,1-1.352-1.083,5.15,5.15,0,0,1-.852-1.781,10.352,10.352,0,0,1,.027-5.054,5.656,5.656,0,0,1,.9-1.857,3.743,3.743,0,0,1,1.349-1.117,3.964,3.964,0,0,1,1.735-.379,4.694,4.694,0,0,1,1.5.213,5.6,5.6,0,0,1,1.073.482,6.817,6.817,0,0,1,.713.485c.4.324.688.352.9.184a.62.62,0,0,0,.167-.222.987.987,0,0,0,.077-.275,2.269,2.269,0,0,0,.019-.309,2.421,2.421,0,0,0-.012-.266,1.538,1.538,0,0,0-.041-.23.861.861,0,0,0-.088-.215,1.5,1.5,0,0,0-.229-.269,3.359,3.359,0,0,0-.6-.434,5.646,5.646,0,0,0-.958-.455,7.7,7.7,0,0,0-1.151-.322,6.487,6.487,0,0,0-1.3-.128,6.168,6.168,0,0,0-2.595.54,5.665,5.665,0,0,0-2.018,1.56,7.256,7.256,0,0,0-1.293,2.454,10.683,10.683,0,0,0-.455,3.229,10.555,10.555,0,0,0,.427,3.123,6.628,6.628,0,0,0,1.234,2.334A5.27,5.27,0,0,0,123,63.124a6.389,6.389,0,0,0,2.549.493,6.98,6.98,0,0,0,1.6-.173,7.819,7.819,0,0,0,1.277-.415,5.929,5.929,0,0,0,.934-.5,3.5,3.5,0,0,0,.5-.376,1.215,1.215,0,0,0,.185-.226.926.926,0,0,0,.086-.2,1.275,1.275,0,0,0,.042-.222,2.461,2.461,0,0,0,.012-.252,2.577,2.577,0,0,0-.019-.335A1.161,1.161,0,0,0,130.1,60.666Z" transform="translate(-42.331 -48.38)" fill="#fff"/>
    <path id="Path_30" data-name="Path 30" d="M137.932,48.98a.684.684,0,0,0-.155-.244.652.652,0,0,0-.271-.159,1.64,1.64,0,0,0-.3-.061,3.971,3.971,0,0,0-.744,0,1.622,1.622,0,0,0-.3.061.73.73,0,0,0-.27.151.635.635,0,0,0-.168.254L130.7,62.649a.9.9,0,0,0-.08.379.459.459,0,0,0,.181.349.728.728,0,0,0,.349.131,3.34,3.34,0,0,0,.815,0,1,1,0,0,0,.291-.085.6.6,0,0,0,.319-.377l1.256-3.633h5.914l1.317,3.673a.92.92,0,0,0,.1.179.514.514,0,0,0,.228.182,1.035,1.035,0,0,0,.288.069,3.452,3.452,0,0,0,.4.019,4.088,4.088,0,0,0,.411-.018.683.683,0,0,0,.352-.126.462.462,0,0,0,.179-.355.93.93,0,0,0-.077-.38Zm1.218,8.771h-4.735l2.339-6.7Z" transform="translate(-41.123 -48.373)" fill="#fff"/>
    <path id="Path_31" data-name="Path 31" d="M159.455,48.847a.574.574,0,0,0-.207-.214.544.544,0,0,0-.276-.074h-9.894a.525.525,0,0,0-.291.081.584.584,0,0,0-.191.207.878.878,0,0,0-.1.274,1.73,1.73,0,0,0-.027.324,1.587,1.587,0,0,0,.027.307.793.793,0,0,0,.1.266.558.558,0,0,0,.187.2.521.521,0,0,0,.291.082h4.01V62.974a.494.494,0,0,0,.071.257.485.485,0,0,0,.231.2,1.227,1.227,0,0,0,.271.073,2.616,2.616,0,0,0,.729,0,1.3,1.3,0,0,0,.271-.073.48.48,0,0,0,.3-.454V50.3h4.01a.526.526,0,0,0,.276-.075.564.564,0,0,0,.2-.2.81.81,0,0,0,.1-.267,1.531,1.531,0,0,0,.028-.307,1.691,1.691,0,0,0-.028-.324A.919.919,0,0,0,159.455,48.847Z" transform="translate(-39.206 -48.366)" fill="#fff"/>
    <path id="Path_32" data-name="Path 32" d="M171.12,48.6a1.265,1.265,0,0,0-.27-.073,2.641,2.641,0,0,0-.736,0,1.2,1.2,0,0,0-.262.073.481.481,0,0,0-.233.2.493.493,0,0,0-.07.257v5.757h-6.625V49.051a.484.484,0,0,0-.071-.257.49.49,0,0,0-.231-.2,1.251,1.251,0,0,0-.264-.073,2.633,2.633,0,0,0-.735,0,1.2,1.2,0,0,0-.27.073.476.476,0,0,0-.233.2.484.484,0,0,0-.071.257V62.98a.479.479,0,0,0,.3.454,1.225,1.225,0,0,0,.271.073,2.633,2.633,0,0,0,.735,0,1.252,1.252,0,0,0,.264-.073.484.484,0,0,0,.3-.454V56.546h6.625V62.98a.493.493,0,0,0,.07.257.485.485,0,0,0,.231.2,1.232,1.232,0,0,0,.264.073,2.67,2.67,0,0,0,.736,0,1.3,1.3,0,0,0,.271-.073.484.484,0,0,0,.3-.454V49.051a.494.494,0,0,0-.071-.257A.488.488,0,0,0,171.12,48.6Z" transform="translate(-37.856 -48.373)" fill="#fff"/>
    <path id="Path_33" data-name="Path 33" d="M182.747,61.986a.619.619,0,0,0-.2-.188.537.537,0,0,0-.276-.075h-5.714V56.516h4.806a.6.6,0,0,0,.272-.061.547.547,0,0,0,.213-.191.745.745,0,0,0,.1-.263,1.464,1.464,0,0,0,.028-.3,1.677,1.677,0,0,0-.028-.323.837.837,0,0,0-.1-.276.586.586,0,0,0-.2-.2.553.553,0,0,0-.287-.074h-4.806V50.3h5.614a.529.529,0,0,0,.276-.075.562.562,0,0,0,.2-.2.835.835,0,0,0,.1-.267,1.617,1.617,0,0,0,.027-.307,1.787,1.787,0,0,0-.027-.324.915.915,0,0,0-.1-.274.579.579,0,0,0-.206-.214.544.544,0,0,0-.276-.074h-6.608a.96.96,0,0,0-.561.2.879.879,0,0,0-.32.765V62.5a.879.879,0,0,0,.32.765.96.96,0,0,0,.561.2h6.707a.544.544,0,0,0,.276-.074.621.621,0,0,0,.2-.2.8.8,0,0,0,.11-.279,1.619,1.619,0,0,0,.027-.308,1.659,1.659,0,0,0-.027-.322A.739.739,0,0,0,182.747,61.986Zm-1.117-5.865Z" transform="translate(-36.392 -48.366)" fill="#fff"/>
    <path id="Path_34" data-name="Path 34" d="M194.9,62.11l-1.339-3.354c-.15-.376-.3-.72-.451-1.025a5.823,5.823,0,0,0-.494-.832,3.53,3.53,0,0,0-.587-.638c-.07-.058-.143-.113-.219-.165a5.762,5.762,0,0,0,.648-.339,3.925,3.925,0,0,0,.937-.793,3.394,3.394,0,0,0,.612-1.071,4.079,4.079,0,0,0,.214-1.361,4.409,4.409,0,0,0-.206-1.365,3.444,3.444,0,0,0-.641-1.154,3.628,3.628,0,0,0-1.085-.857,5.125,5.125,0,0,0-1.51-.493q-.3-.047-.656-.074c-.241-.019-.544-.029-.9-.029h-2.69a.966.966,0,0,0-.561.2.879.879,0,0,0-.32.765V62.974a.479.479,0,0,0,.3.454,1.262,1.262,0,0,0,.271.073,2.634,2.634,0,0,0,.735,0,1.222,1.222,0,0,0,.262-.073.483.483,0,0,0,.233-.2.494.494,0,0,0,.071-.257V56.762h1.22a3.053,3.053,0,0,1,1.173.2,2.493,2.493,0,0,1,.821.547,3.392,3.392,0,0,1,.6.841c.173.339.337.705.487,1.086l1.334,3.476a1.2,1.2,0,0,0,.13.279.708.708,0,0,0,.234.217.877.877,0,0,0,.311.1,2.759,2.759,0,0,0,.349.019,2.411,2.411,0,0,0,.39-.025,1.011,1.011,0,0,0,.292-.085.485.485,0,0,0,.224-.215.553.553,0,0,0,.054-.248,1.1,1.1,0,0,0-.048-.279C195.063,62.572,195,62.386,194.9,62.11Zm-2.829-8.494a1.885,1.885,0,0,1-.506.732,2.593,2.593,0,0,1-.9.508,4.172,4.172,0,0,1-1.342.191h-1.8V50.3h1.508a9.536,9.536,0,0,1,.958.038,3.961,3.961,0,0,1,.652.119,2.064,2.064,0,0,1,1.224.805,2.586,2.586,0,0,1,.368,1.419A2.615,2.615,0,0,1,192.068,53.616Z" transform="translate(-35.214 -48.366)" fill="#fff"/>
    <path id="Path_35" data-name="Path 35" d="M203.329,48.98a.684.684,0,0,0-.155-.245.67.67,0,0,0-.271-.157,1.623,1.623,0,0,0-.3-.061,3.96,3.96,0,0,0-.743,0,1.618,1.618,0,0,0-.306.061.717.717,0,0,0-.269.151.648.648,0,0,0-.169.254L196.1,62.649a.893.893,0,0,0-.079.378.462.462,0,0,0,.179.35.723.723,0,0,0,.349.131,3.35,3.35,0,0,0,.816,0,1.013,1.013,0,0,0,.291-.085.631.631,0,0,0,.209-.165.621.621,0,0,0,.109-.212l1.256-3.633h5.916l1.316,3.673a1,1,0,0,0,.1.177.521.521,0,0,0,.229.183,1.044,1.044,0,0,0,.288.069,3.467,3.467,0,0,0,.4.019c.167,0,.3-.007.412-.018a.683.683,0,0,0,.352-.126.459.459,0,0,0,.178-.355.889.889,0,0,0-.077-.38Zm1.219,8.771h-4.735l2.339-6.7Z" transform="translate(-34.101 -48.373)" fill="#fff"/>
    <path id="Path_36" data-name="Path 36" d="M217.883,50.2a3.93,3.93,0,0,0-1.038-.916,4.078,4.078,0,0,0-1.2-.51,7.953,7.953,0,0,0-.991-.172c-.279-.027-.57-.04-.866-.04h-2.911a.965.965,0,0,0-.561.2.879.879,0,0,0-.32.765V62.974a.479.479,0,0,0,.3.454,1.26,1.26,0,0,0,.271.073,2.663,2.663,0,0,0,.735,0,1.222,1.222,0,0,0,.262-.073.483.483,0,0,0,.233-.2.494.494,0,0,0,.071-.257V57.738h1.6a6.665,6.665,0,0,0,2.281-.349,4.668,4.668,0,0,0,1.629-.989,4.32,4.32,0,0,0,1.031-1.525,5.116,5.116,0,0,0,.357-1.932,4.784,4.784,0,0,0-.229-1.511A4.076,4.076,0,0,0,217.883,50.2Zm-4.323,5.816h-1.685V50.3h1.774a7.279,7.279,0,0,1,1.042.08,2.664,2.664,0,0,1,1,.366,2.305,2.305,0,0,1,.8.869,2.94,2.94,0,0,1,.331,1.454,3.37,3.37,0,0,1-.208,1.2,2.56,2.56,0,0,1-.6.923,2.777,2.777,0,0,1-.971.6A4.23,4.23,0,0,1,213.56,56.013Z" transform="translate(-32.6 -48.366)" fill="#fff"/>
    <path id="Path_37" data-name="Path 37" d="M229.42,61.984a.626.626,0,0,0-.2-.187.537.537,0,0,0-.276-.075h-5.714V56.516h4.806a.593.593,0,0,0,.272-.061.543.543,0,0,0,.213-.189.761.761,0,0,0,.1-.265,1.466,1.466,0,0,0,.028-.3,1.753,1.753,0,0,0-.027-.322.809.809,0,0,0-.1-.277.582.582,0,0,0-.2-.2.56.56,0,0,0-.288-.074h-4.806V50.3h5.614a.529.529,0,0,0,.276-.075.567.567,0,0,0,.2-.2.827.827,0,0,0,.1-.268,1.529,1.529,0,0,0,.028-.307,1.768,1.768,0,0,0-.027-.323.9.9,0,0,0-.1-.275.583.583,0,0,0-.207-.214.544.544,0,0,0-.276-.074h-6.608a.965.965,0,0,0-.561.2.879.879,0,0,0-.32.765V62.5a.879.879,0,0,0,.32.765.965.965,0,0,0,.561.2h6.707a.544.544,0,0,0,.276-.074.607.607,0,0,0,.2-.2.8.8,0,0,0,.109-.278,1.623,1.623,0,0,0,.028-.308,1.738,1.738,0,0,0-.027-.32A.769.769,0,0,0,229.42,61.984Z" transform="translate(-31.38 -48.366)" fill="#fff"/>
    <path id="Path_38" data-name="Path 38" d="M242.807,48.6a1.265,1.265,0,0,0-.27-.073,2.588,2.588,0,0,0-.729,0,1.267,1.267,0,0,0-.27.073.481.481,0,0,0-.233.2.494.494,0,0,0-.071.257v8.876a5.791,5.791,0,0,1-.246,1.778,3.366,3.366,0,0,1-.692,1.232,2.755,2.755,0,0,1-1.088.725,4.338,4.338,0,0,1-1.508.244,4.141,4.141,0,0,1-1.494-.254,2.876,2.876,0,0,1-1.1-.743,3.362,3.362,0,0,1-.7-1.252,5.972,5.972,0,0,1-.247-1.809v-8.8a.493.493,0,0,0-.07-.257.487.487,0,0,0-.233-.2,1.259,1.259,0,0,0-.271-.073,2.559,2.559,0,0,0-.731,0,1.327,1.327,0,0,0-.257.07.48.48,0,0,0-.242.2.493.493,0,0,0-.071.257v9.02a6.823,6.823,0,0,0,.388,2.385,4.892,4.892,0,0,0,1.1,1.761,4.654,4.654,0,0,0,1.689,1.077,6.026,6.026,0,0,0,2.111.36,6.52,6.52,0,0,0,2.271-.377,4.734,4.734,0,0,0,1.756-1.123,5,5,0,0,0,1.116-1.816,7.1,7.1,0,0,0,.386-2.422V49.051a.492.492,0,0,0-.07-.257A.481.481,0,0,0,242.807,48.6Z" transform="translate(-30.206 -48.373)" fill="#fff"/>
    <path id="Path_39" data-name="Path 39" d="M255.56,48.847a.574.574,0,0,0-.207-.214.544.544,0,0,0-.276-.074h-9.894a.534.534,0,0,0-.29.08.592.592,0,0,0-.192.208.877.877,0,0,0-.1.275,1.769,1.769,0,0,0-.027.323,1.621,1.621,0,0,0,.027.307.825.825,0,0,0,.1.268.6.6,0,0,0,.186.194.525.525,0,0,0,.292.082h4.01V62.974a.5.5,0,0,0,.07.257.492.492,0,0,0,.234.2,1.232,1.232,0,0,0,.27.073,2.608,2.608,0,0,0,.727,0,1.261,1.261,0,0,0,.271-.073.479.479,0,0,0,.3-.454V50.3h4.01a.529.529,0,0,0,.276-.075.568.568,0,0,0,.2-.2.8.8,0,0,0,.1-.268,1.528,1.528,0,0,0,.028-.307,1.772,1.772,0,0,0-.027-.323A.9.9,0,0,0,255.56,48.847Z" transform="translate(-28.887 -48.366)" fill="#fff"/>
    <path id="Path_40" data-name="Path 40" d="M258.724,48.6a1.233,1.233,0,0,0-.264-.073,2.524,2.524,0,0,0-.72,0,1.362,1.362,0,0,0-.264.071.521.521,0,0,0-.238.181.477.477,0,0,0-.088.275V62.98a.494.494,0,0,0,.071.257.483.483,0,0,0,.233.2,1.264,1.264,0,0,0,.27.073,2.662,2.662,0,0,0,.735,0,1.234,1.234,0,0,0,.264-.073.484.484,0,0,0,.233-.2.494.494,0,0,0,.071-.257V49.051a.494.494,0,0,0-.071-.257A.481.481,0,0,0,258.724,48.6Z" transform="translate(-27.536 -48.373)" fill="#fff"/>
    <path id="Path_41" data-name="Path 41" d="M273.019,60.665a.454.454,0,0,0-.177-.227c-.2-.126-.482-.083-.877.213a8.013,8.013,0,0,1-.755.488,6.111,6.111,0,0,1-1.1.485,4.665,4.665,0,0,1-1.482.213,4.387,4.387,0,0,1-1.849-.375,3.619,3.619,0,0,1-1.352-1.083,5.17,5.17,0,0,1-.852-1.781,10.35,10.35,0,0,1,.027-5.054,5.641,5.641,0,0,1,.9-1.857,3.735,3.735,0,0,1,1.349-1.117,3.964,3.964,0,0,1,1.735-.379,4.688,4.688,0,0,1,1.5.213,5.593,5.593,0,0,1,1.073.482,6.7,6.7,0,0,1,.713.485c.4.324.689.352.9.184a.617.617,0,0,0,.167-.222.989.989,0,0,0,.077-.276,2.24,2.24,0,0,0,.019-.308,2.4,2.4,0,0,0-.012-.266,1.4,1.4,0,0,0-.041-.23.885.885,0,0,0-.087-.215,1.457,1.457,0,0,0-.229-.269,3.386,3.386,0,0,0-.6-.434,5.674,5.674,0,0,0-.957-.455,7.809,7.809,0,0,0-1.152-.322,6.487,6.487,0,0,0-1.3-.128,6.172,6.172,0,0,0-2.595.54,5.678,5.678,0,0,0-2.019,1.56,7.3,7.3,0,0,0-1.292,2.454,10.718,10.718,0,0,0-.455,3.229,10.539,10.539,0,0,0,.427,3.123,6.647,6.647,0,0,0,1.234,2.334,5.269,5.269,0,0,0,1.962,1.455,6.39,6.39,0,0,0,2.549.493,6.98,6.98,0,0,0,1.6-.173,7.855,7.855,0,0,0,1.277-.415,5.831,5.831,0,0,0,.934-.5,3.428,3.428,0,0,0,.5-.376,1.188,1.188,0,0,0,.186-.227.925.925,0,0,0,.085-.2,1.274,1.274,0,0,0,.042-.222,2.819,2.819,0,0,0-.007-.588A1.168,1.168,0,0,0,273.019,60.665Z" transform="translate(-26.984 -48.38)" fill="#fff"/>
    <path id="Path_42" data-name="Path 42" d="M282.61,57.754a3.9,3.9,0,0,0-.819-1.154,5.459,5.459,0,0,0-1.133-.841c-.405-.227-.824-.444-1.245-.642s-.825-.391-1.226-.587a5.913,5.913,0,0,1-1.033-.633,2.8,2.8,0,0,1-.7-.771,1.928,1.928,0,0,1-.25-1.008,2.116,2.116,0,0,1,.142-.771,1.737,1.737,0,0,1,.417-.622,2.073,2.073,0,0,1,.718-.427,3.107,3.107,0,0,1,1.051-.161,3.784,3.784,0,0,1,1.106.149,4.982,4.982,0,0,1,.852.343c.242.129.445.246.606.349.392.253.625.253.8.093a.591.591,0,0,0,.154-.227,1.177,1.177,0,0,0,.065-.259,2.051,2.051,0,0,0,.02-.3,2.633,2.633,0,0,0-.013-.289,1.262,1.262,0,0,0-.042-.227.861.861,0,0,0-.073-.186,1.1,1.1,0,0,0-.176-.212,2.178,2.178,0,0,0-.5-.324,5.292,5.292,0,0,0-.781-.328,7.1,7.1,0,0,0-.914-.236,5.524,5.524,0,0,0-2.713.164,4.039,4.039,0,0,0-1.39.754,3.443,3.443,0,0,0-.91,1.214,3.873,3.873,0,0,0-.322,1.6,3.752,3.752,0,0,0,.312,1.588,3.888,3.888,0,0,0,.812,1.16,5.612,5.612,0,0,0,1.121.846c.407.234.825.452,1.242.649s.823.391,1.219.587a6.124,6.124,0,0,1,1.023.628,2.763,2.763,0,0,1,.693.766,1.924,1.924,0,0,1,.25,1.008,2.537,2.537,0,0,1-.2,1.041,2.1,2.1,0,0,1-.566.756,2.629,2.629,0,0,1-.886.479,3.748,3.748,0,0,1-1.158.17,4.681,4.681,0,0,1-1.378-.182,6.68,6.68,0,0,1-1.033-.406,6.419,6.419,0,0,1-.7-.4c-.36-.248-.6-.289-.82-.191a.48.48,0,0,0-.227.228.962.962,0,0,0-.084.271,2.051,2.051,0,0,0-.026.358,1.66,1.66,0,0,0,.068.508,1.024,1.024,0,0,0,.238.4,2.226,2.226,0,0,0,.509.359,6.1,6.1,0,0,0,.838.378,7.976,7.976,0,0,0,1.123.316,6.591,6.591,0,0,0,1.349.133,6.253,6.253,0,0,0,1.94-.291,4.566,4.566,0,0,0,1.56-.855,3.891,3.891,0,0,0,1.032-1.375,4.365,4.365,0,0,0,.367-1.819A3.715,3.715,0,0,0,282.61,57.754Z" transform="translate(-25.738 -48.385)" fill="#fff"/>
  </g>
  <ellipse id="Ellipse_11" data-name="Ellipse 11" cx="2.88" cy="2.89" rx="2.88" ry="2.89" transform="translate(56.9 26.2)" fill="#007771"/>
  <ellipse id="Ellipse_12" data-name="Ellipse 12" cx="4.225" cy="4.241" rx="4.225" ry="4.241" transform="translate(55.555 13.27)" fill="#3e9f9f"/>
  <ellipse id="Ellipse_13" data-name="Ellipse 13" cx="5.201" cy="5.221" rx="5.201" ry="5.221" transform="translate(54.579)" fill="#a4c5c2"/>
  <ellipse id="Ellipse_14" data-name="Ellipse 14" cx="2.88" cy="2.89" rx="2.88" ry="2.89" transform="translate(56.9 88.019)" fill="#007771"/>
  <ellipse id="Ellipse_15" data-name="Ellipse 15" cx="4.225" cy="4.241" rx="4.225" ry="4.241" transform="translate(55.555 98.248)" fill="#3e9f9f"/>
  <ellipse id="Ellipse_16" data-name="Ellipse 16" cx="5.201" cy="5.221" rx="5.201" ry="5.221" transform="translate(54.579 109.559)" fill="#a4c5c2"/>
  <ellipse id="Ellipse_17" data-name="Ellipse 17" cx="2.88" cy="2.89" rx="2.88" ry="2.89" transform="translate(41.502 30.341)" fill="#007771"/>
  <ellipse id="Ellipse_18" data-name="Ellipse 18" cx="4.225" cy="4.241" rx="4.225" ry="4.241" transform="translate(34.388 18.962)" fill="#3e9f9f"/>
  <ellipse id="Ellipse_19" data-name="Ellipse 19" cx="5.201" cy="5.221" rx="5.201" ry="5.221" transform="translate(27.289 7.339)" fill="#a4c5c2"/>
  <ellipse id="Ellipse_20" data-name="Ellipse 20" cx="2.88" cy="2.89" rx="2.88" ry="2.89" transform="translate(72.298 83.878)" fill="#007771"/>
  <ellipse id="Ellipse_21" data-name="Ellipse 21" cx="4.225" cy="4.241" rx="4.225" ry="4.241" transform="translate(76.721 92.556)" fill="#3e9f9f"/>
  <ellipse id="Ellipse_22" data-name="Ellipse 22" cx="5.201" cy="5.221" rx="5.201" ry="5.221" transform="translate(81.868 102.22)" fill="#a4c5c2"/>
  <ellipse id="Ellipse_23" data-name="Ellipse 23" cx="2.88" cy="2.89" rx="2.88" ry="2.89" transform="translate(30.23 41.655)" fill="#007771"/>
  <ellipse id="Ellipse_24" data-name="Ellipse 24" cx="4.225" cy="4.241" rx="4.225" ry="4.241" transform="translate(18.893 34.514)" fill="#3e9f9f"/>
  <ellipse id="Ellipse_25" data-name="Ellipse 25" cx="5.201" cy="5.221" rx="5.201" ry="5.221" transform="translate(7.312 27.39)" fill="#a4c5c2"/>
  <ellipse id="Ellipse_26" data-name="Ellipse 26" cx="2.88" cy="2.89" rx="2.88" ry="2.89" transform="translate(83.57 72.564)" fill="#007771"/>
  <ellipse id="Ellipse_27" data-name="Ellipse 27" cx="4.225" cy="4.241" rx="4.225" ry="4.241" transform="translate(92.217 77.004)" fill="#3e9f9f"/>
  <ellipse id="Ellipse_28" data-name="Ellipse 28" cx="5.201" cy="5.221" rx="5.201" ry="5.221" transform="translate(101.845 82.169)" fill="#a4c5c2"/>
  <ellipse id="Ellipse_29" data-name="Ellipse 29" cx="2.88" cy="2.89" rx="2.88" ry="2.89" transform="translate(26.104 57.11)" fill="#f03600"/>
  <ellipse id="Ellipse_30" data-name="Ellipse 30" cx="4.225" cy="4.241" rx="4.225" ry="4.241" transform="translate(13.221 55.759)" fill="#3e9f9f"/>
  <ellipse id="Ellipse_31" data-name="Ellipse 31" cx="5.201" cy="5.221" rx="5.201" ry="5.221" transform="translate(0 54.779)" fill="#a4c5c2"/>
  <ellipse id="Ellipse_32" data-name="Ellipse 32" cx="2.88" cy="2.89" rx="2.88" ry="2.89" transform="translate(30.23 72.564)" fill="#007771"/>
  <ellipse id="Ellipse_33" data-name="Ellipse 33" cx="4.225" cy="4.241" rx="4.225" ry="4.241" transform="translate(18.893 77.004)" fill="#3e9f9f"/>
  <ellipse id="Ellipse_34" data-name="Ellipse 34" cx="5.201" cy="5.221" rx="5.201" ry="5.221" transform="translate(7.312 82.169)" fill="#a4c5c2"/>
  <ellipse id="Ellipse_35" data-name="Ellipse 35" cx="2.88" cy="2.89" rx="2.88" ry="2.89" transform="translate(83.57 41.655)" fill="#007771"/>
  <ellipse id="Ellipse_36" data-name="Ellipse 36" cx="4.225" cy="4.241" rx="4.225" ry="4.241" transform="translate(92.217 34.514)" fill="#3e9f9f"/>
  <ellipse id="Ellipse_37" data-name="Ellipse 37" cx="5.201" cy="5.221" rx="5.201" ry="5.221" transform="translate(101.845 27.39)" fill="#a4c5c2"/>
  <ellipse id="Ellipse_38" data-name="Ellipse 38" cx="2.88" cy="2.89" rx="2.88" ry="2.89" transform="translate(41.502 83.878)" fill="#007771"/>
  <ellipse id="Ellipse_39" data-name="Ellipse 39" cx="4.225" cy="4.241" rx="4.225" ry="4.241" transform="translate(34.388 92.556)" fill="#3e9f9f"/>
  <ellipse id="Ellipse_40" data-name="Ellipse 40" cx="5.201" cy="5.221" rx="5.201" ry="5.221" transform="translate(27.289 102.22)" fill="#a4c5c2"/>
  <ellipse id="Ellipse_41" data-name="Ellipse 41" cx="2.88" cy="2.89" rx="2.88" ry="2.89" transform="translate(72.298 30.341)" fill="#007771"/>
  <ellipse id="Ellipse_42" data-name="Ellipse 42" cx="4.225" cy="4.241" rx="4.225" ry="4.241" transform="translate(76.721 18.962)" fill="#3e9f9f"/>
  <ellipse id="Ellipse_43" data-name="Ellipse 43" cx="5.201" cy="5.221" rx="5.201" ry="5.221" transform="translate(81.868 7.339)" fill="#a4c5c2"/>
</svg>
