<svg xmlns="http://www.w3.org/2000/svg" width="96.998" height="74.739" viewBox="0 0 96.998 74.739">
  <g id="Group_205" data-name="Group 205" transform="translate(-1321.139 -2984.797)">
    <path id="Path_601" data-name="Path 601" d="M356.645,85.037h-2.667a23.75,23.75,0,0,0-1.775-4.261l1.894-1.893a5.639,5.639,0,0,0,0-7.971l-2.026-2.026a5.639,5.639,0,0,0-3.988-1.651h0a5.646,5.646,0,0,0-3.988,1.651L342.2,70.778A24.362,24.362,0,0,0,337.943,69V66.338a5.636,5.636,0,0,0-5.637-5.637h-2.864a5.635,5.635,0,0,0-5.637,5.637V69a23.672,23.672,0,0,0-4.26,1.775l-1.891-1.892a5.639,5.639,0,0,0-7.974,0l-2.023,2.025a5.635,5.635,0,0,0,0,7.971l1.891,1.892a24.387,24.387,0,0,0-1.775,4.262h-2.662a5.635,5.635,0,0,0-5.637,5.637v2.862a5.637,5.637,0,0,0,5.637,5.637h2.664a23.95,23.95,0,0,0,1.775,4.26l-1.892,1.894a5.639,5.639,0,0,0,0,7.971l2.026,2.026a5.65,5.65,0,0,0,3.986,1.648h0a5.65,5.65,0,0,0,3.986-1.648l1.894-1.894a24.074,24.074,0,0,0,4.259,1.775v2.667a5.637,5.637,0,0,0,5.637,5.637h2.864a5.638,5.638,0,0,0,5.637-5.637V115.2a23.839,23.839,0,0,0,4.258-1.775l1.9,1.894a5.65,5.65,0,0,0,7.976,0L354.1,113.3a5.639,5.639,0,0,0,0-7.971l-1.894-1.891a24.305,24.305,0,0,0,1.775-4.262h2.667a5.637,5.637,0,0,0,5.637-5.637V90.674A5.641,5.641,0,0,0,356.645,85.037Zm-25.766,19.952A12.885,12.885,0,1,1,343.764,92.1,12.9,12.9,0,0,1,330.879,104.989Z" transform="translate(1055.853 2924.096)" fill="#65b9a5"/>
    <path id="Path_602" data-name="Path 602" d="M336.367,76.405h-1.721a15.329,15.329,0,0,0-1.145-2.75l1.222-1.221a3.639,3.639,0,0,0,0-5.144l-1.307-1.307a3.639,3.639,0,0,0-2.573-1.065h0a3.643,3.643,0,0,0-2.573,1.065L327.046,67.2a15.724,15.724,0,0,0-2.748-1.145v-1.72a3.637,3.637,0,0,0-3.638-3.638h-1.848a3.636,3.636,0,0,0-3.638,3.638v1.72a15.276,15.276,0,0,0-2.749,1.145l-1.22-1.221a3.639,3.639,0,0,0-5.146,0l-1.305,1.306a3.636,3.636,0,0,0,0,5.144l1.22,1.221a15.734,15.734,0,0,0-1.145,2.75h-1.718a3.636,3.636,0,0,0-3.638,3.638v1.847a3.638,3.638,0,0,0,3.638,3.638h1.719a15.453,15.453,0,0,0,1.145,2.749L304.755,89.5a3.639,3.639,0,0,0,0,5.144l1.307,1.307a3.646,3.646,0,0,0,2.572,1.063h0a3.646,3.646,0,0,0,2.572-1.063l1.222-1.222a15.536,15.536,0,0,0,2.748,1.145v1.721a3.638,3.638,0,0,0,3.638,3.638h1.848a3.638,3.638,0,0,0,3.638-3.638V95.872a15.386,15.386,0,0,0,2.748-1.145l1.223,1.222a3.646,3.646,0,0,0,5.147,0l1.305-1.307a3.639,3.639,0,0,0,0-5.144l-1.222-1.22a15.686,15.686,0,0,0,1.145-2.75h1.721a3.638,3.638,0,0,0,3.638-3.638V80.043A3.64,3.64,0,0,0,336.367,76.405ZM319.74,89.281a8.315,8.315,0,1,1,8.315-8.315A8.324,8.324,0,0,1,319.74,89.281Z" transform="translate(1021.665 2958.305)" fill="#65b9a5"/>
  </g>
</svg>
