<svg xmlns="http://www.w3.org/2000/svg" width="79.647" height="71.906" viewBox="0 0 79.647 71.906">
  <g id="Group_207" data-name="Group 207" transform="translate(-787.879 -3000.757)">
    <path id="Path_604" data-name="Path 604" d="M212.088,49.741l-1.42,1.682c.821.707,1.4,1.253,1.8,1.669a77.988,77.988,0,0,1-13.516-7.216c-6.644-4.215-11.055-7.789-12.6-9.5L187,34.519c-5.233-2.085-8.732-2.592-10.4-1.519a2.235,2.235,0,0,0-.717.664,1.682,1.682,0,0,0-.357.779C174.409,38.6,184.577,47.28,194.5,53.583c8.13,5.148,17.771,9.779,22.782,9.779a3.953,3.953,0,0,0,2.576-.72,2.212,2.212,0,0,0,.527-.579,2.345,2.345,0,0,0,.34-1.031C221.111,57.975,216.241,53.207,212.088,49.741Z" transform="translate(618.577 2995.172)" fill="#f7d398" style="mix-blend-mode: multiply;isolation: isolate"/>
    <path id="Path_605" data-name="Path 605" d="M231.877,41.1a25.36,25.36,0,0,0-4.052-5.747l-.383-.285a32.839,32.839,0,0,0-28.64.036,31.451,31.451,0,0,0-17.11,22.6l.026.275a25.249,25.249,0,0,0,2.337,6.66,27.215,27.215,0,0,0,35.958,11.579,27.439,27.439,0,0,0,7.239-5.2A25.687,25.687,0,0,0,231.877,41.1ZM214.822,71.513a4.248,4.248,0,1,1,4.248-4.248A4.251,4.251,0,0,1,214.822,71.513Zm12.44-.713a25.933,25.933,0,0,1-4.608,3.809l-.782.511-.743-.566a4.2,4.2,0,0,1-1.666-3.364,4.234,4.234,0,0,1,8.028-1.9l.422.838Zm-3.541-5.515a4.248,4.248,0,1,1,4.248-4.248A4.251,4.251,0,0,1,223.721,65.285Z" transform="translate(632.779 2993.675)" fill="#65b9a5"/>
    <path id="Path_606" data-name="Path 606" d="M177.784,25.907a64.167,64.167,0,0,0,5.282,16.406A63.052,63.052,0,0,0,192.855,56.8a63.368,63.368,0,0,0-5.387-16.635A63.976,63.976,0,0,0,177.784,25.907Z" transform="translate(623.897 2980.293)" fill="#65b9a5"/>
    <path id="Path_607" data-name="Path 607" d="M175.617,29.675a46.647,46.647,0,0,0,6.843,9.236,46.837,46.837,0,0,0,9.118,7.315,46.944,46.944,0,0,0-6.984-9.376h0A46.989,46.989,0,0,0,175.617,29.675Z" transform="translate(618.972 2988.856)" fill="#65b9a5"/>
    <path id="Path_608" data-name="Path 608" d="M185.406,64.973a72.51,72.51,0,0,0,2.995-20.5,73.618,73.618,0,0,0-2.995-20.229,73.678,73.678,0,0,0-3,20.229A72.648,72.648,0,0,0,185.406,64.973Z" transform="translate(634.407 2976.513)" fill="#65b9a5"/>
    <path id="Path_609" data-name="Path 609" d="M218.7,60.714a1.055,1.055,0,0,1-.278.3c-2.337,1.967-12.8-1.964-24.088-9.128s-19.293-14.966-18.5-17.915a1.07,1.07,0,0,1,.154-.383,1.4,1.4,0,0,1,.439-.416c1.384-.88,4.854-.219,9.419,1.617a.31.31,0,0,1,.115.026,83.951,83.951,0,0,1,9.969,4.922c.841.488,1.712,1,2.579,1.548.622.353,1.227.736,1.846,1.129,1.888,1.2,3.692,2.432,5.371,3.649,1.928,1.378,3.593,2.651,4.906,3.767,5.3,4.408,8.519,8.3,8.264,10.306A1.307,1.307,0,0,1,218.7,60.714Z" transform="translate(619.328 2995.931)" fill="#f7d398"/>
    <g id="Group_206" data-name="Group 206" transform="translate(818.677 3036.937)">
      <path id="Path_610" data-name="Path 610" d="M184.461,36.488c-.416-.262-.834-.55-1.276-.812a1.877,1.877,0,0,1,.311.177C183.823,36.049,184.131,36.268,184.461,36.488Z" transform="translate(-182.504 -34.442)" fill="#f7d398"/>
      <path id="Path_611" data-name="Path 611" d="M184.227,38.467l-.481-.311c-.249-.167-.507-.331-.769-.488l1.168-2.369.442.232c.324.2.57.367.825.537l.262.177Z" transform="translate(-182.977 -35.299)" fill="#2d2a59"/>
    </g>
    <path id="Path_612" data-name="Path 612" d="M224.44,61.221c.4-3.168-4.53-8-8.722-11.484-1.3-1.106-2.978-2.4-4.984-3.826-1.787-1.3-3.616-2.543-5.439-3.7-.638-.406-1.263-.8-1.846-1.129-.861-.543-1.721-1.051-2.615-1.571a58.554,58.554,0,0,0-10.185-5.024l-.007,0-.17-.079-.1-.01c-5.171-2.059-8.686-2.536-10.4-1.44l-.01.01-.02,0-.317.285c-.036.043-.062.085-.095.128a2.743,2.743,0,0,0-.442.429,2.532,2.532,0,0,0-.239.5c-.272.373-.533.749-.779,1.136a26.5,26.5,0,0,0-2.648,23.106,26.837,26.837,0,0,0,16.815,16.491,24.04,24.04,0,0,0,7.769,1.263,27.291,27.291,0,0,0,12.253-2.972,25.982,25.982,0,0,0,11.523-10.722c.082-.1.219-.2.268-.285a2.509,2.509,0,0,0,.2-.589l.052-.1Zm-40.52,1.941A22.766,22.766,0,0,1,179.7,44.471c.34-1.672,2.893-.962,2.556.7a20.2,20.2,0,0,0,3.954,16.649C187.248,63.178,184.944,64.494,183.92,63.162Zm6.532,5.822a14.773,14.773,0,0,1-3.548-2.867c-1.142-1.263.727-3.142,1.872-1.872a12.431,12.431,0,0,0,3.014,2.448A1.327,1.327,0,0,1,190.452,68.984Z" transform="translate(615.091 2995.016)" fill="#65b9a5" stroke="#fff" stroke-width="2"/>
    <path id="Path_613" data-name="Path 613" d="M217.392,63.76c-5.682,0-16.462-5.78-22.857-9.831-7.7-4.9-20.383-14.485-19.067-19.388a1.919,1.919,0,0,1,.406-.864,2.366,2.366,0,0,1,.759-.707c1.735-1.126,5.315-.622,10.614,1.5l-.635,1.816c1.348,1.532,5.456,5.011,12.62,9.556a88.986,88.986,0,0,0,12.463,6.811c-.288-.268-.622-.569-1.018-.907l1.715-2.023c4.2,3.5,9.108,8.332,8.715,11.491a2.607,2.607,0,0,1-.373,1.126,2.658,2.658,0,0,1-.569.628A4.255,4.255,0,0,1,217.392,63.76ZM179.055,35.028a1.988,1.988,0,0,0-.992.177c-.455,1.574,5.181,8.408,17.892,16.485,12.718,8.058,21.3,10.27,22.523,9.232l0-.016-.007-.023c.079-.589-.664-2.281-3.463-5.168-2.16.825-7.933-1.748-17.2-7.639-9.039-5.737-13.8-9.8-14.217-12.119A15.794,15.794,0,0,0,179.055,35.028Z" transform="translate(618.418 2995.017)" fill="#fff"/>
    <path id="Path_614" data-name="Path 614" d="M182.435,38.787l-.481,1.031" transform="translate(633.375 3009.566)" fill="none"/>
  </g>
</svg>
