<svg xmlns="http://www.w3.org/2000/svg" width="85.315" height="70.659" viewBox="0 0 85.315 70.659">
  <path id="Path_616" data-name="Path 616" d="M1720.318,181.736l-1.543-.367a1.331,1.331,0,0,0-.828.07c-6.019,2.5-8.125,5.014-9,10.762a1.334,1.334,0,0,0,.563,1.309,5.615,5.615,0,0,0,4.249.936,2.584,2.584,0,0,0,1.656-1.334,1.474,1.474,0,0,1,.519-.209,7,7,0,0,1-.683,1.018c-.974,1.227-2.776,2.289-4.439,1.72a1.334,1.334,0,0,0-1.53.493c-.987,1.385-.373,3.206.164,4.812a7.376,7.376,0,0,1,.563,2.371c-.411.31-2.308.12-3.219.025a13.422,13.422,0,0,0-2.333-.114,1.333,1.333,0,0,0-1.214,1.157c-.31,2.283.62,6.064,3.118,6.936,2.744.948,5.994-1.891,6.923-2.788a7.633,7.633,0,0,0,.784-.974c1.214-1.657,2.08-2.535,2.9-2.1.044.025,4.963,2.251,6.74,1.524a1.356,1.356,0,0,0,.569-.443c.594-.8.752-2.074.986-4.262.221-2.112.582-5.526,1.771-6.2-.038.3-.1.664-.146.948a7.2,7.2,0,0,0,.032,3.857c.025.057.05.114.082.171a3.654,3.654,0,0,0,3.585,1.935,5.1,5.1,0,0,1,1.17.114,12.332,12.332,0,0,1-1.473,1.353c-.348.285-.683.556-.968.822-4.04,3.775-9.4,4.255-13.31,4.609-3.054.272-5.463.487-5.868,2.535-.657,3.339,4.673,10.616,5.5,11.6,3.364,4,8.732,2.959,12.652,2.194,1.8-.348,3.832-.74,4.578-.354,1.163.607,1.334,2.51.9,4a20.27,20.27,0,0,1-.892,2.314,15.425,15.425,0,0,0-1.258,3.718,6.565,6.565,0,0,0,.714,4.179,1.394,1.394,0,0,0,.253.322,31.666,31.666,0,0,1-5.969,3.718,31.261,31.261,0,0,1-18.634,2.668c-.285-4.154-.563-8.3-.841-12.469a11.606,11.606,0,0,0-.9-4.388,8.372,8.372,0,0,0-6.759-4.293c-.519-.051-1.031-.145-1.518-.234a7.93,7.93,0,0,0-6.266.816c-.316.19-.651.43-1.005.683-1.062.765-2.163,1.549-3.459,1.328-1.423-.24-3.048-1.638-4.831-4.135-.259-.9-.481-1.815-.658-2.738-.006-.038-.012-.082-.019-.126l-.322-2.807a31.366,31.366,0,0,1,.031-4.338,1.3,1.3,0,0,0,.044-.468,30.484,30.484,0,0,1,1.088-5.754,35.7,35.7,0,0,0,10.6-2.105c6.626-2.3,8.884-7.189,11.28-12.368,1.7-3.674,3.452-7.467,6.9-11.084a1.346,1.346,0,0,0-.892-2.27c-1.568-.095-3.1-.228-4.609-.354-2.681-.234-5.21-.449-7.708-.449-4.534,0-10.439.658-15.921,5.792-7.215,6.753-3.446,18.115-2.187,21.9-.21.718-.391,1.445-.557,2.178-.011.039-.023.065-.033.108-.071.272-.135.589-.194.932l-.221-.24a1.17,1.17,0,0,0-.006-.209,6.786,6.786,0,0,1,.057-1.638c.329-3.275.885-8.764-11.11-13.929a20.437,20.437,0,0,1-3.718-1.7,1.344,1.344,0,0,0-2.061.98c-.051.462-1.265,11.356,2.915,16.768a7.531,7.531,0,0,0,6.215,2.928,12.675,12.675,0,0,0,3.244-.455,17.462,17.462,0,0,0,2.523-.9,14.664,14.664,0,0,1,1.432,1.782,23.113,23.113,0,0,0-9.886-10.956.96.96,0,0,1,.848-1.722,24.678,24.678,0,0,1,9.71,9.646c-.18,1.16-.308,2.558-.393,3.746-.02-.053-.039-.108-.06-.162-.067.983-.09,1.879-.085,2.689v.008h0a29.885,29.885,0,0,0,.373,4.592c.025.126.038.221.044.24a1,1,0,0,0,.019.2,32.131,32.131,0,0,0,.771,3.168.737.737,0,0,0,.038.126,34.871,34.871,0,0,0,25.734,23.97,1.343,1.343,0,0,0,1.1.582.478.478,0,0,0,.095-.006,1.313,1.313,0,0,0,.639-.221,33.96,33.96,0,0,0,21.093-3.263,34.543,34.543,0,0,0-8.251-64.424Zm-39.839,24.12a32.221,32.221,0,0,1,13.927-18.223,1.264,1.264,0,1,1,1.3,2.167,30.206,30.206,0,0,0-12.778,16.673,1.266,1.266,0,0,1-1.225.955,1.279,1.279,0,0,1-.31-.039A1.264,1.264,0,0,1,1680.479,205.856Z" transform="translate(-1661.995 -179.232)" fill="#65b9a5"/>
</svg>
