<svg xmlns="http://www.w3.org/2000/svg" width="83.97" height="77.518" viewBox="0 0 83.97 77.518">
  <path id="Subtraction_1" data-name="Subtraction 1" d="M804.742-4893.7h0a24.773,24.773,0,0,1-3.5-.583,30.344,30.344,0,0,1-7.734-2.929,22.047,22.047,0,0,1-7.8-7.047,23.65,23.65,0,0,1-3.7-12.936c3.677-3.788,12.284-8.552,12.37-8.6,0,.008.219.4.613,1.041a40.023,40.023,0,0,1,6.094-7.553c2.981-2.809,5.945-4.389,8.808-4.7a36.357,36.357,0,0,1,3.7-.148c.5,0,1.031,0,1.587.015a19.051,19.051,0,0,1-4.558-6.229,18.589,18.589,0,0,1-1.68-7.758,18.6,18.6,0,0,1,1.535-7.433,19.015,19.015,0,0,1,4.187-6.068,19.5,19.5,0,0,1,6.211-4.092,19.811,19.811,0,0,1,7.605-1.5,19.814,19.814,0,0,1,7.606,1.5,19.5,19.5,0,0,1,6.211,4.092,19.016,19.016,0,0,1,4.187,6.068,18.6,18.6,0,0,1,1.536,7.433,18.777,18.777,0,0,1-2.3,8.994,19.4,19.4,0,0,1-6.112,6.7l1.128.113a2.568,2.568,0,0,1,.235,1.056,2.081,2.081,0,0,1-1.178,1.861c.038-.013.079-.031.112-.046s.045-.02.068-.028a13.662,13.662,0,0,1-7.712,2.277,30.1,30.1,0,0,1-4.05-.348H828.2a25,25,0,0,0-3.082-.286h-.021c-1.118,0-3.218.409-6.874,2.356-2.12,1.129-3.786,2.255-3.926,2.351.33-.147,3.435-1.482,11.13-3.118a24.849,24.849,0,0,0,3.794.3c6.926,0,10.431-3.2,10.808-3.56,2.217-.926,5.624-4.331,8.919-7.624,1.645-1.644,3.2-3.2,4.594-4.438l-.008.028.02-.011c.942-.46,5.743-2.755,7.806-2.755a2.217,2.217,0,0,1,.253.013c1.689.195,2.754.68,3.165,1.441a2.362,2.362,0,0,1-.237,2.247c-6.244,7.666-14.325,17.75-17.366,22.256a10.013,10.013,0,0,1-4.3,3.289,29.445,29.445,0,0,1-6.432,1.914,105,105,0,0,1-13.89,1.4h-.016a47.69,47.69,0,0,0-5.537.459,24.089,24.089,0,0,0-4.7,4.959,22.824,22.824,0,0,0,2.816.868c-4.839,5.957-10.317,14.663-10.372,14.75Zm23.731-73a15.78,15.78,0,0,1,15.94,15.577,15.182,15.182,0,0,1-.891,5.139,15.439,15.439,0,0,1-2.471,4.419,15.892,15.892,0,0,1-3.746,3.4,16.052,16.052,0,0,1-4.718,2.089c1.305.111,2.55.223,3.805.338a17.587,17.587,0,0,0,7.013-6.24,16.867,16.867,0,0,0,2.7-9.149,17.453,17.453,0,0,0-17.631-17.228,17.452,17.452,0,0,0-17.629,17.228,16.916,16.916,0,0,0,2.047,8.052,17.546,17.546,0,0,0,5.442,6.033c1.173.049,2.441.114,3.768.192a15.587,15.587,0,0,1-9.566-14.277A15.78,15.78,0,0,1,828.473-4966.7Zm-4.185,20.9a.9.9,0,0,0-.85.563l-.246.672a.851.851,0,0,0,.4,1.048,8.736,8.736,0,0,0,3.607.938v1.842a.878.878,0,0,0,.886.867h.516a.877.877,0,0,0,.885-.867v-1.959a5.477,5.477,0,0,0,3.28-1.863,4.646,4.646,0,0,0,1.043-2.912c0-2.375-1.32-3.914-4.415-5.145-2.467-1-3.219-1.649-3.219-2.794,0-.934.686-2.025,2.619-2.025a6.422,6.422,0,0,1,2.745.585.875.875,0,0,0,.367.08.9.9,0,0,0,.84-.555l.254-.656a.857.857,0,0,0-.436-1.083,7.775,7.775,0,0,0-2.914-.7v-1.742a.877.877,0,0,0-.885-.867h-.488a.878.878,0,0,0-.886.867v1.881a5.4,5.4,0,0,0-3.009,1.591,4.285,4.285,0,0,0-1.121,2.941c0,2.707,2.254,3.945,4.69,4.881,2.071.819,2.916,1.667,2.916,2.925,0,1.381-1.223,2.346-2.974,2.346a7.253,7.253,0,0,1-3.2-.767A.878.878,0,0,0,824.288-4945.8Z" transform="translate(-781.497 4970.713)" fill="#65b9a5" stroke="rgba(0,0,0,0)" stroke-miterlimit="10" stroke-width="1"/>
</svg>
