<svg xmlns="http://www.w3.org/2000/svg" width="69.019" height="63.853" viewBox="0 0 69.019 63.853">
  <g id="Group_204" data-name="Group 204" transform="translate(-1233 -768.18)">
    <path id="Path_598" data-name="Path 598" d="M1302.019,837.933H1269.09v-10.35a1.58,1.58,0,1,0-3.16,0v10.35H1233c0,11.5,7.939,21.447,19.454,26.157h-.747V869.9h31.6V864.09h-.747C1294.079,859.38,1302.019,849.438,1302.019,837.933Z" transform="translate(0 -37.868)" fill="#65b9a5"/>
    <path id="Path_599" data-name="Path 599" d="M1284.669,789.555l-10.024-10.024a1.515,1.515,0,0,1,2.143-2.143l10.037,10.037a12.1,12.1,0,0,0-2.407-13.894c-5.957-5.957-18.962-5.331-18.962-5.331s-.446,13.183,5.332,18.961A12.367,12.367,0,0,0,1284.669,789.555Z" transform="translate(-21.251)" fill="#65b9a5"/>
    <path id="Path_600" data-name="Path 600" d="M1346.367,777.388a1.515,1.515,0,0,1,2.143,2.143l-10.024,10.024a12.367,12.367,0,0,0,13.881-2.395c5.778-5.778,5.332-18.961,5.332-18.961s-13-.625-18.961,5.331a12.1,12.1,0,0,0-2.408,13.894Z" transform="translate(-66.886)" fill="#65b9a5"/>
  </g>
</svg>
