<svg width="132" height="26" viewBox="0 0 132 26" fill="none" xmlns="http://www.w3.org/2000/svg">
<g clip-path="url(#clip0)">
<path d="M28.0606 7.59751H31.6444V9.96277C33.4721 8.13507 35.2281 7.23914 36.9125 7.23914C39.2777 7.23914 41.0696 8.33218 42.306 10.5003C44.2412 8.33218 46.2481 7.23914 48.3267 7.23914C50.2798 7.23914 51.8029 7.95588 52.8601 9.37146C53.8277 10.6616 54.3115 12.3101 54.3115 14.317V25.6595H50.7278V14.4783C50.7278 13.2419 50.4052 12.2384 49.7602 11.4679C49.1151 10.6974 48.1833 10.2853 46.9828 10.2674C45.8001 10.2316 44.4741 10.9841 42.969 12.5431V25.6416H39.3852V14.4245C39.3852 11.6471 38.2922 10.2495 36.124 10.2495C34.4397 10.2495 32.9345 11.02 31.6265 12.5431V25.6416H28.0427V7.59751H28.0606Z" fill="#212529"/>
<path d="M67.643 7.23914C70.4383 7.23914 72.7498 8.08131 74.6133 9.76567C76.4769 11.45 77.4087 13.6719 77.4087 16.4314C77.4087 19.2984 76.5127 21.6099 74.7029 23.3659C72.8932 25.122 70.5458 26 67.643 26C64.8656 26 62.572 25.1041 60.7981 23.3122C59.0241 21.5203 58.1282 19.2267 58.1282 16.4314C58.1282 13.7795 59.0599 11.5755 60.9056 9.83734C62.7333 8.09923 64.991 7.23914 67.643 7.23914ZM67.6071 10.4466C65.887 10.4466 64.4893 11.02 63.4142 12.1489C62.3211 13.2957 61.7836 14.7112 61.7836 16.4314C61.7836 18.277 62.2853 19.7822 63.3067 20.929C64.346 22.1654 65.7794 22.7746 67.6071 22.7746C69.5424 22.7746 71.0475 22.2012 72.1227 21.0724C73.1978 19.9435 73.7533 18.4025 73.7533 16.4673C73.7533 14.6933 73.1619 13.2598 71.9972 12.1309C70.8325 11.0021 69.3811 10.4466 67.6071 10.4466Z" fill="#212529"/>
<path d="M85.4182 2.13232C85.4182 2.72364 85.2032 3.22536 84.791 3.63749C84.3789 4.04962 83.8772 4.26465 83.2859 4.26465C82.6946 4.26465 82.1928 4.04962 81.7807 3.63749C81.3686 3.22536 81.1536 2.72364 81.1536 2.13232C81.1536 1.54101 81.3686 1.03928 81.7807 0.627154C82.1928 0.215024 82.6946 0 83.2859 0C83.8772 0 84.3789 0.215024 84.791 0.627154C85.2032 1.03928 85.4182 1.54101 85.4182 2.13232ZM85.0419 7.59752V25.6416H81.4582V7.59752H85.0419Z" fill="#212529"/>
<path d="M92.0481 21.1798C92.7111 21.1798 93.2845 21.4128 93.7504 21.8786C94.2162 22.3445 94.4492 22.9179 94.4492 23.5809C94.4492 24.2439 94.2162 24.8173 93.7504 25.2832C93.2845 25.7491 92.7111 25.982 92.0481 25.982C91.3851 25.982 90.8117 25.7491 90.3458 25.2832C89.8799 24.8173 89.647 24.2439 89.647 23.5809C89.647 22.9179 89.8799 22.3445 90.3458 21.8786C90.7938 21.4128 91.3672 21.1798 92.0481 21.1798Z" fill="#212529"/>
<path d="M104.735 26L96.5815 7.59753H100.452L105.362 18.7609L110.092 7.59753H113.909L105.953 26H104.735Z" fill="#212529"/>
<path d="M120.091 7.59751V9.96277C121.542 8.13507 123.352 7.23914 125.52 7.23914C127.563 7.23914 129.14 7.95588 130.215 9.4073C131.218 10.6974 131.72 12.3997 131.72 14.5141V25.6416H128.136V14.4783C128.136 13.2419 127.85 12.2384 127.294 11.4679C126.685 10.5541 125.789 10.1061 124.606 10.1061C123.155 10.1061 121.65 10.9841 120.109 12.7223V25.6595H116.525V7.59751H120.091Z" fill="#212529"/>
<path d="M19.6354 23.7781C17.5748 25.1041 15.2991 25.785 12.7905 25.785C11.2495 25.785 9.74431 25.5342 8.31082 25.0145C6.87733 24.4949 5.6051 23.7602 4.52998 22.8105C3.45486 21.8608 2.59476 20.714 1.94969 19.3522C1.32254 17.9725 1 16.4852 1 14.8367C1 13.1165 1.35837 11.5397 2.07512 10.1062C2.79187 8.69061 3.74156 7.45422 4.92419 6.41494C6.10682 5.39357 7.45072 4.58723 8.99173 4.03175C10.5148 3.47627 12.1096 3.18958 13.7402 3.18958C16.5355 3.18958 18.7574 3.78089 20.4059 4.94561C21.3556 5.55484 22.0724 6.28951 22.5382 7.1496C23.0041 8.0097 23.255 8.8698 23.255 9.74781C23.255 10.6975 23.0041 11.6114 22.5024 12.5073C22.0007 13.3853 21.2481 14.1558 20.2447 14.8009C19.4204 15.3564 18.4528 15.8043 17.3239 16.1269C16.195 16.4494 14.887 16.6107 13.3818 16.6107C12.2171 16.6107 11.0524 16.4136 9.90558 16.0014C8.74087 15.5893 7.73742 14.9801 6.87733 14.1558L7.64783 13.2599C8.38249 13.7258 9.20675 14.102 10.1385 14.3529C11.0703 14.6038 12.02 14.7471 13.0055 14.7471C13.8656 14.7471 14.6899 14.6396 15.4962 14.4246C16.2846 14.2096 16.9835 13.8691 17.5927 13.3853C18.7574 12.346 19.3308 11.1634 19.3308 9.8374C19.3308 8.24264 18.7753 7.07793 17.6465 6.32534C16.5176 5.57276 15.2633 5.19647 13.8298 5.19647C12.5396 5.19647 11.3749 5.46525 10.3535 6.00281C9.31427 6.54037 8.45417 7.2392 7.73742 8.09929C7.03859 8.95939 6.48311 9.96283 6.0889 11.0917C5.71261 12.2385 5.51551 13.4032 5.51551 14.6038C5.51551 15.8581 5.69469 17.0228 6.07099 18.1158C6.42936 19.2089 6.96692 20.1586 7.64783 20.947C8.32874 21.7354 9.18884 22.3626 10.2281 22.8105C11.2674 23.2585 12.4142 23.4914 13.7043 23.4914C15.6396 23.4914 17.3956 22.9718 18.9904 21.9146C20.5851 20.8574 21.7498 19.4239 22.4666 17.632L23.7567 18.0262C23.0758 20.5169 21.714 22.4342 19.6354 23.7781Z" fill="#212529"/>
</g>
<defs>
<clipPath id="clip0">
<rect width="131.702" height="26" fill="white"/>
</clipPath>
</defs>
</svg>
