<svg width="153" height="26" viewBox="0 0 153 26" fill="none" xmlns="http://www.w3.org/2000/svg">
<path d="M17.2621 0.562365V2.17448H4.17511V11.0598H12.9372V12.672H4.17511V23.8068H17.2621V25.4189H0V0.562365H17.2621Z" fill="white"/>
<path d="M22.1674 0.562365H26.4361L36.0969 19.6265H36.3029L45.7764 0.562365H49.9703V25.4189H45.7764V5.04254H45.6454L35.4604 25.4189H34.5991L24.3018 5.21125H24.0209V25.4189H22.1674V0.562365Z" fill="white"/>
<path d="M69.2918 26C67.3697 26 65.5723 25.6563 63.8998 24.969C62.2397 24.2817 60.7918 23.3444 59.5562 22.1572C58.333 20.9575 57.3656 19.564 56.6542 17.9769C55.9552 16.3773 55.6057 14.6715 55.6057 12.8594C55.6057 11.6722 55.7617 10.5287 56.0738 9.42898C56.3983 8.32925 56.8539 7.30449 57.4405 6.35472C58.0272 5.40495 58.7324 4.54266 59.5562 3.76784C60.3924 2.98053 61.3161 2.31194 62.3271 1.76208C63.3381 1.19971 64.4302 0.768565 65.6035 0.468637C66.7768 0.156212 68.0062 0 69.2918 0C70.5775 0 71.8069 0.156212 72.9802 0.468637C74.1535 0.768565 75.2456 1.19971 76.2566 1.76208C77.2801 2.31194 78.2037 2.98053 79.0275 3.76784C79.8513 4.54266 80.5565 5.40495 81.1432 6.35472C81.7423 7.30449 82.1979 8.32925 82.5099 9.42898C82.8344 10.5287 82.9967 11.6722 82.9967 12.8594C82.9967 14.0591 82.8344 15.2213 82.5099 16.3461C82.1979 17.4583 81.7423 18.5018 81.1432 19.4766C80.5565 20.4513 79.8513 21.3386 79.0275 22.1384C78.2037 22.9382 77.2801 23.6256 76.2566 24.2004C75.2456 24.7753 74.1535 25.2189 72.9802 25.5314C71.8069 25.8438 70.5775 26 69.2918 26ZM69.2918 24.7628C70.7148 24.7628 71.9692 24.4691 73.0551 23.8818C74.1535 23.2819 75.0771 22.4509 75.826 21.3886C76.5749 20.3264 77.1366 19.0704 77.511 17.6208C77.8979 16.1711 78.0914 14.584 78.0914 12.8594C78.0914 11.1473 77.8979 9.57895 77.511 8.15429C77.1366 6.72963 76.5749 5.50493 75.826 4.48017C75.0771 3.44292 74.1535 2.64311 73.0551 2.08075C71.9692 1.50589 70.7148 1.21846 69.2918 1.21846C67.844 1.21846 66.5708 1.50589 65.4725 2.08075C64.3866 2.64311 63.4692 3.44292 62.7203 4.48017C61.9838 5.50493 61.4284 6.72963 61.054 8.15429C60.6795 9.57895 60.4923 11.1473 60.4923 12.8594C60.4923 14.584 60.6795 16.1711 61.054 17.6208C61.4284 19.0704 61.9838 20.3264 62.7203 21.3886C63.4692 22.4509 64.3866 23.2819 65.4725 23.8818C66.5708 24.4691 67.844 24.7628 69.2918 24.7628Z" fill="white"/>
<path d="M88.6322 0.562365H92.8073V25.4189H88.6322V0.562365Z" fill="white"/>
<path d="M100.296 22.0447C100.571 22.0447 100.833 22.1009 101.083 22.2134C101.332 22.3134 101.551 22.4509 101.738 22.6258C101.925 22.8008 102.069 23.0132 102.169 23.2632C102.281 23.5006 102.337 23.7505 102.337 24.013C102.337 24.3004 102.281 24.5628 102.169 24.8003C102.069 25.0377 101.925 25.2439 101.738 25.4189C101.551 25.6063 101.332 25.7501 101.083 25.85C100.833 25.95 100.571 26 100.296 26C100.009 26 99.7408 25.95 99.4912 25.85C99.2416 25.7501 99.0231 25.6063 98.8359 25.4189C98.6487 25.2439 98.4989 25.0377 98.3866 24.8003C98.2867 24.5628 98.2368 24.3004 98.2368 24.013C98.2368 23.7505 98.2867 23.5006 98.3866 23.2632C98.4989 23.0132 98.6487 22.8008 98.8359 22.6258C99.0231 22.4509 99.2416 22.3134 99.4912 22.2134C99.7408 22.1009 100.009 22.0447 100.296 22.0447Z" fill="white"/>
<path d="M108.871 0.562365L118.251 20.3389L126.957 0.562365H128.942L117.671 26H116.585L104.471 0.562365H108.871Z" fill="white"/>
<path d="M132.368 0.562365H134.708L150.978 18.7455H151.165V0.562365H153V26H152.026L134.409 5.79236H134.259V25.4189H132.368V0.562365Z" fill="white"/>
</svg>
