<svg xmlns="http://www.w3.org/2000/svg" width="411.904" height="193.983" viewBox="0 0 411.904 193.983">
  <path id="Union_4" data-name="Union 4" d="M375.444,193.662l-.966-.963-1.284,1.284h-.106V191.2l-.642-.536-35.4-35.5h1.39l35.293,35.286,1.714-1.711-.966-.963-1.39,1.5V186.39l-31.227-31.223h1.5l30.37,30.476,1.714-1.711-.966-.963-1.39,1.39v-2.779l-20-20.106-.212-.106-6.2-6.2h1.5l25.559,25.661,1.714-1.707-.966-.966-1.39,1.39v-2.888L351.6,155.167h1.39l20.745,20.745,1.714-1.714-.966-.96-1.39,1.5v-2.885l-16.682-16.682h1.5L373.73,171.1l1.714-1.711-.966-.963-1.39,1.39v-2.779l-11.765-11.868h1.393l11.014,11.12,1.714-1.711-.966-.963-1.39,1.39v-2.885l-6.955-6.951h1.5l6.094,6.2,1.714-1.711-.966-.963-1.39,1.5V157.3l-2.137-2.137h1.5l1.284,1.39,36.464-36.467,1.711-1.6v2.888l-.427.321-33.794,33.9.963.966L411.9,123.3v2.892L382.5,155.59l.963.966L411.9,128.112V131.1l-24.6,24.487.963.966L411.9,133.032v2.885L392.228,155.59l.963.966L411.9,137.84v2.888L397.039,155.59l.963.966,13.9-13.906v3l-10.052,9.942.963.966,9.089-8.986v2.888l-5.135,5.132.966.966,4.169-4.175v2.892l-.321.318.212.215v1.5l-.96-.963-1.711,1.711.963.963L411.8,157.3V160.3l-.212.106.109.212V161.9l-.857-.744-1.711,1.707.963.963,1.5-1.5c0,1.39-.215,2.779-.321,4.063l-.427-.427-1.711,1.711.963.963.963-.857a20.078,20.078,0,0,1-.645,3.53l-1.28,1.28.854.751a30.3,30.3,0,0,1-1.82,5.026l-1.39,1.5.427.43a4.31,4.31,0,0,1-.533.963l-.639-.748-1.714,1.707.963.963.321-.212a22.286,22.286,0,0,1-4.814,4.7l1.4-1.284-.966-.963-1.711,1.711.857.857-.857.639-.748-.854-1.714,1.711.324.324c-.324.1-.642.318-1.069.427v.106c-1.39.533-3,1.069-4.6,1.6l.744-.744-.959-.963-1.711,1.707.43.427-5.35.963-.645-.639-.85.748-3.209.321.212-.106-1.065-.963-1.181,1.178c-.96,0-1.922.106-2.991.106Zm9.512-1.714.963.963,1.6-1.707-.963-.963Zm-4.92,0,.966.963,1.707-1.707-.96-.963Zm-4.811,0,.963.963L377.9,191.2l-.963-.963Zm17-2.352.963.963,1.6-1.707-.963-.963Zm-4.92,0,.963.963,1.711-1.707-.963-.963Zm-4.811,0,.963.963,1.711-1.707-.966-.963Zm-4.814,0,.963.963,1.608-1.707-.963-.963Zm16.9-2.458.963.963,1.711-1.711-.96-.963Zm-4.811,0,.963.963,1.707-1.711-.959-.963Zm-4.814,0,.963.963,1.6-1.711-.963-.963Zm-4.92,0,.966.963,1.707-1.711-.96-.963Zm-4.811,0,.963.963,1.714-1.711-.963-.963Zm26.628-2.458.963.963,1.714-1.711-.963-.963Zm-4.814,0,.963.963,1.714-1.711-.963-.963Zm-4.811,0,.963.963,1.714-1.711-1.075-.963Zm-4.92,0,.963.963,1.711-1.711-.963-.963Zm-4.811,0,.963.963,1.711-1.711-.966-.963Zm-4.92,0,1.069.963,1.608-1.711-.963-.963Zm21.923-2.356.963.966,1.714-1.711-1.072-.963Zm-24.275-.106v.106l.963.966,1.714-1.711-.963-.963Zm19.355,0,.963.963,1.711-1.6-.96-.963Zm-4.811,0,.963.963,1.707-1.6-.959-.963Zm-4.814,0,.963.963,1.6-1.6-.963-.963Zm-4.92,0,.966.963,1.707-1.6-.96-.963Zm21.817-2.352.963.963,1.714-1.707-.963-.966Zm-4.814,0,.963.963,1.714-1.707-.963-.966Zm-4.811,0,.963.963,1.714-1.707-1.075-.966Zm-4.92,0,.963.963,1.711-1.707-.963-.966Zm-4.811,0,.963.963,1.711-1.707-.966-.966Zm-4.814,0,.963.963,1.608-1.707-.963-.966Zm26.628-2.458.963.963,1.714-1.714-.963-.96Zm-4.811,0,.963.963,1.714-1.714-.966-.96Zm-4.92,0,.963.963,1.711-1.714-.96-.96Zm-4.811,0,.963.963,1.707-1.714-.959-.96Zm-4.814,0,.963.963,1.6-1.714-.963-.96Zm-4.92,0,.966.963,1.707-1.714-.96-.96Zm-4.811,0,.963.963,1.714-1.714-.963-.96Zm31.544-2.352.966.963,1.711-1.714-.963-.96Zm-4.917-.109.963.966,1.714-1.608-.963-1.065Zm-4.814,0,.963.966,1.714-1.608-.963-1.065Zm-4.811,0,.963.966,1.6-1.608-.963-1.065Zm-4.92,0,.963.966,1.711-1.608-.748-.854-.215-.212Zm-4.811,0,.963.966,1.711-1.608-.966-1.065Zm-4.814,0,.963.966,1.608-1.608-.963-.96Zm26.628-2.352.963.963,1.714-1.707-.963-.963Zm-4.811,0,.963.963,1.714-1.707-.966-.963Zm-4.92,0,.963.963,1.711-1.707-.96-.963Zm-4.811,0,.963.963,1.707-1.707-.959-.963Zm-4.814,0,.963.963,1.6-1.707-.963-.963Zm-4.92,0,.966.963,1.707-1.707-.96-.963Zm-4.811,0,.963.963,1.714-1.707-.963-.963Zm31.544-2.458.966.963,1.711-1.711-.963-.963Zm-4.917,0,.963.963,1.714-1.711-.963-.963Zm-4.814,0,.963.963,1.714-1.711-.963-.963Zm-4.811,0,.963.963,1.714-1.711-.645-.536-.43-.427Zm-4.92,0,.963.963,1.711-1.711-.963-.963Zm-4.811,0,.963.963,1.711-1.711-.966-.963Zm-4.814,0,.963.963,1.608-1.711-.963-.963Zm-2.458-2.458.963,1.069,1.714-1.711-.963-.963Zm29.086,0,.963.963,1.714-1.711-.963-.963Zm-4.811,0,.963.963,1.714-1.711-.966-.963Zm-4.92,0,.963.963,1.711-1.711-.96-.963Zm-4.811,0,.963.963,1.707-1.711-.959-.963Zm-4.814,0,.963.963,1.6-1.6-.963-1.069Zm-4.92,0,.966.963,1.707-1.6-.96-1.069Zm26.733-2.352.966.963v-.109l1.711-1.6-1.069-.963Zm-4.917,0,.963.963,1.714-1.711-.963-.963Zm-4.814,0,.963.963,1.714-1.711-.963-.963Zm-4.811,0,.963.963,1.714-1.711-1.075-.963Zm-4.92,0,.963.963,1.711-1.711-.963-.963Zm-4.811,0,.963.963,1.711-1.711-.966-.963Zm-4.814,0,.963.963,1.608-1.711-.963-.963Zm26.628-2.462.963.963,1.714-1.707-.963-.963Zm-4.811,0,.963.963,1.714-1.707-.966-.963Zm-4.92,0,.963.963,1.711-1.707-.96-.963Zm-4.811,0,.963.963,1.707-1.707-.959-.963Zm-4.814,0,.963.963,1.6-1.707-.963-.963Zm-4.92,0,.966.963,1.707-1.707-.96-.963Zm-4.811,0,.963.963,1.714-1.707-.963-.963Zm31.544-2.458.966.963,1.711-1.6-1.069-.966Zm-4.917,0,.963.963,1.714-1.6-.963-.966Zm-4.814,0,.963.963,1.714-1.6-.963-.966Zm-4.811,0,.963.963,1.6-1.6-.963-.966Zm-4.92,0,.963.963,1.711-1.6-.963-.966Zm-4.811,0,.963.963,1.711-1.6-.966-.966Zm-4.92,0,1.069.963,1.608-1.6-.963-.966Zm26.734-2.352.963.963,1.714-1.711-.963-.963Zm-4.811,0,.963.963,1.714-1.711-1.072-.963Zm-4.92,0,.963.963,1.711-1.711-.96-.963Zm-4.811,0,.963.963,1.707-1.711-.959-.963Zm-4.92,0,1.069.963,1.6-1.711-.963-.963Zm-4.814,0,.966.963,1.707-1.711-.96-.963Zm-4.811,0,.963.963L377.9,157.3l-.963-.963Zm-4.275,35.931L334.268,157.3v3.312h-.106l9.942,9.84,23.422,23.527h-1.393l-31.865-31.865v3.312l-.106.106,7.484,7.378,21.069,21.069h-1.5l-26.952-26.949v3.312L357.9,193.983h-1.5l-22.138-22.135v3.312h-.106l18.823,18.823H351.6l-17.327-17.327v3.315l-.106.109,14.009,13.9h-1.5l-12.407-12.4v3.312h-.106l9.092,9.092h-1.393l-7.593-7.593v3.319h-.106l4.275,4.275h-1.5l-2.673-2.779v2.779h-3.312l.639-.645-.533-.427-.963.966c-1.284,0-2.564-.109-3.742-.215l.321-.324-.427-.427-.751.751a38.335,38.335,0,0,1-3.848-.533l-.324-.218-.212.218-3.206-.642,1.5-1.5-.427-.533-1.714,1.714.215.208a17.76,17.76,0,0,1-3.424-.96l.536-.43-.536-.533-.639.751c-.963-.324-1.922-.751-2.779-1.072l1.5-1.6-.43-.427-1.711,1.608v.106a22.554,22.554,0,0,1-5.238-3.53l.106-.215-.427-.427-.215.106a16.136,16.136,0,0,1-1.816-2.035l-.427-.533a23.144,23.144,0,0,1-3.1-5.562l1.178-1.171-.533-.536-.963,1.069-.963-2.994c-.427-1.284-.645-2.567-.966-3.851l.966-.959-.321-.43-.106-.106-.645.642c-.212-1.069-.318-2.247-.536-3.421l1.608-1.608-.427-.427L295.878,165l-.321-4.172.321.324,1.714-1.714-.427-.533-1.608,1.6c0-1.5-.106-3.1-.106-4.7l.427.43,38.39-38.284V121.8l-34.006,34.006.533.43,33.473-33.473v3.851L307.64,153.347l-2.564,2.458.536.43,28.656-28.659v3.957l-24.275,24.272.43.43h.109l23.736-23.743v3.851l-19.461,19.461.536.43,18.925-18.928v3.848l-14.65,14.65.539.43,14.111-14.012v3.851l-9.731,9.731.427.43,9.3-9.2v3.848l-4.92,4.92.539.43,4.381-4.387v3.957l36.252,36.362.215.106,1.711,1.711Zm-39.141-1.816.427.533,1.711-1.714-.423-.427Zm-4.814,0,.43.533,1.711-1.714-.533-.427Zm-4.917,0,.533.533,1.714-1.714-.536-.533Zm7.269-2.352.539.427,1.707-1.714-.533-.427Zm-4.811,0,.427.427,1.714-1.714-.427-.427Zm-4.811,0,.43.427,1.707-1.714-.536-.427Zm-4.92,0,.536.427,1.711-1.714-.536-.427Zm17-2.462.427.536,1.711-1.714-.423-.533Zm-4.814,0,.43.536,1.711-1.714-.533-.533Zm-4.917,0,.533.536,1.714-1.714-.536-.533Zm-4.814,0,.43.427,1.711-1.6-.427-.533Zm-4.811,0,.43.427,1.707-1.6-.536-.533Zm-4.92,0,.536.427,1.711-1.6-.536-.533Zm21.814-2.462.539.536,1.707-1.714-.533-.533Zm-4.811,0,.427.536,1.714-1.714-.427-.533Zm-4.811,0,.43.536,1.707-1.714-.536-.533Zm-4.92,0,.536.536,1.711-1.714-.536-.533Zm-4.814,0,.43.536,1.711-1.714-.43-.533Zm-4.811,0,.43.536,1.711-1.714-.533-.533Zm26.628-2.349.427.427,1.711-1.711-.423-.43Zm-4.814,0,.43.427,1.711-1.711-.533-.43Zm-4.917-.109.533.536,1.714-1.711-.536-.43Zm-4.814.109.43.427,1.711-1.711-.427-.43Zm-4.811,0,.43.427,1.707-1.711-.536-.43Zm-4.92,0,.536.427,1.711-1.711-.536-.43Zm-4.811,0,.427.427,1.711-1.711-.427-.43Zm26.624-2.462.539.536,1.707-1.711-.533-.536Zm-4.811,0,.427.536,1.714-1.711-.427-.536Zm-4.811,0,.43.43,1.707-1.6-.536-.536Zm-4.92,0,.536.43,1.711-1.6-.536-.536Zm-4.814,0,.43.43,1.711-1.6-.43-.536Zm-4.811,0,.43.43,1.711-1.6-.533-.536Zm-4.92,0,.533.43,1.714-1.711-.533-.43Zm31.548-2.462.427.536,1.711-1.707-.423-.536Zm-4.814,0,.43.536,1.711-1.707-.533-.536Zm-4.917,0,.533.536,1.714-1.707-.536-.536Zm-4.814,0,.43.536,1.711-1.707-.427-.536Zm-4.811,0,.43.536,1.707-1.707-.536-.536Zm-4.92,0,.536.536,1.711-1.707-.536-.536Zm-4.811,0,.427.536,1.711-1.707-.427-.536Zm26.624-2.352.539.43,1.707-1.711-.533-.43Zm-4.811-.106.427.536,1.714-1.711-.427-.43Zm-4.811.106.43.43,1.707-1.711-.536-.43Zm-4.92,0,.536.43,1.711-1.711-.536-.43Zm-4.814,0,.43.43,1.711-1.711-.43-.43Zm-4.811-.106.43.536,1.711-1.711-.533-.43Zm-4.92,0,.533.536,1.714-1.711-.533-.43Zm31.548-2.352.536.43,1.6-1.6-.423-.536ZM327,172.7v.106l.43.43,1.711-1.6-.533-.536Zm-4.917.106.533.43,1.714-1.714-.536-.427Zm-4.814,0,.43.43,1.711-1.6-.427-.536Zm-4.917,0,.536.43,1.707-1.714-.536-.427Zm-4.814,0,.536.43,1.711-1.6-.536-.536Zm-4.811,0,.427.43,1.711-1.714-.427-.427Zm-4.92,0,.533.43,1.714-1.714-.533-.427Zm31.544-2.462.539.539,1.707-1.711-.533-.536Zm-4.811,0,.427.539,1.714-1.711-.427-.536Zm-4.811,0,.43.539,1.707-1.711-.536-.536Zm-4.92,0,.536.539,1.711-1.711-.536-.536Zm-4.814,0,.43.539,1.711-1.711-.43-.536Zm-4.811,0,.43.539,1.711-1.711-.533-.536Zm-4.92,0,.533.539,1.714-1.711-.533-.536Zm31.548-2.458.427.536,1.711-1.711-.423-.536Zm-4.814.106.43.43,1.711-1.711-.533-.427Zm-4.384.43,1.714-1.711-.536-.427-1.6,1.6h-.106Zm-5.347-.536.43.536,1.711-1.711-.427-.427Zm-4.917,0,.536.536,1.707-1.711-.536-.427Zm-4.814,0,.536.536,1.711-1.711-.536-.427Zm-4.811,0,.427.536,1.711-1.711-.427-.427Zm-4.92,0,.533.536,1.714-1.711-.321-.321-.212-.106Zm31.544-2.352.539.43,1.707-1.714-.533-.427Zm-4.811,0,.427.43,1.714-1.714-.427-.427Zm-4.811,0,.43.43,1.707-1.608-.536-.533Zm-4.92,0,.536.43,1.711-1.714-.536-.427Zm-4.814,0,.43.43,1.711-1.714-.43-.427Zm-4.917,0,.536.43,1.711-1.714-.533-.427Zm-4.814,0,.533.43,1.714-1.714-.533-.427Zm31.548-2.455.427.533,1.711-1.714-.423-.533Zm-4.814,0,.43.533,1.711-1.714-.533-.533Zm-4.917,0,.533.533,1.714-1.714-.536-.533Zm-4.814,0,.43.533,1.711-1.714-.427-.533Zm-4.917,0,.536.533,1.707-1.714-.536-.533Zm-4.814,0,.536.533,1.711-1.714-.536-.533Zm-4.811,0,.427.533,1.711-1.714-.427-.533Zm-4.92,0,.533.533,1.714-1.714-.533-.533Zm31.544-2.465.539.539,1.707-1.714-.533-.533Zm-4.811,0,.427.539,1.714-1.714-.427-.533Zm-4.811.109.43.43,1.707-1.714-.536-.427Zm-4.92-.109.536.539,1.711-1.714-.536-.533Zm-4.814,0,.43.539,1.711-1.714-.43-.533Zm-4.917,0,.536.539,1.711-1.714-.533-.427Zm-4.814,0,.533.539,1.714-1.714-.533-.533Zm31.548-2.349.427.427,1.711-1.714-.423-.424Zm-4.92,0,.536.427,1.711-1.714-.533-.424Zm-4.811,0,.533.427,1.714-1.714-.536-.424Zm-4.814,0,.43.427,1.711-1.714-.427-.424Zm-4.917,0,.536.427,1.707-1.714-.536-.424Zm-4.814,0,.536.427,1.711-1.714-.427-.318-.109-.106Zm-4.811,0,.427.427,1.711-1.714-.427-.424Zm-4.92,0,.533.427,1.714-1.714-.533-.424ZM260.063,193.98l.642-.639-.529-.533L259.1,193.98h-3.954l.639-.639-.427-.533-1.171,1.171h-3.855l.645-.639-.539-.533-1.069,1.171h-3.848l.533-.639-.427-.533-1.069,1.171H240.6l.642-.639-.43-.533-1.175,1.171h-3.848l.639-.639-.533-.533-1.065,1.171h-3.854l.536-.639-.43-.533-1.069,1.171h-3.957l.642-.639-.533-.533-1.072,1.171h-.533V191.2l-1.926-1.926-.963-2.352,2.888,2.783.427.427,1.711-1.6-.533-.539-1.6,1.714v-3.421l-5.132-5.026-.963-2.458,6.521,6.521,1.711-1.711-.533-.427-1.6,1.6v-3.322l-8.341-8.338-.963-2.352,9.731,9.731L226.7,178.8l-.533-.539-1.6,1.714v-3.315l-11.55-11.547-.963-2.465,12.513,12.516V171.74L209.7,156.98l-.963-2.455,16.255,16.252,1.711-1.714-.533-.427-1.6,1.608v-3.315l-12.834-12.834-5.238-5.132-.963-2.462,19.461,19.465,1.711-1.711-.533-.533-1.6,1.711v-3.319l-21.281-21.281-.963-2.455,22.671,22.667,1.711-1.6-.533-.539-1.6,1.714V157.2L200.071,132.7l-.959-2.352,25.877,25.883,1.711-1.711-.533-.43-1.6,1.6v-3.315l-27.7-27.693-.963-2.458,29.086,29.192,1.711-1.711-.427-.536-1.711,1.714v-3.315L193.55,116.559l-.963-2.352,5.347,5.244L222.1,143.719l2.888,2.783,1.711-1.6-.427-.536-1.711,1.714V142.65l-34.221-34.108-.963-2.458,35.611,35.607,1.711-1.714-.427-.427-1.711,1.608v-3.315l-37.427-37.43-.963-2.458,38.817,38.926,1.711-1.711-.427-.536-1.711,1.711v-3.319L185.745,94.212V97.1l-38.82,38.817v-2.888l38.82-38.813-.963-.963-23.527,23.418L146.925,131.1v-2.991l12.725-12.728.215-.106L183.6,91.536l-.642-1.39L158.9,114.316l-11.977,11.868V123.3l36.358-36.358-.959-.96-35.4,35.4v-2.888L179.114,86.3l.106-.215,1.714-1.6-.324-.218-.321-1.069-33.364,33.364v-2.991l29.728-29.731,4.281-4.169-.966-.963-33.043,32.937v-2.885l31.548-31.551-.963-.959-30.585,30.581V103.94l29.728-29.724-.215-.427.321.318,1.714-1.707-.963-.963-30.585,30.476V99.02l29.086-29.083-.963-.963L168.633,75.5l-.215.109L146.925,97.1V94.212l26.949-26.952-.536-1.39L146.925,92.287V89.4l26.733-26.734L172.7,61.7,146.925,87.364V84.482L171.2,60.2l-.215-.212-.427-1.072L146.925,82.556V79.668L171.2,55.4l-.963-.963L146.925,77.742V74.857l21.814-21.926-.96-.959L146.925,72.826V69.937l20-20-.215-.427.321.321,1.711-1.711-.96-.963L146.925,68.012V65.127L166.39,45.665l-.963-.963-18.5,18.5V60.309l3.1-3.1.109-.215,14.009-14.005-.536-1.287L146.925,58.281V55.4l17-17-.959-.963L146.925,53.47V50.579L161.47,36.037l-.215-.321-.427-.959-13.9,13.9V45.665L161.47,31.117l-.963-.959L146.925,43.736V40.848l12.192-12.08-.963-.963-11.229,11.12V36.037l10.267-10.267-.106-.536.324.324,1.707-1.714-.963-.963L146.925,34.115v-3l9.731-9.625-.963-.959L146.925,29.2V26.31l7.593-7.491-.642-1.39-6.951,6.951V21.493l7.276-7.269-.966-.963-6.309,6.31V16.579l4.92-4.817-.321-.212-.427-1.072-4.172,4.172V11.762l3.1-2.991.109-.218,1.711-1.6-1.069-.959L146.925,9.84V6.951l2.458-2.462-.963-.963-1.5,1.5V2.035l.642-.533-.215-.43.321.321L148.957,0h2.994l-.427.424.963.966L153.876,0h2.885l-.321.424.969.966L158.687,0h2.892l-.324.424.963.966L163.5,0H166.5l-.427.424.959.966L168.418,0h2.888l-.321.424.963.966L173.232,0h2.885L175.8.427l.963.966L178.042,0h2.994l-.427.424.963.966L182.962,0h2.783V.109l-.212.318.639.539.963,2.458-1.39-1.39-.963-.963-1.714,1.711.963.963,1.714-1.711V5.026l-.212.215,3.845,3.848.963,2.462-4.6-4.6V9.84l-.212.212,7.054,7.166.963,2.352-7.8-7.808-.963-.959-1.714,1.711.963.963,1.714-1.714V14.65l-.212.321,10.26,10.263.963,2.465-11.011-11.12-.963-.966-1.714,1.711.963.963,1.714-1.707V19.57l-.212.212,7.7,7.7L199,33.367l1.069,2.349L184.782,20.533l-1.714,1.711.963.963,1.714-1.714v2.888l-.212.215,5.234,5.35,11.55,11.438.963,2.462L185.745,26.31l-.963-.963-1.714,1.707.963.963,1.714-1.707V29.2l-.321.321,2.779,2.67,17.324,17.327.963,2.458L185.745,31.117l-.963-.959-1.714,1.711.963.963,1.714-1.714v3l-.321.212.321.212,22.988,23.1.963,2.349L185.745,36.041v2.885l-.321.212,26.518,26.522.963,2.458-5.883-5.989-.212-.109L185.745,40.848l-.963-.959L183.068,41.6l.963.966v-.109l1.714-1.608v2.888l-.321.218,29.834,29.834.963,2.352-11.656-11.55-.106-.215-18.713-18.71-.963-.963-1.714,1.707.963.963,1.714-1.707v2.988l-.321.218,33.043,32.937.963,2.455L202.212,66.946,202,66.837,185.745,50.579l-.963-.963-1.714,1.608.963,1.069,1.714-1.714V53.47l-.321.212,36.249,36.252.963,2.352L185.745,55.4l-.963-.963-1.714,1.707.963.963,1.714-1.707v2.885l-.321.212L224.988,98.06l2.247-2.352,36.143-36.034v3.845l-38.817,38.82V99.02L185.745,60.2l-.963-.959-1.714,1.711.963.963,1.714-1.714v2.888l-.212.321,9.942,9.949.215.106,29.3,29.407,28.98-28.98.218-.106,9.191-9.2v3.851l-7.484,7.378L227.016,104.8l.43.533L263.378,69.4v3.848l-34.542,34.542.321.645,34.221-34.221v3.954l-2.458,2.352-.109.218L236.75,104.8l-.212.1-7.166,7.17.536.533,33.47-33.473v3.855l-.215.106L239,107.367l-7.378,7.266.318.751,31.438-31.438V87.8l-31.544,31.548.427.533,31.117-31.121v3.96l-19.57,19.461-9.516,9.625.427.427v.106l9.625-9.731L263.378,93.68v3.845L234.292,126.61l.427.536,28.659-28.659v3.851l-26.734,26.734.215.212.321.218,26.2-26.2v3.954L238.57,131.96l.321.744-.536-.533-1.711,1.714.536.533,26.2-26.2v3.855L239.1,136.344l.43.427,23.845-23.739v3.848l-22.029,22.032.321.748,21.708-21.817v3.96l-5.022,4.913-16.9,16.9.536.536,17-17.112,4.384-4.271v3.845l-19.461,19.468.427.423,19.034-18.928v3.855l-19.461,19.461.533.533,18.929-18.929v3.851l-17,17,.43.427,16.57-16.467v3.855L248.3,156.235l.215.744,14.862-14.862v3.848l-14.651,14.654.536.427,14.115-14.005v3.848l-12.3,12.3.215.642,12.083-11.98V155.7l-12.189,12.2.533.427,11.656-11.66v3.855l-9.731,9.731.427.427v.106l9.3-9.2v3.855l-9.731,9.731.427.427,2.352-2.243.109-.218,6.842-6.736v3.851l-4.917,4.811L256,177.516l.536.533,2.25-2.349,4.592-4.5v3.96l-2.458,2.352-.109.208-2.885,2.783.321.642,5.132-5.022v3.848l-.215.1-4.7,4.711.533.533,4.384-4.387v3.855l-2.673,2.67.321.645,2.352-2.352v3.954l-2.458,2.349.427.536,2.031-1.926v3.315Zm-3.957-1.813.43.423,1.711-1.707-.43-.427Zm-4.917,0,.533.423,1.711-1.707-.533-.427Zm-4.811,0,.43.423,1.707-1.707-.43-.427Zm-4.814,0,.427.423,1.711-1.707-.533-.427Zm-4.92-.112.536.536,1.711-1.707-.536-.427Zm-4.811,0,.427.536,1.711-1.707-.427-.427Zm-4.817,0,.43.536,1.711-1.707-.533-.536Zm31.445-2.349.533.533,1.711-1.707-.529-.539Zm-4.814,0,.539.533,1.6-1.707-.427-.539Zm-4.814,0,.43.533,1.714-1.707-.43-.539Zm-4.917,0,.533.427,1.714-1.6-.536-.539Zm-4.814,0,.43.427,1.711-1.711-.43-.43Zm-4.811,0,.427.427,1.711-1.711-.533-.43Zm-4.92,0,.536.427,1.714-1.711-.539-.43Zm26.734-2.458.43.533,1.711-1.711-.43-.536Zm-4.917,0,.533.533,1.711-1.711-.533-.536Zm-4.811,0,.43.533,1.707-1.711-.43-.536Zm-4.814,0,.427.533,1.711-1.711-.533-.536Zm-4.92,0,.536.533,1.711-1.711-.536-.536Zm-4.811,0,.427.533,1.711-1.711-.427-.536Zm-4.817,0,.218.212.212.321,1.711-1.711-.533-.536Zm26.631-2.352.539.427,1.6-1.711-.427-.427Zm-4.814,0,.43.427,1.714-1.711-.43-.427Zm-4.917,0,.533.427,1.714-1.711-.536-.427Zm-4.814-.106.43.533,1.711-1.711-.43-.427Zm-4.811,0,.427.533,1.711-1.711-.533-.427Zm-4.92,0,.536.533,1.714-1.711-.539-.536Zm26.734-2.359.43.539,1.711-1.711-.43-.536Zm-4.917,0,.533.539,1.711-1.711-.533-.536Zm-4.811,0,.43.43,1.707-1.6-.43-.536Zm-4.814,0,.427.43,1.711-1.6-.533-.536Zm-4.92,0,.536.43,1.711-1.711-.536-.427Zm-4.811,0,.427.43,1.711-1.711-.427-.427Zm-4.817,0,.43.43,1.711-1.711-.533-.427Zm26.631-2.455.539.533,1.6-1.707-.427-.539Zm-4.814,0,.43.533,1.714-1.707-.43-.539Zm-4.917,0,.533.533,1.714-1.707-.536-.539Zm-4.814,0,.43.533,1.711-1.707-.43-.539Zm-4.811,0,.427.533,1.711-1.707-.533-.539Zm-4.92,0,.536.427,1.714-1.6-.539-.539Zm21.817-2.352.533.427,1.711-1.714-.533-.427Zm-4.811,0,.43.427,1.707-1.714-.43-.427Zm-4.814-.106.427.533,1.711-1.714-.533-.427Zm-4.92,0,.536.533,1.711-1.714-.536-.427Zm-4.811,0,.427.533,1.711-1.714-.427-.427Zm-4.817,0,.43.533,1.711-1.714-.533-.529Zm21.817-2.352.43.427,1.714-1.711-.43-.427Zm-4.917,0,.533.427,1.714-1.711-.536-.427Zm-4.814,0,.43.427,1.711-1.711-.43-.427Zm-4.811,0,.427.427,1.711-1.711-.533-.427Zm-4.92,0,.536.427,1.714-1.711-.539-.427Zm-4.384.427,1.711-1.6-.533-.533-1.6,1.71Zm26.2-2.888.533.533,1.711-1.707-.533-.536Zm-4.811,0,.43.533,1.707-1.707-.43-.536Zm-4.814,0v.109l.427.424,1.711-1.707-.533-.536Zm-4.92,0,.536.533,1.711-1.707-.536-.536Zm-4.811,0,.427.533,1.711-1.707-.427-.536Zm-4.817,0,.43.427,1.711-1.6-.533-.536Zm21.817-2.458.43.533,1.714-1.714-.43-.427Zm-4.917,0,.533.533,1.714-1.714-.536-.427Zm-4.814,0,.43.533,1.711-1.714-.43-.533Zm-4.811,0,.427.533,1.711-1.714-.533-.533Zm-4.92,0,.536.533,1.714-1.714-.539-.533Zm17.006-2.352.43.427,1.707-1.608-.215-.318-.215-.215Zm-4.814,0,.427.427,1.711-1.711-.533-.43Zm-4.92,0,.536.427,1.711-1.711-.536-.43Zm-4.811,0,.427.427,1.711-1.711-.427-.43Zm-4.817,0,.43.427,1.711-1.711-.533-.43Zm21.817-2.458v.106l.215.106.215.321,1.714-1.711-.218-.324-.212-.208Zm-4.917,0,.533.533,1.714-1.711-.536-.533Zm-4.814,0,.43.533,1.711-1.711-.43-.533Zm-4.811,0,.427.533,1.711-1.711-.533-.533Zm-4.92,0,.536.424,1.714-1.6-.539-.533Zm17.006-2.465.43.536h.1l1.6-1.707-.43-.427Zm-4.814,0,.427.536L243.7,161.8l-.533-.427Zm-4.92,0,.536.536,1.711-1.707-.536-.539Zm-4.811,0,.427.536,1.711-1.707-.427-.539Zm-4.817,0,.43.536,1.711-1.707-.533-.539Zm16.9-2.349.533.427,1.714-1.714-.536-.427Zm-4.814,0,.43.427,1.711-1.714-.43-.427Zm-4.811,0,.427.427,1.711-1.714-.533-.427Zm-4.92,0,.536.427,1.714-1.714-.539-.427Zm17.006-2.458.43.533,1.707-1.714-.43-.529Zm-4.814,0,.427.533v-.106l1.711-1.608-.533-.529Zm-4.92,0,.536.533,1.711-1.714-.536-.529Zm-4.811,0,.427.427,1.711-1.608-.427-.529Zm-4.817,0,.43.427,1.711-1.711-.533-.427Zm16.9-2.465.533.539,1.714-1.711-.536-.536Zm-4.814,0,.43.539,1.711-1.711-.43-.536Zm-4.811,0,.427.539,1.711-1.711-.533-.536Zm-4.92,0,.536.539,1.714-1.711-.539-.536Zm12.192-2.352.427.427,1.711-1.7-.533-.43Zm-4.92,0,.536.427,1.711-1.7-.536-.43Zm-4.811,0,.427.427,1.711-1.7-.427-.43Zm-4.817-.1.43.529,1.711-1.7-.533-.43Zm12.086-2.352.43.427,1.711-1.6-.43-.536Zm-4.811,0,.427.427,1.711-1.6-.533-.536Zm-4.92,0,.536.427,1.714-1.6-.539-.536Zm12.192-2.458.427.533,1.711-1.711-.533-.533Zm-4.92,0,.536.533,1.711-1.711-.536-.533Zm-4.811,0,.427.533,1.711-1.711-.427-.533Zm-4.817,0,.43.533,1.711-1.711-.533-.533Zm12.086-2.352.43.423,1.711-1.707-.43-.43Zm-4.811,0,.427.423,1.711-1.707-.533-.43Zm-4.92-.112.536.536,1.714-1.707-.539-.43Zm7.272-2.352.536.43,1.711-1.6-.536-.536Zm-4.811,0,.427.43,1.711-1.714-.427-.427Zm-4.817,0,.43.43,1.711-1.714-.533-.427Zm12.086-2.455.43.533,1.711-1.714-.43-.533Zm-4.811,0,.427.533,1.711-1.714-.533-.533Zm-4.92,0,.536.533,1.714-1.714-.539-.533Zm7.272-2.352.536.427,1.711-1.711-.536-.427Zm-4.811-.113.427.539,1.711-1.711-.427-.427Zm-4.817,0,.218.218.212.321,1.711-1.711-.533-.536Zm7.276-2.349.427.427,1.711-1.707-.533-.43Zm-4.92,0,.536.427,1.714-1.707-.539-.43Zm2.462-2.458.427.533,1.711-1.714-.427-.533Zm-4.817,0,.43.533,1.711-1.714-.533-.533Zm7.276-2.458.427.533,1.711-1.714-.321-.212-.212-.215Zm-4.92,0,.536.533,1.714-1.714-.539-.427ZM185.745,92.181l-.212.212,39.455,39.568,1.711-1.714-.427-.533-1.711,1.714v-3.315L207.023,110.57l-.106-.208L184.782,88.326l-1.714,1.717.963.963,1.714-1.717Zm46.089,36.891.427.43,1.711-1.711-.427-.43Zm-4.817,0,.43.43,1.711-1.711-.533-.43Zm2.356-2.462.536.536,1.714-1.707-.539-.536Zm-4.811,0,.427.427,1.711-1.6-.427-.536ZM185.745,87.364l-.212.218,39.028,39.028v-3.418L185.745,84.482Zm46.089,36.792.427.533,1.711-1.714-.427-.427Zm-4.817,0,.43.533,1.711-1.714-.533-.533Zm2.356-2.352.536.427,1.714-1.711-.539-.43ZM185.745,82.447l-.212.321,39.455,39.462,1.711-1.711-.427-.43-1.711,1.608v-3.322L185.745,79.559Zm41.271,36.9.43.424,1.711-1.6-.533-.536Zm2.356-2.465.536.536,1.714-1.711-.539-.536ZM185.745,77.636l-.212.212,39.561,39.568,1.6-1.711-.427-.536-1.711,1.711v-3.312L214.4,103.3,190.132,79.026l-5.35-5.238L183.068,75.5l.963.963,1.714-1.707Zm41.271,36.894.43.427,1.711-1.714-.533-.427Zm-2.455-2.458.533.427,1.6-1.711-.427-.427ZM185.745,72.826l-.212.212,5.128,5.132.215.106,24.169,24.275,9.516,9.41v-3.312L185.745,69.831Zm0-4.92-.212.212,39.455,39.568,1.711-1.714-.427-.424-1.711,1.6v-3.312L184.782,64.058l-1.714,1.707.963.963,1.714-1.707ZM183.068,85.12l.963.963,1.714-1.707-.536-.43-.427-.533Zm-2.458-2.352,1.069.963,1.6-1.707-.959-.966Zm2.458-2.458.963.966,1.714-1.717-.963-.959Zm-2.458-2.462,1.069.966,1.6-1.711-.959-.963ZM178.258,75.5l.963.963,1.714-1.707-.966-.963Zm2.458-2.458.963.959,1.711-1.711-.963-.959Zm2.352-2.458.963.963,1.714-1.711-.963-.963Zm-4.811,0,.963.963,1.714-1.711-.966-.963Zm2.458-2.462.963,1.072,1.711-1.711-.963-.963Zm-4.92.109.963.963,1.714-1.711-.963-.963Zm2.462-2.462.963.963,1.714-1.707-.966-.963Zm-4.92,0,1.069.963,1.6-1.707-.963-.963Zm7.272-2.458.963.963,1.711-1.714-.959-.963Zm-4.814,0,.963.963,1.714-1.714-.963-.963Zm2.462-2.352.963.963,1.714-1.714-.966-.959Zm-4.92-.106,1.069,1.069,1.6-1.714-.963-.959Zm7.272-2.356.963.966,1.711-1.711-.959-.963Zm-4.814,0,.963.966,1.714-1.711-.963-.963Zm-4.811,0,.963.966,1.711-1.711-.963-.963Zm7.272-2.458.963.963,1.714-1.707-.966-.966Zm-4.811,0,.959.963,1.711-1.707-.959-.966Zm7.269-2.455.963,1.065,1.711-1.714-.963-.959Zm-4.92,0,.963,1.065,1.714-1.714-.963-.959Zm-4.811,0,.963.959,1.711-1.608-.963-.959Zm7.272-2.356.963.963,1.714-1.714-.966-.959Zm-4.811,0,.959.963,1.711-1.714-.959-.959Zm-4.92,0,.963.963,1.711-1.714-.963-.959Zm12.189-2.462.963.963,1.711-1.711-.963-.96Zm-4.92,0,.963.963,1.714-1.711-.963-.96Zm-4.811,0,.963.963,1.711-1.711-.533-.533-.215-.109-.215-.318Zm7.272-2.458.963.963,1.714-1.6-.966-.963Zm-4.811,0,.212.321.748.642,1.711-1.6-.959-.963Zm-4.92,0,.963.963,1.711-1.6-.963-.963Zm12.189-2.349.963.959,1.711-1.714-.963-.959Zm-4.92,0,.963.959,1.714-1.714-.963-.959Zm-4.811,0,.963.959,1.711-1.714-.963-.959Zm-4.807,0,.96.959,1.6-1.714-.96-.959Zm12.08-2.462.963.963,1.714-1.711-.966-.963Zm-4.811,0,.959.963,1.711-1.711-.959-.963Zm-4.92,0,.963.963,1.711-1.711-.963-.963Zm-4.814,0,.963.963,1.714-1.711-.963-.963Zm17-2.462.218.324.212.1.533.645,1.711-1.711-.963-.963Zm-14.538,0,.96,1.072,1.711-1.711-1.069-.963Zm9.618,0,.963.963,1.714-1.6-.963-1.075Zm-4.811,0,.963.963,1.711-1.6-.963-.963Zm12.083-2.247.963.963,1.714-1.711-.963-.959Zm-4.811-.106.963.959,1.714-1.711-.966-.963Zm-4.811,0,.959.959,1.711-1.711-1.069-.963Zm-4.92,0,.963.959,1.711-1.711-.963-.963Zm-4.814,0,.963.959,1.714-1.711-.963-.963Zm17-2.458.963.963,1.711-1.714-.963-.963Zm-4.92,0,.963.963,1.714-1.714-.963-.963Zm-4.811,0,.963.963,1.711-1.714-.963-.963Zm-4.807,0,.96.963,1.711-1.714-1.069-.963Zm-4.923,0,.963.963,1.711-1.714-.959-.963Zm17-2.462.963.966,1.714-1.608-.966-1.065Zm-4.811,0,.959.966,1.711-1.711-1.069-.963Zm-4.92,0,.963.966,1.711-1.608-.963-1.065Zm-4.814,0,.963.966,1.714-1.608-.963-.959Zm17-2.352.963.963,1.711-1.707-.963-.963Zm-4.92,0,.963.963,1.714-1.707-.963-.963Zm-4.811,0,.963.963,1.711-1.707L172.7,27.7Zm-4.807,0,.96.963,1.711-1.707-.963-.963Zm-4.923,0,.963.963,1.711-1.707-.959-.963Zm17-2.455.963.959,1.714-1.714-.966-.963Zm-4.811,0,.959.959,1.711-1.714-1.069-.963Zm-4.92,0,.963.959L171.2,26.2l-.963-.963Zm-4.814,0,.963.959L166.39,26.2l-.963-.963Zm-4.811,0,.963.959,1.6-1.714-.963-.963Zm21.814-2.462.963.963,1.711-1.711-.963-.963Zm-4.92,0,.963.963,1.714-1.711-.963-.963Zm-4.811,0,.963.963,1.711-1.711-.963-.963Zm-4.807,0,.96.963,1.711-1.711-.963-.963Zm-4.923,0,.963.963,1.711-1.608-.959-1.065Zm17-2.352.963.963,1.714-1.711-.966-.963Zm-4.811,0,.959.963,1.711-1.711-1.069-.963Zm-4.92,0,.963.963L171.2,21.39l-.963-.963Zm-4.814,0,.963.963,1.714-1.711-.963-.963Zm-4.811,0,.963.963,1.6-1.711-.963-.963Zm21.814-2.462.963.959,1.711-1.707-.963-.959Zm-4.92,0,.963.959,1.714-1.707-.963-.959Zm-4.811,0,.963.959,1.711-1.707-.963-.959Zm-4.807,0,.96.959,1.711-1.707-1.069-.959Zm-4.923,0,.963.959,1.711-1.707-.959-.959Zm-4.814,0,.969.959,1.707-1.707-.963-.959Zm21.817-2.458.963.963,1.714-1.714-.966-.963Zm-4.811,0,.959.963,1.711-1.714-1.069-.963Zm-4.92,0,.963.963,1.711-1.714-.963-.963Zm-4.814,0,.963.963,1.714-1.714-.963-.963Zm-4.811,0,.963.963,1.714-1.6L160.507,15.5Zm-4.92,0,.963.963,1.711-1.714-.963-.963Zm26.734-2.352.963.963,1.711-1.714-.963-.963Zm-4.92,0,.963.963,1.714-1.714-.963-.963Zm-4.811,0,.963.963,1.711-1.714-.963-.963Zm-4.807,0,.96.963,1.711-1.714-1.069-.963Zm-4.923-.106.963,1.069,1.711-1.714-.959-.963Zm-4.814,0v.106l.969.963,1.707-1.714-.963-.963ZM178.258,12.4l.963.966,1.714-1.714-.966-.959Zm-4.811,0,.959.966,1.711-1.714-.959-.959Zm-4.92,0,.963.966,1.711-1.714-.963-.959Zm-4.814,0,.963.966,1.714-1.714-.963-.959Zm-4.811,0,.963.966,1.6-1.714-.536-.533-.106-.218-.321-.208Zm-4.92,0,.963.966,1.711-1.714-.963-.959Zm26.734-2.462.963.963,1.711-1.711-.963-.963Zm-4.92,0,.963.963,1.714-1.711-.963-.963Zm-4.811,0,.963.963,1.711-1.711-.963-.963Zm-4.807,0,.96.963,1.711-1.711-1.069-.963Zm-4.923,0,.963.963,1.711-1.711-.959-.963Zm-4.814,0,.969.963,1.707-1.711-.963-.963Zm-4.811,0,.963.963L154.2,9.195l-.966-.963ZM183.068,7.7l.963.959,1.714-1.707-.963-.959Zm-4.811-.106.963.959,1.714-1.711-.966-.963Zm-4.811,0,.959.959,1.711-1.711-1.069-.963Zm-4.92,0,.963.959L171.2,6.842l-.963-.963Zm-4.814,0,.963.959,1.714-1.711-.963-.963Zm-4.811,0,.963.959,1.6-1.711-.963-.963Zm-4.92-.106.963,1.065,1.711-1.711-.963-.963Zm26.734-2.352.963.963,1.711-1.711-.963-.963Zm-4.92,0,.963.963,1.714-1.711-.963-.963Zm-4.811,0,.963.963,1.711-1.711-.963-.963Zm-4.807,0,.96.963,1.711-1.711-.963-.963Zm-4.923,0,.963.963,1.711-1.711-.959-.963Zm-4.814,0,.969.963,1.707-1.711-.963-.963Zm-4.811,0,.963.963L154.2,4.387l-.966-.963Zm26.628-2.462.963.963,1.714-1.711-.966-.959Zm-4.811,0,.959.963,1.711-1.711-.959-.959Zm-4.92,0,.963.963L171.2,1.926l-.963-.959Zm-4.814,0,.963.963,1.714-1.711-.963-.959Zm-4.811,0,.963.963,1.714-1.711L160.507.966Zm-4.92,0,.963.963,1.711-1.711-.963-.959Zm-4.811,0,.963.963,1.711-1.711-.963-.959ZM182.962,193.98l2.783-2.779v2.779Zm-4.814,0,7.6-7.587v2.882l-4.708,4.7Zm-4.917,0,12.513-12.513v3l-9.519,9.512Zm-4.814,0,17.327-17.321v2.885L171.306,193.98Zm-4.811,0,22.138-22.135v2.892L166.5,193.98Zm-4.92,0,27.058-27.051v2.991l-24.166,24.06Zm-4.811,0,31.868-31.865V165L156.762,193.98Zm-4.92,0L185.745,157.3v2.885L151.951,193.98Zm-2.031,0V191.2l38.82-38.82v3l-17.218,17.112-.109.212L147.031,193.98Zm-68.541-.744-.43.427.218.212H74.318l-35.5-35.392v.963l34.539,34.429H69.4L38.817,163.293v.963l29.625,29.619H64.587L38.817,168.107v.963l24.811,24.8H59.777l-20.96-20.851v.963l3,2.888,16.894,17H54.857l-16.04-16.037v.963L53.9,193.874H50.046L38.817,182.648v.963l10.27,10.263h-3.96l-6.31-6.306v.963l5.35,5.343H40.312l-1.5-1.5v.963l.536.533H35.5l-.748-.639-.536.427.324.212h-3.96l-.639-.639-.536.427.215.212H25.771l-.748-.639-.43.427.218.212H20.957l-.744-.639-.536.427.321.212H16.04l-.642-.639-.536.427.215.212H11.226l-.744-.639-.43.427.215.212H6.415l-.748-.639-.536.427.215.212H1.5l-.639-.639-.536.427.212.212H0v-41.6L36.358,115.92l-.963-.963L0,150.353v-2.885L27.269,120.2l4.169-4.278-.963-.963L0,145.542v-2.994l.751-.642,24.272-24.275,1.6-1.711-.963-.963-1.6,1.711L0,140.622v-2.885L21.814,115.92l-.963-.963L0,135.808v-2.885l16.9-17-.963-.963L0,131v-2.991L12.083,115.92l-.963-.963L0,126.078v-2.885l7.272-7.272-.963-.963L0,121.267v-2.885l2.352-2.462-.963-.963L0,116.453v-4.275l.642.642,1.711-1.711-.963-.963L0,111.536v-4.275l.642.744L2.352,106.3l-.963-.963L0,106.722v-4.278l.751.642,1.6-1.707-.963-.963L0,101.912V97.634l.751.642,1.6-1.711L1.39,95.6,0,96.992V92.714l.751.751v-.109l1.6-1.6-.963-.963L0,92.181V87.9l.751.645,1.6-1.711-.963-.963L0,87.367V83.092l.751.639,1.6-1.707-.963-.963L0,82.45V78.172l.751.748L38.817,40.742v2.888L4.6,77.957l.963.963L38.817,45.665V48.55L9.41,77.957l.959.963L22.455,66.731,38.817,50.476v2.888L23.848,68.333,14.33,77.957l.963.963L38.817,55.29v2.885L19.144,77.851,20.1,78.92,38.817,60.207V63.1L23.954,77.851l.959,1.069,13.9-13.9v2.885l-9.942,9.946.963.963,8.98-8.986V72.72l-5.132,5.132.963.963,4.169-4.063v2.885l-.318.215,38.5,38.5H75.5L38.817,79.671V82.45l-.318.318,19.888,19.785,13.688,13.794H70.682L38.817,84.482v2.779l-.318.321,28.765,28.765h-1.5L55.181,105.654,37.854,88.33l-1.711,1.6L37.109,91,38.817,89.3v2.885l-.318.212,23.954,23.954h-1.5L38.817,94.209v2.783l-.318.324,19.034,19.031H56.14L38.817,99.026v2.885l-.318.212,14.22,14.224h-1.5l-12.4-12.5v2.877l-.318.321,9.41,9.3h-1.5l-7.593-7.59v2.779l-.318.318,4.49,4.493H41.6l-2.779-2.779-.963-1.069-1.711,1.711.966.963,1.707-1.6v2.885L6.845,148.325l-6.74,6.839H.533l.751.751.533-.536-.321-.215h.536l36.785-36.782v2.885l-33.9,33.9h.427l.748.751.533-.536-.318-.215h.536l31.971-31.971v2.885L9.731,155.164h.536l.748.751.43-.536-.218-.215h.539l27.051-27.157V131L14.65,155.164h.427l.748.751.533-.536-.318-.215h.536l22.24-22.24v2.885L19.461,155.164H20l.642.751.536-.536-.218-.215h.43l17.43-17.426v2.885L24.275,155.164h.536l.744.642.43-.427-.215-.215h.536l12.51-12.616v2.994l-9.625,9.621h.43l.748.642.533-.427-.321-.215h.539l7.7-7.7v2.885l-4.811,4.811h.536l.639.642.533-.427-.212-.215h.43l2.885-2.885v2.885h.536l38.281,38.178v-.963L40.312,155.164h3.855l9.731,9.625,23.736,23.743v-.963l-32.507-32.4h3.96l28.547,28.553v-1.069L57,162.009l-.215-.106-6.736-6.74H53.9L77.633,178.8v-.963L54.857,155.164h3.851l18.925,18.823v-.963l-17.966-17.86h3.96L77.633,169.07v-.963L64.587,155.164h3.855l9.191,9.092v-.963L69.4,155.164h3.954l4.278,4.281v-.963l-3.315-3.319h3.315v-2.885l36.252-36.358-.963-.963-35.29,35.4v-2.885l31.442-31.548-.959-.963L77.633,145.542v-2.994l26.628-26.628-.959-.963L77.633,140.622v-2.885L99.344,115.92l-.966-.963-13.79,13.794-6.955,7.057v-2.885l5.565-5.668L94.53,115.92l-.963-.963L82.232,126.293l-4.6,4.7v-2.991L89.719,115.92l-.963-.963-11.124,11.12v-2.885L84.8,115.92l-.963-.963-6.2,6.31v-2.885l2.356-2.462-.966-.963-1.39,1.5v-2.885L62.238,98.275,41.6,77.53h1.393l35.29,35.29,1.711-1.711-.966-.963-1.39,1.39v-2.779L46.41,77.53h1.5l30.37,30.476,1.711-1.711-.966-.963-1.39,1.39v-2.885L67.264,93.571,51.22,77.53h1.5l25.559,25.556,1.711-1.707-.966-.963-1.39,1.5V99.026L56.14,77.53h1.393L78.278,98.275l1.711-1.711-.966-.963-1.39,1.39V94.209L60.951,77.53h1.5L72.716,87.8l5.562,5.668,1.711-1.711-.966-.963-1.39,1.39V89.3L65.765,77.53h1.5L78.278,88.545l1.711-1.711-.966-.963-1.39,1.39V84.482L70.682,77.53h1.393l6.2,6.2,1.711-1.707-.966-.963-1.39,1.39V79.671L75.5,77.53h1.5l1.284,1.39,1.284-1.39a26.281,26.281,0,0,0,2.885.106l-.321.215.427.43.536.639,1.178-1.178c.959.109,1.922.109,2.885.215l.857.963.639-.748,4.172.642v.106l.109-.106c.744.212,1.6.318,2.352.533l-.963.963.963.963,1.5-1.5,2.779.963.536.533.215-.212,2.031.963-.751.744.966.963.963-1.069c.639.43,1.28.751,1.816,1.178l-1.39,1.39,1.069.963,1.39-1.5a8.883,8.883,0,0,1,1.5,1.39l-1.5,1.5.963.963,1.5-1.5c.427.533.857,1.069,1.284,1.707L108.86,90.04l.963.963,1.072-1.175a17.72,17.72,0,0,1,1.069,1.926l-.751.744,1.072.966.318-.427a28.075,28.075,0,0,1,2.035,5.774l-.963.959.963.963.318-.318c.215.748.321,1.6.539,2.564l-.112-.106-1.707,1.711.963.963,1.069-1.072c.106,1.284.321,2.567.427,3.957l-.751-.748-1.707,1.711.963.963,1.5-1.39a22.573,22.573,0,0,1,.106,2.673l-.106.212.212.218v1.5c0,.857.109,1.816.109,2.779v.106l-38.82,38.711h.539l.744.642.43-.427-.215-.215h.536l15.613-15.719,21.172-21.063v2.885l-33.9,33.9h.43l.748.642.536-.427-.324-.215h.536l31.974-31.971v2.885L87.367,155.164H87.9l.639.642.536-.427-.212-.215h.427l27.16-27.157V131L92.178,155.164h.536l.748.642.43-.427-.218-.215h.536l8.344-8.447,13.79-13.794v2.885L97.1,155.164h.43l.744.642.536-.427-.321-.215h.536l17.321-17.426v2.885l-14.435,14.541h.536l.748.642.43-.427-.218-.215h.43l12.51-12.616v2.994l-9.516,9.621h.43l.744.642.43-.427-.215-.215h.536l7.59-7.7v2.885l-4.7,4.811h.43l.748.642.536-.427-.212-.215h.423l2.888-2.885v2.885a103.723,103.723,0,0,1-.748,12.192l-.963-.854-.427.533.959.963.324-.321-.645,3.851-.212-.106-.427.427.427.43A35.974,35.974,0,0,1,112.5,178.8l-.106-.109-.533.427.318.324a18.41,18.41,0,0,1-1.39,2.455l-.854-.857-.427.539.85.857a21.744,21.744,0,0,1-7.054,6.521l-.642-.645-.43.536.43.427a28.619,28.619,0,0,1-6.415,2.571l.106-.109-.963-.959-.536.427.857.857a66.463,66.463,0,0,1-7.378,1.28l-.215-.106-.212.212-4.066.321-.533-.533-.533.427.106.106c-1.181.106-2.458.106-3.745.106Zm-41.7-1.926.963.963.536-.536-.963-.959Zm-4.814,0,.963.963.536-.536-1.069-.959Zm-4.811,0,.963.963.427-.536-.959-.959Zm-4.92,0,.963.963.536-.536-.963-.959Zm-4.811,0,.963.963.427-.536-.959-.959Zm-4.92,0,1.069.963.427-.536-.959-.959Zm-4.814,0,.966.963.536-.536-.963-.959ZM2.779,191.2l.963,1.069.427-.536-.963-.959Zm87.258,0,.963.963.539-.43-.963-.959Zm-4.811,0,.963.963.536-.43-.963-.959Zm-4.807,0,.959.963.43-.43-.966-.959Zm16.89-2.356.963.966.536-.539-.963-.963Zm-4.811,0,.963.966.536-.539-.963-.963Zm-4.814,0,.963.966.43-.539-.963-.963Zm-4.913,0,.959.966.536-.539-.963-.963Zm-4.817,0,.963.966.43-.539-.963-.963Zm-43.631,0,.966.966.424-.539-.959-.963Zm-4.917,0,.963.966.533-.539-.959-.963Zm-4.814,0,.963.966.536-.539-1.069-.963Zm-4.811,0,.963.966.43-.539-.963-.963Zm-4.92,0,.963.966.533-.539-.959-.963Zm-4.811,0,.963.966.43-.539-.963-.963Zm-4.92,0,.963.966.533-.539-.959-.963Zm-4.811,0,.963.966.533-.539-.959-.963Zm104.261-2.458.963.963.536-.43-.963-.96Zm-4.807,0,.96.963.536-.536-.963-.963Zm-4.814,0,.959.963.43-.536-.963-.963Zm-4.923,0,.963.963.539-.536-.963-.963Zm-4.811,0,.963.963.536-.536-.963-.963Zm-4.807,0,.959.963.43-.536-.966-.963Zm-43.74,0,.963.963.536-.43-.963-.96Zm-4.814,0,.963.963.536-.43-1.069-.96Zm-4.811,0,.963.963.427-.43-.959-.96Zm-4.92,0,.963.963.536-.43-.963-.96Zm-4.811,0,.963.963.427-.43-.959-.96Zm-4.92,0,1.069.963.427-.43-.959-.96Zm-4.814,0,.966.963.536-.43-.963-.96Zm-4.811,0,.963.963.427-.43-.963-.96Zm31.544-2.352.966.963.424-.536-.959-.963Zm-4.917,0,.963.963.533-.536-.959-.963Zm-4.814-.106L25.556,185l.536-.536-1.069-.963Zm-4.811.106.963.963.43-.536-.963-.963Zm-4.92,0,.963.963.533-.536L15.4,183.5Zm-4.811,0,.963.963.43-.536-.963-.963Zm-4.92-.106L6.094,185l.533-.536-.959-.963Zm101.908,0,.963.963.539-.43-.966-.963Zm-4.811,0,.963.963.43-.43-.963-.963Zm-4.92,0,.963.963.536-.43-.963-.963Zm-4.811,0,.963.963.536-.43-.963-.963Zm-4.814,0,.963.963.43-.43-.963-.963Zm-4.913,0,.959.963.536-.43L83.3,183.5Zm-4.817,0,.963.963.43-.43-.963-.963Zm-77.633,0,.963.963.533-.43L.857,183.5Zm104.261-2.352.963.963.536-.536-.963-.966Zm-4.807,0,.96.963.536-.536-.963-.966Zm-4.814,0,.959.963.43-.536-.963-.966Zm-4.923,0,.963.963.539-.536-.963-.966Zm-4.811,0,.963.963.536-.536-.963-.966Zm-4.807,0,.959.963.43-.536-.966-.966Zm-43.74,0,.963.963.536-.536-.963-.966Zm-4.814,0,.963.963.536-.536L32.3,181.04Zm-4.811,0,.963.963.427-.536-.959-.966Zm-4.92,0,.963.963.536-.536-.963-.966Zm-4.811,0,.963.963.427-.536-.959-.966Zm-4.92,0,1.069.963.427-.536-.959-.966Zm-4.814,0,.966.963.536-.536-.963-.966Zm-4.811,0,.963.963.427-.536-.963-.966Zm104.261-2.462.963.966.539-.43-.966-.963Zm-4.811,0,.963.966.43-.43-.963-1.069Zm-4.92,0,.963.966.536-.536-.963-.963Zm-4.811,0,.963.966.536-.536-.963-.963Zm-4.814,0,.963.966.43-.536-.963-.963Zm-4.913,0,.959.966.536-.536-.963-.963Zm-4.817,0,.963.966.43-.536-.963-.963Zm-43.631,0,.966.966.424-.43-.959-.963Zm-4.917,0,.963.966.533-.43-.959-.963Zm-4.814,0,.963.966.536-.43-1.069-.963Zm-4.811,0,.963.966.43-.43-.963-.963Zm-4.92,0,.963.966.533-.43-.959-.963Zm-4.811,0,.963.966.43-.43-.963-.963Zm-4.92,0,.963.966.533-.43-.959-.963Zm-4.811,0,.963.966.533-.43-.959-.963Zm36.358-2.458.963,1.069.536-.536-.963-.963Zm-4.814,0,.963,1.069.536-.536-1.069-.963Zm-4.811,0,.963,1.069.427-.536-.959-.963Zm-4.92,0,.963,1.069.536-.536-.963-.963Zm-4.811.106.963.963.427-.536-.959-.963Zm-4.92-.106,1.069,1.069.427-.536-.959-.963Zm-4.814,0,.966,1.069.536-.536-.963-.963Zm101.915,0,.959.963.43-.43-.963-.963Zm-4.923,0,.963.963.536-.43-.963-.963Zm-4.807,0,.96.963.536-.43-.963-.963Zm-4.814,0,.959.963.43-.43-.963-.963Zm-4.923,0,.963.963.539-.43-.963-.963Zm-4.811,0,.963.963.536-.43-.963-.963Zm-4.807,0,.959.963.43-.43-.966-.963Zm-77.64,0,.963.963.427-.43-.963-.963Zm109.078-2.352.959.963.536-.536-.963-.959Zm-4.817,0,.963.963.539-.536-.966-.959Zm-4.811,0,.963.963.43-.536-.963-.959Zm-4.92,0,.963.963.536-.536-.963-.959Zm-4.811,0,.963.963.536-.536-.963-.959Zm-4.814,0,.963.963.43-.536-.963-.959Zm-4.913-.106.959,1.069.536-.536-.963-.959Zm-4.817,0,.963,1.069.43-.536-.963-.959Zm-43.631.106.966.963.424-.536-.959-.959Zm-4.917,0,.963.963.533-.536-.959-.959Zm-4.814,0,.963.963.536-.536-1.069-.959Zm-4.811,0,.963.963.43-.536-.963-.959Zm-4.92,0,.963.963.533-.536-.959-.959Zm-4.811,0,.963.963.43-.536-.963-.959Zm-4.92,0,.963.963.533-.536-.959-.959Zm-4.811,0,.963.963.533-.536-.959-.959ZM109.5,171.849l.959.963.43-.43-.963-1.065Zm-4.923,0,.963.963.536-.43-.963-1.065Zm-4.807,0,.96.963.536-.533-.963-.963Zm-4.814,0,.959.963.43-.533-.963-.963Zm-4.923,0,.963.963.539-.533-.963-.963Zm-4.811,0,.963.963.536-.533-.963-.963Zm-4.807,0,.959.963.43-.533-.966-.963Zm-43.74,0,.963.963.536-.43-.963-.959Zm-4.814,0,.963.963.536-.43-1.069-.959Zm-4.811,0,.963.963.427-.43-.959-.959Zm-4.92,0,.963.963.536-.43-.963-.959Zm-4.811,0,.963.963.427-.43-.959-.959Zm-4.92,0,1.069.963.427-.43-.959-.959Zm-4.814,0,.966.963.536-.43-.963-.959Zm-4.811,0,.963.963.427-.43-.963-.959Zm17-2.462.963,1.072.43-.533-.963-.966Zm92.075,0,.959.963.536-.424-.963-.966Zm-4.817,0,.963.963.539-.424-.966-.966Zm-4.811,0,.963.963.43-.424-.963-.966Zm-4.92,0,.963.963.536-.424-.963-.966Zm-4.811,0,.963.963.536-.424-.963-.966Zm-4.814,0,.963.963.43-.424-.963-.966Zm-4.913,0,.959.963.536-.424-.963-.966Zm-4.817,0,.963.963.43-.424-.963-.966Zm-43.631,0,.966.963.424-.424-.959-.966Zm-4.917,0,.963.963.533-.424-.959-.966Zm-4.814,0,.963.963.536-.424-1.069-.966Zm-9.731,0,.963.963.533-.424-.959-.966Zm-4.811,0,.963.963.43-.424-.963-.966Zm-4.92,0,.963.963.533-.424-.959-.966Zm-4.811,0,.963.963.533-.424-.959-.966ZM109.5,167.035l.959.963.43-.536-.963-.96Zm-4.923,0,.963.963.536-.536-.963-.96Zm-4.807,0,.424.321.536.642.536-.536-.963-.96Zm-4.814-.106L95.92,168l.43-.536-.963-.96Zm-4.923,0L91,168l.539-.536-.963-.96Zm-4.811,0L86.189,168l.536-.536-.963-.96Zm-48.547.106.963.963.536-.536-.963-.96Zm-4.814,0,.963.963.536-.536L32.3,166.5Zm-4.811,0,.963.963.427-.536-.959-.96Zm-4.92,0L23.1,168l.536-.536-.963-.96Zm-4.811,0,.963.963.427-.536-.959-.96Zm-4.92,0,1.069.963.427-.536-.959-.96Zm-4.814,0,.966.963.536-.536-.963-.96Zm-4.811,0,.963.963.427-.536-.963-.96Zm77.64-.106.959.963.43-.43-.966-.96Zm31.438-2.352.959.963.536-.536-.963-.963Zm-4.817,0,.963.963.539-.536-.966-.963Zm-4.811,0,.963.963.43-.536-.963-.963Zm-4.92,0,.963.963.536-.536-.963-.963Zm-4.811,0,.963.963L94,165l-.963-.963Zm-4.814,0,.963.963.43-.536-.963-.963Zm-4.913,0,.959.963.536-.536-.963-.963Zm-4.817,0,.963.963.43-.536-.963-.963Zm-43.631,0,.966.963.424-.427-.959-.963Zm-4.917,0,.963.963.533-.427-.959-.963Zm-4.814,0,.963.963.536-.427-1.069-.963Zm-4.811,0,.963.963.43-.427-.963-.963Zm-4.92,0,.963.963.533-.427-.959-.963Zm-4.811,0,.963.963.43-.427-.963-.963Zm-4.92,0,.963.963.533-.427-.959-.963Zm-4.811,0,.963.963.533-.427L.857,164.04Zm113.995-2.458.959.963.536-.43-.963-.959Zm-4.811,0,.959.963.43-.43-.963-.959Zm-4.923,0,.963.963.536-.43-.963-.959Zm-4.807,0,.96.963.536-.43-.963-.959Zm-4.814,0,.959.963.43-.43-.963-.959Zm-4.923,0,.963.963.539-.43-.963-.959Zm-4.811,0,.963.963.536-.43-.963-.959Zm-4.807,0,.959.963.43-.43-.966-.959Zm-43.74,0,.963.963.536-.43-.963-.959Zm-4.814,0,.963.963.536-.43-1.069-.959Zm-4.811,0,.963.963.427-.43-.959-.959Zm-4.92,0,.963.963.536-.43-.963-.959Zm-4.811,0,.963.963.427-.43-.959-.959Zm-4.92,0,1.069.963.427-.43-.959-.959Zm-4.814,0,.966.963.536-.43-.963-.959Zm-4.811,0,.963.963.427-.43-.963-.959Zm109.078-2.356.959.963.536-.536-.963-.963Zm-4.817,0,.963.963.539-.536-.966-.963Zm-4.811,0,.963.963.43-.536-.963-.963Zm-4.92-.106.963,1.069.536-.536-.963-.963Zm-4.811,0,.963,1.069.536-.536-.963-.963Zm-4.814,0,.963,1.069.43-.536-.963-.963Zm-53.361.106.966.963.424-.536-.959-.963Zm-4.917,0,.963.963.533-.536-.959-.963Zm-4.814,0,.963.963.536-.536-1.069-.963Zm-4.811,0,.963.963.43-.536-.963-.963Zm-4.92,0,.963.963.533-.536-.959-.963Zm-4.811,0,.963.963.43-.536-.963-.963Zm-4.92,0,.963.963.533-.536-.959-.963Zm-4.811,0,.963.963.533-.536-.959-.963Zm82.45-.106.959.96.536-.427-.963-.963Zm-4.817,0,.963.96.43-.427-.963-.963Zm36.362-2.352.959.963.536-.536-.963-.963Zm-4.811,0,.959.963.43-.536-.963-.963Zm-4.923,0,.963.963.536-.536-.963-.963Zm-4.807,0,.96.963.536-.536-.963-.963Zm-4.814,0,.959.963.43-.536-.963-.963Zm-4.923,0,.963.963.539-.536-.963-.963Zm-4.811,0,.963.963.536-.536-.963-.963Zm-4.807,0,.959.963.43-.536-.966-.963Zm-43.74,0,.963.963.536-.43-.963-1.069Zm-4.814,0,.963.963.536-.43L32.3,156.768Zm-4.811,0,.963.963.427-.43-.959-.96Zm-4.92,0,.963.963.536-.43-.963-.96Zm-4.811,0,.963.963.427-.43-.959-.96Zm-4.92,0,1.069.963.427-.43-.959-1.069Zm-4.814,0,.966.963.536-.43-.963-1.069Zm-4.811,0,.963.963.427-.43-.963-1.069Zm110.894-42.989.963.963,1.707-1.711-.963-.963Zm-4.814-.106.963.963,1.711-1.711-.963-.963Zm-4.811,0,.963.963,1.711-1.711-.966-.963Zm-4.92,0,.963.963,1.711-1.711-.963-.963Zm-4.811,0,.963.963,1.707-1.711-.963-.963Zm-4.814,0,.963.963,1.711-1.711-1.069-.963Zm-4.917,0,.963.963,1.707-1.711-.963-.963Zm-4.814,0,.963.963,1.711-1.711-.963-.963Zm-48.547,0,.963.963,1.711-1.6-.966-1.069Zm-4.814,0,.963.963,1.711-1.6-.963-1.069Zm-4.811,0,.963.963,1.711-1.6L23.2,112.5Zm-4.92,0,.963.963,1.711-1.711-.963-.963Zm-4.811,0,.963.963,1.711-1.711-.966-.963Zm-4.814,0,.963.963,1.6-1.711-.963-.963Zm-4.917,0,.963.963,1.707-1.711-.963-.963Zm109.181-2.356.963.966,1.707-1.711-.963-.963Zm-4.92,0,.963.966,1.711-1.711-.959-.963Zm-4.814,0,.966.966,1.707-1.711-.959-.963Zm-4.811,0,.963.966,1.711-1.711-1.072-.963Zm-4.92,0,.963.966,1.711-1.711-.963-.963Zm-4.811,0,.963.966,1.711-1.711-.963-.963Zm-4.814,0,.966.966,1.6-1.711-.963-.963Zm-48.547,0,.963.966,1.711-1.711-.963-.963Zm-4.811,0,.963.966,1.707-1.711-.963-.963Zm-4.92,0,.959.966,1.714-1.711-.963-.963Zm-4.811,0,.959.966,1.711-1.711-.963-.963Zm-4.814,0,.963.966L17,111.109l-1.069-.963Zm-4.92,0,.959.966,1.714-1.711-.963-.963Zm-4.811,0,.963.966,1.711-1.711-.963-.963ZM108.86,109.4l.963.963,1.711-1.707-.963-.966Zm-4.811,0,.963.963,1.711-1.707-.966-.966Zm-4.92,0,.963.963,1.711-1.707-.963-.966Zm-4.811,0,.963.963,1.707-1.707-.963-.966Zm-4.814,0,.963.963,1.6-1.707-.963-.966Zm-4.917,0,.963.963,1.707-1.707-.963-.966Zm-4.814,0,.963.963,1.711-1.707-.963-.966Zm-43.631,0,.966.963,1.707-1.707-.963-.966Zm-4.917,0,.963.963,1.711-1.707-.966-.966Zm-4.814,0,.963.963,1.711-1.707-.963-.966Zm-4.811,0,.963.963,1.711-1.707-1.072-.966Zm-4.92,0,.963.963,1.711-1.707-.963-.966Zm-4.811,0,.963.963,1.711-1.707-.966-.966Zm-4.814,0,.963.963,1.6-1.707-.963-.966Zm-4.917,0,.963.963,1.707-1.707-.963-.966Zm109.181-2.458.963.963,1.707-1.6-1.069-.963Zm-4.92,0,.963.963,1.711-1.714-.959-.96Zm-4.814,0,.966.963,1.707-1.714-.959-.96Zm-4.811,0,.963.963,1.711-1.714-1.072-.96Zm-4.92,0,.963.963,1.711-1.714-.963-.96Zm-4.811,0,.963.963,1.711-1.6-.963-1.069Zm-4.814,0,.966.963,1.6-1.6-.963-1.069Zm-48.547,0,.963.963,1.711-1.714-.963-.96Zm-4.811,0,.963.963,1.707-1.714-.963-.96Zm-4.92,0,.959.963,1.714-1.714-.963-.96Zm-4.811,0,.959.963,1.711-1.714-.963-.96Zm-4.814,0,.963.963,1.6-1.714-.963-.96Zm-4.92,0,.959.963,1.714-1.714-.963-.96Zm-4.811,0,.963.963,1.711-1.6-.963-1.069Zm104.261-2.352.963.963,1.711-1.711-.963-.963Zm-4.811,0,.963.963,1.711-1.711-.966-.963Zm-4.92,0,.963.963,1.711-1.711-.963-.963Zm-4.811,0,.963.963,1.707-1.711-.963-.963Zm-4.814,0,.963.963,1.6-1.711-.963-.963Zm-4.917,0,.963.963,1.707-1.711-.963-.963Zm-4.814,0,.963.963,1.711-1.711-.963-.963Zm-43.631,0,.966.963,1.7-1.707-.959-.967Zm-4.917,0,.963.963,1.711-1.711-.966-.963Zm-4.814,0,.963.963,1.711-1.711-.963-.963Zm-4.811,0,.963.963,1.711-1.711-.963-.963Zm-4.92,0,.963.963,1.711-1.711-.963-.963Zm-4.811-.109v.109l.963.963,1.711-1.711-.966-.963Zm-4.814.109.963.963,1.711-1.711-1.069-.963Zm-4.917,0,.963.963,1.707-1.711-.963-.963Zm109.181-2.462.963.963,1.707-1.707-.963-.963Zm-4.92,0,.963.963,1.711-1.707-.959-.963Zm-4.814,0,.966.963,1.707-1.707-.959-.963Zm-4.811,0,.963.963,1.711-1.707-1.072-.963Zm-4.92,0,.963.963,1.711-1.707-.963-.963Zm-4.811,0,.963.963,1.711-1.707-.963-.963Zm-4.814,0,.966.963,1.6-1.707-.963-.963Zm-48.547,0,.963.963,1.711-1.707-.963-.963Zm-4.811,0,.963.963,1.707-1.707-.963-.963Zm-4.92,0,.959.963,1.714-1.707-.963-.963Zm-4.811,0,.959.963,1.711-1.707-.963-.963Zm-4.814,0,.963.963L17,101.379l-1.069-.963Zm-4.92,0,.959.963,1.714-1.707-.963-.963Zm-4.811,0,.963.963,1.711-1.707-.963-.963ZM108.86,99.665l.963.963,1.711-1.711-.963-.963Zm-4.811,0,.963.963,1.711-1.6-.966-.963Zm-4.92,0,.963.963,1.711-1.6-.963-1.072Zm-4.811,0,.963.963,1.707-1.6-.963-.963Zm-4.814,0,.963.963,1.6-1.6-.963-.963Zm-4.917,0,.963.963,1.707-1.6-.963-.963Zm-4.814,0,.963.963,1.711-1.711-.963-.963Zm-43.631,0,.966.963,1.707-1.711-.963-.963Zm-4.917,0,.963.963L33.9,98.917l-.966-.963Zm-4.814,0,.963.963,1.711-1.711-.963-.963Zm-4.811,0,.963.963,1.711-1.711L23.2,97.954Zm-4.92,0,.963.963,1.711-1.711-.963-.963Zm-4.811,0,.963.963,1.711-1.711-.966-.963Zm-4.814,0,.963.963,1.6-1.711-.963-.963Zm-4.917,0,.963.963,1.707-1.711-.963-.963Zm109.181-2.458.963,1.069,1.707-1.711-.963-.963Zm-4.92.109.963.959,1.711-1.711-.959-.963Zm-4.814-.109v.109l.966.959V98.17l1.707-1.6L103.3,95.6Zm-4.811.109.963.959,1.711-1.711L98.378,95.6Zm-4.92,0,.963.959,1.711-1.711-.963-.963Zm-4.811,0,.963.959,1.711-1.711-.963-.963Zm-4.814,0,.966.959,1.6-1.711-.963-.963Zm-48.547-.109.963,1.069,1.711-1.711L35.4,95.6Zm-4.811.109.963.959,1.707-1.711-.963-.963Zm-4.92,0,.959.959,1.714-1.711-.963-.963Zm-4.811,0,.959.959,1.711-1.711-.963-.963Zm-4.814,0,.963.959,1.6-1.711-.539-.642-.424-.321Zm-4.92,0,.959.959,1.714-1.711L11.12,95.6Zm-4.811,0,.963.959V98.17l1.711-1.6L6.31,95.6ZM108.86,94.854l.963.963,1.711-1.711-.963-.963Zm-4.811,0,.963.963,1.711-1.711-.966-.963Zm-4.92,0,.963.963,1.711-1.711-.963-.963Zm-4.811,0,.963.963,1.707-1.711-.963-.963Zm-4.814,0,.963.963,1.6-1.711-.963-.963Zm-4.917,0,.963.963,1.707-1.711-.963-.963Zm-4.814,0,.963.963,1.711-1.711-.963-.963Zm-43.631,0,.966.963,1.707-1.711-.963-.963Zm-4.917,0,.963.963L33.9,94.107l-.966-.963Zm-4.814,0,.963.963,1.711-1.711-.963-.963Zm-4.811,0,.963.963,1.711-1.711L23.2,93.144Zm-4.92,0,.963.963,1.711-1.711-.963-.963Zm-4.811,0,.963.963,1.711-1.711-.966-.963Zm-4.814,0,.963.963,1.6-1.711-.963-.963Zm-4.917,0,.963.963,1.707-1.711-.963-.963ZM106.4,92.393l.963.963,1.711-1.707-.959-.963Zm-4.814,0,.966.963,1.707-1.707-.959-.963Zm-4.811,0,.963.963,1.711-1.6-1.072-1.069Zm-4.92,0,.963.963,1.711-1.6-.963-1.069Zm-4.811,0,.963.963,1.711-1.6-.963-1.069Zm-4.814,0,.966.963,1.6-1.707-.963-.963Zm-48.547,0,.963.963,1.711-1.707-.963-.963Zm-4.811,0,.963.963,1.707-1.707-.963-.963Zm-4.92,0,.959.963,1.714-1.707-.963-.963Zm-4.811,0,.959.963,1.711-1.707-.963-.963Zm-4.814,0,.963.963L17,91.648l-1.069-.963Zm-4.92,0,.959.963,1.714-1.707-.963-.963Zm-4.811,0,.963.963,1.711-1.707-.963-.963Zm99.45-2.458L105.012,91l1.711-1.707-.966-.966Zm-4.92.106.963.963L101.8,89.3l-.963-.966Zm-4.811,0,.963.963L96.988,89.3l-.963-.966Zm-4.814,0,.963.963,1.6-1.707-.963-.966Zm-4.917,0,.963.963L87.258,89.3l-.963-.966Zm-4.814-.106L80.737,91,82.447,89.3l-.963-.966Zm-48.547,0L32.189,91,33.9,89.3l-.966-.966Zm-4.814,0L27.375,91,29.086,89.3l-.963-.966ZM21.6,90.04l.963.963L24.275,89.3l-.963-.966Zm-4.92,0,.963.963L19.355,89.3l-.963-.966Zm-4.811,0,.963.963L14.545,89.3l-.966-.966Zm-4.814,0L8.02,91l1.6-1.707-.963-.966Zm-4.917-.106L3.1,91,4.811,89.3l-.963-.966Zm99.447-2.352.966.963,1.707-1.711-.959-.963Zm-4.811,0,.963.963,1.711-1.711-1.072-.963Zm-4.92,0,.963.963,1.711-1.711-.963-.963Zm-4.811,0,.963.963,1.711-1.711-.963-.963Zm-4.814,0,.966.963,1.6-1.711-.963-.963Zm-48.547,0,.963.963,1.711-1.711-.963-.963Zm-4.811,0,.963.963,1.707-1.711-.963-.963Zm-4.92,0,.959.963,1.714-1.711-.963-.963Zm-4.811,0,.959.963,1.711-1.711-.963-.963Zm-4.814,0,.963.963L17,86.834l-1.069-.963Zm-4.92,0,.959.963,1.714-1.711-.963-.963Zm-4.811,0,.963.963,1.711-1.711-.963-.963Zm94.53-2.462.963.966,1.711-1.711-.963-.963Zm-4.811,0,.963.966,1.707-1.711-.963-.963Zm-3.851.966,1.6-1.6-.963-1.069L89.5,85.12H89.4Zm-5.879-.966.963.966,1.707-1.711-.963-.963Zm-4.814,0,.963.966,1.711-1.711-.963-.963Zm-43.631,0,.966.966,1.707-1.711-.963-.963Zm-4.917,0,.963.966L33.9,84.376l-.966-.963Zm-4.814,0,.963.966,1.711-1.711-.963-.963Zm-4.811,0,.963.966,1.711-1.711-.963-.963Zm-4.92,0,.963.966,1.711-1.711-.963-.963Zm-4.811,0,.963.966,1.711-1.711-.966-.963Zm-4.814,0,.963.966,1.6-1.711-.963-.963Zm-4.917,0,.963.966,1.707-1.711-.963-.963Zm26.734-2.458.963,1.069,1.707-1.707-.963-.963Zm-4.92,0,.959,1.069,1.714-1.707-.963-.963Zm-4.811,0,.959,1.069,1.711-1.707-.963-.963Zm-4.814,0,.963,1.069L17,82.024l-1.069-.963Zm-4.92,0,.959,1.069,1.714-1.707-.963-.963Zm-4.811,0,.963,1.069,1.711-1.707-.963-.963Zm92.178,0,.963.963,1.711-1.6-1.072-.963Zm-4.92,0,.963.963,1.711-1.6-.963-.963Zm-4.811,0,.963.963,1.711-1.6-.963-.963Zm-4.814,0,.966.963,1.6-1.6-.963-.963Zm-48.547,0,.963.963,1.711-1.6-.963-.963ZM89.5,80.31l.963.963,1.711-1.711L91.109,78.6Zm-4.917,0,.963.963,1.707-1.711-.963-.963Zm-4.814,0,.963.963,1.711-1.711-.963-.963Zm-43.631,0,.966.963v-.106l1.707-1.6-.963-.963Zm-4.917,0,.963.963L33.9,79.562l-.966-.963Zm-4.814,0,.963.963,1.711-1.711-.963-.963Zm-4.811,0,.963.963,1.711-1.711-.963-.963Zm-4.92,0,.963.963,1.711-1.711-.963-.963Zm-4.811,0,.963.963,1.711-1.711-.966-.963Zm-4.814,0,.963.963,1.711-1.711L8.662,78.6Zm-4.917,0,.963.963,1.707-1.711L3.848,78.6ZM146.925,186.393l38.82-38.82v2.888l-38.82,38.813Zm0-4.814,38.82-38.823v2.892l-38.82,38.82Zm0-4.92,38.82-38.817v2.885l-.321.43-38.5,38.386Zm0-4.814,38.82-38.82v2.888l-38.82,38.823Zm0-4.917,7.914-7.8.106-.218,24.275-24.272,6.525-6.415V131.1l-29.3,29.3-.212.106-9.3,9.406Zm0-4.814,38.82-38.82v2.888L146.925,165Zm0-4.811,2.994-3.1.215-.106,35.61-35.607v2.888l-9.949,9.833-28.871,28.98Zm148.526-2.137v-3.319l38.816-38.816v3.957L295.452,155.7Zm-148.526-2.786.642-.533,38.178-38.281v2.991l-12.513,12.4-26.307,26.416Zm226.163,0,35.928-35.925H411.9l-2.779,2.885-36.037,35.931Zm-77.636-5.343,38.816-38.817v3.848l-38.816,38.817Zm-148.526.536,38.82-38.817v2.885l-38.82,38.82Zm226.163,0,31.117-31.114h2.885l-34,34Zm-77.636-5.453,38.816-38.711v3.851l-38.816,38.817Zm77.636.533,26.3-26.194h2.892L379.93,138.7l-6.842,6.951Zm-226.163.106,38.82-38.817v2.888l-38.82,38.82Zm148.526-5.449L334.268,98.49v3.954l-38.816,38.711Zm77.636.533,21.387-21.383h2.994l-24.381,24.272Zm-226.163,0,38.82-38.823v3l-38.82,38.711Zm148.526-5.35,38.816-38.817v3.848l-38.816,38.82Zm77.636.539,16.573-16.576h2.892l-19.465,19.461Zm-77.636-5.456,38.816-38.711v3.848l-38.816,38.82Zm77.636.536,11.762-11.656h2.888L373.088,131Zm-77.636-5.35,38.816-38.817v3.848l-38.816,38.82Zm77.636.533,6.842-6.839h2.885l-9.727,9.731Zm-77.636-5.343,38.816-38.817v3.848L295.452,121.8Zm77.636.533,2.031-2.028H378l-4.917,4.917Zm-77.636-5.453,38.816-38.817v3.954l-38.816,38.82Zm0-4.811L334.268,69.4v3.851l-38.816,38.817Zm0-4.814,38.816-38.817v3.848l-38.816,38.82Zm0-4.917,27.058-26.949,11.759-11.871v3.957l-9.731,9.625-24.381,24.49-4.7,4.6Zm0-4.814L334.268,54.86v3.848L295.452,97.524Zm-70.89,0,38.711-38.82v3.851L224.561,97.524Zm0-4.923,38.711-38.711V53.9L224.561,92.717Zm70.89,0,38.816-38.711V53.9L319.727,68.438l-.215.109-24.06,24.166Zm-70.89-4.811,38.711-38.82v3.96L224.561,87.8Zm70.89,0,38.816-38.817v3.954l-17,16.9-.106.212-21.708,21.6Zm-70.89-4.814,38.711-38.817v3.848L243.917,63.519l-.109.215L224.561,82.986Zm70.89,0,17.433-17.542,21.383-21.278v3.851L295.452,82.983Zm0-4.814,36.143-36.143-.533-.43-35.61,35.61V69.4l31.227-31.223-.427-.43-30.8,30.691V64.591l26.413-26.413-.427-.43-25.986,25.88V59.78l21.6-21.6-.536-.43-21.066,20.96V54.86l5.343-5.244,11.339-11.438-.43-.43L295.452,53.9V50.046l11.871-11.868-.43-.43L295.452,49.083V45.129l7.057-6.951-.533-.43-6.525,6.419V40.315l2.141-2.137-.427-.43-1.714,1.6V38.82c0-1.393.106-2.783.106-4.172l.321.43,1.714-1.714-.427-.533-1.608,1.6c.109-1.5.109-3,.321-4.387v.106l1.714-1.707-.427-.427-1.287,1.171.642-4.49,1.072-1.069-.427-.533-.43.427a38.691,38.691,0,0,1,1.5-5.558l.106.1,1.714-1.711-.533-.536-.857.963A22.967,22.967,0,0,1,312.454,3.1l.43.424.854-.85a52.105,52.105,0,0,1,5.241-1.393l-1.714,1.711.536.533,1.6-1.707-.427-.536,1.178-.215h.106c1.39-.321,2.885-.427,4.486-.639l-.212.212.533.427.645-.744c1.39-.109,2.779-.218,4.172-.218l-.539.536.539.427.959-.963C332.025,0,333.094,0,334.268,0V.642L372.446,38.82h-1.5l-15.4-15.507L334.268,2.137V5.456L367.635,38.82h-1.5L334.268,6.951v3.315L362.715,38.82h-1.393L334.268,11.762v3.424L357.9,38.82h-1.5L334.268,16.682V20L353.091,38.82h-1.5L334.268,21.493v3.319l13.9,14.009h-1.39L334.268,26.307v3.421l9.092,9.092h-1.5l-7.593-7.593v3.315l4.169,4.278h-1.39l-2.779-2.783v3.315L312.349,61.381l-16.9,16.788ZM331.81,37l.536.427,1.6-1.711-.423-.427ZM327,37l.43.427,1.711-1.6-.427-.536Zm-4.917,0,.533.427,1.714-1.6-.536-.536Zm-4.814,0,.536.427,1.6-1.6-.427-.536Zm-4.811,0,.43.427,1.707-1.6-.423-.536Zm-4.92,0,.536.427,1.711-1.711-.536-.427Zm-4.811,0,.427.427,1.711-1.711-.427-.427Zm-4.814,0,.427.427,1.714-1.711-.533-.427Zm31.438-2.458.539.536,1.707-1.714-.533-.533Zm-4.811,0,.533.536,1.608-1.714-.427-.533Zm-4.811,0,.43.536,1.707-1.714-.427-.533Zm-4.92,0,.536.536,1.711-1.714-.536-.533Zm-4.814,0,.43.536,1.711-1.714-.43-.533Zm-4.811,0,.43.536,1.711-1.714-.533-.533Zm-4.92,0,.533.536,1.714-1.714-.533-.533ZM331.81,32.08l.536.536,1.6-1.711-.423-.427ZM327,32.189l.43.427,1.711-1.711-.427-.427Zm-4.917,0,.533.427,1.714-1.711-.536-.427Zm-4.814-.109.536.536,1.6-1.711-.427-.427Zm-4.811,0,.43.536,1.707-1.711-.423-.427Zm-4.92,0,.536.536,1.711-1.711-.536-.427Zm-4.811,0,.427.536,1.711-1.711-.427-.427Zm-4.814,0,.427.536,1.714-1.711-.533-.427Zm31.438-2.352.539.427,1.707-1.707-.533-.427Zm-4.811,0,.533.427,1.608-1.6-.427-.533Zm-4.811,0,.43.427,1.707-1.6-.427-.533Zm-4.92,0,.536.427,1.711-1.707-.536-.427Zm-4.814,0,.43.427,1.711-1.707-.43-.427Zm-4.811,0,.43.427,1.711-1.707-.533-.427Zm-4.92,0,.533.427,1.714-1.707-.533-.427Zm31.548-2.458.536.533,1.6-1.711-.423-.533Zm-4.814,0,.43.533,1.711-1.711-.427-.533Zm-4.917,0,.533.533,1.714-1.711-.536-.533Zm-4.814,0,.536.533,1.6-1.711-.427-.533Zm-4.811,0,.43.533,1.707-1.711-.423-.533Zm-4.92,0,.536.533,1.711-1.711-.536-.533Zm-4.811,0,.427.533,1.711-1.711-.321-.321-.106-.212Zm-4.814,0,.427.533,1.714-1.711-.533-.533Zm31.438-2.458.539.533,1.707-1.711-.533-.533Zm-4.811.106.533.427,1.608-1.711-.427-.427Zm-4.811-.106.43.533,1.707-1.711-.427-.427Zm-4.92,0,.536.533,1.711-1.711-.536-.427Zm-4.814,0,.43.533,1.711-1.711-.43-.427Zm-4.811,0,.43.533,1.711-1.711-.533-.427Zm-4.92,0,.533.533,1.714-1.711-.533-.533Zm31.548-2.352.536.424,1.6-1.707-.423-.427Zm-4.814,0,.43.424,1.711-1.707-.427-.427Zm-4.917,0,.533.424,1.714-1.707-.536-.427Zm-4.814,0,.536.424,1.6-1.707-.427-.427Zm-4.811,0,.43.424,1.707-1.707-.423-.427Zm-4.92,0,.536.424,1.711-1.707-.536-.427Zm-4.811,0,.427.424,1.711-1.707-.427-.427Zm-4.814,0,.427.424,1.714-1.707-.533-.427ZM329.348,20l.539.533,1.707-1.707-.533-.533Zm-4.811,0,.533.533,1.608-1.707-.427-.533Zm-4.811,0,.43.533,1.707-1.707-.427-.533Zm-9.734,0,.43.533,1.711-1.707-.43-.533Zm-9.731,0,.533.533,1.714-1.707-.533-.533Zm14.545,0,.536.427,1.711-1.6-.536-.533Zm-9.625,0,.43.427,1.711-1.6-.533-.533Zm26.628-2.458.536.533,1.6-1.711-.423-.536Zm-4.814,0,.43.533,1.711-1.711-.427-.427Zm-4.917,0,.533.533,1.714-1.711-.536-.427Zm-4.814,0,.536.533,1.6-1.711-.427-.427Zm-4.811,0,.106.212.324.321,1.707-1.711-.423-.536Zm-4.92,0,.536.533,1.711-1.711-.536-.536Zm-4.811,0,.427.533,1.711-1.711-.427-.536Zm26.624-2.352.539.427,1.707-1.711-.533-.43Zm-4.811,0,.533.427,1.608-1.711-.427-.43Zm-4.811,0,.43.427,1.707-1.711-.427-.43Zm-4.92,0,.536.427,1.711-1.711-.536-.43Zm-4.814,0,.43.427,1.711-1.711-.43-.43Zm-4.811,0,.43.427,1.711-1.711-.533-.43Zm-4.92,0,.533.427,1.714-1.711-.533-.43ZM327,12.725l.43.539,1.711-1.714-.427-.536Zm-4.917,0,.533.539,1.714-1.714-.536-.536Zm-4.814,0,.536.539,1.6-1.714-.427-.536Zm-9.731,0,.536.539,1.711-1.714-.536-.536Zm24.275,0,.536.427,1.6-1.6-.423-.536Zm-19.355,0,.43.427,1.707-1.6-.423-.536Zm-9.731,0,.427.427,1.711-1.6-.427-.536Zm26.624-2.458.539.533,1.707-1.707-.533-.539Zm-4.811,0,.533.533,1.608-1.707-.427-.539Zm-4.811,0,.43.533,1.707-1.707-.427-.43Zm-4.92,0,.536.533,1.711-1.707-.536-.539Zm-4.814,0,.43.533,1.711-1.707-.43-.539Zm-4.811,0,.43.533,1.711-1.707-.533-.539ZM331.81,7.914l.536.43,1.6-1.714-.423-.43Zm-4.814,0,.43.43,1.711-1.714-.427-.43Zm-4.917,0,.533.43,1.714-1.714-.536-.43Zm-4.814,0,.536.43,1.6-1.714-.427-.43Zm-4.811,0,.43.43,1.707-1.714-.423-.43Zm-4.92,0,.536.43,1.711-1.714-.536-.43Zm12.192-2.458.43.533,1.707-1.711-.427-.533Zm-9.734,0,.43.533,1.711-1.711-.43-.533Zm19.355,0,.539.427,1.707-1.6-.533-.533Zm-4.811,0,.533.427,1.608-1.6-.427-.533Zm-9.731,0,.536.427,1.711-1.6-.536-.533Zm17-2.462.536.533,1.6-1.707-.423-.536Zm-4.814,0,.43.533,1.711-1.707-.427-.536Zm-4.917,0,.533.533,1.714-1.707-.536-.536ZM224.561,74.215,263.272,35.5v3.851L224.561,78.169Zm184.455,3.421,2.888-2.888v2.888Zm-4.811,0,5.989-6.094,1.711-1.6v2.885l-4.814,4.811Zm-4.814,0L411.9,65.123v2.888l-9.621,9.625Zm-4.917,0L411.9,60.2V63.1L397.363,77.636Zm-4.814,0L411.9,55.393v2.885L392.552,77.636Zm-4.811,0L411.9,50.473v3l-9.946,9.836-14.22,14.33Zm-4.92,0L411.9,45.662V48.55L382.815,77.636Zm-4.811,0L411.9,40.848V43.74L378,77.636Zm-2.031,0V74.748L409.446,38.39l-.963-.963-35.4,35.4V69.941L404.53,38.39l-.963-.963L373.088,68.012V65.123L399.716,38.39l-.963-.963L373.088,63.1V60.2L394.9,38.39l-.963-.963L373.088,58.278V55.393l10.267-10.263,6.627-6.74-.963-.963-6.627,6.74-9.3,9.3V50.582L385.171,38.39l-.966-.963L373.088,48.55V45.662l7.269-7.272-.96-.963-6.31,6.313V40.848l2.356-2.458-.966-.963-1.39,1.5V36.037L337.047,0h1.5L373.73,35.29l1.714-1.711-.966-.963-1.39,1.39V31.227L341.861,0h1.5l30.37,30.479,1.714-1.714-.966-.963-1.39,1.39V26.307L346.781,0h1.39l15.183,15.186,10.482,10.372,1.608-1.711-.966-.966-1.39,1.5V21.493L351.6,0h1.5l20.745,20.748,1.608-1.714-.966-.963-1.39,1.393V16.682L356.512,0h1.39l15.934,15.934,1.608-1.711-.966-.959-1.39,1.386V11.762L361.322,0h1.5l11.014,11.014L375.444,9.3l-.966-.959-1.39,1.5V6.951L366.133,0h1.5l6.2,6.2,1.711-1.707-1.069-.966-1.39,1.4V2.137L371.056,0h1.39l1.39,1.393L375.119,0A25.392,25.392,0,0,0,377.9.106l-.218.218.427.424.536.645L379.718.215c1.069.109,1.926.109,2.888.215l.854.963L384.2.642c1.4.215,2.786.321,4.066.642l.109.109V1.284c.854.215,1.6.321,2.352.536l-.963.963.963.963,1.6-1.5,2.677.963.639.536.215-.218,2.031.966-.857.748L398,6.2l1.072-1.065,1.816,1.178L399.5,7.7l.963.959,1.5-1.5a17.947,17.947,0,0,1,1.5,1.39l-1.5,1.5.963.963,1.5-1.5c.43.536.857,1.072,1.284,1.714l-1.39,1.284.963.959,1.178-1.171a17.677,17.677,0,0,1,1.069,1.922l-.751.748.966.963.424-.43a36.675,36.675,0,0,1,1.929,5.777l-.857.963.963.963.321-.324c.106.857.321,1.608.43,2.462l-1.714,1.714.963.963.963-1.072c.212,1.284.321,2.567.427,3.957l-.639-.751-1.714,1.714.963.963,1.5-1.393c0,.857.1,1.82.1,2.677l-.212.212.212.215a7.4,7.4,0,0,0,.109,1.5l-.96-.959-1.714,1.711.963.959,1.6-1.711a22.826,22.826,0,0,1,.109,2.783v.106L394.475,56.25,373.194,77.636Zm31.223-40.957.963.959,1.714-1.6-.963-1.069Zm-4.811,0,.963.959,1.714-1.6-.966-1.069Zm-4.92,0,1.069.959,1.6-1.6-.96-1.069Zm-4.811,0,.212.321.751.639,1.707-1.6-.959-1.069Zm-4.814,0,.963.959,1.711-1.6-.963-1.069Zm-4.92,0,.966.959,1.707-1.6-.96-1.069Zm-4.811,0,.963.959,1.714-1.6-.963-1.069Zm31.544-2.352.966.963,1.711-1.711-.963-.963Zm-4.917,0,1.069.963,1.608-1.711-.963-.963Zm-4.814,0,.963.963,1.714-1.711-.963-.963Zm-4.811,0,.43.321.533.642,1.714-1.711-.963-.963Zm-4.92,0,1.072.963,1.6-1.711-.963-.963Zm-4.811,0,.963.963,1.711-1.711-.966-.963Zm-4.814,0,.963.963,1.711-1.711-.96-.963Zm26.628-2.458.963.963,1.714-1.714-.963-.963Zm-4.811,0,.963.963,1.714-1.714-.966-.963Zm-4.92,0,1.069.963,1.6-1.714-.96-.963Zm-4.811,0,.963.963,1.707-1.714-.959-.963Zm-4.814,0,.963.963,1.711-1.714-.963-.963Zm-4.92,0,.966.963,1.707-1.714-.96-.963Zm-4.811,0,.963.963,1.714-1.714-.963-.963Zm21.814-2.458.43.427.533.642,1.714-1.714-.963-.963Zm-4.811,0,.963,1.069,1.714-1.714-.963-.963Zm-4.92,0,.963,1.069,1.711-1.714-.963-.963Zm-4.811,0,.963,1.069,1.711-1.714L384.2,27.8Zm-4.814,0,.963,1.069,1.711-1.714-.96-.963Zm29.086,0,.966.963,1.711-1.608-.963-.963Zm-4.917,0,1.069.963,1.608-1.608-.963-.963Zm2.458-2.352.963.963,1.714-1.714-.963-.963Zm-4.811,0,.963.963,1.714-1.714-.966-.963Zm-4.92,0,.963.963,1.711-1.714-.96-.963Zm-4.811,0,.963.963,1.707-1.714-.959-.963Zm-4.814,0,.963.963,1.711-1.714-.963-.963Zm-4.92,0,.966.963,1.707-1.714-.96-.963Zm-4.811,0,.963.963,1.714-1.714-.963-.963ZM406.769,24.6l.966.963,1.711-1.711-.963-.966Zm-4.917,0,.43.427.639.536,1.608-1.711-.963-.966Zm-4.814,0,.963.963,1.714-1.711-.963-.966Zm-4.811,0,.963.963,1.714-1.711-.963-.966Zm-4.92,0,.963.963,1.711-1.711-.963-.966Zm-4.811,0,.963.963,1.711-1.711-.966-.966Zm-4.814,0,.963.963,1.711-1.711-.96-.966Zm26.628-2.458.963.963,1.714-1.608-.963-.963Zm-4.811,0,.963.963,1.714-1.608-.966-.963Zm-4.92,0,.963.963,1.711-1.608-.96-1.069Zm-4.811,0,.963.963,1.707-1.608-.959-.963Zm-4.814,0,.963.963,1.711-1.608-.963-.963Zm-4.92,0L381,23.1l1.707-1.608-.96-.963Zm-4.811,0,.963.963,1.714-1.714-.963-.963Zm31.544-2.352.966.963,1.711-1.714-.963-.963Zm-4.917,0,1.069.963,1.608-1.714-.963-.963Zm-4.814,0,.963.963,1.714-1.714-.963-.963Zm-4.811,0,.963.963,1.714-1.714-.963-.963Zm-4.92,0,.963.963,1.711-1.714-.963-.963Zm-4.811,0,.963.963,1.711-1.714-.966-.963Zm-4.814,0,.963.963,1.711-1.714-.96-.963Zm26.628-2.462.963.966,1.714-1.714-.963-.963Zm-4.811,0,.963.966,1.714-1.714-.966-.963Zm-4.92,0,.963.966,1.711-1.714-.96-.963Zm-4.811,0,.963.966,1.707-1.714-.959-.963Zm-4.814,0,.963.966,1.711-1.714-.963-.963Zm-4.92,0,.966.966,1.707-1.714-.96-.963Zm-4.811,0,.963.966,1.714-1.714-.963-.963Zm26.734-2.458.963.959,1.608-1.711-.963-.963Zm-4.92,0,.963.959,1.714-1.6-.963-1.072Zm-4.811,0,.963.959,1.714-1.6-.963-1.072Zm-4.92,0,.963.959,1.711-1.6-.963-1.072Zm-4.811,0,.963.959,1.711-1.6-.966-1.072Zm-4.814,0,.963.959,1.711-1.6-.96-.959ZM399.5,12.513l.963.959,1.714-1.711-.966-.963Zm-4.92,0,.963.959,1.711-1.711-.96-.963Zm-4.811,0,.963.959,1.707-1.711-.959-.963Zm-4.814,0,.963.959,1.711-1.711-.963-.963Zm-4.92,0,.966.959,1.707-1.711-.96-.963Zm-4.811,0,.963.959,1.714-1.711-.963-.963Zm21.814-2.462.963.963L399.716,9.3l-.963-.959Zm-4.811,0,.963.963L394.9,9.3l-.963-.959Zm-4.92,0,.963.963L389.982,9.3l-.963-.959Zm-4.811,0,.963.963L385.171,9.3l-.966-.959Zm-4.814,0,.963.963L380.357,9.3l-.96-.959Zm16.9-2.458,1.069.959,1.6-1.707-.96-.963Zm-4.811,0,.963.959,1.707-1.707-.959-.963Zm-4.814,0,.963.959,1.711-1.6-.963-1.069Zm-4.92,0,.966.959,1.707-1.6-.96-1.069Zm-4.811,0,.963.959L377.9,6.845l-.963-.963Zm17-2.352.963.959L394.9,4.493l-.963-.966Zm-4.92,0,1.072.959,1.6-1.707-.963-.966Zm-4.811,0,.963.959,1.711-1.707-.966-.966Zm-4.814,0,.963.959,1.711-1.707-.96-.966Zm7.272-2.458.963.963,1.711-1.714-.963-.963Zm-4.92,0,.966.963,1.707-1.714-.96-.963Zm-4.811,0,.963.963L377.9,2.031l-.963-.963ZM0,77.53V74.751L36.037,38.82H35.5l-.748-.751-.43.43.218.321h-.536L0,72.826v-3L31.121,38.82h-.43l-.748-.751-.536.43.324.321h-.539L0,67.906V65.021l26.307-26.2h-.536l-.639-.751-.539.43.218.321h-.43L0,63.1V60.207L21.387,38.82h-.43l-.744-.751-.43.43L20,38.82h-.536L0,58.281V55.29l5.562-5.456L16.576,38.82h-.43l-.748-.751-.536.43.321.321H14.65L4.6,48.871,0,53.364V50.476L11.765,38.82h-.539l-.639-.751-.536.43.215.321h-.43L0,48.55V45.665L6.951,38.82H6.415l-.748-.751-.43.43.218.321H4.92L0,43.74v-3L2.031,38.82H1.6l-.744-.751-.536.43.321.321H0V0H.642l.642.639L1.816.215,1.6,0H5.456L6.2.642,6.627.215,6.415,0h3.954l.645.639.533-.427L11.335,0h3.848l.751.639.424-.427L16.146,0H20l.748.639.536-.427L20.957,0h3.957l.642.639.536-.427L25.877,0h3.855l.744.639L30.9.215,30.691,0h3.851l.748.744.536-.533L35.607,0h3.851L78.278,38.82h-3.96l-35.5-35.5v.963L73.355,38.82H69.507L38.817,8.129v.959L68.548,38.82H64.7L38.817,12.943V13.9L63.734,38.82H59.777L38.817,17.857v.966l12.94,12.831,7.061,7.166H54.962L38.817,22.671v.963L54,38.82H50.152L38.817,27.481v1.075l8.023,7.911,2.247,2.352H45.232L38.817,32.4v.963l5.453,5.453H40.421l-1.6-1.6v.959l.642.642h-.642L0,77.636ZM36.679,36.146l.963.963.536-.536-.963-.963Zm-4.814,0,.963.963.536-.536L32.3,35.61Zm-4.811,0,.963.963.427-.536-.959-.963Zm-4.92,0,.963.963.536-.536-.963-.963Zm-4.811-.109.963.963.427-.427-.959-.963Zm-4.814,0,.963.963.427-.427-.959-.963Zm-4.92,0L8.556,37l.536-.427-.963-.963Zm-4.811,0L3.742,37l.427-.427-.963-.963Zm31.544-2.349.966.959.424-.427-.959-1.069Zm-4.917,0,.963.959.533-.533-.959-.963Zm-4.814,0,.963.959.43-.533-.963-.963Zm-4.811,0,.963.959.43-.533-.963-.963Zm-4.92,0,.963.959.533-.533-.959-.963Zm-4.811,0,.963.959.533-.533-1.065-.963Zm-4.814,0,.963.959.427-.533-.959-.963Zm-4.917,0,.963.959.533-.533-.959-.963Zm36.358-2.465.963.966.536-.427-.963-.963Zm-4.814,0,.963.966.536-.427L32.3,30.8Zm-4.811,0,.963.966.427-.427-.959-.963Zm-4.92,0,.963.966.536-.427-.963-.963Zm-4.811,0,.963.966.427-.427-.959-.963Zm-4.814,0,.963.966.427-.427L12.94,30.8Zm-4.92,0,.966.966.536-.427L8.129,30.8Zm-4.811,0,.963.966.427-.427L3.206,30.8Zm31.544-2.349.966.959.424-.533-.959-.963Zm-4.917,0,.963.959L30.9,29.3l-.959-.963Zm-4.814,0,.963.959.43-.533-.963-.963Zm-4.811-.106.963,1.065.43-.533-.963-.963Zm-4.92,0,.963.959.533-.427-.959-.963Zm-4.811,0,.963.959.533-.427-1.065-.963Zm-4.814,0,.324.427.639.533.427-.427-.959-.963Zm-4.917,0,.963.959.533-.427-.959-.963Zm36.358-2.352.963.959.536-.533-.963-.963Zm-4.814,0,.963.959.536-.533L32.3,25.88Zm-4.811,0,.963.959.427-.533-.959-.963Zm-4.92,0,.963.959.536-.533-.963-.963Zm-4.811,0,.963.959.536-.533-1.069-.963Zm-4.814,0,.963.959.427-.533-.959-.963Zm-4.92,0,.324.215.642.744.536-.533-.963-.963Zm-4.811,0,.963.959.427-.533-.963-.963Zm31.544-2.462.966.963.424-.427-.959-.963Zm-4.917,0,.963.963.533-.427-.959-.963Zm-4.814,0,.963.963.43-.427-.963-.963Zm-4.811,0,.963.963.43-.427-.963-.963Zm-4.92,0,.963.963.533-.427L15.4,23.422Zm-4.811,0,.963.963.533-.427-1.065-1.069Zm-4.814,0,.963.963.427-.427-.959-1.069Zm-4.917,0,.963.963.533-.427-.959-.963Zm36.358-2.349.963.959.536-.533-.963-.966Zm-4.814,0,.963.959.536-.533L32.3,21.066ZM27.054,21.5l.963,1.069.427-.533-.959-.966Zm-4.92,0,.963,1.069.536-.533-.963-.966Zm-4.811,0,.963.959.427-.424-.959-.966Zm-4.814,0,.215.321.748.639.427-.424-.959-.966Zm-4.92,0,.966.959.536-.424-.963-.966Zm-4.811,0,.963.959.427-.424-.963-.966Zm31.544-2.352.966.959.424-.533-.959-.963Zm-4.917,0,.963.959.533-.533-.959-.963Zm-4.814,0,.963.959.43-.533-.963-.963Zm-4.811,0,.963.959.43-.533-.963-.963Zm-4.92,0,.43.321.533.639.533-.533-.959-.963Zm-4.811,0,.963.959.533-.533-1.065-.963Zm-4.814,0L6.2,20.1l.427-.533-.959-.963Zm-4.917,0,.963.959.533-.533-.959-.963Zm36.358-2.458.963.963.536-.43-.963-.963Zm-4.814,0,.963.963.536-.43L32.3,16.255Zm-4.811,0,.963.963.427-.43-.959-.963Zm-4.92,0,.963.963.536-.43-.963-.963Zm-4.811,0,.963.963.536-.43-1.069-1.069Zm-4.814,0,.963.963.427-.536-.959-.963Zm-4.92,0,.966.963.536-.536-.963-.963Zm-4.811,0,.963.963.427-.43-.963-1.069Zm31.544-2.352.966.963.424-.536-.959-.963Zm-4.917,0,.963.963.533-.536-.959-.963Zm-4.814-.106.963.963.43-.43-.963-.963Zm-4.811,0,.963.963.43-.43-.963-.963Zm-4.92,0,.963.963.533-.43L15.4,13.8Zm-4.811,0,.963.963.43-.43-.963-.963Zm-4.814,0,.963.963.427-.43L5.668,13.8Zm-4.917,0,.963.963.533-.43L.857,13.8Zm36.358-2.352.963.963.536-.539-.963-.963Zm-4.814,0,.963.963.427-.539-.959-.963Zm-4.811,0,.963.963.427-.539-.959-.963Zm-4.92,0,.963.963.536-.539-.963-.963Zm-4.811,0,.963.963.536-.539-1.069-.963Zm-4.814,0,.963.963L13.9,12.3l-.959-.963Zm-4.92,0,.966.963.536-.539-.963-.963Zm-4.811,0,.963.963.427-.539-.963-.963ZM34.323,9.413l.966.959.424-.427-.959-.963Zm-4.917,0,.963.959.533-.427-.959-.963Zm-4.814,0,.963.959.43-.427L25.45,9.3l-.427-.321Zm-4.811,0,.963.959.43-.427-.963-1.069Zm-4.92,0,.963.959.533-.533L15.4,8.877Zm-4.811,0,.963.959.43-.533-.963-.963Zm-4.814,0,.963.959.427-.533-.959-.963Zm-4.917,0,.963.959.533-.533L.857,8.877ZM36.679,6.951l.963,1.072.536-.536-.963-.963Zm-4.814,0,.963,1.072.427-.536L32.3,6.525Zm-4.811,0,.215.324.748.639.427-.427-.959-.963Zm-4.92,0,.963.963.536-.427-.963-.963Zm-4.811,0,.963.963.536-.427-1.069-.963Zm-4.814,0,.963.963.427-.427-.959-.963Zm-4.92,0,.966.963.536-.427-.963-.963Zm-4.811,0,.963.963.427-.427-.963-.963ZM34.323,4.6l.966.959.424-.533-.959-.963Zm-4.917,0,.963.959.533-.533-.959-.963Zm-4.814,0,.963.959.43-.533-.963-.963Zm-4.811,0,.963.959.43-.533-.963-.963Zm-4.92,0,.963.959.533-.533L15.4,4.066Zm-4.811,0,.963.959.533-.533-1.065-.963Zm-4.814,0,.963.959.427-.533-.959-.963ZM.321,4.6l.963.959.533-.533L.857,4.066ZM36.679,2.137l.963.963.536-.424-.963-.966Zm-4.814,0,.963.963.536-.424-.748-.751L32.3,1.711Zm-4.811,0,.963.963.427-.424L27.485,1.6Zm-4.92,0L23.1,3.1l.536-.533L22.671,1.6Zm-4.811,0,.963.963.427-.533L17.754,1.6Zm-4.814,0,.963.963.427-.533L12.94,1.6Zm-4.92,0,.966.963.536-.533L8.129,1.6Zm-4.811,0,.963.963.427-.533L3.206,1.6ZM116.344,41.493v1.5L81.808,77.425a6.69,6.69,0,0,1-1.5.106Zm-.212,5.132c-.106.536-.106,1.069-.212,1.6L87.046,77.1c-.536.109-1.069.109-1.6.218ZM77.633,75.5,93.246,59.777,114.316,38.82h-1.175l-1.178-1.178-.43.536.642.642h-1.28L77.633,72.078v-1.5L109.5,38.82h-1.287l-1.065-1.178-.43.536.536.642H106.08L77.633,67.267v-1.5L104.582,38.82H103.4l-1.065-1.178-.536.536.642.642h-1.28L77.633,62.344v-1.39L99.774,38.82H98.6l-1.178-1.178-.43.536.645.642H96.35L77.633,57.533v-1.5L94.851,38.82H93.673l-1.065-1.178-.43.536.536.642H91.539l-13.906,13.9v-1.5l12.4-12.4H88.866L87.8,37.642l-.539.536.645.642H86.619L77.633,47.8V46.41l7.593-7.59H84.048l-1.171-1.178-.43.536.642.642h-1.28l-4.175,4.172v-1.5l2.673-2.673H79.132l-1.069-1.178-.43.427v-.85L40.312,0h3.855L79.241,34.972l.533-.43-1.711-1.711-.536.427V32.4L45.126,0h3.96L77.527,28.444v-.963l-10.8-10.9L50.046,0H53.9L79.241,25.347l.533-.536L78.063,23.1l-.43.427v-.857L54.857,0h3.96L79.241,20.427,79.774,20l-1.711-1.714-.43.427v-.857L59.777,0h3.851L79.241,15.617l.533-.539L78.063,13.37l-.43.533v-.959L64.587,0h3.855l10.8,10.8.533-.536L78.063,8.556l-.43.427V8.129l-1.28-1.178L69.4,0h3.954l5.886,5.876.533-.424L78.063,3.745l-.43.427V3.319L74.318,0h3.855l1.069,1.065.533-.533L79.132,0c1.393,0,2.783,0,4.066.106l.963.959.427-.533L84.161.215l4.275.321.536.533L89.4.642l5.238.963-.106.215,1.714,1.707.427-.533L95.6,1.82a32.471,32.471,0,0,1,6.2,2.352l1.714,1.707.533-.424a22.32,22.32,0,0,1,7.057,7.057l-1.5-1.5-.536.43,1.711,1.707.427-.43a4.381,4.381,0,0,1,.533.963l-.212.215.751.751a40.348,40.348,0,0,1,2.247,6.094h-.109l-.43.427.857.857c.321,1.5.645,3.1.857,4.811l-1.284-1.284-.43.427L115.6,27.7l.212-.106a105.925,105.925,0,0,1,.533,10.584c0,.212.109.43.109.642h-.748L77.633,76.892ZM113.885,35.72l1.714,1.707.533-.533-1.711-1.711Zm-4.811,0,1.711,1.707.427-.533-1.6-1.711Zm-4.814,0,1.714,1.707.427-.533-1.711-1.711Zm-4.917,0,1.707,1.707.536-.533L99.88,35.184Zm-4.814,0,1.714,1.707.427-.533L94.96,35.184Zm-4.811,0,1.6,1.707.533-.533-1.707-1.711Zm-4.92,0,1.711,1.707.536-.533-1.714-1.711Zm-4.811,0L81.7,37.427l.43-.533-1.707-1.711Zm31.544-2.462,1.714,1.714.427-.43-1.711-1.711Zm-4.92,0,1.714,1.714.533-.43-1.707-1.711Zm-4.811,0,1.714,1.714.427-.43-1.714-1.711Zm-4.814,0L98.6,34.972l.533-.43-1.711-1.711Zm-4.917,0,1.714,1.714.533-.43-1.711-1.711Zm-4.814,0,1.714,1.714.427-.43-1.714-1.711Zm-4.917,0,1.707,1.714.539-.43-1.711-1.711Zm31.544-2.352L115.6,32.62l.533-.539-1.711-1.707Zm-4.811,0,1.711,1.714.427-.539-1.6-1.707Zm-4.814,0,1.6,1.6.536-.43-1.711-1.707Zm-4.917,0,1.707,1.6.536-.43L99.88,30.373Zm-4.814,0,1.714,1.6.427-.43L94.96,30.373Zm-4.811,0,1.6,1.6.533-.43-1.707-1.707Zm-4.92,0,1.711,1.6.536-.43-1.714-1.707ZM79.989,30.8,81.7,32.51l.43-.43-1.707-1.707Zm31.544-2.356,1.714,1.714.427-.536-1.711-1.711Zm-4.92,0,1.714,1.714.533-.536-1.707-1.711Zm-4.811,0,1.714,1.714.427-.536-1.714-1.711Zm-4.814,0L98.6,30.158l.533-.536-1.711-1.711Zm-4.917,0,1.714,1.714.533-.536-1.711-1.711Zm-4.814,0,1.714,1.714.427-.536-1.714-1.711Zm-4.917,0,1.707,1.714.539-.536-1.711-1.711Zm-3.1,1.714.533-.536-1.711-1.711-.536.533Zm29.834-4.172,1.711,1.714.427-.43-1.6-1.711Zm-4.814,0,1.714,1.714.427-.43-1.711-1.711Zm-4.917,0,1.707,1.714.536-.43L99.88,25.559Zm-4.814,0L96.244,27.7l.427-.43L94.96,25.559Zm-4.811,0,1.6,1.714.533-.43-1.707-1.711Zm-4.92,0L86.51,27.7l.536-.43-1.714-1.711Zm-4.811,0L81.7,27.7l.43-.536-1.707-1.6Zm31.544-2.352,1.714,1.608.427-.43L111.963,23.1Zm-4.92,0,1.714,1.608.533-.43L107.152,23.1Zm-4.811,0,1.714,1.608.427-.43L102.229,23.1Zm-4.814,0L98.6,25.241l.533-.43L97.418,23.1Zm-4.917,0,1.714,1.608.533-.43L92.608,23.1Zm-4.814,0,1.714,1.608.427-.43L87.685,23.1Zm-4.917-.106,1.707,1.714.539-.43L82.877,23.1Zm26.734-2.352,1.711,1.711.427-.536-1.6-1.707Zm-4.814,0,1.714,1.711.427-.536-1.711-1.707Zm-4.917,0,1.707,1.711.536-.536L99.88,20.642Zm-4.814,0,1.714,1.711.427-.536L94.96,20.642Zm-4.811,0,1.6,1.711.533-.536-1.707-1.707Zm-4.92,0,1.711,1.711.536-.536-1.714-1.707Zm-4.811,0L81.7,22.886l.43-.536-1.707-1.707Zm31.544-2.462,1.714,1.714.427-.427-1.711-1.714Zm-4.92,0,1.714,1.714L108.86,20l-1.707-1.714Zm-4.811,0,1.714,1.714.427-.427-1.714-1.714Zm-4.814,0L98.6,20.427,99.129,20l-1.711-1.714Zm-4.917,0,1.714,1.714.533-.536-1.711-1.6Zm-4.814,0,1.714,1.714.427-.536-1.714-1.6Zm-4.917,0,1.707,1.714.539-.536-1.711-1.6Zm26.734-2.352,1.711,1.608.427-.43-1.6-1.711Zm-4.814,0,1.714,1.608.427-.43-1.711-1.711Zm-4.917,0,1.707,1.608.536-.43L99.88,15.828Zm-4.814,0,1.714,1.608.427-.43L94.96,15.828Zm-4.811-.106,1.6,1.714.533-.43-1.707-1.711Zm-4.92,0,1.711,1.714.536-.43-1.714-1.711Zm-4.811,0L81.7,17.969l.43-.43-1.707-1.711ZM106.613,13.9l1.714,1.714.533-.539-1.707-1.707Zm-4.811,0,1.714,1.714.427-.539-1.714-1.707Zm-4.814,0L98.6,15.617l.533-.539L97.418,13.37Zm-4.917,0,1.714,1.714.533-.539L92.608,13.37Zm-4.814,0,1.714,1.714.427-.539L87.685,13.37Zm-4.917,0,1.707,1.714.539-.539L82.877,13.37Zm21.919-2.455,1.6,1.707.536-.43-1.711-1.707Zm-4.917,0,1.707,1.707.536-.536-1.707-1.6Zm-4.814,0,1.714,1.707.427-.536-1.711-1.6Zm-4.811,0,1.6,1.707.533-.536-1.707-1.6Zm-4.92,0,1.711,1.707.536-.536-1.714-1.6Zm-4.811,0L81.7,13.155l.43-.536-1.707-1.6Zm26.624-2.465,1.714,1.711.533-.427-1.707-1.711Zm-4.811,0,1.714,1.711.427-.427-1.714-1.711Zm-4.814,0L98.6,10.693l.533-.427L97.418,8.556Zm-4.917,0,1.714,1.711.533-.427L92.608,8.556Zm-4.814,0,1.714,1.711.427-.427L87.685,8.556Zm-4.917,0,1.707,1.711.539-.427L82.877,8.556ZM104.261,6.63l1.6,1.714.536-.536L104.691,6.1Zm-4.917,0,1.707,1.714.536-.536L99.88,6.1Zm-4.814,0,1.714,1.714.427-.536L94.96,6.1Zm-4.811,0,1.6,1.714.533-.536L90.149,6.1Zm-4.92,0L86.51,8.344l.536-.536L85.332,6.1Zm-4.811,0L81.7,8.344l.43-.536L80.419,6.1Zm17-2.458L98.6,5.879l.533-.533-1.711-1.6Zm-4.917,0,1.714,1.707.533-.533-1.711-1.6Zm-4.814,0,1.714,1.707.427-.533-1.714-1.6Zm-4.917,0,1.707,1.707.539-.533L82.877,3.639Zm7.378-2.462,1.6,1.714.533-.43L90.149,1.287Zm-4.92,0L86.51,3.424l.536-.43L85.332,1.287Zm-4.811,0L81.7,3.424l.43-.43L80.419,1.287Zm35.5,50.37-.324,1.82L92.714,76.353l-1.82.321Zm-1.5,6.306a18.4,18.4,0,0,1-.744,2.247l-13.8,13.8c-.748.215-1.5.533-2.247.748ZM224.561,69.4l36.679-36.676.106-.218,1.926-1.922v3.848L224.561,73.249Zm0-4.811,34.224-34.327,4.592-4.493v3.855L236.644,56.253,224.561,68.442Zm0-4.917,38.817-38.82v3.954l-4.917,4.817-.106.208L234.077,54.006l-9.516,9.621Zm0-4.814,38.817-38.82v3.851l-38.817,38.82Zm0-4.814,38.711-38.817v3.848l-9.625,9.731-.215.109L224.561,53.9Zm0-4.92L263.378,6.31v3.96L224.561,49.086Zm0-4.811L263.272,1.5V5.347L224.561,44.163Zm0-4.92L259.957,0h3.421V.539L246.163,17.648l-21.6,21.708Zm0-4.811,17.218-17.324L255.146,0h3.848L224.561,34.433Zm0-4.814L250.332,0h3.855L224.561,29.625Zm0-4.917L245.412,0h3.957L239.1,10.27l-.212.106-14.33,14.432Zm0-4.814L240.6,0h3.848L224.561,19.891Zm0-4.811,7.7-7.8L235.791,0h3.848L224.561,15.077Zm0-4.92L230.871,0h3.96L224.561,10.27Zm0-4.807,1.5-1.5h3.851l-5.347,5.343Zm0-1.5h.533l-.533.536ZM146.925,0h.106l-.106.106ZM373.088,0h.106l-.106.106Z" fill="#fff"/>
</svg>
