<svg xmlns="http://www.w3.org/2000/svg" xmlns:xlink="http://www.w3.org/1999/xlink" width="192.523" height="172.042" viewBox="0 0 192.523 172.042">
  <defs>
    <clipPath id="clip-path">
      <path id="Subtraction_4" data-name="Subtraction 4" d="M149.3,172.042H0V0H149.3V62.392l-2.459-1.944h-25.72v57.5c0,.243.3,24.267,0,26.642-.167,1.3,16,4.807,28.179,7.329v20.121Z" transform="translate(0 0)" fill="#fff" stroke="#707070" stroke-width="1"/>
    </clipPath>
  </defs>
  <g id="Group_271" data-name="Group 271" transform="translate(-235.613 -1676.729)">
    <g id="Mask_Group_21" data-name="Mask Group 21" transform="translate(235.613 1676.729)" clip-path="url(#clip-path)">
      <g id="Ellipse_43" data-name="Ellipse 43" transform="translate(39.387 39.271)" fill="#100f9d" stroke="#fff" stroke-width="4">
        <ellipse cx="53" cy="52.5" rx="53" ry="52.5" stroke="none"/>
        <ellipse cx="53" cy="52.5" rx="51" ry="50.5" fill="none"/>
      </g>
    </g>
    <g id="Group_236" data-name="Group 236" transform="translate(303.342 1739.89)">
      <path id="Path_690" data-name="Path 690" d="M553.684,169.726c0-.023-.011-.046-.015-.068C553.69,169.78,553.69,169.77,553.684,169.726Z" transform="translate(-442.214 -136.494)" fill="#f5f5f5"/>
      <path id="Path_691" data-name="Path 691" d="M515.648,204.575a2.784,2.784,0,0,1-2.334-1.469,41.813,41.813,0,0,1-5.868-23.959,15.3,15.3,0,0,1-2.1-.018c.031.148.063.3.094.473.046.259.106.535.15.831s.1.592.141.945a1.519,1.519,0,0,1-.47,1.238,1.549,1.549,0,0,1-2.451-.431,1.559,1.559,0,0,1-.159-.654c-.008-.168-.015-.333-.021-.5-.02-.651-.026-1.261-.015-1.785,0-.207.01-.394.016-.569A22.34,22.34,0,0,1,498.091,177c-.033-.013-.073-.034-.133-.06l.28,3.374a4.51,4.51,0,0,1-.172,1.71,5.1,5.1,0,0,0,1,5.228,5.294,5.294,0,0,1,1.152,1.71c.752,1.91,9.834,18.61,10.645,17.852a1.405,1.405,0,0,1,1.417-.786c-.06.878-.379,1.49.119,1.876a2.924,2.924,0,0,0,1.524.652c1.742.153,4.77.312,4.77-.573A3.94,3.94,0,0,0,515.648,204.575Zm-4.7-3.319c-.268-.454-.641-1.111-1.049-1.924-.389-.82-.856-1.773-1.257-2.837s-.8-2.211-1.142-3.372c-.312-1.173-.582-2.356-.787-3.473s-.314-2.177-.394-3.079-.085-1.663-.1-2.191l.011-.83.107.823c.062.522.182,1.267.317,2.157.072.444.151.926.252,1.43s.208,1.038.32,1.588c.226,1.1.524,2.261.854,3.411s.672,2.3,1.051,3.354c.19.529.374,1.041.548,1.526s.363.935.527,1.353c.353.826.617,1.534.843,2.012.207.486.324.765.324.765Z" transform="translate(-477.26 -131.931)" fill="#f5f5f5"/>
      <path id="Path_692" data-name="Path 692" d="M606.149,195.628c.019-.039.041-.08.054-.112a5.521,5.521,0,0,0-.852-5.861,4.422,4.422,0,0,1-1.038-2.769v-.02a11.846,11.846,0,0,1,5.637-2.614c-3.021-2.037-6.888-.267-7.459.013a5.571,5.571,0,0,0-.751-.306,8.737,8.737,0,0,1-1.085,2.853,15.84,15.84,0,0,0,.512-3.013l.045-1.212a9.117,9.117,0,0,0-2.993-7.319.894.894,0,0,0-1.27.127,9.107,9.107,0,0,0-1.8,3.8c-.028.127-.054.26-.073.387s-.041.265-.054.4l-.007-.007a10.361,10.361,0,0,0,2.5,7.6,11.84,11.84,0,0,1-2.922-5.65,8.43,8.43,0,0,1-.06-2.347c-8.815-7.34-12.827-13.367-12.827-13.367S575,155.484,568.665,154.34c-10.458-1.884-19.721-5.217-27.352-5.064-6.393.127-17.258,3.833-39.1,1.55a10.266,10.266,0,0,0-6.593,1.337,11.86,11.86,0,0,0-3.766,4.365,24.209,24.209,0,0,0-2.429,9.567c-.192,2.661,0,5.29.015,7.945a54.212,54.212,0,0,1-.812,9.108c-.26,1.529-.566,3.053-.945,4.563-.054.207-.12.413-.172.626a4.125,4.125,0,0,0-1.884,1.9c-1.2,2.155.273,7.6.273,7.6,1.025-3.525,2.668-3.426,3.353-5.915a4.464,4.464,0,0,0-.166-3.174c.047-.138.1-.272.14-.412a55.783,55.783,0,0,0,2.574-16.054c.021-1.29.067-2.582.167-3.872a23.986,23.986,0,0,0,1.576,6.034c1.217,2.5,1.656,6.806,1.817,9.98a13.879,13.879,0,0,1-3.546,10.113c-.146.166-.3.325-.46.485a4.406,4.406,0,0,0-1.283,3.107c-.033,3.693,0,11.982.773,20.365l-.015-.007a11.4,11.4,0,0,0,.187,1.744c.007.073.013.14.02.207h.021c.379,2.089,1.17,4.55,1.768,3.99a1.389,1.389,0,0,1,1.419-.784c-.06.878-.387,1.49.119,1.876a2.577,2.577,0,0,0,1.378.652c1.742.153,4.77.312,4.77-.579a3.8,3.8,0,0,0-2.926-3.4,2.2,2.2,0,0,1-2.017-1.755s-1.477-12.249,1.757-16.528c3.034-4.018,6.653-9.241,7.6-10.6l.039-.06c.254-.446.506-.911.752-1.391a22.649,22.649,0,0,0,1.345-3.385,13.346,13.346,0,0,0,.386-1.623,12.89,12.89,0,0,1-.213,1.663,21.81,21.81,0,0,1-1,3.566c-.148.4-.307.8-.473,1.178l.013.007v.008a20.657,20.657,0,0,0,4.783,1.56l.055.547.358,3.522a1.14,1.14,0,0,0,1.132,1.025c.039,0,.078,0,.117-.006a1.14,1.14,0,0,0,1.018-1.249L513,196.3l-.124-1.205a12.774,12.774,0,0,0,2.642-.172c.246-.047.485-.093.711-.153.133-.034.26-.067.387-.1l1.064,3.428a1.145,1.145,0,0,0,1.092.805,1.022,1.022,0,0,0,.338-.054,1.136,1.136,0,0,0,.745-1.423l-1.111-3.6a12.252,12.252,0,0,0,3.46-2.668,2.348,2.348,0,0,1,2.256-.7,69,69,0,0,0,21.608,1.031c.321-.033.62-.065.913-.1,1.111-.127,2.015-.259,2.668-.366a3.819,3.819,0,0,1,2.276.327c1.649.784,3.146,1.475,4.55,2.082.107.046.213.093.319.132-.007-.1-.013-.192-.013-.291-.054-1.231-.067-2.383-.033-3.367s.086-1.8.146-2.375.112-.9.112-.9.02.325.054.9.114,1.384.194,2.362c.112.971.2,2.1.372,3.305s.332,2.5.545,3.781.478,2.547.712,3.738.491,2.3.724,3.24c.094.433.194.838.286,1.2.207.659.439,1.331.678,2.016.4,1.789.732,3.6.966,5.43a26.994,26.994,0,0,0,.638,2.94c.293,1.1.625,2.256.917,3.2.168.644.366,1.283.592,1.9.047.146.081.233.081.233h.013c.93,2.435,2.194,4.319,2.834,3.727a1.389,1.389,0,0,1,1.417-.786c-.06.878-.386,1.49.12,1.876a2.544,2.544,0,0,0,1.376.652c1.744.153,4.771.312,4.771-.579a3.8,3.8,0,0,0-2.928-3.4,2.91,2.91,0,0,1-2.334-1.923c-1.929-3.9-3.266-10.253-2.642-13.3a84.6,84.6,0,0,0,.859-10.865,19.7,19.7,0,0,0,6.8-1.223c6.334-3.1,12.156-2.157,13.108.319a24.083,24.083,0,0,0,7.364,8.762,2.766,2.766,0,0,1,.685.712,7.147,7.147,0,0,0,3.973,2.907,2.623,2.623,0,0,1,1.311.891,8,8,0,0,0,3.639,2.209c4.272,1.137,5.6-1.9,3.672-4.976C606.528,203.479,606.149,195.628,606.149,195.628Zm-118.877-6a4.938,4.938,0,0,0-.618,1.09,4.414,4.414,0,0,0-.252.673c-.088.229-.112.486-.182.73s-.078.5-.12.752-.047.5-.072.74c-.054.483-.033.94-.06,1.332-.007.392.007.721.007.952l-.007.366s-.13-.512-.272-1.3c-.029-.2-.049-.413-.075-.641a4.885,4.885,0,0,1-.046-.721c0-.252-.026-.512,0-.778s.033-.535.081-.8a5.926,5.926,0,0,1,.172-.8,4.99,4.99,0,0,1,.265-.755,3.246,3.246,0,0,1,.828-1.166,2.208,2.208,0,0,1,.88-.5,1.226,1.226,0,0,1,.376-.052A3.341,3.341,0,0,0,487.272,189.629Zm10.029-3.377a17.512,17.512,0,0,1-1.223,5.28,15.607,15.607,0,0,1-2.9,4.589,3.585,3.585,0,0,0-1.187,2.035,20.721,20.721,0,0,0-.015,2.507c-.023,3.349-.042,6.473-.008,9.15s.06,4.909.124,6.471.1,2.453.1,2.453-.109-.887-.244-2.445-.288-3.789-.4-6.47-.185-5.807-.228-9.157a20.755,20.755,0,0,1-.007-2.588,3.3,3.3,0,0,1,.48-1.358,8.063,8.063,0,0,1,.859-1.069,14.9,14.9,0,0,0,2.723-4.4,17.607,17.607,0,0,0,1.209-5.059,26,26,0,0,0-.046-5.087,30.793,30.793,0,0,0-.856-4.693c-.371-1.456-.963-2.8-1.332-4.106a34.516,34.516,0,0,1-1.212-6.38c-.081-.779-.112-1.394-.138-1.812l-.031-.641s.085.89.319,2.434a38.956,38.956,0,0,0,1.475,6.269c.4,1.267,1.023,2.572,1.461,4.081a26.221,26.221,0,0,1,.974,4.776A26.673,26.673,0,0,1,497.3,186.252Zm100.073-10.5a18.438,18.438,0,0,0-.8,2.928,13.443,13.443,0,0,0,.029,3.659s.018.1.024.161a17.272,17.272,0,0,0,1.362,4.417A9.577,9.577,0,0,1,597.374,175.756Zm-84.758,23.482a6.04,6.04,0,0,1-.179-.613,11.634,11.634,0,0,1-.242-1.366,12.012,12.012,0,0,1-.078-1.388,6.375,6.375,0,0,1,.034-.638,6.013,6.013,0,0,1,.177.613,11.715,11.715,0,0,1,.244,1.368,12,12,0,0,1,.078,1.386A5.835,5.835,0,0,1,512.616,199.238Zm6.339-3.185a10.3,10.3,0,0,1,.29,1.277,5.3,5.3,0,0,1,.065.6,5.6,5.6,0,0,1-.27-.54,10.114,10.114,0,0,1-.449-1.23,10.557,10.557,0,0,1-.288-1.277,5.309,5.309,0,0,1-.065-.6,5.839,5.839,0,0,1,.268.54A10.118,10.118,0,0,1,518.956,196.053Zm-1.043-2.995a10.147,10.147,0,0,1-7.7.254c.467.024.934.072,1.4.116a10.525,10.525,0,0,0,3.743-.286A10.844,10.844,0,0,0,518.5,191.9a14.084,14.084,0,0,0,4.513-4.316A9.927,9.927,0,0,1,517.913,193.058Zm35.139-2.624a6.483,6.483,0,0,0-3.293-.591c-1.41.124-3.075.371-4.866.5s-3.716.19-5.632.19-3.834-.089-5.625-.234-3.457-.363-4.877-.579-2.591-.477-3.41-.659-1.275-.324-1.275-.324l1.3.169c.826.112,2.016.221,3.436.368s3.086.234,4.867.335,3.683.15,5.585.181,3.807,0,5.581-.1l2.572-.156c.821-.047,1.589-.109,2.32-.127a5.519,5.519,0,0,1,1.981.273,6.767,6.767,0,0,1,1.4.618c.368.2.643.384.836.5l.295.176Zm10.18,25.86c-.163-.613-.366-1.251-.53-1.976s-.286-1.467-.392-2.251c-.218-1.565-.394-3.234-.73-4.857-.32-1.627-.833-3.227-1.244-4.755a39.477,39.477,0,0,1-.849-4.241,41.455,41.455,0,0,1-.438-4.187s.07.415.2,1.14.325,1.754.576,2.987.584,2.661,1.022,4.16.973,3.105,1.331,4.774c.322,1.674.467,3.354.66,4.913.1.778.187,1.529.3,2.237.12.69.3,1.366.426,1.978.542,2.461.854,4.116.854,4.116S563.915,218.723,563.232,216.294Zm1.96-59.89c-2.012-.363-4.143-.825-6.305-1.383a88.839,88.839,0,0,0-13.6-2.757,34.525,34.525,0,0,0-3.5-.169c-1.15.033-2.334.1-3.488.216-2.317.213-4.6.517-6.808.808s-4.361.55-6.408.726-3.994.249-5.783.27c-3.58.055-6.559-.137-8.638-.27s-3.262-.286-3.262-.286l3.271.065c2.081.041,5.054.007,8.61-.15,1.778-.08,3.7-.211,5.718-.457s4.146-.568,6.356-.877,4.5-.646,6.842-.888c1.176-.13,2.349-.211,3.569-.259a34.517,34.517,0,0,1,3.623.137,89.613,89.613,0,0,1,13.74,2.935c2.157.561,4.225,1.1,6.226,1.527a19.43,19.43,0,0,1,5.541,1.861,16.469,16.469,0,0,1,3.782,3.169,34.939,34.939,0,0,1,2.429,2.886c.633.831,1.085,1.516,1.4,1.98l.467.717s-.7-.97-2.035-2.559a35.183,35.183,0,0,0-2.556-2.728,17.829,17.829,0,0,0-3.789-2.9A18.7,18.7,0,0,0,565.192,156.4Zm32.776,49.207a4.5,4.5,0,0,1-.786-.625c-.314-.3-.659-.7-1.064-1.134a9.374,9.374,0,0,0-1.528-1.271,20.653,20.653,0,0,1-3.67-3.512,24.8,24.8,0,0,1-1.679-2.333c-.534-.851-.9-1.768-1.448-2.526a5.027,5.027,0,0,0-2.162-1.68,9.025,9.025,0,0,0-2.673-.636,17.058,17.058,0,0,0-4.945.281,22.536,22.536,0,0,0-3.406.974c-.8.3-1.256.5-1.256.5s.426-.244,1.21-.608a19.326,19.326,0,0,1,3.377-1.2,17.678,17.678,0,0,1,2.37-.421,13.7,13.7,0,0,1,2.7-.052,9.539,9.539,0,0,1,2.845.638,5.614,5.614,0,0,1,2.435,1.85c.6.851.948,1.785,1.436,2.58a24.409,24.409,0,0,0,1.609,2.3,22.634,22.634,0,0,0,3.47,3.572c.278.236.568.442.822.673a6.974,6.974,0,0,1,.664.716c.381.469.691.885.979,1.2a5.2,5.2,0,0,0,.721.682c.182.138.288.2.288.2S598.165,205.733,597.968,205.611Zm5.793-9.83c-.233.327-.882.265-1.449-.14s-.841-1-.608-1.324.882-.265,1.451.14S603.993,195.453,603.761,195.781Zm3.8,13.245c-.042.4-.311.7-.6.669a.525.525,0,0,1-.377-.327.726.726,0,0,1-.016-.669,3.019,3.019,0,0,1,1.326-1.251,6.017,6.017,0,0,0-.7.981A.539.539,0,0,1,607.559,209.026Z" transform="translate(-485.155 -149.271)" fill="#f5f5f5"/>
      <path id="Path_693" data-name="Path 693" d="M532.7,177.528a1.944,1.944,0,0,0-.233-.1c-.685-.246-1.37-.512-2.056-.771s-1.337-.553-2.016-.792a3.54,3.54,0,0,0-1.936-.033l-2.715.5a58.8,58.8,0,0,0-.293,7.032c.114,5.271-1.1,6.522-1.316,9.063a65.268,65.268,0,0,0-.028,10.179c.293,2.556,1.55,5.555,2.362,4.791a1.405,1.405,0,0,1,1.417-.786c-.059.878-.379,1.492.12,1.877a2.515,2.515,0,0,0,1.384.652c1.736.153,4.77.319,4.77-.573a3.813,3.813,0,0,0-2.935-3.406c-1.716-.114-1.929-2.556-1.929-2.556a36.352,36.352,0,0,1,1.044-13.518C529.172,186.362,531.646,180.142,532.7,177.528Zm-6.3,17.193c-.156,1.467-.259,2.845-.281,4.028s-.018,2.173,0,2.865.041,1.092.041,1.092-.057-.394-.158-1.08c-.07-.691-.2-1.68-.226-2.874a35.339,35.339,0,0,1,.1-4.081,35.942,35.942,0,0,1,.716-4.635,39.594,39.594,0,0,1,1.466-4.452c.522-1.394,1.074-2.669,1.528-3.769.93-2.19,1.614-3.623,1.614-3.623s-.5,1.506-1.295,3.748c-.4,1.119-.857,2.425-1.352,3.826a40.164,40.164,0,0,0-1.37,4.41A35.134,35.134,0,0,0,526.4,194.721Z" transform="translate(-462.108 -132.699)" fill="#f5f5f5"/>
    </g>
  </g>
</svg>
