<svg xmlns="http://www.w3.org/2000/svg" xmlns:xlink="http://www.w3.org/1999/xlink" width="147.153" height="166.119" viewBox="0 0 147.153 166.119">
  <defs>
    <clipPath id="clip-path">
      <path id="Subtraction_3" data-name="Subtraction 3" d="M127.386,124.752H38.244l.953-2.019,2.684-14.394L31.405,100.1,19.39,108.339,0,122.746V0H127.386V124.751Z" fill="none" stroke="#707070" stroke-width="1"/>
    </clipPath>
  </defs>
  <g id="Group_265" data-name="Group 265" transform="translate(-609 -1611.5)">
    <g id="Group_250" data-name="Group 250" transform="translate(648.157 1639.871)">
      <g id="Group_239" data-name="Group 239" transform="translate(12.598 11.612)">
        <path id="Path_694" data-name="Path 694" d="M877.726,341.444a6.2,6.2,0,0,0-3.717,4.343c-.2,1.4,2,5.082,3.307,5.849,3.075,1.814,6.7.67,7.738-2.976.41-1.447-.078-2.253-.63-3.526a10.205,10.205,0,0,0-1.388-2.869A6.27,6.27,0,0,0,877.726,341.444Zm6.847,6.4c-.076,3.242-4.116,4.828-6.913,3.085-.861-.538-1.171-1.614-1.736-2.452-.6-.89-1.223-1.51-1.208-2.636,1.063-3.131,4.794-4.936,7.5-3.092.741.5.823,1.471,1.266,2.517C883.818,346.055,884.592,347.013,884.573,347.841Z" transform="translate(-845.052 -307.05)" fill="#f2f2f2" fill-rule="evenodd"/>
        <path id="Path_695" data-name="Path 695" d="M881.091,345.368c-1.738-.647-4.693,3.008-3,4.981a2.667,2.667,0,0,0,4.7-1.233C882.893,348.432,882.106,345.746,881.091,345.368Zm-1.958,3.733a2.713,2.713,0,0,1,1.558-2.61C882.3,347.407,881.24,351.04,879.133,349.1Z" transform="translate(-846.087 -308.234)" fill="#f2f2f2" fill-rule="evenodd"/>
        <path id="Path_696" data-name="Path 696" d="M875.045,306.654c-1.857-.615-2.484,2.273-3.2,3.275.233.59.664.027,1.063.223.49,1.057,1.294,2.867,2.866,3.442.621.225,2.082.126,2.468-.559a6.225,6.225,0,0,0,.036-1.885C878.084,310.1,875.943,306.95,875.045,306.654Zm2.245,5.626c-1.974.326-3.043-2.113-3.575-3.491a2.964,2.964,0,0,1,.755-.952C875.737,309.205,877.62,310.359,877.29,312.28Z" transform="translate(-844.43 -297.051)" fill="#f2f2f2" fill-rule="evenodd"/>
        <path id="Path_697" data-name="Path 697" d="M895.431,300.727c-1.736-.319-1.468,2.612-2.186,4.5-.447,1.181-1.86,3.211-.249,3.83,1.4.538,3.078-2.145,3.434-3.455C896.794,304.265,897.3,301.071,895.431,300.727Zm-1.92,6.971a27.477,27.477,0,0,1,1.758-5.732C895.751,303.5,895.547,306.792,893.511,307.7Z" transform="translate(-850.322 -295.357)" fill="#f2f2f2" fill-rule="evenodd"/>
        <path id="Path_698" data-name="Path 698" d="M894.765,296.344c-2.8-.031-5.081,1.877-5.41,5.717-.306,3.583-.226,7.106,4.1,8.432a9.859,9.859,0,0,0,4.624-7.414,16.548,16.548,0,0,0-.448-3C897.3,298.2,896.954,297.072,894.765,296.344Zm2.435,6.744a10.45,10.45,0,0,1-3.281,6.456,4.646,4.646,0,0,1-3.62-2.489c-.448-1.177-.33-6.63.9-8.2.827-1.048,2.9-2.057,4.523-.877C896.584,298.606,897.276,301.941,897.2,303.088Z" transform="translate(-849.456 -294.098)" fill="#f2f2f2" fill-rule="evenodd"/>
        <path id="Path_699" data-name="Path 699" d="M886.323,320.875c-2.062,3.991-2.252,8.694.659,11,5.383,4.27,6.841-3.664,5.8-7.429C892.055,321.814,888.961,317.945,886.323,320.875Zm5.585,9.3c-.061,2.036-2.374,2.47-4.284,1.287-3.27-2.026-3.5-9.425,1.05-10.906C892.776,322.248,892.012,326.689,891.908,330.172Z" transform="translate(-848.167 -300.88)" fill="#f2f2f2" fill-rule="evenodd"/>
        <path id="Path_700" data-name="Path 700" d="M839,325.6c-3.4,2.4-3.634,7.282.222,8.889,3.977,1.656,9.1-1.339,10.6-4.659C847.889,326.455,842.124,323.391,839,325.6Zm-1.1,7.078c-1.908-2.021.034-6.56,3.1-6.984,2.531-.35,6.7,1.985,8,4.323C846.8,333.206,841.412,336.4,837.9,332.681Z" transform="translate(-834.192 -302.331)" fill="#f2f2f2" fill-rule="evenodd"/>
        <path id="Path_701" data-name="Path 701" d="M842.1,329.56c-1.736-.889-4.075.435-3.562,2.515.079.071.232.117.179.235.469.144,1,.591,1.539.747,1.217.348,5.329.349,6.064-.13,1.5-.976,1.023-2.678-.745-3.288-1.041-.361-2.126.263-3-.142m-.5,2.833A6.911,6.911,0,0,1,840,331.175c.632-.721,1.653-.154,2.707-.15,1.187.005,2.3-.741,3.479.371C845.875,332.294,843.426,332.682,842.076,332.329Z" transform="translate(-834.792 -303.609)" fill="#f2f2f2" fill-rule="evenodd"/>
        <path id="Path_702" data-name="Path 702" d="M853.367,315.088c.169,1.866,5.644,6.124,6.333,2.634.287-1.454-.974-1.918-2.156-3.1-.78-.777-1.381-1.75-2.142-1.918C854.275,312.462,853.27,314,853.367,315.088Zm1.581-.843c1.223.668,2.505,2.149,3.922,3.075C857.337,318.672,854.468,315.751,854.948,314.246Z" transform="translate(-839.093 -298.817)" fill="#f2f2f2" fill-rule="evenodd"/>
        <path id="Path_703" data-name="Path 703" d="M856.682,342.542c-2.617-.514-7.8,2.754-8.289,6.222a5.509,5.509,0,0,0,1.817,4.395c1.491,1.025,4.947.548,6.416-.253a9.024,9.024,0,0,0,3.3-4.4C860.635,346.2,859.6,343.118,856.682,342.542Zm2.6,5.5c-.545,2.151-2.147,4.006-3.6,4.4a19.6,19.6,0,0,1-2.354.028c-.932.047-1.809.435-2.412.146-1.249-.6-1.789-2.937-1.578-3.986.567-2.821,5.332-5.763,7.476-5.151C859.151,344.15,859.782,346.063,859.278,348.046Z" transform="translate(-837.651 -307.424)" fill="#f2f2f2" fill-rule="evenodd"/>
        <path id="Path_704" data-name="Path 704" d="M849.13,325.716c-.657-.616-1.251-1.484-1.848-1.922-5.477-4.018-11.791-2.83-13.572,2.632a7,7,0,0,0,2.925,8.446l2.185.621c1.991.646,3.552.048,5.189-.33l2.555-1.1h0c1.654-.927,3.72-2.318,4.432-4.661C851.533,327.644,850.345,326.855,849.13,325.716Zm.1,3.415a7.445,7.445,0,0,1-1.968,2.849c-2.8,2.3-10.485,4.289-12.026-1.154-.7-2.483.424-5.942,3.274-7.045,2.767-1.072,6.76.589,9.16,2.837C848.592,327.482,849.395,328.009,849.228,329.131Z" transform="translate(-833.299 -301.337)" fill="#f2f2f2" fill-rule="evenodd"/>
        <path id="Path_705" data-name="Path 705" d="M882.792,326.985l.728.2c0-.016-.005-.033-.011-.048-.063-.041-.146-.076-.209-.118,3.147.826,5.664-.712,6.39-4.867-.516-4.095-.791-6.438-.937-7.752-.568-.788-.831-1.844-1.482-2.644a4.708,4.708,0,0,0,3.119-1.923c.053-.107,3.488-7.091,3.243-11.646a5.863,5.863,0,0,0-4.175-4.909,7.317,7.317,0,0,0-8.215,4.923c-.847,2.782-.236,5.06-.282,7.565-.436-.985-.792-2-1.223-2.983-.1-.2-.211-.445-.349-.752-.01-.02-.018-.041-.028-.06-8.261-10.3-12.386,1.964-12.4,2-.3,2.811,1.274,4.972,3.459,6.922l3.153,2.848a6.151,6.151,0,0,0,4.427.832c-1.663,3.676-1.287,8.738,2.367,11.1.244.158.486.3.726.433-2.21-.716-4.314-1.124-6.316-.283a8.183,8.183,0,0,0-4.679,6.6c.316,2.135,1.957,8.786,10.1,7.772l.008,0c1.818-1.171,7.206-3.729,2.589-12.275Zm1.706-30.919a4.971,4.971,0,0,1,6.541.394c2.438,2.666.612,12.474-4.257,13.594a8.218,8.218,0,0,1-4.225-3.661C882.627,303.685,881.512,299.026,884.5,296.067Zm-1.191,13.91c-.621.389-1.442.2-1.993.789-.152-1,.364-2.228-.1-3.12C881.907,308.034,882.313,309.368,883.307,309.977Zm-10.253-.586c-2.144-1.7-4.6-3.679-3.433-6.5a3.281,3.281,0,0,1,3.921-2.048c1.623.516,2.713,2.435,3.4,3.847.775,1.588,1.876,3.4,1.587,4.868C877.823,313.178,874.936,310.887,873.054,309.391Zm4.687,3.007c.225-.983,1.161-1.073,1.566-2.021,1.007-2.361-2-7.73-3.823-9.612a4.065,4.065,0,0,0-5.359-.114,6.081,6.081,0,0,0-.51,6.778c1.076,1.5,4.785,4.72,6.951,5.277-2.08.275-4.08-2.038-5.635-3.466a13.358,13.358,0,0,1-2.206-2.388c-2.01-3.873,2.117-8.728,5.98-7.2,2.478.982,3.358,3.21,4,5.016C879.448,306.732,881.263,311.069,877.741,312.4Zm1.041,8.409c-.706-3.045,1.015-7.969,4.136-8.823,1.954-.534,3.827,1.8,4.633,3.42,1.322,2.652,1.958,8.272-1.646,10.324C882.448,325.428,879.549,324.115,878.782,320.806Zm4.642,14.044c-.987,3.891-5.541,5.28-8.855,3.166-1.46-.931-3.227-4.335-2.955-5.971a6.258,6.258,0,0,1,9.609-4.117,7.33,7.33,0,0,1,2.1,3.215A7.569,7.569,0,0,1,883.424,334.851Z" transform="translate(-843.01 -293.186)" fill="#f2f2f2" fill-rule="evenodd"/>
        <path id="Path_706" data-name="Path 706" d="M870.6,321.75a5.252,5.252,0,0,0-2.974-2.614c-2.722-1.045-5.036.555-7.234,1.709l-.027-.021a5.978,5.978,0,0,1,2.006-2.922c-.361-1.149-.561-2.353-1-3.476a18.17,18.17,0,0,0-1.674-2.762,1.026,1.026,0,0,1-.5-.644,10.656,10.656,0,0,0-6.528-4.012h0c-.105-.008-.208-.016-.311-.028-1.907.063-7.395,3.614-3.855,9.836a16.241,16.241,0,0,0,3.872,3.124c1.226.561,6.084,2.706,6.986,1.867-.425.561-.794,1.029-1.116,1.421.012.014.023.028.035.042a6.21,6.21,0,0,0-.305,6.4c-.247-.144-.257.395-.405.535a16.192,16.192,0,0,0-6.936,1.019v0c-.034.012-.066.031-.1.045a6.717,6.717,0,0,0-1.671,1.075c-.038.034-.074.071-.111.106-.124.116-.244.236-.361.359s-.209.23-.31.351l-.088.1a10.53,10.53,0,0,0-1.177,1.831,3.766,3.766,0,0,0-.215.4c-.09.2-.177.393-.255.592a4.431,4.431,0,0,0-.153.484,9.02,9.02,0,0,0-.524,3.653c0,.031.006.061.01.092a5.358,5.358,0,0,0,.09.57c0,.025.01.049.016.074a4.553,4.553,0,0,0,.173.582l0,.01a3.832,3.832,0,0,0,.265.56c1.923,1.838,2.891,2.622,3.741,2.905a7.475,7.475,0,0,0,1.245.119c2.047-.246,6.621-1.23,8.806-4.268v-.011l.021-.018a6.252,6.252,0,0,0,.888-1.757c.25-.8.426-1.479.555-2.073a5.766,5.766,0,0,0-.338-3.021c-.506-1.181-1.893-1.815-2.1-3.214,1.149.313,1.414,1.137,2.785,1.5C865.69,333.295,871.934,325.191,870.6,321.75Zm-17.261-11.632c2.53,1.576,6.506,4.458,5.68,7.294-.9,3.094-3.615.739-5.543-.641a11.3,11.3,0,0,1-2.8-2.383C849.835,312.714,850.935,309.747,853.335,310.118Zm5.653,10.062a3.658,3.658,0,0,1-3.654-.311c-3.848-2.169-7.567-5.158-6.225-8.582.7-1.788,2.2-2.114,3.742-2.282-.881.5-2.017.467-2.69,1.621a5.047,5.047,0,0,0-.008,4.24,12.573,12.573,0,0,0,2.856,2.558c1.8,1.455,4.509,3.852,6.146,1.811.887-1.1.611-3,.307-3.948-.71-2.22-3.22-4.294-5.31-5.944,1.458.43,2.927,2.031,4.044,3.427C859.893,314.892,861.5,317.015,858.989,320.18Zm.8,17.951a9.348,9.348,0,0,1-4,4.934c-1.452.677-5.557,1.615-7.485-.56-2.124-2.4-.5-7.448,2.539-9.452,1.536-1.012,4.5-1.971,6.05-1.307A5.434,5.434,0,0,1,859.788,338.13Zm1.236-15.206c-1.4,1.933-2.436,4.907-.751,6.368C858.164,328.265,858.825,324.353,861.024,322.924Zm.064,5.592c-2.984-2.75,2.868-8.476,6.235-5.608.556,2.737-2.893,5.137-4.573,6.708-.588-.371-1-.226-1.6-.629m7.269-2.912c-.289.462-.937.637-1.4,1.076-1.526,1.443-2.918,4.279-4.966,3.3,1.772-.745,7.779-4.793,6.149-7.844-1.336-2.5-5.456-1.134-6.885.316,1.1-1.878,6.342-3.507,7.651-.384A5.42,5.42,0,0,1,868.422,326.076Z" transform="translate(-836.862 -297.169)" fill="#f2f2f2" fill-rule="evenodd"/>
        <path id="Path_707" data-name="Path 707" d="M858.658,347.935c-.009.005-.02.006-.029.012.124-.732-.506-1.2-1.431-1.572-1.156.058-2.37,1.213-3.513,1.808-1.25.65-3.581,1.329-2.905,3.272,1.217.8,1.508.332,2.592.088,1.523-.343,3.257-.405,4.222-1.463l.349-.416c.148-.3.353-.432.509-.709C858.457,348.935,858.57,348.4,858.658,347.935Zm-6.592,2.681c1.607-1.049,3.333-1.753,4.912-2.884l.474.23C856.2,350.41,854.229,350.792,852.066,350.616Z" transform="translate(-838.313 -308.546)" fill="#f2f2f2" fill-rule="evenodd"/>
        <path id="Path_708" data-name="Path 708" d="M891.371,328.839c.12-1-.471-1.479-.8-2.581-.274-.928.059-2.931-1.041-3.287-2.178-.7-2.582,4.454-1.994,5.618-.023-.013-.041-.015-.062-.026a9.736,9.736,0,0,0,.381.951.528.528,0,0,1,.1.011.447.447,0,0,1,.111.409,3.351,3.351,0,0,0,1.518,1.565c1,.224,1.915-.786,1.9-2.016Zm-1.221,1.309c-1.581-1.423-1.7-3.351-1.124-5.521.255,1.849,1.427,3.381,1.711,5.22C890.583,330.071,890.344,330.047,890.15,330.148Z" transform="translate(-848.892 -301.769)" fill="#f2f2f2" fill-rule="evenodd"/>
        <g id="Group_237" data-name="Group 237" transform="translate(24.447 26.151)">
          <path id="Path_709" data-name="Path 709" d="M871.635,334.4a.479.479,0,0,0,.09.144Z" transform="translate(-868.817 -331.238)" fill="#f2f2f2" fill-rule="evenodd"/>
          <path id="Path_710" data-name="Path 710" d="M872.1,331.826c.454-.436.8-1.053.363-1.56l-.355-.172c-2.161-.75-4.532,1.711-4.429,4,1.2,1.459,2.013-.368,2.815-.976C870.491,333.115,871.616,331.849,872.1,331.826Zm-3.075,1.6a2.6,2.6,0,0,1,2.447-2.325A20.383,20.383,0,0,0,869.022,333.426Z" transform="translate(-867.672 -329.956)" fill="#f2f2f2" fill-rule="evenodd"/>
        </g>
      </g>
      <g id="Group_246" data-name="Group 246" transform="translate(0 0)">
        <g id="Group_241" data-name="Group 241" transform="translate(33.144 0) rotate(60)" opacity="0.4">
          <path id="Path_711" data-name="Path 711" d="M2.757.793c-3.589,2.539-3.84,7.694.235,9.392,4.2,1.75,9.612-1.415,11.2-4.922C12.151,1.692,6.06-1.545,2.757.793ZM1.6,8.271C-.417,6.136,1.635,1.34,4.874.892c2.674-.37,7.083,2.1,8.453,4.568C11.006,8.825,5.308,12.2,1.6,8.271Z" transform="translate(2.322 2.586)" fill="#fff" fill-rule="evenodd"/>
          <path id="Path_712" data-name="Path 712" d="M3.84.3C2.006-.642-.466.756.076,2.954c.083.075.245.123.189.248.5.152,1.052.624,1.626.789,1.286.368,5.63.369,6.407-.137C9.884,2.823,9.38,1.024,7.511.38,6.411,0,5.264.658,4.336.229M3.812,3.222A7.3,7.3,0,0,1,1.62,2c.667-.762,1.746-.162,2.86-.159,1.254.005,2.432-.783,3.676.392C7.825,3.186,5.238,3.6,3.812,3.222Z" transform="translate(3.885 5.912)" fill="#fff" fill-rule="evenodd"/>
          <path id="Path_713" data-name="Path 713" d="M16.727,4.548c-.694-.651-1.322-1.568-1.952-2.03C8.988-1.729,2.316-.473.435,5.3a7.4,7.4,0,0,0,3.091,8.924l2.309.656c2.1.682,3.754.051,5.483-.349l2.7-1.161h0c1.748-.979,3.931-2.449,4.683-4.925C19.266,6.584,18.011,5.751,16.727,4.548Zm.1,3.608a7.869,7.869,0,0,1-2.079,3.01C11.794,13.6,3.673,15.7,2.045,9.947,1.3,7.323,2.493,3.668,5.5,2.5c2.923-1.132,7.143.622,9.679,3C16.159,6.413,17.007,6.971,16.831,8.156Z" transform="translate(0 0)" fill="#fff" fill-rule="evenodd"/>
        </g>
        <g id="Group_243" data-name="Group 243" transform="translate(0 50.502) rotate(-30)" opacity="0.4">
          <path id="Path_711-2" data-name="Path 711" d="M2.757.793c-3.589,2.539-3.84,7.694.235,9.392,4.2,1.75,9.612-1.415,11.2-4.922C12.151,1.692,6.06-1.545,2.757.793ZM1.6,8.271C-.417,6.136,1.635,1.34,4.874.892c2.674-.37,7.083,2.1,8.453,4.568C11.006,8.825,5.308,12.2,1.6,8.271Z" transform="translate(2.322 2.586)" fill="#fff" fill-rule="evenodd"/>
          <path id="Path_712-2" data-name="Path 712" d="M3.84.3C2.006-.642-.466.756.076,2.954c.083.075.245.123.189.248.5.152,1.052.624,1.626.789,1.286.368,5.63.369,6.407-.137C9.884,2.823,9.38,1.024,7.511.38,6.411,0,5.264.658,4.336.229M3.812,3.222A7.3,7.3,0,0,1,1.62,2c.667-.762,1.746-.162,2.86-.159,1.254.005,2.432-.783,3.676.392C7.825,3.186,5.238,3.6,3.812,3.222Z" transform="translate(3.885 5.912)" fill="#fff" fill-rule="evenodd"/>
          <path id="Path_713-2" data-name="Path 713" d="M16.727,4.548c-.694-.651-1.322-1.568-1.952-2.03C8.988-1.729,2.316-.473.435,5.3a7.4,7.4,0,0,0,3.091,8.924l2.309.656c2.1.682,3.754.051,5.483-.349l2.7-1.161h0c1.748-.979,3.931-2.449,4.683-4.925C19.266,6.584,18.011,5.751,16.727,4.548Zm.1,3.608a7.869,7.869,0,0,1-2.079,3.01C11.794,13.6,3.673,15.7,2.045,9.947,1.3,7.323,2.493,3.668,5.5,2.5c2.923-1.132,7.143.622,9.679,3C16.159,6.413,17.007,6.971,16.831,8.156Z" transform="translate(0 0)" fill="#fff" fill-rule="evenodd"/>
        </g>
        <g id="Group_242" data-name="Group 242" transform="matrix(-0.839, -0.545, 0.545, -0.839, 68.895, 43.955)" opacity="0.4">
          <path id="Path_711-3" data-name="Path 711" d="M2.2.632C-.664,2.656-.864,6.767,2.385,8.12c3.35,1.4,7.664-1.128,8.933-3.924C9.688,1.349,4.832-1.232,2.2.632ZM1.275,6.595C-.332,4.892,1.3,1.068,3.886.711,6.018.416,9.533,2.383,10.625,4.353,8.775,7.036,4.232,9.725,1.275,6.595Z" transform="translate(1.851 2.062)" fill="#fff" fill-rule="evenodd"/>
          <path id="Path_712-3" data-name="Path 712" d="M3.062.237a2.022,2.022,0,0,0-3,2.119c.067.06.2.1.151.2.395.121.839.5,1.3.629,1.025.294,4.489.294,5.108-.11C7.88,2.25,7.479.817,5.989.3,5.111,0,4.2.524,3.457.183M3.039,2.569A5.823,5.823,0,0,1,1.292,1.6c.532-.608,1.392-.129,2.28-.126,1,0,1.939-.624,2.931.313C6.239,2.54,4.176,2.867,3.039,2.569Z" transform="translate(3.097 4.713)" fill="#fff" fill-rule="evenodd"/>
          <path id="Path_713-3" data-name="Path 713" d="M13.337,3.626c-.553-.519-1.054-1.25-1.557-1.619C7.166-1.378,1.846-.377.347,4.225A5.9,5.9,0,0,0,2.811,11.34l1.841.523c1.677.544,2.993.041,4.371-.278l2.153-.926h0a7.253,7.253,0,0,0,3.734-3.926C15.361,5.25,14.36,4.585,13.337,3.626ZM13.419,6.5a6.274,6.274,0,0,1-1.658,2.4C9.4,10.843,2.929,12.516,1.63,7.93A5.055,5.055,0,0,1,4.388,2c2.331-.9,5.695.5,7.717,2.39C12.883,5.113,13.559,5.558,13.419,6.5Z" transform="translate(0 0)" fill="#fff" fill-rule="evenodd"/>
        </g>
        <g id="Group_245" data-name="Group 245" transform="matrix(-0.839, -0.545, 0.545, -0.839, 73.287, 66.797)" opacity="0.4">
          <path id="Path_711-4" data-name="Path 711" d="M2.2.632C-.664,2.656-.864,6.767,2.385,8.12c3.35,1.4,7.664-1.128,8.933-3.924C9.688,1.349,4.832-1.232,2.2.632ZM1.275,6.595C-.332,4.892,1.3,1.068,3.886.711,6.018.416,9.533,2.383,10.625,4.353,8.775,7.036,4.232,9.725,1.275,6.595Z" transform="translate(1.851 2.062)" fill="#fff" fill-rule="evenodd"/>
          <path id="Path_712-4" data-name="Path 712" d="M3.062.237a2.022,2.022,0,0,0-3,2.119c.067.06.2.1.151.2.395.121.839.5,1.3.629,1.025.294,4.489.294,5.108-.11C7.88,2.25,7.479.817,5.989.3,5.111,0,4.2.524,3.457.183M3.039,2.569A5.823,5.823,0,0,1,1.292,1.6c.532-.608,1.392-.129,2.28-.126,1,0,1.939-.624,2.931.313C6.239,2.54,4.176,2.867,3.039,2.569Z" transform="translate(3.097 4.713)" fill="#fff" fill-rule="evenodd"/>
          <path id="Path_713-4" data-name="Path 713" d="M13.337,3.626c-.553-.519-1.054-1.25-1.557-1.619C7.166-1.378,1.846-.377.347,4.225A5.9,5.9,0,0,0,2.811,11.34l1.841.523c1.677.544,2.993.041,4.371-.278l2.153-.926h0a7.253,7.253,0,0,0,3.734-3.926C15.361,5.25,14.36,4.585,13.337,3.626ZM13.419,6.5a6.274,6.274,0,0,1-1.658,2.4C9.4,10.843,2.929,12.516,1.63,7.93A5.055,5.055,0,0,1,4.388,2c2.331-.9,5.695.5,7.717,2.39C12.883,5.113,13.559,5.558,13.419,6.5Z" transform="translate(0 0)" fill="#fff" fill-rule="evenodd"/>
        </g>
        <g id="Group_244" data-name="Group 244" transform="translate(37.224 79.967) rotate(-98)" opacity="0.3">
          <path id="Path_711-5" data-name="Path 711" d="M2.2.632C-.664,2.656-.864,6.767,2.385,8.12c3.35,1.4,7.664-1.128,8.933-3.924C9.688,1.349,4.832-1.232,2.2.632ZM1.275,6.595C-.332,4.892,1.3,1.068,3.886.711,6.018.416,9.533,2.383,10.625,4.353,8.775,7.036,4.232,9.725,1.275,6.595Z" transform="translate(1.851 2.062)" fill="#fff" fill-rule="evenodd"/>
          <path id="Path_712-5" data-name="Path 712" d="M3.062.237a2.022,2.022,0,0,0-3,2.119c.067.06.2.1.151.2.395.121.839.5,1.3.629,1.025.294,4.489.294,5.108-.11C7.88,2.25,7.479.817,5.989.3,5.111,0,4.2.524,3.457.183M3.039,2.569A5.823,5.823,0,0,1,1.292,1.6c.532-.608,1.392-.129,2.28-.126,1,0,1.939-.624,2.931.313C6.239,2.54,4.176,2.867,3.039,2.569Z" transform="translate(3.097 4.713)" fill="#fff" fill-rule="evenodd"/>
          <path id="Path_713-5" data-name="Path 713" d="M13.337,3.626c-.553-.519-1.054-1.25-1.557-1.619C7.166-1.378,1.846-.377.347,4.225A5.9,5.9,0,0,0,2.811,11.34l1.841.523c1.677.544,2.993.041,4.371-.278l2.153-.926h0a7.253,7.253,0,0,0,3.734-3.926C15.361,5.25,14.36,4.585,13.337,3.626ZM13.419,6.5a6.274,6.274,0,0,1-1.658,2.4C9.4,10.843,2.929,12.516,1.63,7.93A5.055,5.055,0,0,1,4.388,2c2.331-.9,5.695.5,7.717,2.39C12.883,5.113,13.559,5.558,13.419,6.5Z" transform="translate(0 0)" fill="#fff" fill-rule="evenodd"/>
        </g>
      </g>
    </g>
    <g id="Group_264" data-name="Group 264" transform="translate(609 1611.5)">
      <g id="Group_248" data-name="Group 248" transform="translate(0 69.843)">
        <g id="Group_247" data-name="Group 247" transform="translate(0 0)">
          <path id="Path_714" data-name="Path 714" d="M292.923,231.049l-3.338-2.622a4.446,4.446,0,0,0-5.913.263L270,241.782c-3.186-.829-6.958-8.806-8.809-14.757l3.442-15.464a1.5,1.5,0,0,0-2.92-.653l-3.527,15.849a1.5,1.5,0,0,0,.029.759c.87,2.891,5.565,17.327,12.313,17.327a1.486,1.486,0,0,0,1.034-.415l14.2-13.6a1.455,1.455,0,0,1,1.965-.058l3.3,2.586a1.56,1.56,0,0,1,.233,2.173L264.83,268.29l-19.674,17.04a1.5,1.5,0,0,0,1.957,2.266l19.858-17.233,26.586-32.925A4.531,4.531,0,0,0,292.923,231.049Z" transform="translate(-237.762 -191.683)" fill="#fff"/>
          <path id="Path_715" data-name="Path 715" d="M266,189.608a1.5,1.5,0,0,0-2.12-2.113L248.4,203.04a1.521,1.521,0,0,0-.327.5l-11.961,29.9a1.494,1.494,0,1,0,2.774,1.11l11.849-29.614Z" transform="translate(-236 -187.057)" fill="#fff"/>
        </g>
      </g>
      <g id="Mask_Group_20" data-name="Mask Group 20" transform="translate(19.767)" clip-path="url(#clip-path)">
        <g id="Ellipse_46" data-name="Ellipse 46" transform="translate(8.98 10.39)" fill="none" stroke="#fff" stroke-width="4">
          <ellipse cx="53.5" cy="54" rx="53.5" ry="54" stroke="none"/>
          <ellipse cx="53.5" cy="54" rx="51.5" ry="52" fill="none"/>
        </g>
      </g>
    </g>
  </g>
</svg>
