<svg xmlns="http://www.w3.org/2000/svg" xmlns:xlink="http://www.w3.org/1999/xlink" width="179" height="144.001" viewBox="0 0 179 144.001">
  <defs>
    <clipPath id="clip-path">
      <path id="Subtraction_2" data-name="Subtraction 2" d="M961-4838H782v-144H961v38H895v68h66v38Z" transform="translate(701 6535)" fill="none" stroke="#707070" stroke-width="1"/>
    </clipPath>
  </defs>
  <g id="Group_290" data-name="Group 290" transform="translate(-1463 -1553)">
    <g id="Group_226" data-name="Group 226" transform="translate(589.237 1479.109)">
      <path id="Path_617" data-name="Path 617" d="M1009.911,200.783l-2.348.677c-.832.232-1.713.446-2.619.671s-1.848.415-2.8.6l-.359.066-.349.059-.751.123c-.49.069-.952.144-1.449.194-.979.135-1.969.2-2.943.286-.977.056-1.941.122-2.879.145-1.875.076-3.637.069-5.158.067l-3.7-.046c-.9-.016-1.422-.005-1.422-.005s.481.2,1.342.484a32.667,32.667,0,0,0,3.631.959c.762.158,1.592.313,2.478.423s1.824.231,2.8.279a34.136,34.136,0,0,0,6.145-.174c.517-.06,1.063-.154,1.578-.235l.747-.144.395-.084.38-.087a30.348,30.348,0,0,0,2.918-.835c.931-.312,1.807-.678,2.628-1.033s1.577-.735,2.267-1.095a34.086,34.086,0,0,0,3.22-1.928c.752-.506,1.16-.828,1.16-.828s-.505.134-1.367.393Z" transform="translate(-20.777 -35.203)" fill="#fff"/>
      <path id="Path_618" data-name="Path 618" d="M990.679,198.935c.67.132,1.4.262,2.178.361s1.6.177,2.46.218,1.745.062,2.649.03,1.823-.1,2.74-.2c.455-.056.918-.126,1.383-.2s.86-.167,1.338-.264c.888-.2,1.748-.44,2.567-.708a28.463,28.463,0,0,0,4.324-1.811,27.6,27.6,0,0,0,2.847-1.67c.664-.442,1.022-.728,1.022-.728s-.451.1-1.218.288l-3.146.808c-1.3.319-2.788.7-4.389,1.032-.8.169-1.626.329-2.466.473l-1.281.2c-.416.061-.838.119-1.272.165-3.439.421-6.949.522-9.618.619-1.333.029-2.456.066-3.248.1s-1.25.06-1.25.06.424.173,1.184.42A28.185,28.185,0,0,0,990.679,198.935Z" transform="translate(-22.009 -33.117)" fill="#fff"/>
      <path id="Path_619" data-name="Path 619" d="M1032.345,135.116c-.056-2.847-1.951-5.76-5.2-7.994q-.333-.228-.672-.445c-5.342-3.412-11.213-6.817-19.053-7.689-6.206-.69-12.514-.765-18.616-.838-2.122-.025-4.242-.05-6.36-.1-6.281-.148-12.029-2.836-17.587-5.436l-.988-.461c-3.006-1.4-7.561-3.262-12.4-3.262-.494,0-.989.019-1.472.057-6.522.511-12.683,4.624-16.48,11a25.286,25.286,0,0,0-3.528,16.4v14.79c0,5.311,3.282,10.908,9,15.356,8.313,6.462,22.343,10.592,34.353,10.592a42.786,42.786,0,0,0,8.141-.729c7.429-1.451,13.991-5.01,20.337-8.452a99.618,99.618,0,0,1,12.416-6.027c1.378-.515,2.922-.952,4.558-1.416,3.577-1.013,7.276-2.059,10.088-4.156,2.854-2.129,3.453-4.383,3.453-5.9,0-2.387-.061-10.2-.091-14.041A6.7,6.7,0,0,0,1032.345,135.116Zm-8.169-4.845c.187.12.373.242.554.366a7.754,7.754,0,0,1,3.238,3.876c0,.286.007.768.012,1.4a4.226,4.226,0,0,1-1.643,2.049c-2.182,1.627-5.5,2.566-8.7,3.472-1.646.467-3.349.948-4.89,1.525a69.748,69.748,0,0,0-6.773,3.007c-3.088-.978-5.135-3.8-7.925-5.476a18.1,18.1,0,0,0-6.85-2.332,29.332,29.332,0,0,0-9.841.455c-.431-1.729-1.329-3.235-1.324-5.088.012-3.745,2.633-4.625,5.219-6.167a38.268,38.268,0,0,0,6.891-4.906c4.924.076,9.932.225,14.8.767C1013.877,124,1019.258,127.129,1024.177,130.271Zm-56.434,13.446c7.118-.569,13.349-4.388,20.684-4.227a18.128,18.128,0,0,1,11.82,4.619,19.747,19.747,0,0,0,3.94,2.778c-1.482.773-2.948,1.565-4.395,2.35-6.063,3.289-12.333,6.69-19.122,8.015a38.731,38.731,0,0,1-7.373.657,61.3,61.3,0,0,1-22.663-4.635,8.962,8.962,0,0,0,3.42-2.686,14.187,14.187,0,0,0,1.707-4.081c1.261-3.593,3.828-2.929,6.625-3.523A11.548,11.548,0,0,0,967.743,143.718Zm-4.693-27.241c5.957,2.785,12.117,5.666,19.292,5.836,2.134.051,4.272.076,6.411.1l1.005.012a42.528,42.528,0,0,1-4.828,3.229c-1.951,1.061-4.42,1.721-5.816,3.567-1.962,2.593-1.675,7.568.926,9.679-1.624.376-3.231.835-4.813,1.334-3.192,1.008-6.668,2.261-10.051,1.671-4.613-.8-6.869-4.989-8.214-9.094-2.012-6.141-1.751-12.765-1.491-19.171a33.556,33.556,0,0,1,6.6,2.376Zm-25.868,5.654c3.089-5.19,8.005-8.53,13.148-8.933.373-.029.757-.044,1.14-.044a16.58,16.58,0,0,1,2.45.193c-.6,7.965-.786,21.917,5.508,27.743a6.019,6.019,0,0,0-4.467,1.935c-1.651,1.909-1.407,4.724-3.141,6.559a10.828,10.828,0,0,1-4.111,2.363,36.049,36.049,0,0,1-6.1-3.74,19.558,19.558,0,0,1-7.381-12.31A20.979,20.979,0,0,1,937.181,122.131Zm89.156,30.759c-2.182,1.627-5.5,2.565-8.7,3.472-1.646.466-3.349.948-4.89,1.524a104.306,104.306,0,0,0-12.955,6.272c-6.063,3.289-12.333,6.69-19.122,8.015-11.882,2.319-29.769-1.822-39.059-9.044a23.25,23.25,0,0,1-5.007-5.21c.453.393.915.782,1.406,1.15.719.544,1.419,1.037,2.172,1.509a42.6,42.6,0,0,0,8.624,4.048c1.216.422,2.239.732,2.958.937l1.13.314-1.067-.485c-.675-.314-1.633-.778-2.754-1.377a41.212,41.212,0,0,1-7.618-5.149c-.617-.536-1.227-1.129-1.766-1.69-.559-.575-1.068-1.176-1.54-1.762-.308-.387-.588-.772-.853-1.154.057.047.11.1.168.144.372.307.765.608,1.168.9s.754.536,1.192.832a42.629,42.629,0,0,0,9.515,4.548c1.348.462,2.482.8,3.281,1.02l1.254.337-1.194-.51c-.755-.329-1.827-.821-3.081-1.461a41.293,41.293,0,0,1-8.478-5.628c-.308-.278-.7-.633-1.006-.938s-.623-.625-.925-.955a23.188,23.188,0,0,1-1.653-1.987c-.169-.224-.319-.448-.472-.672a24.215,24.215,0,0,0,1.93,1.677c8.155,6.34,21.94,10.6,34.3,10.6a42.988,42.988,0,0,0,8.191-.736c7.43-1.45,13.991-5.01,20.338-8.452a99.522,99.522,0,0,1,12.415-6.026c1.378-.515,2.922-.953,4.558-1.416a38.157,38.157,0,0,0,8.588-3.191,3.606,3.606,0,0,1-.554.749c-.086.089-.176.181-.279.272l-.038.035-.02.017-.009.009c.023-.016-.059.043.051-.035l-.007,0-.109.085-.224.174c-.322.264-.575.425-.849.618a17.606,17.606,0,0,1-2.156,1.188c-.819.383-1.717.757-2.678,1.116-1.919.726-4.06,1.4-6.2,2.241-1.086.43-2.1.9-3.116,1.394s-1.972,1.005-2.9,1.514c-1.852,1.021-3.533,2.035-4.967,2.914l-4.758,2.947,5.071-2.361c1.523-.7,3.3-1.5,5.232-2.286.965-.389,1.966-.774,2.99-1.134s2.081-.7,3.116-.971c2.106-.556,4.3-.968,6.385-1.482,1.042-.253,2.059-.539,3.027-.859.65-.21,1.26-.457,1.857-.717l-.421.329-.388.269a15.648,15.648,0,0,1-2.043,1.161c-.776.383-1.639.746-2.558,1.1-1.833.713-3.89,1.372-5.944,2.155-1.032.393-2.056.845-3.016,1.306-.981.467-1.915.945-2.813,1.433-1.794.969-3.419,1.938-4.8,2.781l-4.579,2.843,4.89-2.255c1.471-.663,3.192-1.418,5.058-2.145a49.029,49.029,0,0,1,5.9-1.93c2.051-.5,4.166-.9,6.178-1.408,1.006-.249,1.987-.523,2.919-.846a19.077,19.077,0,0,0,2.644-1.1l.62-.331A5.068,5.068,0,0,1,1026.337,152.89Z" fill="#fff"/>
      <path id="Path_620" data-name="Path 620" d="M947.923,151.182c.589.455,1.251.909,1.952,1.359a9.675,9.675,0,0,0,1.025.337,1.567,1.567,0,0,0,.249.043c.1.01.2.021.3.029a1.318,1.318,0,0,0,.445-.038,2.485,2.485,0,0,0,2-1.779c.085-.256.164-.518.244-.78a12.929,12.929,0,0,1,2.2-4.55c.073-.088.147-.175.222-.259a2.26,2.26,0,0,0,.373-2.4c-1.982-4.6-2.977-10.735-3.008-18.522a2.27,2.27,0,0,0-3.314-2,16.31,16.31,0,0,0-6.4,6.225,18.026,18.026,0,0,0-2.583,11.86A16.662,16.662,0,0,0,947.923,151.182Zm-5.22-13.776a16.167,16.167,0,0,1,1.571-5.9,17.448,17.448,0,0,1,1.4-2.418,14.859,14.859,0,0,1,1.587-1.947,13.138,13.138,0,0,1,2.928-2.288,9.311,9.311,0,0,1,.925-.464l.335-.144s-.434.268-1.129.8a14.823,14.823,0,0,0-2.533,2.551,19,19,0,0,0-1.34,1.964,22.074,22.074,0,0,0-1.193,2.38,18.736,18.736,0,0,0-.892,2.676,15.275,15.275,0,0,0-.443,2.859,12.875,12.875,0,0,0-.029,1.447c0,.242.029.47.042.705l.083.723a14.054,14.054,0,0,0,.675,2.708,15.789,15.789,0,0,0,2.429,4.366,18.946,18.946,0,0,0,1.339,1.521c.2.22.429.41.62.594.182.165.391.321.558.459.686.559,1.068.892,1.068.892s-.444-.246-1.2-.7c-.191-.12-.394-.23-.632-.392-.216-.159-.456-.31-.7-.511a12.813,12.813,0,0,1-1.571-1.407,14.242,14.242,0,0,1-2.9-4.438,13.322,13.322,0,0,1-.838-2.915l-.1-.762c-.02-.264-.054-.535-.059-.8A14.11,14.11,0,0,1,942.7,137.406Z" transform="translate(-4.55 -5.247)" fill="#fff"/>
      <path id="Path_621" data-name="Path 621" d="M984.756,143.842a6.025,6.025,0,0,0,1.078.091c.229,0,.459-.011.687-.03a22.571,22.571,0,0,0,5.1-1.276,2.05,2.05,0,0,0,.892-.882,5.161,5.161,0,0,0,.161-1.612.292.292,0,0,1,.034-.14c.012-.158.032-.313.058-.466a11.879,11.879,0,0,1,.114-1.828,10.651,10.651,0,0,1,1.92-4.785,9.536,9.536,0,0,1,.74-.89.873.873,0,0,0-.477-1.438c-5.122-1.1-9.716-3.25-14.2-5.347l-.993-.469a.875.875,0,0,0-1.248.777,35.5,35.5,0,0,0,1.558,12.478C981.832,142.77,983.58,143.617,984.756,143.842Zm-2.236-16.2c.616.2,1.323.446,2.072.729.372.146.764.28,1.151.44l1.179.467c.783.332,1.573.639,2.3.959.736.3,1.417.606,2,.865s1.076.489,1.419.65.537.269.537.269a13.38,13.38,0,0,1-2.163-.252,19.748,19.748,0,0,1-2.16-.523c-.386-.126-.794-.232-1.19-.387l-1.208-.453c-.8-.338-1.587-.683-2.3-1.056s-1.38-.735-1.932-1.075a18.428,18.428,0,0,1-1.8-1.218A21.233,21.233,0,0,1,982.519,127.641Z" transform="translate(-19.014 -6.149)" fill="#fff"/>
      <path id="Path_622" data-name="Path 622" d="M977.518,175.419l.03.018c.247.064.494.129.741.19q2.227.551,4.492.934,2.222.375,4.47.576c1.444.128,2.893.2,4.343.2a36.045,36.045,0,0,0,6.835-.6l.34-.068a42.152,42.152,0,0,0,8.343-2.775c1.373-.6,2.724-1.254,4.062-1.932q1.008-.51,2.007-1.038c.514-.272,1.219-.457,1.363-1.121a1.153,1.153,0,0,0-.493-1.153,11.713,11.713,0,0,0-4.851-2.213,16.428,16.428,0,0,0-2.863-.244c-3.344,0-6.634.956-10.112,1.974a61.326,61.326,0,0,1-8.09,1.968,17.777,17.777,0,0,1-6.925-.216l-1.1-.095a.2.2,0,0,1-.045.012,4.664,4.664,0,0,0-1.918.161.2.2,0,0,1-.036.007,1.886,1.886,0,0,0-.429.558.281.281,0,0,1-.067.085c-.08.235-.158.49-.242.768-.163.538-.338,1.071-.542,1.593l0,.013a8.3,8.3,0,0,0-.039,1.18A2.581,2.581,0,0,0,977.518,175.419Zm3.4-3.722h0a22.114,22.114,0,0,0,3.729.18,24.609,24.609,0,0,0,3.671-.415c1.218-.242,2.424-.5,3.624-.826,1.2-.308,2.4-.65,3.6-1.007a53.791,53.791,0,0,1,7.371-1.767,17.527,17.527,0,0,1,3.833-.139,9.871,9.871,0,0,1,3.679.948,12.079,12.079,0,0,0-3.694-.354,21.326,21.326,0,0,0-3.657.477c-2.41.52-4.78,1.3-7.193,2-1.21.343-2.429.677-3.665.963a36.914,36.914,0,0,1-3.753.652,17.233,17.233,0,0,1-7.556-.667h0l-.261-.048Z" transform="translate(-18.299 -22.306)" fill="#fff"/>
      <path id="Path_623" data-name="Path 623" d="M1022.259,141.875c-.537.3-1.118.5-1.667.778-.37.184-1.063.624-.826,1.143a1.23,1.23,0,0,0,.269.346.768.768,0,0,0,.624.153c.849-.031,1.69-.074,2.542-.074a29.932,29.932,0,0,1,3.095.166q.655.071,1.305.181a21.74,21.74,0,0,1,9.259,3.807c.761.555,1.48,1.2,2.175,1.822,1.1.993,2.479,2.23,3.283,2.23a1.047,1.047,0,0,0,.36-.073,5.287,5.287,0,0,1,1.051-.267l.4-.107c.962-.413,1.817-.754,2.641-1.063,1.645-.615,3.4-1.115,5.1-1.6,2.967-.841,6.018-1.7,7.773-3.016a3.418,3.418,0,0,0,.3-.24.85.85,0,0,0,.039-.178.224.224,0,0,1,.007-.023,1.538,1.538,0,0,0-.156-.655,7.284,7.284,0,0,0-1.7-1.548c-.189-.134-.335-.231-.487-.323-4.624-2.954-9.68-5.9-15.99-6.6-2.107-.236-4.222-.39-6.268-.5a.519.519,0,0,0-.062,0c-.594.018-1.187.04-1.778.076a11.337,11.337,0,0,0-6.025,2.175A47.88,47.88,0,0,1,1022.259,141.875Zm6.685-2.515a9.393,9.393,0,0,1,1.151-.705,9.3,9.3,0,0,1,2.564-.886c.224-.044.449-.079.676-.107s.463-.048.671-.06l1.3-.085h.054c1.721.087,3.44.23,5.161.349.433.045.851.059,1.3.129.42.054.851.12,1.293.206a20.132,20.132,0,0,1,2.555.641,22.363,22.363,0,0,1,2.456.911c.4.173.8.353,1.186.544s.773.4,1.156.6a34.487,34.487,0,0,1,4.34,2.82c-1.551-.751-3.092-1.5-4.657-2.162a36.6,36.6,0,0,0-4.783-1.66c-.4-.115-.815-.2-1.223-.294-.411-.071-.822-.179-1.229-.236-.4-.072-.818-.131-1.25-.18-.4-.059-.844-.069-1.264-.106-1.694-.151-3.39-.28-5.083-.465l-1.259.027-.629.016c-.206.011-.412.027-.616.052a9.829,9.829,0,0,0-2.407.613,9.383,9.383,0,0,0-1.132.542c-.358.2-.744.45-1.113.664q-1.12.669-2.265,1.3,1-.846,2.02-1.657C1028.264,139.9,1028.574,139.634,1028.944,139.36Z" transform="translate(-35.02 -10.646)" fill="#fff"/>
    </g>
    <g id="Mask_Group_19" data-name="Mask Group 19" transform="translate(-20)" clip-path="url(#clip-path)">
      <g id="Ellipse_45" data-name="Ellipse 45" transform="translate(1516 1572)" fill="none" stroke="#fff" stroke-width="3">
        <ellipse cx="51.5" cy="51" rx="51.5" ry="51" stroke="none"/>
        <ellipse cx="51.5" cy="51" rx="50" ry="49.5" fill="none"/>
      </g>
    </g>
  </g>
</svg>
