<svg xmlns="http://www.w3.org/2000/svg" width="116" height="142.779" viewBox="0 0 116 142.779">
  <g id="Group_266" data-name="Group 266" transform="translate(-1193.763 -1637.221)">
    <g id="Ellipse_38" data-name="Ellipse 38" transform="translate(1193.763 1664)" fill="none" stroke="#fff" stroke-width="3">
      <circle cx="58" cy="58" r="58" stroke="none"/>
      <circle cx="58" cy="58" r="56.5" fill="none"/>
    </g>
    <g id="Group_260" data-name="Group 260" transform="translate(1219.54 1637.221)">
      <g id="Group_259" data-name="Group 259" transform="translate(0 0)">
        <g id="Group_252" data-name="Group 252" transform="translate(0 0)">
          <path id="Path_717" data-name="Path 717" d="M652.328,213.634c0,2.7-26.86,26.659-32.646,26.659s-32.646-23.955-32.646-26.659V145.082a4.713,4.713,0,0,1,4.5-4.9h56.285a4.713,4.713,0,0,1,4.5,4.9Z" transform="translate(-587.036 -127.409)" fill="#fff"/>
          <path id="Path_718" data-name="Path 718" d="M651.477,133.314V131.6a3.967,3.967,0,0,0-3.791-4.122H600.3a3.968,3.968,0,0,0-3.791,4.122v1.715Z" transform="translate(-591.349 -121.625)" fill="#fff"/>
          <path id="Path_719" data-name="Path 719" d="M646.363,116.738H615.074a3.967,3.967,0,0,0-3.79,4.122v.525h38.868v-.525A3.967,3.967,0,0,0,646.363,116.738Z" transform="translate(-598.072 -116.738)" fill="#fff"/>
        </g>
        <rect id="Rectangle_40" data-name="Rectangle 40" width="58" height="53" rx="5" transform="translate(3.223 22.779)" fill="#100f9a"/>
      </g>
      <g id="Group_255" data-name="Group 255" transform="translate(0.061 48.768)">
        <path id="Path_720" data-name="Path 720" d="M878.869,345.32c-.637-.237-1.721,1.1-1.1,1.827a.978.978,0,0,0,1.722-.452C879.53,346.444,879.242,345.459,878.869,345.32Z" transform="translate(-866.838 -333.662)" fill="#fff" fill-rule="evenodd"/>
        <path id="Path_721" data-name="Path 721" d="M879.724,347.935a1,1,0,0,1,.572-.957C880.887,347.314,880.5,348.646,879.724,347.935Z" transform="translate(-868.41 -334.908)" fill="#fff" fill-rule="evenodd"/>
        <path id="Path_722" data-name="Path 722" d="M873.019,306.6c-.681-.225-.911.834-1.174,1.2.086.216.244.01.39.082a2.224,2.224,0,0,0,1.051,1.262c.228.083.764.046.905-.2a2.282,2.282,0,0,0,.013-.691A3.763,3.763,0,0,0,873.019,306.6Z" transform="translate(-862.596 -305.039)" fill="#fff" fill-rule="evenodd"/>
        <path id="Path_723" data-name="Path 723" d="M875.786,309.982c-.724.12-1.116-.775-1.311-1.28a1.087,1.087,0,0,1,.277-.349C875.216,308.855,875.907,309.278,875.786,309.982Z" transform="translate(-864.54 -306.358)" fill="#fff" fill-rule="evenodd"/>
        <path id="Path_724" data-name="Path 724" d="M893.414,300.712c-.636-.117-.538.958-.8,1.651-.164.433-.682,1.178-.091,1.4.513.2,1.129-.787,1.259-1.267S894.1,300.838,893.414,300.712Z" transform="translate(-877.676 -300.703)" fill="#fff" fill-rule="evenodd"/>
        <path id="Path_725" data-name="Path 725" d="M894.025,304.58a10.078,10.078,0,0,1,.645-2.1C894.847,303.041,894.772,304.248,894.025,304.58Z" transform="translate(-878.991 -302.015)" fill="#fff" fill-rule="evenodd"/>
        <path id="Path_726" data-name="Path 726" d="M885.348,320.211c-.756,1.464-.826,3.189.242,4.036,1.974,1.566,2.509-1.344,2.128-2.724C887.45,320.556,886.315,319.137,885.348,320.211Z" transform="translate(-872.16 -314.839)" fill="#fff" fill-rule="evenodd"/>
        <path id="Path_727" data-name="Path 727" d="M837.346,325.128c-1.246.881-1.333,2.671.081,3.26a3.336,3.336,0,0,0,3.889-1.709C840.606,325.441,838.492,324.317,837.346,325.128Z" transform="translate(-836.389 -318.554)" fill="#fff" fill-rule="evenodd"/>
        <path id="Path_728" data-name="Path 728" d="M841.386,331.962a2.535,2.535,0,0,1-.761-.423c.232-.264.606-.056.993-.055.435,0,.844-.272,1.276.136C842.779,331.95,841.881,332.092,841.386,331.962Z" transform="translate(-839.52 -323.39)" fill="#fff" fill-rule="evenodd"/>
        <path id="Path_729" data-name="Path 729" d="M853.363,313.565c.062.684,2.07,2.246,2.322.966.105-.533-.357-.7-.791-1.135-.286-.285-.506-.642-.786-.7C853.7,312.6,853.327,313.166,853.363,313.565Z" transform="translate(-848.934 -309.558)" fill="#fff" fill-rule="evenodd"/>
        <path id="Path_730" data-name="Path 730" d="M855.537,314.88c.448.245.919.788,1.438,1.128C856.414,316.5,855.361,315.432,855.537,314.88Z" transform="translate(-850.528 -311.182)" fill="#fff" fill-rule="evenodd"/>
        <path id="Path_731" data-name="Path 731" d="M871.661,306.95c-.786-.625-1.689-1.349-1.259-2.383a1.2,1.2,0,0,1,1.438-.751c.6.189.995.893,1.248,1.411a3.342,3.342,0,0,1,.582,1.785C873.409,308.339,872.351,307.5,871.661,306.95Z" transform="translate(-861.448 -302.968)" fill="#fff" fill-rule="evenodd"/>
        <path id="Path_732" data-name="Path 732" d="M872.216,306.654c.083-.36.426-.394.574-.741.369-.866-.734-2.835-1.4-3.525a1.491,1.491,0,0,0-1.965-.042,2.23,2.23,0,0,0-.187,2.486,6.7,6.7,0,0,0,2.549,1.935c-.763.1-1.5-.747-2.067-1.271a4.9,4.9,0,0,1-.809-.876,1.89,1.89,0,0,1,2.193-2.639,2.715,2.715,0,0,1,1.469,1.84C872.842,304.576,873.508,306.167,872.216,306.654Z" transform="translate(-860.284 -301.569)" fill="#fff" fill-rule="evenodd"/>
        <path id="Path_733" data-name="Path 733" d="M853.407,311.36c.928.578,2.386,1.635,2.083,2.675-.33,1.135-1.326.271-2.033-.235a4.149,4.149,0,0,1-1.025-.874C852.123,312.312,852.526,311.224,853.407,311.36Z" transform="translate(-848.171 -308.572)" fill="#fff" fill-rule="evenodd"/>
        <path id="Path_734" data-name="Path 734" d="M853.852,313.926a1.342,1.342,0,0,1-1.34-.114c-1.411-.8-2.775-1.892-2.283-3.148a1.414,1.414,0,0,1,1.372-.837c-.323.184-.74.171-.986.594a1.852,1.852,0,0,0,0,1.555,4.611,4.611,0,0,0,1.048.938c.66.534,1.654,1.413,2.254.664a1.708,1.708,0,0,0,.112-1.448,5.6,5.6,0,0,0-1.947-2.18,3.645,3.645,0,0,1,1.483,1.257C854.184,311.987,854.773,312.766,853.852,313.926Z" transform="translate(-846.543 -307.448)" fill="#fff" fill-rule="evenodd"/>
        <path id="Path_735" data-name="Path 735" d="M865.158,329.4c-.513.709-.893,1.8-.276,2.336C864.109,331.358,864.351,329.923,865.158,329.4Z" transform="translate(-857.102 -321.914)" fill="#fff" fill-rule="evenodd"/>
        <path id="Path_736" data-name="Path 736" d="M866.508,330.62c-1.095-1.009,1.052-3.108,2.287-2.057.2,1-1.061,1.884-1.677,2.46-.216-.136-.366-.083-.586-.231" transform="translate(-858.429 -321.084)" fill="#fff" fill-rule="evenodd"/>
        <path id="Path_737" data-name="Path 737" d="M870.29,328.327c-.106.169-.344.234-.514.395-.56.529-1.07,1.569-1.821,1.209.65-.273,2.853-1.758,2.255-2.877-.49-.918-2-.416-2.525.116.4-.689,2.326-1.286,2.806-.141A1.988,1.988,0,0,1,870.29,328.327Z" transform="translate(-859.522 -319.686)" fill="#fff" fill-rule="evenodd"/>
        <path id="Path_738" data-name="Path 738" d="M853.593,346.947l-.011,0c.045-.268-.186-.441-.525-.577-.424.021-.869.445-1.288.663-.458.238-1.313.488-1.065,1.2.446.292.553.122.951.032.559-.126,1.194-.149,1.548-.537l.128-.153c.054-.109.13-.158.187-.26C853.519,347.314,853.561,347.116,853.593,346.947Z" transform="translate(-846.937 -334.462)" fill="#fff" fill-rule="evenodd"/>
        <path id="Path_739" data-name="Path 739" d="M852.637,349.341c.59-.385,1.223-.643,1.8-1.058l.174.084A1.787,1.787,0,0,1,852.637,349.341Z" transform="translate(-848.399 -335.872)" fill="#fff" fill-rule="evenodd"/>
        <path id="Path_740" data-name="Path 740" d="M888.791,325.081c.044-.367-.173-.543-.292-.947-.1-.34.022-1.075-.382-1.205-.8-.258-.947,1.633-.731,2.06-.008,0-.015-.005-.023-.009a3.545,3.545,0,0,0,.14.349.192.192,0,0,1,.038,0,.164.164,0,0,1,.041.15,1.229,1.229,0,0,0,.557.574c.368.082.7-.288.7-.739Z" transform="translate(-874.018 -317.114)" fill="#fff" fill-rule="evenodd"/>
        <g id="Group_254" data-name="Group 254" transform="translate(8.16 7.63)">
          <path id="Path_741" data-name="Path 741" d="M871.635,334.4a.177.177,0,0,0,.033.053Z" transform="translate(-870.601 -333.239)" fill="#fff" fill-rule="evenodd"/>
          <path id="Path_742" data-name="Path 742" d="M869.295,330.642c.167-.16.293-.386.133-.572l-.13-.063c-.793-.275-1.662.628-1.624,1.466.439.535.738-.135,1.032-.358C868.706,331.114,869.119,330.65,869.295,330.642Z" transform="translate(-867.672 -329.956)" fill="#fff" fill-rule="evenodd"/>
          <path id="Path_743" data-name="Path 743" d="M869.569,332.407a.955.955,0,0,1,.9-.853A7.459,7.459,0,0,0,869.569,332.407Z" transform="translate(-869.074 -331.134)" fill="#fff" fill-rule="evenodd"/>
        </g>
      </g>
      <g id="Group_256" data-name="Group 256" transform="translate(33.099 39.84) rotate(28)">
        <path id="Path_720-2" data-name="Path 720" d="M1.286.028C.649-.209-.435,1.131.185,1.855A.978.978,0,0,0,1.907,1.4C1.948,1.151,1.659.166,1.286.028Z" transform="translate(10.745 11.631)" fill="#fff" fill-rule="evenodd"/>
        <path id="Path_721-2" data-name="Path 721" d="M.013.957A1,1,0,0,1,.585,0C1.176.336.786,1.668.013.957Z" transform="translate(11.3 12.07)" fill="#fff" fill-rule="evenodd"/>
        <path id="Path_722-2" data-name="Path 722" d="M1.174.031C.493-.194.263.865,0,1.232c.086.216.244.01.39.082A2.224,2.224,0,0,0,1.441,2.576c.228.083.764.046.905-.205a2.28,2.28,0,0,0,.013-.691A3.763,3.763,0,0,0,1.174.031Z" transform="translate(9.248 1.53)" fill="#fff" fill-rule="evenodd"/>
        <path id="Path_723-2" data-name="Path 723" d="M1.311,1.629C.587,1.749.195.854,0,.349A1.086,1.086,0,0,1,.277,0C.741.5,1.432.925,1.311,1.629Z" transform="translate(9.934 1.995)" fill="#fff" fill-rule="evenodd"/>
        <path id="Path_724-2" data-name="Path 724" d="M1.168.009C.532-.108.63.967.367,1.659.2,2.092-.315,2.837.276,3.064c.513.2,1.129-.787,1.259-1.267S1.855.135,1.168.009Z" transform="translate(14.57 0)" fill="#fff" fill-rule="evenodd"/>
        <path id="Path_725-2" data-name="Path 725" d="M0,2.1A10.079,10.079,0,0,1,.645,0C.822.563.747,1.77,0,2.1Z" transform="translate(15.034 0.463)" fill="#fff" fill-rule="evenodd"/>
        <path id="Path_726-2" data-name="Path 726" d="M.565.385C-.191,1.848-.261,3.573.806,4.42,2.78,5.986,3.315,3.076,2.934,1.7,2.667.729,1.532-.69.565.385Z" transform="translate(12.623 4.988)" fill="#fff" fill-rule="evenodd"/>
        <path id="Path_727-2" data-name="Path 727" d="M.957.275c-1.246.881-1.333,2.671.081,3.26A3.336,3.336,0,0,0,4.927,1.827C4.218.587,2.1-.536.957.275Z" transform="translate(0 6.299)" fill="#fff" fill-rule="evenodd"/>
        <path id="Path_728-2" data-name="Path 728" d="M.761.566A2.534,2.534,0,0,1,0,.143C.232-.121.606.087.993.088c.435,0,.844-.272,1.276.136C2.154.553,1.256.7.761.566Z" transform="translate(1.105 8.006)" fill="#fff" fill-rule="evenodd"/>
        <path id="Path_729-2" data-name="Path 729" d="M0,.882c.062.684,2.07,2.246,2.322.966.105-.533-.357-.7-.791-1.135C1.248.428,1.028.071.748.01.335-.081-.033.483,0,.882Z" transform="translate(4.427 3.125)" fill="#fff" fill-rule="evenodd"/>
        <path id="Path_730-2" data-name="Path 730" d="M.02,0C.468.245.938.788,1.458,1.128.9,1.623-.156.552.02,0Z" transform="translate(4.99 3.698)" fill="#fff" fill-rule="evenodd"/>
        <path id="Path_731-2" data-name="Path 731" d="M1.37,3.183C.584,2.558-.319,1.834.111.8A1.2,1.2,0,0,1,1.549.05c.6.189.995.893,1.248,1.411a3.342,3.342,0,0,1,.582,1.785C3.119,4.572,2.06,3.732,1.37,3.183Z" transform="translate(8.843 0.799)" fill="#fff" fill-rule="evenodd"/>
        <path id="Path_732-2" data-name="Path 732" d="M3.5,4.78c.083-.36.426-.394.574-.741C4.443,3.173,3.34,1.2,2.672.513A1.491,1.491,0,0,0,.706.472,2.23,2.23,0,0,0,.519,2.957,6.7,6.7,0,0,0,3.069,4.893c-.763.1-1.5-.747-2.067-1.271a4.9,4.9,0,0,1-.809-.876A1.89,1.89,0,0,1,2.386.106a2.715,2.715,0,0,1,1.469,1.84C4.125,2.7,4.791,4.292,3.5,4.78Z" transform="translate(8.432 0.305)" fill="#fff" fill-rule="evenodd"/>
        <path id="Path_733-2" data-name="Path 733" d="M1.078.012C2.006.59,3.464,1.647,3.161,2.687c-.33,1.135-1.326.271-2.033-.235A4.147,4.147,0,0,1,.1,1.578C-.206.964.2-.125,1.078.012Z" transform="translate(4.158 2.777)" fill="#fff" fill-rule="evenodd"/>
        <path id="Path_734-2" data-name="Path 734" d="M3.726,4.1a1.342,1.342,0,0,1-1.34-.114C.974,3.189-.39,2.093.1.837A1.414,1.414,0,0,1,1.475,0C1.152.184.735.171.488.594a1.852,1.852,0,0,0,0,1.555,4.612,4.612,0,0,0,1.048.938c.66.534,1.654,1.413,2.254.664A1.708,1.708,0,0,0,3.9,2.3,5.6,5.6,0,0,0,1.952.124,3.645,3.645,0,0,1,3.435,1.381C4.057,2.159,4.647,2.938,3.726,4.1Z" transform="translate(3.583 2.38)" fill="#fff" fill-rule="evenodd"/>
        <path id="Path_735-2" data-name="Path 735" d="M.746,0C.233.709-.147,1.8.471,2.336-.3,1.959-.061.524.746,0Z" transform="translate(7.31 7.485)" fill="#fff" fill-rule="evenodd"/>
        <path id="Path_736-2" data-name="Path 736" d="M.3,2.344C-.793,1.335,1.353-.764,2.588.287c.2,1-1.061,1.884-1.677,2.46C.7,2.611.545,2.664.325,2.517" transform="translate(7.778 7.192)" fill="#fff" fill-rule="evenodd"/>
        <path id="Path_737-2" data-name="Path 737" d="M2.605,1.942c-.106.169-.344.234-.514.395-.56.529-1.07,1.569-1.821,1.209C.92,3.273,3.123,1.788,2.525.669,2.035-.249.524.253,0,.785.4.1,2.326-.5,2.806.644A1.988,1.988,0,0,1,2.605,1.942Z" transform="translate(8.163 6.699)" fill="#fff" fill-rule="evenodd"/>
        <path id="Path_738-2" data-name="Path 738" d="M2.933.572l-.011,0C2.968.308,2.737.135,2.4,0,1.974.021,1.529.445,1.11.663.651.9-.2,1.151.044,1.863c.446.292.553.122.951.032.559-.126,1.194-.149,1.548-.537l.128-.153c.054-.109.13-.158.187-.26C2.86.939,2.9.741,2.933.572Z" transform="translate(3.722 11.913)" fill="#fff" fill-rule="evenodd"/>
        <path id="Path_739-2" data-name="Path 739" d="M0,1.058C.59.673,1.223.415,1.8,0l.174.084A1.787,1.787,0,0,1,0,1.058Z" transform="translate(4.238 12.411)" fill="#fff" fill-rule="evenodd"/>
        <path id="Path_740-2" data-name="Path 740" d="M1.494,2.176c.044-.367-.173-.543-.292-.947C1.1.889,1.224.155.821.024.022-.234-.126,1.658.09,2.084c-.008,0-.015-.005-.023-.009a3.547,3.547,0,0,0,.14.349.193.193,0,0,1,.038,0,.164.164,0,0,1,.041.15,1.229,1.229,0,0,0,.557.574c.368.082.7-.288.7-.739Z" transform="translate(13.279 5.791)" fill="#fff" fill-rule="evenodd"/>
        <g id="Group_254-2" data-name="Group 254" transform="translate(8.16 7.63)">
          <path id="Path_741-2" data-name="Path 741" d="M0,0A.178.178,0,0,0,.033.053Z" transform="translate(1.034 1.158)" fill="#fff" fill-rule="evenodd"/>
          <path id="Path_742-2" data-name="Path 742" d="M1.623.686c.166-.16.293-.386.133-.572L1.625.05C.833-.225-.037.678,0,1.516c.439.535.738-.135,1.032-.358C1.034,1.158,1.446.694,1.623.686Z" transform="translate(0 0)" fill="#fff" fill-rule="evenodd"/>
          <path id="Path_743-2" data-name="Path 743" d="M0,.857A.955.955,0,0,1,.9,0,7.461,7.461,0,0,0,0,.857Z" transform="translate(0.494 0.416)" fill="#fff" fill-rule="evenodd"/>
        </g>
      </g>
      <g id="Group_261" data-name="Group 261" transform="translate(41.622 28.477) rotate(28)">
        <path id="Path_720-3" data-name="Path 720" d="M1.286.028C.649-.209-.435,1.131.185,1.855A.978.978,0,0,0,1.907,1.4C1.948,1.151,1.659.166,1.286.028Z" transform="translate(10.745 11.631)" fill="#fff" fill-rule="evenodd"/>
        <path id="Path_721-3" data-name="Path 721" d="M.013.957A1,1,0,0,1,.585,0C1.176.336.786,1.668.013.957Z" transform="translate(11.3 12.07)" fill="#fff" fill-rule="evenodd"/>
        <path id="Path_722-3" data-name="Path 722" d="M1.174.031C.493-.194.263.865,0,1.232c.086.216.244.01.39.082A2.224,2.224,0,0,0,1.441,2.576c.228.083.764.046.905-.205a2.28,2.28,0,0,0,.013-.691A3.763,3.763,0,0,0,1.174.031Z" transform="translate(9.248 1.53)" fill="#fff" fill-rule="evenodd"/>
        <path id="Path_723-3" data-name="Path 723" d="M1.311,1.629C.587,1.749.195.854,0,.349A1.086,1.086,0,0,1,.277,0C.741.5,1.432.925,1.311,1.629Z" transform="translate(9.934 1.995)" fill="#fff" fill-rule="evenodd"/>
        <path id="Path_724-3" data-name="Path 724" d="M1.168.009C.532-.108.63.967.367,1.659.2,2.092-.315,2.837.276,3.064c.513.2,1.129-.787,1.259-1.267S1.855.135,1.168.009Z" transform="translate(14.57 0)" fill="#fff" fill-rule="evenodd"/>
        <path id="Path_725-3" data-name="Path 725" d="M0,2.1A10.079,10.079,0,0,1,.645,0C.822.563.747,1.77,0,2.1Z" transform="translate(15.034 0.463)" fill="#fff" fill-rule="evenodd"/>
        <path id="Path_726-3" data-name="Path 726" d="M.565.385C-.191,1.848-.261,3.573.806,4.42,2.78,5.986,3.315,3.076,2.934,1.7,2.667.729,1.532-.69.565.385Z" transform="translate(12.623 4.988)" fill="#fff" fill-rule="evenodd"/>
        <path id="Path_727-3" data-name="Path 727" d="M.957.275c-1.246.881-1.333,2.671.081,3.26A3.336,3.336,0,0,0,4.927,1.827C4.218.587,2.1-.536.957.275Z" transform="translate(0 6.299)" fill="#fff" fill-rule="evenodd"/>
        <path id="Path_728-3" data-name="Path 728" d="M.761.566A2.534,2.534,0,0,1,0,.143C.232-.121.606.087.993.088c.435,0,.844-.272,1.276.136C2.154.553,1.256.7.761.566Z" transform="translate(1.105 8.006)" fill="#fff" fill-rule="evenodd"/>
        <path id="Path_729-3" data-name="Path 729" d="M0,.882c.062.684,2.07,2.246,2.322.966.105-.533-.357-.7-.791-1.135C1.248.428,1.028.071.748.01.335-.081-.033.483,0,.882Z" transform="translate(4.427 3.125)" fill="#fff" fill-rule="evenodd"/>
        <path id="Path_730-3" data-name="Path 730" d="M.02,0C.468.245.938.788,1.458,1.128.9,1.623-.156.552.02,0Z" transform="translate(4.99 3.698)" fill="#fff" fill-rule="evenodd"/>
        <path id="Path_731-3" data-name="Path 731" d="M1.37,3.183C.584,2.558-.319,1.834.111.8A1.2,1.2,0,0,1,1.549.05c.6.189.995.893,1.248,1.411a3.342,3.342,0,0,1,.582,1.785C3.119,4.572,2.06,3.732,1.37,3.183Z" transform="translate(8.843 0.799)" fill="#fff" fill-rule="evenodd"/>
        <path id="Path_732-3" data-name="Path 732" d="M3.5,4.78c.083-.36.426-.394.574-.741C4.443,3.173,3.34,1.2,2.672.513A1.491,1.491,0,0,0,.706.472,2.23,2.23,0,0,0,.519,2.957,6.7,6.7,0,0,0,3.069,4.893c-.763.1-1.5-.747-2.067-1.271a4.9,4.9,0,0,1-.809-.876A1.89,1.89,0,0,1,2.386.106a2.715,2.715,0,0,1,1.469,1.84C4.125,2.7,4.791,4.292,3.5,4.78Z" transform="translate(8.432 0.305)" fill="#fff" fill-rule="evenodd"/>
        <path id="Path_733-3" data-name="Path 733" d="M1.078.012C2.006.59,3.464,1.647,3.161,2.687c-.33,1.135-1.326.271-2.033-.235A4.147,4.147,0,0,1,.1,1.578C-.206.964.2-.125,1.078.012Z" transform="translate(4.158 2.777)" fill="#fff" fill-rule="evenodd"/>
        <path id="Path_734-3" data-name="Path 734" d="M3.726,4.1a1.342,1.342,0,0,1-1.34-.114C.974,3.189-.39,2.093.1.837A1.414,1.414,0,0,1,1.475,0C1.152.184.735.171.488.594a1.852,1.852,0,0,0,0,1.555,4.612,4.612,0,0,0,1.048.938c.66.534,1.654,1.413,2.254.664A1.708,1.708,0,0,0,3.9,2.3,5.6,5.6,0,0,0,1.952.124,3.645,3.645,0,0,1,3.435,1.381C4.057,2.159,4.647,2.938,3.726,4.1Z" transform="translate(3.583 2.38)" fill="#fff" fill-rule="evenodd"/>
        <path id="Path_735-3" data-name="Path 735" d="M.746,0C.233.709-.147,1.8.471,2.336-.3,1.959-.061.524.746,0Z" transform="translate(7.31 7.485)" fill="#fff" fill-rule="evenodd"/>
        <path id="Path_736-3" data-name="Path 736" d="M.3,2.344C-.793,1.335,1.353-.764,2.588.287c.2,1-1.061,1.884-1.677,2.46C.7,2.611.545,2.664.325,2.517" transform="translate(7.778 7.192)" fill="#fff" fill-rule="evenodd"/>
        <path id="Path_737-3" data-name="Path 737" d="M2.605,1.942c-.106.169-.344.234-.514.395-.56.529-1.07,1.569-1.821,1.209C.92,3.273,3.123,1.788,2.525.669,2.035-.249.524.253,0,.785.4.1,2.326-.5,2.806.644A1.988,1.988,0,0,1,2.605,1.942Z" transform="translate(8.163 6.699)" fill="#fff" fill-rule="evenodd"/>
        <path id="Path_738-3" data-name="Path 738" d="M2.933.572l-.011,0C2.968.308,2.737.135,2.4,0,1.974.021,1.529.445,1.11.663.651.9-.2,1.151.044,1.863c.446.292.553.122.951.032.559-.126,1.194-.149,1.548-.537l.128-.153c.054-.109.13-.158.187-.26C2.86.939,2.9.741,2.933.572Z" transform="translate(3.722 11.913)" fill="#fff" fill-rule="evenodd"/>
        <path id="Path_739-3" data-name="Path 739" d="M0,1.058C.59.673,1.223.415,1.8,0l.174.084A1.787,1.787,0,0,1,0,1.058Z" transform="translate(4.238 12.411)" fill="#fff" fill-rule="evenodd"/>
        <path id="Path_740-3" data-name="Path 740" d="M1.494,2.176c.044-.367-.173-.543-.292-.947C1.1.889,1.224.155.821.024.022-.234-.126,1.658.09,2.084c-.008,0-.015-.005-.023-.009a3.547,3.547,0,0,0,.14.349.193.193,0,0,1,.038,0,.164.164,0,0,1,.041.15,1.229,1.229,0,0,0,.557.574c.368.082.7-.288.7-.739Z" transform="translate(13.279 5.791)" fill="#fff" fill-rule="evenodd"/>
        <g id="Group_254-3" data-name="Group 254" transform="translate(8.16 7.63)">
          <path id="Path_741-3" data-name="Path 741" d="M0,0A.178.178,0,0,0,.033.053Z" transform="translate(1.034 1.158)" fill="#fff" fill-rule="evenodd"/>
          <path id="Path_742-3" data-name="Path 742" d="M1.623.686c.166-.16.293-.386.133-.572L1.625.05C.833-.225-.037.678,0,1.516c.439.535.738-.135,1.032-.358C1.034,1.158,1.446.694,1.623.686Z" transform="translate(0 0)" fill="#fff" fill-rule="evenodd"/>
          <path id="Path_743-3" data-name="Path 743" d="M0,.857A.955.955,0,0,1,.9,0,7.461,7.461,0,0,0,0,.857Z" transform="translate(0.494 0.416)" fill="#fff" fill-rule="evenodd"/>
        </g>
      </g>
      <g id="Group_258" data-name="Group 258" transform="translate(18.691 44.926) rotate(28)">
        <path id="Path_720-4" data-name="Path 720" d="M.9.019C.455-.147-.3.793.129,1.3A.685.685,0,0,0,1.336.983C1.365.807,1.162.116.9.019Z" transform="translate(7.529 8.149)" fill="#fff" fill-rule="evenodd"/>
        <path id="Path_721-4" data-name="Path 721" d="M.009.671A.7.7,0,0,1,.41,0C.824.235.551,1.169.009.671Z" transform="translate(7.918 8.457)" fill="#fff" fill-rule="evenodd"/>
        <path id="Path_722-4" data-name="Path 722" d="M.822.022C.345-.136.184.606,0,.863c.06.152.171.007.273.057a1.558,1.558,0,0,0,.737.884c.16.058.535.032.634-.144a1.6,1.6,0,0,0,.009-.484A2.636,2.636,0,0,0,.822.022Z" transform="translate(6.48 1.072)" fill="#fff" fill-rule="evenodd"/>
        <path id="Path_723-4" data-name="Path 723" d="M.919,1.142C.411,1.225.137.6,0,.245A.761.761,0,0,1,.194,0C.519.351,1,.648.919,1.142Z" transform="translate(6.961 1.398)" fill="#fff" fill-rule="evenodd"/>
        <path id="Path_724-4" data-name="Path 724" d="M.819.006C.373-.076.442.677.257,1.163c-.115.3-.478.825-.064.984.359.138.791-.551.882-.888S1.3.094.819.006Z" transform="translate(10.209 0)" fill="#fff" fill-rule="evenodd"/>
        <path id="Path_725-4" data-name="Path 725" d="M0,1.473A7.062,7.062,0,0,1,.452,0C.576.394.523,1.24,0,1.473Z" transform="translate(10.534 0.324)" fill="#fff" fill-rule="evenodd"/>
        <path id="Path_726-4" data-name="Path 726" d="M.4.269A2.285,2.285,0,0,0,.565,3.1c1.383,1.1,1.758-.942,1.491-1.909C1.869.511,1.074-.484.4.269Z" transform="translate(8.845 3.495)" fill="#fff" fill-rule="evenodd"/>
        <path id="Path_727-4" data-name="Path 727" d="M.67.193A1.281,1.281,0,0,0,.727,2.477a2.337,2.337,0,0,0,2.725-1.2C2.955.412,1.474-.376.67.193Z" transform="translate(0 4.414)" fill="#fff" fill-rule="evenodd"/>
        <path id="Path_728-4" data-name="Path 728" d="M.533.4A1.777,1.777,0,0,1,0,.1C.162-.085.425.061.7.062c.3,0,.591-.19.894.1C1.509.388.88.488.533.4Z" transform="translate(0.774 5.61)" fill="#fff" fill-rule="evenodd"/>
        <path id="Path_729-4" data-name="Path 729" d="M0,.618c.043.48,1.45,1.574,1.627.677C1.7.921,1.379.8,1.075.5.874.3.72.05.524.007.235-.057-.023.339,0,.618Z" transform="translate(3.102 2.189)" fill="#fff" fill-rule="evenodd"/>
        <path id="Path_730-4" data-name="Path 730" d="M.014,0C.328.172.657.552,1.022.79.628,1.138-.11.387.014,0Z" transform="translate(3.496 2.591)" fill="#fff" fill-rule="evenodd"/>
        <path id="Path_731-4" data-name="Path 731" d="M.96,2.23C.409,1.792-.223,1.285.078.561A.843.843,0,0,1,1.085.035c.417.132.7.626.874.989a2.341,2.341,0,0,1,.408,1.251C2.185,3.2,1.444,2.615.96,2.23Z" transform="translate(6.196 0.56)" fill="#fff" fill-rule="evenodd"/>
        <path id="Path_732-4" data-name="Path 732" d="M2.452,3.349c.058-.253.3-.276.4-.519C3.113,2.223,2.34.843,1.872.36A1.045,1.045,0,0,0,.5.33,1.563,1.563,0,0,0,.364,2.072,4.694,4.694,0,0,0,2.15,3.428C1.616,3.5,1.1,2.9.7,2.537a3.43,3.43,0,0,1-.567-.614A1.324,1.324,0,0,1,1.672.075,1.9,1.9,0,0,1,2.7,1.364C2.891,1.893,3.357,3.008,2.452,3.349Z" transform="translate(5.908 0.214)" fill="#fff" fill-rule="evenodd"/>
        <path id="Path_733-4" data-name="Path 733" d="M.755.008c.65.405,1.672,1.146,1.46,1.874-.231.8-.929.19-1.425-.165a2.906,2.906,0,0,1-.718-.612C-.144.675.138-.087.755.008Z" transform="translate(2.913 1.946)" fill="#fff" fill-rule="evenodd"/>
        <path id="Path_734-4" data-name="Path 734" d="M2.61,2.872a.94.94,0,0,1-.939-.08C.683,2.234-.273,1.466.072.586A.991.991,0,0,1,1.033,0C.807.129.515.12.342.417a1.3,1.3,0,0,0,0,1.089,3.231,3.231,0,0,0,.734.657c.463.374,1.159.99,1.579.466a1.2,1.2,0,0,0,.079-1.015A3.921,3.921,0,0,0,1.368.087,2.554,2.554,0,0,1,2.407.967C2.843,1.513,3.256,2.058,2.61,2.872Z" transform="translate(2.511 1.668)" fill="#fff" fill-rule="evenodd"/>
        <path id="Path_735-4" data-name="Path 735" d="M.523,0C.163.5-.1,1.261.33,1.637-.212,1.372-.043.367.523,0Z" transform="translate(5.122 5.245)" fill="#fff" fill-rule="evenodd"/>
        <path id="Path_736-4" data-name="Path 736" d="M.211,1.642C-.556.936.948-.536,1.813.2,1.956.9,1.07,1.521.638,1.925c-.151-.1-.256-.058-.411-.162" transform="translate(5.45 5.039)" fill="#fff" fill-rule="evenodd"/>
        <path id="Path_737-4" data-name="Path 737" d="M1.825,1.361c-.074.119-.241.164-.36.277-.392.371-.75,1.1-1.276.847.455-.191,2-1.232,1.58-2.016C1.426-.174.367.177,0,.55c.283-.483,1.63-.9,1.966-.1A1.393,1.393,0,0,1,1.825,1.361Z" transform="translate(5.72 4.694)" fill="#fff" fill-rule="evenodd"/>
        <path id="Path_738-4" data-name="Path 738" d="M2.055.4,2.048.4C2.08.216,1.918.095,1.68,0c-.3.015-.609.312-.9.465-.321.167-.92.342-.747.841.313.2.387.085.666.022.392-.088.837-.1,1.085-.376l.09-.107C1.91.769,1.963.734,2,.663,2,.658,2.033.519,2.055.4Z" transform="translate(2.608 8.347)" fill="#fff" fill-rule="evenodd"/>
        <path id="Path_739-4" data-name="Path 739" d="M0,.741C.413.472.857.291,1.262,0l.122.059A1.252,1.252,0,0,1,0,.741Z" transform="translate(2.97 8.696)" fill="#fff" fill-rule="evenodd"/>
        <path id="Path_740-4" data-name="Path 740" d="M1.047,1.525c.031-.257-.121-.38-.2-.663C.772.623.858.108.575.017.015-.164-.088,1.161.063,1.461L.047,1.454a2.488,2.488,0,0,0,.1.244.132.132,0,0,1,.027,0A.115.115,0,0,1,.2,1.806a.861.861,0,0,0,.39.4c.258.058.492-.2.489-.518Z" transform="translate(9.304 4.058)" fill="#fff" fill-rule="evenodd"/>
        <g id="Group_254-4" data-name="Group 254" transform="translate(5.718 5.346)">
          <path id="Path_741-4" data-name="Path 741" d="M0,0A.125.125,0,0,0,.023.037Z" transform="translate(0.724 0.812)" fill="#fff" fill-rule="evenodd"/>
          <path id="Path_742-4" data-name="Path 742" d="M1.137.48c.117-.112.205-.27.093-.4L1.139.035C.583-.157-.026.475,0,1.062.309,1.437.518.968.724.812.724.812,1.013.487,1.137.48Z" transform="translate(0 0)" fill="#fff" fill-rule="evenodd"/>
          <path id="Path_743-4" data-name="Path 743" d="M0,.6A.669.669,0,0,1,.629,0,5.227,5.227,0,0,0,0,.6Z" transform="translate(0.346 0.291)" fill="#fff" fill-rule="evenodd"/>
        </g>
      </g>
      <g id="Group_257" data-name="Group 257" transform="translate(45.708 45.52) rotate(-1)">
        <path id="Path_720-5" data-name="Path 720" d="M1.286.028C.649-.209-.435,1.131.185,1.855A.978.978,0,0,0,1.907,1.4C1.948,1.151,1.659.166,1.286.028Z" transform="translate(10.745 11.631)" fill="#fff" fill-rule="evenodd"/>
        <path id="Path_721-5" data-name="Path 721" d="M.013.957A1,1,0,0,1,.585,0C1.176.336.786,1.668.013.957Z" transform="translate(11.3 12.07)" fill="#fff" fill-rule="evenodd"/>
        <path id="Path_722-5" data-name="Path 722" d="M1.174.031C.493-.194.263.865,0,1.232c.086.216.244.01.39.082A2.224,2.224,0,0,0,1.441,2.576c.228.083.764.046.905-.205a2.28,2.28,0,0,0,.013-.691A3.763,3.763,0,0,0,1.174.031Z" transform="translate(9.248 1.53)" fill="#fff" fill-rule="evenodd"/>
        <path id="Path_723-5" data-name="Path 723" d="M1.311,1.629C.587,1.749.195.854,0,.349A1.086,1.086,0,0,1,.277,0C.741.5,1.432.925,1.311,1.629Z" transform="translate(9.934 1.995)" fill="#fff" fill-rule="evenodd"/>
        <path id="Path_724-5" data-name="Path 724" d="M1.168.009C.532-.108.63.967.367,1.659.2,2.092-.315,2.837.276,3.064c.513.2,1.129-.787,1.259-1.267S1.855.135,1.168.009Z" transform="translate(14.57 0)" fill="#fff" fill-rule="evenodd"/>
        <path id="Path_725-5" data-name="Path 725" d="M0,2.1A10.079,10.079,0,0,1,.645,0C.822.563.747,1.77,0,2.1Z" transform="translate(15.034 0.463)" fill="#fff" fill-rule="evenodd"/>
        <path id="Path_726-5" data-name="Path 726" d="M.565.385C-.191,1.848-.261,3.573.806,4.42,2.78,5.986,3.315,3.076,2.934,1.7,2.667.729,1.532-.69.565.385Z" transform="translate(12.623 4.988)" fill="#fff" fill-rule="evenodd"/>
        <path id="Path_727-5" data-name="Path 727" d="M.957.275c-1.246.881-1.333,2.671.081,3.26A3.336,3.336,0,0,0,4.927,1.827C4.218.587,2.1-.536.957.275Z" transform="translate(0 6.299)" fill="#fff" fill-rule="evenodd"/>
        <path id="Path_728-5" data-name="Path 728" d="M.761.566A2.534,2.534,0,0,1,0,.143C.232-.121.606.087.993.088c.435,0,.844-.272,1.276.136C2.154.553,1.256.7.761.566Z" transform="translate(1.105 8.006)" fill="#fff" fill-rule="evenodd"/>
        <path id="Path_729-5" data-name="Path 729" d="M0,.882c.062.684,2.07,2.246,2.322.966.105-.533-.357-.7-.791-1.135C1.248.428,1.028.071.748.01.335-.081-.033.483,0,.882Z" transform="translate(4.427 3.125)" fill="#fff" fill-rule="evenodd"/>
        <path id="Path_730-5" data-name="Path 730" d="M.02,0C.468.245.938.788,1.458,1.128.9,1.623-.156.552.02,0Z" transform="translate(4.99 3.698)" fill="#fff" fill-rule="evenodd"/>
        <path id="Path_731-5" data-name="Path 731" d="M1.37,3.183C.584,2.558-.319,1.834.111.8A1.2,1.2,0,0,1,1.549.05c.6.189.995.893,1.248,1.411a3.342,3.342,0,0,1,.582,1.785C3.119,4.572,2.06,3.732,1.37,3.183Z" transform="translate(8.843 0.799)" fill="#fff" fill-rule="evenodd"/>
        <path id="Path_732-5" data-name="Path 732" d="M3.5,4.78c.083-.36.426-.394.574-.741C4.443,3.173,3.34,1.2,2.672.513A1.491,1.491,0,0,0,.706.472,2.23,2.23,0,0,0,.519,2.957,6.7,6.7,0,0,0,3.069,4.893c-.763.1-1.5-.747-2.067-1.271a4.9,4.9,0,0,1-.809-.876A1.89,1.89,0,0,1,2.386.106a2.715,2.715,0,0,1,1.469,1.84C4.125,2.7,4.791,4.292,3.5,4.78Z" transform="translate(8.432 0.305)" fill="#fff" fill-rule="evenodd"/>
        <path id="Path_733-5" data-name="Path 733" d="M1.078.012C2.006.59,3.464,1.647,3.161,2.687c-.33,1.135-1.326.271-2.033-.235A4.147,4.147,0,0,1,.1,1.578C-.206.964.2-.125,1.078.012Z" transform="translate(4.158 2.777)" fill="#fff" fill-rule="evenodd"/>
        <path id="Path_734-5" data-name="Path 734" d="M3.726,4.1a1.342,1.342,0,0,1-1.34-.114C.974,3.189-.39,2.093.1.837A1.414,1.414,0,0,1,1.475,0C1.152.184.735.171.488.594a1.852,1.852,0,0,0,0,1.555,4.612,4.612,0,0,0,1.048.938c.66.534,1.654,1.413,2.254.664A1.708,1.708,0,0,0,3.9,2.3,5.6,5.6,0,0,0,1.952.124,3.645,3.645,0,0,1,3.435,1.381C4.057,2.159,4.647,2.938,3.726,4.1Z" transform="translate(3.583 2.38)" fill="#fff" fill-rule="evenodd"/>
        <path id="Path_735-5" data-name="Path 735" d="M.746,0C.233.709-.147,1.8.471,2.336-.3,1.959-.061.524.746,0Z" transform="translate(7.31 7.485)" fill="#fff" fill-rule="evenodd"/>
        <path id="Path_736-5" data-name="Path 736" d="M.3,2.344C-.793,1.335,1.353-.764,2.588.287c.2,1-1.061,1.884-1.677,2.46C.7,2.611.545,2.664.325,2.517" transform="translate(7.778 7.192)" fill="#fff" fill-rule="evenodd"/>
        <path id="Path_737-5" data-name="Path 737" d="M2.605,1.942c-.106.169-.344.234-.514.395-.56.529-1.07,1.569-1.821,1.209C.92,3.273,3.123,1.788,2.525.669,2.035-.249.524.253,0,.785.4.1,2.326-.5,2.806.644A1.988,1.988,0,0,1,2.605,1.942Z" transform="translate(8.163 6.699)" fill="#fff" fill-rule="evenodd"/>
        <path id="Path_738-5" data-name="Path 738" d="M2.933.572l-.011,0C2.968.308,2.737.135,2.4,0,1.974.021,1.529.445,1.11.663.651.9-.2,1.151.044,1.863c.446.292.553.122.951.032.559-.126,1.194-.149,1.548-.537l.128-.153c.054-.109.13-.158.187-.26C2.86.939,2.9.741,2.933.572Z" transform="translate(3.722 11.913)" fill="#fff" fill-rule="evenodd"/>
        <path id="Path_739-5" data-name="Path 739" d="M0,1.058C.59.673,1.223.415,1.8,0l.174.084A1.787,1.787,0,0,1,0,1.058Z" transform="translate(4.238 12.411)" fill="#fff" fill-rule="evenodd"/>
        <path id="Path_740-5" data-name="Path 740" d="M1.494,2.176c.044-.367-.173-.543-.292-.947C1.1.889,1.224.155.821.024.022-.234-.126,1.658.09,2.084c-.008,0-.015-.005-.023-.009a3.547,3.547,0,0,0,.14.349.193.193,0,0,1,.038,0,.164.164,0,0,1,.041.15,1.229,1.229,0,0,0,.557.574c.368.082.7-.288.7-.739Z" transform="translate(13.279 5.791)" fill="#fff" fill-rule="evenodd"/>
        <g id="Group_254-5" data-name="Group 254" transform="translate(8.16 7.63)">
          <path id="Path_741-5" data-name="Path 741" d="M0,0A.178.178,0,0,0,.033.053Z" transform="translate(1.034 1.158)" fill="#fff" fill-rule="evenodd"/>
          <path id="Path_742-5" data-name="Path 742" d="M1.623.686c.166-.16.293-.386.133-.572L1.625.05C.833-.225-.037.678,0,1.516c.439.535.738-.135,1.032-.358C1.034,1.158,1.446.694,1.623.686Z" transform="translate(0 0)" fill="#fff" fill-rule="evenodd"/>
          <path id="Path_743-5" data-name="Path 743" d="M0,.857A.955.955,0,0,1,.9,0,7.461,7.461,0,0,0,0,.857Z" transform="translate(0.494 0.416)" fill="#fff" fill-rule="evenodd"/>
        </g>
      </g>
    </g>
  </g>
</svg>
