<svg xmlns="http://www.w3.org/2000/svg" xmlns:xlink="http://www.w3.org/1999/xlink" width="85" height="77" viewBox="0 0 85 77">
  <defs>
    <clipPath id="clip-path">
      <path id="Union_5" data-name="Union 5" d="M42.5,77V42.943H0V0H77.672V14.068H85V77Z" transform="translate(0.141 -0.459)" fill="none"/>
    </clipPath>
  </defs>
  <g id="Group_249" data-name="Group 249" transform="translate(-503.141 -1617.541)">
    <g id="Mask_Group_18" data-name="Mask Group 18" transform="translate(503 1618)" clip-path="url(#clip-path)">
      <g id="Ellipse_44" data-name="Ellipse 44" transform="translate(4.141 5.541)" fill="none" stroke="#fff" stroke-width="2">
        <circle cx="29.5" cy="29.5" r="29.5" stroke="none"/>
        <circle cx="29.5" cy="29.5" r="28.5" fill="none"/>
      </g>
    </g>
    <g id="Group_238" data-name="Group 238" transform="translate(510.894 1651.949)">
      <path id="Path_694" data-name="Path 694" d="M876.587,341.367A4.3,4.3,0,0,0,874,344.384c-.14.969,1.392,3.53,2.3,4.063a3.49,3.49,0,0,0,5.376-2.067,3.163,3.163,0,0,0-.438-2.449,7.087,7.087,0,0,0-.964-1.993A4.356,4.356,0,0,0,876.587,341.367Zm4.757,4.444c-.053,2.252-2.859,3.354-4.8,2.143-.6-.374-.813-1.121-1.206-1.7a3.051,3.051,0,0,1-.839-1.831c.738-2.175,3.33-3.429,5.211-2.148.515.351.572,1.022.879,1.749C880.819,344.571,881.357,345.237,881.344,345.811Z" transform="translate(-853.888 -317.473)" fill="#fff" fill-rule="evenodd"/>
      <path id="Path_695" data-name="Path 695" d="M880.02,345.345c-1.208-.449-3.26,2.09-2.087,3.461a1.853,1.853,0,0,0,3.263-.856C881.272,347.474,880.725,345.608,880.02,345.345Zm-1.36,2.593a1.885,1.885,0,0,1,1.083-1.813C880.863,346.762,880.123,349.285,878.659,347.939Z" transform="translate(-855.703 -319.547)" fill="#fff" fill-rule="evenodd"/>
      <path id="Path_696" data-name="Path 696" d="M874.068,306.628c-1.29-.427-1.726,1.579-2.223,2.275.162.41.461.019.738.155a4.213,4.213,0,0,0,1.991,2.391c.431.157,1.446.087,1.714-.388a4.321,4.321,0,0,0,.025-1.309A7.128,7.128,0,0,0,874.068,306.628Zm1.559,3.909c-1.371.227-2.114-1.468-2.483-2.425a2.059,2.059,0,0,1,.524-.661C874.549,308.4,875.857,309.2,875.628,310.536Z" transform="translate(-852.8 -299.957)" fill="#fff" fill-rule="evenodd"/>
      <path id="Path_697" data-name="Path 697" d="M894.459,300.72c-1.206-.221-1.02,1.814-1.518,3.127-.311.82-1.292,2.231-.173,2.661.971.374,2.138-1.49,2.385-2.4C895.405,303.178,895.76,300.959,894.459,300.72Zm-1.334,4.843a19.1,19.1,0,0,1,1.221-3.982C894.681,302.646,894.539,304.933,893.125,305.563Z" transform="translate(-863.121 -296.989)" fill="#fff" fill-rule="evenodd"/>
      <path id="Path_698" data-name="Path 698" d="M893.081,296.344c-1.944-.021-3.53,1.3-3.758,3.971-.213,2.489-.157,4.936,2.85,5.857a6.85,6.85,0,0,0,3.213-5.151,11.5,11.5,0,0,0-.311-2.083C894.844,297.635,894.6,296.85,893.081,296.344Zm1.691,4.685a7.259,7.259,0,0,1-2.28,4.485,3.227,3.227,0,0,1-2.515-1.729c-.311-.818-.229-4.606.628-5.694a2.4,2.4,0,0,1,3.143-.609C894.345,297.915,894.825,300.232,894.773,301.029Z" transform="translate(-861.605 -294.784)" fill="#fff" fill-rule="evenodd"/>
      <path id="Path_699" data-name="Path 699" d="M885.853,320.555c-1.432,2.772-1.565,6.04.458,7.645,3.739,2.967,4.753-2.546,4.03-5.161C889.835,321.207,887.685,318.52,885.853,320.555Zm3.88,6.459c-.043,1.415-1.649,1.716-2.976.894-2.272-1.408-2.429-6.548.729-7.576C890.336,321.509,889.8,324.594,889.733,327.014Z" transform="translate(-859.346 -306.664)" fill="#fff" fill-rule="evenodd"/>
      <path id="Path_700" data-name="Path 700" d="M838.2,325.374c-2.36,1.67-2.525,5.059.154,6.175,2.763,1.151,6.32-.93,7.366-3.236C844.378,325.966,840.373,323.837,838.2,325.374Zm-.761,4.917c-1.326-1.4.024-4.557,2.153-4.852,1.758-.243,4.657,1.379,5.557,3C843.625,330.656,839.879,332.873,837.44,330.292Z" transform="translate(-834.862 -309.207)" fill="#fff" fill-rule="evenodd"/>
      <path id="Path_701" data-name="Path 701" d="M840.994,329.474a1.668,1.668,0,0,0-2.475,1.747c.055.049.161.081.125.163.326.1.692.411,1.069.519a10.243,10.243,0,0,0,4.213-.09c1.042-.678.711-1.86-.518-2.284-.723-.251-1.477.183-2.088-.1m-.345,1.968a4.8,4.8,0,0,1-1.441-.8c.439-.5,1.148-.107,1.881-.1.825,0,1.6-.515,2.417.258C843.614,331.373,841.913,331.643,840.975,331.4Z" transform="translate(-835.915 -311.446)" fill="#fff" fill-rule="evenodd"/>
      <path id="Path_702" data-name="Path 702" d="M853.365,314.354c.117,1.3,3.921,4.254,4.4,1.83.2-1.01-.677-1.333-1.5-2.151-.542-.54-.959-1.216-1.488-1.332C854,312.53,853.3,313.6,853.365,314.354Zm1.1-.585c.849.464,1.74,1.493,2.725,2.136C856.123,316.844,854.13,314.814,854.464,313.768Z" transform="translate(-843.449 -303.05)" fill="#fff" fill-rule="evenodd"/>
      <path id="Path_703" data-name="Path 703" d="M854.144,342.526c-1.818-.357-5.418,1.913-5.758,4.322a3.827,3.827,0,0,0,1.262,3.053c1.036.712,3.437.381,4.457-.175a6.268,6.268,0,0,0,2.3-3.053A3.185,3.185,0,0,0,854.144,342.526Zm1.8,3.824a4.32,4.32,0,0,1-2.5,3.057,13.618,13.618,0,0,1-1.635.019c-.647.033-1.256.3-1.676.1-.868-.415-1.243-2.041-1.1-2.769.394-1.96,3.7-4,5.194-3.579A2.4,2.4,0,0,1,855.948,346.35Z" transform="translate(-840.924 -318.129)" fill="#fff" fill-rule="evenodd"/>
      <path id="Path_704" data-name="Path 704" d="M844.3,324.4c-.456-.428-.869-1.031-1.284-1.335-3.8-2.792-8.192-1.966-9.428,1.829a4.866,4.866,0,0,0,2.032,5.867l1.518.431a6.119,6.119,0,0,0,3.6-.229l1.775-.763h0a5.98,5.98,0,0,0,3.079-3.238C845.967,325.741,845.141,325.193,844.3,324.4Zm.068,2.372A5.172,5.172,0,0,1,843,328.754c-1.944,1.6-7.284,2.979-8.354-.8a4.168,4.168,0,0,1,2.274-4.894c1.922-.745,4.7.409,6.364,1.971C843.924,325.629,844.481,326,844.365,326.774Z" transform="translate(-833.299 -307.466)" fill="#fff" fill-rule="evenodd"/>
      <path id="Path_705" data-name="Path 705" d="M877.949,316.667l.506.138c0-.011,0-.023-.007-.034-.044-.029-.1-.053-.145-.082,2.186.574,3.935-.495,4.439-3.381-.359-2.845-.549-4.473-.651-5.385-.395-.547-.578-1.281-1.029-1.837a3.271,3.271,0,0,0,2.167-1.336c.037-.075,2.423-4.927,2.253-8.091a4.074,4.074,0,0,0-2.9-3.41,5.083,5.083,0,0,0-5.707,3.42c-.589,1.933-.164,3.515-.2,5.255-.3-.684-.55-1.387-.849-2.072-.067-.137-.147-.309-.242-.522l-.02-.042c-5.739-7.154-8.6,1.364-8.614,1.391-.21,1.953.885,3.454,2.4,4.809l2.191,1.978a4.273,4.273,0,0,0,3.075.578c-1.155,2.553-.894,6.07,1.645,7.712.17.11.338.208.5.3a6.182,6.182,0,0,0-4.388-.2,5.685,5.685,0,0,0-3.251,4.583c.22,1.483,1.36,6.1,7.019,5.4l.005,0c1.263-.814,5.006-2.59,1.8-8.527Zm1.185-21.48a3.453,3.453,0,0,1,4.544.274c1.693,1.852.425,8.666-2.957,9.444a5.708,5.708,0,0,1-2.935-2.543C877.834,300.48,877.059,297.243,879.133,295.187Zm-.827,9.663c-.431.27-1,.141-1.384.548-.106-.694.253-1.548-.067-2.168C877.333,303.5,877.615,304.428,878.306,304.851Zm-7.123-.407c-1.49-1.184-3.2-2.556-2.385-4.513a2.279,2.279,0,0,1,2.724-1.422c1.128.358,1.885,1.692,2.364,2.673.539,1.1,1.3,2.361,1.1,3.382C874.5,307.075,872.491,305.483,871.183,304.444Zm3.256,2.089c.157-.683.807-.746,1.088-1.4.7-1.64-1.39-5.37-2.656-6.678a2.824,2.824,0,0,0-3.723-.079,4.224,4.224,0,0,0-.354,4.709c.748,1.041,3.324,3.279,4.829,3.666-1.445.191-2.835-1.416-3.915-2.408a9.279,9.279,0,0,1-1.533-1.659c-1.4-2.691,1.47-6.063,4.154-5a5.143,5.143,0,0,1,2.782,3.485C875.625,302.6,876.886,305.61,874.44,306.533Zm.723,5.842c-.491-2.116.705-5.536,2.874-6.129,1.358-.371,2.659,1.252,3.219,2.376.918,1.842,1.36,5.746-1.143,7.172C877.709,315.585,875.7,314.673,875.162,312.374Zm3.225,9.757a4.019,4.019,0,0,1-6.151,2.2,5.753,5.753,0,0,1-2.053-4.148,4.347,4.347,0,0,1,6.676-2.86,5.091,5.091,0,0,1,1.458,2.233A5.258,5.258,0,0,1,878.387,322.131Z" transform="translate(-850.311 -293.186)" fill="#fff" fill-rule="evenodd"/>
      <path id="Path_706" data-name="Path 706" d="M862.977,317.241a3.649,3.649,0,0,0-2.066-1.816c-1.891-.726-3.5.385-5.026,1.187l-.019-.015a4.153,4.153,0,0,1,1.393-2.03c-.251-.8-.39-1.635-.694-2.415a12.62,12.62,0,0,0-1.163-1.919.712.712,0,0,1-.348-.448A7.4,7.4,0,0,0,850.52,307h0c-.073-.005-.145-.011-.216-.019-1.325.044-5.137,2.51-2.678,6.833a11.283,11.283,0,0,0,2.69,2.171c.852.39,4.227,1.88,4.853,1.3-.295.39-.552.715-.775.987.008.01.016.02.025.029a4.313,4.313,0,0,0-.212,4.447c-.171-.1-.178.274-.282.372a11.248,11.248,0,0,0-4.818.708v0c-.024.008-.046.022-.07.031a4.671,4.671,0,0,0-1.161.747c-.026.024-.051.049-.077.074-.086.081-.169.164-.25.25s-.145.16-.215.244l-.061.072a7.318,7.318,0,0,0-.818,1.272,2.622,2.622,0,0,0-.149.276c-.063.136-.123.273-.177.412a3.111,3.111,0,0,0-.106.336,6.265,6.265,0,0,0-.364,2.538c0,.021,0,.043.007.064a3.742,3.742,0,0,0,.062.4c0,.017.007.034.011.051a3.154,3.154,0,0,0,.12.4l0,.007a2.658,2.658,0,0,0,.184.389,8.468,8.468,0,0,0,2.6,2.018,5.189,5.189,0,0,0,.865.083c1.422-.171,4.6-.854,6.118-2.965v-.008l.014-.013a4.342,4.342,0,0,0,.617-1.22c.174-.555.3-1.027.386-1.44a4.005,4.005,0,0,0-.235-2.1c-.352-.821-1.315-1.261-1.457-2.233.8.217.982.79,1.935,1.041C859.568,325.261,863.906,319.631,862.977,317.241Zm-11.991-8.081c1.758,1.095,4.519,3.1,3.946,5.067-.625,2.149-2.511.513-3.851-.446a7.852,7.852,0,0,1-1.942-1.655C848.554,310.963,849.318,308.9,850.985,309.16Zm3.927,6.99a2.541,2.541,0,0,1-2.539-.216c-2.674-1.507-5.257-3.583-4.324-5.962a2.679,2.679,0,0,1,2.6-1.585c-.612.348-1.4.324-1.869,1.126a3.507,3.507,0,0,0-.006,2.945,8.735,8.735,0,0,0,1.984,1.777c1.251,1.011,3.133,2.676,4.269,1.258a3.235,3.235,0,0,0,.213-2.743c-.493-1.543-2.237-2.983-3.689-4.13A6.906,6.906,0,0,1,854.362,311C855.541,312.476,856.657,313.951,854.913,316.15Zm.555,12.47a6.494,6.494,0,0,1-2.782,3.428c-1.009.47-3.861,1.122-5.2-.389-1.475-1.665-.348-5.174,1.764-6.566,1.067-.7,3.126-1.369,4.2-.908A3.775,3.775,0,0,1,855.468,328.62Zm.859-10.564c-.971,1.343-1.692,3.409-.522,4.424C854.34,321.767,854.8,319.049,856.327,318.057Zm.044,3.885c-2.073-1.911,1.992-5.888,4.332-3.9.386,1.9-2.01,3.569-3.177,4.66-.409-.257-.693-.157-1.11-.437m5.05-2.023c-.2.321-.651.443-.974.748-1.06,1-2.027,2.972-3.45,2.29,1.231-.517,5.4-3.33,4.272-5.449-.928-1.738-3.791-.788-4.783.219.764-1.3,4.406-2.436,5.315-.267A3.765,3.765,0,0,1,861.466,320.246Z" transform="translate(-839.541 -300.164)" fill="#fff" fill-rule="evenodd"/>
      <path id="Path_707" data-name="Path 707" d="M856.216,347.459c-.006,0-.014,0-.02.008.086-.508-.352-.836-.994-1.092-.8.04-1.646.843-2.44,1.256-.868.452-2.488.923-2.018,2.273.845.552,1.047.231,1.8.061,1.058-.238,2.262-.282,2.933-1.016l.243-.289c.1-.206.246-.3.354-.493C856.076,348.153,856.155,347.779,856.216,347.459Zm-4.58,1.862c1.117-.729,2.316-1.218,3.413-2l.329.16A3.384,3.384,0,0,1,851.637,349.321Z" transform="translate(-842.082 -320.095)" fill="#fff" fill-rule="evenodd"/>
      <path id="Path_708" data-name="Path 708" d="M890.127,327.027c.083-.7-.327-1.028-.552-1.793-.19-.645.041-2.036-.723-2.283-1.513-.49-1.794,3.094-1.385,3.9-.016-.009-.028-.01-.043-.018a6.732,6.732,0,0,0,.265.661.372.372,0,0,1,.072.008.311.311,0,0,1,.077.284,2.328,2.328,0,0,0,1.055,1.087c.7.156,1.331-.546,1.322-1.4Zm-.848.91c-1.1-.989-1.182-2.328-.781-3.836.177,1.285.992,2.348,1.188,3.626C889.58,327.884,889.414,327.867,889.279,327.937Z" transform="translate(-860.617 -308.222)" fill="#fff" fill-rule="evenodd"/>
      <g id="Group_237" data-name="Group 237" transform="translate(16.983 18.167)">
        <path id="Path_709" data-name="Path 709" d="M871.635,334.4a.335.335,0,0,0,.063.1Z" transform="translate(-869.677 -332.203)" fill="#fff" fill-rule="evenodd"/>
        <path id="Path_710" data-name="Path 710" d="M870.746,331.255c.315-.3.554-.731.252-1.084l-.246-.12c-1.5-.521-3.148,1.189-3.077,2.777.833,1.013,1.4-.255,1.956-.678C869.63,332.15,870.412,331.271,870.746,331.255Zm-2.136,1.112a1.809,1.809,0,0,1,1.7-1.615A14.151,14.151,0,0,0,868.61,332.367Z" transform="translate(-867.672 -329.956)" fill="#fff" fill-rule="evenodd"/>
      </g>
    </g>
  </g>
</svg>
