<svg xmlns="http://www.w3.org/2000/svg" width="61.707" height="56.822" viewBox="0 0 61.707 56.822">
  <g id="Group_14" data-name="Group 14" transform="translate(-19.112 -20.046)">
    <g id="Group_11" data-name="Group 11" transform="translate(19.112 20.046)">
      <path id="Path_126" data-name="Path 126" d="M45.963,73.749A26.851,26.851,0,1,0,19.112,46.9,26.882,26.882,0,0,0,45.963,73.749Zm0-50.468A23.617,23.617,0,1,1,22.346,46.9,23.643,23.643,0,0,1,45.963,23.28Z" transform="translate(-19.112 -20.046)" fill="#fff"/>
      <path id="Path_127" data-name="Path 127" d="M42.494,52.752a3.186,3.186,0,1,0-3.186-3.186A3.19,3.19,0,0,0,42.494,52.752Z" transform="translate(-24.468 -27.03)" fill="#fff"/>
      <path id="Path_128" data-name="Path 128" d="M66.516,52.752a3.186,3.186,0,1,0-3.187-3.186A3.19,3.19,0,0,0,66.516,52.752Z" transform="translate(-30.839 -27.03)" fill="#fff"/>
    </g>
    <path id="Path_129" data-name="Path 129" d="M94.859,49.19H88.293a28.234,28.234,0,0,1,.37,8.426h2.262A30.547,30.547,0,0,1,82.1,76.268l-1.589-1.589a28.55,28.55,0,0,1-6.855,5.06l1.669,1.669-.07.042L78.2,84.6A34.837,34.837,0,0,0,94.859,49.19Z" transform="translate(-14.466 -7.73)" fill="#fff"/>
    <path id="Path_130" data-name="Path 130" d="M.156,9.965a1.616,1.616,0,0,0,1.7,2.292A106.649,106.649,0,0,1,14.412,11.2a106.651,106.651,0,0,1,12.56,1.062,1.6,1.6,0,0,0,.236.018,1.618,1.618,0,0,0,1.461-2.309C25.757,3.818,20.295,0,14.412,0S3.069,3.818.156,9.965ZM14.412,3.234a12.222,12.222,0,0,1,9.723,5.4,90.968,90.968,0,0,0-9.723-.67,90.967,90.967,0,0,0-9.721.67A12.222,12.222,0,0,1,14.412,3.234Z" transform="translate(60.376 64.426) rotate(180)" fill="#fff"/>
  </g>
</svg>
