<svg id="Layer_2" data-name="Layer 2" xmlns="http://www.w3.org/2000/svg" width="162.28" height="191.64" viewBox="0 0 162.28 191.64">
  <g id="Layer_1" data-name="Layer 1">
    <path id="Path_1" data-name="Path 1" d="M162.28,185V12a12,12,0,0,0-12-12H12A12,12,0,0,0,0,12V185a6.66,6.66,0,0,0,6.64,6.64h149a6.67,6.67,0,0,0,6.64-6.64Z" fill="#fff"/>
    <path id="Path_2" data-name="Path 2" d="M8.73,176.69h1.9v1.12c0,.91.34,1.48,1.1,1.48,1,0,1.26-.68,1.26-1.58,0-1.16-.06-1.54-2-3.49C9.74,173,8.73,171.9,8.73,170c0-2.24,1-3.21,3.12-3.21a3.23,3.23,0,0,1,2.22.76,2.2,2.2,0,0,1,.55,1.74v1.3H12.83V169.5c0-.78-.32-1.23-1.06-1.23s-1.14.44-1.14,1.5.19,1.5,1.94,3.32,2.2,2.61,2.2,4.26c0,2.15-.83,3.38-3.1,3.38-1.74,0-2.94-.74-2.94-2.45Z" fill="#5a2c8e"/>
    <path id="Path_3" data-name="Path 3" d="M16.63,172.37h-.89v-1.25h.89v-1.8l1.79-.63v2.43h1.1v1.25h-1.1v6.18c0,.72.32.85.86.85a1.69,1.69,0,0,0,.45-.05v1.25c-.21,0-.66.06-1.16.06-1.42,0-1.94-.42-1.94-1.28Z" fill="#5a2c8e"/>
    <path id="Path_4" data-name="Path 4" d="M20.55,171.12h1.67v1h0c.42-.89.72-1.1,1.59-1.1v1.78c-.89,0-1.52.25-1.52,1.24v6.63H20.55Z" fill="#5a2c8e"/>
    <path id="Path_5" data-name="Path 5" d="M24.77,173.08c0-1.41.85-2.07,2.54-2.07s2.53.64,2.53,2.31v7.34H28.17v-1c-.21.21-.33.4-.52.59a1.85,1.85,0,0,1-1.27.51c-1.06,0-1.75-.32-1.75-2.6,0-1.92.15-2.36.65-2.87s.72-.59,2.77-.59v-1.54c0-.55-.13-.91-.74-.91s-.76.21-.76.8v.87H24.77ZM27.48,176c-.83,0-1.06.46-1.06,2s.13,1.6.7,1.6a.972.972,0,0,0,.93-1.1V176Z" fill="#5a2c8e"/>
    <path id="Path_6" data-name="Path 6" d="M31.85,172.37H31v-1.25h.89v-1.8l1.79-.63v2.43h1.1v1.25h-1.1v6.18c0,.72.32.85.85.85a1.72,1.72,0,0,0,.46-.05v1.25c-.21,0-.67.06-1.16.06-1.42,0-1.94-.42-1.94-1.28Z" fill="#5a2c8e"/>
    <path id="Path_7" data-name="Path 7" d="M35.69,173.57A2.35,2.35,0,0,1,38.28,171c1.42,0,2.6.6,2.6,2.37v3.08h-3.4v2c0,.89.3,1.14.87,1.14s.86-.47.86-1.23v-.88h1.67v1.35c0,1-.69,1.9-2.66,1.9a2.23,2.23,0,0,1-2.53-2.37Zm1.79,1.64h1.73v-1.87c0-.85-.25-1.19-.86-1.19s-.87.36-.87,1Z" fill="#5a2c8e"/>
    <path id="Path_8" data-name="Path 8" d="M42.63,181.53h1.78v.74c0,.55.17.82.67.82s.66-.29.66-1.08v-2.38h0a1.69,1.69,0,0,1-1.57.8c-1.05,0-1.67-.8-1.67-2.2v-5c0-1.41.62-2.2,1.67-2.2a1.78,1.78,0,0,1,1.69,1h0v-.86h1.67v10.47A2.32,2.32,0,0,1,45,184.23c-1.29,0-2.33-.5-2.33-1.9Zm1.61-3.72c0,1.1.31,1.37.78,1.37s.72-.31.72-1v-4.9c0-.67-.28-1-.8-1s-.7.19-.7,1Z" fill="#5a2c8e"/>
    <path id="Path_9" data-name="Path 9" d="M49.24,166.94H51v1.9H49.24Zm0,4.18H51v9.54H49.24Z" fill="#5a2c8e"/>
    <path id="Path_10" data-name="Path 10" d="M52.51,173.57A2.32,2.32,0,0,1,55,171c1.62,0,2.32.79,2.32,1.9v1.42H55.66v-1c0-.73-.27-1-.68-1s-.69.38-.69,1.12v5.25c0,.56.21.89.69.89s.68-.34.68-.93v-1.14h1.67v1.44c0,1.44-1.19,1.88-2.3,1.88a2.22,2.22,0,0,1-2.52-2.37Z" fill="#5a2c8e"/>
    <path id="Path_11" data-name="Path 11" d="M62.52,170.44c0-1.92.63-3.61,3.21-3.61,1.88,0,2.76.95,2.76,2.49v1.36H66.7v-1c0-.87-.3-1.42-1.1-1.42-1,0-1.18.7-1.18,2.36v6.72c0,1.61.51,1.9,1.12,1.9s1.16-.49,1.16-1.63v-.95h1.79v1.52c0,1.44-.59,2.54-2.8,2.54-2.39,0-3.17-1.27-3.17-3.4Z" fill="#5a2c8e"/>
    <path id="Path_12" data-name="Path 12" d="M69.72,173.57A2.33,2.33,0,0,1,72.25,171c1.37,0,2.54.6,2.54,2.37v4.83a2.33,2.33,0,0,1-2.52,2.56c-1.37,0-2.55-.61-2.55-2.37Zm1.79,4.75c0,.76.19,1.2.76,1.2s.74-.44.74-1.2v-4.86c0-.76-.19-1.2-.74-1.2s-.76.44-.76,1.2Z" fill="#5a2c8e"/>
    <path id="Path_13" data-name="Path 13" d="M76.6,171.12h1.67v.8h0A2,2,0,0,1,80,171a1.81,1.81,0,0,1,1.56.91,1.75,1.75,0,0,1,1.57-.91c1,0,1.75.47,1.75,1.88v7.77H83.1v-7.43c0-.49-.14-.86-.69-.86s-.78.27-.78,1v7.28H79.85v-7.43c0-.49-.14-.86-.69-.86s-.78.27-.78,1v7.28H76.6Z" fill="#5a2c8e"/>
    <path id="Path_14" data-name="Path 14" d="M86.86,171.12h1.67v.8h0a2,2,0,0,1,1.69-.91,1.81,1.81,0,0,1,1.56.91,1.75,1.75,0,0,1,1.57-.91c1,0,1.75.47,1.75,1.88v7.77H93.36v-7.43c0-.49-.14-.86-.69-.86s-.78.27-.78,1v7.28H90.11v-7.43c0-.49-.14-.86-.69-.86s-.77.27-.77,1v7.28H86.86Z" fill="#5a2c8e"/>
    <path id="Path_15" data-name="Path 15" d="M102,180.66h-1.67v-.8h0a1.9,1.9,0,0,1-1.65.91c-.89,0-1.67-.47-1.67-1.88v-7.77h1.78v7.43c0,.49.14.85.69.85s.78-.26.78-1v-7.28H102Z" fill="#5a2c8e"/>
    <path id="Path_16" data-name="Path 16" d="M103.67,171.12h1.68v.8h0a1.78,1.78,0,0,1,.69-.67,1.84,1.84,0,0,1,1-.24c.89,0,1.67.47,1.67,1.88v7.77h-1.79v-7.43c0-.49-.13-.86-.68-.86s-.78.27-.78,1v7.28h-1.79Z" fill="#5a2c8e"/>
    <path id="Path_17" data-name="Path 17" d="M110.44,166.94h1.78v1.9h-1.78Zm0,4.18h1.78v9.54h-1.78Z" fill="#5a2c8e"/>
    <path id="Path_18" data-name="Path 18" d="M113.71,173.57a2.32,2.32,0,0,1,2.5-2.56c1.62,0,2.32.79,2.32,1.9v1.42h-1.67v-1c0-.73-.27-1-.68-1s-.69.38-.69,1.12v5.25c0,.56.21.89.69.89s.68-.34.68-.93v-1.14h1.67v1.44c0,1.44-1.2,1.88-2.3,1.88a2.22,2.22,0,0,1-2.52-2.37Z" fill="#5a2c8e"/>
    <path id="Path_19" data-name="Path 19" d="M119.92,173.08c0-1.41.85-2.07,2.54-2.07s2.53.64,2.53,2.31v7.34h-1.67v-1c-.21.21-.32.4-.51.59a1.9,1.9,0,0,1-1.28.51c-1.06,0-1.74-.32-1.74-2.6,0-1.92.15-2.36.64-2.87s.72-.59,2.78-.59v-1.54c0-.55-.14-.91-.75-.91s-.76.21-.76.8v.87h-1.78Zm2.72,2.88c-.84,0-1.07.46-1.07,2s.13,1.6.71,1.6.93-.46.93-1.1V176Z" fill="#5a2c8e"/>
    <path id="Path_20" data-name="Path 20" d="M127,172.37h-.9v-1.25h.9v-1.8l1.78-.63v2.43h1.1v1.25h-1.1v6.18c0,.72.33.85.86.85a1.64,1.64,0,0,0,.45-.05v1.25c-.21,0-.66.06-1.16.06-1.42,0-1.93-.42-1.93-1.28Z" fill="#5a2c8e"/>
    <path id="Path_21" data-name="Path 21" d="M131,166.94h1.78v1.9H131Zm0,4.18h1.78v9.54H131Z" fill="#5a2c8e"/>
    <path id="Path_22" data-name="Path 22" d="M134.47,173.57A2.33,2.33,0,0,1,137,171c1.37,0,2.55.6,2.55,2.37v4.83a2.33,2.33,0,0,1-2.53,2.56c-1.37,0-2.55-.61-2.55-2.37Zm1.79,4.75c0,.76.19,1.2.76,1.2s.74-.44.74-1.2v-4.86c0-.76-.19-1.2-.74-1.2s-.76.44-.76,1.2Z" fill="#5a2c8e"/>
    <path id="Path_23" data-name="Path 23" d="M141.2,171.12h1.67v.8h0a1.82,1.82,0,0,1,.68-.67,1.86,1.86,0,0,1,1-.24c.9,0,1.67.47,1.67,1.88v7.77h-1.78v-7.43c0-.49-.13-.86-.68-.86s-.78.27-.78,1v7.28H141.2Z" fill="#5a2c8e"/>
    <path id="Path_24" data-name="Path 24" d="M150.72,174.2v-.91c0-.74-.15-1-.63-1s-.61.21-.61.87c0,1,.08,1,1.28,2.08,1.38,1.21,1.65,1.61,1.65,3,0,1.86-.65,2.56-2.55,2.56-1.36,0-2.12-.57-2.12-2v-1.34h1.67v1.31c0,.59.25.74.66.74.59,0,.67-.31.67-1.07,0-1-.06-1.17-1.08-2l-.4-.34c-1.43-1.22-1.45-1.37-1.45-2.68,0-1.8.88-2.37,2.47-2.37,1.33,0,2,.59,2,1.73v1.46Z" fill="#5a2c8e"/>
    <path id="Path_25" data-name="Path 25" d="M6.33,36.38v53.8a28.426,28.426,0,0,0,19.89-.57A28.438,28.438,0,0,0,41.87,52.57c-2.5-6.14-7.81-10.21-11.35-15.66A38.81,38.81,0,0,1,24.4,18h0a39.862,39.862,0,0,1-.01-4,6.236,6.236,0,0,1,.07-1.14A38,38,0,0,1,25.09,8H13a6.66,6.66,0,0,0-6.62,6.64v3.5L6.72,18a46.75,46.75,0,0,1,10.22-.81,46.32,46.32,0,0,0,4.3,18.23L21,35.37A28.43,28.43,0,0,0,6.33,36.38Z" fill="#5a2c8e"/>
    <path id="Path_26" data-name="Path 26" d="M13,157.58H149.31a6.66,6.66,0,0,0,6.64-6.65V14.59A6.66,6.66,0,0,0,149.32,8H101.55a.44.44,0,0,0,0,.1A39,39,0,0,1,70.73,53.8c-.66.12-1.32.22-2,.31a53.85,53.85,0,0,0-6-17.3A21.274,21.274,0,0,0,83.22,8H43.4a20.75,20.75,0,0,0-1,3.46,21.25,21.25,0,0,0,5.27,18.53h0l.46.44A46.55,46.55,0,0,1,61.61,63a46.33,46.33,0,0,1-1.17,10.3l.06.06a44.781,44.781,0,0,1-2.25,7.26A45.85,45.85,0,0,1,48.12,95.88,46.08,46.08,0,0,1,6.33,108.46v42.47A6.66,6.66,0,0,0,13,157.58Z" fill="#5a2c8e"/>
    <path id="Path_27" data-name="Path 27" d="M39.37,116.58c-.29-2.07-2.08-2.92-4-2.92-4.37,0-5.69,4-5.69,7.45s1.32,7.45,5.69,7.45a4,4,0,0,0,4.19-3.06H41.2a5.66,5.66,0,0,1-5.84,4.5c-5.17,0-7.34-4.15-7.34-8.87s2.2-8.87,7.34-8.87c2.78,0,5.42,1.28,5.66,4.34Z" fill="#fff"/>
    <path id="Path_28" data-name="Path 28" d="M42.52,129.62l6.75-17h1.79l6.79,17H56.18L54.36,125H45.9l-1.8,4.6Zm11.3-6L50.14,114l-3.75,9.6Z" fill="#fff"/>
    <path id="Path_29" data-name="Path 29" d="M60.21,112.6H62l9.39,15h0v-15h1.54v17H71l-9.19-14.71h0V129.6h-1.6Z" fill="#fff"/>
    <path id="Path_30" data-name="Path 30" d="M77.23,112.6H79l9.39,15h0v-15h1.53v17H88l-9.2-14.71h0V129.6H77.23Z" fill="#fff"/>
    <path id="Path_31" data-name="Path 31" d="M94.61,129.62V112.53h1.53v17.09Z" fill="#fff"/>
    <path id="Path_32" data-name="Path 32" d="M100.81,112.6h1.74l9.39,15h0v-15h1.54v17h-1.94l-9.19-14.71h0V129.6h-1.53Z" fill="#fff"/>
    <path id="Path_33" data-name="Path 33" d="M130.54,120.94v8a15.9,15.9,0,0,1-6.11,1.06c-4.64,0-7.26-3.64-7.26-8.87,0-4.39,2.33-8.87,7.26-8.87,2.83,0,5.73,1.54,6,4.55h-1.74c-.31-2.17-2.22-3.13-4.25-3.13-4.08,0-5.61,3.91-5.61,7.45,0,4.34,1.82,7.45,6.41,7.45a13.509,13.509,0,0,0,3.78-.71v-5.49h-4.27v-1.42Z" fill="#fff"/>
    <path id="Path_34" data-name="Path 34" d="M139.12,130a4.94,4.94,0,0,1-5.07-4.79h1.65c.05,2.62,2,3.37,4.27,3.37,1.91,0,4.1-1.11,4.1-3.28,0-1.69-1.22-2.5-2.66-3-2.76-.92-7-1.79-7-5.47,0-3,2.74-4.6,5.42-4.6,2.25,0,5.17.78,5.55,4.06h-1.65c-.05-2.1-2-2.64-3.71-2.64s-4,.89-4,3c0,4.83,9.62,2.64,9.62,8.51C145.72,128.84,142.54,130,139.12,130Z" fill="#fff"/>
    <path id="Path_35" data-name="Path 35" d="M58.22,130.76h5.26c2.46,0,4.51.17,5.92,1.86a4.86,4.86,0,0,1,1,3.19,5.29,5.29,0,0,1-2.17,4.53,7.37,7.37,0,0,1-3.87.8H61.93v6.62H58.22Zm3.61,7.67h1.46c1.18,0,3.38,0,3.38-2.6,0-2.31-2-2.31-3-2.31H61.83Z" fill="#fff"/>
    <path id="Path_36" data-name="Path 36" d="M76.45,130.76v10.38c0,1.86.14,4.19,3.7,4.19a3.77,3.77,0,0,0,3.3-1.48c.36-.52.55-1.18.55-2.9V130.76h3.56V141.4c0,5.07-4,6.69-7.48,6.69-1.7,0-4.81-.37-6.41-2.94a7.21,7.21,0,0,1-.87-4.2V130.76Z" fill="#fff"/>
    <path id="Path_37" data-name="Path 37" d="M90.86,130.71h6.53c1.89,0,3.79,0,5.16,1.16a4.33,4.33,0,0,1,1.49,3.28,4.26,4.26,0,0,1-3.56,4.17c2.57.24,2.76,1.7,3.06,3.92a32.856,32.856,0,0,0,.52,3.3,3,3,0,0,0,.52,1.22h-4c-.17-.94-.69-5.26-.92-5.92-.33-1-1.23-1-1.84-1H94.58v6.88H90.86Zm3.6,7.46h3a3,3,0,0,0,1.87-.48,2.35,2.35,0,0,0,.94-2,2.15,2.15,0,0,0-.9-1.91,4,4,0,0,0-2.4-.4H94.46Z" fill="#fff"/>
    <path id="Path_38" data-name="Path 38" d="M106.7,130.76H112c2.45,0,4.5.17,5.92,1.86a4.92,4.92,0,0,1,1,3.19,5.29,5.29,0,0,1-2.17,4.53,7.37,7.37,0,0,1-3.87.8H110.4v6.62h-3.7Zm3.61,7.67h1.46c1.18,0,3.37,0,3.37-2.6,0-2.31-2-2.31-3-2.31H110.3Z" fill="#fff"/>
    <path id="Path_39" data-name="Path 39" d="M121.2,130.74h3.73v14.12h7.31v2.9h-11Z" fill="#fff"/>
    <path id="Path_40" data-name="Path 40" d="M134.43,130.71h11.41v2.79h-7.76v4.05h7.27v2.79h-7.27v4.59h8v2.83H134.43Z" fill="#fff"/>
  </g>
</svg>
