<?xml version="1.0" encoding="UTF-8"?>
<svg width="204px" height="41px" viewBox="0 0 204 41" version="1.1" xmlns="http://www.w3.org/2000/svg" xmlns:xlink="http://www.w3.org/1999/xlink">
    <title>logo-wpp</title>
    <g id="Page-1" stroke="none" stroke-width="1" fill="none" fill-rule="evenodd">
        <g id="logo-wpp" fill="#FFFFFF" fill-rule="nonzero">
            <path d="M3.06,0.36 L5.24,0.36 C6.45,0.36 7.27,1.1 7.27,2.19 C7.27,3.27 6.45,4.03 5.24,4.03 L4.02,4.03 L4.02,6.34 L3.06,6.34 L3.06,0.36 Z M5.22,3.17 C5.91,3.17 6.28,2.76 6.28,2.19 C6.28,1.61 5.91,1.2 5.22,1.2 L4.02,1.2 L4.02,3.17 L5.22,3.17 L5.22,3.17 Z M11.2,5.34 L8.51,5.34 L8.08,6.34 L7.06,6.34 L9.7,0.26 L10.03,0.26 L12.67,6.34 L11.64,6.34 L11.2,5.34 Z M9.86,2.04 L8.85,4.51 L10.85,4.51 L9.86,2.04 Z M17.37,6.33 L15.67,4.02 L14.57,4.02 L14.57,6.33 L13.61,6.33 L13.61,0.36 L15.79,0.36 C17,0.36 17.82,1.1 17.82,2.19 C17.82,2.98 17.39,3.6 16.67,3.87 L18.46,6.33 L17.37,6.33 L17.37,6.33 Z M14.57,3.17 L15.77,3.17 C16.45,3.17 16.83,2.76 16.83,2.19 C16.83,1.61 16.45,1.2 15.77,1.2 L14.57,1.2 L14.57,3.17 Z M20.51,1.22 L18.5,1.22 L18.5,0.36 L23.49,0.36 L23.49,1.22 L21.47,1.22 L21.47,6.34 L20.51,6.34 L20.51,1.22 Z M26.11,3.34 C26.11,1.59 27.51,0.25 29.24,0.25 C30.97,0.25 32.38,1.59 32.38,3.34 C32.38,5.1 30.97,6.43 29.24,6.43 C27.5,6.43 26.11,5.09 26.11,3.34 M31.4,3.34 C31.4,2.08 30.48,1.14 29.25,1.14 C28.01,1.14 27.1,2.07 27.1,3.34 C27.1,4.63 28.01,5.56 29.25,5.56 C30.48,5.55 31.4,4.62 31.4,3.34 M33.54,0.36 L37.38,0.36 L37.38,1.22 L34.5,1.22 L34.5,3 L36.87,3 L36.87,3.87 L34.5,3.87 L34.5,6.33 L33.54,6.33 L33.54,0.36 Z" id="Shape"></path>
            <path d="M57,26.63 C57.45,26.63 57.81,27 57.81,27.44 C57.81,27.89 57.44,28.25 57,28.25 C56.55,28.25 56.19,27.89 56.19,27.44 C56.18,26.99 56.55,26.63 57,26.63 M57,21.8 C56.55,21.8 56.19,22.17 56.19,22.61 C56.19,23.06 56.56,23.42 57,23.42 C57.45,23.42 57.81,23.05 57.81,22.61 C57.81,22.17 57.45,21.8 57,21.8 M57,24.21 C56.55,24.21 56.19,24.58 56.19,25.02 C56.19,25.47 56.56,25.83 57,25.83 C57.45,25.83 57.81,25.46 57.81,25.02 C57.81,24.58 57.45,24.21 57,24.21 M59.09,18.18 C58.64,18.18 58.28,18.55 58.28,18.99 C58.28,19.44 58.65,19.81 59.09,19.81 C59.54,19.81 59.9,19.44 59.9,18.99 C59.9,18.54 59.54,18.18 59.09,18.18 M59.09,16.07 C58.81,16.07 58.59,16.3 58.59,16.58 C58.59,16.86 58.82,17.09 59.09,17.09 C59.37,17.09 59.6,16.86 59.6,16.58 C59.59,16.3 59.37,16.07 59.09,16.07 M57,30.67 C57.45,30.67 57.81,30.3 57.81,29.86 C57.81,29.41 57.44,29.04 57,29.04 C56.55,29.04 56.19,29.41 56.19,29.86 C56.18,30.31 56.55,30.67 57,30.67 M57,19.39 C56.55,19.39 56.19,19.76 56.19,20.2 C56.19,20.65 56.56,21.02 57,21.02 C57.45,21.02 57.81,20.65 57.81,20.2 C57.81,19.75 57.45,19.39 57,19.39 M54.91,27.84 C54.46,27.84 54.1,28.2 54.1,28.65 C54.1,29.1 54.47,29.46 54.91,29.46 C55.36,29.46 55.72,29.09 55.72,28.65 C55.72,28.2 55.36,27.84 54.91,27.84 M54.91,26.74 C55.19,26.74 55.42,26.51 55.42,26.23 C55.42,25.95 55.19,25.72 54.91,25.72 C54.63,25.72 54.41,25.95 54.41,26.23 C54.4,26.52 54.63,26.74 54.91,26.74 M50.72,26.74 C51,26.74 51.23,26.51 51.23,26.23 C51.23,25.95 51,25.72 50.72,25.72 C50.44,25.72 50.22,25.95 50.22,26.23 C50.22,26.52 50.44,26.74 50.72,26.74 M52.81,32.78 C53.09,32.78 53.32,32.55 53.32,32.28 C53.32,32 53.09,31.77 52.81,31.77 C52.53,31.77 52.3,32 52.3,32.28 C52.31,32.55 52.54,32.78 52.81,32.78 M54.91,20.9 C54.63,20.9 54.41,21.13 54.41,21.41 C54.41,21.69 54.64,21.92 54.91,21.92 C55.19,21.92 55.42,21.69 55.42,21.41 C55.41,21.13 55.18,20.9 54.91,20.9 M50.72,20.9 C50.44,20.9 50.22,21.13 50.22,21.41 C50.22,21.69 50.45,21.92 50.72,21.92 C51,21.92 51.23,21.69 51.23,21.41 C51.23,21.13 51,20.9 50.72,20.9 M57,16.97 C56.55,16.97 56.19,17.34 56.19,17.78 C56.19,18.23 56.56,18.6 57,18.6 C57.45,18.6 57.81,18.23 57.81,17.78 C57.81,17.34 57.45,16.97 57,16.97 M57,14.87 C56.72,14.87 56.49,15.1 56.49,15.38 C56.49,15.66 56.72,15.89 57,15.89 C57.28,15.89 57.51,15.66 57.51,15.38 C57.5,15.09 57.28,14.87 57,14.87 M54.91,31.88 C55.36,31.88 55.72,31.52 55.72,31.07 C55.72,30.62 55.35,30.26 54.91,30.26 C54.46,30.26 54.1,30.63 54.1,31.07 C54.09,31.52 54.46,31.88 54.91,31.88 M59.09,23.01 C58.64,23.01 58.28,23.38 58.28,23.82 C58.28,24.27 58.65,24.63 59.09,24.63 C59.54,24.63 59.9,24.26 59.9,23.82 C59.9,23.37 59.54,23.01 59.09,23.01 M68.37,20.59 C67.92,20.59 67.56,20.96 67.56,21.4 C67.56,21.84 67.93,22.21 68.37,22.21 C68.82,22.21 69.18,21.84 69.18,21.4 C69.18,20.96 68.82,20.59 68.37,20.59 M68.37,18.18 C67.92,18.18 67.56,18.55 67.56,18.99 C67.56,19.44 67.93,19.81 68.37,19.81 C68.82,19.81 69.18,19.44 69.18,18.99 C69.18,18.54 68.82,18.18 68.37,18.18 M61.18,24.21 C60.73,24.21 60.37,24.58 60.37,25.02 C60.37,25.47 60.74,25.83 61.18,25.83 C61.63,25.83 61.99,25.46 61.99,25.02 C61.99,24.58 61.63,24.21 61.18,24.21 M68.37,15.76 C67.92,15.76 67.56,16.13 67.56,16.57 C67.56,17.02 67.93,17.38 68.37,17.38 C68.82,17.38 69.18,17.02 69.18,16.57 C69.18,16.13 68.82,15.76 68.37,15.76 M68.37,27.84 C67.92,27.84 67.56,28.2 67.56,28.65 C67.56,29.1 67.93,29.46 68.37,29.46 C68.82,29.46 69.18,29.09 69.18,28.65 C69.18,28.2 68.82,27.84 68.37,27.84 M68.37,25.42 C67.92,25.42 67.56,25.79 67.56,26.23 C67.56,26.67 67.93,27.04 68.37,27.04 C68.82,27.04 69.18,26.67 69.18,26.23 C69.18,25.79 68.82,25.42 68.37,25.42 M68.37,23.01 C67.92,23.01 67.56,23.38 67.56,23.82 C67.56,24.27 67.93,24.63 68.37,24.63 C68.82,24.63 69.18,24.26 69.18,23.82 C69.18,23.37 68.82,23.01 68.37,23.01 M46.54,25.42 C46.09,25.42 45.73,25.79 45.73,26.23 C45.73,26.67 46.1,27.04 46.54,27.04 C46.99,27.04 47.35,26.67 47.35,26.23 C47.35,25.79 46.99,25.42 46.54,25.42 M59.09,29.47 C59.54,29.47 59.9,29.11 59.9,28.66 C59.9,28.21 59.53,27.84 59.09,27.84 C58.64,27.84 58.28,28.21 58.28,28.66 C58.27,29.1 58.64,29.47 59.09,29.47 M61.18,21.8 C60.73,21.8 60.37,22.17 60.37,22.61 C60.37,23.06 60.74,23.42 61.18,23.42 C61.63,23.42 61.99,23.05 61.99,22.61 C61.99,22.17 61.63,21.8 61.18,21.8 M54.91,18.18 C54.46,18.18 54.1,18.55 54.1,18.99 C54.1,19.44 54.47,19.81 54.91,19.81 C55.36,19.81 55.72,19.44 55.72,18.99 C55.72,18.54 55.36,18.18 54.91,18.18 M59.09,25.42 C58.64,25.42 58.28,25.79 58.28,26.23 C58.28,26.67 58.65,27.04 59.09,27.04 C59.54,27.04 59.9,26.67 59.9,26.23 C59.9,25.79 59.54,25.42 59.09,25.42 M61.18,27.95 C61.46,27.95 61.68,27.72 61.68,27.45 C61.68,27.17 61.45,26.94 61.18,26.94 C60.9,26.94 60.67,27.17 60.67,27.45 C60.67,27.72 60.9,27.95 61.18,27.95 M61.18,19.39 C60.73,19.39 60.37,19.76 60.37,20.2 C60.37,20.65 60.74,21.02 61.18,21.02 C61.63,21.02 61.99,20.65 61.99,20.2 C61.99,19.75 61.63,19.39 61.18,19.39 M48.63,31.46 C48.18,31.46 47.82,31.83 47.82,32.27 C47.82,32.72 48.19,33.09 48.63,33.09 C49.08,33.09 49.44,32.72 49.44,32.27 C49.45,31.82 49.08,31.46 48.63,31.46 M48.63,21.8 C48.18,21.8 47.82,22.17 47.82,22.61 C47.82,23.06 48.19,23.42 48.63,23.42 C49.08,23.42 49.44,23.05 49.44,22.61 C49.45,22.17 49.08,21.8 48.63,21.8 M54.91,15.76 C54.46,15.76 54.1,16.13 54.1,16.57 C54.1,17.02 54.47,17.38 54.91,17.38 C55.36,17.38 55.72,17.02 55.72,16.57 C55.72,16.13 55.36,15.76 54.91,15.76 M48.63,16.97 C48.18,16.97 47.82,17.34 47.82,17.78 C47.82,18.23 48.19,18.6 48.63,18.6 C49.08,18.6 49.44,18.23 49.44,17.78 C49.45,17.34 49.08,16.97 48.63,16.97 M48.63,14.56 C48.18,14.56 47.82,14.93 47.82,15.37 C47.82,15.82 48.19,16.19 48.63,16.19 C49.08,16.19 49.44,15.82 49.44,15.37 C49.45,14.92 49.08,14.56 48.63,14.56 M48.63,29.04 C48.18,29.04 47.82,29.41 47.82,29.85 C47.82,30.3 48.19,30.67 48.63,30.67 C49.08,30.67 49.44,30.3 49.44,29.85 C49.45,29.41 49.08,29.04 48.63,29.04 M48.63,26.63 C48.18,26.63 47.82,27 47.82,27.44 C47.82,27.89 48.19,28.25 48.63,28.25 C49.08,28.25 49.44,27.89 49.44,27.44 C49.45,26.99 49.08,26.63 48.63,26.63 M48.63,24.21 C48.18,24.21 47.82,24.58 47.82,25.02 C47.82,25.47 48.19,25.83 48.63,25.83 C49.08,25.83 49.44,25.46 49.44,25.02 C49.45,24.58 49.08,24.21 48.63,24.21 M46.54,30.25 C46.09,30.25 45.73,30.62 45.73,31.06 C45.73,31.51 46.1,31.88 46.54,31.88 C46.99,31.88 47.35,31.51 47.35,31.06 C47.36,30.62 46.99,30.25 46.54,30.25 M46.54,32.67 C46.09,32.67 45.73,33.04 45.73,33.48 C45.73,33.93 46.1,34.29 46.54,34.29 C46.99,34.29 47.35,33.92 47.35,33.48 C47.36,33.03 46.99,32.67 46.54,32.67 M48.63,40.02 C48.91,40.02 49.13,39.79 49.13,39.51 C49.13,39.23 48.9,39 48.63,39 C48.35,39 48.12,39.23 48.12,39.51 C48.13,39.8 48.35,40.02 48.63,40.02 M46.54,27.84 C46.09,27.84 45.73,28.2 45.73,28.65 C45.73,29.1 46.1,29.46 46.54,29.46 C46.99,29.46 47.35,29.09 47.35,28.65 C47.36,28.2 46.99,27.84 46.54,27.84 M68.37,30.25 C67.92,30.25 67.56,30.62 67.56,31.06 C67.56,31.51 67.93,31.88 68.37,31.88 C68.82,31.88 69.18,31.51 69.18,31.06 C69.18,30.62 68.82,30.25 68.37,30.25 M46.54,35.08 C46.09,35.08 45.73,35.45 45.73,35.89 C45.73,36.34 46.1,36.7 46.54,36.7 C46.99,36.7 47.35,36.33 47.35,35.89 C47.36,35.45 46.99,35.08 46.54,35.08 M46.54,39.12 C46.99,39.12 47.35,38.76 47.35,38.31 C47.35,37.86 46.98,37.49 46.54,37.49 C46.09,37.49 45.73,37.86 45.73,38.31 C45.73,38.76 46.09,39.12 46.54,39.12 M48.63,19.39 C48.18,19.39 47.82,19.76 47.82,20.2 C47.82,20.65 48.19,21.02 48.63,21.02 C49.08,21.02 49.44,20.65 49.44,20.2 C49.45,19.75 49.08,19.39 48.63,19.39 M52.81,16.97 C52.36,16.97 52,17.34 52,17.78 C52,18.23 52.37,18.6 52.81,18.6 C53.26,18.6 53.62,18.23 53.62,17.78 C53.63,17.34 53.26,16.97 52.81,16.97 M52.81,19.39 C52.36,19.39 52,19.76 52,20.2 C52,20.65 52.37,21.02 52.81,21.02 C53.26,21.02 53.62,20.65 53.62,20.2 C53.63,19.75 53.26,19.39 52.81,19.39 M52.81,14.56 C52.36,14.56 52,14.93 52,15.37 C52,15.82 52.37,16.19 52.81,16.19 C53.26,16.19 53.62,15.82 53.62,15.37 C53.63,14.92 53.26,14.56 52.81,14.56 M50.72,31.88 C51.17,31.88 51.53,31.52 51.53,31.07 C51.53,30.62 51.16,30.26 50.72,30.26 C50.27,30.26 49.91,30.63 49.91,31.07 C49.91,31.52 50.28,31.88 50.72,31.88 M48.63,33.87 C48.18,33.87 47.82,34.24 47.82,34.69 C47.82,35.14 48.19,35.5 48.63,35.5 C49.08,35.5 49.44,35.13 49.44,34.69 C49.45,34.24 49.08,33.87 48.63,33.87 M52.81,26.63 C52.36,26.63 52,27 52,27.44 C52,27.89 52.37,28.25 52.81,28.25 C53.26,28.25 53.62,27.89 53.62,27.44 C53.63,26.99 53.26,26.63 52.81,26.63 M52.81,30.67 C53.26,30.67 53.62,30.3 53.62,29.86 C53.62,29.41 53.25,29.04 52.81,29.04 C52.36,29.04 52,29.41 52,29.86 C52,30.31 52.37,30.67 52.81,30.67 M50.72,18.18 C50.27,18.18 49.91,18.55 49.91,18.99 C49.91,19.44 50.28,19.81 50.72,19.81 C51.17,19.81 51.53,19.44 51.53,18.99 C51.54,18.54 51.17,18.18 50.72,18.18 M50.72,15.76 C50.27,15.76 49.91,16.13 49.91,16.57 C49.91,17.02 50.28,17.38 50.72,17.38 C51.17,17.38 51.53,17.02 51.53,16.57 C51.54,16.13 51.17,15.76 50.72,15.76 M48.63,36.29 C48.18,36.29 47.82,36.66 47.82,37.1 C47.82,37.55 48.19,37.92 48.63,37.92 C49.08,37.92 49.44,37.55 49.44,37.1 C49.45,36.65 49.08,36.29 48.63,36.29 M50.72,27.84 C50.27,27.84 49.91,28.2 49.91,28.65 C49.91,29.1 50.28,29.46 50.72,29.46 C51.17,29.46 51.53,29.09 51.53,28.65 C51.54,28.2 51.17,27.84 50.72,27.84 M59.09,20.59 C58.64,20.59 58.28,20.96 58.28,21.4 C58.28,21.84 58.65,22.21 59.09,22.21 C59.54,22.21 59.9,21.84 59.9,21.4 C59.9,20.96 59.54,20.59 59.09,20.59 M78.82,16.97 C78.37,16.97 78.01,17.34 78.01,17.78 C78.01,18.23 78.38,18.6 78.82,18.6 C79.27,18.6 79.63,18.23 79.63,17.78 C79.64,17.34 79.27,16.97 78.82,16.97 M78.82,19.39 C78.37,19.39 78.01,19.76 78.01,20.2 C78.01,20.65 78.38,21.02 78.82,21.02 C79.27,21.02 79.63,20.65 79.63,20.2 C79.64,19.75 79.27,19.39 78.82,19.39 M78.82,29.04 C78.37,29.04 78.01,29.41 78.01,29.85 C78.01,30.3 78.38,30.67 78.82,30.67 C79.27,30.67 79.63,30.3 79.63,29.85 C79.64,29.41 79.27,29.04 78.82,29.04 M78.82,26.63 C78.37,26.63 78.01,27 78.01,27.44 C78.01,27.89 78.38,28.25 78.82,28.25 C79.27,28.25 79.63,27.89 79.63,27.44 C79.64,26.99 79.27,26.63 78.82,26.63 M80.92,15.76 C80.47,15.76 80.11,16.13 80.11,16.57 C80.11,17.02 80.48,17.38 80.92,17.38 C81.37,17.38 81.73,17.02 81.73,16.57 C81.73,16.13 81.36,15.76 80.92,15.76 M80.92,20.59 C80.47,20.59 80.11,20.96 80.11,21.4 C80.11,21.84 80.48,22.21 80.92,22.21 C81.37,22.21 81.73,21.84 81.73,21.4 C81.73,20.96 81.36,20.59 80.92,20.59 M80.92,23.01 C80.47,23.01 80.11,23.38 80.11,23.82 C80.11,24.27 80.48,24.63 80.92,24.63 C81.37,24.63 81.73,24.26 81.73,23.82 C81.73,23.37 81.36,23.01 80.92,23.01 M80.92,18.18 C80.47,18.18 80.11,18.55 80.11,18.99 C80.11,19.44 80.48,19.81 80.92,19.81 C81.37,19.81 81.73,19.44 81.73,18.99 C81.73,18.54 81.36,18.18 80.92,18.18 M76.73,18.18 C76.28,18.18 75.92,18.55 75.92,18.99 C75.92,19.44 76.29,19.81 76.73,19.81 C77.18,19.81 77.54,19.44 77.54,18.99 C77.55,18.54 77.18,18.18 76.73,18.18 M78.82,14.87 C78.54,14.87 78.31,15.1 78.31,15.38 C78.31,15.66 78.54,15.89 78.82,15.89 C79.1,15.89 79.33,15.66 79.33,15.38 C79.33,15.09 79.1,14.87 78.82,14.87 M76.73,20.9 C76.45,20.9 76.22,21.13 76.22,21.41 C76.22,21.69 76.45,21.91 76.73,21.91 C77.01,21.91 77.24,21.68 77.24,21.41 C77.24,21.13 77.01,20.9 76.73,20.9 M76.73,25.73 C76.45,25.73 76.22,25.96 76.22,26.24 C76.22,26.52 76.45,26.75 76.73,26.75 C77.01,26.75 77.24,26.52 77.24,26.24 C77.24,25.96 77.01,25.73 76.73,25.73 M78.82,31.77 C78.54,31.77 78.31,32 78.31,32.28 C78.31,32.56 78.54,32.78 78.82,32.78 C79.1,32.78 79.33,32.55 79.33,32.28 C79.33,32.01 79.1,31.77 78.82,31.77 M76.73,15.76 C76.28,15.76 75.92,16.13 75.92,16.57 C75.92,17.02 76.29,17.38 76.73,17.38 C77.18,17.38 77.54,17.02 77.54,16.57 C77.55,16.13 77.18,15.76 76.73,15.76 M76.73,27.84 C76.28,27.84 75.92,28.2 75.92,28.65 C75.92,29.1 76.29,29.46 76.73,29.46 C77.18,29.46 77.54,29.09 77.54,28.65 C77.55,28.2 77.18,27.84 76.73,27.84 M76.73,31.88 C77.18,31.88 77.54,31.52 77.54,31.07 C77.54,30.62 77.17,30.26 76.73,30.26 C76.28,30.26 75.92,30.63 75.92,31.07 C75.92,31.52 76.28,31.88 76.73,31.88 M74.64,32.78 C74.92,32.78 75.15,32.55 75.15,32.28 C75.15,32 74.92,31.77 74.64,31.77 C74.36,31.77 74.13,32 74.13,32.28 C74.14,32.55 74.36,32.78 74.64,32.78 M85.1,18.49 C84.82,18.49 84.59,18.72 84.59,18.99 C84.59,19.27 84.82,19.5 85.1,19.5 C85.38,19.5 85.61,19.27 85.61,18.99 C85.6,18.71 85.38,18.49 85.1,18.49 M83.01,30.36 C83.29,30.36 83.52,30.13 83.52,29.85 C83.52,29.57 83.29,29.34 83.01,29.34 C82.73,29.34 82.5,29.57 82.5,29.85 C82.5,30.14 82.73,30.36 83.01,30.36 M80.92,31.57 C81.2,31.57 81.43,31.34 81.43,31.06 C81.43,30.78 81.2,30.55 80.92,30.55 C80.64,30.55 80.41,30.78 80.41,31.06 C80.41,31.34 80.64,31.57 80.92,31.57 M85.1,22.22 C85.55,22.22 85.91,21.85 85.91,21.41 C85.91,20.96 85.54,20.59 85.1,20.59 C84.65,20.59 84.29,20.96 84.29,21.41 C84.28,21.86 84.65,22.22 85.1,22.22 M85.1,25.42 C84.65,25.42 84.29,25.79 84.29,26.23 C84.29,26.67 84.66,27.04 85.1,27.04 C85.55,27.04 85.91,26.67 85.91,26.23 C85.91,25.79 85.55,25.42 85.1,25.42 M85.1,23.01 C84.65,23.01 84.29,23.38 84.29,23.82 C84.29,24.27 84.66,24.63 85.1,24.63 C85.55,24.63 85.91,24.26 85.91,23.82 C85.91,23.37 85.55,23.01 85.1,23.01 M83.01,26.63 C82.56,26.63 82.2,27 82.2,27.44 C82.2,27.89 82.57,28.25 83.01,28.25 C83.46,28.25 83.82,27.89 83.82,27.44 C83.82,26.99 83.46,26.63 83.01,26.63 M83.01,24.21 C82.56,24.21 82.2,24.58 82.2,25.02 C82.2,25.47 82.57,25.83 83.01,25.83 C83.46,25.83 83.82,25.46 83.82,25.02 C83.82,24.58 83.46,24.21 83.01,24.21 M80.92,27.84 C80.47,27.84 80.11,28.2 80.11,28.65 C80.11,29.1 80.48,29.46 80.92,29.46 C81.37,29.46 81.73,29.09 81.73,28.65 C81.73,28.2 81.36,27.84 80.92,27.84 M83.01,16.97 C82.56,16.97 82.2,17.34 82.2,17.78 C82.2,18.23 82.57,18.6 83.01,18.6 C83.46,18.6 83.82,18.23 83.82,17.78 C83.82,17.34 83.46,16.97 83.01,16.97 M83.01,21.8 C82.56,21.8 82.2,22.17 82.2,22.61 C82.2,23.06 82.57,23.42 83.01,23.42 C83.46,23.42 83.82,23.05 83.82,22.61 C83.82,22.17 83.46,21.8 83.01,21.8 M80.92,25.42 C80.47,25.42 80.11,25.79 80.11,26.23 C80.11,26.67 80.48,27.04 80.92,27.04 C81.37,27.04 81.73,26.67 81.73,26.23 C81.73,25.79 81.36,25.42 80.92,25.42 M83.01,19.39 C82.56,19.39 82.2,19.76 82.2,20.2 C82.2,20.65 82.57,21.02 83.01,21.02 C83.46,21.02 83.82,20.65 83.82,20.2 C83.82,19.75 83.46,19.39 83.01,19.39 M70.46,26.63 C70.01,26.63 69.65,27 69.65,27.44 C69.65,27.89 70.02,28.25 70.46,28.25 C70.91,28.25 71.27,27.89 71.27,27.44 C71.27,26.99 70.91,26.63 70.46,26.63 M68.37,32.67 C67.92,32.67 67.56,33.04 67.56,33.48 C67.56,33.93 67.93,34.29 68.37,34.29 C68.82,34.29 69.18,33.92 69.18,33.48 C69.18,33.03 68.82,32.67 68.37,32.67 M70.46,29.04 C70.01,29.04 69.65,29.41 69.65,29.85 C69.65,30.3 70.02,30.67 70.46,30.67 C70.91,30.67 71.27,30.3 71.27,29.85 C71.27,29.41 70.91,29.04 70.46,29.04 M74.64,29.04 C74.19,29.04 73.82,29.41 73.82,29.85 C73.82,30.3 74.19,30.67 74.64,30.67 C75.09,30.67 75.45,30.3 75.45,29.85 C75.46,29.41 75.09,29.04 74.64,29.04 M70.46,36.29 C70.01,36.29 69.65,36.66 69.65,37.1 C69.65,37.55 70.02,37.92 70.46,37.92 C70.91,37.92 71.27,37.55 71.27,37.1 C71.27,36.65 70.91,36.29 70.46,36.29 M70.46,31.46 C70.01,31.46 69.65,31.83 69.65,32.27 C69.65,32.72 70.02,33.09 70.46,33.09 C70.91,33.09 71.27,32.72 71.27,32.27 C71.27,31.82 70.91,31.46 70.46,31.46 M70.46,21.8 C70.01,21.8 69.65,22.17 69.65,22.61 C69.65,23.06 70.02,23.42 70.46,23.42 C70.91,23.42 71.27,23.05 71.27,22.61 C71.27,22.17 70.91,21.8 70.46,21.8 M70.46,33.87 C70.01,33.87 69.65,34.24 69.65,34.69 C69.65,35.14 70.02,35.5 70.46,35.5 C70.91,35.5 71.27,35.13 71.27,34.69 C71.27,34.24 70.91,33.87 70.46,33.87 M70.46,16.97 C70.01,16.97 69.65,17.34 69.65,17.78 C69.65,18.23 70.02,18.6 70.46,18.6 C70.91,18.6 71.27,18.23 71.27,17.78 C71.27,17.34 70.91,16.97 70.46,16.97 M70.46,40.02 C70.74,40.02 70.97,39.79 70.97,39.51 C70.97,39.23 70.74,39 70.46,39 C70.18,39 69.96,39.23 69.96,39.51 C69.95,39.8 70.18,40.02 70.46,40.02 M68.37,39.12 C68.82,39.12 69.18,38.76 69.18,38.31 C69.18,37.86 68.81,37.49 68.37,37.49 C67.92,37.49 67.56,37.86 67.56,38.31 C67.55,38.76 67.92,39.12 68.37,39.12 M68.37,35.08 C67.92,35.08 67.56,35.45 67.56,35.89 C67.56,36.34 67.93,36.7 68.37,36.7 C68.82,36.7 69.18,36.33 69.18,35.89 C69.18,35.45 68.82,35.08 68.37,35.08 M70.46,19.39 C70.01,19.39 69.65,19.76 69.65,20.2 C69.65,20.65 70.02,21.02 70.46,21.02 C70.91,21.02 71.27,20.65 71.27,20.2 C71.27,19.75 70.91,19.39 70.46,19.39 M70.46,14.56 C70.01,14.56 69.65,14.93 69.65,15.37 C69.65,15.82 70.02,16.19 70.46,16.19 C70.91,16.19 71.27,15.82 71.27,15.37 C71.27,14.92 70.91,14.56 70.46,14.56 M72.55,15.76 C72.1,15.76 71.74,16.13 71.74,16.57 C71.74,17.02 72.11,17.38 72.55,17.38 C73,17.38 73.36,17.02 73.36,16.57 C73.37,16.13 73,15.76 72.55,15.76 M70.46,24.21 C70.01,24.21 69.65,24.58 69.65,25.02 C69.65,25.47 70.02,25.83 70.46,25.83 C70.91,25.83 71.27,25.46 71.27,25.02 C71.27,24.58 70.91,24.21 70.46,24.21 M74.64,14.56 C74.19,14.56 73.82,14.93 73.82,15.37 C73.82,15.82 74.19,16.19 74.64,16.19 C75.09,16.19 75.45,15.82 75.45,15.37 C75.46,14.92 75.09,14.56 74.64,14.56 M74.64,16.97 C74.19,16.97 73.82,17.34 73.82,17.78 C73.82,18.23 74.19,18.6 74.64,18.6 C75.09,18.6 75.45,18.23 75.45,17.78 C75.46,17.34 75.09,16.97 74.64,16.97 M72.55,39.12 C73,39.12 73.36,38.76 73.36,38.31 C73.36,37.86 72.99,37.49 72.55,37.49 C72.1,37.49 71.74,37.86 71.74,38.31 C71.74,38.76 72.1,39.12 72.55,39.12 M74.64,26.63 C74.19,26.63 73.82,27 73.82,27.44 C73.82,27.89 74.19,28.25 74.64,28.25 C75.09,28.25 75.45,27.89 75.45,27.44 C75.46,26.99 75.09,26.63 74.64,26.63 M72.55,35.08 C72.1,35.08 71.74,35.45 71.74,35.89 C71.74,36.34 72.11,36.7 72.55,36.7 C73,36.7 73.36,36.33 73.36,35.89 C73.37,35.45 73,35.08 72.55,35.08 M74.64,19.39 C74.19,19.39 73.82,19.76 73.82,20.2 C73.82,20.65 74.19,21.02 74.64,21.02 C75.09,21.02 75.45,20.65 75.45,20.2 C75.46,19.75 75.09,19.39 74.64,19.39 M72.55,27.84 C72.1,27.84 71.74,28.2 71.74,28.65 C71.74,29.1 72.11,29.46 72.55,29.46 C73,29.46 73.36,29.09 73.36,28.65 C73.37,28.2 73,27.84 72.55,27.84 M72.55,25.42 C72.1,25.42 71.74,25.79 71.74,26.23 C71.74,26.67 72.11,27.04 72.55,27.04 C73,27.04 73.36,26.67 73.36,26.23 C73.36,25.79 73,25.42 72.55,25.42 M72.55,23.01 C72.1,23.01 71.74,23.38 71.74,23.82 C71.74,24.27 72.11,24.63 72.55,24.63 C73,24.63 73.36,24.26 73.36,23.82 C73.37,23.37 73,23.01 72.55,23.01 M72.55,20.59 C72.1,20.59 71.74,20.96 71.74,21.4 C71.74,21.84 72.11,22.21 72.55,22.21 C73,22.21 73.36,21.84 73.36,21.4 C73.36,20.96 73,20.59 72.55,20.59 M72.55,18.18 C72.1,18.18 71.74,18.55 71.74,18.99 C71.74,19.44 72.11,19.81 72.55,19.81 C73,19.81 73.36,19.44 73.36,18.99 C73.37,18.54 73,18.18 72.55,18.18 M72.55,30.25 C72.1,30.25 71.74,30.62 71.74,31.06 C71.74,31.51 72.11,31.88 72.55,31.88 C73,31.88 73.36,31.51 73.36,31.06 C73.37,30.62 73,30.25 72.55,30.25 M72.55,32.67 C72.1,32.67 71.74,33.04 71.74,33.48 C71.74,33.93 72.11,34.29 72.55,34.29 C73,34.29 73.36,33.92 73.36,33.48 C73.37,33.03 73,32.67 72.55,32.67 M39.09,16.07 C38.81,16.07 38.58,16.3 38.58,16.58 C38.58,16.86 38.81,17.09 39.09,17.09 C39.37,17.09 39.6,16.86 39.6,16.58 C39.59,16.3 39.36,16.07 39.09,16.07 M16.1,29.04 C15.65,29.04 15.29,29.41 15.29,29.85 C15.29,30.3 15.65,30.67 16.1,30.67 C16.55,30.67 16.91,30.3 16.91,29.85 C16.91,29.41 16.54,29.04 16.1,29.04 M16.1,26.63 C15.65,26.63 15.29,27 15.29,27.44 C15.29,27.89 15.65,28.25 16.1,28.25 C16.55,28.25 16.91,27.89 16.91,27.44 C16.91,26.99 16.54,26.63 16.1,26.63 M16.1,22.11 C15.82,22.11 15.59,22.34 15.59,22.61 C15.59,22.89 15.82,23.12 16.1,23.12 C16.38,23.12 16.6,22.89 16.6,22.61 C16.6,22.34 16.37,22.11 16.1,22.11 M16.1,24.21 C15.65,24.21 15.29,24.58 15.29,25.02 C15.29,25.47 15.65,25.83 16.1,25.83 C16.55,25.83 16.91,25.46 16.91,25.02 C16.91,24.58 16.54,24.21 16.1,24.21 M18.19,31.57 C18.47,31.57 18.7,31.34 18.7,31.06 C18.7,30.78 18.47,30.55 18.19,30.55 C17.91,30.55 17.68,30.78 17.68,31.06 C17.68,31.34 17.91,31.57 18.19,31.57 M16.1,31.46 C15.65,31.46 15.29,31.83 15.29,32.27 C15.29,32.72 15.65,33.09 16.1,33.09 C16.55,33.09 16.91,32.72 16.91,32.27 C16.91,31.82 16.54,31.46 16.1,31.46 M16.1,35.5 C16.55,35.5 16.91,35.14 16.91,34.69 C16.91,34.24 16.54,33.87 16.1,33.87 C15.65,33.87 15.29,34.24 15.29,34.69 C15.28,35.14 15.65,35.5 16.1,35.5 M14,39.12 C14.45,39.12 14.81,38.76 14.81,38.31 C14.81,37.86 14.44,37.49 14,37.49 C13.55,37.49 13.19,37.86 13.19,38.31 C13.19,38.76 13.56,39.12 14,39.12 M14,30.25 C13.55,30.25 13.19,30.62 13.19,31.06 C13.19,31.51 13.56,31.88 14,31.88 C14.45,31.88 14.81,31.51 14.81,31.06 C14.82,30.62 14.45,30.25 14,30.25 M11.91,33.87 C11.46,33.87 11.1,34.24 11.1,34.69 C11.1,35.14 11.47,35.5 11.91,35.5 C12.36,35.5 12.72,35.13 12.72,34.69 C12.73,34.24 12.36,33.87 11.91,33.87 M11.91,36.29 C11.46,36.29 11.1,36.66 11.1,37.1 C11.1,37.55 11.47,37.92 11.91,37.92 C12.36,37.92 12.72,37.55 12.72,37.1 C12.73,36.65 12.36,36.29 11.91,36.29 M14,27.84 C13.55,27.84 13.19,28.2 13.19,28.65 C13.19,29.1 13.56,29.46 14,29.46 C14.45,29.46 14.81,29.09 14.81,28.65 C14.82,28.2 14.45,27.84 14,27.84 M14,35.08 C13.55,35.08 13.19,35.45 13.19,35.89 C13.19,36.34 13.56,36.7 14,36.7 C14.45,36.7 14.81,36.33 14.81,35.89 C14.82,35.45 14.45,35.08 14,35.08 M14,32.67 C13.55,32.67 13.19,33.04 13.19,33.48 C13.19,33.93 13.56,34.29 14,34.29 C14.45,34.29 14.81,33.92 14.81,33.48 C14.82,33.03 14.45,32.67 14,32.67 M20.28,28.26 C20.73,28.26 21.09,27.9 21.09,27.45 C21.09,27 20.72,26.63 20.28,26.63 C19.83,26.63 19.47,27 19.47,27.45 C19.46,27.89 19.83,28.26 20.28,28.26 M20.28,24.21 C19.83,24.21 19.47,24.58 19.47,25.02 C19.47,25.47 19.84,25.83 20.28,25.83 C20.73,25.83 21.09,25.46 21.09,25.02 C21.09,24.58 20.73,24.21 20.28,24.21 M20.28,21.8 C19.83,21.8 19.47,22.17 19.47,22.61 C19.47,23.06 19.84,23.42 20.28,23.42 C20.73,23.42 21.09,23.05 21.09,22.61 C21.09,22.17 20.73,21.8 20.28,21.8 M20.28,19.39 C19.83,19.39 19.47,19.76 19.47,20.2 C19.47,20.65 19.84,21.02 20.28,21.02 C20.73,21.02 21.09,20.65 21.09,20.2 C21.09,19.75 20.73,19.39 20.28,19.39 M22.37,31.57 C22.65,31.57 22.88,31.34 22.88,31.06 C22.88,30.78 22.65,30.55 22.37,30.55 C22.09,30.55 21.87,30.78 21.87,31.06 C21.86,31.34 22.09,31.57 22.37,31.57 M22.37,18.18 C21.92,18.18 21.56,18.55 21.56,18.99 C21.56,19.44 21.92,19.81 22.37,19.81 C22.82,19.81 23.18,19.44 23.18,18.99 C23.18,18.54 22.82,18.18 22.37,18.18 M18.19,18.18 C17.74,18.18 17.38,18.55 17.38,18.99 C17.38,19.44 17.75,19.81 18.19,19.81 C18.64,19.81 19,19.44 19,18.99 C19,18.54 18.63,18.18 18.19,18.18 M20.28,16.97 C19.83,16.97 19.47,17.34 19.47,17.78 C19.47,18.23 19.84,18.6 20.28,18.6 C20.73,18.6 21.09,18.23 21.09,17.78 C21.09,17.34 20.73,16.97 20.28,16.97 M18.19,20.59 C17.74,20.59 17.38,20.96 17.38,21.4 C17.38,21.84 17.75,22.21 18.19,22.21 C18.64,22.21 19,21.84 19,21.4 C19,20.96 18.63,20.59 18.19,20.59 M18.19,25.42 C17.74,25.42 17.38,25.79 17.38,26.23 C17.38,26.67 17.75,27.04 18.19,27.04 C18.64,27.04 19,26.67 19,26.23 C19,25.79 18.63,25.42 18.19,25.42 M18.19,23.01 C17.74,23.01 17.38,23.38 17.38,23.82 C17.38,24.27 17.75,24.63 18.19,24.63 C18.64,24.63 19,24.26 19,23.82 C19,23.37 18.63,23.01 18.19,23.01 M18.19,27.84 C17.74,27.84 17.38,28.2 17.38,28.65 C17.38,29.1 17.75,29.46 18.19,29.46 C18.64,29.46 19,29.09 19,28.65 C19,28.2 18.63,27.84 18.19,27.84 M20.28,14.87 C20,14.87 19.78,15.1 19.78,15.38 C19.78,15.66 20.01,15.89 20.28,15.89 C20.56,15.89 20.79,15.66 20.79,15.38 C20.78,15.09 20.56,14.87 20.28,14.87 M18.19,16.07 C17.91,16.07 17.68,16.3 17.68,16.58 C17.68,16.86 17.91,17.08 18.19,17.08 C18.47,17.08 18.7,16.85 18.7,16.58 C18.69,16.3 18.46,16.07 18.19,16.07 M22.37,16.07 C22.09,16.07 21.87,16.3 21.87,16.58 C21.87,16.86 22.1,17.08 22.37,17.08 C22.65,17.08 22.88,16.85 22.88,16.58 C22.87,16.3 22.65,16.07 22.37,16.07 M5.68,19.81 C6.13,19.81 6.49,19.44 6.49,19 C6.49,18.55 6.12,18.18 5.68,18.18 C5.23,18.18 4.87,18.55 4.87,19 C4.87,19.44 5.23,19.81 5.68,19.81 M7.73,16.97 C7.28,16.97 6.92,17.34 6.92,17.78 C6.92,18.23 7.29,18.6 7.73,18.6 C8.18,18.6 8.54,18.23 8.54,17.78 C8.54,17.34 8.18,16.97 7.73,16.97 M7.73,19.39 C7.28,19.39 6.92,19.76 6.92,20.2 C6.92,20.65 7.29,21.02 7.73,21.02 C8.18,21.02 8.54,20.65 8.54,20.2 C8.54,19.75 8.18,19.39 7.73,19.39 M7.73,24.21 C7.28,24.21 6.92,24.58 6.92,25.02 C6.92,25.47 7.29,25.83 7.73,25.83 C8.18,25.83 8.54,25.46 8.54,25.02 C8.54,24.58 8.18,24.21 7.73,24.21 M7.73,21.8 C7.28,21.8 6.92,22.17 6.92,22.61 C6.92,23.06 7.29,23.42 7.73,23.42 C8.18,23.42 8.54,23.05 8.54,22.61 C8.54,22.17 8.18,21.8 7.73,21.8 M5.68,24.64 C6.13,24.64 6.49,24.27 6.49,23.83 C6.49,23.38 6.12,23.01 5.68,23.01 C5.23,23.01 4.87,23.38 4.87,23.83 C4.87,24.27 5.23,24.64 5.68,24.64 M22.37,20.59 C21.92,20.59 21.56,20.96 21.56,21.4 C21.56,21.84 21.92,22.21 22.37,22.21 C22.82,22.21 23.18,21.84 23.18,21.4 C23.18,20.96 22.82,20.59 22.37,20.59 M5.68,22.22 C6.13,22.22 6.49,21.85 6.49,21.41 C6.49,20.96 6.12,20.59 5.68,20.59 C5.23,20.59 4.87,20.96 4.87,21.41 C4.87,21.86 5.23,22.22 5.68,22.22 M7.73,14.56 C7.28,14.56 6.92,14.93 6.92,15.37 C6.92,15.82 7.29,16.19 7.73,16.19 C8.18,16.19 8.54,15.82 8.54,15.37 C8.54,14.92 8.18,14.56 7.73,14.56 M3.59,16.97 C3.14,16.97 2.78,17.34 2.78,17.78 C2.78,18.23 3.15,18.6 3.59,18.6 C4.04,18.6 4.4,18.23 4.4,17.78 C4.41,17.34 4.04,16.97 3.59,16.97 M3.59,14.56 C3.14,14.56 2.78,14.93 2.78,15.37 C2.78,15.82 3.15,16.19 3.59,16.19 C4.04,16.19 4.4,15.82 4.4,15.37 C4.41,14.92 4.04,14.56 3.59,14.56 M1.5,16.07 C1.22,16.07 0.99,16.3 0.99,16.58 C0.99,16.86 1.22,17.09 1.5,17.09 C1.78,17.09 2,16.86 2,16.58 C2.01,16.3 1.78,16.07 1.5,16.07 M3.59,19.39 C3.14,19.39 2.78,19.76 2.78,20.2 C2.78,20.65 3.15,21.02 3.59,21.02 C4.04,21.02 4.4,20.65 4.4,20.2 C4.41,19.75 4.04,19.39 3.59,19.39 M5.68,15.76 C5.23,15.76 4.87,16.13 4.87,16.57 C4.87,17.02 5.24,17.38 5.68,17.38 C6.13,17.38 6.49,17.02 6.49,16.57 C6.5,16.13 6.13,15.76 5.68,15.76 M7.73,30.36 C8.01,30.36 8.23,30.13 8.23,29.86 C8.23,29.58 8,29.35 7.73,29.35 C7.45,29.35 7.22,29.58 7.22,29.86 C7.22,30.14 7.45,30.36 7.73,30.36 M9.82,18.49 C9.54,18.49 9.31,18.72 9.31,18.99 C9.31,19.27 9.54,19.5 9.82,19.5 C10.1,19.5 10.32,19.27 10.32,18.99 C10.33,18.71 10.1,18.49 9.82,18.49 M11.91,40.02 C12.19,40.02 12.41,39.79 12.41,39.51 C12.41,39.23 12.18,39 11.91,39 C11.63,39 11.4,39.23 11.4,39.51 C11.41,39.8 11.63,40.02 11.91,40.02 M11.91,24.52 C11.63,24.52 11.4,24.75 11.4,25.03 C11.4,25.31 11.63,25.54 11.91,25.54 C12.19,25.54 12.41,25.31 12.41,25.03 C12.42,24.75 12.19,24.52 11.91,24.52 M11.91,22.11 C11.63,22.11 11.4,22.34 11.4,22.61 C11.4,22.89 11.63,23.12 11.91,23.12 C12.19,23.12 12.41,22.89 12.41,22.61 C12.42,22.34 12.19,22.11 11.91,22.11 M28.64,22.11 C28.36,22.11 28.13,22.34 28.13,22.61 C28.13,22.89 28.36,23.12 28.64,23.12 C28.92,23.12 29.14,22.89 29.14,22.61 C29.15,22.34 28.92,22.11 28.64,22.11 M14,25.73 C13.72,25.73 13.49,25.96 13.49,26.24 C13.49,26.52 13.72,26.75 14,26.75 C14.28,26.75 14.5,26.52 14.5,26.24 C14.51,25.96 14.28,25.73 14,25.73 M26.55,25.73 C26.27,25.73 26.05,25.96 26.05,26.24 C26.05,26.52 26.28,26.75 26.55,26.75 C26.83,26.75 27.06,26.52 27.06,26.24 C27.06,25.96 26.83,25.73 26.55,25.73 M9.82,30.25 C9.37,30.25 9.01,30.62 9.01,31.06 C9.01,31.51 9.38,31.88 9.82,31.88 C10.26,31.88 10.63,31.51 10.63,31.06 C10.64,30.62 10.27,30.25 9.82,30.25 M9.82,32.67 C9.37,32.67 9.01,33.04 9.01,33.48 C9.01,33.93 9.38,34.29 9.82,34.29 C10.26,34.29 10.63,33.92 10.63,33.48 C10.64,33.03 10.27,32.67 9.82,32.67 M7.73,26.63 C7.28,26.63 6.92,27 6.92,27.44 C6.92,27.89 7.29,28.25 7.73,28.25 C8.18,28.25 8.54,27.89 8.54,27.44 C8.54,26.99 8.18,26.63 7.73,26.63 M11.91,26.63 C11.46,26.63 11.1,27 11.1,27.44 C11.1,27.89 11.47,28.25 11.91,28.25 C12.36,28.25 12.72,27.89 12.72,27.44 C12.73,26.99 12.36,26.63 11.91,26.63 M11.91,29.04 C11.46,29.04 11.1,29.41 11.1,29.85 C11.1,30.3 11.47,30.67 11.91,30.67 C12.36,30.67 12.72,30.3 12.72,29.85 C12.73,29.41 12.36,29.04 11.91,29.04 M11.91,31.46 C11.46,31.46 11.1,31.83 11.1,32.27 C11.1,32.72 11.47,33.09 11.91,33.09 C12.36,33.09 12.72,32.72 12.72,32.27 C12.73,31.82 12.36,31.46 11.91,31.46 M9.82,20.59 C9.37,20.59 9.01,20.96 9.01,21.4 C9.01,21.84 9.38,22.21 9.82,22.21 C10.26,22.21 10.63,21.84 10.63,21.4 C10.63,20.96 10.27,20.59 9.82,20.59 M9.82,27.84 C9.37,27.84 9.01,28.2 9.01,28.65 C9.01,29.1 9.38,29.46 9.82,29.46 C10.26,29.46 10.63,29.09 10.63,28.65 C10.64,28.2 10.27,27.84 9.82,27.84 M9.82,36.4 C10.1,36.4 10.32,36.17 10.32,35.9 C10.32,35.62 10.09,35.39 9.82,35.39 C9.54,35.39 9.31,35.62 9.31,35.9 C9.32,36.17 9.54,36.4 9.82,36.4 M9.82,25.42 C9.37,25.42 9.01,25.79 9.01,26.23 C9.01,26.67 9.38,27.04 9.82,27.04 C10.26,27.04 10.63,26.67 10.63,26.23 C10.63,25.79 10.27,25.42 9.82,25.42 M9.82,23.01 C9.37,23.01 9.01,23.38 9.01,23.82 C9.01,24.27 9.38,24.63 9.82,24.63 C10.26,24.63 10.63,24.26 10.63,23.82 C10.64,23.37 10.27,23.01 9.82,23.01 M30.73,36.4 C31.01,36.4 31.24,36.17 31.24,35.9 C31.24,35.62 31.01,35.39 30.73,35.39 C30.45,35.39 30.22,35.62 30.22,35.9 C30.23,36.17 30.45,36.4 30.73,36.4 M34.92,20.59 C34.47,20.59 34.11,20.96 34.11,21.4 C34.11,21.84 34.48,22.21 34.92,22.21 C35.37,22.21 35.73,21.84 35.73,21.4 C35.73,20.96 35.36,20.59 34.92,20.59 M34.92,18.18 C34.47,18.18 34.11,18.55 34.11,18.99 C34.11,19.44 34.48,19.81 34.92,19.81 C35.37,19.81 35.73,19.44 35.73,18.99 C35.73,18.54 35.36,18.18 34.92,18.18 M34.92,24.64 C35.37,24.64 35.73,24.27 35.73,23.83 C35.73,23.38 35.36,23.01 34.92,23.01 C34.47,23.01 34.11,23.38 34.11,23.83 C34.1,24.27 34.47,24.64 34.92,24.64 M37.01,21.02 C37.46,21.02 37.82,20.65 37.82,20.21 C37.82,19.76 37.45,19.39 37.01,19.39 C36.56,19.39 36.2,19.76 36.2,20.21 C36.19,20.65 36.56,21.02 37.01,21.02 M34.92,15.76 C34.47,15.76 34.11,16.13 34.11,16.57 C34.11,17.02 34.48,17.38 34.92,17.38 C35.37,17.38 35.73,17.02 35.73,16.57 C35.73,16.13 35.36,15.76 34.92,15.76 M37.01,16.97 C36.56,16.97 36.2,17.34 36.2,17.78 C36.2,18.23 36.57,18.6 37.01,18.6 C37.46,18.6 37.82,18.23 37.82,17.78 C37.82,17.34 37.46,16.97 37.01,16.97 M37.01,14.56 C36.56,14.56 36.2,14.93 36.2,15.37 C36.2,15.82 36.57,16.19 37.01,16.19 C37.46,16.19 37.82,15.82 37.82,15.37 C37.82,14.92 37.46,14.56 37.01,14.56 M32.82,24.21 C32.37,24.21 32.01,24.58 32.01,25.02 C32.01,25.47 32.38,25.83 32.82,25.83 C33.27,25.83 33.63,25.46 33.63,25.02 C33.64,24.58 33.27,24.21 32.82,24.21 M32.82,19.39 C32.37,19.39 32.01,19.76 32.01,20.2 C32.01,20.65 32.38,21.02 32.82,21.02 C33.27,21.02 33.63,20.65 33.63,20.2 C33.64,19.75 33.27,19.39 32.82,19.39 M32.82,16.97 C32.37,16.97 32.01,17.34 32.01,17.78 C32.01,18.23 32.38,18.6 32.82,18.6 C33.27,18.6 33.63,18.23 33.63,17.78 C33.64,17.34 33.27,16.97 32.82,16.97 M32.82,14.56 C32.37,14.56 32.01,14.93 32.01,15.37 C32.01,15.82 32.38,16.19 32.82,16.19 C33.27,16.19 33.63,15.82 33.63,15.37 C33.64,14.92 33.27,14.56 32.82,14.56 M44.45,40.02 C44.73,40.02 44.96,39.79 44.96,39.51 C44.96,39.23 44.73,39 44.45,39 C44.17,39 43.94,39.23 43.94,39.51 C43.94,39.8 44.17,40.02 44.45,40.02 M32.82,30.36 C33.1,30.36 33.33,30.13 33.33,29.86 C33.33,29.58 33.1,29.35 32.82,29.35 C32.54,29.35 32.31,29.58 32.31,29.86 C32.32,30.14 32.55,30.36 32.82,30.36 M32.82,26.63 C32.37,26.63 32.01,27 32.01,27.44 C32.01,27.89 32.38,28.25 32.82,28.25 C33.27,28.25 33.63,27.89 33.63,27.44 C33.64,26.99 33.27,26.63 32.82,26.63 M32.82,21.8 C32.37,21.8 32.01,22.17 32.01,22.61 C32.01,23.06 32.38,23.42 32.82,23.42 C33.27,23.42 33.63,23.05 33.63,22.61 C33.64,22.17 33.27,21.8 32.82,21.8 M44.45,31.46 C44,31.46 43.64,31.83 43.64,32.27 C43.64,32.72 44.01,33.09 44.45,33.09 C44.9,33.09 45.26,32.72 45.26,32.27 C45.26,31.82 44.9,31.46 44.45,31.46 M44.45,36.29 C44,36.29 43.64,36.66 43.64,37.1 C43.64,37.55 44.01,37.92 44.45,37.92 C44.9,37.92 45.26,37.55 45.26,37.1 C45.26,36.65 44.9,36.29 44.45,36.29 M44.45,33.87 C44,33.87 43.64,34.24 43.64,34.69 C43.64,35.14 44.01,35.5 44.45,35.5 C44.9,35.5 45.26,35.13 45.26,34.69 C45.26,34.24 44.9,33.87 44.45,33.87 M46.54,15.76 C46.09,15.76 45.73,16.13 45.73,16.57 C45.73,17.02 46.1,17.38 46.54,17.38 C46.99,17.38 47.35,17.02 47.35,16.57 C47.36,16.13 46.99,15.76 46.54,15.76 M46.54,18.18 C46.09,18.18 45.73,18.55 45.73,18.99 C45.73,19.44 46.1,19.81 46.54,19.81 C46.99,19.81 47.35,19.44 47.35,18.99 C47.36,18.54 46.99,18.18 46.54,18.18 M46.54,20.59 C46.09,20.59 45.73,20.96 45.73,21.4 C45.73,21.84 46.1,22.21 46.54,22.21 C46.99,22.21 47.35,21.84 47.35,21.4 C47.35,20.96 46.99,20.59 46.54,20.59 M44.45,24.21 C44,24.21 43.64,24.58 43.64,25.02 C43.64,25.47 44.01,25.83 44.45,25.83 C44.9,25.83 45.26,25.46 45.26,25.02 C45.26,24.58 44.9,24.21 44.45,24.21 M44.45,29.04 C44,29.04 43.64,29.41 43.64,29.85 C43.64,30.3 44.01,30.67 44.45,30.67 C44.9,30.67 45.26,30.3 45.26,29.85 C45.26,29.41 44.9,29.04 44.45,29.04 M44.45,21.8 C44,21.8 43.64,22.17 43.64,22.61 C43.64,23.06 44.01,23.42 44.45,23.42 C44.9,23.42 45.26,23.05 45.26,22.61 C45.26,22.17 44.9,21.8 44.45,21.8 M44.45,16.97 C44,16.97 43.64,17.34 43.64,17.78 C43.64,18.23 44.01,18.6 44.45,18.6 C44.9,18.6 45.26,18.23 45.26,17.78 C45.26,17.34 44.9,16.97 44.45,16.97 M44.45,19.39 C44,19.39 43.64,19.76 43.64,20.2 C43.64,20.65 44.01,21.02 44.45,21.02 C44.9,21.02 45.26,20.65 45.26,20.2 C45.26,19.75 44.9,19.39 44.45,19.39 M44.45,14.56 C44,14.56 43.64,14.93 43.64,15.37 C43.64,15.82 44.01,16.19 44.45,16.19 C44.9,16.19 45.26,15.82 45.26,15.37 C45.26,14.92 44.9,14.56 44.45,14.56 M44.45,26.63 C44,26.63 43.64,27 43.64,27.44 C43.64,27.89 44.01,28.25 44.45,28.25 C44.9,28.25 45.26,27.89 45.26,27.44 C45.26,26.99 44.9,26.63 44.45,26.63 M22.37,23.01 C21.92,23.01 21.56,23.38 21.56,23.82 C21.56,24.27 21.92,24.63 22.37,24.63 C22.82,24.63 23.18,24.26 23.18,23.82 C23.18,23.37 22.82,23.01 22.37,23.01 M26.55,27.84 C26.1,27.84 25.74,28.2 25.74,28.65 C25.74,29.1 26.11,29.46 26.55,29.46 C27,29.46 27.36,29.09 27.36,28.65 C27.37,28.2 27,27.84 26.55,27.84 M24.46,31.46 C24.01,31.46 23.65,31.83 23.65,32.27 C23.65,32.72 24.02,33.09 24.46,33.09 C24.91,33.09 25.27,32.72 25.27,32.27 C25.27,31.82 24.91,31.46 24.46,31.46 M28.64,40.02 C28.92,40.02 29.15,39.79 29.15,39.51 C29.15,39.23 28.92,39 28.64,39 C28.36,39 28.14,39.23 28.14,39.51 C28.14,39.8 28.36,40.02 28.64,40.02 M26.55,30.25 C26.1,30.25 25.74,30.62 25.74,31.06 C25.74,31.51 26.11,31.88 26.55,31.88 C27,31.88 27.36,31.51 27.36,31.06 C27.37,30.62 27,30.25 26.55,30.25 M26.55,39.12 C27,39.12 27.36,38.76 27.36,38.31 C27.36,37.86 26.99,37.49 26.55,37.49 C26.1,37.49 25.74,37.86 25.74,38.31 C25.74,38.76 26.1,39.12 26.55,39.12 M26.55,32.67 C26.1,32.67 25.74,33.04 25.74,33.48 C25.74,33.93 26.11,34.29 26.55,34.29 C27,34.29 27.36,33.92 27.36,33.48 C27.37,33.03 27,32.67 26.55,32.67 M26.55,35.08 C26.1,35.08 25.74,35.45 25.74,35.89 C25.74,36.34 26.11,36.7 26.55,36.7 C27,36.7 27.36,36.33 27.36,35.89 C27.37,35.45 27,35.08 26.55,35.08 M24.46,35.5 C24.91,35.5 25.27,35.14 25.27,34.69 C25.27,34.24 24.9,33.87 24.46,33.87 C24.01,33.87 23.65,34.24 23.65,34.69 C23.65,35.14 24.01,35.5 24.46,35.5 M24.46,22.11 C24.18,22.11 23.95,22.34 23.95,22.61 C23.95,22.89 24.18,23.12 24.46,23.12 C24.74,23.12 24.97,22.89 24.97,22.61 C24.96,22.34 24.74,22.11 24.46,22.11 M22.37,27.84 C21.92,27.84 21.56,28.2 21.56,28.65 C21.56,29.1 21.92,29.46 22.37,29.46 C22.82,29.46 23.18,29.09 23.18,28.65 C23.18,28.2 22.82,27.84 22.37,27.84 M22.37,25.42 C21.92,25.42 21.56,25.79 21.56,26.23 C21.56,26.67 21.92,27.04 22.37,27.04 C22.82,27.04 23.18,26.67 23.18,26.23 C23.18,25.79 22.82,25.42 22.37,25.42 M24.46,29.04 C24.01,29.04 23.65,29.41 23.65,29.85 C23.65,30.3 24.02,30.67 24.46,30.67 C24.91,30.67 25.27,30.3 25.27,29.85 C25.27,29.41 24.91,29.04 24.46,29.04 M24.46,24.21 C24.01,24.21 23.65,24.58 23.65,25.02 C23.65,25.47 24.02,25.83 24.46,25.83 C24.91,25.83 25.27,25.46 25.27,25.02 C25.27,24.58 24.91,24.21 24.46,24.21 M24.46,26.63 C24.01,26.63 23.65,27 23.65,27.44 C23.65,27.89 24.02,28.25 24.46,28.25 C24.91,28.25 25.27,27.89 25.27,27.44 C25.27,26.99 24.91,26.63 24.46,26.63 M30.73,25.42 C30.28,25.42 29.92,25.79 29.92,26.23 C29.92,26.67 30.29,27.04 30.73,27.04 C31.18,27.04 31.54,26.67 31.54,26.23 C31.54,25.79 31.18,25.42 30.73,25.42 M30.73,23.01 C30.28,23.01 29.92,23.38 29.92,23.82 C29.92,24.27 30.29,24.63 30.73,24.63 C31.18,24.63 31.54,24.26 31.54,23.82 C31.55,23.37 31.18,23.01 30.73,23.01 M30.73,32.67 C30.28,32.67 29.92,33.04 29.92,33.48 C29.92,33.93 30.29,34.29 30.73,34.29 C31.18,34.29 31.54,33.92 31.54,33.48 C31.55,33.03 31.18,32.67 30.73,32.67 M28.64,24.52 C28.36,24.52 28.14,24.75 28.14,25.03 C28.14,25.31 28.37,25.54 28.64,25.54 C28.92,25.54 29.15,25.31 29.15,25.03 C29.15,24.75 28.92,24.52 28.64,24.52 M30.73,30.25 C30.28,30.25 29.92,30.62 29.92,31.06 C29.92,31.51 30.29,31.88 30.73,31.88 C31.18,31.88 31.54,31.51 31.54,31.06 C31.55,30.62 31.18,30.25 30.73,30.25 M30.73,27.84 C30.28,27.84 29.92,28.2 29.92,28.65 C29.92,29.1 30.29,29.46 30.73,29.46 C31.18,29.46 31.54,29.09 31.54,28.65 C31.55,28.2 31.18,27.84 30.73,27.84 M30.73,18.49 C30.45,18.49 30.22,18.72 30.22,18.99 C30.22,19.27 30.45,19.5 30.73,19.5 C31.01,19.5 31.24,19.27 31.24,18.99 C31.24,18.71 31.01,18.49 30.73,18.49 M30.73,20.59 C30.28,20.59 29.92,20.96 29.92,21.4 C29.92,21.84 30.29,22.21 30.73,22.21 C31.18,22.21 31.54,21.84 31.54,21.4 C31.54,20.96 31.18,20.59 30.73,20.59 M28.64,29.04 C28.19,29.04 27.83,29.41 27.83,29.85 C27.83,30.3 28.2,30.67 28.64,30.67 C29.09,30.67 29.45,30.3 29.45,29.85 C29.46,29.41 29.09,29.04 28.64,29.04 M28.64,26.63 C28.19,26.63 27.83,27 27.83,27.44 C27.83,27.89 28.2,28.25 28.64,28.25 C29.09,28.25 29.45,27.89 29.45,27.44 C29.46,26.99 29.09,26.63 28.64,26.63 M28.64,31.46 C28.19,31.46 27.83,31.83 27.83,32.27 C27.83,32.72 28.2,33.09 28.64,33.09 C29.09,33.09 29.45,32.72 29.45,32.27 C29.46,31.82 29.09,31.46 28.64,31.46 M46.54,23.01 C46.09,23.01 45.73,23.38 45.73,23.82 C45.73,24.27 46.1,24.63 46.54,24.63 C46.99,24.63 47.35,24.26 47.35,23.82 C47.36,23.37 46.99,23.01 46.54,23.01 M28.64,33.87 C28.19,33.87 27.83,34.24 27.83,34.69 C27.83,35.14 28.2,35.5 28.64,35.5 C29.09,35.5 29.45,35.13 29.45,34.69 C29.46,34.24 29.09,33.87 28.64,33.87 M28.64,36.29 C28.19,36.29 27.83,36.66 27.83,37.1 C27.83,37.55 28.2,37.92 28.64,37.92 C29.09,37.92 29.45,37.55 29.45,37.1 C29.46,36.65 29.09,36.29 28.64,36.29 M114.66,37.3 L114.66,39.2 L106.24,39.2 L106.24,38.64 L111.4,30.81 L106.91,30.81 L106.91,28.91 L114.65,28.91 L114.65,29.47 L109.49,37.3 L114.66,37.3 Z M103.82,28.91 L103.82,39.39 L103.12,39.39 L97.16,33.03 L97.16,39.21 L95.05,39.21 L95.05,28.72 L95.74,28.72 L101.71,35.05 L101.71,28.91 L103.82,28.91 L103.82,28.91 Z M110.46,25.82 C107.95,25.82 106.09,24.14 106.09,21.38 L106.09,15.34 L108.2,15.34 L108.2,21.53 C108.2,23.07 109.18,23.87 110.46,23.87 C111.75,23.87 112.72,23.07 112.72,21.53 L112.72,15.34 L114.83,15.34 L114.83,21.38 C114.83,24.13 112.96,25.82 110.46,25.82 M99.48,19.08 L98.11,22.56 L100.85,22.56 L99.48,19.08 Z M101.59,24.29 L97.38,24.29 L96.8,25.63 L94.54,25.63 L99.14,15.15 L99.84,15.15 L104.43,25.63 L102.17,25.63 L101.59,24.29 Z M130.34,21.23 L131.37,21.23 L128.75,15.2 L128.43,15.2 L125.81,21.23 L126.83,21.23 L127.25,20.24 L129.92,20.24 L130.34,21.23 Z M129.57,19.42 L127.58,19.42 L128.58,16.96 L129.57,19.42 Z M137.13,21.33 C138.25,21.33 139.18,20.79 139.68,19.96 L138.96,19.43 C138.55,20.07 137.93,20.46 137.14,20.46 C135.92,20.46 135,19.53 135,18.27 C135,17 135.92,16.08 137.14,16.08 C137.93,16.08 138.54,16.47 138.96,17.11 L139.68,16.58 C139.18,15.75 138.25,15.21 137.13,15.21 C135.39,15.21 134.01,16.54 134.01,18.28 C134.01,20.01 135.4,21.33 137.13,21.33 M145.64,21.23 L143.86,18.78 C144.57,18.51 145,17.89 145,17.11 C145,16.03 144.19,15.29 142.99,15.29 L140.82,15.29 L140.82,21.22 L141.77,21.22 L141.77,18.93 L142.86,18.93 L144.55,21.22 L145.64,21.22 L145.64,21.23 Z M141.77,16.14 L142.97,16.14 C143.64,16.14 144.02,16.54 144.02,17.12 C144.02,17.69 143.64,18.09 142.97,18.09 L141.77,18.09 L141.77,16.14 Z M146.48,21.23 L150.49,21.23 L150.49,20.38 L147.43,20.38 L147.43,18.5 L149.65,18.5 L149.65,17.67 L147.43,17.67 L147.43,16.15 L150.38,16.15 L150.38,15.3 L146.48,15.3 L146.48,21.23 L146.48,21.23 Z M155.58,21.23 L156.61,21.23 L153.99,15.2 L153.67,15.2 L151.05,21.23 L152.07,21.23 L152.49,20.24 L155.16,20.24 L155.58,21.23 Z M154.82,19.42 L152.83,19.42 L153.83,16.96 L154.82,19.42 Z M158.27,21.23 L159.22,21.23 L159.22,16.15 L161.23,16.15 L161.23,15.3 L156.28,15.3 L156.28,16.15 L158.28,16.15 L158.28,21.23 L158.27,21.23 Z M162.11,21.23 L163.06,21.23 L163.06,15.3 L162.11,15.3 L162.11,21.23 Z M168.5,15.3 L166.79,19.43 L165.08,15.3 L164.01,15.3 L166.63,21.33 L166.95,21.33 L169.57,15.3 L168.5,15.3 Z M170.51,21.23 L174.52,21.23 L174.52,20.38 L171.46,20.38 L171.46,18.5 L173.68,18.5 L173.68,17.67 L171.46,17.67 L171.46,16.15 L174.41,16.15 L174.41,15.3 L170.51,15.3 L170.51,21.23 L170.51,21.23 Z M127.75,30.22 L128.7,30.22 L128.7,25.14 L130.71,25.14 L130.71,24.29 L125.76,24.29 L125.76,25.14 L127.76,25.14 L127.76,30.22 L127.75,30.22 Z M136.41,30.22 L134.63,27.77 C135.34,27.5 135.77,26.88 135.77,26.1 C135.77,25.02 134.96,24.28 133.76,24.28 L131.59,24.28 L131.59,30.21 L132.54,30.21 L132.54,27.92 L133.63,27.92 L135.32,30.21 L136.41,30.21 L136.41,30.22 Z M132.55,25.13 L133.75,25.13 C134.42,25.13 134.8,25.53 134.8,26.11 C134.8,26.68 134.42,27.08 133.75,27.08 L132.55,27.08 L132.55,25.13 Z M141.25,30.22 L142.28,30.22 L139.66,24.19 L139.34,24.19 L136.72,30.22 L137.74,30.22 L138.16,29.23 L140.83,29.23 L141.25,30.22 Z M140.48,28.41 L138.49,28.41 L139.49,25.95 L140.48,28.41 Z M147.15,24.28 L147.15,28.28 L143.54,24.18 L143.21,24.18 L143.21,30.21 L144.16,30.21 L144.16,26.2 L147.78,30.32 L148.1,30.32 L148.1,24.29 L147.15,24.29 L147.15,24.28 Z M151.42,30.32 C152.55,30.32 153.41,29.65 153.41,28.6 C153.41,27.78 152.89,27.32 151.99,26.91 L151.32,26.6 C150.83,26.37 150.49,26.2 150.49,25.76 C150.49,25.27 150.91,25.04 151.39,25.04 C151.9,25.04 152.33,25.3 152.64,25.76 L153.31,25.25 C152.95,24.64 152.27,24.19 151.39,24.19 C150.37,24.19 149.52,24.82 149.52,25.8 C149.52,26.67 150.19,27.11 150.9,27.45 L151.56,27.76 C152.08,28 152.43,28.18 152.43,28.65 C152.43,29.16 152.02,29.48 151.4,29.48 C150.66,29.48 150.19,29.03 149.84,28.53 L149.17,29.04 C149.63,29.81 150.43,30.32 151.42,30.32 M154.63,30.22 L155.58,30.22 L155.58,27.77 L157.94,27.77 L157.94,26.91 L155.58,26.91 L155.58,25.14 L158.44,25.14 L158.44,24.29 L154.63,24.29 L154.63,30.22 Z M162.09,30.32 C163.81,30.32 165.21,29 165.21,27.25 C165.21,25.51 163.81,24.18 162.09,24.18 C160.36,24.18 158.98,25.51 158.98,27.25 C158.98,28.99 160.35,30.32 162.09,30.32 M162.1,29.44 C160.87,29.44 159.97,28.51 159.97,27.24 C159.97,25.98 160.87,25.05 162.1,25.05 C163.31,25.05 164.23,25.99 164.23,27.24 C164.23,28.52 163.31,29.44 162.1,29.44 M171.17,30.22 L169.39,27.77 C170.1,27.5 170.53,26.88 170.53,26.1 C170.53,25.02 169.72,24.28 168.52,24.28 L166.35,24.28 L166.35,30.21 L167.3,30.21 L167.3,27.92 L168.39,27.92 L170.08,30.21 L171.17,30.21 L171.17,30.22 Z M167.3,25.13 L168.5,25.13 C169.17,25.13 169.55,25.53 169.55,26.11 C169.55,26.68 169.17,27.08 168.5,27.08 L167.3,27.08 L167.3,25.13 Z M177.33,24.18 L174.84,27.5 L172.35,24.18 L172.02,24.18 L172.02,30.21 L172.97,30.21 L172.97,26.48 L174.68,28.72 L175,28.72 L176.7,26.49 L176.7,30.21 L177.65,30.21 L177.65,24.18 L177.33,24.18 Z M183.12,30.22 L184.15,30.22 L181.53,24.19 L181.21,24.19 L178.59,30.22 L179.61,30.22 L180.03,29.23 L182.7,29.23 L183.12,30.22 Z M182.36,28.41 L180.37,28.41 L181.37,25.95 L182.36,28.41 Z M185.81,30.22 L186.76,30.22 L186.76,25.14 L188.77,25.14 L188.77,24.29 L183.82,24.29 L183.82,25.14 L185.82,25.14 L185.82,30.22 L185.81,30.22 Z M189.66,30.22 L190.61,30.22 L190.61,24.29 L189.66,24.29 L189.66,30.22 Z M194.85,30.32 C196.57,30.32 197.97,29 197.97,27.25 C197.97,25.51 196.57,24.18 194.85,24.18 C193.12,24.18 191.74,25.51 191.74,27.25 C191.74,28.99 193.12,30.32 194.85,30.32 M194.86,29.44 C193.63,29.44 192.73,28.51 192.73,27.24 C192.73,25.98 193.63,25.05 194.86,25.05 C196.07,25.05 196.99,25.99 196.99,27.24 C196.99,28.52 196.07,29.44 194.86,29.44 M203.05,24.28 L203.05,28.28 L199.44,24.18 L199.11,24.18 L199.11,30.21 L200.06,30.21 L200.06,26.2 L203.68,30.32 L204,30.32 L204,24.29 L203.05,24.29 L203.05,24.28 Z M129.12,39.3 C130.24,39.3 131.17,38.76 131.67,37.93 L130.95,37.4 C130.54,38.04 129.92,38.43 129.13,38.43 C127.91,38.43 126.99,37.5 126.99,36.24 C126.99,34.97 127.91,34.05 129.13,34.05 C129.92,34.05 130.53,34.44 130.95,35.08 L131.67,34.55 C131.17,33.72 130.24,33.18 129.12,33.18 C127.39,33.18 126,34.51 126,36.25 C126,37.98 127.38,39.3 129.12,39.3 M135.51,39.3 C137.23,39.3 138.63,37.98 138.63,36.23 C138.63,34.49 137.23,33.16 135.51,33.16 C133.78,33.16 132.399946,34.49 132.399946,36.23 C132.39,37.97 133.77,39.3 135.51,39.3 M135.52,38.43 C134.29,38.43 133.39,37.5 133.39,36.23 C133.39,34.97 134.29,34.05 135.52,34.05 C136.73,34.05 137.65,34.99 137.65,36.23 C137.65,37.5 136.73,38.43 135.52,38.43 M145.08,33.17 L142.59,36.49 L140.1,33.17 L139.77,33.17 L139.77,39.2 L140.72,39.2 L140.72,35.47 L142.43,37.71 L142.75,37.71 L144.45,35.48 L144.45,39.2 L145.4,39.2 L145.4,33.17 L145.08,33.17 L145.08,33.17 Z M146.89,39.2 L147.84,39.2 L147.84,36.91 L149.05,36.91 C150.26,36.91 151.07,36.16 151.07,35.08 C151.07,34 150.26,33.26 149.05,33.26 L146.88,33.26 L146.88,39.2 L146.89,39.2 Z M147.84,36.07 L147.84,34.12 L149.04,34.12 C149.72,34.12 150.09,34.52 150.09,35.1 C150.09,35.67 149.72,36.07 149.04,36.07 L147.84,36.07 L147.84,36.07 Z M155.39,39.2 L156.42,39.2 L153.8,33.17 L153.48,33.17 L150.86,39.2 L151.88,39.2 L152.3,38.21 L154.97,38.21 L155.39,39.2 Z M154.63,37.4 L152.64,37.4 L153.64,34.94 L154.63,37.4 Z M161.3,33.27 L161.3,37.27 L157.69,33.17 L157.36,33.17 L157.36,39.2 L158.31,39.2 L158.31,35.18 L161.93,39.3 L162.25,39.3 L162.25,33.27 L161.3,33.27 Z M168.32,33.27 L167.27,33.27 L165.79,35.85 L164.32,33.27 L163.26,33.27 L165.31,36.81 L165.31,39.2 L166.26,39.2 L166.26,36.81 L168.32,33.27 Z" id="Shape"></path>
        </g>
    </g>
</svg>