<svg id="Group_4" data-name="Group 4" xmlns="http://www.w3.org/2000/svg" width="29.96" height="28.598" viewBox="0 0 29.96 28.598">
  <g id="Group_1" data-name="Group 1" transform="translate(0 0)">
    <path id="Path_2" data-name="Path 2" d="M1731.376,432.426H1719.9a9.251,9.251,0,0,1-9.24-9.241V413.068a9.251,9.251,0,0,1,9.24-9.24h11.48a9.25,9.25,0,0,1,9.24,9.24v10.116A9.251,9.251,0,0,1,1731.376,432.426Zm-11.48-26.544a7.2,7.2,0,0,0-7.187,7.187v10.116a7.2,7.2,0,0,0,7.187,7.187h11.48a7.2,7.2,0,0,0,7.187-7.187V413.068a7.2,7.2,0,0,0-7.187-7.187Z" transform="translate(-1710.655 -403.828)" fill="#322a81"/>
  </g>
  <g id="Group_2" data-name="Group 2" transform="translate(6.756 6.074)">
    <path id="Path_3" data-name="Path 3" d="M1744.476,443.291a8.225,8.225,0,1,1,8.226-8.225A8.235,8.235,0,0,1,1744.476,443.291Zm0-14.4a6.172,6.172,0,1,0,6.172,6.172A6.179,6.179,0,0,0,1744.476,428.893Z" transform="translate(-1736.251 -426.84)" fill="#322a81"/>
  </g>
  <g id="Group_3" data-name="Group 3" transform="translate(21.373 4.619)">
    <path id="Path_4" data-name="Path 4" d="M1795.049,423.037a1.707,1.707,0,1,1-1.706-1.707A1.706,1.706,0,0,1,1795.049,423.037Z" transform="translate(-1791.635 -421.33)" fill="#322a81"/>
  </g>
</svg>
