<svg xmlns="http://www.w3.org/2000/svg" width="47.501" height="45.5" viewBox="0 0 47.501 45.5">
  <g id="Group_78" data-name="Group 78" transform="translate(-211.25 -284.242)">
    <path id="Path_208" data-name="Path 208" d="M212,306.742h15a.75.75,0,0,0,.75-.75v-.25H231a.739.739,0,0,0,.723-.617c2.03.517,4.172,1.336,4.606,2.2a16.575,16.575,0,0,0,2.168,3.047,7.293,7.293,0,0,1,1.753,4.726v2.892a2.672,2.672,0,0,0,2.75,2.75c2.348,0,3.75-2.9,3.75-7.75a26.3,26.3,0,0,0-.442-4.773,1.245,1.245,0,0,1,1.227-1.477H255.5a3.253,3.253,0,0,0,2.7-1.437,3.3,3.3,0,0,0,.289-3.129,3,3,0,0,0-.929-1.223,3.46,3.46,0,0,0,.288-.28,3.2,3.2,0,0,0-.96-5.046,3.2,3.2,0,0,0-1-5,3.263,3.263,0,0,0,.783-2.467,3.357,3.357,0,0,0-3.376-2.918H239.016a10.673,10.673,0,0,0-6.236,2h-1.03v-.25a.75.75,0,0,0-.75-.75h-3.367a2.746,2.746,0,0,0-2.633-2H212a.75.75,0,0,0-.75.75v21A.75.75,0,0,0,212,306.742Zm19.75-3.16v-14.84h1.123a.729.729,0,0,0,.14.013.721.721,0,0,0,.438-.146,9.2,9.2,0,0,1,5.565-1.867h14.277a1.847,1.847,0,0,1,1.884,1.567,1.752,1.752,0,0,1-1.742,1.933.75.75,0,0,0,0,1.5h.858a1.847,1.847,0,0,1,1.884,1.567,1.752,1.752,0,0,1-1.742,1.933.75.75,0,0,0,0,1.5h.858a1.847,1.847,0,0,1,1.884,1.567,1.752,1.752,0,0,1-1.742,1.933.75.75,0,0,0,0,1.5,1.739,1.739,0,0,1,1.662,1,1.8,1.8,0,0,1-.143,1.727,1.756,1.756,0,0,1-1.458.775h-7.961a2.746,2.746,0,0,0-2.7,3.25,24.914,24.914,0,0,1,.417,4.5c0,3.738-.9,6.25-2.25,6.25a1.181,1.181,0,0,1-1.25-1.258V315.1a8.8,8.8,0,0,0-2.111-5.7,15.341,15.341,0,0,1-1.968-2.743C236.855,305.026,233.769,304.057,231.75,303.582Zm-5.5-16.34v18h-13.5v-19.5H225a1.252,1.252,0,0,1,1.25,1.25Zm4,.75v16.25h-2.5v-16.5h2.5Z" fill="#2d7f84"/>
    <path id="Path_209" data-name="Path 209" d="M223,290.742a.75.75,0,0,1-.75-.75v-1a.719.719,0,0,1,.051-.25.75.75,0,0,1,1.449.25v1A.75.75,0,0,1,223,290.742Z" fill="#2d7f84"/>
    <path id="Path_210" data-name="Path 210" d="M236.75,319.992a9.75,9.75,0,1,0-9.75,9.75A9.761,9.761,0,0,0,236.75,319.992Zm-9.75-8.25a8.25,8.25,0,1,1-8.25,8.25A8.259,8.259,0,0,1,227,311.742Z" fill="#2d7f84"/>
    <path id="Path_211" data-name="Path 211" d="M227,323.313c-.948,0-1.75-.573-1.75-1.25a.75.75,0,0,0-1.5,0,2.892,2.892,0,0,0,2.5,2.668v.4a.75.75,0,0,0,1.5,0v-.4a2.892,2.892,0,0,0,2.5-2.668c0-1.508-1.579-2.14-2.972-2.7-.9-.361-2.028-.811-2.028-1.3,0-.678.8-1.25,1.75-1.25s1.75.572,1.75,1.25a.75.75,0,0,0,1.5,0,2.892,2.892,0,0,0-2.5-2.669v-.4a.75.75,0,0,0-1.5,0v.4a2.892,2.892,0,0,0-2.5,2.669c0,1.507,1.579,2.139,2.972,2.7.9.361,2.028.811,2.028,1.3C228.75,322.74,227.948,323.313,227,323.313Z" fill="#2d7f84"/>
  </g>
</svg>
