<svg xmlns="http://www.w3.org/2000/svg" width="43.816" height="45.382" viewBox="0 0 43.816 45.382">
  <g id="Group_74" data-name="Group 74" transform="translate(-223.59 -217.959)">
    <path id="Path_176" data-name="Path 176" d="M232.63,260.872a.886.886,0,1,1-.886-.886.887.887,0,0,1,.886.886Zm0,0" transform="translate(-1.187 -6.865)" fill="#2d7f84"/>
    <path id="Path_177" data-name="Path 177" d="M273.2,248.239a.886.886,0,1,1-.887-.887.887.887,0,0,1,.887.887Zm0,0" transform="translate(-7.815 -4.801)" fill="#2d7f84"/>
    <g id="Group_73" data-name="Group 73" transform="translate(223.59 217.959)">
      <path id="Path_178" data-name="Path 178" d="M259.462,239.329H258.1a.781.781,0,0,1-.78-.781v-.791a.781.781,0,0,1,.78-.78h1.509a.634.634,0,0,1,.633.633.886.886,0,0,0,1.773,0,2.409,2.409,0,0,0-2.347-2.405v-.761a.886.886,0,0,0-1.773,0v.769a2.556,2.556,0,0,0-2.348,2.543v.791A2.556,2.556,0,0,0,258.1,241.1h1.36a.782.782,0,0,1,.781.781v.791a.781.781,0,0,1-.781.781h-1.508a.634.634,0,0,1-.633-.633.886.886,0,1,0-1.773,0,2.409,2.409,0,0,0,2.348,2.4v.761a.886.886,0,1,0,1.773,0v-.768a2.556,2.556,0,0,0,2.347-2.544v-.791a2.556,2.556,0,0,0-2.553-2.553Zm0,0" transform="translate(-228.81 -220.508)" fill="#2d7f84"/>
      <path id="Path_179" data-name="Path 179" d="M267.117,248.008a3.38,3.38,0,0,0-4.458-1.727l-.013.006-5.584,2.574a.886.886,0,0,0,.743,1.61l5.576-2.571a1.608,1.608,0,0,1,1.293,2.944l-11.425,5.044a6.591,6.591,0,0,1-5.611-.127l-4.182-2.077a8.364,8.364,0,0,0-7.116-.161l-.054.023-3.1-7.02,4.31-1.9a8.6,8.6,0,0,1,6.471-.207l8.41,3.089a1.484,1.484,0,0,1-.987,2.8l-6.5-2.2a.886.886,0,1,0-.568,1.679l6.5,2.2a3.231,3.231,0,0,0,1.038.172,3.256,3.256,0,0,0,1.128-6.313l-8.411-3.089a10.454,10.454,0,0,0-1.724-.471v-4.9a8.772,8.772,0,0,1,8.761-8.761h3.238a8.772,8.772,0,0,1,8.761,8.761v2.311a.886.886,0,0,0,1.773,0V237.38a10.55,10.55,0,0,0-8.51-10.338v-2.671l2.239-3.831a.887.887,0,0,0-.4-1.254l-2.747-1.248a.889.889,0,0,0-.667-.027l-2.038.734-1.808-.723a.89.89,0,0,0-.648,0l-2.874,1.109a.885.885,0,0,0-.456,1.257l2.2,3.977v2.663a10.552,10.552,0,0,0-8.6,10.356v4.73a10.4,10.4,0,0,0-4.3.89l-4.342,1.918a2.195,2.195,0,0,0-2.708-.787l-5.61,2.458a.887.887,0,0,0-.53.812v15.055a.886.886,0,0,0,.886.886.877.877,0,0,0,.4-.1l10.891-5.5a2.2,2.2,0,0,0,1.212-2.566l.076-.033a6.588,6.588,0,0,1,5.611.127l4.182,2.077a8.362,8.362,0,0,0,7.115.161l11.425-5.045a3.381,3.381,0,0,0,1.728-4.458Zm-12.011-21.162h-3.647v-1.827h3.647Zm-5.581-6.43,1.6-.617,1.8.719a.888.888,0,0,0,.63.011l2.015-.725,1.525.692-1.609,2.752h-4.389Zm-14.5,35.718-.041.019-9.623,4.862v-3.593l2.492-1.223a.886.886,0,0,0-.781-1.591l-1.71.84V247.98l5.081-2.226a.423.423,0,0,1,.56.217l.2.459h0l4.037,9.143a.425.425,0,0,1-.217.56Zm0,0" transform="translate(-223.59 -217.959)" fill="#2d7f84"/>
    </g>
  </g>
</svg>
