<svg xmlns="http://www.w3.org/2000/svg" width="44.508" height="41.059" viewBox="0 0 44.508 41.059">
  <g id="Group_97" data-name="Group 97" transform="translate(-584 -2197)">
    <path id="Path_197" data-name="Path 197" d="M276.568,196.981a9.183,9.183,0,0,1-9.172-9.173.75.75,0,0,1,.749-.75h16.846a.75.75,0,0,1,.75.75A9.184,9.184,0,0,1,276.568,196.981Zm-7.637-8.423a7.674,7.674,0,0,0,15.274,0Z" transform="translate(342.767 2029.446)" fill="#2d7f84"/>
    <path id="Path_198" data-name="Path 198" d="M283.4,185.853H270.568a.749.749,0,0,1-.672-1.081l6.417-13.008a.75.75,0,0,1,1.345,0l6.417,13.008a.749.749,0,0,1-.672,1.081Zm-11.629-1.5H282.2l-5.212-10.562Z" transform="translate(342.35 2032.151)" fill="#2d7f84"/>
    <path id="Path_199" data-name="Path 199" d="M244.964,196.981a9.183,9.183,0,0,1-9.172-9.173.75.75,0,0,1,.749-.75h16.846a.75.75,0,0,1,.75.75A9.184,9.184,0,0,1,244.964,196.981Zm-7.637-8.423a7.673,7.673,0,0,0,15.273,0Z" transform="translate(348.208 2029.446)" fill="#2d7f84"/>
    <path id="Path_200" data-name="Path 200" d="M251.8,185.853H238.964a.749.749,0,0,1-.672-1.081l6.417-13.008a.75.75,0,0,1,1.345,0l6.417,13.008a.749.749,0,0,1-.673,1.081Zm-11.629-1.5h10.422l-5.211-10.562Z" transform="translate(347.791 2032.151)" fill="#2d7f84"/>
    <path id="Path_201" data-name="Path 201" d="M262.518,193.777a.75.75,0,0,1-.75-.75V169.2a.75.75,0,1,1,1.5,0v23.828A.75.75,0,0,1,262.518,193.777Z" transform="translate(343.736 2032.649)" fill="#2d7f84"/>
    <path id="Path_202" data-name="Path 202" d="M275.307,172.846h-32.3a.75.75,0,0,1,0-1.5h32.3a.75.75,0,0,1,0,1.5Z" transform="translate(347.094 2032.151)" fill="#2d7f84"/>
    <path id="Path_203" data-name="Path 203" d="M268.18,211.366h-14.3a.75.75,0,0,1-.75-.75v-3.409a.749.749,0,0,1,.75-.75h1.945l1.589-3.01a.75.75,0,0,1,.663-.4h5.9a.751.751,0,0,1,.663.4l1.589,3.01h1.946a.75.75,0,0,1,.75.75v3.409A.75.75,0,0,1,268.18,211.366Zm-13.547-1.5h12.8v-1.909h-1.648a.752.752,0,0,1-.663-.4l-1.589-3.01h-5l-1.589,3.01a.753.753,0,0,1-.663.4h-1.648Z" transform="translate(345.222 2026.693)" fill="#2d7f84"/>
    <path id="Path_204" data-name="Path 204" d="M263.961,203.546h-3.644a.749.749,0,0,1-.749-.75v-4.813a.749.749,0,0,1,.749-.75h3.644a.749.749,0,0,1,.75.75V202.8A.749.749,0,0,1,263.961,203.546Zm-2.894-1.5h2.144v-3.314h-2.144Z" transform="translate(344.115 2027.694)" fill="#2d7f84"/>
    <path id="Path_205" data-name="Path 205" d="M273.272,212.784H246.118a.75.75,0,1,1,0-1.5h27.154a.75.75,0,0,1,0,1.5Z" transform="translate(346.559 2025.275)" fill="#2d7f84"/>
    <path id="Path_206" data-name="Path 206" d="M262.092,169.1a2.8,2.8,0,1,1,2.8-2.8A2.8,2.8,0,0,1,262.092,169.1Zm0-4.1a1.3,1.3,0,1,0,1.3,1.3A1.3,1.3,0,0,0,262.092,165Z" transform="translate(344.162 2033.502)" fill="#2d7f84"/>
    <path id="Path_207" data-name="Path 207" d="M260.591,208.666h-3.81a.75.75,0,1,1,0-1.5h3.81a.75.75,0,0,1,0,1.5Z" transform="translate(344.724 2025.984)" fill="#2d7f84"/>
  </g>
</svg>
