<svg xmlns="http://www.w3.org/2000/svg" xmlns:xlink="http://www.w3.org/1999/xlink" width="108.969" height="109.522" viewBox="0 0 108.969 109.522">
  <defs>
    <clipPath id="clip-path">
      <rect id="Rectangle_70" data-name="Rectangle 70" width="108.969" height="109.522" fill="#84479a" stroke="#7b4b96" stroke-width="1"/>
    </clipPath>
  </defs>
  <g id="Group_118" data-name="Group 118" transform="translate(0 14)">
    <g id="Group_118-2" data-name="Group 118" transform="translate(0 -14)" clip-path="url(#clip-path)">
      <path id="Path_221" data-name="Path 221" d="M32.71,14.421a.883.883,0,0,0-.973.816.9.9,0,0,0,.814.973A24.1,24.1,0,0,1,54.466,42.327a.9.9,0,0,0,.816.971.619.619,0,0,0,.08,0,.9.9,0,0,0,.893-.82A25.906,25.906,0,0,0,32.71,14.421" transform="translate(26.191 11.899)" fill="#84479a" stroke="#7b4b96" stroke-width="1"/>
      <path id="Path_222" data-name="Path 222" d="M33.341,7.211A.9.9,0,0,0,33.184,9,37.359,37.359,0,0,1,67.106,49.428a.9.9,0,0,0,.814.973c.029,0,.055,0,.08,0a.9.9,0,0,0,.894-.818A39.158,39.158,0,0,0,33.341,7.211" transform="translate(26.712 5.95)" fill="#84479a" stroke="#7b4b96" stroke-width="1"/>
      <path id="Path_223" data-name="Path 223" d="M69.49,18.493A51.983,51.983,0,0,0,33.97,0,.885.885,0,0,0,33,.818a.9.9,0,0,0,.814.975,50.523,50.523,0,0,1,45.93,54.735.9.9,0,0,0,.816.973c.029,0,.055,0,.08,0a.9.9,0,0,0,.894-.82A51.979,51.979,0,0,0,69.49,18.493" transform="translate(27.233 -0.001)" fill="#84479a" stroke="#7b4b96" stroke-width="1"/>
      <path id="Path_224" data-name="Path 224" d="M67.562,44.962A12.677,12.677,0,0,0,52.184,26.636l-7.239-8.63a4.215,4.215,0,0,0-6.458,5.42l.391.467L18.135,56a2.2,2.2,0,0,0-1.535.5L1.679,69.017a2.224,2.224,0,0,0-.272,3.127l.024.026A4.807,4.807,0,0,0,1.139,78.7l6.279,7.484a4.824,4.824,0,0,0,6.487.851l.018.024a2.224,2.224,0,0,0,3.127.276l3.894-3.267L36.929,95.262a3.509,3.509,0,0,0,2.023.641,3.6,3.6,0,0,0,.622-.055,3.516,3.516,0,0,0,2.285-1.455l3.311-4.731a3.538,3.538,0,0,0-.869-4.93v0L31.137,75.515l.834-.7a2.2,2.2,0,0,0,.759-1.426L67.949,58.539l.392.465A4.194,4.194,0,0,0,71.2,60.5c.128.009.252.015.374.015A4.215,4.215,0,0,0,74.8,53.587Zm3.8,13.745a2.4,2.4,0,0,1-1.643-.854L39.861,22.271a2.421,2.421,0,0,1,.3-3.408v0a2.4,2.4,0,0,1,1.552-.566c.069,0,.142,0,.214.009a2.418,2.418,0,0,1,1.645.854l29.854,35.58a2.42,2.42,0,0,1-2.064,3.968M15.9,85.958a.424.424,0,0,1-.6-.049L2.782,70.988a.426.426,0,0,1,.051-.6l14.921-12.52a.42.42,0,0,1,.6.055L30.869,72.843a.428.428,0,0,1-.053.6Zm28.092,1.371a1.74,1.74,0,0,1-.29,1.3l-3.311,4.73a1.741,1.741,0,0,1-2.43.429L22.366,82.875l7.349-6.164L43.272,86.2v0a1.728,1.728,0,0,1,.717,1.124m-31.241-1.67a3.062,3.062,0,0,1-3.956-.626L2.512,77.551a3.047,3.047,0,0,1,.073-4.007Zm19.469-14L19.754,56.8,40.083,25.331,66.743,57.1ZM64.992,31.5a10.921,10.921,0,0,1,1.342,12l-12.9-15.375A10.761,10.761,0,0,1,64.992,31.5" transform="translate(0 13.619)" fill="#84479a" stroke="#7b4b96" stroke-width="1"/>
    </g>
  </g>
</svg>
