<svg xmlns="http://www.w3.org/2000/svg" width="42.094" height="42.24" viewBox="0 0 42.094 42.24">
  <g id="Group_70" data-name="Group 70" transform="translate(-1007.577 -1628.868)">
    <path id="Path_136" data-name="Path 136" d="M1125.342,1692.023h-3.293a.63.63,0,0,1,0-1.259h3.293a.63.63,0,1,1,0,1.259Z" transform="translate(-103.603 -56.328)" fill="#2d7f84"/>
    <path id="Path_137" data-name="Path 137" d="M1033.306,1727.437h-25.1a.63.63,0,0,1-.63-.63v-35.413a.63.63,0,0,1,.63-.63h3.355a.63.63,0,1,1,0,1.259h-2.726v34.154h23.84v-3.157a.63.63,0,0,1,1.259,0v3.786A.63.63,0,0,1,1033.306,1727.437Z" transform="translate(0 -56.328)" fill="#2d7f84"/>
    <path id="Path_138" data-name="Path 138" d="M1050.015,1668.031a2.869,2.869,0,0,1-2.866-2.866v-5.02a2.869,2.869,0,0,1,2.866-2.866.63.63,0,0,1,0,1.259,1.608,1.608,0,0,0-1.606,1.607v5.02a1.607,1.607,0,0,0,3.213,0v-3.534a.459.459,0,0,0-.917,0v2.7a.63.63,0,0,1-1.259,0v-2.7a1.718,1.718,0,0,1,3.436,0v3.534A2.869,2.869,0,0,1,1050.015,1668.031Z" transform="translate(-36.013 -25.855)" fill="#2d7f84"/>
    <path id="Path_139" data-name="Path 139" d="M1056.726,1817.607h-4.811a.63.63,0,1,1,0-1.259h4.811a.63.63,0,1,1,0,1.259Z" transform="translate(-39.776 -170.616)" fill="#2d7f84"/>
    <path id="Path_140" data-name="Path 140" d="M1061.516,1871.737h-9.6a.63.63,0,1,1,0-1.259h9.6a.63.63,0,0,1,0,1.259Z" transform="translate(-39.776 -219.877)" fill="#2d7f84"/>
    <path id="Path_141" data-name="Path 141" d="M1061.516,1909.112h-9.6a.63.63,0,1,1,0-1.259h9.6a.63.63,0,0,1,0,1.259Z" transform="translate(-39.776 -253.89)" fill="#2d7f84"/>
    <path id="Path_142" data-name="Path 142" d="M1061.516,1946.487h-9.6a.63.63,0,1,1,0-1.259h9.6a.63.63,0,0,1,0,1.259Z" transform="translate(-39.776 -287.903)" fill="#2d7f84"/>
    <path id="Path_143" data-name="Path 143" d="M1061.516,1983.863h-9.6a.63.63,0,1,1,0-1.259h9.6a.63.63,0,0,1,0,1.259Z" transform="translate(-39.776 -321.917)" fill="#2d7f84"/>
    <path id="Path_144" data-name="Path 144" d="M1057.6,2041.238h-5.68a.63.63,0,1,1,0-1.259h5.68a.63.63,0,1,1,0,1.259Z" transform="translate(-39.776 -374.131)" fill="#2d7f84"/>
    <g id="Group_69" data-name="Group 69" transform="translate(1024.816 1628.868)">
      <path id="Path_145" data-name="Path 145" d="M1223.453,1665.017h-23.6a.63.63,0,0,1-.63-.63V1629.5a.63.63,0,0,1,.63-.63h23.6a.63.63,0,0,1,.63.63v34.889A.63.63,0,0,1,1223.453,1665.017Zm-22.966-1.259h22.336v-33.63h-22.336Z" transform="translate(-1199.228 -1628.868)" fill="#2d7f84"/>
      <g id="Group_67" data-name="Group 67" transform="translate(4.362 4.788)">
        <path id="Path_146" data-name="Path 146" d="M1256.01,1698.685a8.292,8.292,0,1,1,8.292-8.292A8.3,8.3,0,0,1,1256.01,1698.685Zm0-15.234a6.942,6.942,0,1,0,6.942,6.942A6.95,6.95,0,0,0,1256.01,1683.451Z" transform="translate(-1247.718 -1682.102)" fill="#2d7f84"/>
      </g>
      <path id="Path_147" data-name="Path 147" d="M1254.357,1892.3h-.009l-4.343-.055a.675.675,0,1,1,.017-1.349l4.343.055a.675.675,0,0,1-.008,1.349Z" transform="translate(-1244.832 -1867.321)" fill="#2d7f84"/>
      <path id="Path_148" data-name="Path 148" d="M1264.579,1931.664h0l-14.566-.055a.675.675,0,0,1,0-1.349h0l14.565.055a.675.675,0,0,1,0,1.349Z" transform="translate(-1244.832 -1903.149)" fill="#2d7f84"/>
      <path id="Path_149" data-name="Path 149" d="M1261.372,1963.6h0l-11.358-.055a.675.675,0,0,1,0-1.349h0l11.358.055a.675.675,0,0,1,0,1.349Z" transform="translate(-1244.831 -1932.215)" fill="#2d7f84"/>
      <g id="Group_68" data-name="Group 68" transform="translate(8.547 8.974)">
        <path id="Path_150" data-name="Path 150" d="M1301.787,1736.845a.673.673,0,0,1-.477-.2l-6.863-6.863a.675.675,0,0,1,.954-.954l6.863,6.863a.675.675,0,0,1-.477,1.152Z" transform="translate(-1294.249 -1728.633)" fill="#2d7f84"/>
        <path id="Path_151" data-name="Path 151" d="M1294.924,1736.845a.675.675,0,0,1-.477-1.152l6.863-6.863a.675.675,0,0,1,.954.954l-6.863,6.863A.673.673,0,0,1,1294.924,1736.845Z" transform="translate(-1294.249 -1728.633)" fill="#2d7f84"/>
      </g>
    </g>
  </g>
</svg>
