<svg xmlns="http://www.w3.org/2000/svg" width="86.174" height="89.636" viewBox="0 0 86.174 89.636">
  <g id="Group_36" data-name="Group 36" transform="translate(-260.172 -247.966)">
    <path id="Path_45" data-name="Path 45" d="M281.671,306.6a1.584,1.584,0,0,1-1.583-1.583V278.239a1.583,1.583,0,1,1,3.167,0v26.778A1.583,1.583,0,0,1,281.671,306.6Z" transform="translate(21.52 31)" fill="#007ac9"/>
    <path id="Path_46" data-name="Path 46" d="M285.877,267.332a9.683,9.683,0,1,1,9.683-9.683A9.693,9.693,0,0,1,285.877,267.332Zm0-16.2a6.516,6.516,0,1,0,6.516,6.516A6.524,6.524,0,0,0,285.877,251.133Z" transform="translate(17.314)" fill="#007ac9"/>
    <path id="Path_47" data-name="Path 47" d="M313.61,269.915H288.423a1.583,1.583,0,1,1,0-3.167H313.61a2.358,2.358,0,1,0,0-4.717H285.56a1.584,1.584,0,0,1,0-3.169h28.05a5.526,5.526,0,1,1,0,11.052Z" transform="translate(25.722 11.775)" fill="#007ac9"/>
    <path id="Path_48" data-name="Path 48" d="M292.626,321.732H281.67a1.583,1.583,0,0,1,0-3.167h9.373V264.236a1.583,1.583,0,1,1,3.167,0v55.912A1.583,1.583,0,0,1,292.626,321.732Z" transform="translate(21.519 15.87)" fill="#007ac9"/>
    <path id="Path_49" data-name="Path 49" d="M281.7,306.6a1.584,1.584,0,0,1-1.583-1.583V278.239a1.583,1.583,0,1,1,3.167,0v26.778A1.583,1.583,0,0,1,281.7,306.6Z" transform="translate(21.553 31)" fill="#007ac9"/>
    <path id="Path_50" data-name="Path 50" d="M291.565,269.915H266.378a5.526,5.526,0,0,1,0-11.052H294.43a1.584,1.584,0,0,1,0,3.169H266.378a2.358,2.358,0,0,0,0,4.717h25.187a1.583,1.583,0,1,1,0,3.167Z" transform="translate(0.737 11.775)" fill="#007ac9"/>
    <path id="Path_51" data-name="Path 51" d="M287.393,321.732H276.437a1.584,1.584,0,0,1-1.583-1.583V264.236a1.583,1.583,0,0,1,3.167,0v54.329h9.373a1.583,1.583,0,0,1,0,3.167Z" transform="translate(15.864 15.87)" fill="#007ac9"/>
    <path id="Path_52" data-name="Path 52" d="M325.578,292.694H267.824a1.583,1.583,0,1,1,0-3.167h57.753a1.583,1.583,0,1,1,0,3.167Z" transform="translate(6.558 44.908)" fill="#007ac9"/>
    <path id="Path_53" data-name="Path 53" d="M298.351,273.376a4.653,4.653,0,0,1-4.648-4.648v-4.492a1.583,1.583,0,0,1,1.583-1.583h6.129A1.584,1.584,0,0,1,303,264.236v4.492A4.653,4.653,0,0,1,298.351,273.376Zm-1.481-7.557v2.909a1.481,1.481,0,1,0,2.963,0V265.82Z" transform="translate(36.231 15.87)" fill="#007ac9"/>
    <path id="Path_54" data-name="Path 54" d="M302.345,282.572a1.582,1.582,0,0,1-1.508-1.1l-4.363-13.773a1.583,1.583,0,0,1,3.019-.957l4.363,13.773a1.587,1.587,0,0,1-1.51,2.062Z" transform="translate(39.145 19.089)" fill="#007ac9"/>
    <path id="Path_55" data-name="Path 55" d="M293.44,282.572a1.586,1.586,0,0,1-1.51-2.062l4.363-13.773a1.583,1.583,0,0,1,3.019.957l-4.363,13.773A1.583,1.583,0,0,1,293.44,282.572Z" transform="translate(34.235 19.088)" fill="#007ac9"/>
    <path id="Path_56" data-name="Path 56" d="M302.046,288.4a11.776,11.776,0,0,1-11.763-11.763v-2.8a1.583,1.583,0,0,1,1.583-1.583h20.36a1.584,1.584,0,0,1,1.583,1.583v2.8A11.776,11.776,0,0,1,302.046,288.4Zm-8.6-12.985v1.221a8.6,8.6,0,1,0,17.193,0v-1.221Z" transform="translate(32.536 26.242)" fill="#007ac9"/>
    <path id="Path_57" data-name="Path 57" d="M268.24,273.376a4.653,4.653,0,0,1-4.648-4.648v-4.492a1.584,1.584,0,0,1,1.583-1.583H271.3a1.584,1.584,0,0,1,1.583,1.583v4.492A4.653,4.653,0,0,1,268.24,273.376Zm-1.481-7.557v2.909a1.481,1.481,0,1,0,2.963,0V265.82Z" transform="translate(3.695 15.87)" fill="#007ac9"/>
    <path id="Path_58" data-name="Path 58" d="M272.234,282.572a1.586,1.586,0,0,1-1.508-1.1l-4.363-13.773a1.583,1.583,0,0,1,3.019-.957l4.363,13.773a1.586,1.586,0,0,1-1.51,2.062Z" transform="translate(6.609 19.088)" fill="#007ac9"/>
    <path id="Path_59" data-name="Path 59" d="M263.329,282.572a1.586,1.586,0,0,1-1.51-2.062l4.363-13.773a1.583,1.583,0,0,1,3.019.957l-4.363,13.773A1.584,1.584,0,0,1,263.329,282.572Z" transform="translate(1.699 19.088)" fill="#007ac9"/>
    <path id="Path_60" data-name="Path 60" d="M271.935,288.4a11.776,11.776,0,0,1-11.763-11.763v-2.8a1.583,1.583,0,0,1,1.583-1.583h20.36a1.583,1.583,0,0,1,1.583,1.583v2.8A11.776,11.776,0,0,1,271.935,288.4Zm-8.6-12.985v1.221a8.6,8.6,0,1,0,17.193,0v-1.221Z" transform="translate(0 26.242)" fill="#007ac9"/>
  </g>
</svg>
