<svg xmlns="http://www.w3.org/2000/svg" width="41.327" height="38.428" viewBox="0 0 41.327 38.428">
  <g id="Group_62" data-name="Group 62" transform="translate(-3291.987 -1646.016)">
    <g id="Group_58" data-name="Group 58" transform="translate(3292.112 1646.187)">
      <path id="Path_111" data-name="Path 111" d="M3294.224,1704.479a.641.641,0,0,1-.593-.41,21.364,21.364,0,0,1,2.912-20.941,20.01,20.01,0,0,1,11.1-7.2.641.641,0,0,1,.768.5.665.665,0,0,1-.482.8,18.727,18.727,0,0,0-10.392,6.735,20,20,0,0,0-2.726,19.6.673.673,0,0,1-.346.868A.62.62,0,0,1,3294.224,1704.479Z" transform="translate(-3292.112 -1673.373)" fill="#2d7f84" stroke="#477d83" stroke-width="0.25"/>
      <path id="Path_112" data-name="Path 112" d="M3537.19,1699.172a.619.619,0,0,1-.241-.049.672.672,0,0,1-.352-.865,19.879,19.879,0,0,0,1.376-7.308,19.607,19.607,0,0,0-5.485-13.707,18.291,18.291,0,0,0-13.242-5.678.664.664,0,0,1,0-1.328,19.544,19.544,0,0,1,14.149,6.067,20.949,20.949,0,0,1,5.861,14.646,21.222,21.222,0,0,1-1.471,7.809A.641.641,0,0,1,3537.19,1699.172Z" transform="translate(-3498.178 -1668.181)" fill="#2d7f84" stroke="#477d83" stroke-width="0.25"/>
      <path id="Path_113" data-name="Path 113" d="M3517.108,1651.549a.641.641,0,0,1-.454-.188l-2.039-2.039a.641.641,0,0,1,0-.907l2.039-2.039a.642.642,0,0,1,.907.907l-1.586,1.586,1.586,1.586a.641.641,0,0,1-.453,1.095Z" transform="translate(-3494.868 -1646.187)" fill="#2d7f84" stroke="#477d83" stroke-width="0.25"/>
    </g>
    <g id="Group_61" data-name="Group 61" transform="translate(3296.058 1662.856)">
      <g id="Group_60" data-name="Group 60" transform="translate(0 0)">
        <g id="Group_59" data-name="Group 59">
          <path id="Path_114" data-name="Path 114" d="M3368.365,1851.091h-27.04a3.028,3.028,0,0,1-3.073-2.975V1832.6a3.028,3.028,0,0,1,3.073-2.974h27.028a3.041,3.041,0,0,1,3.085,2.987v15.5A3.028,3.028,0,0,1,3368.365,1851.091Zm-27.04-20.18a1.723,1.723,0,0,0-1.748,1.692v15.514a1.722,1.722,0,0,0,1.748,1.692h27.04a1.723,1.723,0,0,0,1.748-1.692v-15.5a1.735,1.735,0,0,0-1.761-1.7Z" transform="translate(-3338.252 -1829.628)" fill="#2d7f84" stroke="#477d83" stroke-width="0.25"/>
          <path id="Path_115" data-name="Path 115" d="M3386.319,1882.169a2.972,2.972,0,1,1,2.972-2.972A2.976,2.976,0,0,1,3386.319,1882.169Zm0-4.662a1.69,1.69,0,1,0,1.69,1.69A1.691,1.691,0,0,0,3386.319,1877.507Z" transform="translate(-3379.491 -1872.239)" fill="#2d7f84" stroke="#477d83" stroke-width="0.25"/>
          <path id="Path_116" data-name="Path 116" d="M3447.167,1882.169a2.972,2.972,0,1,1,2.972-2.972A2.976,2.976,0,0,1,3447.167,1882.169Zm0-4.662a1.69,1.69,0,1,0,1.69,1.69A1.692,1.692,0,0,0,3447.167,1877.507Z" transform="translate(-3434.77 -1872.239)" fill="#2d7f84" stroke="#477d83" stroke-width="0.25"/>
          <path id="Path_117" data-name="Path 117" d="M3553.8,1976.459h-9.06a.641.641,0,1,1,0-1.283h9.06a.641.641,0,1,1,0,1.283Z" transform="translate(-3525.44 -1962.729)" fill="#2d7f84" stroke="#477d83" stroke-width="0.25"/>
          <path id="Path_118" data-name="Path 118" d="M3397.541,1976.459h-10.5a.641.641,0,1,1,0-1.283h10.5a.641.641,0,1,1,0,1.283Z" transform="translate(-3382.284 -1962.729)" fill="#2d7f84" stroke="#477d83" stroke-width="0.25"/>
          <path id="Path_119" data-name="Path 119" d="M3391.808,2017.063h-4.765a.641.641,0,1,1,0-1.283h4.765a.641.641,0,1,1,0,1.283Z" transform="translate(-3382.284 -1999.861)" fill="#2d7f84" stroke="#477d83" stroke-width="0.25"/>
          <path id="Path_120" data-name="Path 120" d="M3471.509,2017.063h-4.2a.641.641,0,0,1,0-1.283h4.2a.641.641,0,0,1,0,1.283Z" transform="translate(-3455.25 -1999.861)" fill="#2d7f84" stroke="#477d83" stroke-width="0.25"/>
        </g>
      </g>
    </g>
  </g>
</svg>
