<svg xmlns="http://www.w3.org/2000/svg" width="83.718" height="92.092" viewBox="0 0 83.718 92.092">
  <g id="Group_34" data-name="Group 34" transform="translate(-315.495 -313.411)">
    <path id="Path_41" data-name="Path 41" d="M364.932,405.5c0-6.551,2.1-13.468,7.867-13.468a69.255,69.255,0,0,1,7.7,1.924c13.468,3.848,9.62-11.544,11.544-17.315,0,0,0-1.924,3.848-3.848,1.72-.86,3.051-3.963,0-7.7a18.847,18.847,0,0,1-3.848-11.544c0-1.924,1.924-1.924,1.924-5.772,0-1.924-3.611-17.079-11.544-25.011-12.506-12.506-40.4-7.7-50.022-1.924-7.7,4.621-15.724,12.365-15.392,26.935,0,10.916,6.378,17.641,9.62,25.011a26.175,26.175,0,0,1,1.924,13.468c-.621,5.125-2.37,8.519-3.848,13.468V405.5" transform="translate(0 0)" fill="none" stroke="#55b2bc" stroke-linejoin="round" stroke-width="3"/>
    <path id="Path_42" data-name="Path 42" d="M362.631,338.946c0,8.025-6.926,11.151-9.235,14.278a15.306,15.306,0,0,0-2.753,6.255H339.988a15.305,15.305,0,0,0-2.753-6.255C334.926,350.1,328,346.97,328,338.946,328,330.14,335.752,323,345.315,323S362.631,330.14,362.631,338.946Z" transform="translate(10.168 7.469)" fill="none" stroke="#55b2bc" stroke-linecap="round" stroke-linejoin="round" stroke-width="3"/>
    <line id="Line_18" data-name="Line 18" x1="11.544" y2="1.924" transform="translate(349.712 372.796)" fill="none" stroke="#55b2bc" stroke-linecap="round" stroke-linejoin="round" stroke-width="3"/>
    <line id="Line_19" data-name="Line 19" x1="11.544" y2="1.924" transform="translate(349.712 378.568)" fill="none" stroke="#55b2bc" stroke-linecap="round" stroke-linejoin="round" stroke-width="3"/>
    <line id="Line_20" data-name="Line 20" y2="7.696" transform="translate(355.484 347.785)" fill="none" stroke="#55b2bc" stroke-linecap="round" stroke-linejoin="round" stroke-width="3"/>
    <path id="Path_43" data-name="Path 43" d="M333,331.533s3.277-2.5,5.772,0l1.924,1.924" transform="translate(14.788 14.328)" fill="none" stroke="#55b2bc" stroke-linecap="round" stroke-linejoin="round" stroke-width="3"/>
    <path id="Path_44" data-name="Path 44" d="M344.7,331.533s-3.277-2.5-5.772,0L337,333.457" transform="translate(18.484 14.328)" fill="none" stroke="#55b2bc" stroke-linecap="round" stroke-linejoin="round" stroke-width="3"/>
  </g>
</svg>
