<svg xmlns="http://www.w3.org/2000/svg" width="40.25" height="38.405" viewBox="0 0 40.25 38.405">
  <g id="Group_54" data-name="Group 54" transform="translate(-249.457 -222.579)">
    <g id="Group_53" data-name="Group 53" transform="translate(255.043 237.697)">
      <path id="Path_95" data-name="Path 95" d="M340.958,504.222a.626.626,0,0,1-.626-.626v-14.04a.626.626,0,1,1,1.252,0V503.6A.626.626,0,0,1,340.958,504.222Z" transform="translate(-338.221 -481.069)" fill="#2d7f84" stroke="#477d83" stroke-width="0.25"/>
      <path id="Path_96" data-name="Path 96" d="M615.809,504.222a.626.626,0,0,1-.626-.626v-14.04a.626.626,0,1,1,1.252,0V503.6A.626.626,0,0,1,615.809,504.222Z" transform="translate(-589.468 -481.069)" fill="#2d7f84" stroke="#477d83" stroke-width="0.25"/>
      <path id="Path_97" data-name="Path 97" d="M343.471,405.114a.648.648,0,0,1-.356-.106L329.5,396.092l-13.462,8.913a.65.65,0,0,1-.89-.167.617.617,0,0,1,.171-.869l13.819-9.15a.654.654,0,0,1,.716,0l13.977,9.15a.617.617,0,0,1,.176.868A.644.644,0,0,1,343.471,405.114Z" transform="translate(-315.035 -394.712)" fill="#2d7f84" stroke="#477d83" stroke-width="0.25"/>
      <path id="Path_98" data-name="Path 98" d="M451.6,582.033a.626.626,0,0,1-.626-.626v-6.341h-4.114v6.341a.626.626,0,0,1-1.252,0v-6.967a.626.626,0,0,1,.626-.626H451.6a.626.626,0,0,1,.626.626v6.967A.626.626,0,0,1,451.6,582.033Z" transform="translate(-434.375 -558.871)" fill="#2d7f84" stroke="#477d83" stroke-width="0.25"/>
    </g>
    <path id="Path_99" data-name="Path 99" d="M308.818,658.565H274.074a.626.626,0,1,1,0-1.252h34.744a.626.626,0,1,1,0,1.252Z" transform="translate(-21.864 -397.705)" fill="#2d7f84" stroke="#477d83" stroke-width="0.25"/>
    <path id="Path_100" data-name="Path 100" d="M493.073,279.764a.616.616,0,0,1-.4-.146.647.647,0,0,1-.084-.9,19.033,19.033,0,0,0,4.2-11.943A18.842,18.842,0,0,0,491.4,253.5a18.114,18.114,0,0,0-13.02-5.5.638.638,0,0,1,0-1.276,19.345,19.345,0,0,1,13.9,5.873,20.124,20.124,0,0,1,5.759,14.18,20.329,20.329,0,0,1-4.49,12.756A.62.62,0,0,1,493.073,279.764Z" transform="translate(-208.465 -22.015)" fill="#2d7f84" stroke="#477d83" stroke-width="0.25"/>
    <path id="Path_101" data-name="Path 101" d="M254.274,286.568a.62.62,0,0,1-.492-.244,20.247,20.247,0,0,1,10.346-31.774.624.624,0,0,1,.767.451.64.64,0,0,1-.442.782,18.959,18.959,0,0,0-9.688,29.751.647.647,0,0,1-.105.9A.615.615,0,0,1,254.274,286.568Z" transform="translate(0 -29.169)" fill="#2d7f84" stroke="#477d83" stroke-width="0.25"/>
    <path id="Path_102" data-name="Path 102" d="M476.9,227.936a.624.624,0,0,1-.443-.183l-1.99-1.99a.626.626,0,0,1,0-.885l1.99-1.99a.626.626,0,1,1,.885.885l-1.548,1.548,1.548,1.548a.626.626,0,0,1-.442,1.068Z" transform="translate(-205.605 0)" fill="#2d7f84" stroke="#477d83" stroke-width="0.25"/>
  </g>
</svg>
