<svg xmlns="http://www.w3.org/2000/svg" width="48.888" height="37.03" viewBox="0 0 48.888 37.03">
  <path id="Union_3" data-name="Union 3" d="M32.593,36.516l-1.971-5.926A2.533,2.533,0,0,0,29.047,29l-6.633-2.272a4.966,4.966,0,0,1-1.282,2.441,5.782,5.782,0,0,1-4.3,1.548,5.668,5.668,0,0,1-5.149-2.472,5.585,5.585,0,0,1-.673-1.535L4.492,28.946a2.5,2.5,0,0,0-1.634,1.792L1.486,36.454a.753.753,0,0,1-1.465-.347L1.393,30.39A4,4,0,0,1,4,27.53l7.331-2.511.029-.01.568-.194.306-3.655c-.049-.1-.087-.182-.114-.243a8.379,8.379,0,0,1-1.778-3.43l-.12-.939A4.283,4.283,0,0,0,9.8,15.166l-.117-.232q-.107-.212-.2-.433-.011-.025-.02-.05a5.8,5.8,0,0,1-.4-2.112V9.114a5.273,5.273,0,0,1-.435-.408C6.589,6.561,6.828,3.244,7.03,1.9a.747.747,0,0,1,.1-.29h0v0a.756.756,0,0,1,.988-.28,3.02,3.02,0,0,0,1.137.327l-.283-.575a.746.746,0,0,1,.214-.92.757.757,0,0,1,.949.02A6.7,6.7,0,0,0,13.172.154l.03,0c3.492-.484,5.481.291,6.589,1.158a3.615,3.615,0,0,1,4.164.831c2.631,2.624.955,7.111.495,8.192a7.029,7.029,0,0,1-.385,4.3.738.738,0,0,1-.038.079q-.1.2-.206.385a4.263,4.263,0,0,0-.555,1.625l-.1.772A8.284,8.284,0,0,1,21.3,21.024c-.037.1-.094.236-.171.4l.308,3.388,8.1,2.774a4.042,4.042,0,0,1,2.515,2.532l1.971,5.926a.748.748,0,0,1-.479.946.754.754,0,0,1-.951-.476Zm-19.2-11.09a.749.749,0,0,1-.505.646l-.447.153a4.1,4.1,0,0,0,.548,1.27,4.28,4.28,0,0,0,3.846,1.729,4.359,4.359,0,0,0,3.211-1.084,3.546,3.546,0,0,0,.933-1.9l-.489-.167a.75.75,0,0,1-.5-.64l-.191-2.1a4.2,4.2,0,0,1-2.95,1.212,4.528,4.528,0,0,1-3.257-1.461Zm-2.4-11.237.037.076.117.232a5.769,5.769,0,0,1,.569,1.861l.12.939a7.263,7.263,0,0,0,1.516,2.752.757.757,0,0,1,.121.2c.01.026,1.145,2.794,3.368,2.794a2.878,2.878,0,0,0,2.317-1.25,5.227,5.227,0,0,0,.765-1.388.758.758,0,0,1,.15-.263,7.118,7.118,0,0,0,1.6-2.85l.1-.772a5.746,5.746,0,0,1,.748-2.19l.04-.07-.922-3.3a4.979,4.979,0,0,1-2.248-.784,2.958,2.958,0,0,1-.861-.89,11.74,11.74,0,0,1-4.26,1.1q-.531.05-1.028.05-.384,0-.747-.03Zm-.42-3.013.413-1.038q-.212-.065-.413-.143Zm9.816-5.919a.75.75,0,0,1,.737.764,3.594,3.594,0,0,1-1.343,2.435c.1.2.737,1.189,3.366,1.07C23.6,8.374,24.7,5,22.888,3.194a2.121,2.121,0,0,0-2.024-.674,2.6,2.6,0,0,1,.23.5l-1.44.44,0,.012a2.05,2.05,0,0,0-.444-.669.756.756,0,0,1-.113-.113C18.377,2,16.783,1.168,13.424,1.63a12.215,12.215,0,0,1-2.4.2l0,.009a.745.745,0,0,1-.251.947,2.939,2.939,0,0,1-2.349.241,6.337,6.337,0,0,0,1.3,4.646,3.635,3.635,0,0,0,.518.45l.027.019a5.664,5.664,0,0,0,3.857.763c5.3-.5,5.493-2.894,5.494-2.918a.751.751,0,0,1,.753-.733ZM35.661,36.929a.7.7,0,1,1,0-1.4H36.4V15.379l-1.033-5.334H32.547l-1.033,5.334V26.224a.7.7,0,0,1-1.406,0V24.986H25.662a.7.7,0,1,1,0-1.4h4.446V21.965H24.317a.7.7,0,1,1,0-1.4h5.791v-1.6H25.321a.7.7,0,1,1,0-1.4h4.787V16.011H26.067a.7.7,0,1,1,0-1.4H30.23l.885-4.568h-3.3a.7.7,0,1,1,0-1.4H42.7a.7.7,0,0,1,.524.233l5.356,5.966a.7.7,0,0,1,.117.751.7.7,0,0,1-.641.413H37.8v1.564H48.185a.7.7,0,1,1,0,1.4H37.8v1.6H48.185a.7.7,0,1,1,0,1.4H37.8v1.6H48.185a.7.7,0,1,1,0,1.4H37.8v1.6H48.185a.7.7,0,1,1,0,1.4H37.8v1.6H48.185a.7.7,0,1,1,0,1.4H37.8v1.6H48.185a.7.7,0,1,1,0,1.4H37.8v1.6H48.185a.7.7,0,1,1,0,1.4ZM46.486,14.614l-4.1-4.568h-5.59l.885,4.568Z" transform="translate(0)" fill="#2d7f84"/>
</svg>
