<svg xmlns="http://www.w3.org/2000/svg" width="40.25" height="38.537" viewBox="0 0 40.25 38.537">
  <g id="Group_57" data-name="Group 57" transform="translate(-251.14 -932.574)">
    <g id="Group_55" data-name="Group 55" transform="translate(254.789 947.966)">
      <path id="Path_103" data-name="Path 103" d="M324.857,1316.407h-2.61a2.292,2.292,0,0,1-2.352-2.281V1310.7a.682.682,0,1,1,1.365,0v3.423a.943.943,0,0,0,.987.916h2.61a.814.814,0,0,0,.818-.916v-.461a.682.682,0,1,1,1.365,0v.461A2.16,2.16,0,0,1,324.857,1316.407Z" transform="translate(-317.174 -1293.427)" fill="#2d7f84" stroke="#477d83" stroke-width="0.25"/>
      <path id="Path_104" data-name="Path 104" d="M577.252,1317.85h-2.61a2.23,2.23,0,0,1-2.28-2.281v-.461a.682.682,0,0,1,1.365,0v.461a.876.876,0,0,0,.915.916h2.61a.813.813,0,0,0,.817-.916v-3.278a.682.682,0,1,1,1.365,0v3.278A2.16,2.16,0,0,1,577.252,1317.85Z" transform="translate(-549.252 -1294.871)" fill="#2d7f84" stroke="#477d83" stroke-width="0.25"/>
      <path id="Path_105" data-name="Path 105" d="M315.626,1148.11H297.463a4.876,4.876,0,0,1-2.44-.777l-.021-.013-.574-.372a6.1,6.1,0,0,1-2.92-5.252v-1.739a4.852,4.852,0,0,1,1.012-2.92l.009-.012.977-1.242h-1.663a1.93,1.93,0,0,1-1.851-2v-.67a1.762,1.762,0,0,1,1.69-1.823h2.1a1.437,1.437,0,0,1,1.383,1.138l.046.181,0,.018a.065.065,0,0,0,.006.014h.01l.1-.215.006-.012a8.219,8.219,0,0,1,7.3-4.754h7.811a8.223,8.223,0,0,1,7.3,4.754l.006.012.1.215h.057l.042-.21,0-.019a1.406,1.406,0,0,1,1.386-1.122h2.1a1.555,1.555,0,0,1,1.492,1.609v1.134a1.688,1.688,0,0,1-1.619,1.746h-1.773l.936,1.218a4.865,4.865,0,0,1,.94,2.956v1.739a6.094,6.094,0,0,1-2.838,5.272l-.515.346-.03.019A4.782,4.782,0,0,1,315.626,1148.11Zm-19.984-1.968a3.712,3.712,0,0,0,1.821.6h18.163a3.631,3.631,0,0,0,1.795-.6l.514-.345.03-.019a4.708,4.708,0,0,0,2.2-4.084v-1.739a3.445,3.445,0,0,0-.653-2.091l-1.4-1.827a.692.692,0,0,1-.081-.135l-.228-.5a.729.729,0,0,1,.031-.661.624.624,0,0,1,.537-.321h2.962a.368.368,0,0,0,.353-.381V1132.9a.236.236,0,0,0-.226-.244h-2.1c-.041,0-.136.008-.156.079l-.045.225,0,.019a1.27,1.27,0,0,1-1.182,1.028h-.49a.629.629,0,0,1-.564-.372l-.275-.582a6.968,6.968,0,0,0-6.181-4.027h-7.811a6.964,6.964,0,0,0-6.176,4.027l-.275.582a.629.629,0,0,1-.564.373h-.451a1.283,1.283,0,0,1-1.18-1.042l-.046-.181,0-.018a.15.15,0,0,0-.157-.111h-2.1a.448.448,0,0,0-.425.458v.67a.61.61,0,0,0,.586.631h2.872a.625.625,0,0,1,.539.325.729.729,0,0,1,.025.666l-.233.5a.683.683,0,0,1-.082.133L293.5,1137.9a3.436,3.436,0,0,0-.726,2.055v1.739a4.718,4.718,0,0,0,2.274,4.061l.021.013Zm22.271-13.485,0,0h0Z" transform="translate(-289.991 -1127.663)" fill="#2d7f84" stroke="#477d83" stroke-width="0.25"/>
      <path id="Path_106" data-name="Path 106" d="M331.319,1175.449a.685.685,0,0,1,0-1.365,11.5,11.5,0,0,0,1.958-.489l.03-.009a.278.278,0,0,0,.105-.048.219.219,0,0,0-.038-.025,19.048,19.048,0,0,0-3.315-.6h-7.691a18.876,18.876,0,0,0-3.315.588c-.04.022-.053.043-.053.049s.031.057.119.08l.017,0a12.494,12.494,0,0,0,1.971.452.685.685,0,0,1,0,1.365,12.772,12.772,0,0,1-2.29-.5,1.455,1.455,0,0,1-.186-2.741.565.565,0,0,1,.078-.027,20.179,20.179,0,0,1,3.658-.639h7.691a20.818,20.818,0,0,1,3.658.654.575.575,0,0,1,.078.027,1.416,1.416,0,0,1-.179,2.684A11.885,11.885,0,0,1,331.319,1175.449Zm-15.832-3.2a1.248,1.248,0,0,1-.371-.057l-1.783-.555a2.74,2.74,0,0,1-1.666-1.524.711.711,0,0,1,.29-.912.6.6,0,0,1,.837.316,1.431,1.431,0,0,0,.883.808l1.783.555a.1.1,0,0,0,.117-.043l.284-.416a.124.124,0,0,0,.02-.09.119.119,0,0,0-.045-.078l-2.854-2.2a.722.722,0,0,1-.15-.951.6.6,0,0,1,.873-.163l2.854,2.2a1.5,1.5,0,0,1,.559.978,1.573,1.573,0,0,1-.252,1.118l-.284.416A1.336,1.336,0,0,1,315.487,1172.251Zm21.263-.069a1.336,1.336,0,0,1-1.1-.6l-.283-.415a1.573,1.573,0,0,1-.252-1.118,1.494,1.494,0,0,1,.558-.978l2.854-2.2a.6.6,0,0,1,.874.163.722.722,0,0,1-.15.951l-2.854,2.2a.119.119,0,0,0-.045.078.124.124,0,0,0,.02.09l.284.416a.106.106,0,0,0,.118.043l1.782-.555a1.433,1.433,0,0,0,.883-.808.6.6,0,0,1,.837-.316.711.711,0,0,1,.29.912,2.74,2.74,0,0,1-1.666,1.524l-1.782.555A1.248,1.248,0,0,1,336.75,1172.182Zm-10.564-5.837c-5.445,0-8.051-.908-8.72-1.186l0,0a.64.64,0,0,1-.325-.282.736.736,0,0,1-.066-.569,6.4,6.4,0,0,1,1.983-3.1.593.593,0,0,1,.879.119.724.724,0,0,1-.109.958,4.946,4.946,0,0,0-1.332,1.811,26.557,26.557,0,0,0,7.693.891,30.458,30.458,0,0,0,7.712-.9,4.633,4.633,0,0,0-1.438-1.907.723.723,0,0,1-.142-.953.594.594,0,0,1,.875-.155,6.015,6.015,0,0,1,2.113,3.253.734.734,0,0,1-.078.558.637.637,0,0,1-.324.274l-.006,0C334.223,1165.436,331.6,1166.345,326.185,1166.345Zm8.608-1.16h0Zm0,0h0Zm0,0h0Z" transform="translate(-309.638 -1157.913)" fill="#2d7f84" stroke="#477d83" stroke-width="0.25"/>
    </g>
    <g id="Group_56" data-name="Group 56" transform="translate(251.265 932.699)">
      <path id="Path_107" data-name="Path 107" d="M254.638,991.6a.694.694,0,0,1-.594-.318,18.453,18.453,0,0,1-2.78-9.7,18.74,18.74,0,0,1,4.716-12.32,21.69,21.69,0,0,1,11.817-6.816.686.686,0,0,1,.817.473.63.63,0,0,1-.513.753,20.3,20.3,0,0,0-11.059,6.379,17.539,17.539,0,0,0-4.413,11.529,17.269,17.269,0,0,0,2.6,9.081.6.6,0,0,1-.255.858A.723.723,0,0,1,254.638,991.6Z" transform="translate(-251.265 -959.725)" fill="#2d7f84" stroke="#477d83" stroke-width="0.25"/>
      <path id="Path_108" data-name="Path 108" d="M496.6,986.006a.725.725,0,0,1-.323-.075.605.605,0,0,1-.277-.852,17.272,17.272,0,0,0,2.369-8.7,17.564,17.564,0,0,0-5.837-12.992,20.677,20.677,0,0,0-14.091-5.381.631.631,0,1,1,0-1.258A22.093,22.093,0,0,1,493.5,962.5a18.766,18.766,0,0,1,6.236,13.882,18.459,18.459,0,0,1-2.532,9.293A.693.693,0,0,1,496.6,986.006Z" transform="translate(-459.732 -954.561)" fill="#2d7f84" stroke="#477d83" stroke-width="0.25"/>
      <path id="Path_109" data-name="Path 109" d="M476.433,938.4a.681.681,0,0,1-.483-.2l-2.17-2.17a.683.683,0,0,1,0-.965l2.17-2.17a.682.682,0,1,1,.965.965l-1.688,1.688,1.688,1.688a.682.682,0,0,1-.483,1.165Z" transform="translate(-454.689 -932.699)" fill="#2d7f84" stroke="#477d83" stroke-width="0.25"/>
    </g>
    <path id="Path_110" data-name="Path 110" d="M293.862,1367.012h-38a.684.684,0,0,1,0-1.365h38a.684.684,0,0,1,0,1.365Z" transform="translate(-3.598 -396.025)" fill="#2d7f84" stroke="#477d83" stroke-width="0.25"/>
  </g>
</svg>
