<svg xmlns="http://www.w3.org/2000/svg" width="41.132" height="30.754" viewBox="0 0 41.132 30.754">
  <g id="Group_76" data-name="Group 76" transform="translate(-222.673 -383.952)">
    <path id="Path_189" data-name="Path 189" d="M238.631,402.491a.8.8,0,1,1-.8-.8.8.8,0,0,1,.8.8Zm0,0" transform="translate(-3.469 -4.287)" fill="#2d7f84"/>
    <path id="Path_190" data-name="Path 190" d="M244.681,406.022a.8.8,0,1,1-.8-.8.8.8,0,0,1,.8.8Zm0,0" transform="translate(-4.931 -5.141)" fill="#2d7f84"/>
    <path id="Path_191" data-name="Path 191" d="M250.708,399.455a.8.8,0,1,1-.8-.8.8.8,0,0,1,.8.8Zm0,0" transform="translate(-6.388 -3.553)" fill="#2d7f84"/>
    <path id="Path_192" data-name="Path 192" d="M256.616,402.069a.8.8,0,1,1-.8-.8.8.8,0,0,1,.8.8Zm0,0" transform="translate(-7.816 -4.185)" fill="#2d7f84"/>
    <path id="Path_193" data-name="Path 193" d="M262.455,394.587a.8.8,0,1,1-.8-.8.8.8,0,0,1,.8.8Zm0,0" transform="translate(-9.228 -2.376)" fill="#2d7f84"/>
    <path id="Path_194" data-name="Path 194" d="M263,408.062H246.733a.8.8,0,0,0-.8.8,1.357,1.357,0,0,1-1.356,1.355h-2.69a1.357,1.357,0,0,1-1.355-1.355.8.8,0,0,0-.8-.8H227.078v-20.81a1.7,1.7,0,0,1,1.694-1.693h28.934a1.7,1.7,0,0,1,1.693,1.693v15.466a.8.8,0,1,0,1.607,0V387.252a3.3,3.3,0,0,0-3.3-3.3H228.772a3.3,3.3,0,0,0-3.3,3.3v20.81h-2a.8.8,0,0,0-.8.8v1.262a4.583,4.583,0,0,0,4.578,4.578h31.977a4.583,4.583,0,0,0,4.577-4.578v-1.262a.8.8,0,0,0-.8-.8Zm-.8,2.066a2.975,2.975,0,0,1-2.971,2.971H227.251a2.974,2.974,0,0,1-2.971-2.971v-.459h14.752a2.968,2.968,0,0,0,2.851,2.159h2.69a2.967,2.967,0,0,0,2.852-2.159H262.2Zm0,0" transform="translate(0 0)" fill="#2d7f84"/>
    <path id="Path_195" data-name="Path 195" d="M258.938,388.471H231.869a.8.8,0,0,0-.8.8v17.3a.8.8,0,0,0,.8.8h27.069a.8.8,0,0,0,.8-.8v-17.3a.8.8,0,0,0-.8-.8Zm-.8,17.3h-2.879v-9.627a.8.8,0,1,0-1.606,0v9.627h-2.91V402.2a.8.8,0,0,0-1.606,0v3.575h-2.91v-5.43a.8.8,0,1,0-1.607,0v5.43h-2.909V405a.8.8,0,1,0-1.607,0v.775h-2.91V402.59a.8.8,0,1,0-1.606,0v3.186h-2.913v-15.7h25.463Zm0,0" transform="translate(-2.028 -1.092)" fill="#2d7f84"/>
    <path id="Path_196" data-name="Path 196" d="M272.589,412.584a.8.8,0,1,1-.8-.8.8.8,0,0,1,.8.8Zm0,0" transform="translate(-11.677 -6.727)" fill="#2d7f84"/>
  </g>
</svg>
