<svg xmlns="http://www.w3.org/2000/svg" width="110.69" height="91.429" viewBox="0 0 110.69 91.429">
  <path id="Union_1" data-name="Union 1" d="M85.438,85.625V66.38a19.287,19.287,0,0,1-2.911-1.086H5.108A5.114,5.114,0,0,1,0,60.187V10.453A5.115,5.115,0,0,1,5.108,5.343H7.273V1.621A1.621,1.621,0,0,1,8.894,0H32.377A77.437,77.437,0,0,1,47.712,1.539l3.713.752,3.719-.752A77.173,77.173,0,0,1,70.472,0H93.956a1.622,1.622,0,0,1,1.621,1.621V5.343h2.165a5.115,5.115,0,0,1,5.108,5.109v22a19.443,19.443,0,0,1-6.809,33.924V85.625a5.3,5.3,0,1,1-10.6,0Zm3.243,0a2.06,2.06,0,1,0,4.12,0V67.006q-.441.047-.889.073l-.027,0-.044,0a19.167,19.167,0,0,1-2.2,0l-.045,0-.026,0q-.447-.027-.889-.073Zm-1.289-22.1a16.327,16.327,0,0,0,6.7,0l.067-.013a16.207,16.207,0,1,0-6.823,0Zm-9.728-1.473a19.582,19.582,0,0,1-3.784-4.7H63.388a4,4,0,0,0-4,4,3.954,3.954,0,0,1-.063.7Zm-22.218,0a.7.7,0,0,0,.7-.7,7.246,7.246,0,0,1,7.237-7.239h9a19.463,19.463,0,0,1,.344-13.791h-9.84a1.621,1.621,0,0,1,0-3.243H74.434a19.6,19.6,0,0,1,5.81-5.777H62.893a1.62,1.62,0,1,1,0-3.241H89.857a1.613,1.613,0,0,1,.7.16h.181q.805,0,1.595.065V3.242H70.472A74.258,74.258,0,0,0,55.786,4.714l-2.739.556V55.732a1.622,1.622,0,0,1-3.244,0V5.271l-2.736-.555A74.129,74.129,0,0,0,32.377,3.242H10.515V54.109H39.462A7.247,7.247,0,0,1,46.7,61.348a.7.7,0,0,0,.7.7Zm-52.2-51.6V60.187a1.867,1.867,0,0,0,1.866,1.864H43.521a3.953,3.953,0,0,1-.063-.7,4,4,0,0,0-4-4H8.894a1.622,1.622,0,0,1-1.621-1.621V8.587H5.108A1.868,1.868,0,0,0,3.242,10.453ZM99.609,30.359V10.453a1.869,1.869,0,0,0-1.867-1.866H95.577V28.825A19.32,19.32,0,0,1,99.609,30.359ZM77.027,47.666A13.713,13.713,0,1,1,90.741,61.38,13.73,13.73,0,0,1,77.027,47.666Zm3.242,0A10.472,10.472,0,1,0,90.741,37.2,10.484,10.484,0,0,0,80.268,47.666ZM18.136,40.318a1.621,1.621,0,0,1,0-3.243H39.957a1.621,1.621,0,0,1,0,3.243Zm0-9.02a1.62,1.62,0,1,1,0-3.241H39.957a1.62,1.62,0,1,1,0,3.241Zm44.757-9.017a1.621,1.621,0,0,1,0-3.242H84.715a1.621,1.621,0,1,1,0,3.242Zm-44.757,0a1.621,1.621,0,0,1,0-3.242H39.957a1.621,1.621,0,1,1,0,3.242Zm44.757-9.02a1.621,1.621,0,0,1,0-3.242H84.715a1.621,1.621,0,1,1,0,3.242Zm-44.757,0a1.621,1.621,0,0,1,0-3.242H39.957a1.621,1.621,0,0,1,0,3.242Z" transform="translate(0.25 0.25)" fill="#003f72" stroke="#fff" stroke-width="0.5"/>
</svg>
