<svg xmlns="http://www.w3.org/2000/svg" width="39.519" height="40.332" viewBox="0 0 39.519 40.332">
  <g id="Group_75" data-name="Group 75" transform="translate(-223.22 -138.388)">
    <path id="Path_180" data-name="Path 180" d="M253.278,138.389H227.406a4.191,4.191,0,0,0-4.186,4.153v33.227a2.955,2.955,0,0,0,2.951,2.951H247.6a2.954,2.954,0,0,0,2.95-2.951V151.154H255.4a1.952,1.952,0,0,0,1.95-1.95v-6.56a4.251,4.251,0,0,0-4.069-4.255Zm-4.3,4.152v33.227a1.377,1.377,0,0,1-1.376,1.376H226.171a1.377,1.377,0,0,1-1.376-1.376V142.574a2.614,2.614,0,0,1,2.611-2.611h22.482a4.144,4.144,0,0,0-.912,2.578Zm6.8,6.663a.374.374,0,0,1-.374.374h-4.846v-7a2.609,2.609,0,0,1,2.6-2.611h.081a2.665,2.665,0,0,1,2.536,2.68Zm0,0" fill="#2d7f84"/>
    <path id="Path_181" data-name="Path 181" d="M235.114,144.6a6.228,6.228,0,1,0,6.229,6.228,6.235,6.235,0,0,0-6.229-6.228Zm0,10.881a4.653,4.653,0,1,1,4.653-4.653,4.658,4.658,0,0,1-4.653,4.653Zm0,0" transform="translate(-1.453 -1.592)" fill="#2d7f84"/>
    <path id="Path_182" data-name="Path 182" d="M236.341,153.145a1.1,1.1,0,0,1,0-2.19.787.787,0,1,0,0-1.575,2.67,2.67,0,0,0,0,5.341.788.788,0,1,0,0-1.576Zm0,0" transform="translate(-2.68 -2.819)" fill="#2d7f84"/>
    <path id="Path_183" data-name="Path 183" d="M246.364,165.469H229.673a.788.788,0,0,0,0,1.576h16.691a.788.788,0,0,0,0-1.576Zm0,0" transform="translate(-1.453 -6.945)" fill="#2d7f84"/>
    <path id="Path_184" data-name="Path 184" d="M246.364,169.961H229.673a.787.787,0,1,0,0,1.575h16.691a.787.787,0,1,0,0-1.575Zm0,0" transform="translate(-1.453 -8.097)" fill="#2d7f84"/>
    <path id="Path_185" data-name="Path 185" d="M238.339,174.7h-8.665a.788.788,0,0,0,0,1.576h8.665a.788.788,0,0,0,0-1.576Zm0,0" transform="translate(-1.453 -9.314)" fill="#2d7f84"/>
    <path id="Path_186" data-name="Path 186" d="M270.677,172.663V170.3l1.33-2.6a.79.79,0,0,0,0-.711l-3.466-6.939a.787.787,0,0,0-.7-.436h0a.787.787,0,0,0-.7.439l-3.466,7a.789.789,0,0,0,.007.715L265,170.3v2.362a2.82,2.82,0,0,0-2.211,2.749c0,.027,0,.052,0,.078l.793,7.961a.788.788,0,0,0,.784.71h6.933a.788.788,0,0,0,.784-.71l.794-7.961c0-.025,0-.051,0-.078a2.82,2.82,0,0,0-2.211-2.749Zm-3.626-8.9v3.291a.788.788,0,0,0,1.576,0v-3.317l1.8,3.6-1.017,1.989h-3.138l-1.01-1.934Zm2.05,7.134v1.7h-2.523v-1.7Zm1.492,11.691h-5.506l-.718-7.208a1.242,1.242,0,0,1,1.24-1.205h4.464a1.241,1.241,0,0,1,1.239,1.205Zm0,0" transform="translate(-10.149 -5.442)" fill="#2d7f84"/>
    <path id="Path_187" data-name="Path 187" d="M238.543,184.851a.788.788,0,0,0-1.069-.312.471.471,0,0,1-.535-.058,2.047,2.047,0,0,0-2.046-.384l-1.332.483a.262.262,0,0,1-.257-.089l-.175-.189a1.829,1.829,0,0,0-1.9-.518l-1.555.484a.788.788,0,0,0,.468,1.5l1.555-.484a.261.261,0,0,1,.273.085l.175.189a1.832,1.832,0,0,0,1.881.523l.042-.014,1.359-.493a.467.467,0,0,1,.469.088,2.052,2.052,0,0,0,2.332.255.787.787,0,0,0,.312-1.069Zm0,0" transform="translate(-1.514 -11.621)" fill="#2d7f84"/>
    <path id="Path_188" data-name="Path 188" d="M244.4,185.32a.788.788,0,1,1-.787-.787.788.788,0,0,1,.787.787Zm0,0" transform="translate(-5.028 -11.834)" fill="#2d7f84"/>
  </g>
</svg>
