<svg xmlns="http://www.w3.org/2000/svg" width="37.796" height="43.611" viewBox="0 0 37.796 43.611">
  <g id="Group_66" data-name="Group 66" transform="translate(-2677.087 -223.469)">
    <g id="Group_64" data-name="Group 64" transform="translate(2677.087 223.469)">
      <path id="Path_121" data-name="Path 121" d="M2708.765,295.786h-30.983a.679.679,0,0,1-.695-.662V255.766a.679.679,0,0,1,.695-.662h30.983a.679.679,0,0,1,.694.662v11.853a.7.7,0,0,1-1.389,0V256.428h-29.594v38.033h29.594v-3.341a.7.7,0,0,1,1.389,0v4A.679.679,0,0,1,2708.765,295.786Z" transform="translate(-2677.087 -252.174)" fill="#2d7f84"/>
      <path id="Path_122" data-name="Path 122" d="M3043.98,640.358a.694.694,0,0,1-.694-.695v-3.087a.694.694,0,1,1,1.389,0v3.087A.694.694,0,0,1,3043.98,640.358Z" transform="translate(-3011.095 -599.677)" fill="#2d7f84"/>
      <path id="Path_123" data-name="Path 123" d="M2738.714,240.609a.677.677,0,0,1-.657-.695V224.858H2709.38a.7.7,0,0,1,0-1.389h29.335a.677.677,0,0,1,.658.695v15.751A.677.677,0,0,1,2738.714,240.609Z" transform="translate(-2705.792 -223.469)" fill="#2d7f84"/>
      <g id="Group_63" data-name="Group 63" transform="translate(20.748 17.003)">
        <path id="Path_124" data-name="Path 124" d="M2928.261,442.355a.7.7,0,0,1-.321-.079c-.335-.175-8.21-4.342-8.21-9.243,0-5.585.245-9.873.248-9.916a.695.695,0,0,1,.91-.62l.124.041a11.037,11.037,0,0,0,6.758.043l.273-.091a.7.7,0,0,1,.435,0l.377.124a11.031,11.031,0,0,0,6.76-.113.695.695,0,0,1,.92.624c0,.051.242,5.168.242,9.908,0,4.57-6.226,8.206-8.135,9.211l-.049.026A.7.7,0,0,1,2928.261,442.355Zm-6.941-18.278c-.071,1.527-.2,4.894-.2,8.956,0,2.065,1.982,4.11,3.645,5.462a26.282,26.282,0,0,0,3.5,2.376,23.886,23.886,0,0,0,3.779-2.535c1.525-1.269,3.343-3.219,3.343-5.3,0-3.536-.134-7.285-.2-8.953a12.446,12.446,0,0,1-6.745-.14l-.013,0-.166-.055-.064.021A12.461,12.461,0,0,1,2921.32,424.077Z" transform="translate(-2919.73 -422.455)" fill="#2d7f84"/>
        <path id="Path_125" data-name="Path 125" d="M2970.782,486.518a.692.692,0,0,1-.491-.2l-1.889-1.889a.695.695,0,0,1,.982-.982l1.4,1.4,5.05-5.049a.695.695,0,0,1,.982.982l-5.541,5.541A.693.693,0,0,1,2970.782,486.518Z" transform="translate(-2963.71 -474.297)" fill="#2d7f84"/>
      </g>
    </g>
    <g id="Group_65" data-name="Group 65" transform="translate(2681.743 230.248)">
      <path id="Path_126" data-name="Path 126" d="M2740.542,305.815a2.437,2.437,0,1,1,2.437-2.437A2.44,2.44,0,0,1,2740.542,305.815Zm0-3.485a1.048,1.048,0,1,0,1.048,1.048A1.049,1.049,0,0,0,2740.542,302.33Z" transform="translate(-2737.111 -300.941)" fill="#2d7f84"/>
      <path id="Path_127" data-name="Path 127" d="M2733.536,345.841a.7.7,0,0,1-.695-.695v-1.778a2.042,2.042,0,1,0-4.084,0v1.778a.695.695,0,0,1-1.389,0v-1.778a3.431,3.431,0,1,1,6.863,0v1.778A.7.7,0,0,1,2733.536,345.841Z" transform="translate(-2727.368 -336.326)" fill="#2d7f84"/>
    </g>
    <path id="Path_128" data-name="Path 128" d="M2843.754,313.157h-8.307a.695.695,0,1,1,0-1.389h8.307a.695.695,0,1,1,0,1.389Z" transform="translate(-143.908 -80.489)" fill="#2d7f84"/>
    <path id="Path_129" data-name="Path 129" d="M2847.748,356.279h-12.3a.695.695,0,1,1,0-1.389h12.3a.695.695,0,1,1,0,1.389Z" transform="translate(-144.038 -119.797)" fill="#2d7f84"/>
    <path id="Path_130" data-name="Path 130" d="M2735.949,438.212h-8.306a.695.695,0,1,1,0-1.389h8.306a.695.695,0,0,1,0,1.389Z" transform="translate(-45.244 -194.484)" fill="#2d7f84"/>
    <path id="Path_131" data-name="Path 131" d="M2742.165,481.334h-14.522a.695.695,0,1,1,0-1.389h14.522a.695.695,0,1,1,0,1.389Z" transform="translate(-45.244 -233.792)" fill="#2d7f84"/>
    <path id="Path_132" data-name="Path 132" d="M2742.165,522.732h-14.522a.695.695,0,0,1,0-1.389h14.522a.695.695,0,1,1,0,1.389Z" transform="translate(-45.244 -271.529)" fill="#2d7f84"/>
    <path id="Path_133" data-name="Path 133" d="M2742.165,564.13h-14.522a.695.695,0,1,1,0-1.389h14.522a.695.695,0,1,1,0,1.389Z" transform="translate(-45.244 -309.265)" fill="#2d7f84"/>
    <path id="Path_134" data-name="Path 134" d="M2730.681,646.925h-3.039a.695.695,0,1,1,0-1.389h3.039a.695.695,0,1,1,0,1.389Z" transform="translate(-45.244 -384.967)" fill="#2d7f84"/>
    <path id="Path_135" data-name="Path 135" d="M2798.816,646.925h-3.039a.695.695,0,1,1,0-1.389h3.039a.695.695,0,0,1,0,1.389Z" transform="translate(-107.604 -384.967)" fill="#2d7f84"/>
  </g>
</svg>
