<?xml version="1.0" encoding="UTF-8"?>
<svg width="22px" height="29px" viewBox="0 0 22 29" version="1.1" xmlns="http://www.w3.org/2000/svg" xmlns:xlink="http://www.w3.org/1999/xlink">
    <title>location</title>
    <g id="Page-1" stroke="none" stroke-width="1" fill="none" fill-rule="evenodd">
        <g id="location" fill="#FFFFFF" fill-rule="nonzero">
            <path d="M10.792,-2.84217094e-14 C4.83318132,0.0044126904 0.00386056449,4.83418093 -3.55271368e-15,10.793 C-3.55271368e-15,15.046 1.78,19.347 5.148,23.233 C6.65081588,24.9812412 8.36917844,26.5319341 10.262,27.848 C10.5834718,28.0589924 10.9995282,28.0589924 11.321,27.848 C13.2139959,26.5321538 14.9323848,24.9814371 16.435,23.233 C19.804,19.348 21.584,15.047 21.584,10.793 C21.5801394,4.83418093 16.7508187,0.0044126904 10.792,-2.84217094e-14 L10.792,-2.84217094e-14 Z M10.792,25.851 C8.807,24.372 1.935,18.68 1.935,10.794 C1.935,7.62969863 3.62313458,4.70576355 6.36349995,3.12361284 C9.10386531,1.54146214 12.4801347,1.54146214 15.2205001,3.12361284 C17.9608654,4.70576355 19.649,7.62969863 19.649,10.794 C19.649,18.68 12.777,24.372 10.792,25.851 L10.792,25.851 Z" id="Path_512"></path>
            <path d="M10.788,6.50699988 C9.0551928,6.50659552 7.49278406,7.55010212 6.82938717,9.15089115 C6.16599027,10.7516802 6.53226425,12.5944689 7.75740098,13.8198917 C8.9825377,15.0453145 10.8252409,15.4120187 12.4261848,14.7489955 C14.0271286,14.0859723 15.071,12.5238072 15.071,10.791 C15.0682459,8.42654417 13.1524551,6.5103061 10.788,6.50699988 L10.788,6.50699988 Z M10.788,13.1390002 C9.49123558,13.1395522 8.43955267,12.0887646 8.43900021,10.7920001 C8.43844818,9.49523572 9.48923572,8.44355275 10.7860001,8.44300021 C12.0827646,8.4424481 13.1344476,9.49323558 13.135,10.79 C13.1338993,12.0860801 12.0840787,13.1367953 10.788,13.1390002 L10.788,13.1390002 Z" id="Path_513"></path>
        </g>
    </g>
</svg>