<?xml version="1.0" encoding="UTF-8"?>
<svg width="400px" height="384px" viewBox="0 0 400 384" version="1.1" xmlns="http://www.w3.org/2000/svg" xmlns:xlink="http://www.w3.org/1999/xlink">
    <title>shape 1</title>
    <g id="Page-1" stroke="none" stroke-width="1" fill="none" fill-rule="evenodd">
        <g id="shape-1" fill="#FFFFFF" fill-rule="nonzero">
            <g id="Group_6">
                <path d="M45.2606061,250.213333 C52.5947783,275.938686 66.2981116,299.399026 85.1030303,318.424242 C123.352727,357.629091 169.570909,379.621818 224.392727,381.534545 C262.96,382.809697 298.021818,371.973333 328.30303,347.427879 C354.121212,326.390303 370.058182,298.979394 378.664242,267.427879 C386.463677,238.730362 387.447421,208.607062 381.53697,179.461818 L376.756364,156.511515 C369.105455,125.275152 352.850909,99.7842424 329.26303,78.4193939 C319.997559,69.5972056 309.727549,61.8942914 298.664242,55.4690909 C289.601036,50.8246433 280.10012,47.0892403 270.300606,44.3175758 C243.207273,35.7115152 215.158788,33.1660606 187.107879,33.7987879 C158.744242,34.1163636 135.151515,45.5927273 114.753939,64.3975758 C99.1648963,79.1817034 85.9420793,96.2752114 75.5490909,115.078788 C66.6254545,131.015758 57.6993939,147.590303 50.0484848,164.164848 C42.7510457,181.031311 39.477691,199.364255 40.4872727,217.713939 C40.5112449,228.719952 42.11883,239.665247 45.2606061,250.213333 Z M238.099394,272.843636 C235.549091,273.481212 233.008485,274.436364 230.448485,275.073939 C227.605024,275.654625 224.732098,276.080304 221.842424,276.349091 C198.959605,279.847052 175.687142,273.215728 158.084848,258.181818 C152.870735,254.22572 148.981786,248.778655 146.933333,242.562424 C145.310036,237.251583 144.137398,231.813332 143.427879,226.305455 C141.601899,207.756102 146.586647,189.175958 157.452121,174.031515 C174.664242,148.213333 197.93697,132.593939 229.806061,131.638788 C256.579394,130.683636 277.93697,140.562424 292.593939,163.512727 C295.081724,167.747648 296.804966,172.387269 297.684848,177.219394 C300.872727,196.024242 297.684848,213.873939 290.671515,231.406061 C285.494068,244.358208 276.048283,255.153635 263.898182,262.004848 C255.967102,267.037002 247.246947,270.700926 238.101818,272.843636 L238.099394,272.843636 Z M141.522424,153.316364 C129.090909,142.164848 116.659394,130.686061 103.592727,118.892121 C112.516364,108.373333 120.804848,98.4921212 129.410909,88.2933333 C131.961212,91.7987879 134.191515,94.9866667 136.424242,97.8545455 C145.350303,108.690909 154.591515,119.529697 161.287273,131.961212 C161.924848,133.236364 162.562424,133.873939 160.967273,135.149091 C154.909091,140.567273 148.535758,146.62303 141.522424,153.316364 Z M288.458182,341.054545 C288.168031,340.225756 287.954609,339.372069 287.820606,338.504242 C286.879348,332.641381 284.589741,327.077116 281.132121,322.249697 C278.564335,318.57048 276.22225,314.738788 274.118788,310.775758 C270.108257,303.258987 268.867458,294.571679 270.613333,286.232727 C270.841434,285.29764 271.277275,284.425957 271.888485,283.682424 C275.393939,281.769697 278.901818,280.17697 282.087273,278.591515 C287.178182,283.682424 291.968485,288.152727 296.431515,293.253333 C300.595053,297.527501 304.430561,302.109364 307.905455,306.96 C311.410909,312.050909 313.643636,318.433939 320.026667,321.621818 C310.636885,329.781539 299.972553,336.346221 288.458182,341.054545 L288.458182,341.054545 Z M170.846061,127.178182 C165.427879,119.209697 160.009697,111.241212 154.271515,103.905455 C148.533333,96.2545455 142.477576,88.9236364 136.741818,81.6024242 C142.605778,74.6272543 149.88489,68.9776588 158.09697,65.0278788 C163.187879,62.4775758 163.515152,62.4775758 166.385455,67.2581818 C176.266667,82.5575758 179.772121,100.407273 186.147879,117.301818 C181.047273,120.795152 175.946667,123.990303 170.846061,127.178182 Z M132.916364,325.437576 C138.654545,320.346667 143.435152,316.193939 148.215758,312.050909 C153.953939,307.270303 160.009697,302.489697 166.065455,297.706667 C168.059489,296.039819 170.192525,294.546694 172.441212,293.243636 C173.216817,292.807565 174.132652,292.693521 174.991515,292.926061 C177.859394,293.881212 180.729697,294.838788 184.235152,296.113939 C178.174545,307.587879 176.266667,320.339394 174.353939,332.768485 C174.353939,333.406061 174.036364,333.723636 173.716364,334.361212 C172.454437,336.767321 171.071662,339.108087 169.573333,341.374545 C168.728692,342.622387 167.079951,343.03405 165.747879,342.329697 C162.56,340.73697 159.054545,339.779394 155.866667,338.186667 C148.535758,333.723636 141.202424,329.900606 132.916364,325.437576 Z M234.276364,296.104242 C237.781818,314.909091 241.289697,333.716364 245.112727,352.831515 C234.276364,352.831515 224.075152,353.151515 213.556364,353.151515 C213.943266,352.002788 214.262202,350.832278 214.511515,349.646061 C216.891302,342.22157 218.17991,334.490742 218.33697,326.695758 C218.225382,317.544726 219.405498,308.423718 221.842424,299.602424 C222.310603,298.815385 222.968112,298.157876 223.755152,297.689697 C227.26303,297.386667 230.761212,296.749091 234.276364,296.113939 L234.276364,296.104242 Z M97.8545455,126.855758 C110.923636,138.649697 123.672727,150.128485 135.784242,161.28 C133.233939,165.74303 130.693333,170.203636 128.453333,174.029091 C113.153939,167.968485 97.5345455,161.597576 81.28,155.224242 C87.0181818,145.665455 92.4363636,136.421818 97.8545455,126.855758 Z M175.309091,60.8751515 C175.481078,60.7022931 175.705085,60.5907155 175.946667,60.5575758 C186.145455,60.24 196.346667,59.92 206.865455,59.92 C207.50303,59.92 208.458182,61.1951515 208.778182,61.8327273 C210.370909,68.8460606 209.415758,75.8569697 209.095758,82.870303 C208.882866,88.5033003 208.988894,94.1438314 209.413333,99.7648485 C209.789166,102.870781 210.320745,105.955878 211.006061,109.008485 C208.178016,109.900744 205.305443,110.645186 202.4,111.238788 C195.706667,113.151515 195.706667,113.151515 193.476364,106.775758 C191.246061,99.7624242 189.333333,92.4315152 186.78303,85.4206061 C182.96,77.4545455 178.814545,69.1587879 175.309091,60.88 L175.309091,60.8751515 Z M326.712727,314.281212 C324.482424,311.730909 322.249697,309.500606 320.33697,306.950303 C318.424242,304.72 317.469091,301.859394 315.556364,299.619394 C309.495758,292.606061 303.124848,285.912727 296.751515,279.219394 C294.521212,276.989091 292.288485,274.438788 290.058182,272.206061 C293.563636,268.380606 296.751515,264.875152 300.25697,261.054545 C302.807273,265.197576 306.950303,266.792727 310.775758,268.705455 C314.067114,270.320956 317.259787,272.130191 320.33697,274.123636 C325.117576,277.311515 329.898182,280.499394 334.998788,283.367273 C337.866667,284.96 340.73697,286.235152 343.924848,287.830303 C339.711749,297.550304 333.893146,306.492104 326.712727,314.281212 L326.712727,314.281212 Z M178.179394,346.475152 C182.943436,340.233274 185.620397,332.6494 185.830303,324.8 C185.885783,323.189432 186.099334,321.588209 186.467879,320.019394 C188.380606,313.958788 189.973333,307.587879 191.886061,301.532121 C193.161212,297.706667 193.798788,297.706667 197.624242,298.026667 C201.449697,298.346667 205.275152,298.344242 209.418182,298.664242 C210.490242,298.626643 211.562487,298.73346 212.606061,298.981818 C208.14303,309.818182 209.100606,320.974545 208.14303,331.813333 C207.461876,338.691553 205.853771,345.446081 203.362424,351.893333 C194.751515,350.298182 186.78303,348.385455 178.17697,346.475152 L178.179394,346.475152 Z M348.707879,279.219394 C341.468772,276.234049 334.618699,272.381239 328.307879,267.745455 C323.935874,263.996859 318.984159,260.983092 313.646061,258.821818 C311.161246,257.350912 308.99392,255.400318 307.270303,253.083636 C306.832841,252.426468 306.715264,251.606991 306.950303,250.853333 C309.500606,245.762424 312.041212,240.334545 314.598788,235.553939 C328.305455,240.972121 342.009697,246.072727 356.353939,251.490909 C353.806061,260.732121 351.246061,269.658182 348.705455,279.219394 L348.707879,279.219394 Z M278.904242,344.242424 L278.584242,344.56 C271.253333,346.472727 263.602424,348.70303 256.281212,350.620606 C255.963636,350.620606 254.688485,349.98303 254.688485,349.345455 C253.867004,346.305176 253.228286,343.218442 252.775758,340.101818 C251.557503,328.92044 249.532015,317.841834 246.715152,306.952727 C245.871966,303.069934 245.339373,299.126152 245.122424,295.158788 C245.122424,294.521212 245.44,293.246061 246.077576,292.928485 C250.858182,291.335758 255.638788,289.740606 260.101818,288.147879 C260.739394,293.886061 261.05697,299.299394 262.014545,304.722424 C263.607273,313.328485 268.390303,320.021818 273.166061,326.715152 C276.116143,332.165042 278.058386,338.102636 278.899394,344.242424 L278.904242,344.242424 Z M322.567273,207.50303 C328.627879,208.140606 334.361212,208.778182 340.41697,209.733333 C346.477576,210.370909 352.210909,211.326061 358.904242,212.283636 C358.584242,221.844848 358.266667,231.408485 357.949091,241.289697 C349.02303,239.37697 323.524848,229.168485 318.433939,225.670303 C319.699394,219.294545 321.294545,213.238788 322.567273,207.50303 Z M247.025455,65.0230303 C245.432727,69.4860606 244.157576,73.3115152 242.562424,77.1442424 C239.05697,86.3878788 235.869091,95.3115152 232.363636,104.555152 C231.969789,105.513379 231.140392,106.224677 230.133333,106.467879 L220.572121,107.42303 C218.61112,101.136918 217.748388,94.5598129 218.021818,87.9806061 C218.659394,81.6048485 218.97697,75.2315152 219.29697,68.5381818 C219.230411,65.8723549 219.017566,63.2121913 218.659394,60.569697 C228.220606,62.1551515 237.464242,63.430303 247.025455,65.0230303 Z M121.76,196.984242 C104.865455,192.841212 87.9733333,189.015758 71.0787879,184.86303 C73.3090909,178.169697 75.5418182,171.793939 77.4545455,165.420606 C93.3915152,172.751515 110.286061,176.894545 124.947879,185.500606 C123.614311,189.248056 122.548996,193.085619 121.76,196.984242 L121.76,196.984242 Z M324.162424,178.81697 C324.334412,178.644111 324.558419,178.532534 324.8,178.499394 C334.043636,177.224242 342.967273,175.949091 352.210909,174.673939 C352.848485,174.673939 353.803636,175.629091 354.123636,176.266667 C355.078788,180.092121 356.036364,183.917576 356.673939,188.060606 C357.311515,192.523636 357.949091,196.984242 358.586667,201.767273 C356.993939,201.767273 355.718788,201.449697 354.443636,201.449697 C346.475152,200.494545 338.824242,199.53697 330.855758,198.261818 C328.94303,197.944242 327.350303,197.624242 325.764848,197.306667 C325.127273,197.306667 324.489697,196.351515 324.489697,195.713939 C323.899182,190.10043 323.789692,184.446709 324.162424,178.814545 L324.162424,178.81697 Z M162.56,287.507879 C156.499394,292.598788 150.128485,297.389091 144.392727,302.489697 L127.180606,317.789091 C126.79682,318.384928 126.13662,318.744984 125.427879,318.744984 C124.719138,318.744984 124.058938,318.384928 123.675152,317.789091 C121.762424,315.876364 119.532121,314.283636 117.614545,312.698182 C114.746667,310.147879 111.876364,307.28 108.690909,304.412121 C114.751515,301.224242 120.164848,298.351515 125.90303,295.806061 C133.233939,292.618182 140.564848,289.745455 147.895758,286.244848 C155.226667,282.744242 154.909091,282.407273 162.56,287.507879 L162.56,287.507879 Z M68.8484848,194.433939 C86.3781818,198.57697 103.272727,202.722424 120.164848,206.555152 L119.209697,216.116364 C101.68,214.841212 84.4678788,215.161212 66.9357576,210.055758 C67.5733333,205.270303 68.2109091,200.172121 68.8484848,194.433939 Z M130.046061,260.732121 C128.453333,261.049697 127.178182,261.369697 125.58303,261.687273 L102.632727,266.467879 C97.2145455,267.74303 92.1139394,269.335758 87.0133333,270.930909 C85.7381818,271.248485 84.7830303,271.248485 84.1454545,269.975758 L80.32,263.282424 C78.7272727,260.414545 77.1321212,257.221818 75.8569697,254.356364 C92.4315152,252.443636 108.368485,250.530909 124.305455,248.618182 C126.22303,252.763636 128.135758,256.589091 130.048485,260.732121 L130.046061,260.732121 Z M145.027879,276.031515 C143.998333,276.626205 142.933763,277.158085 141.84,277.624242 C133.233939,281.449697 124.627879,285.275152 116.339394,289.418182 C111.876364,291.330909 107.733333,293.243636 103.270303,295.156364 C102.411439,295.388904 101.495605,295.27486 100.72,294.838788 C97.2145455,290.375758 94.0266667,285.595152 89.8836364,280.17697 C102.004848,277.309091 113.156364,274.438788 124.307879,271.570909 C128.133333,270.615758 131.958788,269.978182 135.781818,269.340606 C136.419394,269.340606 137.694545,269.340606 138.012121,269.658182 C140.247273,271.888485 142.477576,273.801212 145.027879,276.031515 Z M67.5733333,225.037576 C70.7612121,225.675152 72.9915152,226.312727 75.2242424,226.630303 C80.9624242,227.585455 86.6981818,228.54303 92.4363636,229.180606 C101.042424,229.818182 109.330909,230.135758 117.93697,230.773333 C118.892121,230.773333 120.167273,231.410909 120.167273,231.728485 C120.799064,234.239996 121.22552,236.798735 121.442424,239.379394 C104.867879,241.609697 88.6109091,244.16 71.7187879,244.470303 C70.1236364,237.781818 68.8484848,231.726061 67.5733333,225.037576 Z M272.215758,72.9915152 C265.522424,84.4654545 259.146667,95.9418182 252.453333,107.733333 C249.90303,107.415758 246.392727,106.778182 242.572121,106.140606 C247.352727,93.0715152 252.133333,80.3224242 256.916364,67.2533333 C261.856956,69.5663015 266.972695,71.4850077 272.215758,72.9915152 L272.215758,72.9915152 Z M350.945455,164.470303 C341.064242,166.06303 331.820606,167.338182 322.259394,168.933333 C320.346667,163.842424 318.753939,158.734545 316.841212,153.313939 C325.447273,150.126061 334.370909,146.938182 343.29697,143.752727 C345.837576,150.766061 348.385455,157.459394 350.935758,164.472727 L350.945455,164.470303 Z M286.550303,79.6872727 C291.330909,82.5551515 295.793939,85.4254545 300.574545,88.2933333 C293.243636,98.1745455 286.230303,107.735758 279.219394,117.299394 C275.393939,115.706667 271.568485,114.111515 267.425455,112.208485 C273.801212,101.36 279.85697,90.8412121 286.550303,79.6872727 Z M321.292121,106.780606 C313.323636,114.749091 305.672727,122.08 298.341818,129.730909 C295.153939,127.500606 291.966061,124.950303 288.14303,122.4 C294.836364,113.156364 301.529697,103.912727 308.54303,94.3515152 C312.688485,98.4921212 317.149091,102.635152 321.294545,106.778182 L321.292121,106.780606 Z M339.141818,134.829091 C331.810909,137.379394 325.435152,139.609697 318.741818,142.16 C316.191515,143.115152 313.323636,144.710303 311.410909,144.072727 C309.180606,143.435152 307.905455,140.247273 306.32,138.334545 C305.997727,137.626037 305.997727,136.812751 306.32,136.104242 C313.013333,129.090909 319.706667,122.08 327.037576,114.749091 C331.444611,121.211303 335.486488,127.915121 339.144242,134.829091 L339.141818,134.829091 Z" id="Path_59"></path>
                <path d="M0,194.758788 C2.23030303,200.819394 6.69333333,204.32 12.4315152,203.364848 C20.0824242,202.089697 22.950303,199.539394 23.5830303,192.528485 C24.0685181,189.113525 23.3950549,185.634392 21.670303,182.647273 C19.5458825,178.689922 15.3178492,176.32525 10.8339394,176.586667 C5.79141203,177.032774 1.5771879,180.60792 0.315151515,185.510303 C0,188.698182 0,191.883636 0,194.758788 Z" id="Path_60"></path>
                <path d="M344.242424,39.5248485 C342.329697,32.8315152 333.723636,28.3733333 326.712727,30.2812121 C321.294545,31.8739394 317.469091,39.2048485 319.061818,45.2630303 C320.974545,51.3236364 330.213333,56.0993939 336.911515,54.1866667 C339.860401,53.2606036 342.306524,51.1762398 343.688806,48.4116757 C345.071088,45.6471116 345.270905,42.4395947 344.242424,39.5248485 L344.242424,39.5248485 Z" id="Path_61"></path>
                <path d="M17.2121212,237.459394 C20.0070806,236.909773 22.4496669,235.227301 23.9594035,232.811814 C25.4691402,230.396327 25.9112282,227.463496 25.1806061,224.710303 C23.5381403,219.04497 17.9307875,215.492156 12.1066667,216.426667 C7.01575758,218.019394 3.81818182,224.715152 5.41333333,230.450909 C5.76785807,233.102256 7.31612401,235.445614 9.61593483,236.811702 C11.9157457,238.177791 14.7142305,238.416405 17.2121212,237.459394 Z" id="Path_62"></path>
                <path d="M301.849697,35.6993939 C307.587879,34.1066667 310.775758,29.3236364 309.180606,24.2254545 C307.587879,18.1648485 300.574545,14.0266667 295.156364,15.6193939 C289.817464,17.6994148 286.923707,23.4869283 288.46303,29.0060606 C289.347589,31.6709939 291.256179,33.8744372 293.767643,35.1301691 C296.279107,36.385901 299.187015,36.5907071 301.849697,35.6993939 L301.849697,35.6993939 Z" id="Path_63"></path>
                <path d="M365.917576,66.2981818 C365.190752,63.1947731 363.17339,60.5493753 360.372885,59.0273413 C357.572379,57.5053073 354.255235,57.2514787 351.255758,58.329697 C347.430303,59.6048485 344.88,65.9806061 346.475152,71.3987879 C348.070303,76.8169697 353.488485,80.3224242 358.269091,78.4121212 C364.324848,75.8666667 367.830303,71.7163636 365.917576,66.2981818 Z" id="Path_64"></path>
                <path d="M22.6327273,166.70303 C29.3260606,164.790303 33.1515152,159.052121 31.5563636,153.316364 C29.9691307,147.859121 24.2584549,144.721858 18.8012121,146.309091 C13.3439694,147.896324 10.2067065,153.607 11.7939394,159.064242 C13.7066667,165.427879 17.2121212,167.978182 22.6327273,166.70303 Z" id="Path_65"></path>
                <path d="M36.3369697,123.355152 C31.2460606,124.947879 29.0060606,128.446061 30.2763636,133.236364 C31.4828827,137.555326 35.7251919,140.292636 40.1575758,139.612121 C44.8087391,138.056332 47.5520747,133.258102 46.5333333,128.460606 C45.8981818,124.630303 40.1624242,122.08 36.3369697,123.355152 Z" id="Path_66"></path>
                <path d="M371.973333,90.5236364 C369.878183,91.0106726 368.089634,92.3670043 367.055436,94.2530841 C366.021239,96.1391638 365.839295,98.3764477 366.555152,100.404848 C367.830303,105.185455 371.646061,108.055758 375.478788,107.098182 C380.441732,105.67547 383.48911,100.689905 382.492121,95.6242424 C380.929972,91.370225 376.280905,89.1158723 371.973333,90.5236364 L371.973333,90.5236364 Z" id="Path_67"></path>
                <path d="M270.613333,25.4981818 C275.704242,24.5430303 276.673939,19.4375758 276.031515,15.6169697 C275.393939,12.1115152 270.613333,9.87878788 266.470303,10.8363636 C263.664377,11.4096549 261.414849,13.504286 260.643169,16.262255 C259.871488,19.020224 260.707314,21.9781377 262.808275,23.9243766 C264.909236,25.8706155 267.92233,26.478173 270.613333,25.4981818 L270.613333,25.4981818 Z" id="Path_68"></path>
                <path d="M22.3006061,249.895758 C17.209697,251.488485 15.2872727,254.358788 16.5624242,259.139394 C17.1329506,261.266132 18.5361424,263.073382 20.4551852,264.1531 C22.374228,265.232818 24.6473101,265.493964 26.7612121,264.877576 C28.7388741,264.449851 30.4345111,263.186878 31.4106362,261.414513 C32.3867613,259.642149 32.5477702,257.533984 31.8521212,255.633939 C30.2787879,250.850909 26.1357576,248.620606 22.3006061,249.895758 Z" id="Path_69"></path>
                <path d="M204.940606,152.041212 C191.233939,155.546667 180.715152,165.110303 175.29697,180.404848 C171.471515,191.241212 168.283636,202.08 169.878788,213.873939 C171.073352,223.518239 175.061615,232.602849 181.352727,240.009697 C187.163628,246.977641 195.873761,250.861841 204.940606,250.528485 C218.287539,250.800287 231.572443,248.639806 244.145455,244.152727 C259.444848,238.092121 271.556364,228.853333 277.294545,212.278788 C281.270354,200.883282 279.744965,188.288975 273.163636,178.172121 C262.964848,161.277576 248.620606,150.123636 227.90303,148.838788 C220.123586,148.613288 212.361504,149.695817 204.940606,152.041212 L204.940606,152.041212 Z M214.821818,170.208485 C230.014668,166.046764 246.20629,171.611011 255.631515,184.232727 C260.28909,190.261 261.15189,198.399459 257.861818,205.270303 C255.568626,210.564953 251.945029,215.176501 247.34303,218.65697 C235.549091,228.538182 222.162424,232.681212 206.858182,227.580606 C196.021818,224.075152 190.283636,216.429091 189.963636,204.950303 C189.013333,189.015758 198.57697,175.309091 214.831515,170.208485 L214.821818,170.208485 Z" id="Path_70"></path>
                <path d="M205.270303,201.127273 C207.274269,207.128525 212.4198,211.538847 218.65697,212.601212 C225.649048,213.938757 232.798639,211.226488 237.144242,205.587879 C240.600113,201.231331 240.730941,195.106197 237.464242,190.606061 C232.373333,182 218.021818,179.132121 209.733333,185.187879 C205.013979,189.015615 203.224842,195.405388 205.270303,201.127273 L205.270303,201.127273 Z" id="Path_71"></path>
                <path d="M53.8666667,112.833939 C58.329697,111.558788 61.1975758,107.415758 59.9272727,103.590303 C58.3580269,100.148801 54.76224,98.0979718 51.0012121,98.4993939 C47.4632035,99.9596984 45.3668685,103.634274 45.910303,107.42303 C47.4933333,112.196364 50.0436364,113.791515 53.8666667,112.833939 Z" id="Path_72"></path>
                <path d="M66.9381818,88.9309091 C69.0122379,89.3359779 71.1620166,88.8879447 72.9015904,87.6880813 C74.6411642,86.4882179 75.8236698,84.6378227 76.1818182,82.5551515 C76.061127,78.7781512 73.4645863,75.5329689 69.8060606,74.5866667 C65.9501457,74.4832843 62.5825736,77.1777518 61.8375758,80.9624242 C61.5175758,85.7333333 63.1127273,88.2933333 66.9381818,88.9309091 Z" id="Path_73"></path>
                <path d="M78.0921212,63.1127273 C81.0288092,66.2984035 85.9629967,66.5805103 89.2436364,63.750303 C91.4741836,60.7165844 91.4741836,56.5852337 89.2436364,53.5515152 C86.2099178,51.3209679 82.0785671,51.3209679 79.0448485,53.5515152 C75.8618182,57.3745455 75.5418182,60.2424242 78.0921212,63.1127273 Z" id="Path_74"></path>
                <path d="M102.955152,31.2290909 C99.129697,33.7793939 97.5369697,38.56 99.7672727,41.7478788 C102.163025,44.694519 106.326213,45.500396 109.648485,43.6606061 C112.532592,41.2451339 113.445734,37.1995199 111.878788,33.7793939 C109.328485,29.9612121 106.460606,29.3236364 102.955152,31.2290909 Z" id="Path_75"></path>
                <path d="M131.326061,13.6993939 C135.698233,13.6020414 139.362372,16.9843235 139.614545,21.350303 C139.107939,25.1128795 136.064947,28.0240484 132.283636,28.3636364 C128.573938,27.754929 125.714232,24.7657303 125.270294,21.0327273 C125.265455,15.9369697 127.178182,13.3866667 131.326061,13.6993939 Z" id="Path_76"></path>
                <path d="M168.933333,5.10060606 C171.503218,8.57572672 170.946217,13.4468409 167.658182,16.2521212 C164.31172,17.928507 160.256141,17.14346 157.77697,14.3393939 C156.100584,10.9929321 156.885631,6.9373531 159.689697,4.45818182 C163.832727,1.59515152 167.010909,1.91272727 168.933333,5.10060606 Z" id="Path_77"></path>
                <path d="M189.966061,5.73818182 C189.663827,7.82627847 190.250374,9.94548071 191.583225,11.5810231 C192.916077,13.2165654 194.873271,14.2187869 196.979394,14.3442424 C200.808446,14.1118016 203.908626,11.1459221 204.310303,7.33090909 C204.10688,3.60803919 201.310482,0.54304911 197.621818,4.30631961e-15 C192.521212,0.317575758 189.966061,1.91272727 189.966061,5.73818182 Z" id="Path_78"></path>
                <path d="M239.059394,10.8363636 C237.784242,15.6169697 233.968485,18.1672727 230.133333,17.2121212 C226.590329,15.8970344 224.369416,12.3694097 224.715152,8.60606061 C226.098994,5.11954484 229.579078,2.92856227 233.321212,3.18787879 C238.101818,4.78060606 240.014545,7.01333333 239.059394,10.8363636 Z" id="Path_79"></path>
            </g>
            <path d="M397.791515,131.003636 C397.288358,128.859082 395.857263,127.049504 393.886373,126.065698 C391.915482,125.081893 389.609086,125.025834 387.592727,125.912727 C382.812121,127.187879 380.261818,131.330909 381.21697,134.836364 C382.716043,139.87017 387.920568,142.823858 393.010909,141.529697 C396.833939,140.569697 399.066667,135.786667 397.791515,131.003636 Z" id="Path_80"></path>
        </g>
    </g>
</svg>