<svg xmlns="http://www.w3.org/2000/svg" width="307.949" height="71.625" viewBox="0 0 307.949 71.625">
  <g id="KPS-SLOGAN-blue" transform="translate(0 0.1)">
    <rect id="Rectangle_129" data-name="Rectangle 129" width="307.949" height="71.625" transform="translate(0 -0.1)" fill="none"/>
    <g id="Group_193" data-name="Group 193" transform="translate(4.063 3.963)">
      <path id="Path_740" data-name="Path 740" d="M19.23,16.128c0,2.74-2.173,4.158-5.764,4.158H4.3V19.152H7.513V5.734H4.3V4.6h8.882c3.213,0,5.008,1.606,5.008,3.969a3.71,3.71,0,0,1-2.929,3.685C17.529,12.632,19.23,13.86,19.23,16.128ZM8.836,5.734v6.047H12.9c2.362,0,4.063-1.039,4.063-3.118s-1.7-2.929-3.78-2.929Zm9.071,10.394c0-2.362-2.173-3.213-4.914-3.213H8.836v6.425h4.347C16.017,19.246,17.907,18.3,17.907,16.128Z" transform="translate(-4.3 -4.222)" fill="#fff"/>
      <path id="Path_741" data-name="Path 741" d="M37.179,20.572a3.13,3.13,0,0,1-1.417.378c-1.228,0-1.984-.85-1.984-2.551V18.21c-1.512,1.606-3.024,2.74-4.914,2.74-2.173,0-3.4-1.417-3.4-4.158V10.934H23.1V9.8h3.685v6.8c0,1.984.756,3.118,2.551,3.118,1.512,0,3.118-1.039,4.536-2.646V10.934H31.7V9.8h3.4v8.5c0,1.039.378,1.512.945,1.512a1.155,1.155,0,0,0,.85-.283Z" transform="translate(-5.336 -4.508)" fill="#fff"/>
      <path id="Path_742" data-name="Path 742" d="M47.214,19.224v1.039H40.6V19.224h2.646V10.531H40.6V9.492h3.969v9.733ZM42.206,5.334c0-.661.567-1.134,1.417-1.134s1.417.472,1.417,1.134-.567,1.039-1.417,1.039S42.206,6,42.206,5.334Z" transform="translate(-6.299 -4.2)" fill="#fff"/>
      <path id="Path_743" data-name="Path 743" d="M56.314,19.246v1.039H49.7V19.246h2.646V5.639H49.7V4.6h3.969V19.246Z" transform="translate(-6.801 -4.222)" fill="#fff"/>
      <path id="Path_744" data-name="Path 744" d="M72.156,20.286a3.13,3.13,0,0,1-1.417.378,1.834,1.834,0,0,1-1.89-1.89,6.829,6.829,0,0,1-4.347,1.89,5.178,5.178,0,0,1-5.1-5.481,5.522,5.522,0,0,1,5.481-5.858,5.636,5.636,0,0,1,3.969,1.606V5.639H66.2V4.6h3.874V18.018c0,1.039.378,1.417.945,1.417a1.411,1.411,0,0,0,.945-.283Zm-7.465-.756a6.108,6.108,0,0,0,4.158-1.89V11.876a5.991,5.991,0,0,0-3.78-1.606c-2.457,0-4.347,1.984-4.347,4.819C60.723,17.829,62.424,19.624,64.692,19.53Z" transform="translate(-7.335 -4.222)" fill="#fff"/>
      <path id="Path_745" data-name="Path 745" d="M82.114,19.224v1.039H75.5V19.224h2.646V10.531H75.5V9.492h3.969v9.733ZM77.106,5.334c0-.661.567-1.134,1.417-1.134s1.417.472,1.417,1.134-.567,1.039-1.417,1.039S77.106,6,77.106,5.334Z" transform="translate(-8.222 -4.2)" fill="#fff"/>
      <path id="Path_746" data-name="Path 746" d="M100.008,19.516v1.039H94.244V19.516h2.079v-5.67c0-2.079-.85-3.213-2.74-3.213-1.606,0-3.4,1.134-4.914,2.835v6.047h2.173v1.039H84.7V19.516h2.646v-8.6H84.7V9.783h3.969v2.646c1.606-1.7,3.307-2.929,5.292-2.929,2.173,0,3.591,1.323,3.591,4.252v5.764Z" transform="translate(-8.728 -4.492)" fill="#fff"/>
      <path id="Path_747" data-name="Path 747" d="M114.895,21.2c0,2.74-3.307,4.347-6.8,4.347-3.024,0-5.292-1.323-5.292-3.307a2.757,2.757,0,0,1,1.228-2.268,2.159,2.159,0,0,1-.945-1.8,3.319,3.319,0,0,1,1.8-2.74,3.369,3.369,0,0,1-.756-2.173c0-2.551,2.457-3.969,4.63-3.969a4.9,4.9,0,0,1,2.551.661,3.435,3.435,0,0,1,3.4-2.551V8.534a3.044,3.044,0,0,0-2.835,1.89,3.489,3.489,0,0,1,1.417,2.835c0,2.551-2.268,3.969-4.63,3.969a5.463,5.463,0,0,1-3.4-1.134,2.269,2.269,0,0,0-1.134,1.89c0,.85.661,1.606,2.173,1.606,1.8,0,3.591-.85,5.575-.85C113.667,18.739,114.895,19.589,114.895,21.2Zm-1.134.094c0-1.039-.85-1.512-1.984-1.512-1.8,0-3.4.85-5.386.85a4.414,4.414,0,0,1-1.606-.283,2.3,2.3,0,0,0-.85,1.7c0,1.512,1.8,2.457,4.347,2.457C111.115,24.5,113.761,23.275,113.761,21.29Zm-8.315-7.937c0,1.89,1.7,2.835,3.4,2.835,1.89,0,3.4-1.039,3.4-2.929s-1.7-2.835-3.4-2.835S105.446,11.463,105.446,13.353Z" transform="translate(-9.725 -4.376)" fill="#fff"/>
      <path id="Path_748" data-name="Path 748" d="M138.406,20.367a2.55,2.55,0,0,1-1.417.378c-1.039,0-1.7-.661-1.89-1.89a8.272,8.272,0,0,1-4.725,1.984c-2.079,0-3.874-1.134-3.874-3.307s1.984-3.5,4.536-3.5a10.6,10.6,0,0,1,3.969.756V13.563c0-2.268-1.417-2.929-3.118-2.929a12.244,12.244,0,0,0-4.536,1.039l-.283-1.039A12.467,12.467,0,0,1,131.981,9.5c2.362,0,4.252,1.134,4.252,4.158v4.536c0,1.039.283,1.512.945,1.512a1.319,1.319,0,0,0,.85-.283Zm-7.748-.567a7.854,7.854,0,0,0,4.441-1.89V15.736a15.539,15.539,0,0,0-3.874-.756c-1.7,0-3.4.85-3.4,2.457S129.24,19.8,130.658,19.8Z" transform="translate(-11.031 -4.492)" fill="#fff"/>
    </g>
    <g id="Group_194" data-name="Group 194" transform="translate(4.252 27.208)">
      <path id="Path_749" data-name="Path 749" d="M22.264,45.769c0,3.591-3.024,5.764-6.992,5.764A11.362,11.362,0,0,1,7.9,48.32v2.74H4.5V43.785L6.862,43.6c2.173,2.929,5.575,4.725,8.221,4.725,1.8,0,3.118-.756,3.118-2.173,0-1.512-1.8-2.551-6.52-3.874-4.914-1.323-6.992-3.5-6.992-6.709,0-3.5,3.213-5.764,6.709-5.764a8.238,8.238,0,0,1,6.425,2.74V30.272h3.5v7.181l-2.362.094a7.522,7.522,0,0,0-6.709-4.536c-2.079,0-3.591.85-3.591,2.362s1.512,2.457,5.386,3.5C18.863,40.289,22.264,42.084,22.264,45.769Z" transform="translate(-4.5 -28.855)" fill="#fff"/>
      <path id="Path_750" data-name="Path 750" d="M38.273,50.576a8.071,8.071,0,0,1-4.158,1.134c-3.307,0-5.386-2.268-5.386-6.142V39.9H25.8V36.874h2.929V33h3.685v3.969h4.252v3.024H32.414v5.67c0,1.8.85,2.74,2.268,2.74a4.971,4.971,0,0,0,2.457-.567Z" transform="translate(-5.673 -29.031)" fill="#fff"/>
      <path id="Path_751" data-name="Path 751" d="M55.657,36.794V43.22H52.445V40.574c-1.134,0-2.835,1.039-4.536,2.929v4.914h3.024v3.024H41.2V48.417h3.024V40.1H41.2V37.078h6.709v3.307C49.8,38.212,52.161,36.7,54.24,36.7h1.417Z" transform="translate(-6.521 -29.235)" fill="#fff"/>
      <path id="Path_752" data-name="Path 752" d="M59.2,44.359c0-4.63,3.78-7.559,7.937-7.559a7.659,7.659,0,0,1,7.937,7.559c0,4.63-3.685,7.559-7.937,7.559C62.98,51.919,59.2,48.989,59.2,44.359Zm12,0c0-2.835-1.8-4.536-4.063-4.536s-4.063,1.7-4.063,4.536,1.8,4.536,4.063,4.536S71.2,47.194,71.2,44.359Z" transform="translate(-7.513 -29.241)" fill="#fff"/>
      <path id="Path_753" data-name="Path 753" d="M99.494,48.523v3.024H90.8V48.523h2.457V43.609a2.785,2.785,0,0,0-2.929-3.118c-1.606,0-3.213,1.134-4.914,3.024v5.1h2.457v3.024H78.8V48.617h3.024V40.3H78.8V37.278h6.709v3.307c2.079-2.362,3.874-3.685,6.236-3.685,3.4,0,5.292,2.268,5.292,6.709v5.008h2.457Z" transform="translate(-8.592 -29.246)" fill="#fff"/>
      <path id="Path_754" data-name="Path 754" d="M118.447,52.326c0,3.4-4.252,5.481-9.449,5.481-3.874,0-6.9-1.417-6.9-4.158a4.2,4.2,0,0,1,1.606-3.024,2.923,2.923,0,0,1-1.134-2.457,4.187,4.187,0,0,1,2.173-3.5,4.431,4.431,0,0,1-1.039-2.929c0-3.5,3.591-5.2,6.52-5.2a8.685,8.685,0,0,1,3.118.567,4.681,4.681,0,0,1,4.725-3.213v3.118a4.31,4.31,0,0,0-3.118,1.039,4.346,4.346,0,0,1,1.8,3.591c0,3.5-3.591,5.2-6.614,5.2a7.84,7.84,0,0,1-3.874-.945,1.866,1.866,0,0,0-.567,1.323c0,1.039.85,1.417,1.89,1.417,2.079,0,3.591-.378,6.047-.378C116.557,48.357,118.447,49.775,118.447,52.326Zm-3.4.283c0-.945-.661-1.228-1.984-1.228-1.606,0-3.4.472-5.953.472a7.294,7.294,0,0,1-1.417-.189,2.68,2.68,0,0,0-.378,1.228c0,1.228,1.417,1.984,4.158,1.984C112.4,54.783,115.045,53.932,115.045,52.609Zm-7.559-10.772c0,1.512,1.228,2.457,2.929,2.457a2.647,2.647,0,0,0,2.929-2.551c0-1.512-1.228-2.457-2.929-2.457C108.62,39.286,107.486,40.325,107.486,41.837Z" transform="translate(-9.876 -29.081)" fill="#fff"/>
      <path id="Path_755" data-name="Path 755" d="M138.414,34.753v1.984h4.347v3.024h-4.347v8.315h3.969V51.1H131.8V48.076h3.024V39.761H131.8V36.737h3.024v-1.89a5.655,5.655,0,0,1,6.047-6.047,10.419,10.419,0,0,1,5.292,1.512l-1.323,2.929a6.247,6.247,0,0,0-3.591-1.323A2.727,2.727,0,0,0,138.414,34.753Z" transform="translate(-11.512 -28.8)" fill="#fff"/>
      <path id="Path_756" data-name="Path 756" d="M146.3,44.359c0-4.63,3.78-7.559,7.937-7.559a7.659,7.659,0,0,1,7.937,7.559c0,4.63-3.685,7.559-7.937,7.559C150.08,51.919,146.3,48.989,146.3,44.359Zm12,0c0-2.835-1.8-4.536-4.063-4.536s-4.063,1.7-4.063,4.536,1.8,4.536,4.063,4.536S158.3,47.194,158.3,44.359Z" transform="translate(-12.31 -29.241)" fill="#fff"/>
      <path id="Path_757" data-name="Path 757" d="M184.571,51.179a5.537,5.537,0,0,1-2.457.567,3.433,3.433,0,0,1-3.591-3.118c-1.89,2.173-3.591,3.307-5.67,3.307-3.213,0-5.1-2.268-5.1-6.709V40.218H165.2V37.194h6.331v7.937c0,1.89.661,3.213,2.74,3.213,1.323,0,2.74-.945,4.252-2.551v-5.67h-2.362V37.1h6.047V47.4c0,.85.378,1.134.85,1.134a1.887,1.887,0,0,0,.85-.189Z" transform="translate(-13.351 -29.257)" fill="#fff"/>
      <path id="Path_758" data-name="Path 758" d="M208.694,48.523v3.024H200V48.523h2.457V43.609a2.785,2.785,0,0,0-2.929-3.118c-1.606,0-3.213,1.134-4.914,3.024v5.1h2.457v3.024H188V48.617h3.024V40.3H188V37.278h6.709v3.307c2.079-2.362,3.874-3.685,6.236-3.685,3.4,0,5.292,2.268,5.292,6.709v5.008h2.457Z" transform="translate(-14.607 -29.246)" fill="#fff"/>
      <path id="Path_759" data-name="Path 759" d="M229.953,50.8a5.217,5.217,0,0,1-2.457.567,3.384,3.384,0,0,1-3.307-2.173,7.7,7.7,0,0,1-5.292,2.362A7.137,7.137,0,0,1,212,44.1a7.332,7.332,0,0,1,7.37-7.654,6.417,6.417,0,0,1,4.536,1.8V33.324h-2.929V30.3h6.614V47.12c0,.85.378,1.134.85,1.134a1.887,1.887,0,0,0,.85-.189Zm-10.111-2.457a7.16,7.16,0,0,0,4.063-1.8V41.072a6.16,6.16,0,0,0-3.591-1.417,4.216,4.216,0,0,0-4.441,4.441A3.848,3.848,0,0,0,219.843,48.348Z" transform="translate(-15.929 -28.883)" fill="#fff"/>
      <path id="Path_760" data-name="Path 760" d="M250.141,51.063a5.32,5.32,0,0,1-2.646.661,3.112,3.112,0,0,1-3.118-2.457,8.737,8.737,0,0,1-5.858,2.646c-2.646,0-4.914-1.512-4.819-4.63,0-3.118,3.024-4.819,5.858-4.819a10.139,10.139,0,0,1,4.63,1.039V42.37c0-1.7-1.606-2.457-3.5-2.457a15.166,15.166,0,0,0-5.386,1.228l-.756-2.929a18.042,18.042,0,0,1,6.709-1.512c4.158,0,6.52,2.173,6.52,5.764v4.914c0,.85.378,1.228.85,1.228a1.886,1.886,0,0,0,.85-.189Zm-10.583-2.268a8.588,8.588,0,0,0,4.63-1.984v-.85a11.027,11.027,0,0,0-3.874-.661c-1.512,0-2.929.567-2.929,1.89C237.385,48.228,238.424,48.795,239.558,48.795Z" transform="translate(-17.124 -29.235)" fill="#fff"/>
      <path id="Path_761" data-name="Path 761" d="M264.773,50.576a8.071,8.071,0,0,1-4.158,1.134c-3.307,0-5.386-2.268-5.386-6.142V39.9H252.3V36.874h2.929V33h3.685v3.969h4.252v3.024h-4.252v5.67c0,1.8.85,2.74,2.268,2.74a4.971,4.971,0,0,0,2.457-.567Z" transform="translate(-18.149 -29.031)" fill="#fff"/>
      <path id="Path_762" data-name="Path 762" d="M277.433,48.131v3.024H267.7V48.131h3.024V39.816H267.7V36.792h6.709V48.131ZM269.59,31.973a2.361,2.361,0,0,1,2.551-2.173,2.4,2.4,0,0,1,2.646,2.173c0,1.228-1.039,2.079-2.646,2.079A2.356,2.356,0,0,1,269.59,31.973Z" transform="translate(-18.997 -28.855)" fill="#fff"/>
      <path id="Path_763" data-name="Path 763" d="M279.9,44.359c0-4.63,3.78-7.559,7.937-7.559a7.659,7.659,0,0,1,7.937,7.559c0,4.63-3.685,7.559-7.937,7.559C283.68,51.919,279.9,48.989,279.9,44.359Zm12,0c0-2.835-1.8-4.536-4.063-4.536s-4.063,1.7-4.063,4.536,1.8,4.536,4.063,4.536S291.9,47.194,291.9,44.359Z" transform="translate(-19.669 -29.241)" fill="#fff"/>
      <path id="Path_764" data-name="Path 764" d="M320.194,48.523v3.024H311.5V48.523h2.457V43.609a2.785,2.785,0,0,0-2.929-3.118c-1.606,0-3.213,1.134-4.914,3.024v5.1h2.457v3.024H299.5V48.617h3.024V40.3H299.5V37.278h6.709v3.307c2.079-2.362,3.874-3.685,6.237-3.685,3.4,0,5.292,2.268,5.292,6.709v5.008h2.457Z" transform="translate(-20.749 -29.246)" fill="#fff"/>
    </g>
    <g id="Group_195" data-name="Group 195" transform="translate(211.945 50.075)">
      <path id="Path_765" data-name="Path 765" d="M228.269,57.252v1.8h3.591v1.039h-3.591V68.78h3.307V69.82H224.3V68.78h2.646V60.087H224.3V59.047h2.646v-1.7c0-2.929,1.606-4.347,3.78-4.347a7.334,7.334,0,0,1,3.591,1.134l-.472,1.039a6.115,6.115,0,0,0-3.024-1.039C229.5,54.134,228.269,54.984,228.269,57.252Z" transform="translate(-224.3 -53)" fill="#fff"/>
      <path id="Path_766" data-name="Path 766" d="M235.8,64.77a5.717,5.717,0,0,1,11.434,0,5.717,5.717,0,0,1-11.434,0Zm10.205,0a4.445,4.445,0,1,0-4.441,4.63A4.318,4.318,0,0,0,246.005,64.77Z" transform="translate(-224.933 -53.336)" fill="#fff"/>
      <path id="Path_767" data-name="Path 767" d="M261.5,59.1v4.252h-1.134V60.328c-1.8,0-3.5,1.228-5.2,3.118v5.764h2.646V70.25H251.2V69.211h2.646V60.517H251.2V59.478h3.969v2.929c1.7-1.89,3.5-3.213,5.669-3.213h.661Z" transform="translate(-225.782 -53.336)" fill="#fff"/>
      <path id="Path_768" data-name="Path 768" d="M280.014,68.846v1.039H273.4V68.846h2.646V55.239H273.4V54.2h3.969V68.846Z" transform="translate(-227.004 -53.066)" fill="#fff"/>
      <path id="Path_769" data-name="Path 769" d="M289.614,68.824v1.039H283V68.824h2.646V60.131H283V59.092h3.969v9.733Zm-5.008-13.89c0-.661.567-1.134,1.417-1.134s1.417.472,1.417,1.134-.567,1.039-1.417,1.039S284.606,55.5,284.606,54.934Z" transform="translate(-227.533 -53.044)" fill="#fff"/>
      <path id="Path_770" data-name="Path 770" d="M296.369,57.252v1.8h3.591v1.039h-3.591V68.78h3.307V69.82H292.4V68.78h2.646V60.087H292.4V59.047h2.646v-1.7c0-2.929,1.606-4.347,3.78-4.347a7.334,7.334,0,0,1,3.591,1.134l-.472,1.039a6.115,6.115,0,0,0-3.024-1.039C297.6,54.134,296.369,54.984,296.369,57.252Z" transform="translate(-228.051 -53)" fill="#fff"/>
      <path id="Path_771" data-name="Path 771" d="M314.2,68.644a6.714,6.714,0,0,1-4.63,1.89,5.381,5.381,0,0,1-5.67-5.386,5.786,5.786,0,0,1,5.764-6.047c2.457,0,4.347,1.417,4.347,3.307,0,2.079-2.173,3.118-4.347,3.118a14.411,14.411,0,0,1-4.63-.945v.567a4.375,4.375,0,0,0,4.536,4.347,5.469,5.469,0,0,0,3.969-1.606Zm-8.882-4.914a13.661,13.661,0,0,0,4.347.85c1.606,0,3.213-.661,3.213-2.079s-1.228-2.268-3.118-2.268A4.518,4.518,0,0,0,305.317,63.73Z" transform="translate(-228.684 -53.336)" fill="#fff"/>
      <path id="Path_772" data-name="Path 772" d="M318.6,69.828a1.363,1.363,0,0,1,1.417-1.228c.85,0,1.512.472,1.512,1.228,0,.661-.661,1.134-1.512,1.134A1.292,1.292,0,0,1,318.6,69.828Z" transform="translate(-229.494 -53.859)" fill="#fff"/>
    </g>
  </g>
</svg>
