<svg id="Group_3" data-name="Group 3" xmlns="http://www.w3.org/2000/svg" width="35.211" height="35.212" viewBox="0 0 35.211 35.212">
  <path id="Path_21" data-name="Path 21" d="M1360.477,470.018a6.856,6.856,0,1,0,7.072,6.852,6.964,6.964,0,0,0-7.072-6.852Zm13.593,4.214h-3.1a10.315,10.315,0,0,1,.451,3.021,10.95,10.95,0,0,1-21.89,0,10.3,10.3,0,0,1,.451-3.021h-3.234V489.1a1.4,1.4,0,0,0,1.4,1.4h24.52a1.4,1.4,0,0,0,1.4-1.4V474.231Zm-5.582-10.979a1.589,1.589,0,0,0-1.585,1.585v3.794a1.589,1.589,0,0,0,1.585,1.586h3.98a1.589,1.589,0,0,0,1.585-1.586v-3.794a1.589,1.589,0,0,0-1.585-1.585Zm-21.131-3.912h26.172a4.532,4.532,0,0,1,4.519,4.52v26.173a4.533,4.533,0,0,1-4.519,4.52h-26.172a4.533,4.533,0,0,1-4.52-4.52V463.86a4.533,4.533,0,0,1,4.52-4.52Z" transform="translate(-1342.838 -459.34)" fill="#fff" fill-rule="evenodd"/>
</svg>
