<?xml version="1.0" encoding="UTF-8"?>
<svg width="36px" height="7px" viewBox="0 0 36 7" version="1.1" xmlns="http://www.w3.org/2000/svg" xmlns:xlink="http://www.w3.org/1999/xlink">
    <title>line-yellow-2</title>
    <g id="Page-1" stroke="none" stroke-width="1" fill="none" fill-rule="evenodd" stroke-linecap="round">
        <g id="line-yellow-2" transform="translate(1.000000, 1.000000)" stroke="#0F5EA7" stroke-width="2">
            <path d="M33.231,2.031 C32.5827968,0.81310971 31.3254158,0.042222282 29.946,0.017 L29.946,0.017 C28.5653697,0.0109224627 27.2966512,0.775470946 26.657,1.999 L26.651,2.011 C26.0104756,3.24130837 24.7380573,4.01247092 23.351,4.011 L23.351,4.011 C21.9804323,3.99255819 20.7288669,3.2285858 20.086,2.018 L20.086,2.009 C19.4375381,0.795638943 18.181614,0.0298316196 16.806,0.009 L16.806,0.009 C15.4166735,0.0136972781 14.1442506,0.787546027 13.501,2.019 L13.501,2.027 C12.8618857,3.25242995 11.5930757,4.0195008 10.211,4.01601193 L10.211,4.01601193 C8.8379876,3.99590018 7.58499671,3.22931047 6.942,2.016 L6.942,2.016 C6.29256775,0.799404827 5.0358309,0.0292948436 3.657,0.003 L3.657,0.003 C2.26903778,0.00993881818 0.998872214,0.784354918 0.357,2.015" id="Path_1"></path>
        </g>
    </g>
</svg>