<svg xmlns="http://www.w3.org/2000/svg" width="35.587" height="6.01" viewBox="0 0 35.587 6.01">
  <path id="Path_1" data-name="Path 1" d="M88.35,97.682a3.8,3.8,0,0,0-3.285-2.014h0a3.693,3.693,0,0,0-3.289,1.982l-.006.012a3.716,3.716,0,0,1-3.3,2h0a3.754,3.754,0,0,1-3.265-1.993l0-.009a3.784,3.784,0,0,0-3.28-2h0a3.743,3.743,0,0,0-3.305,2.01l0,.008a3.7,3.7,0,0,1-3.29,1.989h0a3.762,3.762,0,0,1-3.269-2h0a3.806,3.806,0,0,0-3.285-2.013h0a3.743,3.743,0,0,0-3.3,2.012" transform="translate(-54.119 -94.651)" fill="none" stroke="#fecf00" stroke-linecap="round" stroke-miterlimit="10" stroke-width="2"/>
</svg>
