<svg xmlns="http://www.w3.org/2000/svg" width="82.455" height="14.231" viewBox="0 0 82.455 14.231">
  <path id="Path_17" data-name="Path 17" d="M131.16,100.326A8.758,8.758,0,0,0,123.6,95.69h0a8.5,8.5,0,0,0-7.571,4.563l-.014.028a8.555,8.555,0,0,1-7.587,4.595h0a8.641,8.641,0,0,1-7.516-4.588l-.009-.021a8.711,8.711,0,0,0-7.55-4.609h0a8.616,8.616,0,0,0-7.608,4.627l-.007.018a8.516,8.516,0,0,1-7.574,4.579h0a8.661,8.661,0,0,1-7.525-4.6h0a8.761,8.761,0,0,0-7.562-4.634h0a8.617,8.617,0,0,0-7.606,4.632" transform="translate(134.55 107.382) rotate(180)" fill="none" stroke="#d1d1d1" stroke-linecap="round" stroke-miterlimit="10" stroke-width="5"/>
</svg>
