<svg xmlns="http://www.w3.org/2000/svg" width="244.551" height="39.845" viewBox="0 0 244.551 39.845">
  <path id="Path_27" data-name="Path 27" d="M283.787,109.754c-4.368-8.048-13.013-13.985-22.81-13.985h0a25.644,25.644,0,0,0-22.838,13.763l-.042.083a25.805,25.805,0,0,1-22.887,13.86h0a26.064,26.064,0,0,1-22.671-13.839l-.028-.062a26.278,26.278,0,0,0-22.776-13.9h0a25.99,25.99,0,0,0-22.949,13.957l-.021.056A25.689,25.689,0,0,1,123.921,123.5h0a26.125,26.125,0,0,1-22.7-13.867h0c-4.368-8.041-13.013-13.978-22.81-13.978h0a25.991,25.991,0,0,0-22.942,13.971" transform="translate(-47.371 -89.651)" fill="none" stroke="#fecf00" stroke-linecap="round" stroke-miterlimit="10" stroke-width="12"/>
</svg>
