<svg xmlns="http://www.w3.org/2000/svg" width="34.156" height="34.155" viewBox="0 0 34.156 34.155">
  <path id="LinkedIn_alt_" data-name="LinkedIn (alt)" d="M1535.675,459.288h-29.109a2.486,2.486,0,0,0-2.524,2.447V491a2.487,2.487,0,0,0,2.524,2.448h29.109A2.485,2.485,0,0,0,1538.2,491v-29.26A2.484,2.484,0,0,0,1535.675,459.288Zm-21.278,28.59h-5.16V472.457h5.16Zm-2.58-17.527h-.035a2.949,2.949,0,1,1,.035,0ZM1533,487.878h-5.159v-8.25c0-2.074-.748-3.488-2.613-3.488a2.819,2.819,0,0,0-2.647,1.875,3.454,3.454,0,0,0-.172,1.25v8.613h-5.158s.067-13.974,0-15.421h5.158v2.186a5.123,5.123,0,0,1,4.649-2.549c3.4,0,5.942,2.2,5.942,6.942Zm-10.624-13.185.034-.049v.049Z" transform="translate(-1504.042 -459.288)" fill="#fff"/>
</svg>
