<svg xmlns="http://www.w3.org/2000/svg" width="36.204" height="29.968" viewBox="0 0 36.204 29.968">
  <path id="Path_20" data-name="Path 20" d="M1601.219,495.453a22.03,22.03,0,0,1-10.853-3,2.793,2.793,0,0,1-.357-.3,4.257,4.257,0,0,1,.465-.021,15.167,15.167,0,0,0,9.885-2.885,1.222,1.222,0,0,0,.231-.327,3.389,3.389,0,0,0-.4-.1,7.479,7.479,0,0,1-6.154-4.474c-.286-.606-.267-.586.4-.579s1.355-.052,2.031-.1a1.435,1.435,0,0,0,.382-.143,2.091,2.091,0,0,0-.384-.223,7.418,7.418,0,0,1-4.912-4.688,11.023,11.023,0,0,1-.436-1.922c-.091-.528,0-.559.509-.4.723.232,1.458.424,2.193.613a1.423,1.423,0,0,0,.454-.035,2.621,2.621,0,0,0-.3-.354,7.535,7.535,0,0,1-2.3-8.6c.015-.038.025-.078.041-.116.37-.942.372-.943,1.029-.223a21.659,21.659,0,0,0,14.121,7.146c.857.093.9.064.786-.833a7.525,7.525,0,0,1,7.739-8.407,7.292,7.292,0,0,1,4.816,1.977.921.921,0,0,0,1.048.27c1.173-.444,2.349-.877,3.525-1.312.163-.061.329-.109.494-.164a4.855,4.855,0,0,1-.166.519,7.449,7.449,0,0,1-2.419,3,1.759,1.759,0,0,0-.278.345,1.611,1.611,0,0,0,.419,0c1.033-.279,2.061-.571,3.092-.856.094-.026.192-.033.288-.049a.909.909,0,0,1-.12.26c-1,1.039-1.977,2.091-3.008,3.093a1.191,1.191,0,0,0-.443.945,21.594,21.594,0,0,1-6.858,16.264,19.544,19.544,0,0,1-11.309,5.367C1603.394,495.286,1602.3,495.352,1601.219,495.453Z" transform="translate(-1590.008 -465.486)" fill="#fff"/>
</svg>
