<svg xmlns="http://www.w3.org/2000/svg" width="61.356" height="45.188" viewBox="0 0 61.356 45.188">
  <g id="Group_21" data-name="Group 21" transform="translate(-319.33 -29.955)">
    <g id="Group_6" data-name="Group 6">
      <path id="Path_18" data-name="Path 18" d="M350.959,64.191c1.514,1.047,5.56,1.791,9.569-1.507s5.68-10.528,6.2-11.895,1.807-5.869,4.573-7.213,3.788-.441,4.381.424c.436.639.617,1.805-1.072,3.273-.646.565-1.93-.007-1.44-.6s-.614-1.438-1.284-.082c-.723,1.457,1.278,3.715,3.536,1.57a3.491,3.491,0,0,0-1.537-6.066c-2.247-.407-4.945,1.172-6.661,3.658-.642.928-.588.166-.553-.6s-.281-6.037-3.748-9.591c-1.183-1.213-3.036-2.936-4.55-1.9-.859.586-1.782,2.668.4,5.852s7.379,7.156,16.412,6.213c3.377-.354,3.745-3.6,5-6.282,1.222-2.626.042-5.021-1.6-5.521a2.356,2.356,0,0,0-3.02,1.311c-.163,1.007.543,2.263,1.455,2.316a1.758,1.758,0,0,0,1.407-.994c.176-.453-.47-.457-.731-.315s-.691-.648.224-1c.892-.336,2.455.961,1.591,3.084s-.959,7.3-8.183,6.364a18.268,18.268,0,0,1-8.249-2.657c-.651-.441-.035-.414.577-.283s4.247,1.457,7.367-1.168c1.364-1.152,1.873-2.939.7-4.244-1.076-1.2-2.5-1.117-3.21-.219a1.6,1.6,0,0,0-.1,2.252,1.355,1.355,0,0,0,1.981-.084c.51-.7.207-1.174-.33-.683s-1.533-.127-.876-.975a1.19,1.19,0,0,1,2-.057c.565.616,1.232,2.422-1.9,3.961s-7.029-.08-8.88-1.89-1.478-3.283-1.022-3.7,2.215.586,3.308,2.106a12.932,12.932,0,0,1,2.7,7.742c.033.953-.567.02-1.324.223a1.249,1.249,0,0,0-.507,2.09,7.772,7.772,0,0,1,.81,6.81c-.375.885-.346.215-.29-.478a5.316,5.316,0,0,0-1.746-3.629,2.414,2.414,0,0,0-3.823.885,2.5,2.5,0,0,0,.458,2.39c.612.774.39-.062.21-.636A1.549,1.549,0,0,1,360,50.465c.63-.227.505.228.158.551a1.369,1.369,0,0,0-.005,1.824c.563.672,1.491-.525,2.079,1.357s-.279,5.026-1.264,6.434c-.579.824-.745.533-.328-.145s.915-3.795-.462-5.3a3.371,3.371,0,0,0-5.069-.1,2.091,2.091,0,0,0-.273,2.615c.428.3.592.053.592-.488s-.111-1.867,1.445-1.805c1.916.082-.22.533.386,2.164.286.768,2.172,1.34.37,4.58a4.726,4.726,0,0,1-6.338,1.213,4.257,4.257,0,0,1-1.462-3.793c.158-1.629,1.23-1.019,1.809.69s-1.181,2.914-1.883,3.306c-2.662,1.487-5.555.2-6.342-1.207-1.8-3.234.082-3.812.367-4.582.6-1.631-1.533-2.189.384-2.16,1.278.018,1.447,1.258,1.447,1.8s.167.791.591.488a2.091,2.091,0,0,0-.273-2.615,3.376,3.376,0,0,0-5.07.1c-1.373,1.5-.873,4.625-.454,5.3s.247.965-.332.143c-.988-1.41-1.851-4.551-1.268-6.432s1.514-.685,2.076-1.355a1.378,1.378,0,0,0-.005-1.83c-.349-.319-.473-.776.155-.547a1.546,1.546,0,0,1,.81,1.97c-.18.577-.4,1.412.209.637a2.492,2.492,0,0,0,.458-2.394c-.689-1.791-2.653-1.731-3.824-.879a5.319,5.319,0,0,0-1.741,3.634c.054.692.085,1.36-.289.477a7.781,7.781,0,0,1,.8-6.813,1.247,1.247,0,0,0-.507-2.087c-.761-.2-1.359.73-1.324-.225a12.926,12.926,0,0,1,2.688-7.744c1.092-1.516,2.847-2.524,3.3-2.106s.831,1.891-1.017,3.7-5.745,3.429-8.879,1.9-2.469-3.338-1.9-3.959a1.189,1.189,0,0,1,2,.059c.656.845-.338,1.463-.875.974s-.843-.015-.332.684a1.362,1.362,0,0,0,1.984.084,1.6,1.6,0,0,0-.095-2.256c-.713-.9-2.139-.975-3.213.223-1.17,1.308-.656,3.1.707,4.242,3.123,2.625,6.756,1.293,7.368,1.16s1.23-.158.578.285a18.223,18.223,0,0,1-8.247,2.664c-7.22.946-8.318-4.224-9.186-6.349s.692-3.422,1.588-3.086c.917.345.485,1.136.224,1s-.908-.141-.733.316a1.752,1.752,0,0,0,1.409.99c.912-.056,1.613-1.308,1.454-2.32a2.358,2.358,0,0,0-3.021-1.3c-1.639.5-2.818,2.9-1.593,5.518,1.253,2.68,2.628,5.926,6,6.275,9.034.936,14.234-3.039,16.409-6.228s1.225-5.235.391-5.852c-1.279-.945-3.369.694-4.551,1.907-3.464,3.558-3.772,8.824-3.736,9.6s.087,1.53-.552.608c-1.721-2.489-4.419-4.065-6.666-3.655a3.493,3.493,0,0,0-1.531,6.071c2.26,2.136,4.257-.121,3.536-1.576-.673-1.356-1.778-.514-1.287.082s-.791,1.17-1.439.6c-1.689-1.467-1.511-2.635-1.077-3.273.592-.866,1.62-1.772,4.386-.43s4.049,5.846,4.575,7.211S336.5,59.6,340.514,62.9s7.982,2.426,9.57,1.5a5.327,5.327,0,0,0,2.314-3.5c.086-.662.287-.553.726-.227s.455-.174-.147-.65-1.187-4.041,1.533-7.989,5.075-6.013,7.167-6.39c1.149-.207-.874-1.391-2.188-2.219s-1.43-.861-2.387.186-4.726,9.322-5.334,12.718c-.215,1.211-.158-.957.16-2.439s2.4-9.916,4.288-11.977c.477-.525.152-.9-.492-1.484s-1.378-1.406-1.362-1.908-.308-.8-.877,1.119-2.518,15.41-2.5,17.228c.011,1.043-.263-.683-.167-3.7s.18-13.689,1.421-16.367c.459-.988.5-1.027-.155-1.771s-1.77-4.129-2.185-4.729-.559-.437-.813.811a24.48,24.48,0,0,1-1.638,4.785c-.4.6.091,1.228.558,2.062.756,1.356,2.534,14.03,2.258,19.135a.415.415,0,0,0,.385.328c.352.051,1.012.188,1,.4s-.4-.022-.75-.041-.815-.131-1.115.089-.5-.429-.528-.853-.9-8.02-6.221-12.8c-.976-.877-1.072-.685-2.318-.049s-3.146,1.34-1.607,2.084,7.71,2.944,9.644,12.5c0,0,.061,1.311-.78,1.5s-.207.553.335.6S349.157,62.953,350.959,64.191Z" fill="#078fa0"/>
      <path id="Path_19" data-name="Path 19" d="M349.4,57.043c-.2-.977-1.253-9.709-5.409-15.168-.792-1.041-.666-1-.315-1.477s1.722-2.232,1.806-3.1.964.244,1.324,1.764,3.459,12.662,3.112,17.506C349.812,57.975,349.61,58.109,349.4,57.043Z" fill="#078fa0"/>
      <g id="Group_5" data-name="Group 5">
        <path id="Path_20" data-name="Path 20" d="M341.591,68.752a6.929,6.929,0,0,1,4.4-3.814c4.447-1.317,8.121.712,9.135,4.136.592,2,.073,5.061-2.639,5.866-2.446.724-3.154-.686-3.326-1.264a1.654,1.654,0,0,1,.818-2.059c.733-.219,1.142.063,1.21.3s-.676.652-.582.969c.06.2.429-.188.763-.285a.7.7,0,0,1,.832.32c.046.158-.264.211-.2.424a.78.78,0,0,0,.95.383,2.8,2.8,0,0,0,1.8-2.455c.007-.305-.473.115-.751.2-.556.166-1.012-.008-1.147-.465-.086-.287-.125-.6.1-.664s.332.23.611.146c.5-.15.538-1.078.232-2.113a3.536,3.536,0,0,0-1.029-1.533c-.146-.123-.317-.123-.217.219s-.036.517-.378.621c-.717.211-.573.695-1.124.859a1.378,1.378,0,0,1-1.3-.523c-.082-.276.016-.5.2-.549s.373.213.569.154c.3-.09.448-.609.328-1.019-.255-.86-2.03-1.948-4.814-1.121a7.163,7.163,0,0,0-4.093,3.548,4.923,4.923,0,0,0-.651,3.116c.148.484.5.89,1.082.716a.9.9,0,0,0,.691-1.093c-.129-.59-1.167-.481-1.033-1.127.124-.379.273-.491.69-.614s.678.143.762-.4a2.386,2.386,0,0,1,1.6-2,1.561,1.561,0,0,1,2,.732c.121.409.063,1.252-.5,1.418s-.721-.166-.787-.392c-.1-.332.316-1.172-.936-.8-.891.266-.948,1.514-.874,2.381a2.1,2.1,0,0,1-1.438,2.394,1.235,1.235,0,0,1-1.468-.634c-.062-.215-.219-.371-.387.07a.792.792,0,0,1-.53.512c-.53.156-1.282.066-2.281-1.787-.5-.954-1.767-2.78-4.984-1.924,0,0-.562.224-.613.05-.072-.242.971-.669,1.98-.97s2.351-.533,2.583.246c.128.432.527.678.451.254s-.2-.721.137-.822.817.248,1.008.892c.142.481-.3,1.328.137,1.2.634-.187.577-.715.978-.834s.784.293.87.586c.141.475-.067.9-.268.961s-.268-.178-.493-.111a.7.7,0,0,0-.428.953.74.74,0,0,0,1.039.566C341.029,72.143,340.243,71.479,341.591,68.752Z" fill="#078fa0"/>
        <path id="Path_21" data-name="Path 21" d="M360.363,68.752a6.93,6.93,0,0,0-4.4-3.814c-4.448-1.317-8.122.712-9.137,4.136-.592,2-.072,5.061,2.64,5.866,2.447.724,3.156-.686,3.326-1.264a1.652,1.652,0,0,0-.819-2.059c-.733-.219-1.141.063-1.21.3s.677.652.583.969c-.059.2-.429-.188-.763-.285a.7.7,0,0,0-.833.32c-.045.158.265.211.2.424a.781.781,0,0,1-.95.383,2.8,2.8,0,0,1-1.8-2.455c-.006-.305.473.115.753.2.555.166,1.012-.008,1.146-.465.084-.287.123-.6-.1-.664s-.332.23-.613.146c-.5-.15-.539-1.078-.232-2.113a3.563,3.563,0,0,1,1.028-1.533c.148-.123.321-.123.219.219s.036.517.377.621c.718.211.574.695,1.125.859a1.38,1.38,0,0,0,1.3-.523c.083-.276-.016-.5-.2-.549s-.371.213-.566.154c-.3-.09-.448-.609-.328-1.019.255-.86,2.029-1.948,4.813-1.121a7.158,7.158,0,0,1,4.092,3.548,4.917,4.917,0,0,1,.651,3.116c-.147.484-.5.89-1.08.716a.9.9,0,0,1-.691-1.093c.127-.59,1.166-.481,1.031-1.127-.123-.379-.273-.491-.691-.614s-.676.143-.76-.4a2.384,2.384,0,0,0-1.6-2,1.56,1.56,0,0,0-2,.732c-.121.409-.063,1.252.506,1.418s.72-.166.786-.392c.1-.332-.315-1.172.936-.8.893.266.948,1.514.873,2.381a2.107,2.107,0,0,0,1.441,2.394,1.233,1.233,0,0,0,1.466-.634c.063-.215.22-.371.387.07a.8.8,0,0,0,.529.512c.531.156,1.284.066,2.282-1.787.5-.954,1.767-2.78,4.983-1.924,0,0,.562.224.615.05.072-.242-.972-.669-1.981-.97s-2.35-.533-2.583.246c-.129.432-.527.678-.45.254s.2-.721-.138-.822-.815.248-1.007.892c-.142.481.294,1.328-.138,1.2-.634-.187-.577-.715-.977-.834s-.786.293-.872.586c-.14.475.069.9.269.961s.268-.178.493-.111a.7.7,0,0,1,.427.953.74.74,0,0,1-1.039.566C360.926,72.143,361.71,71.479,360.363,68.752Z" fill="#078fa0"/>
      </g>
    </g>
  </g>
</svg>
