<svg xmlns="http://www.w3.org/2000/svg" width="248.009" height="36.225" viewBox="0 0 248.009 36.225">
  <g id="Group_26" data-name="Group 26" transform="translate(-1045 -3430)">
    <g id="Group_25" data-name="Group 25" transform="translate(481 -349)">
      <g id="Group_13" data-name="Group 13" transform="translate(495.569 3749.045)">
        <g id="Group_8" data-name="Group 8" transform="translate(146.266 58.534)">
          <path id="Path_22" data-name="Path 22" d="M219.957,85.951h2.1c1.11,0,2.342.277,2.342,1.922a1.488,1.488,0,0,1-1.305,1.511V89.4a1.7,1.7,0,0,1,1.624,1.788c0,1.675-1.449,2.035-2.435,2.035h-2.322Zm.678,3.144h1.407c1.408,0,1.675-.771,1.675-1.223,0-1.018-.719-1.305-1.583-1.305h-1.5Zm0,3.515h1.552c1.592,0,1.849-.884,1.849-1.4,0-1.079-.884-1.5-1.747-1.5h-1.655Z" transform="translate(-219.957 -85.766)" fill="#fff"/>
          <path id="Path_23" data-name="Path 23" d="M235.891,85.951h.7l3.062,7.275h-.76l-.791-1.931h-3.854l-.822,1.931h-.709Zm.318.74-1.7,3.987h3.339Z" transform="translate(-226.162 -85.766)" fill="#fff"/>
          <path id="Path_24" data-name="Path 24" d="M250.257,85.951h.678V92.61h3.391v.616h-4.069Z" transform="translate(-234.693 -85.766)" fill="#fff"/>
          <path id="Path_25" data-name="Path 25" d="M262.257,85.951h.678V92.61h3.391v.616h-4.069Z" transform="translate(-240.528 -85.766)" fill="#fff"/>
          <path id="Path_26" data-name="Path 26" d="M274.257,85.951h4.449v.616h-3.771v2.589h3.535v.617h-3.535V92.61h3.935v.616h-4.613Z" transform="translate(-246.364 -85.766)" fill="#fff"/>
          <path id="Path_27" data-name="Path 27" d="M288.9,86.567h-2.487v-.616h5.651v.616h-2.487v6.659H288.9Z" transform="translate(-252.278 -85.766)" fill="#fff"/>
          <path id="Path_28" data-name="Path 28" d="M308.562,91.705a1.84,1.84,0,0,0,1.665.914,1.481,1.481,0,0,0,1.633-1.429c0-2.035-3.75-.842-3.75-3.607a2.1,2.1,0,0,1,2.333-1.994,2.362,2.362,0,0,1,1.982.915l-.585.421a1.631,1.631,0,0,0-1.418-.719c-.873,0-1.633.452-1.633,1.377,0,2.188,3.75.873,3.75,3.607a2.083,2.083,0,0,1-2.261,2.045,2.732,2.732,0,0,1-2.363-1.1Z" transform="translate(-262.733 -85.591)" fill="#fff"/>
          <path id="Path_29" data-name="Path 29" d="M327.458,91.911a3.162,3.162,0,0,1-2.7,1.326,3.823,3.823,0,0,1,0-7.646,3.028,3.028,0,0,1,2.507,1.14l-.555.463a2.321,2.321,0,0,0-1.952-.986,3.208,3.208,0,0,0,0,6.412,2.621,2.621,0,0,0,2.147-1.131Z" transform="translate(-269.094 -85.591)" fill="#fff"/>
          <path id="Path_30" data-name="Path 30" d="M337.995,85.951h.678v3.206h4.069V85.951h.678v7.275h-.678V89.774h-4.069v3.452h-.678Z" transform="translate(-277.362 -85.766)" fill="#fff"/>
          <path id="Path_31" data-name="Path 31" d="M357.276,85.591a3.823,3.823,0,1,1-3.762,3.823A3.642,3.642,0,0,1,357.276,85.591Zm0,7.029a3.208,3.208,0,1,0-3.083-3.206A3,3,0,0,0,357.276,92.62Z" transform="translate(-284.909 -85.591)" fill="#fff"/>
          <path id="Path_32" data-name="Path 32" d="M375.956,85.591a3.823,3.823,0,1,1-3.76,3.823A3.643,3.643,0,0,1,375.956,85.591Zm0,7.029a3.208,3.208,0,1,0-3.082-3.206A3.005,3.005,0,0,0,375.956,92.62Z" transform="translate(-293.994 -85.591)" fill="#fff"/>
          <path id="Path_33" data-name="Path 33" d="M391.8,85.951h.678V92.61h3.391v.616H391.8Z" transform="translate(-303.526 -85.766)" fill="#fff"/>
        </g>
        <g id="Group_12" data-name="Group 12" transform="translate(68.431 29.955)">
          <path id="Path_34" data-name="Path 34" d="M82.81,51.5s-1.675,2.031-5.571,2.031c-5.186,0-8.809-3.595-8.809-10.016,0-5.653,2.689-10.51,8.616-10.51,3.732,0,6.065,1.7,6.065,4.719a3.8,3.8,0,0,1-.549,2h-.248a5.145,5.145,0,0,0,.494-2c0-2.579-1.839-4.473-5.763-4.473-3.815,0-6.7,4.062-6.7,10.373,0,5.3,2,9.659,6.942,9.659,3.732,0,5.323-1.976,5.323-1.976Z" transform="translate(-68.431 -31.44)" fill="#fff"/>
          <path id="Path_35" data-name="Path 35" d="M121.483,33.735V53.218H123.4v.247h-5.79v-.247h2.14V43.45H108.887v9.769H111v.247h-5.762v-.247h1.921V33.735h-1.921v-.247H111v.247h-2.113V43.2h10.866V33.735h-2.14v-.247h5.79v.247Z" transform="translate(-86.331 -31.673)" fill="#fff"/>
          <path id="Path_36" data-name="Path 36" d="M165.74,53.362h-5.79v-.247h1.838l-2.908-7.574a9.547,9.547,0,0,1-3.952.741,9.869,9.869,0,0,1-3.677-.466l-2.47,7.3h1.894v.247h-4.144v-.247h1.921l6.586-19.538,1.07-.3,7.738,19.84h1.894Zm-6.97-8.067L154.9,35.113l-3.567,10.428a10.577,10.577,0,0,0,3.595.494A10.4,10.4,0,0,0,158.77,45.295Z" transform="translate(-106.413 -31.569)" fill="#fff"/>
          <path id="Path_37" data-name="Path 37" d="M205.4,53.218v.247h-1.893c-.521,0-.851-.384-1.318-1.07L197.8,44.41a12.538,12.538,0,0,1-1.454.082l-4.391.028v8.7h2v.247H188.3v-.247h1.921V33.735H188.3v-.247h8.424c4.281,0,6.394,2.415,6.394,5.324a5.126,5.126,0,0,1-3.677,5.214l5.077,9.193ZM191.955,33.735V44.272l4.363-.027c3.7-.028,5.1-2,5.1-5.351a4.85,4.85,0,0,0-4.967-5.159Z" transform="translate(-126.728 -31.673)" fill="#fff"/>
          <path id="Path_38" data-name="Path 38" d="M228.959,33.735v-.247h5.872v.247h-2.223V53.218h8.506c2.059-.082,2.772-1.729,2.772-3.814h.274v4.061h-15.2v-.247h1.92V33.735Z" transform="translate(-146.499 -31.673)" fill="#fff"/>
          <path id="Path_39" data-name="Path 39" d="M265.231,33.735v-.247h15.2V37.55h-.275c0-2.14-.74-3.815-2.936-3.815h-8.342V43.2h8.287V41.254h.247v4.172h-.247V43.45h-8.287v9.769h8.342c2.2,0,2.936-1.674,2.936-3.814h.275v4.061h-15.2v-.247h1.921V33.735Z" transform="translate(-164.139 -31.673)" fill="#fff"/>
          <path id="Path_40" data-name="Path 40" d="M311.05,33.008c3.76,0,6.5,1.729,6.5,4.83a3.212,3.212,0,0,1-.385,1.454H316.9a2.944,2.944,0,0,0,.384-1.454c0-2.69-2.333-4.583-6.229-4.583-2.332,0-5.076,1.1-5.076,4.117,0,5.707,12.266,4.747,12.266,10.7,0,3.238-3.265,5.461-7.464,5.461-3.759,0-7.19-2.333-7.19-6.394a3.887,3.887,0,0,1,.3-1.455h.385a3.112,3.112,0,0,0-.357,1.455c0,3.4,2.716,6.147,6.86,6.147,2.36,0,5.791-1.18,5.791-4.5,0-5.461-12.212-4.748-12.212-10.62C304.355,34.188,308.416,33.008,311.05,33.008Z" transform="translate(-182.792 -31.44)" fill="#fff"/>
          <path id="Path_41" data-name="Path 41" d="M392.692,43.518c0-5.653,2.909-10.51,8.836-10.51,5.9,0,8.781,4.885,8.781,10.51,0,6.421-3.622,10.016-8.809,10.016S392.692,49.939,392.692,43.518Zm8.754,9.769c5.352,0,6.942-4.363,6.942-9.659,0-6.312-2.332-10.373-6.887-10.373s-6.888,4.089-6.888,10.373C394.613,48.9,396.095,53.287,401.446,53.287Z" transform="translate(-226.127 -31.44)" fill="#fff"/>
          <path id="Path_42" data-name="Path 42" d="M452.15,53.218v.247h-1.893c-.522,0-.851-.384-1.318-1.07l-4.39-7.985a12.546,12.546,0,0,1-1.455.082l-4.39.028v8.7h2v.247h-5.653v-.247h1.921V33.735h-1.921v-.247h8.424c4.281,0,6.394,2.415,6.394,5.324a5.126,5.126,0,0,1-3.677,5.214l5.077,9.193ZM438.7,33.735V44.272l4.364-.027c3.7-.028,5.1-2,5.1-5.351a4.85,4.85,0,0,0-4.967-5.159Z" transform="translate(-246.728 -31.673)" fill="#fff"/>
          <path id="Path_43" data-name="Path 43" d="M490.887,33.488V37.55h-.274c0-2.14-.741-3.815-2.936-3.815h-5.159V53.218h2.5v.247h-6.723v-.247h2.5V33.735h-5.077c-2.195,0-2.936,1.675-2.936,3.815H472.5V33.488Z" transform="translate(-264.94 -31.673)" fill="#fff"/>
          <path id="Path_44" data-name="Path 44" d="M532.124,33.735V53.218h1.921v.247h-5.79v-.247h2.141V43.45H519.528v9.769h2.113v.247h-5.763v-.247H517.8V33.735h-1.921v-.247h5.763v.247h-2.113V43.2h10.866V33.735h-2.141v-.247h5.79v.247Z" transform="translate(-286.035 -31.673)" fill="#fff"/>
          <g id="Group_11" data-name="Group 11" transform="translate(135.68)">
            <g id="Group_10" data-name="Group 10">
              <path id="Path_45" data-name="Path 45" d="M348.813,47.541c.777.538,2.856.92,4.915-.774s2.918-5.408,3.187-6.11.928-3.015,2.349-3.705,1.946-.227,2.251.218c.224.328.316.927-.551,1.681-.332.29-.992,0-.74-.31s-.315-.739-.66-.042c-.371.748.657,1.908,1.816.806a1.793,1.793,0,0,0-.79-3.116,3.785,3.785,0,0,0-3.421,1.879c-.33.477-.3.085-.285-.31a7.688,7.688,0,0,0-1.925-4.927c-.607-.623-1.56-1.508-2.337-.978-.442.3-.916,1.37.2,3.006s3.79,3.676,8.43,3.191c1.735-.182,1.923-1.851,2.566-3.227a1.985,1.985,0,0,0-.82-2.836,1.21,1.21,0,0,0-1.551.673c-.084.517.279,1.162.747,1.19a.9.9,0,0,0,.722-.511c.091-.233-.241-.235-.375-.162s-.355-.333.115-.512,1.262.494.817,1.584-.493,3.75-4.2,3.269a9.382,9.382,0,0,1-4.237-1.365c-.335-.227-.018-.213.3-.145a4,4,0,0,0,3.784-.6,1.5,1.5,0,0,0,.361-2.18,1.05,1.05,0,0,0-1.649-.112.819.819,0,0,0-.049,1.157.7.7,0,0,0,1.018-.043c.262-.358.106-.6-.169-.351s-.787-.065-.45-.5a.611.611,0,0,1,1.029-.029c.29.316.632,1.244-.977,2.035a4.326,4.326,0,0,1-4.561-.971c-.951-.929-.759-1.686-.524-1.9s1.138.3,1.7,1.082a6.649,6.649,0,0,1,1.385,3.977c.017.49-.292.01-.68.115a.641.641,0,0,0-.26,1.074,3.993,3.993,0,0,1,.416,3.5c-.193.455-.177.11-.149-.246a2.726,2.726,0,0,0-.9-1.864,1.239,1.239,0,0,0-1.963.455,1.282,1.282,0,0,0,.235,1.228c.314.4.2-.032.108-.327a.8.8,0,0,1,.415-1.013c.323-.117.259.117.081.283a.7.7,0,0,0,0,.937c.289.345.765-.27,1.068.7a4.668,4.668,0,0,1-.65,3.305c-.3.423-.383.274-.169-.074a2.945,2.945,0,0,0-.237-2.721,1.731,1.731,0,0,0-2.6-.05,1.073,1.073,0,0,0-.14,1.343c.219.156.3.027.3-.251s-.057-.959.743-.927c.984.042-.113.274.2,1.112.147.395,1.116.688.19,2.353a2.427,2.427,0,0,1-3.255.623,2.184,2.184,0,0,1-.751-1.948c.081-.837.631-.523.929.354s-.606,1.5-.967,1.7a2.5,2.5,0,0,1-3.257-.62c-.927-1.661.042-1.958.189-2.354.308-.838-.787-1.124.2-1.11.656.009.743.646.743.925s.086.406.3.251a1.074,1.074,0,0,0-.141-1.343,1.734,1.734,0,0,0-2.6.052,2.944,2.944,0,0,0-.233,2.723c.213.347.127.5-.171.073a4.664,4.664,0,0,1-.652-3.3c.3-.966.778-.352,1.066-.7a.708.708,0,0,0,0-.94c-.179-.164-.243-.4.08-.281a.794.794,0,0,1,.416,1.012c-.092.3-.2.725.107.327a1.277,1.277,0,0,0,.235-1.23,1.24,1.24,0,0,0-1.964-.452,2.729,2.729,0,0,0-.894,1.867c.028.355.044.7-.148.245a4,4,0,0,1,.411-3.5.641.641,0,0,0-.26-1.072c-.391-.105-.7.375-.68-.116a6.633,6.633,0,0,1,1.381-3.978c.561-.779,1.462-1.3,1.7-1.082s.427.971-.523,1.9a4.323,4.323,0,0,1-4.561.974c-1.609-.787-1.268-1.715-.977-2.034a.611.611,0,0,1,1.029.03c.336.434-.174.752-.449.5s-.433-.008-.171.351a.7.7,0,0,0,1.019.043.822.822,0,0,0-.048-1.159,1.052,1.052,0,0,0-1.65.115,1.5,1.5,0,0,0,.363,2.179,4,4,0,0,0,3.785.6c.314-.067.631-.081.3.146a9.364,9.364,0,0,1-4.236,1.368c-3.709.486-4.273-2.17-4.719-3.261s.356-1.758.816-1.585.25.584.116.512-.466-.072-.377.162a.9.9,0,0,0,.724.509c.468-.029.829-.672.747-1.192a1.211,1.211,0,0,0-1.552-.669,1.983,1.983,0,0,0-.818,2.834c.644,1.377,1.35,3.044,3.083,3.223,4.641.481,7.312-1.561,8.429-3.2s.629-2.689.2-3.006c-.656-.485-1.73.356-2.338.98a7.682,7.682,0,0,0-1.919,4.929c.017.4.045.786-.284.312a3.784,3.784,0,0,0-3.424-1.877,1.794,1.794,0,0,0-.786,3.119c1.161,1.1,2.187-.062,1.816-.81-.346-.7-.913-.264-.661.042s-.406.6-.739.311c-.868-.754-.776-1.354-.554-1.681.3-.445.833-.91,2.253-.221s2.08,3,2.35,3.7,1.133,4.414,3.194,6.107a4.4,4.4,0,0,0,4.916.77,2.736,2.736,0,0,0,1.189-1.8c.044-.34.147-.284.373-.117s.234-.089-.076-.334-.61-2.076.787-4.1,2.607-3.089,3.682-3.282c.591-.106-.449-.715-1.123-1.14s-.735-.442-1.226.1a26.336,26.336,0,0,0-2.74,6.533c-.11.622-.081-.492.082-1.253s1.235-5.094,2.2-6.152c.246-.27.079-.46-.253-.762s-.708-.722-.7-.98-.159-.41-.451.575-1.294,7.916-1.287,8.85c.006.536-.136-.351-.086-1.9s.092-7.032.73-8.407c.236-.508.255-.528-.08-.91s-.91-2.121-1.123-2.429-.287-.224-.417.417A12.609,12.609,0,0,1,347.007,33c-.2.308.047.631.287,1.059a42.709,42.709,0,0,1,1.159,9.829.213.213,0,0,0,.2.168c.181.026.52.1.512.2s-.206-.011-.385-.021-.418-.067-.572.046-.255-.22-.271-.438a11.22,11.22,0,0,0-3.2-6.577c-.5-.45-.551-.352-1.191-.025s-1.616.688-.826,1.07,3.96,1.512,4.954,6.422c0,0,.031.673-.4.773s-.106.284.172.31S347.887,46.905,348.813,47.541Z" transform="translate(-332.566 -29.955)" fill="#fff"/>
              <path id="Path_46" data-name="Path 46" d="M359.716,47.289c-.1-.5-.644-4.987-2.778-7.791-.407-.535-.342-.516-.162-.759a5.11,5.11,0,0,0,.928-1.595c.043-.449.5.125.68.906s1.777,6.5,1.6,8.992C359.929,47.767,359.825,47.836,359.716,47.289Z" transform="translate(-344.271 -33.374)" fill="#fff"/>
              <g id="Group_9" data-name="Group 9" transform="translate(6.649 17.762)">
                <path id="Path_47" data-name="Path 47" d="M350.3,66.7a3.56,3.56,0,0,1,2.259-1.959c2.284-.677,4.172.366,4.692,2.125a2.359,2.359,0,0,1-1.356,3.013c-1.256.372-1.62-.352-1.708-.649a.85.85,0,0,1,.42-1.058c.377-.112.587.032.622.153s-.348.335-.3.5c.031.1.22-.1.392-.146a.359.359,0,0,1,.427.164c.024.081-.136.108-.1.218a.4.4,0,0,0,.488.2,1.44,1.44,0,0,0,.924-1.261c0-.157-.243.059-.386.1-.286.085-.52,0-.59-.239-.044-.147-.064-.307.052-.341s.171.118.313.075c.257-.077.276-.554.12-1.085a1.816,1.816,0,0,0-.529-.787c-.074-.063-.162-.063-.111.112s-.018.266-.194.319c-.368.108-.295.357-.577.441a.708.708,0,0,1-.666-.269c-.042-.142.008-.255.1-.282s.192.109.292.079c.157-.046.231-.313.168-.523-.13-.442-1.042-1-2.472-.576a3.682,3.682,0,0,0-2.1,1.823,2.529,2.529,0,0,0-.334,1.6c.076.249.255.457.556.368a.46.46,0,0,0,.354-.561c-.066-.3-.6-.247-.53-.579.064-.195.14-.252.354-.315s.348.073.391-.2a1.227,1.227,0,0,1,.823-1.027.8.8,0,0,1,1.029.376c.062.21.032.643-.259.728s-.37-.085-.4-.2c-.051-.171.162-.6-.481-.411-.458.137-.486.778-.448,1.223a1.081,1.081,0,0,1-.739,1.23.634.634,0,0,1-.754-.326c-.032-.11-.112-.191-.2.036a.406.406,0,0,1-.272.263c-.272.08-.659.034-1.172-.918a2,2,0,0,0-2.561-.988s-.288.115-.314.026c-.037-.124.5-.344,1.017-.5s1.208-.274,1.327.126c.066.222.271.348.232.13s-.1-.37.07-.422.42.127.518.458c.073.247-.152.682.07.616.326-.1.3-.367.5-.428s.4.151.447.3c.073.244-.034.463-.137.494s-.138-.091-.253-.057a.359.359,0,0,0-.22.49.38.38,0,0,0,.534.291C350.007,68.442,349.6,68.1,350.3,66.7Z" transform="translate(-345.509 -64.533)" fill="#fff"/>
                <path id="Path_48" data-name="Path 48" d="M366.911,66.7a3.561,3.561,0,0,0-2.259-1.959c-2.284-.677-4.172.366-4.693,2.125a2.359,2.359,0,0,0,1.356,3.013c1.258.372,1.622-.352,1.708-.649a.848.848,0,0,0-.42-1.058c-.377-.112-.587.032-.622.153s.348.335.3.5c-.03.1-.22-.1-.392-.146a.36.36,0,0,0-.428.164c-.023.081.136.108.105.218a.4.4,0,0,1-.488.2,1.44,1.44,0,0,1-.924-1.261c0-.157.242.059.386.1.285.085.52,0,.589-.239.043-.147.063-.307-.051-.341s-.171.118-.314.075c-.257-.077-.277-.554-.119-1.085a1.821,1.821,0,0,1,.528-.787c.076-.063.164-.063.112.112s.018.266.194.319c.368.108.295.357.578.441a.71.71,0,0,0,.666-.269c.043-.142-.008-.255-.1-.282s-.191.109-.29.079c-.157-.046-.23-.313-.168-.523.131-.442,1.042-1,2.472-.576a3.678,3.678,0,0,1,2.1,1.823,2.525,2.525,0,0,1,.334,1.6c-.075.249-.255.457-.555.368a.459.459,0,0,1-.354-.561c.065-.3.6-.247.529-.579-.063-.195-.14-.252-.354-.315s-.347.073-.39-.2a1.226,1.226,0,0,0-.823-1.027.8.8,0,0,0-1.029.376c-.063.21-.032.643.259.728s.37-.085.4-.2c.051-.171-.162-.6.481-.411.459.137.486.778.448,1.223a1.083,1.083,0,0,0,.741,1.23.633.633,0,0,0,.753-.326c.033-.11.113-.191.2.036a.407.407,0,0,0,.271.263c.273.08.66.034,1.173-.918a1.993,1.993,0,0,1,2.56-.988s.289.115.315.026c.038-.124-.5-.344-1.017-.5s-1.208-.274-1.327.126c-.066.222-.271.348-.231.13s.1-.37-.071-.422-.419.127-.518.458c-.072.247.152.682-.071.616-.325-.1-.3-.367-.5-.428s-.4.151-.448.3c-.072.244.035.463.138.494s.138-.091.253-.057a.357.357,0,0,1,.219.49.38.38,0,0,1-.534.291C367.2,68.442,367.6,68.1,366.911,66.7Z" transform="translate(-352.482 -64.533)" fill="#fff"/>
              </g>
            </g>
          </g>
        </g>
      </g>
    </g>
  </g>
</svg>
