<?xml version="1.0" encoding="UTF-8"?>
<svg width="24px" height="24px" viewBox="0 0 24 24" version="1.1" xmlns="http://www.w3.org/2000/svg" xmlns:xlink="http://www.w3.org/1999/xlink">
    <title>phone-white</title>
    <g id="Page-1" stroke="none" stroke-width="1" fill="none" fill-rule="evenodd" stroke-linecap="round" stroke-linejoin="round">
        <g id="phone-white" transform="translate(1.000000, 1.000000)" stroke="#193F6E" stroke-width="2">
            <path d="M21.426,16.073 L21.426,19.305 C21.4284643,19.9117984 21.1749887,20.4915164 20.7278471,20.9017294 C20.2807054,21.3119423 19.6813391,21.5146314 19.077,21.46 C15.760994,21.1003229 12.5756349,19.9676366 9.777,18.153 C7.1739569,16.4989569 4.96704312,14.2920431 3.313,11.689 C1.49248519,8.87856833 0.359560049,5.67883418 0.006,2.349 C-0.0485007454,1.7460508 0.153134154,1.14798497 0.561576294,0.701114646 C0.970018433,0.254244321 1.54759268,-7.01327831e-05 2.153,-7.01327831e-05 L5.389,-7.01327831e-05 C6.4690484,-0.00864876932 7.38867264,0.783570537 7.54,1.853 C7.67639511,2.88720227 7.92933638,3.90265748 8.294,4.88 C8.58976903,5.66739102 8.40039579,6.55490724 7.809,7.153 L6.441,8.521 C7.97463052,11.2181635 10.2078365,13.4513695 12.905,14.985 L14.273,13.617 C14.8710928,13.0256042 15.758609,12.836231 16.546,13.132 C17.5233425,13.4966636 18.5387977,13.7496049 19.573,13.886 C20.6562481,14.0389788 21.4529936,14.9793363 21.426,16.073 L21.426,16.073 Z" id="phone"></path>
        </g>
    </g>
</svg>