<svg xmlns="http://www.w3.org/2000/svg" width="23.428" height="23.471" viewBox="0 0 23.428 23.471">
  <path id="phone" d="M23.537,18.073v3.232a2.155,2.155,0,0,1-2.349,2.155,21.32,21.32,0,0,1-9.3-3.307,21.007,21.007,0,0,1-6.464-6.464,21.32,21.32,0,0,1-3.307-9.34A2.155,2.155,0,0,1,4.264,2H7.5A2.155,2.155,0,0,1,9.651,3.853a13.833,13.833,0,0,0,.754,3.027A2.155,2.155,0,0,1,9.92,9.153L8.552,10.521a17.237,17.237,0,0,0,6.464,6.464l1.368-1.368a2.155,2.155,0,0,1,2.273-.485,13.833,13.833,0,0,0,3.027.754,2.155,2.155,0,0,1,1.853,2.187Z" transform="translate(-1.111 -1)" fill="none" stroke="#fff" stroke-linecap="round" stroke-linejoin="round" stroke-width="2"/>
</svg>
