<?xml version="1.0" encoding="UTF-8"?>
<svg width="538px" height="105px" viewBox="0 0 538 105" version="1.1" xmlns="http://www.w3.org/2000/svg" xmlns:xlink="http://www.w3.org/1999/xlink">
    <title>quantify-logo</title>
    <g id="Page-1" stroke="none" stroke-width="1" fill="none" fill-rule="evenodd">
        <g id="quantify-logo" fill="#0099D8" fill-rule="nonzero">
            <g id="Group">
                <path d="M34.2,52.4 C34.2,47 36.3,41.9 40.1,38 C43.9,34.2 49,32 54.5,32 C59.9,32 65,34.1 68.9,37.9 C72.7,41.7 74.9,46.8 74.9,52.3 C74.9,57.7 72.8,62.8 69,66.7 C65.2,70.5 60.1,72.7 54.6,72.7 C49.2,72.7 44.1,70.6 40.2,66.8 C36.4,62.9 34.3,57.8 34.2,52.4 M21.7,52.4 C21.7,70.5 36.5,85.2 54.6,85.2 C72.7,85.2 87.4,70.4 87.4,52.3 C87.4,34.2 72.6,19.5 54.5,19.5 C36.4,19.5 21.7,34.2 21.7,52.4 L21.7,52.4 Z" id="Shape"></path>
                <path d="M100.4,23.2 C100.4,26.7 97.6,29.5 94.1,29.5 C90.6,29.5 87.8,26.7 87.8,23.2 C87.8,19.7 90.6,16.9 94.1,16.9 C97.5,16.9 100.3,19.8 100.4,23.2 Z" id="Path"></path>
                <path d="M12.6,52.4 C12.6,55.9 9.8,58.7 6.3,58.7 C2.8,58.7 0,55.9 0,52.4 C0,48.9 2.8,46.1 6.3,46.1 C9.8,46.1 12.6,48.9 12.6,52.4 Z" id="Path"></path>
                <path d="M45.5,98.4 C45.5,101.9 42.7,104.7 39.2,104.7 C35.7,104.7 32.9,101.9 32.9,98.4 C32.9,94.9 35.7,92.1 39.2,92.1 C42.6,92.1 45.5,94.9 45.5,98.4 Z" id="Path"></path>
                <path d="M100.4,81.2 C100.4,84.7 97.6,87.5 94.1,87.5 C90.6,87.5 87.8,84.7 87.8,81.2 C87.8,77.7 90.6,74.9 94.1,74.9 C97.5,74.9 100.3,77.8 100.4,81.2 Z" id="Path"></path>
                <path d="M45.3,6.3 C45.3,9.8 42.5,12.6 39,12.6 C35.5,12.6 32.7,9.8 32.7,6.3 C32.7,2.8 35.5,0 39,0 C42.5,0 45.3,2.8 45.3,6.3 Z" id="Path"></path>
            </g>
            <g id="Group" transform="translate(133.000000, 29.000000)">
                <path d="M66.6,27.2 L66.6,2.7 C66.6,2 67.2,1.4 67.9,1.4 L75.2,1.4 C75.9,1.4 76.5,2 76.5,2.7 L76.5,27 C76.5,34.4 80.2,38.2 86.3,38.2 C92.4,38.2 96.1,34.5 96.1,27.3 L96.1,2.7 C96.1,2 96.7,1.4 97.4,1.4 L104.7,1.4 C105.4,1.4 106,2 106,2.7 L106,26.9 C106,40.6 98.3,47.3 86.1,47.3 C74,47.4 66.6,40.6 66.6,27.2 Z" id="Path"></path>
                <path d="M141.6,1 L141.6,1 C144.4,1 146.9,2.7 148,5.2 L164.8,44.7 C165.2,45.6 164.5,46.6 163.6,46.6 L156.1,46.6 C155.6,46.6 155.1,46.3 154.9,45.8 L151.1,36.5 L132,36.5 L128.2,45.8 C128,46.3 127.5,46.6 127,46.6 L119.8,46.6 C118.8,46.6 118.2,45.6 118.6,44.7 L135.4,5.2 C136.3,2.7 138.8,1 141.6,1 Z M147.5,27.7 L141.5,13 L135.5,27.7 L147.5,27.7 Z" id="Shape"></path>
                <path d="M184.6,1.4 L184.6,1.4 C186.5,1.4 188.3,2.3 189.5,3.8 L208.9,29.3 L208.9,2.7 C208.9,2 209.5,1.4 210.2,1.4 L217.4,1.4 C218.1,1.4 218.7,2 218.7,2.7 L218.7,41 C218.7,44.1 216.2,46.7 213,46.7 L213,46.7 C211.2,46.7 209.6,45.9 208.5,44.5 L188.3,17.9 L188.3,45.3 C188.3,46 187.7,46.6 187,46.6 L179.8,46.6 C179.1,46.6 178.5,46 178.5,45.3 L178.5,7.5 C178.5,4.1 181.2,1.4 184.6,1.4 Z" id="Path"></path>
                <path d="M247.2,10.6 L234.8,10.6 C234.1,10.6 233.5,10 233.5,9.3 L233.5,2.8 C233.5,2.1 234.1,1.5 234.8,1.5 L269.6,1.5 C270.3,1.5 270.9,2.1 270.9,2.8 L270.9,9.3 C270.9,10 270.3,10.6 269.6,10.6 L257.2,10.6 L257.2,45.4 C257.2,46.1 256.6,46.7 255.9,46.7 L248.6,46.7 C247.9,46.7 247.3,46.1 247.3,45.4 L247.3,10.6 L247.2,10.6 Z" id="Path"></path>
                <path d="M287.3,1.4 L294.6,1.4 C295.3,1.4 295.9,2 295.9,2.7 L295.9,45.3 C295.9,46 295.3,46.6 294.6,46.6 L287.3,46.6 C286.6,46.6 286,46 286,45.3 L286,2.7 C285.9,2 286.5,1.4 287.3,1.4 Z" id="Path"></path>
                <path d="M316.4,1.4 L348.2,1.4 C348.9,1.4 349.5,2 349.5,2.7 L349.5,9.1 C349.5,9.8 348.9,10.4 348.2,10.4 L325,10.4 L325,20 L345.3,20 C346,20 346.6,20.6 346.6,21.3 L346.6,27.7 C346.6,28.4 346,29 345.3,29 L325,29 L325,45.2 C325,45.9 324.4,46.5 323.7,46.5 L316.4,46.5 C315.7,46.5 315.1,45.9 315.1,45.2 L315.1,2.7 C315.1,2 315.7,1.4 316.4,1.4 Z" id="Path"></path>
                <path d="M378.5,28.8 L362.4,3.4 C361.8,2.5 362.5,1.3 363.5,1.3 L372,1.3 C372.5,1.3 372.9,1.5 373.1,2 L383.5,19.5 L394.2,2 C394.4,1.6 394.9,1.4 395.3,1.4 L403.4,1.4 C404.5,1.4 405.1,2.6 404.5,3.5 L388.4,28.7 L388.4,45.4 C388.4,46.1 387.8,46.7 387.1,46.7 L379.8,46.7 C379.1,46.7 378.5,46.1 378.5,45.4 L378.5,28.8 L378.5,28.8 Z" id="Path"></path>
                <path d="M43.6,38.2 L24.5,38.2 L24.5,38.2 C24.5,38.2 24.4,38.2 24.4,38.2 C16.4,38.2 10.7,31.7 10.7,24 L10.7,23.9 C10.7,16.1 16.3,9.8 24.3,9.8 C32.3,9.8 38,16.3 38,24 L38,24.1 C38,26.9 37.3,29.4 36,31.6 C35.5,32.5 36.1,33.6 37.1,33.6 L45.4,33.6 C45.9,33.6 46.4,33.3 46.6,32.8 C47.7,30.1 48.3,27.1 48.3,24 L48.3,23.9 C48.3,11 38.3,0.6 24.3,0.6 C10.3,0.6 0.2,11.1 0.2,24 L0.2,24.1 C0.2,37 10.2,47.4 24.2,47.4 C24.4,47.4 24.6,47.4 24.8,47.4 L48.4,47.4 C49.1,47.4 49.7,46.8 49.7,46.1 L49.7,39.6 C49.7,38.9 49.1,38.3 48.4,38.3 L43.6,38.2 L43.6,38.2 Z" id="Path"></path>
            </g>
        </g>
    </g>
</svg>