<?xml version="1.0" encoding="UTF-8"?>
<svg width="56px" height="57px" viewBox="0 0 56 57" version="1.1" xmlns="http://www.w3.org/2000/svg" xmlns:xlink="http://www.w3.org/1999/xlink">
    <title>arrow-right</title>
    <g id="Page-1" stroke="none" stroke-width="1" fill="none" fill-rule="evenodd">
        <g id="arrow-right">
            <path d="M55.776,28.071 C55.776,23.406 53.846,18.258 50.789,13.753 C46.124,7.153 40.171,2.492 32.128,0.722 C20.384,-2.012 9.605,3.136 4.297,14.075 C2.28975758,18.1330716 1.19158003,22.5800423 1.079,27.106 C0.784642918,30.1858779 1.05576562,33.2936219 1.879,36.276 C3.97,43.193 7.831,48.502 14.266,52.041 C17.8778213,53.9584659 21.7147978,55.4177398 25.688,56.385 C29.6541163,57.3058867 33.8236866,56.609219 37.275,54.449 C39.2498941,53.31094 41.1326478,52.0199949 42.906,50.588 C46.063779,48.0201319 48.9236479,45.1062589 51.432,41.901 C54.489,38.049 55.776,33.701 55.776,28.071 Z M25.693,4.262 C30.7464154,4.21666079 35.6904662,5.73347434 39.849,8.605 C46.767,13.11 50.467,19.549 51.432,27.749 C51.8329378,32.07471 50.5670631,36.3902732 47.893,39.814 C43.9244073,45.0214201 38.7295059,49.1664856 32.771,51.88 C31.3206159,52.573928 29.6901458,52.7990133 28.106,52.524 C23.3901744,51.7746171 18.890927,50.0188465 14.914,47.376 C10.731,44.641 7.514,40.941 6.227,35.954 C4.43574354,29.1295784 5.11950458,21.891277 8.157,15.523 C11.697,8.284 17.327,4.262 25.693,4.262 Z" id="Path_514" fill="#59B7CC" fill-rule="nonzero"></path>
            <path d="M28.1835691,28.4012599 L18.6251756,17.2684722 C18.6251756,17.2684722 17.9620095,13.4775229 24.6746904,17.2684722 C31.3873713,21.0594215 38.1620677,28.4012599 38.1620677,28.4012599 C38.1620677,28.4012599 28.6616888,43.6440768 24.6746904,44.3902637 C20.6876921,45.1364505 28.1835691,28.4012599 28.1835691,28.4012599 Z" id="Path_515" stroke="#5AB8CC" stroke-width="3.00075141" stroke-linecap="round" stroke-linejoin="round" transform="translate(28.384596, 29.999051) rotate(10.017934) translate(-28.384596, -29.999051) "></path>
        </g>
    </g>
</svg>