<svg id="Group_86" data-name="Group 86" xmlns="http://www.w3.org/2000/svg" width="21.583" height="28.006" viewBox="0 0 21.583 28.006">
  <g id="Group_85" data-name="Group 85">
    <path id="Path_512" data-name="Path 512" d="M28.556,188.576a10.8,10.8,0,0,0-10.792,10.793c0,4.253,1.78,8.554,5.148,12.44a27.28,27.28,0,0,0,5.114,4.615.965.965,0,0,0,1.059,0,27.254,27.254,0,0,0,5.114-4.615c3.369-3.885,5.149-8.186,5.149-12.44a10.8,10.8,0,0,0-10.792-10.793Zm0,25.851c-1.985-1.479-8.857-7.171-8.857-15.057a8.857,8.857,0,1,1,17.714,0c0,7.886-6.872,13.578-8.857,15.057Zm0,0" transform="translate(-17.764 -188.576)" fill="#59b7cc"/>
    <path id="Path_513" data-name="Path 513" d="M30.8,197.331a4.284,4.284,0,1,0,4.283,4.284,4.289,4.289,0,0,0-4.283-4.284Zm0,6.632a2.348,2.348,0,1,1,2.347-2.349,2.351,2.351,0,0,1-2.347,2.349Zm0,0" transform="translate(-20.012 -190.824)" fill="#59b7cc"/>
  </g>
</svg>
