<?xml version="1.0" encoding="UTF-8"?>
<svg width="58px" height="43px" viewBox="0 0 58 43" version="1.1" xmlns="http://www.w3.org/2000/svg" xmlns:xlink="http://www.w3.org/1999/xlink">
    <title>arrow-right-green</title>
    <g id="Page-1" stroke="none" stroke-width="1" fill="none" fill-rule="evenodd">
        <g id="arrow-right-green" fill="#5C5C5C" fill-rule="nonzero">
            <path d="M45.6542739,14.7406701 C48.5216881,14.7406701 49.2737968,15.6047949 49.2757971,18.8702667 C49.2757971,20.6045172 49.2917994,22.3387678 49.2757971,24.071018 C49.2507934,26.3713504 48.3416621,27.4465057 46.3253708,27.5905265 C45.9603181,27.6175304 45.5922649,27.5975275 45.2252119,27.5975275 L4.30129965,28.1846123 C1.00882399,28.1846123 0.315723861,27.4054998 0.314723716,23.7119662 C0.314723716,22.0967328 0.307722705,20.4824996 0.314723716,18.8672663 C0.330726028,16.2908941 1.16684682,15.3427571 3.4751803,15.3277549 C6.20257433,15.3097523 34.7997057,14.7336691 45.6582744,14.7376489" id="Path_101" transform="translate(24.797261, 21.461131) rotate(0.973934) translate(-24.797261, -21.461131) "></path>
            <path d="M55.7226324,18.625619 C57.4768858,21.3850177 57.207847,22.5711891 54.4544492,24.3264426 C52.9912378,25.2595774 51.5360276,26.2037138 50.0608144,27.1158456 C48.1045318,28.3250203 46.6423206,28.0259771 45.2861247,26.1657084 C45.0410893,25.8286597 44.8320591,25.4656072 44.6070265,25.1105559 C31.4151207,4.3675592 48.0815285,30.5993489 34.8906228,9.8573523 C32.8763318,6.68989471 33.1093655,5.60473793 36.2258157,3.62145141 C37.5880125,2.75532628 38.9462087,1.88019986 40.3154065,1.02107574 C42.4977218,-0.347121922 43.8089112,-0.0510791536 45.2341171,2.16124046 C46.9173603,4.77561815 49.0826731,8.17510927 55.7236325,18.6236188" id="Path_102" transform="translate(45.208656, 14.016867) rotate(0.973934) translate(-45.208656, -14.016867) "></path>
            <path d="M44.9130845,17.3165652 C46.7053434,14.5801699 47.8965155,14.3371348 50.6289102,16.1253931 C52.0801199,17.0735301 53.541331,18.0106655 54.9795388,18.9788054 C56.8868143,20.263991 57.2178621,21.7192013 56.0796977,23.7214905 C55.8736679,24.084543 55.6266322,24.4215917 55.3975992,24.7746427 C41.9316537,45.341614 58.968115,19.3488588 45.5011694,39.9128297 C43.4448724,43.0532834 42.3607157,43.2873172 39.2712694,41.2670253 C37.9200742,40.3828976 36.5648784,39.5047707 35.2196841,38.6096414 C33.073374,37.1854356 32.803335,35.8662451 34.2315413,33.657926 C35.9197852,31.0455486 38.126104,27.6730614 44.910084,17.3175654" id="Path_103" transform="translate(45.039209, 28.776357) rotate(0.973934) translate(-45.039209, -28.776357) "></path>
        </g>
    </g>
</svg>