<svg xmlns="http://www.w3.org/2000/svg" width="10.962" height="10.142" viewBox="0 0 10.962 10.142">
  <g id="Group_230" data-name="Group 230" transform="translate(-344.681 -441.538)">
    <path id="Path_62" data-name="Path 62" d="M98.374,395.319c.742,0,.936.224.937,1.068,0,.449,0,.9,0,1.346-.007.595-.242.873-.763.911-.094.007-.19,0-.285,0h-6.1c-.852,0-1.031-.2-1.031-1.157,0-.418,0-.835,0-1.253,0-.666.22-.912.818-.916.705,0,3.616,0,6.425,0" transform="translate(-46.788 542.81) rotate(-90)" fill="#b7d433"/>
    <path id="Path_63" data-name="Path 63" d="M127.341,371.412c.454.714.384,1.021-.328,1.474-.378.241-.755.486-1.137.722a.805.805,0,0,1-1.235-.246c-.063-.087-.118-.182-.176-.273-3.413-5.366.9,1.42-2.514-3.946-.521-.819-.461-1.1.345-1.613.352-.224.7-.45,1.058-.672.564-.354.9-.277,1.272.295.435.676,1,1.556,2.714,4.258" transform="translate(-21.964 569.203) rotate(-90)" fill="#b7d433"/>
    <path id="Path_64" data-name="Path 64" d="M124.608,395.746c.464-.708.772-.771,1.479-.308.376.245.753.488,1.126.738a.806.806,0,0,1,.285,1.227c-.053.094-.117.182-.176.272-3.484,5.32.924-1.4-2.56,3.916-.532.812-.812.873-1.612.35-.35-.229-.7-.456-1.048-.687-.555-.369-.625-.71-.256-1.281.437-.676,1.008-1.548,2.763-4.227" transform="translate(-46.636 569.203) rotate(-90)" fill="#b7d433"/>
  </g>
</svg>
