<svg xmlns="http://www.w3.org/2000/svg" width="18.845" height="17.437" viewBox="0 0 18.845 17.437">
  <g id="Group_152" data-name="Group 152" transform="translate(18.845) rotate(90)">
    <path id="Path_27" data-name="Path 27" d="M12.454,0c1.275,0,1.61.384,1.611,1.837,0,.771.007,1.543,0,2.314-.011,1.023-.416,1.5-1.312,1.566-.162.012-.326,0-.49,0H1.774C.31,5.722,0,5.375,0,3.733,0,3.015,0,2.3,0,1.578.009.433.381.011,1.408,0,2.621,0,7.625,0,12.454,0" transform="translate(0 6.615)" fill="#fff"/>
    <path id="Path_28" data-name="Path 28" d="M9.844,8.2c.78,1.227.661,1.755-.564,2.535-.651.415-1.3.835-1.954,1.241A1.385,1.385,0,0,1,5.2,11.549c-.109-.15-.2-.312-.3-.469C-.967,1.855,6.446,13.521.579,4.3c-.9-1.409-.792-1.891.594-2.773C1.778,1.138,2.382.749,2.991.368c.97-.608,1.554-.477,2.188.507C5.928,2.038,6.891,3.549,9.844,8.2" transform="translate(7.034 0)" fill="#fff"/>
    <path id="Path_29" data-name="Path 29" d="M5.145,1.039c.8-1.217,1.327-1.325,2.542-.53.646.422,1.3.838,1.935,1.269a1.385,1.385,0,0,1,.49,2.109c-.092.161-.2.313-.3.468C3.819,13.5,11.4,1.942,5.407,11.088c-.914,1.4-1.4,1.5-2.771.6-.6-.393-1.2-.784-1.8-1.182C-.12,9.874-.24,9.288.395,8.306c.751-1.162,1.732-2.662,4.75-7.267" transform="translate(7.034 6.575)" fill="#fff"/>
  </g>
</svg>
