<svg id="Component_25_1" data-name="Component 25 – 1" xmlns="http://www.w3.org/2000/svg" width="56.875" height="42.769" viewBox="0 0 56.875 42.769">
  <path id="Path_101" data-name="Path 101" d="M119.127,395.324c2.867,0,3.619.864,3.621,4.129,0,1.734.016,3.468,0,5.2-.025,2.3-.934,3.375-2.95,3.519-.365.027-.733.007-1.1.007l-40.918.587c-3.292,0-3.985-.779-3.986-4.472,0-1.615-.007-3.229,0-4.844.016-2.576.852-3.524,3.16-3.539,2.727-.018,31.32-.594,42.177-.59" transform="matrix(1, 0.017, -0.017, 1, -66.641, -382.253)" fill="#b7d433"/>
  <path id="Path_102" data-name="Path 102" d="M143.745,385.072c1.754,2.759,1.485,3.945-1.268,5.7-1.463.933-2.918,1.877-4.393,2.789-1.956,1.209-3.418.91-4.774-.95-.245-.337-.454-.7-.679-1.055-13.19-20.74,3.474,5.488-9.715-15.251-2.014-3.167-1.781-4.252,1.335-6.235,1.362-.866,2.72-1.741,4.089-2.6,2.182-1.368,3.493-1.072,4.918,1.14,1.683,2.614,3.848,6.013,10.488,16.46" transform="matrix(1, 0.017, -0.017, 1, -81.556, -368.712)" fill="#b7d433"/>
  <path id="Path_103" data-name="Path 103" d="M133.181,397.477c1.792-2.736,2.983-2.979,5.715-1.191,1.451.948,2.912,1.885,4.35,2.853,1.907,1.285,2.238,2.74,1.1,4.742-.206.363-.453.7-.682,1.053-13.464,20.564,3.57-5.425-9.895,15.136-2.056,3.14-3.14,3.374-6.229,1.354-1.351-.884-2.706-1.762-4.051-2.657-2.146-1.424-2.416-2.743-.988-4.951,1.688-2.612,3.894-5.984,10.677-16.338" transform="matrix(1, 0.017, -0.017, 1, -81.316, -382.425)" fill="#b7d433"/>
</svg>
