<?xml version="1.0" encoding="UTF-8"?>
<svg width="16px" height="12px" viewBox="0 0 16 12" version="1.1" xmlns="http://www.w3.org/2000/svg" xmlns:xlink="http://www.w3.org/1999/xlink">
    <title>email-gray</title>
    <g id="Page-1" stroke="none" stroke-width="1" fill="none" fill-rule="evenodd">
        <g id="email-gray" fill="#B7D433" fill-rule="nonzero">
            <path d="M13.987,-0.00300133526 L1.999,-0.00300133526 C1.17330785,0.000853271921 0.505991009,0.671298864 0.506,1.49699866 L0.499,10.488 C0.499,11.3164271 1.17057288,11.988 1.999,11.988 L13.989,11.988 C14.3868247,11.988 14.7683556,11.8299647 15.0496602,11.5486602 C15.3309647,11.2673556 15.489,10.8858247 15.489,10.488 L15.489,1.49699866 C15.489,1.0988285 15.3306906,0.716994225 15.0489533,0.435632095 C14.767216,0.154269965 14.3851711,-0.00353089533 13.987,-0.00300133526 Z M13.987,2.997 L7.992,6.741 L1.999,2.997 L1.999,1.497 L7.992,5.242 L13.987,1.497 L13.987,2.997 Z" id="Path_152"></path>
        </g>
    </g>
</svg>