<svg xmlns="http://www.w3.org/2000/svg" width="23.449" height="23.026" viewBox="0 0 23.449 23.026">
  <path id="LinkedIn" d="M61.7,884.117v8.909H56.67v-8.312c0-2.088-.727-3.513-2.547-3.513a2.76,2.76,0,0,0-2.579,1.89,3.629,3.629,0,0,0-.166,1.259v8.676H46.35s.068-14.078,0-15.537h5.027v2.2c-.01.017-.023.034-.033.05h.033v-.05a4.972,4.972,0,0,1,4.53-2.567C59.216,877.124,61.7,879.345,61.7,884.117ZM41.091,870a2.688,2.688,0,1,0-.067,5.37h.034a2.688,2.688,0,1,0,.033-5.37Zm-2.547,23.026H43.57V877.489H38.545Z" transform="translate(-38.246 -870)" fill="#fff"/>
</svg>
