<?xml version="1.0" encoding="UTF-8"?>
<svg width="124px" height="47px" viewBox="0 0 124 47" version="1.1" xmlns="http://www.w3.org/2000/svg" xmlns:xlink="http://www.w3.org/1999/xlink">
    <title>logo-white</title>
    <g id="Page-1" stroke="none" stroke-width="1" fill="none" fill-rule="evenodd">
        <g id="logo-white" fill-rule="nonzero">
            <path d="M63.798,44.308 C62.2739371,46.2646039 59.7545951,47.1614444 57.337,46.608 C53.7904404,46.1212577 51.0957482,43.1738724 50.928,39.598 C50.744,37.461 50.821,35.298 50.833,33.15 C50.820793,31.3476424 51.4004554,29.5910896 52.483,28.15 C53.6840669,26.5158922 55.5038344,25.4470997 57.516,25.194 C59.1312054,24.9155358 60.7926992,25.1215262 62.291,25.786 C64.497934,26.7722065 66.0715326,28.7894101 66.491,31.17 C66.543,31.411 66.591,31.654 66.617,31.899 C66.668,32.344 66.488,32.546 66.04,32.549 C65.409,32.549 64.778,32.549 64.148,32.549 C63.548,32.549 63.408,32.42 63.295,31.821 C63.1183453,30.445767 62.2751125,29.246012 61.041,28.614 C59.8142033,27.9672882 58.3631721,27.9003259 57.0820275,28.4313012 C55.8008829,28.9622765 54.8226386,30.0360613 54.413,31.361 C54.1870876,32.0913694 54.0678566,32.850541 54.059,33.615 C54.023,35.415 54.008,37.229 54.111,39.03 C54.1231309,41.0228117 55.3907114,42.791333 57.274,43.443 C58.5941723,43.9512882 60.0747975,43.8238715 61.2887207,43.0975092 C62.502644,42.3711469 63.3148425,41.1266311 63.491,39.723 C63.5325333,39.1872602 63.5362091,38.6492573 63.502,38.113 L63.113,38.113 C61.8636667,38.113 60.6143333,38.113 59.365,38.113 C58.765,38.113 58.513,37.866 58.493,37.265 C58.4796667,36.845 58.4796667,36.4243333 58.493,36.003 C58.511,35.435 58.75,35.189 59.317,35.187 C61.4943333,35.1796667 63.6713333,35.1796667 65.848,35.187 C66.411,35.187 66.638,35.444 66.638,36.021 C66.638,39.2123333 66.638,42.4036667 66.638,45.595 C66.6754639,45.8205145 66.6026782,46.0503325 66.4422214,46.2131635 C66.2817646,46.3759945 66.0530404,46.4521477 65.827,46.418 C65.407,46.424 64.986,46.426 64.566,46.418 C64.3587845,46.4429515 64.151498,46.3720705 64.0029458,46.2254652 C63.8543937,46.07886 63.7807843,45.8725266 63.803,45.665 C63.791,45.237 63.803,44.808 63.803,44.305" id="Path_7" fill="#FFFFFF"></path>
            <path d="M82.794,37.302 L73.994,37.302 L73.994,37.738 C73.994,40.3106667 73.994,42.8833333 73.994,45.456 C73.994,46.199 73.768,46.421 73.02,46.422 C72.525,46.422 72.03,46.428 71.536,46.422 C71.3290482,46.4458225 71.1223938,46.3750091 70.9735461,46.2292665 C70.8246984,46.0835238 70.749545,45.8784079 70.769,45.671 C70.764,45.571 70.769,45.471 70.769,45.371 C70.769,39.063 70.769,32.7546667 70.769,26.446 C70.769,26.31 70.769,26.174 70.783,26.039 C70.7795154,25.8764119 70.8407803,25.7191023 70.9533099,25.6016964 C71.0658395,25.4842905 71.2204103,25.4164115 71.383,25.413 C72.037,25.387 72.693,25.386 73.346,25.413 C73.521149,25.4166587 73.6875832,25.4901167 73.8083222,25.6170523 C73.9290612,25.7439879 73.9941045,25.9138872 73.989,26.089 C73.997,26.212 73.995,26.336 73.995,26.46 C73.995,28.8973333 73.995,31.334 73.995,33.77 L73.995,34.23 L82.795,34.23 L82.795,33.809 C82.795,31.335 82.795,28.861 82.795,26.387 C82.795,25.587 82.995,25.387 83.803,25.387 C84.273,25.387 84.743,25.376 85.213,25.387 C85.4394379,25.3579351 85.6663202,25.4373748 85.8251703,25.6013428 C85.9840205,25.7653108 86.0562282,25.9945973 86.02,26.22 C86.02,32.6766667 86.02,39.1333333 86.02,45.59 C86.02,46.158 85.751,46.413 85.17,46.419 C84.675,46.419 84.18,46.419 83.685,46.419 C83.023,46.419 82.795,46.197 82.794,45.53 C82.7906667,43.2166667 82.7906667,40.9036667 82.794,38.591 L82.794,37.302 Z" id="Path_8" fill="#FFFFFF"></path>
            <path d="M32.822,25.01 C34.7480756,24.9502299 36.6306957,25.5896103 38.122,26.81 C39.2153904,27.7864185 39.840054,29.1830891 39.839,30.649 C39.8657502,30.8569502 39.7964985,31.0657825 39.6507943,31.2165444 C39.5050902,31.3673064 39.2987417,31.4436412 39.09,31.424 C38.534,31.437 37.977,31.435 37.421,31.424 C37.2396247,31.4479596 37.0562463,31.3978232 36.9122907,31.2849169 C36.7683351,31.1720106 36.675948,31.0058602 36.656,30.824 C36.586,30.563 36.549,30.292 36.467,30.035 C36.1338002,28.938512 35.1742397,28.1497241 34.034,28.035 C32.9838391,27.8516345 31.9065437,27.8959677 30.875,28.165 C29.8797479,28.3347064 29.1083621,29.1283281 28.967,30.128 C28.7155584,31.1395666 29.0840516,32.2042768 29.907,32.844 C30.7873877,33.4393649 31.7707483,33.86594 32.807,34.102 C34.36344,34.47296 35.8797095,34.9958 37.334,35.663 C39.5178448,36.7429658 40.7064466,39.1529585 40.234,41.543 C39.91,44.294 38.149,45.743 35.622,46.384 C33.5832764,46.9516366 31.4174062,46.8613483 29.433,46.126 C27.1554434,45.3477898 25.5058984,43.3591438 25.162,40.977 C25.156,40.941 25.154,40.903 25.151,40.866 C25.082,39.924 25.144,39.513 26.326,39.578 C26.708,39.599 27.093,39.578 27.476,39.578 C27.998,39.578 28.259,39.766 28.315,40.269 C28.4841894,42.3114108 30.1966212,43.8796516 32.246,43.869 C33.2564925,43.97923 34.2788587,43.864837 35.24,43.534 C36.2837477,43.1692724 36.9978641,42.2028349 37.04,41.098 C37.2306746,39.8992402 36.5458508,38.7332794 35.406,38.316 C34.218,37.824 32.976,37.455 31.746,37.07 C30.4698647,36.7376116 29.2449422,36.2329745 28.105,35.57 C26.6316124,34.6452029 25.7213138,33.0421306 25.682,31.303 C25.5443578,30.027647 25.8425441,28.7432605 26.528,27.659 C27.338734,26.4870065 28.5806105,25.6837778 29.982,25.425 C30.916,25.216 31.882,25.138 32.829,25.001" id="Path_9" fill="#FFFFFF"></path>
            <path d="M98.326,28.407 L98.326,45.44 C98.326,46.223 98.126,46.423 97.339,46.423 C96.893,46.423 96.448,46.423 96.003,46.423 C95.359,46.423 95.127,46.194 95.127,45.556 C95.127,42.6226667 95.127,39.6913333 95.127,36.762 L95.127,28.407 L94.706,28.407 C93.024,28.407 91.3416667,28.407 89.659,28.407 C88.881,28.407 88.68,28.198 88.679,27.407 C88.679,26.999 88.671,26.59 88.679,26.182 C88.6590518,25.9750721 88.7291409,25.7695704 88.8713744,25.6179567 C89.013608,25.466343 89.2142211,25.38329 89.422,25.39 C89.532,25.38 89.644,25.382 89.755,25.382 L103.67,25.382 C103.77,25.382 103.87,25.382 103.97,25.382 C104.190195,25.366933 104.405893,25.4493599 104.559924,25.6074342 C104.713955,25.7655084 104.790766,25.9832689 104.77,26.203 C104.784,26.648 104.78,27.093 104.77,27.538 C104.759,28.138 104.509,28.394 103.907,28.396 C102.212,28.402 100.518,28.396 98.823,28.396 L98.326,28.407 Z" id="Path_10" fill="#FFFFFF"></path>
            <path d="M3.229,35.91 C3.229,39.0886667 3.229,42.2673333 3.229,45.446 C3.229,46.195 3.004,46.42 2.264,46.422 C1.769,46.422 1.275,46.428 0.78,46.422 C0.573293643,46.4483311 0.365742891,46.3799767 0.215135882,46.2359684 C0.0645288727,46.0919602 -0.0130498045,45.887678 0.004,45.68 C-0.002,45.58 0.004,45.48 0.004,45.38 C0.004,39.072 0.004,38.888 0.004,32.58 C0.00199878239,32.4317838 0.00800754099,32.2835678 0.022,32.136 C0.0186643886,31.8087078 0.280720244,31.5403912 0.608,31.536 C1.274,31.512 1.942,31.511 2.608,31.536 C2.77735144,31.5411839 2.93755602,31.6140431 3.05276605,31.7382745 C3.16797608,31.8625058 3.22857389,32.0277386 3.221,32.197 C3.238,32.679 3.23,33.162 3.23,33.644 C3.23,36.444 3.23,33.111 3.23,35.906" id="Path_11" fill="#FFFFFF"></path>
            <path d="M47.053,35.888 C47.053,39.0666667 47.053,42.2456667 47.053,45.425 C47.053,46.217 46.84,46.425 46.041,46.425 C45.559,46.425 45.076,46.431 44.594,46.425 C44.3872107,46.4484953 44.1808459,46.3775362 44.0322351,46.2318355 C43.8836242,46.0861348 43.8085983,45.8812135 43.828,45.674 C43.823,45.574 43.828,45.474 43.828,45.374 C43.828,39.066 43.828,32.7576667 43.828,26.449 C43.828,26.313 43.828,26.176 43.842,26.042 C43.8385154,25.8794119 43.8997803,25.7221023 44.0123099,25.6046964 C44.1248395,25.4872905 44.2794103,25.4194115 44.442,25.416 C45.108,25.392 45.776,25.394 46.442,25.416 C46.776911,25.4364648 47.038949,25.7124782 47.042,26.048 C47.054,26.183 47.052,26.32 47.052,26.456 C47.052,29.5973333 47.052,32.739 47.052,35.881" id="Path_12" fill="#FFFFFF"></path>
            <path d="M112.142,11.521 C114.078,11.521 115.978,11.59 117.869,11.492 C118.83566,11.4429321 119.702103,10.8801832 120.14,10.017 C120.539446,9.20979289 120.6865,8.30098679 120.562,7.409 C120.582691,6.65397174 120.302189,5.92172421 119.782358,5.37375376 C119.262528,4.82578331 118.54607,4.50710393 117.791,4.488 C115.942,4.388 114.086,4.432 112.232,4.416 C112.207,4.416 112.182,4.449 112.142,4.478 L112.142,11.521 Z M119.683,14.183 L120.744,16.194 C121.665333,17.9393333 122.586333,19.6846667 123.507,21.43 C123.604866,21.6052297 123.692026,21.786228 123.768,21.972 C123.959,22.472 123.768,22.759 123.245,22.772 C122.595,22.781 121.945,22.748 121.295,22.782 C120.786475,22.8239506 120.312556,22.5211007 120.137,22.042 C118.97,19.73 117.785,17.428 116.63,15.111 C116.526303,14.8215089 116.234937,14.6433594 115.93,14.683 C114.681,14.706 113.43,14.692 112.13,14.692 L112.13,15.23 C112.13,17.3966667 112.13,19.5633333 112.13,21.73 C112.13,22.53 111.88,22.772 111.073,22.773 C110.573,22.773 110.082,22.781 109.587,22.773 C109.38263,22.790495 109.180517,22.7198699 109.031521,22.5788966 C108.882525,22.4379234 108.800832,22.240025 108.807,22.035 C108.797,21.912 108.807,21.787 108.807,21.664 C108.807,15.272 108.807,8.87966667 108.807,2.487 C108.807,1.519 108.999,1.328 109.971,1.328 C112.494,1.328 115.017,1.311 117.539,1.337 C118.890105,1.31559876 120.218306,1.68734232 121.362,2.407 C122.684178,3.25241629 123.561272,4.64264589 123.755,6.2 C123.976796,7.48259959 123.948953,8.79595247 123.673,10.068 C123.269136,11.887795 121.940784,13.3626456 120.173,13.954 C120.031,14.01 119.888,14.063 119.746,14.119 C119.733,14.124 119.726,14.142 119.686,14.189" id="Path_13" fill="#FFFFFF"></path>
            <path d="M103.058,11.711 C103.042115,10.4387145 102.938536,9.16903761 102.748,7.911 C102.487465,6.50378647 101.59764,5.2930109 100.332428,4.62415576 C99.0672158,3.95530063 97.5655812,3.90182957 96.256,4.479 C94.4698086,5.213379 93.3084543,6.9587737 93.321,8.89 C93.2,10.723 93.233,12.569 93.265,14.408 C93.281393,15.1627196 93.3915717,15.912472 93.593,16.64 C94.2480655,18.7910669 96.3219436,20.1878781 98.5614998,19.9864148 C100.801056,19.7849515 102.592351,18.0404416 102.853,15.807 C103.003,14.569 102.984,13.307 103.053,11.707 M89.883,11.707 C89.8866785,10.3385384 89.9815554,8.97184325 90.167,7.616 C90.5862659,4.33950129 93.1074381,1.72724165 96.367,1.192 C98.5247005,0.669298166 100.802659,1.07169817 102.650691,2.30201023 C104.498722,3.53232229 105.748801,5.4786841 106.099,7.671 C106.217452,8.32444045 106.279016,8.98692208 106.283,9.651 C106.308,11.351 106.318,13.051 106.283,14.758 C106.292216,16.7052653 105.639151,18.5978134 104.431,20.125 C102.924998,22.0201111 100.620104,23.1028306 98.2,23.052 C94.1001227,23.2194172 90.563678,20.1995123 90.087,16.124 C89.94071,14.6563134 89.8719478,13.1819314 89.881,11.707" id="Path_14" fill="#FFFFFF"></path>
            <path d="M65.779,1 C67.5532469,0.914562738 69.3058316,1.41916928 70.763,2.435 C72.1146442,3.41233005 72.916273,4.97803461 72.919,6.646 C72.933,7.213 72.687,7.452 72.107,7.461 C71.607,7.469 71.116,7.461 70.621,7.461 C69.921,7.461 69.837,7.361 69.635,6.687 C69.5025237,6.16859328 69.300703,5.67043235 69.035,5.206 C68.5034589,4.46486881 67.6566345,4.01409199 66.745,3.987 C65.5646803,3.82357806 64.3623798,3.94565991 63.239,4.343 C61.578,4.943 61.268,7.674 62.671,8.821 C63.6338393,9.49120863 64.7148831,9.97302976 65.857,10.241 C67.3243904,10.6454487 68.764899,11.1417611 70.17,11.727 C71.7606453,12.5018319 72.9150622,13.9550475 73.3100031,15.6797326 C73.7049439,17.4044177 73.2979561,19.2151841 72.203,20.605 C71.2105931,21.7894455 69.8205146,22.5715869 68.293,22.805 C66.0846347,23.3573335 63.7539121,23.1396771 61.686,22.188 C59.5067983,21.229048 58.0597786,19.1174224 57.952,16.739 C57.905,16.058 58.16,15.804 58.829,15.798 C59.278,15.798 59.729,15.798 60.175,15.798 C60.927,15.798 61.098,15.971 61.217,16.726 C61.3656279,18.0631358 62.2204362,19.2176425 63.456,19.75 C64.564845,20.1994187 65.7780489,20.3266318 66.956,20.117 C67.5616241,20.0182063 68.1516628,19.8403542 68.711,19.588 C70.249,18.943 70.731,15.938 68.929,14.788 C67.8769975,14.2079918 66.7538656,13.7676139 65.588,13.478 C64.331055,13.1186257 63.0939942,12.6930314 61.882,12.203 C59.6757516,11.3321696 58.2982674,9.12121209 58.489,6.757 C58.3931674,4.05358735 60.3464255,1.71088384 63.023,1.319 C63.3374396,1.24327618 63.655514,1.18353292 63.976,1.14 C64.576,1.077 65.176,1.04 65.776,0.997" id="Path_15" fill="#FFFFFF"></path>
            <path d="M47.18,4.398 L47.18,10.347 L54.118,10.347 C55.018,10.347 55.245,10.57 55.246,11.456 C55.246,11.812 55.246,12.168 55.246,12.524 C55.246,13.197 55.007,13.441 54.332,13.464 C54.054,13.474 53.775,13.464 53.496,13.464 L47.173,13.464 L47.173,19.706 L56.192,19.706 C57.003,19.706 57.202,19.906 57.204,20.712 C57.204,21.145 57.212,21.579 57.204,22.012 C57.218057,22.2079034 57.1491652,22.4007004 57.0141401,22.5433326 C56.8791149,22.6859648 56.6903792,22.7653095 56.494,22.762 C56.386,22.772 56.278,22.762 56.169,22.762 L44.841,22.762 C44.049,22.762 43.826,22.54 43.826,21.742 C43.826,15.2886667 43.826,8.83533333 43.826,2.382 C43.826,1.536 44.05,1.314 44.895,1.314 L56.177,1.314 C56.999,1.314 57.207,1.525 57.209,2.362 C57.209,2.749 57.209,3.136 57.209,3.523 C57.201,4.165 56.969,4.389 56.297,4.39 C53.4496667,4.39 50.602,4.39 47.754,4.39 L47.18,4.398 Z" id="Path_16" fill="#FFFFFF"></path>
            <path d="M32.71,18.353 C33.21,16.902 33.675,15.566 34.136,14.229 C35.5053333,10.2563333 36.874,6.28366667 38.242,2.311 C38.552,1.411 38.677,1.32 39.642,1.32 C40.122,1.32 40.601,1.314 41.081,1.32 C41.561,1.326 41.811,1.599 41.66,2.069 C41.285,3.241 40.872,4.401 40.46,5.56 C38.4866667,11.066 36.5103333,16.571 34.531,22.075 C34.317,22.675 34.187,22.764 33.552,22.766 C32.933,22.766 32.314,22.75 31.696,22.771 C31.2664195,22.8221501 30.8682438,22.5386664 30.776,22.116 C29.246,17.8413333 27.7073333,13.5693333 26.16,9.3 C25.3413333,7.02666667 24.526,4.75166667 23.714,2.475 C23.6454569,2.30350344 23.5955046,2.12515019 23.565,1.943 C23.5233278,1.78885101 23.559058,1.62406541 23.6608338,1.50102002 C23.7626096,1.37797464 23.9177709,1.31197538 24.077,1.324 C24.804,1.303 25.531,1.307 26.258,1.324 C26.772,1.335 26.944,1.732 27.085,2.137 C27.6723333,3.823 28.2576667,5.50966667 28.841,7.197 L32.711,18.35" id="Path_17" fill="#FFFFFF"></path>
            <path d="M83.293,4.417 L83.293,5.004 C83.293,10.56 83.293,16.1163333 83.293,21.673 C83.293,22.568 83.093,22.773 82.215,22.773 C81.782,22.773 81.348,22.773 80.915,22.773 C80.261,22.767 80.031,22.539 80.02,21.873 C80.013,21.455 80.02,21.037 80.02,20.619 L80.02,4.399 L79.502,4.399 C77.802,4.399 76.097,4.399 74.394,4.399 C73.668,4.399 73.46,4.181 73.457,3.457 C73.457,3.039 73.457,2.621 73.457,2.203 C73.464,1.594 73.723,1.325 74.332,1.324 C76.36,1.324 78.387,1.324 80.415,1.324 L88.815,1.324 C89.601,1.324 89.827,1.551 89.836,2.348 C89.836,2.735 89.844,3.122 89.836,3.509 C89.821,4.166 89.591,4.398 88.936,4.4 C87.172,4.4 85.407,4.4 83.643,4.4 C83.552,4.4 83.46,4.409 83.292,4.417" id="Path_18" fill="#FFFFFF"></path>
            <path d="M0.001,11.997 C0.001,8.797 0.001,5.59433333 0.001,2.389 C0.001,1.543 0.225,1.322 1.069,1.321 C1.518,1.321 1.969,1.321 2.415,1.321 C2.65797675,1.2877114 2.90287604,1.36700081 3.08023664,1.53637921 C3.25759725,1.70575762 3.34807223,1.9467488 3.326,2.191 C3.333,2.299 3.326,2.408 3.326,2.516 L3.326,32.966 C3.326,33.937 3.126,34.141 2.169,34.142 C1.751,34.142 1.334,34.142 0.916,34.142 C0.25,34.142 0.004,33.891 0.001,33.21 C0.001,32.41 0.001,13.228 0.001,12.424 L0.001,11.997 Z" id="Path_19" fill="#FFFFFF"></path>
            <path d="M13.335,22.194 C14.077,22.194 14.271,22.418 14.272,23.262 C14.272,23.711 14.272,24.162 14.272,24.608 C14.265,25.203 14.03,25.481 13.509,25.519 C13.415,25.526 13.319,25.519 13.224,25.519 L7.124,25.519 C6.272,25.519 6.093,25.319 6.093,24.362 C6.093,23.944 6.093,23.527 6.093,23.109 C6.093,22.443 6.313,22.197 6.911,22.193 C7.616,22.193 10.527,22.193 13.336,22.193" id="Path_20" fill="#B7D433"></path>
            <path d="M15.908,23.111 C16.362,23.825 16.292,24.132 15.58,24.585 C15.202,24.826 14.825,25.071 14.443,25.307 C14.2557534,25.465194 14.0066305,25.5294529 13.7662276,25.4815669 C13.5258246,25.433681 13.3203386,25.2788685 13.208,25.061 C13.145,24.974 13.09,24.879 13.032,24.788 C9.619,19.422 13.932,26.208 10.518,20.842 C9.997,20.023 10.057,19.742 10.863,19.229 C11.215,19.005 11.563,18.779 11.921,18.557 C12.485,18.203 12.821,18.28 13.193,18.852 C13.628,19.528 14.193,20.408 15.907,23.11" id="Path_21" fill="#B7D433"></path>
            <path d="M13.175,22.772 C13.639,22.064 13.947,22.001 14.654,22.464 C15.03,22.709 15.407,22.952 15.78,23.202 C16.001168,23.307643 16.1622476,23.5081845 16.2177025,23.7469322 C16.2731573,23.9856799 16.216961,24.2366889 16.065,24.429 C16.012,24.523 15.948,24.611 15.889,24.701 C12.405,30.021 16.813,23.301 13.329,28.617 C12.797,29.429 12.517,29.49 11.717,28.967 C11.367,28.738 11.017,28.511 10.669,28.28 C10.114,27.911 10.044,27.57 10.413,26.999 C10.85,26.323 11.421,25.451 13.176,22.772" id="Path_22" fill="#B7D433"></path>
            <path d="M9.302,39.424 L9.302,39.024 C9.302,34.524 9.302,34.903 9.302,30.401 C9.302,29.601 9.06,29.363 8.25,29.36 C7.796,29.36 7.341,29.35 6.888,29.36 C6.318,29.376 6.054,29.637 6.054,30.189 C6.054,36.658 6.054,39.118 6.054,45.589 C6.054,46.111 6.333,46.376 6.877,46.389 C7.319,46.397 7.763,46.358 8.201,46.399 C8.76587312,46.4622302 9.30897562,46.161398 9.555,45.649 C10.404,44.265 16.51,35.249 18.708,31.677 C18.7605267,31.5867458 18.8365623,31.5124383 18.928,31.462 L18.928,45.425 C18.928,46.184 19.139,46.39 19.914,46.391 C20.38,46.391 20.847,46.391 21.314,46.391 C21.868,46.384 22.114,46.147 22.131,45.598 C22.131,45.512 22.131,45.425 22.131,45.338 C22.131,39.03 22.131,32.291 22.131,25.983 C22.1328097,25.8347636 22.1264668,25.6865399 22.112,25.539 C22.1109691,25.2220436 21.8569017,24.9639787 21.54,24.958 C20.7656568,24.9145203 19.9892802,24.9225379 19.216,24.982 C18.95,25.006 18.643,25.329 18.479,25.59 C17.141,27.721 11.099,36.658 9.533,39.202 C9.482,39.284 9.425,39.363 9.371,39.444 L9.3,39.428" id="Path_23" fill="#FFFFFF"></path>
            <path d="M18.888,15.64 L18.888,15.133 C18.888,10.615 18.888,6.972 18.888,2.454 C18.888,1.554 19.114,1.321 19.999,1.32 C20.432,1.32 20.866,1.314 21.299,1.32 C21.856,1.33 22.109,1.585 22.133,2.148 C22.133,2.256 22.133,2.365 22.133,2.473 C22.133,8.863 22.133,15.657 22.133,22.047 C22.133,23.002 21.961,23.17 20.995,23.171 C20.639,23.171 20.281,23.145 19.928,23.177 C19.4049612,23.2315378 18.9041287,22.9512958 18.677,22.477 C17.752,20.946 11.65,11.337 9.528,7.826 C9.361,7.571 9.285,7.894 9.285,8.046 C9.285,12.873 9.285,12.961 9.285,17.788 C9.285,18.705 9.085,18.904 8.178,18.905 C7.729,18.905 7.278,18.913 6.832,18.905 C6.62750263,18.9216359 6.4256211,18.8502374 6.27705215,18.7087341 C6.12848319,18.5672307 6.04734024,18.3690648 6.054,18.164 C6.045,18.057 6.054,17.948 6.054,17.839 L6.054,2.439 C6.054,1.53 6.262,1.322 7.166,1.322 C7.708,1.322 8.251,1.35 8.79,1.314 C9.31166082,1.26539331 9.80814346,1.54778529 10.033,2.021 C11.578,4.601 17.299,13.208 18.606,15.374 C18.667,15.474 18.736,15.574 18.806,15.669 L18.894,15.641" id="Path_24" fill="#FFFFFF"></path>
        </g>
    </g>
</svg>