<svg xmlns="http://www.w3.org/2000/svg" width="123.895" height="45.749" viewBox="0 0 123.895 45.749">
  <g id="Group_2" data-name="Group 2" transform="translate(-45.744 -237.406)">
    <path id="Path_7" data-name="Path 7" d="M437.331,436.114a6.384,6.384,0,0,1-6.461,2.3,7.427,7.427,0,0,1-6.409-7.01c-.184-2.137-.107-4.3-.095-6.448a8.232,8.232,0,0,1,1.65-5A7.391,7.391,0,0,1,431.049,417a8.3,8.3,0,0,1,4.775.592,7.281,7.281,0,0,1,4.2,5.384c.052.241.1.484.126.729.051.445-.129.647-.577.65-.631,0-1.262,0-1.892,0-.6,0-.74-.129-.853-.728a4.205,4.205,0,0,0-2.254-3.207,4.662,4.662,0,0,0-6.628,2.747,7.939,7.939,0,0,0-.354,2.254c-.036,1.8-.051,3.614.052,5.415a4.7,4.7,0,0,0,3.163,4.413,4.6,4.6,0,0,0,6.217-3.72,11.422,11.422,0,0,0,.011-1.61h-.389q-1.874,0-3.748,0c-.6,0-.852-.247-.872-.848q-.02-.63,0-1.262c.018-.568.257-.814.824-.816q3.266-.011,6.531,0c.563,0,.79.257.79.834q0,4.787,0,9.574a.714.714,0,0,1-.811.823c-.42.006-.841.008-1.261,0a.685.685,0,0,1-.763-.753c-.012-.428,0-.857,0-1.36" transform="translate(-327.788 -155.4)" fill="#2c2a6c"/>
    <path id="Path_8" data-name="Path 8" d="M585.106,431.015h-8.8v.436q0,3.859,0,7.718c0,.743-.226.965-.974.966-.495,0-.99.006-1.484,0a.691.691,0,0,1-.767-.751c-.005-.1,0-.2,0-.3q0-9.462,0-18.925c0-.136,0-.272.014-.407a.613.613,0,0,1,.6-.626c.654-.026,1.31-.027,1.963,0a.657.657,0,0,1,.643.676c.008.123.006.247.006.371q0,3.656,0,7.31v.46h8.8v-.421q0-3.711,0-7.422c0-.8.2-1,1.008-1,.47,0,.94-.011,1.41,0a.724.724,0,0,1,.807.833q0,9.685,0,19.37c0,.568-.269.823-.85.829-.495,0-.99,0-1.485,0-.662,0-.89-.222-.891-.889q-.005-3.47,0-6.939Z" transform="translate(-456.568 -157.307)" fill="#2c2a6c"/>
    <path id="Path_9" data-name="Path 9" d="M240.693,416.317a7.978,7.978,0,0,1,5.3,1.8,5.142,5.142,0,0,1,1.717,3.839.69.69,0,0,1-.749.775c-.556.013-1.113.011-1.669,0a.68.68,0,0,1-.765-.6c-.07-.261-.107-.532-.189-.789a2.84,2.84,0,0,0-2.433-2,7.444,7.444,0,0,0-3.159.13,2.321,2.321,0,0,0-1.908,1.963,2.635,2.635,0,0,0,.94,2.716,8.578,8.578,0,0,0,2.9,1.258,24.451,24.451,0,0,1,4.527,1.561,5.393,5.393,0,0,1,2.9,5.88c-.324,2.751-2.085,4.2-4.612,4.841a10.052,10.052,0,0,1-6.189-.258,6.409,6.409,0,0,1-4.271-5.149c-.006-.036-.008-.074-.011-.111-.069-.942-.007-1.353,1.175-1.288.382.021.767,0,1.15,0,.522,0,.783.188.839.691a3.924,3.924,0,0,0,3.931,3.6,6.9,6.9,0,0,0,2.994-.335,2.689,2.689,0,0,0,1.8-2.436,2.538,2.538,0,0,0-1.634-2.782c-1.188-.492-2.43-.861-3.66-1.246a14.524,14.524,0,0,1-3.641-1.5,5.176,5.176,0,0,1-2.423-4.267,5.679,5.679,0,0,1,.846-3.644,5.39,5.39,0,0,1,3.454-2.234c.934-.209,1.9-.287,2.847-.424" transform="translate(-162.127 -154.901)" fill="#2c2a6c"/>
    <path id="Path_10" data-name="Path 10" d="M716.2,422.14v17.033c0,.783-.2.983-.987.983-.446,0-.891,0-1.336,0-.644,0-.876-.229-.876-.867q0-4.4,0-8.794V422.14h-.421q-2.523,0-5.047,0c-.778,0-.979-.209-.98-1,0-.408-.008-.817,0-1.225a.723.723,0,0,1,.743-.792c.11-.01.222-.008.333-.008h13.915c.1,0,.2,0,.3,0a.752.752,0,0,1,.8.821c.014.445.01.89,0,1.335-.011.6-.261.856-.863.858-1.695.006-3.389,0-5.084,0Z" transform="translate(-572.13 -157.327)" fill="#2c2a6c"/>
    <path id="Path_11" data-name="Path 11" d="M48.973,469.222q0,4.768,0,9.536c0,.749-.225.974-.965.976-.495,0-.989.006-1.484,0a.691.691,0,0,1-.776-.742c-.006-.1,0-.2,0-.3,0-6.308,0-6.492,0-12.8a4.115,4.115,0,0,1,.018-.444.594.594,0,0,1,.586-.6c.666-.024,1.334-.025,2,0a.633.633,0,0,1,.613.661c.017.482.009.965.009,1.447,0,2.8,0-.533,0,2.262" transform="translate(0 -196.906)" fill="#2c2a6c"/>
    <path id="Path_12" data-name="Path 12" d="M375.535,429.7q0,4.768,0,9.537c0,.792-.213,1-1.012,1-.482,0-.965.006-1.447,0a.691.691,0,0,1-.766-.751c-.005-.1,0-.2,0-.3q0-9.462,0-18.925c0-.136,0-.273.014-.407a.613.613,0,0,1,.6-.626c.666-.024,1.334-.022,2,0a.639.639,0,0,1,.6.632c.012.135.01.272.01.408q0,4.712,0,9.425" transform="translate(-282.738 -157.406)" fill="#2c2a6c"/>
    <path id="Path_13" data-name="Path 13" d="M859.805,249.959c1.936,0,3.836.069,5.727-.029a2.7,2.7,0,0,0,2.271-1.475,4.483,4.483,0,0,0,.422-2.608,2.844,2.844,0,0,0-2.771-2.921c-1.849-.1-3.705-.056-5.559-.072-.025,0-.05.033-.09.062Zm7.541,2.662,1.061,2.011q1.382,2.618,2.763,5.236a4.969,4.969,0,0,1,.261.542c.191.5,0,.787-.523.8-.65.009-1.3-.024-1.95.01a1.134,1.134,0,0,1-1.158-.74c-1.167-2.312-2.352-4.614-3.507-6.931a.654.654,0,0,0-.7-.428c-1.249.023-2.5.009-3.8.009v.538q0,3.25,0,6.5c0,.8-.25,1.042-1.057,1.043-.5,0-.991.008-1.486,0a.719.719,0,0,1-.78-.738c-.01-.123,0-.248,0-.371q0-9.588,0-19.177c0-.968.192-1.159,1.164-1.159,2.523,0,5.046-.017,7.568.009a6.971,6.971,0,0,1,3.823,1.07,5.275,5.275,0,0,1,2.393,3.793,10.115,10.115,0,0,1-.082,3.868,5.311,5.311,0,0,1-3.5,3.886c-.142.056-.285.109-.427.165-.013.005-.02.023-.06.07" transform="translate(-701.918 -2.032)" fill="#2c2a6c"/>
    <path id="Path_14" data-name="Path 14" d="M728.719,248.221a27.684,27.684,0,0,0-.31-3.8,4.682,4.682,0,0,0-6.492-3.432,4.736,4.736,0,0,0-2.935,4.411c-.121,1.833-.088,3.679-.056,5.518a9.106,9.106,0,0,0,.328,2.232,4.749,4.749,0,0,0,9.26-.833c.15-1.238.131-2.5.2-4.1m-13.17,0a30.8,30.8,0,0,1,.284-4.091,7.471,7.471,0,0,1,6.2-6.424,7.958,7.958,0,0,1,9.732,6.479,11.487,11.487,0,0,1,.184,1.98c.025,1.7.035,3.4,0,5.107a8.585,8.585,0,0,1-1.852,5.367,7.751,7.751,0,0,1-6.231,2.927,7.846,7.846,0,0,1-8.113-6.928,41.939,41.939,0,0,1-.206-4.417" transform="translate(-579.917 -0.104)" fill="#2c2a6c"/>
    <path id="Path_15" data-name="Path 15" d="M485.358,237.406a8.039,8.039,0,0,1,4.984,1.435,5.207,5.207,0,0,1,2.156,4.211c.014.567-.232.806-.812.815-.5.008-.991,0-1.486,0-.7,0-.784-.1-.986-.774a5.948,5.948,0,0,0-.6-1.481,2.925,2.925,0,0,0-2.29-1.219,7.45,7.45,0,0,0-3.506.356c-1.661.6-1.971,3.331-.568,4.478a9.292,9.292,0,0,0,3.186,1.42,36.312,36.312,0,0,1,4.313,1.486,5.849,5.849,0,0,1,2.033,8.878,6.353,6.353,0,0,1-3.91,2.2,10,10,0,0,1-6.607-.617,6.263,6.263,0,0,1-3.734-5.449c-.047-.681.208-.935.877-.941.449,0,.9,0,1.346,0,.752,0,.923.173,1.042.928a3.743,3.743,0,0,0,2.239,3.024,6.354,6.354,0,0,0,3.5.367,7.013,7.013,0,0,0,1.755-.529c1.538-.645,2.02-3.65.218-4.8a13.821,13.821,0,0,0-3.341-1.31,37.081,37.081,0,0,1-3.706-1.275,5.389,5.389,0,0,1-3.393-5.446,5.306,5.306,0,0,1,4.534-5.438,9.575,9.575,0,0,1,.953-.179c.6-.063,1.2-.1,1.8-.143" transform="translate(-373.835)" fill="#2c2a6c"/>
    <path id="Path_16" data-name="Path 16" d="M375.662,242.871v5.949H382.6c.9,0,1.127.223,1.128,1.109,0,.356,0,.712,0,1.068,0,.673-.239.917-.914.94-.278.01-.557,0-.836,0h-6.323v6.242h9.019c.811,0,1.01.2,1.012,1.006,0,.433.008.867,0,1.3a.7.7,0,0,1-.71.75c-.108.01-.216,0-.325,0H373.323c-.792,0-1.015-.222-1.015-1.02q0-9.68,0-19.36c0-.846.224-1.068,1.069-1.068h11.282c.822,0,1.03.211,1.032,1.048,0,.387,0,.774,0,1.161-.008.642-.24.866-.912.867q-4.271,0-8.543,0Z" transform="translate(-282.738 -2.067)" fill="#2c2a6c"/>
    <path id="Path_17" data-name="Path 17" d="M230.43,256.784c.5-1.451.965-2.787,1.426-4.124q2.054-5.959,4.106-11.918c.31-.9.435-.991,1.4-.991.48,0,.959-.006,1.439,0s.73.279.579.749c-.375,1.172-.788,2.332-1.2,3.491q-2.96,8.259-5.929,16.515c-.214.6-.344.689-.979.691-.619,0-1.238-.016-1.856.005a.84.84,0,0,1-.92-.655q-2.295-6.412-4.616-12.816-1.228-3.41-2.446-6.825a2.583,2.583,0,0,1-.149-.532.492.492,0,0,1,.512-.619c.727-.021,1.454-.017,2.181,0,.514.011.686.408.827.813q.881,2.529,1.756,5.06l3.87,11.153" transform="translate(-151.975 -2.025)" fill="#2c2a6c"/>
    <path id="Path_18" data-name="Path 18" d="M602.926,242.885v.587q0,8.334,0,16.669c0,.895-.2,1.1-1.078,1.1-.433,0-.867,0-1.3,0-.654-.006-.884-.234-.895-.9-.007-.418,0-.836,0-1.254V242.867h-.518c-1.7,0-3.405,0-5.108,0-.726,0-.934-.218-.937-.942,0-.418,0-.836,0-1.254.007-.609.266-.878.875-.879,2.028,0,4.055,0,6.083,0h8.4c.786,0,1.012.227,1.021,1.024,0,.387.008.774,0,1.161-.015.657-.245.889-.9.891-1.764,0-3.529,0-5.293,0-.091,0-.183.009-.351.017" transform="translate(-473.888 -2.062)" fill="#2c2a6c"/>
    <path id="Path_19" data-name="Path 19" d="M45.746,250.459q0-4.8,0-9.608c0-.846.224-1.067,1.068-1.068.449,0,.9,0,1.346,0a.805.805,0,0,1,.911.87c.007.108,0,.217,0,.325v30.45c0,.971-.2,1.175-1.157,1.176-.418,0-.835,0-1.253,0-.666,0-.912-.251-.915-.932,0-.8,0-19.982,0-20.786Z" transform="translate(0 -2.056)" fill="#2c2a6c"/>
    <path id="Path_20" data-name="Path 20" d="M98.374,395.319c.742,0,.936.224.937,1.068,0,.449,0,.9,0,1.346-.007.595-.242.873-.763.911-.094.007-.19,0-.285,0h-6.1c-.852,0-1.031-.2-1.031-1.157,0-.418,0-.835,0-1.253,0-.666.22-.912.818-.916.705,0,3.616,0,6.425,0" transform="translate(-39.295 -136.719)" fill="#b7d433"/>
    <path id="Path_21" data-name="Path 21" d="M127.341,371.412c.454.714.384,1.021-.328,1.474-.378.241-.755.486-1.137.722a.805.805,0,0,1-1.235-.246c-.063-.087-.118-.182-.176-.273-3.413-5.366.9,1.42-2.514-3.946-.521-.819-.461-1.1.345-1.613.352-.224.7-.45,1.058-.672.564-.354.9-.277,1.272.295.435.676,1,1.556,2.714,4.258" transform="translate(-65.689 -111.895)" fill="#b7d433"/>
    <path id="Path_22" data-name="Path 22" d="M124.608,395.746c.464-.708.772-.771,1.479-.308.376.245.753.488,1.126.738a.806.806,0,0,1,.285,1.227c-.053.094-.117.182-.176.272-3.484,5.32.924-1.4-2.56,3.916-.532.812-.812.873-1.612.35-.35-.229-.7-.456-1.048-.687-.555-.369-.625-.71-.256-1.281.437-.676,1.008-1.548,2.763-4.227" transform="translate(-65.689 -136.568)" fill="#b7d433"/>
    <path id="Path_23" data-name="Path 23" d="M94.092,430.192v-.4c0-4.5,0-4.121,0-8.623,0-.8-.242-1.038-1.052-1.041-.454,0-.909-.01-1.362,0-.57.016-.834.277-.834.829,0,6.469,0,8.929,0,15.4,0,.522.279.787.823.8.442.008.886-.031,1.324.01a1.337,1.337,0,0,0,1.354-.75c.849-1.384,6.955-10.4,9.153-13.972a.577.577,0,0,1,.22-.215v13.963c0,.759.211.965.986.966.466,0,.933,0,1.4,0,.554-.007.8-.244.817-.793,0-.086,0-.173,0-.26,0-6.308,0-13.047,0-19.355a4.044,4.044,0,0,0-.019-.444.583.583,0,0,0-.572-.581,17.509,17.509,0,0,0-2.324.024c-.266.024-.573.347-.737.608-1.338,2.131-7.38,11.068-8.946,13.612-.051.082-.108.161-.162.242l-.071-.016" transform="translate(-39.046 -154.362)" fill="#2c2a6c"/>
    <path id="Path_24" data-name="Path 24" d="M103.664,254.041v-.507c0-4.518,0-8.161,0-12.679,0-.9.226-1.133,1.111-1.134.433,0,.867-.006,1.3,0,.557.01.81.265.834.828,0,.108,0,.217,0,.325,0,6.39,0,13.184,0,19.574,0,.955-.172,1.123-1.138,1.124-.356,0-.714-.026-1.067.006a1.244,1.244,0,0,1-1.251-.7c-.925-1.531-7.027-11.14-9.149-14.651-.167-.255-.243.068-.243.22,0,4.827,0,4.915,0,9.742,0,.917-.2,1.116-1.107,1.117-.449,0-.9.008-1.346,0a.72.72,0,0,1-.778-.741c-.009-.107,0-.216,0-.325v-15.4c0-.909.208-1.117,1.112-1.117.542,0,1.085.028,1.624-.008a1.248,1.248,0,0,1,1.243.707c1.545,2.58,7.266,11.187,8.573,13.353.061.1.13.2.2.295l.088-.028" transform="translate(-39.032 -1.995)" fill="#2c2a6c"/>
  </g>
</svg>
