<svg id="Layer_1" data-name="Layer 1" xmlns="http://www.w3.org/2000/svg" width="93.482" height="35" viewBox="0 0 93.482 35">
  <path id="Path_32" data-name="Path 32" d="M90.957,0H2.525A2.525,2.525,0,0,0,0,2.525v29.95A2.525,2.525,0,0,0,2.525,35H90.957a2.525,2.525,0,0,0,2.525-2.525V2.525A2.525,2.525,0,0,0,90.957,0Z" transform="translate(0)" fill="#fff"/>
  <path id="Path_33" data-name="Path 33" d="M7.3,13.972v11.32a6.1,6.1,0,0,0,.791.21,5.984,5.984,0,0,0,6.687-8.124c-.524-1.292-1.65-2.148-2.386-3.3A8.189,8.189,0,0,1,11.1,10.1h0a8.387,8.387,0,0,1,0-.842,1.312,1.312,0,0,1,.015-.24A8.392,8.392,0,0,1,11.247,8H8.7A1.4,1.4,0,0,0,7.3,9.387v.736l.084-.019a9.818,9.818,0,0,1,2.148-.17,9.713,9.713,0,0,0,.907,3.836.107.107,0,0,1-.061-.013A5.984,5.984,0,0,0,7.3,13.972Z" transform="translate(-5.764 -6.317)" fill="#5a2c8e"/>
  <path id="Path_34" data-name="Path 34" d="M8.71,39.473H37.387a1.4,1.4,0,0,0,1.4-1.4V9.387A1.4,1.4,0,0,0,37.389,8H27.335v.021a8.206,8.206,0,0,1-6.487,9.616c-.137.025-.276.046-.421.065a11.335,11.335,0,0,0-1.275-3.64A4.481,4.481,0,0,0,23.481,8H15.1a4.568,4.568,0,0,0-.21.728A4.471,4.471,0,0,0,16,12.627h0l.1.093a9.711,9.711,0,0,1,2.59,9.02l.013.013A9.675,9.675,0,0,1,7.3,29.138v8.936a1.4,1.4,0,0,0,1.41,1.4Z" transform="translate(-5.764 -6.317)" fill="#5a2c8e"/>
  <path id="Path_35" data-name="Path 35" d="M179.3,24.416v-.478l.728-.114V18.411l-.675-.118v-.469H180.9l.318-.023c.105,0,.223-.015.351-.021s.288,0,.48,0a4,4,0,0,1,1.1.128,1.761,1.761,0,0,1,.715.337,1.326,1.326,0,0,1,.381.591,2.656,2.656,0,0,1,.111.8,2.337,2.337,0,0,1-.2.981,2.053,2.053,0,0,1-.539.724,2.4,2.4,0,0,1-.81.457,3.222,3.222,0,0,1-1.014.154h-.484a.825.825,0,0,1-.185-.013l-.107-.013v1.9l1.145.118v.478Zm1.717-3.028a.9.9,0,0,0,.135.021l.16.011h.49a1.894,1.894,0,0,0,.553-.082,1.191,1.191,0,0,0,.482-.286,1.473,1.473,0,0,0,.341-.551,2.555,2.555,0,0,0,.128-.867,1.846,1.846,0,0,0-.1-.631,1.02,1.02,0,0,0-.288-.421,1.176,1.176,0,0,0-.478-.24,2.691,2.691,0,0,0-.675-.076h-.261a.668.668,0,0,0-.189.017l-.151.019a1.1,1.1,0,0,1-.147.011Z" transform="translate(-141.573 -14.036)" fill="#5a2c8e"/>
  <path id="Path_36" data-name="Path 36" d="M206,27.834a2.8,2.8,0,0,1,.21-1.094,2.525,2.525,0,0,1,.53-.81,2.294,2.294,0,0,1,.732-.5,2.248,2.248,0,0,1,.852-.17,2.334,2.334,0,0,1,1.016.21,1.856,1.856,0,0,1,.688.553,2.315,2.315,0,0,1,.4.823,4,4,0,0,1,.124,1.01,2.85,2.85,0,0,1-.21,1.1,2.486,2.486,0,0,1-.53.81,2.265,2.265,0,0,1-.73.488,2.451,2.451,0,0,1-1.868-.034,1.894,1.894,0,0,1-.692-.553,2.283,2.283,0,0,1-.4-.823,3.907,3.907,0,0,1-.122-1.01Zm2.277,2.056a.985.985,0,0,0,.911-.49,2.929,2.929,0,0,0,.292-1.473,4.982,4.982,0,0,0-.065-.842,2.413,2.413,0,0,0-.21-.68,1.233,1.233,0,0,0-.372-.454.9.9,0,0,0-.551-.168.993.993,0,0,0-.915.49,2.926,2.926,0,0,0-.295,1.473,4.95,4.95,0,0,0,.067.842,2.433,2.433,0,0,0,.21.68,1.218,1.218,0,0,0,.37.457.909.909,0,0,0,.553.166Z" transform="translate(-162.654 -19.943)" fill="#5a2c8e"/>
  <path id="Path_37" data-name="Path 37" d="M231.049,30.882l-1.4-4.419-.486-.122V25.88h2.176v.467l-.7.122.715,2.571.244,1.084.229-1.079.9-3.156h.941l.894,3.156.234,1.069.261-1.063.692-2.571-.675-.13V25.88h1.906v.467l-.511.122-1.334,4.419H234.2l-.949-3.215-.21-.972-.156.972-.936,3.215Z" transform="translate(-180.942 -20.435)" fill="#5a2c8e"/>
  <path id="Path_38" data-name="Path 38" d="M270.125,30.412a2.264,2.264,0,0,1-.964-.191,1.893,1.893,0,0,1-.692-.532,2.314,2.314,0,0,1-.421-.819,3.688,3.688,0,0,1-.139-1.042,3.049,3.049,0,0,1,.175-1.052,2.452,2.452,0,0,1,.482-.814,2.158,2.158,0,0,1,.736-.526,2.279,2.279,0,0,1,.928-.187,1.73,1.73,0,0,1,1.263.444,1.894,1.894,0,0,1,.49,1.317v.49a2.271,2.271,0,0,1-.044.372h-2.992V27.9a2.777,2.777,0,0,0,.143.842,1.684,1.684,0,0,0,.326.574,1.221,1.221,0,0,0,.463.324,1.473,1.473,0,0,0,.541.1,2.1,2.1,0,0,0,.377-.036,2.737,2.737,0,0,0,.366-.09,2.278,2.278,0,0,0,.322-.13,1.494,1.494,0,0,0,.24-.147l.183.421a1.686,1.686,0,0,1-.32.242,2.534,2.534,0,0,1-.421.21,3.228,3.228,0,0,1-.5.143A2.657,2.657,0,0,1,270.125,30.412Zm-.107-4.644a1.052,1.052,0,0,0-.4.076.8.8,0,0,0-.328.259,1.5,1.5,0,0,0-.229.486,3.245,3.245,0,0,0-.109.762h2.012a1.078,1.078,0,0,1,.011-.181,1.019,1.019,0,0,0,0-.179,1.952,1.952,0,0,0-.053-.463,1.212,1.212,0,0,0-.164-.391.829.829,0,0,0-.3-.267A.9.9,0,0,0,270.018,25.768Z" transform="translate(-211.538 -19.934)" fill="#5a2c8e"/>
  <path id="Path_39" data-name="Path 39" d="M290.86,30.345v-.478l.707-.074V26.187L290.961,26v-.52l1.222-.179h.021l.21.175v.8h0a1.877,1.877,0,0,1,.16-.21,2.173,2.173,0,0,1,.335-.335,2.422,2.422,0,0,1,.492-.305,1.431,1.431,0,0,1,.631-.135,1.18,1.18,0,0,1,.166,0,.654.654,0,0,1,.112.029v1.052a.26.26,0,0,0-.065-.027.912.912,0,0,0-.114-.027l-.147-.025a1.447,1.447,0,0,0-.168-.011,2.685,2.685,0,0,0-.787.1,1.745,1.745,0,0,0-.486.234v3.184l1.178.082v.469Z" transform="translate(-229.659 -19.966)" fill="#5a2c8e"/>
  <path id="Path_40" data-name="Path 40" d="M312.295,30.413a2.264,2.264,0,0,1-.964-.191,1.9,1.9,0,0,1-.692-.532,2.314,2.314,0,0,1-.421-.819,3.688,3.688,0,0,1-.139-1.042,3.047,3.047,0,0,1,.173-1.052,2.456,2.456,0,0,1,.484-.814,2.129,2.129,0,0,1,.734-.526,2.291,2.291,0,0,1,.928-.187,1.734,1.734,0,0,1,1.263.444,1.893,1.893,0,0,1,.488,1.317v.49a2.065,2.065,0,0,1-.042.372h-2.992V27.9a2.782,2.782,0,0,0,.143.842,1.717,1.717,0,0,0,.328.574,1.212,1.212,0,0,0,.461.324,1.473,1.473,0,0,0,.541.1,2.116,2.116,0,0,0,.379-.036,2.908,2.908,0,0,0,.366-.09,2.357,2.357,0,0,0,.32-.13,1.626,1.626,0,0,0,.242-.147l.181.421a1.687,1.687,0,0,1-.318.242,2.538,2.538,0,0,1-.421.21,3.3,3.3,0,0,1-.5.143A2.68,2.68,0,0,1,312.295,30.413Zm-.107-4.644a1.053,1.053,0,0,0-.4.076.777.777,0,0,0-.326.259,1.453,1.453,0,0,0-.229.486,3.243,3.243,0,0,0-.112.762h2.012a1.078,1.078,0,0,1,.011-.181,1.022,1.022,0,0,0,0-.179,1.951,1.951,0,0,0-.053-.463,1.167,1.167,0,0,0-.164-.391.829.829,0,0,0-.292-.267.894.894,0,0,0-.442-.1Z" transform="translate(-244.834 -19.934)" fill="#5a2c8e"/>
  <path id="Path_41" data-name="Path 41" d="M334.861,22.1a1.872,1.872,0,0,1-.736-.149,1.715,1.715,0,0,1-.617-.452,2.242,2.242,0,0,1-.421-.764,3.287,3.287,0,0,1-.16-1.084,3.158,3.158,0,0,1,.177-1.069,2.5,2.5,0,0,1,.505-.863,2.315,2.315,0,0,1,.8-.574,2.989,2.989,0,0,1,1.46-.189c.133.021.263.034.385.057v-1.6l-.854-.082v-.421l1.582-.187H337l.21.151v6.609h.516v.452c-.12.032-.263.065-.421.1a2.268,2.268,0,0,1-.518.057,1.428,1.428,0,0,1-.21-.015.325.325,0,0,1-.147-.065.31.31,0,0,1-.09-.141.75.75,0,0,1-.029-.238v-.191a2.651,2.651,0,0,1-.261.234,1.917,1.917,0,0,1-.33.21,1.974,1.974,0,0,1-.4.149,1.78,1.78,0,0,1-.463.065Zm.4-.663a1.148,1.148,0,0,0,.324-.044,1.5,1.5,0,0,0,.669-.4V17.71a.316.316,0,0,0-.112-.1,1.119,1.119,0,0,0-.194-.088,1.683,1.683,0,0,0-.255-.061,1.894,1.894,0,0,0-.295-.021,1.368,1.368,0,0,0-.547.112,1.142,1.142,0,0,0-.433.356,1.843,1.843,0,0,0-.307.631,3.62,3.62,0,0,0-.124.957,3.188,3.188,0,0,0,.088.873,1.761,1.761,0,0,0,.274.6,1.092,1.092,0,0,0,.421.351A1.166,1.166,0,0,0,335.256,21.438Z" transform="translate(-262.875 -11.623)" fill="#5a2c8e"/>
  <path id="Path_42" data-name="Path 42" d="M371.551,21.743V15.394l-.711-.078V14.9l1.443-.2h.019l.21.147V17.5a2.981,2.981,0,0,1,.253-.21,1.887,1.887,0,0,1,.314-.187,1.931,1.931,0,0,1,.377-.133,1.85,1.85,0,0,1,.444-.05,1.991,1.991,0,0,1,.724.137,1.635,1.635,0,0,1,.621.421,2.2,2.2,0,0,1,.431.751,3.367,3.367,0,0,1,.162,1.107,3.248,3.248,0,0,1-.175,1.069,2.633,2.633,0,0,1-.505.871,2.4,2.4,0,0,1-.8.585,2.525,2.525,0,0,1-1.052.21,5.452,5.452,0,0,1-1.159-.128,3.286,3.286,0,0,1-.389-.112A.659.659,0,0,1,371.551,21.743Zm1.951-4.158a1.23,1.23,0,0,0-.324.042,1.416,1.416,0,0,0-.276.105,1.593,1.593,0,0,0-.221.143,1.279,1.279,0,0,0-.162.151v3.259a.307.307,0,0,0,.107.128.773.773,0,0,0,.191.09,1.373,1.373,0,0,0,.25.057,2.19,2.19,0,0,0,.295.019,1.214,1.214,0,0,0,1.014-.5,2.1,2.1,0,0,0,.3-.65,3.643,3.643,0,0,0,.116-.915,3.106,3.106,0,0,0-.086-.842,1.761,1.761,0,0,0-.269-.6,1.113,1.113,0,0,0-.4-.362A1.172,1.172,0,0,0,373.5,17.585Z" transform="translate(-292.811 -11.607)" fill="#5a2c8e"/>
  <path id="Path_43" data-name="Path 43" d="M397.516,33.023h-.139a.533.533,0,0,1-.143-.013l-.124-.019a.339.339,0,0,1-.084-.025v-.806a.44.44,0,0,0,.084.027,1.265,1.265,0,0,1,.126.023c.046.006.1.013.149.015s.1,0,.147,0a1.531,1.531,0,0,0,.307-.036.9.9,0,0,0,.349-.179,1.843,1.843,0,0,0,.372-.421,3.942,3.942,0,0,0,.377-.776h-.547l-1.62-4.345-.421-.122V25.88h2.184v.467l-.692.122.884,2.662.391,1.279.345-1.279.755-2.662-.574-.122V25.88h1.812v.467l-.446.122q-.338,1.07-.583,1.86L400,29.665c-.114.364-.21.652-.276.865a4.337,4.337,0,0,1-.16.448,9.462,9.462,0,0,1-.41.9,2.889,2.889,0,0,1-.44.631,1.605,1.605,0,0,1-.526.381A1.713,1.713,0,0,1,397.516,33.023Z" transform="translate(-312.953 -20.435)" fill="#5a2c8e"/>
  <path id="Path_44" data-name="Path 44" d="M180.551,71.9a3.085,3.085,0,0,1-1.2-1.145,3.337,3.337,0,0,1,0-3.312,3.1,3.1,0,0,1,1.208-1.145,3.577,3.577,0,0,1,1.728-.421,3.623,3.623,0,0,1,1.46.284,2.92,2.92,0,0,1,1.1.816l-.924.842a1.982,1.982,0,0,0-1.561-.728,2.085,2.085,0,0,0-1.031.253,1.792,1.792,0,0,0-.713.726,2.211,2.211,0,0,0,0,2.06,1.8,1.8,0,0,0,.7.7,2.086,2.086,0,0,0,1.031.252,1.972,1.972,0,0,0,1.561-.736l.924.842a2.878,2.878,0,0,1-1.1.827,3.651,3.651,0,0,1-1.473.284A3.577,3.577,0,0,1,180.551,71.9Z" transform="translate(-141.265 -52.017)" fill="#5a2c8e"/>
  <path id="Path_45" data-name="Path 45" d="M213.5,73.479a2.021,2.021,0,0,1,.6,1.595v2.733h-1.288v-.6a1.543,1.543,0,0,1-1.456.667,2.268,2.268,0,0,1-.955-.187,1.429,1.429,0,0,1-.625-.507,1.347,1.347,0,0,1-.21-.745,1.244,1.244,0,0,1,.5-1.052A2.562,2.562,0,0,1,211.617,75h1.1a.888.888,0,0,0-.276-.7,1.214,1.214,0,0,0-.825-.244,2.418,2.418,0,0,0-.751.12,1.99,1.99,0,0,0-.631.324l-.5-.968a3.02,3.02,0,0,1,.936-.421,4.183,4.183,0,0,1,1.124-.151A2.46,2.46,0,0,1,213.5,73.479Zm-1.18,3.3a.907.907,0,0,0,.391-.484V75.8h-.955q-.852,0-.852.558a.5.5,0,0,0,.21.421.945.945,0,0,0,.574.156A1.2,1.2,0,0,0,212.324,76.774Z" transform="translate(-165.469 -57.608)" fill="#5a2c8e"/>
  <path id="Path_46" data-name="Path 46" d="M241.383,73.444a2.109,2.109,0,0,1,.547,1.58v2.744h-1.387V75.243a1.241,1.241,0,0,0-.248-.842.907.907,0,0,0-.717-.28,1.1,1.1,0,0,0-.842.324,1.334,1.334,0,0,0-.311.964v2.359H237.04V72.983h1.324v.56a1.816,1.816,0,0,1,.684-.467,2.376,2.376,0,0,1,.9-.164A1.963,1.963,0,0,1,241.383,73.444Z" transform="translate(-187.164 -57.568)" fill="#5a2c8e"/>
  <path id="Path_47" data-name="Path 47" d="M270.535,73.443a2.1,2.1,0,0,1,.545,1.58v2.744H269.7V75.242a1.241,1.241,0,0,0-.248-.842.911.911,0,0,0-.72-.28,1.094,1.094,0,0,0-.842.324,1.334,1.334,0,0,0-.311.964v2.359H266.19V72.983h1.321v.56a1.849,1.849,0,0,1,.684-.467,2.391,2.391,0,0,1,.9-.164A1.963,1.963,0,0,1,270.535,73.443Z" transform="translate(-210.18 -57.568)" fill="#5a2c8e"/>
  <path id="Path_48" data-name="Path 48" d="M294.82,64.029a.751.751,0,0,1,0-1.1.871.871,0,0,1,.621-.223.909.909,0,0,1,.631.21.686.686,0,0,1,.24.534.755.755,0,0,1-.248.579A.978.978,0,0,1,294.82,64.029Zm-.072.888h1.393V69.71h-1.387Z" transform="translate(-232.597 -49.51)" fill="#5a2c8e"/>
  <path id="Path_49" data-name="Path 49" d="M312.4,73.444a2.124,2.124,0,0,1,.545,1.589v2.735h-1.385V75.243a1.262,1.262,0,0,0-.248-.842.911.911,0,0,0-.72-.28,1.1,1.1,0,0,0-.842.324,1.343,1.343,0,0,0-.309.964v2.359H308.05V72.983h1.323v.56a1.816,1.816,0,0,1,.684-.467,2.376,2.376,0,0,1,.9-.164A1.967,1.967,0,0,1,312.4,73.444Z" transform="translate(-243.232 -57.568)" fill="#5a2c8e"/>
  <path id="Path_50" data-name="Path 50" d="M341.084,72.967v3.977A2.552,2.552,0,0,1,340.4,78.9a2.793,2.793,0,0,1-2,.631,5.036,5.036,0,0,1-1.315-.168,2.853,2.853,0,0,1-1.029-.488l.549-1a2.257,2.257,0,0,0,.764.4,3.013,3.013,0,0,0,.924.147,1.451,1.451,0,0,0,1.052-.324,1.286,1.286,0,0,0,.351-.974v-.21a1.936,1.936,0,0,1-1.509.6,2.525,2.525,0,0,1-1.2-.288,2.206,2.206,0,0,1-.867-.812,2.441,2.441,0,0,1,0-2.416,2.22,2.22,0,0,1,.867-.812,2.542,2.542,0,0,1,1.2-.288,1.9,1.9,0,0,1,1.58.684v-.606Zm-1.717,3.085a1.2,1.2,0,0,0,0-1.7,1.422,1.422,0,0,0-1.807,0,1.189,1.189,0,0,0,0,1.7A1.422,1.422,0,0,0,339.367,76.052Z" transform="translate(-265.144 -57.552)" fill="#5a2c8e"/>
  <path id="Path_51" data-name="Path 51" d="M365.737,77.642a3.047,3.047,0,0,1-.907-.368l.463-1a2.874,2.874,0,0,0,.772.335,3.3,3.3,0,0,0,.888.128c.585,0,.88-.145.88-.436a.307.307,0,0,0-.231-.292,3.613,3.613,0,0,0-.739-.152,6.879,6.879,0,0,1-.966-.21,1.514,1.514,0,0,1-.663-.408,1.168,1.168,0,0,1-.28-.842,1.315,1.315,0,0,1,.263-.8,1.683,1.683,0,0,1,.764-.545,3.249,3.249,0,0,1,1.185-.2,4.682,4.682,0,0,1,1.008.112,2.849,2.849,0,0,1,.829.305l-.461.987a2.75,2.75,0,0,0-1.376-.356,1.418,1.418,0,0,0-.667.124.364.364,0,0,0-.229.33.318.318,0,0,0,.24.311,4.42,4.42,0,0,0,.764.168,8.29,8.29,0,0,1,.957.21,1.439,1.439,0,0,1,.65.4,1.147,1.147,0,0,1,.274.816,1.262,1.262,0,0,1-.265.791,1.734,1.734,0,0,1-.776.537,3.489,3.489,0,0,1-1.212.191,4.674,4.674,0,0,1-1.163-.147Z" transform="translate(-288.065 -57.526)" fill="#5a2c8e"/>
  <path id="Path_52" data-name="Path 52" d="M184.856,113.33a2.06,2.06,0,0,1,1.262,1.98,2.161,2.161,0,0,1-.328,1.2,2.085,2.085,0,0,1-.936.781,3.5,3.5,0,0,1-1.433.271h-1.252v1.713H180.73v-6.213h2.691A3.462,3.462,0,0,1,184.856,113.33Zm-.528,2.775a1.115,1.115,0,0,0,0-1.6,1.5,1.5,0,0,0-.985-.28h-1.172v2.157h1.172A1.5,1.5,0,0,0,184.328,116.105Z" transform="translate(-142.702 -89.267)" fill="#5a2c8e"/>
  <path id="Path_53" data-name="Path 53" d="M215.847,119.89v4.776h-1.313V124.1a1.835,1.835,0,0,1-.656.476,2.073,2.073,0,0,1-.827.164,2.043,2.043,0,0,1-1.492-.541,2.165,2.165,0,0,1-.549-1.608v-2.7h1.385v2.5c0,.77.322,1.153.968,1.153a1.052,1.052,0,0,0,.8-.324,1.368,1.368,0,0,0,.3-.962V119.89Z" transform="translate(-166.611 -94.664)" fill="#5a2c8e"/>
  <path id="Path_54" data-name="Path 54" d="M242.143,119.728a2.5,2.5,0,0,1,.972-.179v1.279c-.154-.013-.257-.017-.309-.017a1.262,1.262,0,0,0-.932.332,1.344,1.344,0,0,0-.339,1V124.4H240.15V119.62h1.324v.631A1.527,1.527,0,0,1,242.143,119.728Z" transform="translate(-189.619 -94.394)" fill="#5a2c8e"/>
  <path id="Path_55" data-name="Path 55" d="M262.206,119.823a2.215,2.215,0,0,1,.856.861,2.853,2.853,0,0,1,0,2.584,2.2,2.2,0,0,1-.856.861,2.413,2.413,0,0,1-1.212.307,1.845,1.845,0,0,1-1.439-.577v2.228H258.17v-6.5h1.321v.551a1.825,1.825,0,0,1,1.5-.631A2.437,2.437,0,0,1,262.206,119.823Zm-.579,3.116a1.525,1.525,0,0,0,0-1.927,1.248,1.248,0,0,0-1.749,0,1.532,1.532,0,0,0,0,1.927A1.241,1.241,0,0,0,261.627,122.94Z" transform="translate(-203.848 -94.363)" fill="#5a2c8e"/>
  <path id="Path_56" data-name="Path 56" d="M287.28,111.28h1.384v6.588H287.28Z" transform="translate(-226.833 -87.865)" fill="#5a2c8e"/>
  <path id="Path_57" data-name="Path 57" d="M303.317,122.44H299.7a1.121,1.121,0,0,0,.461.7,1.53,1.53,0,0,0,.907.259,1.835,1.835,0,0,0,.661-.112,1.588,1.588,0,0,0,.537-.351l.739.8a2.47,2.47,0,0,1-1.972.772,3.12,3.12,0,0,1-1.431-.316,2.314,2.314,0,0,1-.957-.873,2.554,2.554,0,0,1,0-2.525,2.314,2.314,0,0,1,.913-.88,2.684,2.684,0,0,1,1.3-.316,2.655,2.655,0,0,1,1.262.3,2.22,2.22,0,0,1,.892.865,2.577,2.577,0,0,1,.324,1.311C303.344,122.084,303.335,122.208,303.317,122.44Zm-3.24-1.536a1.14,1.14,0,0,0-.391.728h2.35a1.139,1.139,0,0,0-1.172-1A1.2,1.2,0,0,0,300.076,120.9Z" transform="translate(-235.545 -94.434)" fill="#5a2c8e"/>
</svg>
