<svg xmlns="http://www.w3.org/2000/svg" width="25.862" height="17.816" viewBox="0 0 25.862 17.816">
  <path id="Twitter_alt_" data-name="Twitter (alt)" d="M1020.786,1489.921a3.137,3.137,0,0,0,2.817-1.677,4.628,4.628,0,0,1-3.049.339c-.044-.211-.093-.411-.142-.592-.685-2.513-3.028-4.538-5.483-4.294.2-.08.4-.155.6-.222.27-.1,1.856-.355,1.606-.915-.211-.492-2.148.372-2.513.485.482-.181,1.278-.492,1.363-1.046a3.846,3.846,0,0,0-2.022.957,1.391,1.391,0,0,0,.388-.768c-1.968,1.257-3.118,3.791-4.048,6.25a9.641,9.641,0,0,0-1.959-1.575,51.032,51.032,0,0,0-6.636-2.921,3.515,3.515,0,0,0,2.213,3.252,5.413,5.413,0,0,0-1.592.191c.221,1.159.943,2.114,2.9,2.576a2.367,2.367,0,0,0-1.772.7,3,3,0,0,0,3.183,1.56c-1.984.856-.809,2.44.806,2.2a6.857,6.857,0,0,1-9.592.257c6.512,8.873,20.667,5.248,22.776-3.3a3.921,3.921,0,0,0,3.086-1.166A6.3,6.3,0,0,1,1020.786,1489.921Z" transform="translate(-997.853 -1482)" fill="#fff"/>
</svg>
