<?xml version="1.0" encoding="utf-8"?>
<!-- Generator: Adobe Illustrator 16.0.0, SVG Export Plug-In . SVG Version: 6.00 Build 0)  -->
<!DOCTYPE svg PUBLIC "-//W3C//DTD SVG 1.1//EN" "http://www.w3.org/Graphics/SVG/1.1/DTD/svg11.dtd">
<svg version="1.1" id="Layer_1" xmlns="http://www.w3.org/2000/svg" xmlns:xlink="http://www.w3.org/1999/xlink" x="0px" y="0px"
	 width="390px" height="138px" viewBox="51.5 350.5 390 138" enable-background="new 51.5 350.5 390 138" xml:space="preserve">
<g>
	<g>
		<g>
			<defs>
				<rect id="SVGID_1_" x="61" y="361.122" width="368.1" height="103.878"/>
			</defs>
			<clipPath id="SVGID_2_">
				<use xlink:href="#SVGID_1_"  overflow="visible"/>
			</clipPath>
			<path clip-path="url(#SVGID_2_)" fill="#AC8D6C" d="M99.105,424.461c1.672,1.11,3.914,1.479,6.15,1.008
				c2.479-0.521,4.662-2.005,5.835-3.965c0,0,3.411-5.725,3.498-5.896c5.976-10.101,18.51-30.211,18.565-30.312
				c1.069-1.87,1.465-2.584,2.333-3.884c1.387-2.075,2.676-2.832,3.934-2.832c1.02,0,3.104-0.022,4.556,0
				c1.487,0.022,2.522,0.939,3.332,2.1c3.346,4.803,6.469,9.758,9.608,14.697c1.435,2.152,2.75,4.382,4.209,6.521
				c1.292,1.895,2.706,3.906,2.902,6.261c0.085,1.146-0.019,2.311-0.404,3.397c-0.354,0.995-0.935,1.894-1.521,2.766
				c-0.606,0.902-1.149,1.852-1.71,2.783c-1.346,2.237-2.664,4.494-3.983,6.748c-3.223,5.5-7.223,12.329-13.166,21.884
				c-0.131,0.209-0.269,0.415-0.407,0.618c-0.5,0.733-1.441,1.187-2.329,1.187h-1.885c-4.903,0-7.743,4-7.646,8.9
				c0.095,4.743,3.969,8.558,8.734,8.558c0,0,5.796-0.002,7.296-0.021c1.056-0.016,2.296-0.343,3.165-1.019
				c1.396-1.088,1.755-1.462,2.554-2.386c0.178-0.207,0.346-0.423,0.502-0.647l1.907-2.729c0.124-0.176,0.242-0.354,0.354-0.537
				L180.184,418c2.442-3.593,3.305-7.915,2.52-11.963c-0.304-1.654-0.82-3.25-1.559-4.694c-0.132-0.258-0.283-0.505-0.44-0.747
				l-21.765-33.361c-2.147-3.833-6.127-6.114-10.392-6.113l-14.228,0.001c-0.38,0.007-0.744,0.024-1.095,0.049
				c-3.39,0.302-6.51,2.046-8.552,4.852c-0.207,0.299-0.411,0.609-0.614,0.93c-0.056,0.093-0.11,0.186-0.164,0.282v-0.021
				c-0.004,0.007-0.009,0.014-0.013,0.021L98.575,409.88c-0.109,0.187-1.938,3.276-1.938,3.276c-0.784,1.31-1.198,2.813-1.198,4.348
				C95.44,420.335,96.81,422.936,99.105,424.461L99.105,424.461z"/>
		</g>
		<g>
			<defs>
				<rect id="SVGID_3_" x="61" y="361.122" width="368.1" height="103.878"/>
			</defs>
			<clipPath id="SVGID_4_">
				<use xlink:href="#SVGID_3_"  overflow="visible"/>
			</clipPath>
			<path clip-path="url(#SVGID_4_)" fill="#415855" d="M144.88,401.661c-1.672-1.111-3.914-1.479-6.15-1.009
				c-2.479,0.521-4.662,2.005-5.835,3.966c0,0-3.411,5.724-3.498,5.896c-5.976,10.102-18.51,30.213-18.566,30.313
				c-1.069,1.87-1.464,2.584-2.333,3.885c-1.387,2.074-2.676,2.831-3.935,2.831c-1.02,0-3.104,0.021-4.555,0
				c-1.488-0.022-2.522-0.938-3.332-2.1c-3.346-4.804-6.469-9.76-9.608-14.696c-1.435-2.153-2.75-4.383-4.208-6.521
				c-1.292-1.895-2.707-3.906-2.903-6.261c-0.085-1.146,0.019-2.312,0.404-3.397c0.354-0.996,0.936-1.895,1.521-2.767
				c0.605-0.901,1.148-1.852,1.709-2.782c1.346-2.238,2.664-4.494,3.984-6.748c3.223-5.502,7.222-12.331,13.166-21.885
				c0.13-0.209,0.268-0.415,0.406-0.619c0.5-0.734,1.441-1.185,2.329-1.185h1.885c4.903,0,7.742-4,7.646-8.902
				c-0.095-4.742-3.969-8.558-8.734-8.558c0,0-5.795,0.002-7.296,0.023c-1.055,0.015-2.295,0.341-3.164,1.018
				c-1.396,1.088-1.756,1.462-2.554,2.387c-0.178,0.207-0.346,0.423-0.502,0.646l-1.906,2.729c-0.124,0.176-0.242,0.354-0.354,0.537
				l-24.693,39.66c-2.442,3.593-3.306,7.916-2.519,11.963c0.302,1.655,0.819,3.25,1.558,4.694c0.132,0.259,0.283,0.505,0.441,0.748
				l21.763,33.359c2.147,3.832,6.127,6.114,10.391,6.112l14.228-0.001c0.38-0.006,0.745-0.022,1.095-0.048
				c3.39-0.303,6.51-2.046,8.552-4.854c0.207-0.299,0.411-0.608,0.615-0.931c0.055-0.093,0.11-0.187,0.164-0.281v0.021
				c0.004-0.007,0.009-0.015,0.013-0.021l25.31-42.646c0.108-0.184,1.937-3.275,1.937-3.275c0.784-1.311,1.198-2.813,1.198-4.348
				C148.545,405.787,147.175,403.186,144.88,401.661L144.88,401.661z"/>
		</g>
	</g>
	<path fill="#415855" d="M197.128,401.514c0-11.492,9.24-20.851,20.729-20.851c7.167,0,13.445,3.614,17.179,9.063l-7.227,5.034
		c-2.133-3.259-5.272-5.272-9.537-5.272c-6.87,0-11.788,5.272-11.788,12.024c0,6.754,4.74,12.201,11.729,12.201
		c4.324,0,7.464-2.016,9.597-5.331l7.227,5.095c-3.733,5.448-10.012,9.003-17.179,9.003
		C206.368,422.48,197.128,413.121,197.128,401.514L197.128,401.514z"/>
	<polygon fill="#415855" points="273.185,381.196 273.185,422.006 263.886,422.006 263.886,405.896 250.44,405.896 250.44,422.006 
		241.141,422.006 241.141,381.196 250.44,381.196 250.44,397.544 263.886,397.544 263.886,381.196 	"/>
	<path fill="#415855" d="M291.907,400.327h5.924c4.087,0,5.862-2.664,5.862-5.39c0-2.724-1.837-5.626-5.627-5.626h-6.16
		L291.907,400.327L291.907,400.327z M293.742,407.673h-1.835v14.333h-9.3v-40.81h16.703c9.476,0,13.743,6.752,13.743,13.505
		c0,5.744-3.022,10.779-9.597,12.438L314,422.006h-10.84L293.742,407.673L293.742,407.673z"/>
	<path fill="#415855" d="M350.314,401.572c0-6.813-4.678-12.145-11.49-12.145c-6.873,0-11.432,5.332-11.432,12.145
		c0,6.811,4.559,12.201,11.432,12.201C345.637,413.773,350.314,408.383,350.314,401.572L350.314,401.572z M318.033,401.572
		c0-11.551,9.182-20.91,20.852-20.91c11.49,0,20.789,9.359,20.789,20.91c0,11.549-9.299,20.969-20.789,20.969
		C327.215,422.541,318.033,413.121,318.033,401.572L318.033,401.572z"/>
	<g>
		<g>
			<defs>
				<rect id="SVGID_5_" x="61" y="361.122" width="368.1" height="103.878"/>
			</defs>
			<clipPath id="SVGID_6_">
				<use xlink:href="#SVGID_5_"  overflow="visible"/>
			</clipPath>
			<path clip-path="url(#SVGID_6_)" fill="#415855" d="M364.534,409.924h9.3c0,2.604,2.604,4.62,5.805,4.62
				c3.021,0,5.33-1.362,5.33-4.028c0-1.6-0.888-3.078-4.5-4.266l-4.857-1.479c-9.004-2.43-10.721-7.938-10.721-11.789
				c0-7.345,6.277-12.32,14.393-12.32c7.818,0,13.802,4.68,13.802,12.616h-9.302c0-2.428-1.479-4.501-4.678-4.501
				c-2.902,0-4.797,1.777-4.797,4.027c0,0.829,0.236,2.666,4.027,3.732l4.266,1.303c5.803,1.777,11.727,4.799,11.727,12.201
				c0,8.768-7.582,12.5-15.045,12.5C370.575,422.541,364.534,417.445,364.534,409.924L364.534,409.924z"/>
		</g>
		<g>
			<defs>
				<rect id="SVGID_7_" x="61" y="361.122" width="368.1" height="103.878"/>
			</defs>
			<clipPath id="SVGID_8_">
				<use xlink:href="#SVGID_7_"  overflow="visible"/>
			</clipPath>
			<path clip-path="url(#SVGID_8_)" fill="#415855" d="M399.309,409.924h9.299c0,2.604,2.607,4.62,5.803,4.62
				c3.023,0,5.33-1.362,5.33-4.028c0-1.6-0.885-3.078-4.5-4.266l-4.854-1.479c-9.004-2.43-10.724-7.938-10.724-11.789
				c0-7.345,6.279-12.32,14.396-12.32c7.817,0,13.799,4.68,13.799,12.616h-9.297c0-2.428-1.482-4.501-4.68-4.501
				c-2.902,0-4.798,1.777-4.798,4.027c0,0.829,0.234,2.666,4.025,3.732l4.266,1.303c5.806,1.777,11.729,4.799,11.729,12.201
				c0,8.768-7.582,12.5-15.045,12.5C405.35,422.541,399.309,417.445,399.309,409.924L399.309,409.924z"/>
		</g>
	</g>
	<polygon fill="#AC8D6C" points="208.665,429.484 208.665,442.378 206.738,442.378 206.738,436.839 200.787,436.839 
		200.787,442.378 198.859,442.378 198.859,429.484 200.787,429.484 200.787,435.098 206.738,435.098 206.738,429.484 	"/>
	<path fill="#AC8D6C" d="M211.268,435.94c0-3.668,2.844-6.624,6.512-6.624c3.688,0,6.551,2.956,6.551,6.624
		c0,3.649-2.862,6.605-6.551,6.605C214.112,442.547,211.268,439.591,211.268,435.94 M222.403,435.94
		c0-2.657-1.983-4.827-4.623-4.827c-2.618,0-4.585,2.17-4.585,4.827c0,2.638,1.967,4.809,4.585,4.809
		C220.419,440.749,222.403,438.578,222.403,435.94"/>
	<polygon fill="#AC8D6C" points="239.772,442.378 238.629,433.021 234.793,440.955 233.146,440.955 229.272,433.021 
		228.131,442.378 226.222,442.378 227.794,429.484 229.516,429.484 233.952,438.766 238.387,429.484 240.108,429.484 
		241.681,442.378 	"/>
	<polygon fill="#AC8D6C" points="252.332,440.619 252.332,442.378 244.432,442.378 244.432,429.484 252.162,429.484 
		252.162,431.243 246.341,431.243 246.341,435.153 251.414,435.153 251.414,436.933 246.341,436.933 246.341,440.619 	"/>
	<path fill="#AC8D6C" d="M254.222,438.616h1.909c0.038,1.104,1.064,2.172,2.676,2.172c1.534,0,2.432-0.938,2.432-2.004
		c0-1.142-1.026-1.684-2.076-1.963l-1.646-0.412c-2.752-0.692-3.201-2.321-3.201-3.388c0-2.265,2.001-3.706,4.285-3.706
		c2.321,0,4.136,1.46,4.136,3.801h-1.908c0-1.217-0.954-2.04-2.282-2.04c-1.216,0-2.303,0.729-2.303,1.907
		c0,0.411,0.134,1.271,1.761,1.685l1.629,0.412c2.169,0.543,3.536,1.722,3.536,3.612c0,2.15-1.762,3.854-4.36,3.854
		C256.055,442.547,254.222,440.693,254.222,438.616"/>
	<path fill="#AC8D6C" d="M280.066,440.825v1.703h-0.429c-1.253-0.02-2.358-0.563-2.658-1.403c-0.672,0.899-1.91,1.421-3.218,1.421
		c-2.489,0-4.193-1.813-4.193-4.042c0-1.477,0.882-2.619,2.039-3.273c-0.766-0.506-1.363-1.479-1.363-2.618
		c0-1.763,1.459-3.295,3.555-3.295c1.404,0,2.546,0.673,3.22,1.759l-1.497,0.974c-0.355-0.6-0.955-0.936-1.703-0.936
		c-1.048,0-1.759,0.674-1.759,1.628c0,0.88,0.561,1.854,2.095,1.854h2.134v-1.517h1.815v1.533h1.609v1.479h-1.609v2.301
		c0,1.272,0.282,2.435,1.573,2.435L280.066,440.825L280.066,440.825z M276.286,438.392v-2.301h-2.039
		c-2.021,0-2.862,1.066-2.862,2.301c0,1.351,0.992,2.357,2.433,2.357C275.202,440.749,276.248,439.815,276.286,438.392"/>
	<path fill="#AC8D6C" d="M287.125,429.484h5.015c3.687,0,5.84,2.808,5.84,6.476c0,3.648-2.153,6.418-5.84,6.418h-5.015V429.484
		L287.125,429.484z M292.139,440.619c2.584,0,3.912-2.04,3.912-4.659c0-2.621-1.328-4.717-3.912-4.717h-3.088v9.376H292.139
		L292.139,440.619z"/>
	<polygon fill="#AC8D6C" points="308.553,440.619 308.553,442.378 300.654,442.378 300.654,429.484 308.385,429.484 
		308.385,431.243 302.564,431.243 302.564,435.153 307.635,435.153 307.635,436.933 302.564,436.933 302.564,440.619 	"/>
	<polygon fill="#AC8D6C" points="319.539,429.484 315.664,442.378 313.866,442.378 309.957,429.484 311.94,429.484 314.748,439.179 
		317.555,429.484 	"/>
	<polygon fill="#AC8D6C" points="329.646,440.619 329.646,442.378 321.746,442.378 321.746,429.484 329.477,429.484 
		329.477,431.243 323.656,431.243 323.656,435.153 328.729,435.153 328.729,436.933 323.656,436.933 323.656,440.619 	"/>
	<polygon fill="#AC8D6C" points="332.342,429.484 334.27,429.484 334.27,440.619 339.45,440.619 339.45,442.378 332.342,442.378 	
		"/>
	<path fill="#AC8D6C" d="M340.053,435.94c0-3.668,2.844-6.624,6.512-6.624c3.689,0,6.549,2.956,6.549,6.624
		c0,3.649-2.858,6.605-6.549,6.605C342.896,442.547,340.053,439.591,340.053,435.94 M351.188,435.94
		c0-2.657-1.984-4.827-4.623-4.827c-2.619,0-4.584,2.17-4.584,4.827c0,2.638,1.965,4.809,4.584,4.809
		C349.202,440.749,351.188,438.578,351.188,435.94"/>
	<path fill="#AC8D6C" d="M364.829,433.563c0,2.061-1.157,4.044-3.93,4.044h-3.238v4.771h-1.926v-12.894h5.164
		C363.672,429.483,364.829,431.524,364.829,433.563 M362.904,433.563c0-1.14-0.598-2.318-2.041-2.318h-3.201v4.603h3.127
		C362.284,435.847,362.904,434.706,362.904,433.563"/>
	<polygon fill="#AC8D6C" points="381.004,442.378 379.861,433.021 376.025,440.955 374.377,440.955 370.506,433.021 
		369.363,442.378 367.452,442.378 369.025,429.484 370.747,429.484 375.182,438.766 379.616,429.484 381.34,429.484 
		382.911,442.378 	"/>
	<polygon fill="#AC8D6C" points="393.563,440.619 393.563,442.378 385.663,442.378 385.663,429.484 393.393,429.484 
		393.393,431.243 387.572,431.243 387.572,435.153 392.645,435.153 392.645,436.933 387.572,436.933 387.572,440.619 	"/>
	<polygon fill="#AC8D6C" points="405.633,429.484 405.633,442.378 403.818,442.378 398.186,432.984 398.186,442.378 
		396.258,442.378 396.258,429.484 398.129,429.484 403.704,438.804 403.704,429.484 	"/>
	<polygon fill="#AC8D6C" points="417.35,431.243 413.514,431.243 413.514,442.378 411.588,442.378 411.588,431.243 407.75,431.243 
		407.75,429.484 417.35,429.484 	"/>
	<path fill="#AC8D6C" d="M418.973,438.616h1.91c0.037,1.104,1.063,2.172,2.674,2.172c1.535,0,2.434-0.938,2.434-2.004
		c0-1.142-1.026-1.684-2.078-1.963l-1.645-0.412c-2.752-0.692-3.201-2.321-3.201-3.388c0-2.265,2-3.706,4.285-3.706
		c2.32,0,4.135,1.46,4.135,3.801h-1.908c0-1.217-0.952-2.04-2.282-2.04c-1.216,0-2.304,0.729-2.304,1.907
		c0,0.411,0.134,1.271,1.763,1.685l1.627,0.412c2.17,0.543,3.537,1.722,3.537,3.612c0,2.15-1.761,3.854-4.361,3.854
		C420.807,442.547,418.973,440.693,418.973,438.616"/>
</g>
</svg>
