<svg width="16" height="16" viewBox="0 0 16 16" fill="none" xmlns="http://www.w3.org/2000/svg">
<path d="M14.6667 0H1.33333C0.596954 0 0 0.596954 0 1.33333V14.6667C0 15.403 0.596954 16 1.33333 16H14.6667C15.403 16 16 15.403 16 14.6667V1.33333C16 0.596954 15.403 0 14.6667 0Z" fill="white"/>
<path d="M8 0C3.588 0 0 3.14933 0 7.02267C0 10.896 3.588 14.044 8 14.044C8.46246 14.0442 8.92425 14.009 9.38133 13.9387L13.0147 15.9187C13.1125 15.9717 13.222 15.9996 13.3333 16C13.5101 16 13.6797 15.9298 13.8047 15.8047C13.9298 15.6797 14 15.5101 14 15.3333V11.6147C14.6194 11.0187 15.115 10.3063 15.4582 9.51824C15.8015 8.7302 15.9856 7.88209 16 7.02267C16 3.14933 12.412 0 8 0Z" fill="#868E96"/>
</svg>
