<?xml version="1.0" encoding="UTF-8"?>
<svg width="414px" height="427px" viewBox="0 0 414 427" version="1.1" xmlns="http://www.w3.org/2000/svg" xmlns:xlink="http://www.w3.org/1999/xlink">
    <title>about-principal-frame</title>
    <g id="Page-1" stroke="none" stroke-width="1" fill="none" fill-rule="evenodd">
        <g id="about-principal-frame" fill-rule="nonzero">
            <path d="M0,0 L414,0 L414,256 C396.18966,261.779016 387.284489,261.779016 387.284489,256 C387.284489,195.140826 368.191454,133.54189 353.615707,113.310918 C307.322546,49.0565331 247.055447,26.7367554 217.017864,26.7367554 C208.951743,26.7367554 112.25967,46.4924603 94.3533232,63.6532531 C70.4214884,86.5886541 54.0767022,147.575128 41.119214,151.042171 C27.8653781,154.588508 41.119214,209.679123 41.119214,251.412016 C41.119214,258.852381 27.4128093,260.381709 0,256 L0,0 Z" id="Rectangle" fill="#DEEEF1"></path>
            <path d="M0,250 C5.99456282,250 17.1052264,250 33.3319907,250 C47.6060758,250 49.9074008,338.288419 66.9880115,338.288419 C95.4005019,338.288419 148.757727,421.474634 229.699899,399.219712 C249.57129,393.756104 286.934918,377.238222 325.9186,343.804652 C334.82583,336.165545 369.163846,293.561792 393.778145,250 C393.778145,250 400.518763,250 414,250 L414,426.576839 L0,426.576839 L0,250 Z" id="Rectangle" fill="#FFFFFF"></path>
            <path d="M396.734,212.267 C396.734,179.19 384.218,144.325 361.869,113.036 C329.686,67.443 287.669,35.26 232.243,21.851 C150.891,3.078 77.585,39.731 40.043,115.718 C25.743,144.325 19.482,174.718 17.694,206.009 C16.8,227.464 16.8,248.92 23.058,269.481 C37.358,316.862 64.181,354.409 108.88,378.546 C133.911,391.956 160.731,401.789 188.444,408.946 C217.051,415.204 243.87,409.84 268.902,395.536 C282.192331,387.623051 295.02633,378.967671 307.343,369.611 C329.432926,351.849075 349.249029,331.431772 366.343,308.821 C387.794,282.891 396.734,252.496 396.734,212.267 Z M187.544,48.667 C223.303,48.667 256.38,59.395 285.881,79.067 C334.156,110.356 359.187,155.055 366.339,211.375 C369.915,242.664 359.187,270.375 341.308,294.515 C314.489,332.062 277.836,357.987 236.708,378.549 C226.874,383.913 216.147,384.807 204.525,383.019 C171.448,376.761 141.053,366.033 112.446,347.26 C82.946,327.593 61.489,302.56 52.546,267.696 C40.038,219.419 44.513,172.043 65.964,126.443 C90.101,75.489 130.33,47.776 187.544,48.67 L187.544,48.667 Z" id="Path_51" fill="#FFFFFF"></path>
        </g>
    </g>
</svg>