<svg xmlns="http://www.w3.org/2000/svg" width="155" height="154" viewBox="0 0 155 154">
  <g id="Group_213" data-name="Group 213" transform="translate(-1667.563 -744)">
    <ellipse id="Ellipse_7" data-name="Ellipse 7" cx="77.5" cy="77" rx="77.5" ry="77" transform="translate(1667.563 744)" fill="#c22238"/>
    <g id="Group_156" data-name="Group 156" transform="translate(1685.363 761.191)">
      <path id="Path_694" data-name="Path 694" d="M312.115,583.076c1.64,1.3,3.452.576,4.546-.027l1.278-.7a2.612,2.612,0,0,1,3.121-.086,2.245,2.245,0,0,1,.4,3.264,2.213,2.213,0,0,1-1.791.907,3.03,3.03,0,0,1-1.757-.651l-.957,1.944a4.522,4.522,0,0,0,2.861.777,4.084,4.084,0,0,0,3.146-1.7,4.3,4.3,0,0,0-.706-6.314c-1.246-.993-2.836-1.349-5.262.019l-1.315.744c-1.274.729-1.938.388-2.267.128a1.734,1.734,0,0,1-.086-2.587,2.169,2.169,0,0,1,2.413-.813l.281-1.969a4.756,4.756,0,0,0-1.762-.038,4.128,4.128,0,0,0-2.486,1.609A3.776,3.776,0,0,0,312.115,583.076Z" transform="translate(-299.684 -555.476)" fill="#fff"/>
      <path id="Path_695" data-name="Path 695" d="M323.226,583.937a7,7,0,0,0,5.2-1.068,7.622,7.622,0,0,0,2.648-2.962l-1.376-2.126a5.549,5.549,0,0,1-2.289,3.4,5.043,5.043,0,0,1-7.133-1.619,4.99,4.99,0,0,1,1.38-7.231,5.459,5.459,0,0,1,4.024-.758l-1.364-2.109a6.668,6.668,0,0,0-3.676,1.179,6.919,6.919,0,0,0-3.247,4.273,7.321,7.321,0,0,0,1.089,5.807A6.847,6.847,0,0,0,323.226,583.937Z" transform="translate(-292.643 -562.531)" fill="#fff"/>
      <path id="Path_696" data-name="Path 696" d="M330.225,581.558l-1.393-6.28,5.851-1.3,1.393,6.28,2.087-.462-3.028-13.645-2.087.462,1.2,5.4-5.851,1.3-1.2-5.4-2.087.462,3.028,13.644Z" transform="translate(-283.972 -566.154)" fill="#fff"/>
      <path id="Path_697" data-name="Path 697" d="M340.6,580.63a7.244,7.244,0,1,0-5.96-8.352A7.083,7.083,0,0,0,340.6,580.63Zm-3.854-8a5.133,5.133,0,1,1,4.181,6.058A5,5,0,0,1,336.745,572.635Z" transform="translate(-273.663 -566.07)" fill="#fff"/>
      <path id="Path_698" data-name="Path 698" d="M347.636,583.455a7.246,7.246,0,1,0-2.019-10.063A7.088,7.088,0,0,0,347.636,583.455Zm-.243-8.878a5.135,5.135,0,1,1,1.336,7.241A5,5,0,0,1,347.393,574.577Z" transform="translate(-262.926 -561.825)" fill="#fff"/>
      <path id="Path_699" data-name="Path 699" d="M354.384,589.859l1.6-1.215-2.481-3.271,9.527-7.225-1.291-1.7-11.128,8.44Z" transform="translate(-256.055 -554.888)" fill="#fff"/>
      <path id="Path_700" data-name="Path 700" d="M305.472,604.35l.959,2.095,3.7-.015,2.489,5.43-2.457,2.738.959,2.095,10.692-12.179Zm6.858,2.042,5.2-.01-3.44,3.859Z" transform="translate(-305.472 -524.339)" fill="#fff"/>
      <path id="Path_701" data-name="Path 701" d="M320.956,609.076,310.639,618.5,313,621.085a5.4,5.4,0,0,0,3.647,1.973,3.408,3.408,0,0,0,2.476-1.014,3.642,3.642,0,0,0,1.313-2.447,3.833,3.833,0,0,0-.471-2.007,2.336,2.336,0,0,0,1.418.121,3.039,3.039,0,0,0,1.5-.806,3.592,3.592,0,0,0,1.3-2.686c.01-1.259-.582-2.252-1.8-3.582Zm-3.075,11.266a2.009,2.009,0,0,1-1.613.534,3.662,3.662,0,0,1-1.829-1.194l-.876-.957,3.094-2.828.9.991a3.062,3.062,0,0,1,1.022,2.049A2.1,2.1,0,0,1,317.881,620.341Zm3.632-4.908a2.117,2.117,0,0,1-1.542.672,2.441,2.441,0,0,1-1.575-.918l-.438-.477,2.954-2.7.494.54a2.292,2.292,0,0,1,.758,1.607A1.716,1.716,0,0,1,321.513,615.434Z" transform="translate(-299.815 -519.165)" fill="#fff"/>
      <path id="Path_702" data-name="Path 702" d="M327.108,614.854a3.777,3.777,0,0,0-5.415,1.008c-1.1,1.785-.153,3.5.578,4.51l.848,1.186a2.61,2.61,0,0,1,.465,3.088,2.247,2.247,0,0,1-3.195.794,2.2,2.2,0,0,1-1.114-1.667,3.015,3.015,0,0,1,.431-1.827l-2.046-.714a4.535,4.535,0,0,0-.425,2.939,4.091,4.091,0,0,0,2.072,2.918,4.307,4.307,0,0,0,6.188-1.469c.832-1.355.991-2.981-.658-5.222l-.9-1.217c-.878-1.177-.618-1.879-.4-2.237a1.736,1.736,0,0,1,2.558-.4,2.224,2.224,0,0,1,1.022,1.219,2.2,2.2,0,0,1,.075,1.079l1.99.042a4.729,4.729,0,0,0-.176-1.758A4.117,4.117,0,0,0,327.108,614.854Z" transform="translate(-292.682 -513.615)" fill="#fff"/>
      <path id="Path_703" data-name="Path 703" d="M324.165,630.089l7.422,2.07.54-1.935-5.366-1.5,1.182-4.234,5.2,1.452.54-1.937-5.2-1.45.951-3.408,5.364,1.5.54-1.937-7.422-2.07Z" transform="translate(-285.008 -510.888)" fill="#fff"/>
      <path id="Path_704" data-name="Path 704" d="M344.286,617.909l-2.136.108.487,9.672-10.666-10.1.751,14.907,2.136-.109-.493-9.756,10.668,10.1Z" transform="translate(-276.462 -509.849)" fill="#fff"/>
      <path id="Path_705" data-name="Path 705" d="M348.609,617.631l-.71-1.88-7.994,3.013.71,1.882,3-1.131,4.216,11.188,2-.753-4.216-11.188Z" transform="translate(-267.776 -511.858)" fill="#fff"/>
      <path id="Path_706" data-name="Path 706" d="M354.363,625.505l-2.557-3.584,4.4-3.142-1.17-1.641-4.4,3.142-2.058-2.884,4.541-3.24-1.17-1.637-6.28,4.48,8.123,11.386,6.28-4.482-1.17-1.638Z" transform="translate(-261.466 -515.396)" fill="#fff"/>
      <path id="Path_707" data-name="Path 707" d="M361.217,619.658l-3.424-2.758,3.39-4.206-1.565-1.26-3.39,4.206-2.754-2.222,3.494-4.337-1.565-1.26-4.834,6,10.873,8.764,4.834-6-1.565-1.262Z" transform="translate(-256.101 -520.538)" fill="#fff"/>
      <path id="Path_708" data-name="Path 708" d="M365.891,605.17c-1.468-.618-3.1-.532-5.065,1.435l-1.066,1.072c-1.033,1.043-1.764.892-2.151.729a1.731,1.731,0,0,1-.777-2.466,2.163,2.163,0,0,1,2.105-1.431l-.258-1.976a4.8,4.8,0,0,0-1.711.438,4.131,4.131,0,0,0-1.959,2.222,3.77,3.77,0,0,0,1.808,5.2c1.931.817,3.477-.375,4.372-1.249l1.041-1.016a2.612,2.612,0,0,1,2.985-.922,2.245,2.245,0,0,1,1.265,3.038A2.2,2.2,0,0,1,365,611.595a3,3,0,0,1-1.867-.153l-.4,2.132a4.545,4.545,0,0,0,2.966-.023,4.089,4.089,0,0,0,2.574-2.487A4.308,4.308,0,0,0,365.891,605.17Z" transform="translate(-251.672 -526.326)" fill="#fff"/>
      <path id="Path_709" data-name="Path 709" d="M309.287,598.417a3.251,3.251,0,1,0-3.249-3.251A3.251,3.251,0,0,0,309.287,598.417Z" transform="translate(-304.852 -537.952)" fill="#fff"/>
      <path id="Path_710" data-name="Path 710" d="M362.391,591.915a3.251,3.251,0,1,0,3.251,3.251A3.252,3.252,0,0,0,362.391,591.915Z" transform="translate(-246.718 -537.952)" fill="#fff"/>
      <path id="Path_711" data-name="Path 711" d="M372.176,627.137a.924.924,0,0,0-.924-.922H336.473l3.974-1c.019,0,.029-.021.048-.027a.905.905,0,0,0,.371-.207h0l.008-.006,29.379-29.383a6.557,6.557,0,0,0,0-9.269l-3.056-3.056a6.554,6.554,0,0,0-9.259-.008l-.01.008-29.381,29.379,0,.006-.011.017a.892.892,0,0,0-.2.358c-.006.019-.023.029-.027.048l-1.967,7.847,0,.006v.008l-.771,3.075a3.212,3.212,0,0,0,.243,2.2H322.65a.922.922,0,1,0,0,1.843h48.6A.923.923,0,0,0,372.176,627.137Zm-43.835-6.611,1.36-5.419,8.716,8.716-5.4,1.355A6.637,6.637,0,0,0,328.341,620.526ZM360.753,587.4l-21.584,21.589a.905.905,0,0,0-.272.649.926.926,0,0,0,1.577.658l21.586-21.589,6.236,6.236-28.074,28.074-2.17-2.172,21.586-21.589a.924.924,0,0,0-1.307-1.307l-21.589,21.589-6.236-6.236,28.074-28.074Zm8.787,6.173-9.59-9.59a4.705,4.705,0,0,1,5.941.593l3.058,3.058A4.721,4.721,0,0,1,369.541,593.573Zm-41.646,28.736a4.711,4.711,0,0,1,3.333,3.318l-2.166.543a1.407,1.407,0,0,1-1.707-1.707Z" transform="translate(-287.676 -549.519)" fill="#fff"/>
    </g>
  </g>
</svg>
