<svg xmlns="http://www.w3.org/2000/svg" width="62.404" height="47.908" viewBox="0 0 62.404 47.908">
  <g id="Group_108" data-name="Group 108" transform="translate(-860.773 -1303.091)">
    <path id="Path_436" data-name="Path 436" d="M424.728,235.5a1.861,1.861,0,0,0-1.719,1.843c.02,1.265.39,1.811,1.5,2.073a2.645,2.645,0,0,0,1.649-.059,1.82,1.82,0,0,0,1.231-1.627,2,2,0,0,0-1.206-1.943A10.276,10.276,0,0,0,424.728,235.5Z" transform="matrix(-0.259, -0.966, 0.966, -0.259, 743.91, 1810.772)" fill="#34945c"/>
    <path id="Path_437" data-name="Path 437" d="M446.812,311.475a2.487,2.487,0,0,0,1.951-2.663,2.119,2.119,0,0,0-2.265-1.618,2.654,2.654,0,0,0-1.89,2.742A1.851,1.851,0,0,0,446.812,311.475Z" transform="matrix(-0.259, -0.966, 0.966, -0.259, 730.061, 1819.345)" fill="#003a60"/>
    <path id="Path_438" data-name="Path 438" d="M415.7,237.3a1.7,1.7,0,0,0,1.9,1.6,1.893,1.893,0,0,0,1.655-1.966,1.956,1.956,0,0,0-2.174-1.452A1.527,1.527,0,0,0,415.7,237.3Z" transform="matrix(-0.259, -0.966, 0.966, -0.259, 743.504, 1809.229)" fill="#e4c24a"/>
    <path id="Path_439" data-name="Path 439" d="M449.541,303.271a1.565,1.565,0,0,0,1.731,1.5,2.021,2.021,0,0,0,1.746-2.1,1.853,1.853,0,0,0-2.057-1.412A1.722,1.722,0,0,0,449.541,303.271Z" transform="matrix(-0.259, -0.966, 0.966, -0.259, 731.586, 1820.047)" fill="#e4c24a"/>
    <path id="Path_440" data-name="Path 440" d="M440.632,315.46a1.867,1.867,0,0,0,1.663-2.213c-.114-.683-1.124-1.214-2.043-1.074a1.557,1.557,0,0,0-1.418,1.756C439.086,315.005,439.682,315.635,440.632,315.46Z" transform="matrix(-0.259, -0.966, 0.966, -0.259, 728.69, 1818.408)" fill="#276ba4"/>
    <path id="Path_441" data-name="Path 441" d="M430.459,240.7a1.861,1.861,0,0,0,1.977,1.776,1.715,1.715,0,0,0-.434-3.4C430.835,239.243,430.335,239.771,430.459,240.7Z" transform="matrix(-0.259, -0.966, 0.966, -0.259, 743.581, 1812.534)" fill="#59b7cc"/>
    <path id="Path_442" data-name="Path 442" d="M438.4,244.986c-.144-.89-.674-1.323-1.474-1.206a1.426,1.426,0,0,0-1.261,1.5,1.615,1.615,0,0,0,1.669,1.332A1.521,1.521,0,0,0,438.4,244.986Z" transform="matrix(-0.259, -0.966, 0.966, -0.259, 742.886, 1813.894)" fill="#003a60"/>
    <path id="Path_443" data-name="Path 443" d="M435.04,316.642a1.23,1.23,0,0,0-1.509-1.114c-.811.1-1.364.661-1.289,1.3a1.658,1.658,0,0,0,1.721,1.442A1.4,1.4,0,0,0,435.04,316.642Z" transform="matrix(-0.259, -0.966, 0.966, -0.259, 727.613, 1817.217)" fill="#59b7cc"/>
    <path id="Path_444" data-name="Path 444" d="M452.63,297.159c.041.883.848,1.146,1.512,1.129.6-.016,1.09-.777,1.016-1.481a1.338,1.338,0,0,0-1.486-1.187A1.3,1.3,0,0,0,452.63,297.159Z" transform="matrix(-0.259, -0.966, 0.966, -0.259, 732.944, 1820.38)" fill="#59b7cc"/>
    <path id="Path_445" data-name="Path 445" d="M412.263,238.169c-.135-.9-.57-1.269-1.379-1.161a1.348,1.348,0,0,0-1.193,1.525,1.162,1.162,0,0,0,1.4,1.057A1.287,1.287,0,0,0,412.263,238.169Z" transform="matrix(-0.259, -0.966, 0.966, -0.259, 742.847, 1808.053)" fill="#34945c"/>
    <path id="Path_448" data-name="Path 448" d="M440.819,248.992a1.291,1.291,0,0,0,1.373,1.232,1.19,1.19,0,0,0-.3-2.361C441.081,247.981,440.733,248.347,440.819,248.992Z" transform="matrix(-0.259, -0.966, 0.966, -0.259, 742.316, 1815.208)" fill="#e4c24a"/>
    <path id="Path_449" data-name="Path 449" d="M445.471,252.627a1.291,1.291,0,0,0,.82,1.652,1.19,1.19,0,0,0,.593-2.3C446.088,251.784,445.63,252,445.471,252.627Z" transform="matrix(-0.259, -0.966, 0.966, -0.259, 741.724, 1816.406)" fill="#c22238"/>
    <path id="Path_450" data-name="Path 450" d="M450.392,255.905a1.291,1.291,0,0,0-.383,1.8,1.19,1.19,0,0,0,1.9-1.44C451.4,255.628,450.908,255.509,450.392,255.905Z" transform="matrix(-0.259, -0.966, 0.966, -0.259, 741.178, 1817.536)" fill="#0a4b6f"/>
    <path id="Path_451" data-name="Path 451" d="M455.828,261.923a1.292,1.292,0,0,0-1.682-.758,1.19,1.19,0,0,0,1,2.159C455.885,262.966,456.1,262.512,455.828,261.923Z" transform="matrix(-0.259, -0.966, 0.966, -0.259, 740.255, 1818.618)" fill="#34945c"/>
    <path id="Path_452" data-name="Path 452" d="M458.665,268.285a1.292,1.292,0,0,1-1.433,1.163,1.19,1.19,0,0,1,.419-2.343C458.455,267.262,458.783,267.645,458.665,268.285Z" transform="matrix(-0.259, -0.966, 0.966, -0.259, 739.144, 1819.54)" fill="#e4c24a"/>
    <path id="Path_453" data-name="Path 453" d="M459.448,276.238a1.291,1.291,0,0,1-1.778-.494,1.19,1.19,0,0,1,2.152-1.017C460.159,275.473,460.037,275.963,459.448,276.238Z" transform="matrix(-0.259, -0.966, 0.966, -0.259, 737.75, 1820.212)" fill="#c22238"/>
    <path id="Path_454" data-name="Path 454" d="M458.746,281.182a1.291,1.291,0,0,0-1.593.93,1.19,1.19,0,0,0,2.341.434C459.629,281.739,459.386,281.3,458.746,281.182Z" transform="matrix(-0.259, -0.966, 0.966, -0.259, 736.237, 1820.517)" fill="#276ba4"/>
    <path id="Path_455" data-name="Path 455" d="M456.381,290.745a1.291,1.291,0,0,1-.854-1.635,1.19,1.19,0,0,1,2.213.877C457.425,290.742,456.984,290.988,456.381,290.745Z" transform="matrix(-0.259, -0.966, 0.966, -0.259, 734.622, 1820.568)" fill="#34945c"/>
  </g>
</svg>
