<svg xmlns="http://www.w3.org/2000/svg" width="155" height="154" viewBox="0 0 155 154">
  <g id="Group_209" data-name="Group 209" transform="translate(-1252.477 -736)">
    <ellipse id="Ellipse_7" data-name="Ellipse 7" cx="77.5" cy="77" rx="77.5" ry="77" transform="translate(1252.477 736)" fill="#34945c"/>
    <g id="Group_154" data-name="Group 154" transform="translate(1273.683 755.299)">
      <path id="Path_662" data-name="Path 662" d="M393.431,582.853a3.816,3.816,0,0,0,4.4-.026l1.236-.676a2.53,2.53,0,0,1,3.024-.083,2.175,2.175,0,0,1,.392,3.162,2.145,2.145,0,0,1-1.737.879,2.935,2.935,0,0,1-1.7-.631l-.927,1.883a4.381,4.381,0,0,0,2.772.753,3.953,3.953,0,0,0,3.048-1.65,4.167,4.167,0,0,0-.684-6.117c-1.206-.962-2.748-1.307-5.1.018l-1.275.72c-1.236.706-1.879.376-2.2.124a1.678,1.678,0,0,1-.083-2.506,2.1,2.1,0,0,1,2.336-.787l.274-1.908a4.615,4.615,0,0,0-1.709-.036,4,4,0,0,0-2.407,1.558A3.657,3.657,0,0,0,393.431,582.853Z" transform="translate(-382.535 -556.113)" fill="#fff"/>
      <path id="Path_663" data-name="Path 663" d="M410.662,577.521a5.375,5.375,0,0,1-2.218,3.3,4.884,4.884,0,0,1-6.91-1.569,4.833,4.833,0,0,1,1.337-7.006,5.283,5.283,0,0,1,3.9-.735l-1.323-2.044a6.466,6.466,0,0,0-3.562,1.143,6.7,6.7,0,0,0-3.144,4.14,7.082,7.082,0,0,0,1.053,5.626,6.637,6.637,0,0,0,4.6,3.113,6.781,6.781,0,0,0,5.031-1.035,7.386,7.386,0,0,0,2.567-2.87Z" transform="translate(-375.914 -562.747)" fill="#fff"/>
      <path id="Path_664" data-name="Path 664" d="M411.423,581.078l-1.35-6.084,5.668-1.256,1.35,6.084,2.022-.448-2.933-13.219-2.022.448,1.161,5.232-5.668,1.256-1.161-5.232-2.022.448,2.933,13.219Z" transform="translate(-367.76 -566.154)" fill="#fff"/>
      <path id="Path_665" data-name="Path 665" d="M421.766,580.181a7.018,7.018,0,1,0-5.774-8.091A6.861,6.861,0,0,0,421.766,580.181Zm-3.734-7.746a4.973,4.973,0,1,1,4.051,5.869A4.845,4.845,0,0,1,418.032,572.435Z" transform="translate(-358.067 -566.076)" fill="#fff"/>
      <path id="Path_666" data-name="Path 666" d="M428.892,583.039a7.02,7.02,0,1,0-1.956-9.749A6.865,6.865,0,0,0,428.892,583.039Zm-.238-8.6a4.976,4.976,0,1,1,1.295,7.016A4.847,4.847,0,0,1,428.654,574.438Z" transform="translate(-347.97 -562.083)" fill="#fff"/>
      <path id="Path_667" data-name="Path 667" d="M435.623,589.44l1.552-1.177-2.4-3.169,9.23-7-1.251-1.649-10.781,8.177Z" transform="translate(-341.51 -555.56)" fill="#fff"/>
      <path id="Path_668" data-name="Path 668" d="M395.1,610.967a4.838,4.838,0,0,1,7.081.881,5.294,5.294,0,0,1,.986,3.846l1.954-1.453a6.423,6.423,0,0,0-1.374-3.48,6.7,6.7,0,0,0-4.337-2.872,7.081,7.081,0,0,0-5.544,1.417,6.636,6.636,0,0,0-2.811,4.794,6.79,6.79,0,0,0,1.36,4.96,7.4,7.4,0,0,0,3.03,2.375l1.971-1.465a5.372,5.372,0,0,1-3.432-2A4.886,4.886,0,0,1,395.1,610.967Z" transform="translate(-383.675 -523.298)" fill="#fff"/>
      <path id="Path_669" data-name="Path 669" d="M397.365,622.712l3.083-1.833,4.741,3.31-.706,3.493,1.831,1.276,2.943-15.411-13.719,7.886Zm9.234-5.5-.978,4.907-3.359-2.346Z" transform="translate(-379.014 -517.367)" fill="#fff"/>
      <path id="Path_670" data-name="Path 670" d="M415.341,628.438l-6.913-12.426-3.639,13.978,2,.521,2.38-9.148,6.913,12.426,3.617-13.9-2-.519Z" transform="translate(-369.489 -514.83)" fill="#fff"/>
      <path id="Path_671" data-name="Path 671" d="M422.563,617.792l-8.262.43.1,1.944,3.1-.161.6,11.562,2.065-.107-.6-11.562,3.1-.163Z" transform="translate(-359.697 -512.997)" fill="#fff"/>
      <path id="Path_672" data-name="Path 672" d="M426.108,628.889l-1.314-4.051,4.977-1.615-.6-1.853-4.976,1.615-1.058-3.26,5.133-1.665-.6-1.851-7.1,2.3,4.172,12.868,7.1-2.3-.6-1.851Z" transform="translate(-353.246 -514.627)" fill="#fff"/>
      <path id="Path_673" data-name="Path 673" d="M434.556,625.624l-2.368-3.544,4.354-2.909-1.082-1.619-4.354,2.907-1.9-2.85,4.489-3-1.082-1.619-6.209,4.148,7.517,11.257,6.211-4.148-1.082-1.619Z" transform="translate(-347.244 -517.941)" fill="#fff"/>
      <path id="Path_674" data-name="Path 674" d="M439.1,606.749l-1.274,1.633,7.4,5.765-14.156,1.423,11.4,8.885,1.272-1.633-7.46-5.817,14.156-1.421Z" transform="translate(-342.436 -524.365)" fill="#fff"/>
      <path id="Path_675" data-name="Path 675" d="M390.543,591.915a3.15,3.15,0,1,0,3.15,3.15A3.148,3.148,0,0,0,390.543,591.915Z" transform="translate(-387.395 -539.635)" fill="#fff"/>
      <path id="Path_676" data-name="Path 676" d="M443.647,591.915a3.15,3.15,0,1,0,3.15,3.15A3.15,3.15,0,0,0,443.647,591.915Z" transform="translate(-332.73 -539.635)" fill="#fff"/>
      <path id="Path_677" data-name="Path 677" d="M425.714,591.066c-.9-3.288-2.569-5.774-5.447-8.654a1.2,1.2,0,1,0-1.7,1.7c4.365,4.365,5.575,7.629,5.642,15.322a1.512,1.512,0,0,1-.337-.193c-1.826-1.829-4.538-2.756-8.063-2.756-4.041,0-10.821,2.032-10.821,15.629,0,11.527,6.744,21.638,14.429,21.638a7.974,7.974,0,0,0,5.2-2.141,1.222,1.222,0,0,1,1.628,0,7.966,7.966,0,0,0,5.2,2.141c7.683,0,14.425-10.111,14.425-21.638,0-10.738-5.609-15.629-10.819-15.629-3.521,0-6.234.927-8.065,2.756a1.531,1.531,0,0,1-.357.205c-.01-1.309-.053-2.511-.136-3.615a1.221,1.221,0,0,0,.124-.331c.087-.479,2.178-11.345,14.249-10.015-1.615,7.022-8.95,6.242-9.275,6.2a1.2,1.2,0,0,0-.3,2.385c3.724.471,11.093-.907,12.16-9.459l.144-1.145-1.139-.189C432.425,581.6,427.765,587.021,425.714,591.066Zm2.965,9.877c1.362-1.362,3.5-2.052,6.364-2.052,4.053,0,8.412,4.14,8.412,13.224,0,10.066-5.729,19.233-12.018,19.233a5.714,5.714,0,0,1-3.621-1.552,3.615,3.615,0,0,0-4.781,0,5.545,5.545,0,0,1-3.619,1.552c-6.293,0-12.022-9.167-12.022-19.233,0-6.033,1.459-13.224,8.414-13.224,2.862,0,5,.69,6.362,2.052A5.027,5.027,0,0,0,428.679,600.943Z" transform="translate(-369.285 -549.778)" fill="#fff"/>
    </g>
  </g>
</svg>
