<svg xmlns="http://www.w3.org/2000/svg" width="153.589" height="152.598" viewBox="0 0 153.589 152.598">
  <g id="Group_205" data-name="Group 205" transform="translate(-146.46 -735.723)">
    <ellipse id="Ellipse_7" data-name="Ellipse 7" cx="76.794" cy="76.299" rx="76.794" ry="76.299" transform="translate(146.46 735.723)" fill="#e4c24a"/>
    <g id="Group_157" data-name="Group 157" transform="translate(164.011 753.132)">
      <path id="Path_712" data-name="Path 712" d="M87.641,582.907a3.846,3.846,0,0,0,4.438-.027l1.248-.681a2.55,2.55,0,0,1,3.047-.084,2.192,2.192,0,0,1,.393,3.187,2.161,2.161,0,0,1-1.749.886,2.959,2.959,0,0,1-1.716-.636l-.935,1.9a4.414,4.414,0,0,0,2.794.759,3.981,3.981,0,0,0,3.072-1.663,4.2,4.2,0,0,0-.689-6.165c-1.217-.969-2.769-1.317-5.138.018l-1.284.726c-1.244.712-1.892.379-2.213.125a1.7,1.7,0,0,1-.084-2.526,2.118,2.118,0,0,1,2.356-.794l.276-1.922a4.653,4.653,0,0,0-1.722-.037,4.031,4.031,0,0,0-2.428,1.571A3.687,3.687,0,0,0,87.641,582.907Z" transform="translate(-75.41 -555.957)" fill="#040506"/>
      <path id="Path_713" data-name="Path 713" d="M98.644,583.594a6.819,6.819,0,0,0,5.072-1.043,7.408,7.408,0,0,0,2.585-2.892l-1.344-2.074a5.408,5.408,0,0,1-2.235,3.319,4.922,4.922,0,0,1-6.964-1.581,4.873,4.873,0,0,1,1.348-7.06,5.331,5.331,0,0,1,3.929-.738L99.7,569.463a6.5,6.5,0,0,0-3.589,1.153,6.764,6.764,0,0,0-3.17,4.17,7.145,7.145,0,0,0,1.064,5.669A6.679,6.679,0,0,0,98.644,583.594Z" transform="translate(-68.686 -562.694)" fill="#040506"/>
      <path id="Path_714" data-name="Path 714" d="M105.663,581.2l-1.36-6.132,5.712-1.268,1.36,6.132,2.037-.451-2.956-13.322-2.037.451,1.17,5.273-5.712,1.268-1.17-5.273-2.037.451,2.956,13.322Z" transform="translate(-60.409 -566.153)" fill="#040506"/>
      <path id="Path_715" data-name="Path 715" d="M116.013,580.291a7.074,7.074,0,1,0-5.819-8.156A6.916,6.916,0,0,0,116.013,580.291Zm-3.763-7.808a5.011,5.011,0,1,1,4.082,5.915A4.88,4.88,0,0,1,112.25,572.483Z" transform="translate(-50.566 -566.073)" fill="#040506"/>
      <path id="Path_716" data-name="Path 716" d="M123.116,583.14a7.076,7.076,0,1,0-1.972-9.825A6.92,6.92,0,0,0,123.116,583.14Zm-.237-8.668a5.013,5.013,0,1,1,1.3,7.07A4.884,4.884,0,0,1,122.879,574.472Z" transform="translate(-40.315 -562.019)" fill="#040506"/>
      <path id="Path_717" data-name="Path 717" d="M129.852,589.542l1.564-1.186-2.423-3.194,9.3-7.055-1.26-1.662-10.865,8.241Z" transform="translate(-33.755 -555.396)" fill="#040506"/>
      <path id="Path_718" data-name="Path 718" d="M87.581,605.993l1.851,4.943,1.84-.689L89.421,605.3l3.238-1.212,1.909,5.1,1.84-.691-2.64-7.051-12.783,4.788,2.642,7.052,1.84-.691-1.909-5.1Z" transform="translate(-80.984 -529.263)" fill="#040506"/>
      <path id="Path_719" data-name="Path 719" d="M102.284,616.511,101,614.865l-7.456,5.81,2.093-14.185-11.486,8.954,1.282,1.646,7.518-5.86-2.091,14.185Z" transform="translate(-77.673 -523.992)" fill="#040506"/>
      <path id="Path_720" data-name="Path 720" d="M100.78,614.249l-2.008-1.374-7.7,11.261,1.722,1.178,3.154-4.61.3.208.072,6.815,2.076,1.419-.221-7.211a3.745,3.745,0,0,0,4.647-1.434,3.814,3.814,0,0,0,.481-3.563A6.12,6.12,0,0,0,100.78,614.249Zm.378,5.138c-1.225,1.79-3.184.524-3.657.2l-.542-.368,2.448-3.579.593.4C100.845,616.622,102.242,617.8,101.158,619.387Z" transform="translate(-70.444 -517.318)" fill="#040506"/>
      <path id="Path_721" data-name="Path 721" d="M107.614,617.063a7.079,7.079,0,1,0,4.866,8.764A6.924,6.924,0,0,0,107.614,617.063Zm2.861,8.187a5.014,5.014,0,1,1-3.393-6.336A4.885,4.885,0,0,1,110.475,625.25Z" transform="translate(-62.638 -513.258)" fill="#040506"/>
      <path id="Path_722" data-name="Path 722" d="M110.645,629.6l-.2-11.67-2.085.034.23,13.636,6.092-.1-.034-1.963Z" transform="translate(-52.366 -512.038)" fill="#040506"/>
      <path id="Path_723" data-name="Path 723" d="M121.839,627.162l-7.767-8.632,1.772,14.84,2.025-.651-1.164-8.287,6.461,7.248,1.061-9.651,3.847,7.4,2.025-.651-6.951-13.174Z" transform="translate(-46.401 -514.464)" fill="#040506"/>
      <path id="Path_724" data-name="Path 724" d="M130.193,624.893l-2.557-3.455,4.242-3.14-1.168-1.578-4.242,3.14-2.057-2.78,4.374-3.237-1.168-1.58-6.052,4.48,8.119,10.971,6.052-4.48-1.168-1.58Z" transform="translate(-38.569 -517.959)" fill="#040506"/>
      <path id="Path_725" data-name="Path 725" d="M133.548,606.164l-1.232,1.682,7.628,5.58-14.215,1.868,11.754,8.6,1.232-1.684-7.694-5.626,14.215-1.869Z" transform="translate(-34.216 -524.333)" fill="#040506"/>
      <path id="Path_726" data-name="Path 726" d="M134.894,601.448l-1.849-.663-2.814,7.857,1.849.663,1.055-2.948,11,3.939.7-1.965-11-3.937Z" transform="translate(-29.51 -529.955)" fill="#040506"/>
      <path id="Path_727" data-name="Path 727" d="M84.769,598.263a3.174,3.174,0,1,0-3.174-3.174A3.175,3.175,0,0,0,84.769,598.263Z" transform="translate(-80.346 -539.226)" fill="#040506"/>
      <path id="Path_728" data-name="Path 728" d="M137.872,598.263a3.174,3.174,0,1,0-3.174-3.174A3.175,3.175,0,0,0,137.872,598.263Z" transform="translate(-24.841 -539.226)" fill="#040506"/>
      <path id="Path_729" data-name="Path 729" d="M113.811,592.294a2.618,2.618,0,1,0-2.618-2.62A2.62,2.62,0,0,0,113.811,592.294Zm0-3.716a1.1,1.1,0,1,1-1.1,1.1A1.1,1.1,0,0,1,113.811,588.578Z" transform="translate(-49.409 -544.303)" fill="#040506"/>
      <path id="Path_730" data-name="Path 730" d="M107.285,592.291a2.618,2.618,0,1,0-2.618-2.618A2.62,2.62,0,0,0,107.285,592.291Zm0-3.716a1.1,1.1,0,1,1-1.1,1.1A1.1,1.1,0,0,1,107.285,588.575Z" transform="translate(-56.23 -544.306)" fill="#040506"/>
      <path id="Path_731" data-name="Path 731" d="M110.548,596.665a.763.763,0,0,0,.648-.362l1.914-3.119a.761.761,0,0,0-1.3-.8l-1.266,2.064-1.262-2.066a.761.761,0,0,0-1.3.8l1.91,3.121A.763.763,0,0,0,110.548,596.665Z" transform="translate(-52.875 -539.112)" fill="#040506"/>
      <path id="Path_732" data-name="Path 732" d="M107.045,602.406a.762.762,0,0,0-.761.761v3.219a.76.76,0,1,0,1.52,0l0-3.219A.762.762,0,0,0,107.045,602.406Z" transform="translate(-54.54 -528.26)" fill="#040506"/>
      <path id="Path_733" data-name="Path 733" d="M112.14,607.148a.762.762,0,0,0,.761-.759v-3.221a.76.76,0,0,0-1.52,0l0,3.221A.76.76,0,0,0,112.14,607.148Z" transform="translate(-49.215 -528.257)" fill="#040506"/>
      <path id="Path_734" data-name="Path 734" d="M110.329,602.746l0-3.219a.761.761,0,0,0-1.522,0v3.219a.76.76,0,1,0,1.52,0Z" transform="translate(-51.901 -532.065)" fill="#040506"/>
      <path id="Path_735" data-name="Path 735" d="M121.539,639a16.406,16.406,0,0,0,2.489-.2l21.96-.163c.419,0-.325.035-.325-.385a.76.76,0,0,0-.759-.761l-16.517-.006A16.1,16.1,0,0,0,137.2,626.75a11.493,11.493,0,0,0,2.9.382.761.761,0,0,0,.759-.759l.006-13.2a5.558,5.558,0,0,0-3.156-5.06l.006-11.787a16.057,16.057,0,0,0-2.041-7.856l6.138-3.448a.76.76,0,0,0-.747-1.325l-6.193,3.481a16.31,16.31,0,0,0-1.886-2.276,16.145,16.145,0,0,0-24.727,2.27l-6.2-3.493a.761.761,0,0,0-.747,1.325l6.144,3.46a16.062,16.062,0,0,0-2.058,7.862l0,11.817a5.66,5.66,0,0,0-3.174,5.064l0,13.2a.76.76,0,0,0,.765.759,11.676,11.676,0,0,0,3.013-.442,16.559,16.559,0,0,0,8.807,10.754l-16.632-.008a.76.76,0,1,0,0,1.52l21.17-.155a15.768,15.768,0,0,0,1.9.164C121.334,639,121.437,639,121.539,639Zm16.587-28.768a4.129,4.129,0,0,1,1.215,2.937l-.006,12.415a9.983,9.983,0,0,1-3.526-.943c-.153-.071-.325-.178-.485-.264a9.866,9.866,0,0,1-1.17-.712l-.141-.1a10.249,10.249,0,0,1-1.194-1.072c-.061-.064-.125-.129-.19-.2a10.035,10.035,0,0,1-1.023-1.321l-.008-.01-.059-.1a10.1,10.1,0,0,1-.8-1.559c-.016-.041-.029-.084-.045-.125a10.14,10.14,0,0,1-.487-1.649c-.01-.053-.023-.106-.033-.158v0a10.056,10.056,0,0,1-.18-1.869v-1.291a5.467,5.467,0,0,1,.092-.937c.025-.131.065-.258.1-.385.043-.161.088-.323.145-.481a4.869,4.869,0,0,1,.233-.515c.039-.076.078-.151.121-.225a4.78,4.78,0,0,1,.419-.614,9.458,9.458,0,0,1,.691-.747,5.136,5.136,0,0,1,2.638-1.217v8.261a.76.76,0,1,0,1.52,0v-8.257a4.3,4.3,0,0,1,.579.16A4.134,4.134,0,0,1,138.126,610.233Zm-34.395,15.386.006-12.414a4.144,4.144,0,0,1,2.935-3.95,4.583,4.583,0,0,1,.456-.125h0v8.22a.761.761,0,0,0,1.522,0v-8.222a5.132,5.132,0,0,1,2.653,1.233,9.966,9.966,0,0,1,.8.882c.088.11.157.233.233.35a5.126,5.126,0,0,1,.749,2.657v1.293a10.023,10.023,0,0,1-.186,1.892c-.012.065-.025.131-.039.194a9.951,9.951,0,0,1-.511,1.685c-.016.039-.029.082-.045.123l-.014.031a9.913,9.913,0,0,1-.83,1.55c-.051.082-.106.161-.162.241-.178.258-.4.489-.6.732a10.8,10.8,0,0,1-.9.971,10.482,10.482,0,0,1-.886.742,9.845,9.845,0,0,1-.839.524c-.186.11-.368.223-.56.321-.288.145-.587.268-.89.384A9.979,9.979,0,0,1,103.731,625.619Zm3.7.665c.119-.049.225-.129.342-.182a11.38,11.38,0,0,0,1.284-.687c.2-.125.4-.249.6-.386.065-.047.135-.082.2-.129l.133-.1c.2-.155.407-.315.7-.57.063-.057.11-.127.172-.184.108-.1.235-.176.34-.28.252-.252.442-.542.667-.81.123-.145.272-.268.389-.421.074-.094.145-.19.217-.288.031-.043.059-.09.09-.135.057-.084.115-.17.17-.256l.047-.068c.088-.137.172-.278.264-.436.08-.137.162-.276.235-.417.1-.194.194-.393.337-.7.027-.057.055-.117.082-.178s.043-.117.067-.176c.1-.258.2-.517.288-.787.025-.08.047-.159.1-.337.067-.227.127-.456.178-.689l.027-.131c.014-.068.029-.135.041-.2l.008-.041c.045-.239.082-.481.123-.818.012-.082.022-.163.029-.245.035-.358.055-.718.055-1.084l0-1.29h0v-.215a5.961,5.961,0,0,0-.5-2.342l-.016-.037a6.013,6.013,0,0,0-.456-.855,6.73,6.73,0,0,0-.99-1.3c-.084-.084-.184-.143-.27-.223a5.234,5.234,0,0,0-4.242-1.736c-.027,0-.055.006-.082.006-.051,0-.1-.016-.153-.016h0a5.389,5.389,0,0,0-.661.068c-.106.012-.215,0-.319.02l0-11.3a14.552,14.552,0,0,1,1.861-7.117l3.955,2.227a5.877,5.877,0,1,0,2.393-.395l-5.534-3.119a14.578,14.578,0,0,1,23.944.006l-5.547,3.117a5.807,5.807,0,1,0,2.4.395l3.96-2.225a14.538,14.538,0,0,1,1.843,7.111l0,11.263c-.067-.012-.139,0-.207-.014a5.919,5.919,0,0,0-.785-.076h-.006c-.063,0-.125.016-.19.018a.523.523,0,0,0-.059,0,5.231,5.231,0,0,0-4.264,1.759c-.076.068-.162.119-.233.19a6.72,6.72,0,0,0-1.049,1.409c-.07.117-.129.237-.192.358-.1.209-.2.417-.286.636a6.155,6.155,0,0,0-.192.634c-.045.166-.1.325-.129.5a6.512,6.512,0,0,0-.121,1.217V615.5c0,.368.02.73.053,1.088l0,.008c.008.1.022.19.035.286l0,.045c.031.245.067.487.112.728l0,.021c.02.108.043.217.065.325l.006.031c.051.231.11.456.2.765l0,.014c.023.072.041.143.063.215l.01.037c.092.286.194.567.309.843l.018.045c.025.055.049.11.074.168l.039.092c.108.241.221.481.344.714l.037.065c.022.041.047.082.07.125l.121.209c.09.157.184.313.282.464l.061.09c.051.078.1.153.153.229.025.035.047.072.072.106.092.129.188.254.327.436.033.041.067.082.1.125.047.059.094.121.143.18l.055.067c.055.065.112.129.245.272.047.053.1.108.153.159.186.2.38.391.581.575.106.1.2.193.329.309.023.018.049.037.072.057.1.084.2.164.309.245.059.045.11.09.172.137s.143.108.213.158c.035.026.072.049.106.073.123.086.247.17.372.252.035.023.065.047.1.068l.158.1,0,0,.045.027,0,.006c.02.01.041.018.061.031a11.681,11.681,0,0,0,1.6.8l.012.006a14.559,14.559,0,0,1-28.331,0Zm7.447-33.753h0a4.342,4.342,0,1,1-4.342,4.34A4.35,4.35,0,0,1,114.88,592.531Zm13.349.008a4.341,4.341,0,1,1-4.342,4.338,4.313,4.313,0,0,1,4.342-4.338Z" transform="translate(-63.823 -551.507)" fill="#040506"/>
    </g>
  </g>
</svg>
