<?xml version="1.0" encoding="UTF-8"?>
<svg width="549px" height="571px" viewBox="0 0 549 571" version="1.1" xmlns="http://www.w3.org/2000/svg" xmlns:xlink="http://www.w3.org/1999/xlink">
    <title>Group 2</title>
    <g id="Page-1" stroke="none" stroke-width="1" fill="none" fill-rule="evenodd">
        <g id="Group-2">
            <g id="Group">
                <path d="M0,373 L31.9960938,373 C99.8190104,497.583333 184.541667,553.651042 286.164062,541.203125 C387.786458,528.755208 461.842448,472.6875 508.332031,373 L549,373 L549,571 L0,571" id="Rectangle" fill="#FFFFFF"></path>
                <path d="M0,0 L549,0 L549,384 L503.085938,384 C513.359375,266.065104 511.10026,193.990885 496.308594,167.777344 C425.725702,42.691536 290.995997,28.546875 252.675781,28.546875 C215.774394,28.546875 95.3305677,51.8225666 41.0049611,167.777344 C25.4476957,200.983402 25.4476957,273.05762 41.0049611,384 L0,384" id="Rectangle" fill="#DEEEF1"></path>
            </g>
            <g id="frame" fill="#FFFFFF" fill-rule="nonzero">
                <path d="M548.484,282.243 C548.484,234.433 530.394,184.043 498.09,138.814 C451.573,72.914 390.841,26.397 310.728,7.014 C193.147,-20.124 87.186,32.854 32.915,142.687 C12.241,184.036 3.195,227.969 0.615,273.194 C-0.677,304.206 -0.677,335.217 8.368,364.937 C29.042,433.421 67.807,487.691 132.415,522.58 C168.595,541.962 207.36,556.18 247.415,566.513 C288.764,575.558 327.528,567.805 363.709,547.131 C382.918656,535.693278 401.468712,523.182457 419.271,509.658 C451.198884,483.984721 479.840201,454.47351 504.547,421.792 C535.563,384.32 548.484,340.386 548.484,282.243 Z M246.12,45.776 C297.806,45.776 345.62,61.282 388.257,89.709 C458.033,134.934 494.214,199.543 504.547,280.943 C509.716,326.168 494.21,366.225 468.367,401.113 C429.603,455.383 376.624,492.856 317.185,522.575 C302.971,530.328 287.466,531.62 270.668,529.036 C222.858,519.991 178.925,504.485 137.576,477.35 C94.935,448.923 63.923,412.743 51.002,362.35 C32.912,292.574 39.373,224.09 70.384,158.19 C105.276,84.543 163.423,44.483 246.12,45.776 Z" id="Path_51"></path>
            </g>
        </g>
    </g>
</svg>