<svg id="KPS-LOGO1-col" xmlns="http://www.w3.org/2000/svg" width="177.873" height="189.086" viewBox="0 0 177.873 189.086">
  <g id="Group_17" data-name="Group 17" transform="translate(13.455 13.136)">
    <g id="Group_14" data-name="Group 14">
      <g id="Group_11" data-name="Group 11" transform="translate(16.819)">
        <path id="Path_125" data-name="Path 125" d="M111.848,28.292c1.223,1.121,2.446,2.243,3.67,3.262a10.575,10.575,0,0,0-.408,1.019l.917.612c.815.51,1.733,1.019,2.548,1.529a3.1,3.1,0,0,1,.714.51c1.121,1.121,2.344,2.243,3.466,3.364.1.1.2.1.306.2a9.471,9.471,0,0,1-.51,1.019,42.6,42.6,0,0,1-4.587,6.626,11.591,11.591,0,0,1-1.631,1.529c-.815.612-1.529,1.223-2.344,1.733-.306-.2-.51-.306-.815-.51-1.733-1.019-3.364-2.039-5.1-3.058-.1-.1-.2-.1-.306-.2-.612-.714-1.121-1.427-1.631-2.141s-1.019-1.427-1.529-2.039c-.1-.1-.2-.306-.306-.408a11.852,11.852,0,0,0-1.835.408v1.223a.356.356,0,0,1-.2-.1l-1.529-.917c-.815-.51-1.631-.917-2.548-1.427a34.548,34.548,0,0,0-3.975-1.835,28.224,28.224,0,0,0-4.179-1.223,6.859,6.859,0,0,0-2.039-.1,16.022,16.022,0,0,0-2.344.408h-.2c.306-.408.51-.815.815-1.223-.612-.612-1.223-1.325-1.835-1.937-2.141,1.937-4.485,3.67-6.83,5.5.2.2.306.408.51.612-1.325.714-2.752,1.325-4.077,2.039a5.105,5.105,0,0,0-.714-.815,21.354,21.354,0,0,1-1.427-1.733c-.51-.714-1.019-1.529-1.529-2.344a22.14,22.14,0,0,1-1.937-4.179,25.39,25.39,0,0,1-.917-3.772L67.2,27.477a12.423,12.423,0,0,1,0-2.752c0-.2.1-.2.2-.306,1.427-1.121,2.752-2.141,4.179-3.262,1.121-.815,2.141-1.631,3.262-2.446a.86.86,0,0,1,.714-.2,16.445,16.445,0,0,0,2.243,0c.714,0,1.529-.2,2.243-.2.408,0,.815-.1,1.121-.1.2,0,.306-.1.51-.306.2-.408.51-.815.815-1.325-1.121-.306-2.141-.306-3.262-.51a4.432,4.432,0,0,0,.714-.408c.612-.306,1.325-.612,1.937-.917h.306c.408.1.815.1,1.223.2.2.1.408,0,.612-.2a6.593,6.593,0,0,1,.815-.917c-.1-.1-.2-.1-.2-.2a9.634,9.634,0,0,1,7.339,0c-.51.306-.714.408-.917.408a11.4,11.4,0,0,0-4.179,3.058,12.159,12.159,0,0,0-2.141,2.956,5.555,5.555,0,0,0-.51,2.243,13.458,13.458,0,0,0,.2,2.854,12.636,12.636,0,0,0,1.937,4.893A13.266,13.266,0,0,0,88.2,32.369a19.122,19.122,0,0,0,4.995,3.67,11.96,11.96,0,0,0,4.485,1.325,12.7,12.7,0,0,0,4.383-.2,15.97,15.97,0,0,0,4.383-1.529,10.786,10.786,0,0,0,4.791-5.4c.2-.612.408-1.121.612-1.733C111.746,28.5,111.746,28.394,111.848,28.292ZM82.084,31.248c-.306.1-.612.306-.917.408-.51.306-1.121.51-1.631.815-1.529.917-3.058,1.835-4.689,2.65a2.132,2.132,0,0,0-.612.408,31.075,31.075,0,0,0,1.937,3.058c1.325-1.019,2.548-2.039,3.873-3.058A30.346,30.346,0,0,0,82.8,33.185l.2-.2A5.666,5.666,0,0,0,82.084,31.248Zm-1.325-3.364c-.51.2-.917.306-1.427.51-1.121.408-2.141.815-3.262,1.223-.51.2-1.019.408-1.427.612a8.127,8.127,0,0,1-1.631.815c-.2.1-.306.2-.51.306A20.421,20.421,0,0,0,73.521,34a2.228,2.228,0,0,0,.51-.306c1.121-.612,2.344-1.325,3.466-1.937a20.518,20.518,0,0,1,2.548-1.427c.408-.2.815-.51,1.223-.714A11.138,11.138,0,0,0,80.759,27.884Zm-.2-7.951c-.408,0-.815.1-1.121.1a19.8,19.8,0,0,1-2.446.2H72.6A19.8,19.8,0,0,0,71.89,23.6c2.752-.51,5.5-.917,8.155-1.325C80.249,21.463,80.351,20.749,80.555,19.934Zm-.408,4.077a57.462,57.462,0,0,0-8.359,1.529,18.641,18.641,0,0,0,.2,3.364,5.492,5.492,0,0,0,1.325-.714,6.851,6.851,0,0,1,1.223-.612c.714-.306,1.427-.51,2.039-.714a19.829,19.829,0,0,1,2.243-.815,6.594,6.594,0,0,1,1.325-.408A8.7,8.7,0,0,0,80.147,24.011Zm32.517,20.794c-.612-.612-1.223-1.223-1.733-1.835-.714-.714-1.529-1.427-2.243-2.243-.306-.306-.51-.612-.815-.917-.612.306-1.223.51-1.733.815v.1c.612.917,1.325,1.835,1.937,2.752a22.383,22.383,0,0,1,1.733,2.548c.1.2.2.306.306.51A22.382,22.382,0,0,0,112.664,44.805Zm3.772-3.772c-1.631-1.325-3.16-2.548-4.791-3.873a20.409,20.409,0,0,0-1.631,1.427c1.427,1.631,3.058,3.058,4.587,4.587C115.212,42.461,115.824,41.849,116.435,41.034Zm.917-1.325a18.564,18.564,0,0,0,1.529-2.752,44.765,44.765,0,0,1-4.791-2.752c-.408.612-.917,1.121-1.325,1.733C114.295,37.262,115.925,38.384,117.353,39.709Z" transform="translate(-28.977 -12.887)" fill="#0a4b6f"/>
        <path id="Path_126" data-name="Path 126" d="M88.8,24.641a10.12,10.12,0,0,1,.51-3.058,5.347,5.347,0,0,1,3.466-3.466,11.169,11.169,0,0,1,2.65-.612c.714-.1,1.325-.2,2.039-.306.2,0,.306,0,.408.1,2.446,1.835,4.893,3.67,7.339,5.606.714.612,1.529,1.223,2.243,1.835a.727.727,0,0,1,.306.612,9.657,9.657,0,0,1-.714,2.956,9.867,9.867,0,0,1-1.835,3.16,8.672,8.672,0,0,1-4.689,2.854l-1.835.306H97.465a7.322,7.322,0,0,1-4.281-1.325,9.3,9.3,0,0,1-1.937-2.039,13,13,0,0,1-1.529-2.548A7.766,7.766,0,0,1,88.8,24.641Zm9.174-3.975A6.487,6.487,0,0,0,94.1,21.889,4.832,4.832,0,0,0,92.47,24.03a4.672,4.672,0,0,0-.1,2.039,5.989,5.989,0,0,0,8.664,4.281,7.135,7.135,0,0,0,2.956-3.058,3.51,3.51,0,0,0,.408-2.039,3.793,3.793,0,0,0-1.223-2.548A7.406,7.406,0,0,0,97.974,20.666Z" transform="translate(-28.558 -12.804)" fill="#0a4b6f"/>
        <path id="Path_127" data-name="Path 127" d="M42.637,61.906l-3.058,2.446-.2-.2a11.124,11.124,0,0,1-2.344-2.956A16.89,16.89,0,0,1,35.6,57.421c-.1-.408-.1-.815-.2-1.223a.613.613,0,0,1,.1-.408c1.529-1.733,2.956-3.466,4.485-5.2,1.121-1.223,2.243-2.548,3.364-3.772l.408-.408A1.032,1.032,0,0,1,44.472,46a10.043,10.043,0,0,0,1.733-.2,15,15,0,0,1,2.141,0c.917.1,1.937.2,2.854.306a7.072,7.072,0,0,1,3.568,1.835A16.439,16.439,0,0,1,57.214,50.8c0,.1.1.1.1.2-1.019.714-2.141,1.325-3.16,2.039,0-.1-.1-.1-.1-.2a12.626,12.626,0,0,0-1.835-2.243,5.993,5.993,0,0,0-3.16-1.427,9.051,9.051,0,0,0-2.344-.1A8.53,8.53,0,0,0,41.618,51a8.339,8.339,0,0,0-2.039,2.548,3.139,3.139,0,0,0-.306,1.325,8.737,8.737,0,0,0,.714,3.67,7.855,7.855,0,0,0,1.427,2.141c.306.306.714.612,1.019.917C42.535,61.8,42.535,61.906,42.637,61.906Z" transform="translate(-29.59 -12.252)" fill="#0a4b6f"/>
        <path id="Path_128" data-name="Path 128" d="M63.773,47.3,60.1,49.438c-.2-.408-.306-.714-.51-1.121a13.382,13.382,0,0,0-2.65-4.077,10.462,10.462,0,0,0-6.728-3.568c-.2,0-.408-.1-.714-.1h-.1a6.15,6.15,0,0,1,.815-.815l2.65-2.65.1-.1c.1-.1.2-.1.408-.1a20.137,20.137,0,0,1,3.873,2.039,18.085,18.085,0,0,1,4.995,5.4c.51.917,1.019,1.835,1.427,2.752A.316.316,0,0,0,63.773,47.3Z" transform="translate(-29.319 -12.423)" fill="#0a4b6f"/>
        <path id="Path_129" data-name="Path 129" d="M139.919,57.65c-.2,0-.408-.1-.612-.1a2.837,2.837,0,0,0-2.344.714,2.208,2.208,0,0,0-.612,2.344,2.6,2.6,0,0,0,2.141,2.039,2.85,2.85,0,0,0,2.65-.714,4.033,4.033,0,0,0,1.019-1.529,13.759,13.759,0,0,1,1.529,2.65,4.78,4.78,0,0,1-1.937,1.835,6.273,6.273,0,0,1-2.344.714,4.387,4.387,0,0,1-1.631,0,4.147,4.147,0,0,1-2.548-1.529A7.485,7.485,0,0,1,133.7,60.5a7.2,7.2,0,0,1,.2-2.548,3.711,3.711,0,0,1,2.446-2.752,3.151,3.151,0,0,1,.815-.2.374.374,0,0,1,.306.1A11.656,11.656,0,0,1,139.919,57.65Z" transform="translate(-27.69 -12.073)" fill="#0a4b6f"/>
        <path id="Path_130" data-name="Path 130" d="M129.828,46.5c.612.612,1.121,1.223,1.733,1.835a14.689,14.689,0,0,0-6.218,9.276c-.815-.51-1.529-1.121-2.243-1.631A18,18,0,0,1,129.828,46.5Z" transform="translate(-27.894 -12.237)" fill="#0a4b6f"/>
        <path id="Path_131" data-name="Path 131" d="M134.6,51.8c.408.51.815.917,1.223,1.427-.2.1-.306.1-.51.2a7.143,7.143,0,0,0-3.364,2.65,3.532,3.532,0,0,0-.816,1.631v.306a7.208,7.208,0,0,0,1.529,5.1l.1.1v.1a1.407,1.407,0,0,1-.408-.306c-.1-.1-.306-.2-.408-.306-.714-.612-1.529-1.121-2.243-1.733a.561.561,0,0,1-.306-.51,8.921,8.921,0,0,1-.2-1.631,5.689,5.689,0,0,1,1.019-3.364,11.034,11.034,0,0,1,3.364-3.16A9.473,9.473,0,0,0,134.6,51.8Z" transform="translate(-27.777 -12.135)" fill="#0a4b6f"/>
        <path id="Path_132" data-name="Path 132" d="M31.841,60.7a16.66,16.66,0,0,0,3.67,5.708.1.1,0,0,0-.1.1,8.439,8.439,0,0,1-2.752.714,4.519,4.519,0,0,1-2.039-.306,1.4,1.4,0,0,1-.917-1.325,5.086,5.086,0,0,1,.51-2.141A20.518,20.518,0,0,1,31.637,60.9C31.739,60.9,31.739,60.8,31.841,60.7Z" transform="translate(-29.7 -11.963)" fill="#0a4b6f"/>
        <path id="Path_133" data-name="Path 133" d="M52.172,54.339a8.5,8.5,0,0,1-1.223.815,6.857,6.857,0,0,0-1.121-.714,4.112,4.112,0,0,0-3.262-.51,2.942,2.942,0,0,0-1.937,1.325,1.912,1.912,0,0,0-.408,1.631,3.936,3.936,0,0,0,.815,2.039c.1.1.2.306.408.408-.408.306-.714.612-1.121.917a4.231,4.231,0,0,1-.714-1.325,5.628,5.628,0,0,1-.306-3.873,3.259,3.259,0,0,1,2.243-2.344,14.431,14.431,0,0,1,2.039-.408,6.471,6.471,0,0,1,2.752.408A4.734,4.734,0,0,1,52.172,54.339Z" transform="translate(-29.441 -12.126)" fill="#0a4b6f"/>
        <path id="Path_134" data-name="Path 134" d="M64.541,39.287A2.039,2.039,0,0,1,62.6,37.962a3.487,3.487,0,0,1-.1-2.039A1.87,1.87,0,0,1,64.541,34.7h.2a1.533,1.533,0,0,1,1.427,1.019,2.822,2.822,0,0,1,.306,1.325,2.282,2.282,0,0,1-.612,1.733A1.405,1.405,0,0,1,64.541,39.287Z" transform="translate(-29.068 -12.466)" fill="#0a4b6f"/>
        <path id="Path_135" data-name="Path 135" d="M124.883,46.64a2.666,2.666,0,0,1-.917,1.835,2.074,2.074,0,0,1-1.529.612,1.688,1.688,0,0,1-1.223-.51,5.492,5.492,0,0,1-.714-1.325V46.64a2.8,2.8,0,0,1,1.937-2.039,1.747,1.747,0,0,1,2.243,1.121C124.781,46.029,124.781,46.335,124.883,46.64Z" transform="translate(-27.945 -12.276)" fill="#0a4b6f"/>
        <path id="Path_136" data-name="Path 136" d="M65.067,30.632a2.058,2.058,0,0,1-.917,1.835,1.376,1.376,0,0,1-1.631,0,2.13,2.13,0,0,1-.917-2.344A1.532,1.532,0,0,1,62.926,29a1.754,1.754,0,0,1,1.223.2A1.489,1.489,0,0,1,65.067,30.632Z" transform="translate(-29.084 -12.576)" fill="#0a4b6f"/>
        <path id="Path_137" data-name="Path 137" d="M65.8,42.235c.1-.306.1-.612.2-.917a1.107,1.107,0,0,1,1.223-.917,2.768,2.768,0,0,1,1.733.612,1.594,1.594,0,0,1-.1,2.446c-.2.1-.408.306-.612.408a.926.926,0,0,1-1.019,0l-.917-.612C65.8,43.05,65.8,42.643,65.8,42.235Z" transform="translate(-29.002 -12.355)" fill="#0a4b6f"/>
        <path id="Path_138" data-name="Path 138" d="M119.87,50.627a2.25,2.25,0,0,1-1.019,2.039c-.1.1-.2.1-.408,0-.714-.408-1.325-.917-2.039-1.325a.53.53,0,0,1-.2-.408,1.865,1.865,0,0,1,1.835-1.733,3.622,3.622,0,0,1,1.019.2A1.576,1.576,0,0,1,119.87,50.627Z" transform="translate(-28.028 -12.185)" fill="#0a4b6f"/>
        <path id="Path_139" data-name="Path 139" d="M137.4,66.029a7.868,7.868,0,0,0,6.728-1.529,2.01,2.01,0,0,1-.917,2.548,3.139,3.139,0,0,1-1.937.306,12.576,12.576,0,0,1-3.772-1.223Z" transform="translate(-27.618 -11.889)" fill="#0a4b6f"/>
        <path id="Path_140" data-name="Path 140" d="M138.931,58.7c.2,0,.408.1.612.1a1.209,1.209,0,0,1,.714,1.835,2.022,2.022,0,0,1-1.631,1.019,1.186,1.186,0,0,1-1.325-1.121,1.837,1.837,0,0,1,.917-1.631A6.5,6.5,0,0,0,138.931,58.7Z" transform="translate(-27.62 -12.001)" fill="#0a4b6f"/>
        <path id="Path_141" data-name="Path 141" d="M46.11,58.762a1.683,1.683,0,0,1-.51-1.529A1.971,1.971,0,0,1,47.537,55.5a2.045,2.045,0,0,1,1.733.714.356.356,0,0,1,.1.2C48.251,57.131,47.231,57.946,46.11,58.762Z" transform="translate(-29.393 -12.063)" fill="#0a4b6f"/>
        <path id="Path_142" data-name="Path 142" d="M126.25,42.846a2.508,2.508,0,0,1-1.121.408,1.157,1.157,0,0,1-.815-.306,2.484,2.484,0,0,1-.612-2.243c0-.1.1-.2.1-.306C124.721,41.215,125.434,42.031,126.25,42.846Z" transform="translate(-27.884 -12.355)" fill="#0a4b6f"/>
        <path id="Path_143" data-name="Path 143" d="M95.1,26.46a3.349,3.349,0,0,1,1.733-2.854,3.2,3.2,0,0,1,3.16.2,2.2,2.2,0,0,1,1.019,2.243,2.92,2.92,0,0,1-1.121,1.937,3.4,3.4,0,0,1-2.344.917A2.354,2.354,0,0,1,95.1,26.46Z" transform="translate(-28.436 -12.686)" fill="#0a4b6f"/>
      </g>
      <g id="Group_12" data-name="Group 12" transform="translate(0.102 122.027)">
        <path id="Path_144" data-name="Path 144" d="M21.659,135.55c0,1.733-1.325,2.752-3.364,2.752H16.256v2.141h1.733v1.019H13.3v-1.019h1.733v-6.524H13.4V132.9h4.893C20.333,132.9,21.659,133.817,21.659,135.55Zm-1.223,0c0-1.223-1.019-1.631-2.141-1.631H16.358v3.364h1.937C19.314,137.283,20.435,136.875,20.435,135.55Z" transform="translate(-13.3 -132.594)" fill="#0a4b6f"/>
        <path id="Path_145" data-name="Path 145" d="M33.174,141.46a3.613,3.613,0,0,1-1.121.306c-1.121,0-2.039-.612-2.752-2.446l-.51-1.325H26.854v2.65h1.631v1.019H24v-1.019h1.631v-6.626H24V133h4.995c1.937,0,3.16,1.019,3.16,2.548a2.5,2.5,0,0,1-2.243,2.446l.51,1.121c.51,1.325,1.121,1.631,1.733,1.631.306,0,.51-.1.714-.1Zm-6.32-4.587h2.141a1.652,1.652,0,0,0,1.835-1.529c0-.917-.815-1.427-1.835-1.427H26.854Z" transform="translate(-13.093 -132.592)" fill="#0a4b6f"/>
        <path id="Path_146" data-name="Path 146" d="M38.056,133.919v6.524h1.631v1.019H35.1v-1.019h1.631v-6.524H35.1V132.9h4.587v1.019Z" transform="translate(-12.879 -132.594)" fill="#0a4b6f"/>
        <path id="Path_147" data-name="Path 147" d="M54.947,140.443v1.019H50.564v-1.019h1.529v-4.281c0-.408.1-1.019.1-1.529l-3.466,6.931h-.612l-3.466-6.931a8.24,8.24,0,0,1,.1,1.529v4.281h1.529v1.019H41.9v-1.019h1.631v-6.524H41.9V132.9h3.058l3.466,6.931,3.364-6.931h3.058v1.019H53.215v6.524Z" transform="translate(-12.747 -132.594)" fill="#0a4b6f"/>
        <path id="Path_148" data-name="Path 148" d="M67.2,140.445v1.019H63.124v-1.019h1.427l-.815-2.039H59.964l-.815,2.039h1.529v1.019H56.6v-1.019h1.325l2.854-6.626H59.454V132.8h4.893v1.019H63.022l2.854,6.626Zm-3.873-2.956L61.9,133.921h-.1l-1.427,3.568Z" transform="translate(-12.463 -132.596)" fill="#0a4b6f"/>
        <path id="Path_149" data-name="Path 149" d="M78.276,141.46a3.613,3.613,0,0,1-1.121.306c-1.121,0-2.039-.612-2.752-2.446l-.51-1.325H71.956v2.65h1.631v1.019H69v-1.019h1.631v-6.626H69V133h4.995c1.937,0,3.16,1.019,3.16,2.548a2.5,2.5,0,0,1-2.243,2.446l.51,1.121c.51,1.325,1.121,1.631,1.733,1.631.306,0,.51-.1.714-.1Zm-6.422-4.587h2.141a1.652,1.652,0,0,0,1.835-1.529c0-.917-.815-1.427-1.835-1.427H71.854Z" transform="translate(-12.223 -132.592)" fill="#0a4b6f"/>
        <path id="Path_150" data-name="Path 150" d="M85,138.1v2.344h1.631v1.019H82.048v-1.019h1.733V138.2l-3.058-4.281H79.5V132.9h3.975v1.019H82.252l2.344,3.364,2.344-3.364H85.514V132.9h3.975v1.019H88.164Z" transform="translate(-12.02 -132.594)" fill="#0a4b6f"/>
        <path id="Path_151" data-name="Path 151" d="M103.935,139.43c0,1.427-1.223,2.243-2.854,2.243a4.569,4.569,0,0,1-3.16-1.427v1.223H96.8v-2.956h.714a4.546,4.546,0,0,0,3.568,2.039c.917,0,1.631-.408,1.631-1.121S102,138.206,99.96,137.7c-2.141-.51-3.058-1.427-3.058-2.752a2.541,2.541,0,0,1,2.752-2.344,3.476,3.476,0,0,1,2.854,1.325V132.8h1.121v2.854h-.714a3.194,3.194,0,0,0-2.956-2.039c-1.019,0-1.733.408-1.733,1.223,0,.714.714,1.223,2.446,1.733C102.61,137.187,103.935,137.9,103.935,139.43Z" transform="translate(-11.686 -132.6)" fill="#0a4b6f"/>
        <path id="Path_152" data-name="Path 152" d="M114.759,139.631a4.559,4.559,0,0,1-8.359-2.446,4.233,4.233,0,0,1,4.281-4.485,3.513,3.513,0,0,1,2.752,1.223V132.8h1.223v2.854l-.815.1a3.006,3.006,0,0,0-2.956-2.039,3.179,3.179,0,0,0-3.058,3.466,3.255,3.255,0,0,0,3.16,3.466,3.388,3.388,0,0,0,2.956-1.631Z" transform="translate(-11.5 -132.598)" fill="#0a4b6f"/>
        <path id="Path_153" data-name="Path 153" d="M126.376,133.919v6.524h1.631v1.019H123.42v-1.019h1.631v-2.854h-4.995v2.854h1.631v1.019H117.1v-1.019h1.631v-6.524H117.1V132.9h4.587v1.019h-1.631v2.752h4.995v-2.752H123.42V132.9h4.587v1.019Z" transform="translate(-11.293 -132.594)" fill="#0a4b6f"/>
        <path id="Path_154" data-name="Path 154" d="M130.4,137.185a4.485,4.485,0,1,1,4.485,4.485A4.337,4.337,0,0,1,130.4,137.185Zm7.543,0a3.173,3.173,0,1,0-6.32,0,3.166,3.166,0,1,0,6.32,0Z" transform="translate(-11.036 -132.598)" fill="#0a4b6f"/>
        <path id="Path_155" data-name="Path 155" d="M141.9,137.185a4.485,4.485,0,1,1,4.485,4.485A4.337,4.337,0,0,1,141.9,137.185Zm7.645,0a3.173,3.173,0,1,0-6.32,0,3.054,3.054,0,0,0,3.16,3.364A3.108,3.108,0,0,0,149.545,137.185Z" transform="translate(-10.814 -132.598)" fill="#0a4b6f"/>
        <path id="Path_156" data-name="Path 156" d="M161.355,138.506v2.956H153.2v-1.019h1.631v-6.524H153.2V132.9h4.587v1.019h-1.631v6.524h3.975v-1.937Z" transform="translate(-10.596 -132.594)" fill="#0a4b6f"/>
      </g>
      <g id="Group_13" data-name="Group 13" transform="translate(0 70.755)">
        <path id="Path_157" data-name="Path 157" d="M51.425,112.966v4.077H36.237v-4.077h4.995l-9.989-12.13L24,107.258v5.606h5.81v4.077H13.2v-4.077h6.116V87.177H13.2V83.1H30.019v4.077h-5.81v15.392L41.334,87.177H35.727V83.1H50.711v4.077H46.736L34.708,97.88l12.64,15.086Z" transform="translate(-13.2 -82.285)" fill="#0a4b6f"/>
        <path id="Path_158" data-name="Path 158" d="M81.361,97.473H77.895l-9.378,22.018c-2.548,6.014-5.708,9.174-10.193,9.174a10.629,10.629,0,0,1-6.524-2.446l1.835-3.67a7.775,7.775,0,0,0,4.689,1.835c2.65,0,4.791-1.631,6.422-5.708l.306-.815-9.48-20.387H51.9V93.6H64.338v3.568H60.566l6.728,15.7,6.524-15.7h-3.67V93.6H81.361Z" transform="translate(-12.454 -82.082)" fill="#0a4b6f"/>
        <path id="Path_159" data-name="Path 159" d="M98.378,113.186v3.873H83.7v-3.873h4.995V97.692H83.7V93.818h9.582v19.469h5.1ZM86.86,85.46c0-1.835,1.529-3.16,3.67-3.16s3.67,1.325,3.67,3.16c0,1.733-1.529,2.956-3.67,2.956S86.86,87.193,86.86,85.46Z" transform="translate(-11.837 -82.3)" fill="#0a4b6f"/>
        <path id="Path_160" data-name="Path 160" d="M115.678,113.17v3.873H101V113.17h4.995v-26.2H101V83.1h9.582v30.07Z" transform="translate(-11.503 -82.285)" fill="#0a4b6f"/>
        <path id="Path_161" data-name="Path 161" d="M132.878,113.17v3.873H118.2V113.17h4.995v-26.2H118.2V83.1h9.582v30.07Z" transform="translate(-11.17 -82.285)" fill="#0a4b6f"/>
        <path id="Path_162" data-name="Path 162" d="M161.881,116.341a7.181,7.181,0,0,1-3.67,1.019c-2.243,0-3.975-1.427-4.587-4.077-2.956,2.752-6.116,4.383-9.378,4.383-4.179,0-7.849-2.548-7.747-7.441,0-4.893,4.485-7.645,9.378-7.645a17.154,17.154,0,0,1,7.543,1.631V102.07c0-3.67-2.65-4.893-5.81-4.893a24.486,24.486,0,0,0-8.868,2.141l-.917-3.772a25.432,25.432,0,0,1,10.4-2.446c6.014,0,9.582,3.16,9.582,9.174v8.562c0,1.733.612,2.446,1.631,2.446a2.638,2.638,0,0,0,1.427-.408Zm-16.411-2.752c2.039,0,4.995-1.121,7.951-3.568v-2.65a21.055,21.055,0,0,0-6.829-1.325c-2.854,0-5.606,1.325-5.606,3.873C141.087,112.365,143.126,113.589,145.47,113.589Z" transform="translate(-10.816 -82.091)" fill="#0a4b6f"/>
      </g>
    </g>
    <g id="Group_15" data-name="Group 15" transform="translate(22.833 144.758)">
      <path id="Path_163" data-name="Path 163" d="M36.925,157.2a.994.994,0,0,1,.917.408,1.478,1.478,0,0,1,0,2.039,1.245,1.245,0,0,1-.917.408.994.994,0,0,1-.917-.408,1.478,1.478,0,0,1,0-2.039A1.832,1.832,0,0,1,36.925,157.2Z" transform="translate(-35.6 -154.856)" fill="#0a4b6f"/>
      <path id="Path_164" data-name="Path 164" d="M47.919,158.05l2.548-2.65h1.325l-2.956,3.058,2.956,3.67H50.468l-2.344-2.956-.2.2v2.752H46.9V155.4h1.019Z" transform="translate(-35.382 -154.89)" fill="#0a4b6f"/>
      <path id="Path_165" data-name="Path 165" d="M58.187,160.5H55.333l-.714,1.631H53.6L56.862,155l3.16,7.135H58.9Zm-.408-1.019-1.019-2.243-1.019,2.243Z" transform="translate(-35.252 -154.898)" fill="#0a4b6f"/>
      <path id="Path_166" data-name="Path 166" d="M63.748,156.317v5.708H62.729v-5.708H61.2V155.4h3.975v.917Z" transform="translate(-35.105 -154.89)" fill="#0a4b6f"/>
      <path id="Path_167" data-name="Path 167" d="M71.287,160.5H68.433l-.714,1.631H66.7L69.962,155l3.16,7.135H72Zm-.408-1.019-1.019-2.243-1.019,2.243Z" transform="translate(-34.999 -154.898)" fill="#0a4b6f"/>
      <path id="Path_168" data-name="Path 168" d="M79.8,162.028V155.3h1.325a5.522,5.522,0,0,1,1.529.2,1.938,1.938,0,0,1,1.121.714,3.445,3.445,0,0,1,0,4.893,2.43,2.43,0,0,1-1.121.612,6.17,6.17,0,0,1-1.529.2H79.8Zm1.019-.917h.408a3.822,3.822,0,0,0,1.121-.1,3.577,3.577,0,0,0,.815-.51,2.1,2.1,0,0,0,.714-1.733,2.456,2.456,0,0,0-.714-1.835,2.76,2.76,0,0,0-1.937-.612h-.408Z" transform="translate(-34.746 -154.892)" fill="#0a4b6f"/>
      <path id="Path_169" data-name="Path 169" d="M89.456,155.4v4.281a3.17,3.17,0,0,1-.1,1.121,1.879,1.879,0,0,1-1.733,1.325,2.055,2.055,0,0,1-1.121-.306l.51-.815a.97.97,0,0,0,.714.2.616.616,0,0,0,.612-.306,2.928,2.928,0,0,0,.2-1.223V155.4Z" transform="translate(-34.616 -154.89)" fill="#0a4b6f"/>
      <path id="Path_170" data-name="Path 170" d="M93.619,155.4v6.728H92.6V155.4Z" transform="translate(-34.498 -154.89)" fill="#0a4b6f"/>
      <path id="Path_171" data-name="Path 171" d="M96.9,162.035V154.9l4.791,5.1v-4.689h1.019v7.135l-4.791-5.1v4.689Z" transform="translate(-34.415 -154.9)" fill="#0a4b6f"/>
      <path id="Path_172" data-name="Path 172" d="M106.815,155.4v4.077a1.771,1.771,0,0,0,.306,1.223,1.279,1.279,0,0,0,1.121.612,1.171,1.171,0,0,0,1.121-.612,2.174,2.174,0,0,0,.306-1.223V155.4h1.019v4.281a2.273,2.273,0,0,1-2.344,2.446,2.1,2.1,0,0,1-1.733-.714,2.4,2.4,0,0,1-.612-1.733V155.4Z" transform="translate(-34.239 -154.89)" fill="#0a4b6f"/>
      <path id="Path_173" data-name="Path 173" d="M113.8,162.035V154.9l4.791,5.1v-4.689h1.019v7.135l-4.791-5.1v4.689Z" transform="translate(-34.088 -154.9)" fill="#0a4b6f"/>
      <path id="Path_174" data-name="Path 174" d="M126.172,158.564h2.752v.2a5.165,5.165,0,0,1-.2,1.325,2.115,2.115,0,0,1-.612,1.019,3.206,3.206,0,0,1-4.689,0,3.761,3.761,0,0,1-1.019-2.446,3.022,3.022,0,0,1,1.019-2.446,3.162,3.162,0,0,1,2.446-1.019,3.256,3.256,0,0,1,1.427.306,3.611,3.611,0,0,1,1.223,1.019l-.714.714a2.447,2.447,0,0,0-1.937-1.121,2.1,2.1,0,0,0-1.733.714,2.456,2.456,0,0,0-.714,1.835,2.553,2.553,0,0,0,.815,1.835,2.625,2.625,0,0,0,1.631.714,2.147,2.147,0,0,0,1.325-.51,1.453,1.453,0,0,0,.612-1.223h-1.631v-.917Z" transform="translate(-33.922 -154.894)" fill="#0a4b6f"/>
      <path id="Path_175" data-name="Path 175" d="M138.525,157.2a.994.994,0,0,1,.917.408,1.478,1.478,0,0,1,0,2.039,1.245,1.245,0,0,1-.917.408.994.994,0,0,1-.917-.408,1.478,1.478,0,0,1,0-2.039A1.292,1.292,0,0,1,138.525,157.2Z" transform="translate(-33.636 -154.856)" fill="#0a4b6f"/>
    </g>
    <g id="Group_16" data-name="Group 16" transform="translate(22.731 157.296)">
      <path id="Path_176" data-name="Path 176" d="M37.233,168.214v4.077h-.714v-4.077H35.5V167.5h2.752v.714Z" transform="translate(-35.5 -167.194)" fill="#0a4b6f"/>
      <path id="Path_177" data-name="Path 177" d="M39.2,169.946a2.236,2.236,0,0,1,.714-1.733,2.171,2.171,0,0,1,1.631-.714,2.028,2.028,0,0,1,1.631.714,2.66,2.66,0,0,1,.714,1.733,2.236,2.236,0,0,1-.714,1.733,2.171,2.171,0,0,1-1.631.714,2.075,2.075,0,0,1-1.529-.612A2.552,2.552,0,0,1,39.2,169.946Zm.714,0a2.147,2.147,0,0,0,.51,1.325,1.637,1.637,0,0,0,1.121.51,1.74,1.74,0,0,0,1.733-1.733,1.74,1.74,0,0,0-1.733-1.733,1.881,1.881,0,0,0-1.223.51A1.63,1.63,0,0,0,39.914,169.946Z" transform="translate(-35.428 -167.194)" fill="#0a4b6f"/>
      <path id="Path_178" data-name="Path 178" d="M50.654,168.219l-.51.306a1.407,1.407,0,0,0-.306-.408c-.1-.1-.2-.1-.408-.1s-.306.1-.51.2a.53.53,0,0,0-.2.408c0,.2.2.408.51.51l.408.2a1.728,1.728,0,0,1,.815.612,1.1,1.1,0,0,1,.2.815,1.533,1.533,0,0,1-.408,1.121,1.309,1.309,0,0,1-1.019.408.994.994,0,0,1-.917-.408,2.39,2.39,0,0,1-.51-1.019l.714-.2a.862.862,0,0,0,.2.612.616.616,0,0,0,.612.306.779.779,0,0,0,.51-.2.862.862,0,0,0,.2-.612v-.2c0-.1-.1-.1-.1-.2l-.2-.2c-.1-.1-.2-.1-.306-.2l-.408-.2a1.378,1.378,0,0,1-.917-1.223,1.245,1.245,0,0,1,.408-.917,1.832,1.832,0,0,1,.917-.408A3,3,0,0,1,50.654,168.219Z" transform="translate(-35.262 -167.2)" fill="#0a4b6f"/>
      <path id="Path_179" data-name="Path 179" d="M54.746,168.21H52.912v1.121h1.733v.714H52.912v1.631h1.835v.714H52.3V167.7h2.446Z" transform="translate(-35.175 -167.19)" fill="#0a4b6f"/>
      <path id="Path_180" data-name="Path 180" d="M58.846,168.21H57.012v1.121h1.733v.714H57.012v1.631h1.835v.714H56.4V167.7h2.446Z" transform="translate(-35.096 -167.19)" fill="#0a4b6f"/>
      <path id="Path_181" data-name="Path 181" d="M65.76,171.173H63.823l-.51,1.121H62.6l2.243-4.995,2.141,4.995H66.27Zm-.306-.714-.612-1.631-.714,1.631Z" transform="translate(-34.976 -167.198)" fill="#0a4b6f"/>
      <path id="Path_182" data-name="Path 182" d="M68.2,172.3v-5.1l3.262,3.568v-3.262h.714V172.5l-3.262-3.568v3.262H68.2Z" transform="translate(-34.868 -167.2)" fill="#0a4b6f"/>
      <path id="Path_183" data-name="Path 183" d="M73.9,172.289V167.6h.917a2.84,2.84,0,0,1,1.019.1,1.18,1.18,0,0,1,.714.51,2.461,2.461,0,0,1,0,3.466,3.1,3.1,0,0,1-.714.51,2.841,2.841,0,0,1-1.019.1Zm.714-.714h.306a1.511,1.511,0,0,0,.714-.1,2.228,2.228,0,0,0,.51-.306,1.723,1.723,0,0,0,0-2.446,1.73,1.73,0,0,0-1.325-.408h-.306v3.262Z" transform="translate(-34.758 -167.192)" fill="#0a4b6f"/>
      <path id="Path_184" data-name="Path 184" d="M82.833,168.214v4.077h-.714v-4.077H81.1V167.5h2.752v.714Z" transform="translate(-34.618 -167.194)" fill="#0a4b6f"/>
      <path id="Path_185" data-name="Path 185" d="M84.8,169.946a2.236,2.236,0,0,1,.714-1.733,2.171,2.171,0,0,1,1.631-.714,2.028,2.028,0,0,1,1.631.714,2.66,2.66,0,0,1,.714,1.733,2.236,2.236,0,0,1-.714,1.733,2.171,2.171,0,0,1-1.631.714,2.074,2.074,0,0,1-1.529-.612A2.552,2.552,0,0,1,84.8,169.946Zm.714,0a2.147,2.147,0,0,0,.51,1.325,1.637,1.637,0,0,0,1.121.51,1.74,1.74,0,0,0,1.733-1.733,1.74,1.74,0,0,0-1.733-1.733,1.881,1.881,0,0,0-1.223.51A1.63,1.63,0,0,0,85.514,169.946Z" transform="translate(-34.547 -167.194)" fill="#0a4b6f"/>
      <path id="Path_186" data-name="Path 186" d="M94.31,167.6v2.854a2.035,2.035,0,0,0,.2.917.827.827,0,0,0,.815.408.927.927,0,0,0,.815-.408,2.035,2.035,0,0,0,.2-.917V167.6h.714v3.058a1.625,1.625,0,0,1-.408,1.223,1.372,1.372,0,0,1-1.223.51,1.688,1.688,0,0,1-1.223-.51,1.625,1.625,0,0,1-.408-1.223V167.6Z" transform="translate(-34.373 -167.192)" fill="#0a4b6f"/>
      <path id="Path_187" data-name="Path 187" d="M98.8,172.3v-5.1l3.262,3.568v-3.262h.714V172.5l-3.262-3.568v3.262H98.8Z" transform="translate(-34.276 -167.2)" fill="#0a4b6f"/>
      <path id="Path_188" data-name="Path 188" d="M104.5,172.289V167.6h.917a2.84,2.84,0,0,1,1.019.1,1.18,1.18,0,0,1,.714.51,2.461,2.461,0,0,1,0,3.466,3.1,3.1,0,0,1-.714.51,2.841,2.841,0,0,1-1.019.1Zm.714-.714h.306a1.511,1.511,0,0,0,.714-.1,2.227,2.227,0,0,0,.51-.306,1.723,1.723,0,0,0,0-2.446,1.73,1.73,0,0,0-1.325-.408h-.306v3.262Z" transform="translate(-34.166 -167.192)" fill="#0a4b6f"/>
      <path id="Path_189" data-name="Path 189" d="M112.046,168.21h-1.835v1.121h1.733v.714h-1.733v1.631h1.835v.714H109.6V167.7h2.446Z" transform="translate(-34.068 -167.19)" fill="#0a4b6f"/>
      <path id="Path_190" data-name="Path 190" d="M115.129,170.25l1.427,2.039h-.815l-1.325-1.937h-.1v1.937H113.6V167.6h.815a2.313,2.313,0,0,1,1.325.306,1.309,1.309,0,0,1,.408,1.019,1.157,1.157,0,0,1-.306.815C115.639,170.046,115.435,170.25,115.129,170.25Zm-.815-.51h.2c.612,0,.917-.306.917-.815s-.306-.714-.917-.714h-.2Z" transform="translate(-33.99 -167.192)" fill="#0a4b6f"/>
      <path id="Path_191" data-name="Path 191" d="M120.454,168.219l-.51.306a1.407,1.407,0,0,0-.306-.408c-.1-.1-.2-.1-.408-.1s-.306.1-.51.2a.529.529,0,0,0-.2.408c0,.2.2.408.51.51l.408.2a1.728,1.728,0,0,1,.815.612,1.1,1.1,0,0,1,.2.815,1.533,1.533,0,0,1-.408,1.121,1.309,1.309,0,0,1-1.019.408.994.994,0,0,1-.917-.408,2.39,2.39,0,0,1-.51-1.019l.714-.2a.862.862,0,0,0,.2.612.616.616,0,0,0,.612.306.779.779,0,0,0,.51-.2.862.862,0,0,0,.2-.612v-.2c0-.1-.1-.1-.1-.2l-.2-.2c-.1-.1-.2-.1-.306-.2l-.408-.2a1.378,1.378,0,0,1-.917-1.223,1.245,1.245,0,0,1,.408-.917,1.832,1.832,0,0,1,.917-.408A3,3,0,0,1,120.454,168.219Z" transform="translate(-33.913 -167.2)" fill="#0a4b6f"/>
      <path id="Path_192" data-name="Path 192" d="M123.433,168.214v4.077h-.714v-4.077H121.7V167.5h2.752v.714Z" transform="translate(-33.834 -167.194)" fill="#0a4b6f"/>
      <path id="Path_193" data-name="Path 193" d="M128.26,171.173h-1.937l-.51,1.121H125.1l2.243-4.995,2.141,4.995h-.714Zm-.306-.714-.612-1.631-.714,1.631Z" transform="translate(-33.768 -167.198)" fill="#0a4b6f"/>
      <path id="Path_194" data-name="Path 194" d="M130.7,172.3v-5.1l3.262,3.568v-3.262h.714V172.5l-3.262-3.568v3.262H130.7Z" transform="translate(-33.66 -167.2)" fill="#0a4b6f"/>
      <path id="Path_195" data-name="Path 195" d="M136.5,172.289V167.6h.917a2.84,2.84,0,0,1,1.019.1,1.18,1.18,0,0,1,.714.51,2.461,2.461,0,0,1,0,3.466,3.1,3.1,0,0,1-.714.51,2.841,2.841,0,0,1-1.019.1Zm.612-.714h.306a1.511,1.511,0,0,0,.714-.1,2.228,2.228,0,0,0,.51-.306,1.723,1.723,0,0,0,0-2.446,1.73,1.73,0,0,0-1.325-.408h-.306v3.262Z" transform="translate(-33.548 -167.192)" fill="#0a4b6f"/>
    </g>
  </g>
  <rect id="Rectangle_11" data-name="Rectangle 11" width="177.873" height="189.086" fill="none"/>
</svg>
