<svg id="Group_11" data-name="Group 11" xmlns="http://www.w3.org/2000/svg" width="96.296" height="45.829" viewBox="0 0 96.296 45.829">
  <path id="Path_125" data-name="Path 125" d="M104.053,25.607c1.01.926,2.02,1.852,3.03,2.693a8.732,8.732,0,0,0-.337.842l.757.5c.673.421,1.431.842,2.1,1.262a2.558,2.558,0,0,1,.589.421c.926.926,1.936,1.852,2.862,2.777.084.084.168.084.253.168a7.821,7.821,0,0,1-.421.842,35.173,35.173,0,0,1-3.787,5.471,9.569,9.569,0,0,1-1.347,1.262c-.673.5-1.262,1.01-1.936,1.431-.253-.168-.421-.253-.673-.421-1.431-.842-2.777-1.683-4.208-2.525-.084-.084-.168-.084-.252-.168-.5-.589-.926-1.178-1.347-1.767s-.842-1.178-1.262-1.683c-.084-.084-.168-.252-.253-.337a9.785,9.785,0,0,0-1.515.337v1.01a.294.294,0,0,1-.168-.084l-1.262-.757c-.673-.421-1.347-.757-2.1-1.178a28.529,28.529,0,0,0-3.282-1.515,23.3,23.3,0,0,0-3.451-1.01,5.664,5.664,0,0,0-1.683-.084,13.23,13.23,0,0,0-1.936.337h-.168c.253-.337.421-.673.673-1.01-.5-.5-1.01-1.094-1.515-1.6-1.767,1.6-3.7,3.03-5.639,4.545.168.168.252.337.421.5-1.094.589-2.272,1.094-3.367,1.683a4.215,4.215,0,0,0-.589-.673,17.631,17.631,0,0,1-1.178-1.431c-.421-.589-.842-1.262-1.262-1.936a18.28,18.28,0,0,1-1.6-3.451,20.962,20.962,0,0,1-.757-3.114l-.252-2.02a10.258,10.258,0,0,1,0-2.272c0-.168.084-.168.168-.252,1.178-.926,2.272-1.767,3.451-2.693.926-.673,1.767-1.347,2.693-2.02a.71.71,0,0,1,.589-.168,13.579,13.579,0,0,0,1.852,0c.589,0,1.262-.168,1.852-.168.337,0,.673-.084.926-.084.168,0,.253-.084.421-.252.168-.337.421-.673.673-1.094-.926-.252-1.767-.252-2.693-.421a3.659,3.659,0,0,0,.589-.337c.5-.252,1.094-.5,1.6-.757h.252c.337.084.673.084,1.01.168.168.084.337,0,.5-.168a5.445,5.445,0,0,1,.673-.757c-.084-.084-.168-.084-.168-.168a7.955,7.955,0,0,1,6.06,0c-.421.252-.589.337-.757.337a9.412,9.412,0,0,0-3.451,2.525,10.04,10.04,0,0,0-1.767,2.441,4.587,4.587,0,0,0-.421,1.852A11.114,11.114,0,0,0,81.412,23a10.433,10.433,0,0,0,1.6,4.04,10.954,10.954,0,0,0,1.515,1.936A15.789,15.789,0,0,0,88.65,32a9.875,9.875,0,0,0,3.7,1.094,10.487,10.487,0,0,0,3.619-.168,13.187,13.187,0,0,0,3.619-1.262,8.906,8.906,0,0,0,3.956-4.461c.168-.5.337-.926.5-1.431C103.969,25.775,103.969,25.691,104.053,25.607ZM79.476,28.048c-.253.084-.5.253-.757.337-.421.252-.926.421-1.347.673-1.262.757-2.525,1.515-3.872,2.188a1.761,1.761,0,0,0-.5.337,25.658,25.658,0,0,0,1.6,2.525c1.094-.842,2.1-1.683,3.2-2.525a25.058,25.058,0,0,0,2.272-1.936l.168-.168A4.679,4.679,0,0,0,79.476,28.048ZM78.382,25.27c-.421.168-.757.252-1.178.421-.926.337-1.767.673-2.693,1.01-.421.168-.842.337-1.178.5a6.71,6.71,0,0,1-1.347.673c-.168.084-.253.168-.421.252a16.862,16.862,0,0,0,.842,2.188,1.84,1.84,0,0,0,.421-.253c.926-.5,1.936-1.094,2.862-1.6a16.942,16.942,0,0,1,2.1-1.178c.337-.168.673-.421,1.01-.589A9.2,9.2,0,0,0,78.382,25.27Zm-.168-6.565c-.337,0-.673.084-.926.084a16.345,16.345,0,0,1-2.02.168H71.649a16.347,16.347,0,0,0-.589,2.777c2.272-.421,4.545-.757,6.733-1.094C77.961,19.968,78.046,19.379,78.214,18.705Zm-.337,3.367a47.445,47.445,0,0,0-6.9,1.262,15.393,15.393,0,0,0,.168,2.777,4.535,4.535,0,0,0,1.094-.589,5.657,5.657,0,0,1,1.01-.5c.589-.252,1.178-.421,1.683-.589a16.373,16.373,0,0,1,1.852-.673,5.444,5.444,0,0,1,1.094-.337A7.182,7.182,0,0,0,77.877,22.072Zm26.849,17.17c-.5-.5-1.01-1.01-1.431-1.515-.589-.589-1.262-1.178-1.852-1.852-.252-.252-.421-.5-.673-.757-.5.253-1.01.421-1.431.673v.084c.5.757,1.094,1.515,1.6,2.272a18.479,18.479,0,0,1,1.431,2.1c.084.168.168.252.253.421A18.48,18.48,0,0,0,104.726,39.242Zm3.114-3.114c-1.347-1.094-2.609-2.1-3.956-3.2a16.853,16.853,0,0,0-1.347,1.178c1.178,1.347,2.525,2.525,3.787,3.787C106.83,37.306,107.335,36.8,107.84,36.128Zm.757-1.094a15.327,15.327,0,0,0,1.262-2.272,36.958,36.958,0,0,1-3.956-2.272c-.337.5-.757.926-1.094,1.431C106.073,33.014,107.419,33.939,108.6,35.034Z" transform="translate(-35.626 -12.887)" fill="#004972"/>
  <path id="Path_126" data-name="Path 126" d="M88.8,23.344a8.356,8.356,0,0,1,.421-2.525,4.415,4.415,0,0,1,2.862-2.862,9.222,9.222,0,0,1,2.188-.5c.589-.084,1.094-.168,1.683-.252.168,0,.253,0,.337.084,2.02,1.515,4.04,3.03,6.06,4.629.589.5,1.262,1.01,1.852,1.515a.6.6,0,0,1,.252.5,7.974,7.974,0,0,1-.589,2.441,8.147,8.147,0,0,1-1.515,2.609,7.161,7.161,0,0,1-3.872,2.357l-1.515.252h-1.01A6.046,6.046,0,0,1,92.417,30.5a7.681,7.681,0,0,1-1.6-1.683,10.73,10.73,0,0,1-1.262-2.1A6.413,6.413,0,0,1,88.8,23.344Zm7.575-3.282a5.356,5.356,0,0,0-3.2,1.01,3.99,3.99,0,0,0-1.347,1.767,3.858,3.858,0,0,0-.084,1.683A4.945,4.945,0,0,0,98.9,28.057a5.891,5.891,0,0,0,2.441-2.525,2.9,2.9,0,0,0,.337-1.683,3.132,3.132,0,0,0-1.01-2.1A6.115,6.115,0,0,0,96.373,20.062Z" transform="translate(-39.056 -13.57)" fill="#004972"/>
  <path id="Path_127" data-name="Path 127" d="M41.376,59.091l-2.525,2.02-.168-.168A9.185,9.185,0,0,1,36.747,58.5a13.946,13.946,0,0,1-1.178-3.114c-.084-.337-.084-.673-.168-1.01a.506.506,0,0,1,.084-.337c1.262-1.431,2.441-2.862,3.7-4.292.926-1.01,1.852-2.1,2.777-3.114L42.3,46.3a.852.852,0,0,1,.589-.337,8.293,8.293,0,0,0,1.431-.168,12.387,12.387,0,0,1,1.767,0c.757.084,1.6.168,2.357.252a5.84,5.84,0,0,1,2.946,1.515,13.574,13.574,0,0,1,2.02,2.357c0,.084.084.084.084.168-.842.589-1.767,1.094-2.609,1.683,0-.084-.084-.084-.084-.168a10.426,10.426,0,0,0-1.515-1.852,4.948,4.948,0,0,0-2.609-1.178,7.473,7.473,0,0,0-1.936-.084,7.043,7.043,0,0,0-4.208,1.6,6.886,6.886,0,0,0-1.683,2.1,2.592,2.592,0,0,0-.252,1.094,7.214,7.214,0,0,0,.589,3.03,6.486,6.486,0,0,0,1.178,1.767c.252.252.589.5.842.757C41.292,59.007,41.292,59.091,41.376,59.091Z" transform="translate(-30.603 -18.091)" fill="#004972"/>
  <path id="Path_128" data-name="Path 128" d="M61.267,45.485l-3.03,1.767c-.168-.337-.252-.589-.421-.926a11.05,11.05,0,0,0-2.188-3.367,8.639,8.639,0,0,0-5.555-2.946c-.168,0-.337-.084-.589-.084H49.4a5.079,5.079,0,0,1,.673-.673l2.188-2.188.084-.084c.084-.084.168-.084.337-.084a16.627,16.627,0,0,1,3.2,1.683A14.933,14.933,0,0,1,60,43.044c.421.757.842,1.515,1.178,2.272A.261.261,0,0,0,61.267,45.485Z" transform="translate(-32.819 -16.689)" fill="#004972"/>
  <path id="Path_129" data-name="Path 129" d="M138.828,57.188c-.168,0-.337-.084-.505-.084a2.343,2.343,0,0,0-1.936.589,1.823,1.823,0,0,0-.505,1.936,2.15,2.15,0,0,0,1.768,1.683,2.353,2.353,0,0,0,2.188-.589,3.329,3.329,0,0,0,.842-1.262,11.358,11.358,0,0,1,1.262,2.188,3.947,3.947,0,0,1-1.6,1.515,5.179,5.179,0,0,1-1.936.589,3.623,3.623,0,0,1-1.347,0,3.424,3.424,0,0,1-2.1-1.262,6.18,6.18,0,0,1-1.262-2.946,5.948,5.948,0,0,1,.168-2.1,3.064,3.064,0,0,1,2.02-2.272,2.6,2.6,0,0,1,.673-.168.309.309,0,0,1,.252.084A9.624,9.624,0,0,1,138.828,57.188Z" transform="translate(-46.161 -19.555)" fill="#004972"/>
  <path id="Path_130" data-name="Path 130" d="M128.655,46.5c.505.5.926,1.01,1.431,1.515a12.129,12.129,0,0,0-5.134,7.659c-.673-.421-1.263-.926-1.852-1.347A14.86,14.86,0,0,1,128.655,46.5Z" transform="translate(-44.489 -18.209)" fill="#004972"/>
  <path id="Path_131" data-name="Path 131" d="M133.661,51.8c.337.421.673.757,1.01,1.178-.168.084-.252.084-.421.168a5.9,5.9,0,0,0-2.777,2.188,2.916,2.916,0,0,0-.673,1.347v.252a5.951,5.951,0,0,0,1.262,4.208l.084.084v.084a1.162,1.162,0,0,1-.337-.252c-.084-.084-.252-.168-.337-.253-.589-.505-1.262-.926-1.852-1.431a.463.463,0,0,1-.252-.421,7.368,7.368,0,0,1-.168-1.347,4.7,4.7,0,0,1,.842-2.777,9.11,9.11,0,0,1,2.777-2.609A7.824,7.824,0,0,0,133.661,51.8Z" transform="translate(-45.455 -19.049)" fill="#004972"/>
  <path id="Path_132" data-name="Path 132" d="M31.467,60.7a13.756,13.756,0,0,0,3.03,4.713.082.082,0,0,0-.084.084,6.968,6.968,0,0,1-2.272.589,3.731,3.731,0,0,1-1.683-.252A1.159,1.159,0,0,1,29.7,64.74a4.2,4.2,0,0,1,.421-1.767,16.941,16.941,0,0,1,1.178-2.1C31.383,60.868,31.383,60.784,31.467,60.7Z" transform="translate(-29.7 -20.458)" fill="#004972"/>
  <path id="Path_133" data-name="Path 133" d="M50.591,53.979a7.021,7.021,0,0,1-1.01.673,5.662,5.662,0,0,0-.926-.589,3.4,3.4,0,0,0-2.693-.421,2.429,2.429,0,0,0-1.6,1.094,1.578,1.578,0,0,0-.337,1.347,3.25,3.25,0,0,0,.673,1.683c.084.084.168.252.337.337-.337.252-.589.5-.926.757a3.493,3.493,0,0,1-.589-1.094,4.647,4.647,0,0,1-.252-3.2,2.691,2.691,0,0,1,1.852-1.936A11.918,11.918,0,0,1,46.8,52.3a5.343,5.343,0,0,1,2.272.337A3.909,3.909,0,0,1,50.591,53.979Z" transform="translate(-31.822 -19.124)" fill="#004972"/>
  <path id="Path_134" data-name="Path 134" d="M64.166,38.485a1.684,1.684,0,0,1-1.6-1.094,2.879,2.879,0,0,1-.084-1.683,1.544,1.544,0,0,1,1.683-1.01h.168a1.266,1.266,0,0,1,1.178.842,2.33,2.33,0,0,1,.253,1.094,1.885,1.885,0,0,1-.5,1.431A1.16,1.16,0,0,1,64.166,38.485Z" transform="translate(-34.876 -16.339)" fill="#004972"/>
  <path id="Path_135" data-name="Path 135" d="M124.119,46.27a2.2,2.2,0,0,1-.758,1.515,1.713,1.713,0,0,1-1.262.5,1.394,1.394,0,0,1-1.01-.421,4.533,4.533,0,0,1-.589-1.094v-.5a2.313,2.313,0,0,1,1.6-1.683,1.442,1.442,0,0,1,1.852.926C124.035,45.765,124.035,46.017,124.119,46.27Z" transform="translate(-44.077 -17.895)" fill="#004972"/>
  <path id="Path_136" data-name="Path 136" d="M64.452,30.34a1.7,1.7,0,0,1-.757,1.515,1.136,1.136,0,0,1-1.347,0,1.759,1.759,0,0,1-.757-1.936,1.265,1.265,0,0,1,1.094-.926,1.449,1.449,0,0,1,1.01.168A1.23,1.23,0,0,1,64.452,30.34Z" transform="translate(-34.742 -15.432)" fill="#004972"/>
  <path id="Path_137" data-name="Path 137" d="M65.8,41.915c.084-.252.084-.5.168-.757a.914.914,0,0,1,1.01-.757,2.286,2.286,0,0,1,1.431.5,1.316,1.316,0,0,1-.084,2.02c-.168.084-.337.252-.5.337a.765.765,0,0,1-.842,0l-.757-.5C65.8,42.588,65.8,42.252,65.8,41.915Z" transform="translate(-35.416 -17.243)" fill="#004972"/>
  <path id="Path_138" data-name="Path 138" d="M119.23,50.378a1.857,1.857,0,0,1-.842,1.683c-.084.084-.168.084-.337,0-.589-.337-1.094-.757-1.683-1.094a.437.437,0,0,1-.168-.337,1.54,1.54,0,0,1,1.515-1.431,2.99,2.99,0,0,1,.842.168A1.3,1.3,0,0,1,119.23,50.378Z" transform="translate(-43.397 -18.637)" fill="#004972"/>
  <path id="Path_139" data-name="Path 139" d="M137.4,65.762a6.5,6.5,0,0,0,5.555-1.262,1.66,1.66,0,0,1-.758,2.1,2.592,2.592,0,0,1-1.6.253,10.384,10.384,0,0,1-3.114-1.01Z" transform="translate(-46.753 -21.059)" fill="#004972"/>
  <path id="Path_140" data-name="Path 140" d="M138.647,58.7c.168,0,.337.084.5.084a1,1,0,0,1,.589,1.515,1.67,1.67,0,0,1-1.347.842.98.98,0,0,1-1.094-.926,1.517,1.517,0,0,1,.757-1.347A5.369,5.369,0,0,0,138.647,58.7Z" transform="translate(-46.738 -20.141)" fill="#004972"/>
  <path id="Path_141" data-name="Path 141" d="M46.017,58.193a1.389,1.389,0,0,1-.421-1.262A1.627,1.627,0,0,1,47.2,55.5a1.689,1.689,0,0,1,1.431.589.294.294,0,0,1,.084.168C47.784,56.847,46.943,57.52,46.017,58.193Z" transform="translate(-32.214 -19.634)" fill="#004972"/>
  <path id="Path_142" data-name="Path 142" d="M125.794,42.42a2.071,2.071,0,0,1-.926.337.956.956,0,0,1-.673-.252,2.051,2.051,0,0,1-.5-1.852c0-.084.084-.168.084-.252C124.532,41.073,125.121,41.747,125.794,42.42Z" transform="translate(-44.574 -17.243)" fill="#004972"/>
  <path id="Path_143" data-name="Path 143" d="M95.1,25.906a2.765,2.765,0,0,1,1.431-2.357,2.639,2.639,0,0,1,2.609.168,1.819,1.819,0,0,1,.842,1.852,2.411,2.411,0,0,1-.926,1.6,2.809,2.809,0,0,1-1.936.757A1.944,1.944,0,0,1,95.1,25.906Z" transform="translate(-40.055 -14.533)" fill="#004972"/>
</svg>
