<svg id="Group_37" data-name="Group 37" xmlns="http://www.w3.org/2000/svg" width="82.956" height="33.138" viewBox="0 0 82.956 33.138">
  <g id="Group_35" data-name="Group 35" transform="translate(0.168 28.195)">
    <path id="Path_366" data-name="Path 366" d="M18.249,66.057c0,.955-.73,1.516-1.853,1.516H15.273v1.179h.955v.562H13.7v-.562h.9V65.159h-.9V64.6h2.7C17.463,64.541,18.249,65.1,18.249,66.057Zm-.73,0c0-.674-.562-.9-1.179-.9H15.273v1.853H16.34C16.958,66.956,17.519,66.787,17.519,66.057Z" transform="translate(-13.7 -64.485)" fill="#004972"/>
    <path id="Path_367" data-name="Path 367" d="M29.255,69.262a1.991,1.991,0,0,1-.618.168c-.618,0-1.123-.337-1.516-1.348l-.281-.73H25.773v1.4h.9v.562H24.2v-.562h.9V65.162h-.9V64.6h2.752c1.067,0,1.741.562,1.741,1.348a1.29,1.29,0,0,1-1.236,1.292l.281.618c.281.73.618.9.955.9.168,0,.281-.056.393-.056ZM25.773,66.79h1.179a.91.91,0,0,0,1.011-.842c0-.505-.449-.786-1.011-.786H25.773Z" transform="translate(-18.303 -64.488)" fill="#004972"/>
    <path id="Path_368" data-name="Path 368" d="M36.829,65.162v3.595h.9v.562H35.2v-.562h.9V65.162h-.9V64.6h2.527v.562Z" transform="translate(-23.124 -64.488)" fill="#004972"/>
    <path id="Path_369" data-name="Path 369" d="M49.277,68.756v.562H46.862v-.562H47.7v-2.3c0-.225.056-.562.056-.842l-1.91,3.819h-.337L43.66,65.611a4.541,4.541,0,0,1,.056.842v2.3h.842v.562H42.2v-.562h.9V65.162h-.9V64.6h1.685l1.91,3.819L47.648,64.6h1.685v.562h-.9v3.595Z" transform="translate(-26.193 -64.488)" fill="#004972"/>
    <path id="Path_370" data-name="Path 370" d="M62.541,68.756v.562H60.295v-.562h.786l-.449-1.123H58.553L58.1,68.756h.842v.562H56.7v-.562h.73L59,65.162h-.73V64.6h2.7v.562h-.73l1.573,3.595Zm-2.134-1.629-.786-1.966h-.056l-.786,1.966Z" transform="translate(-32.549 -64.488)" fill="#004972"/>
    <path id="Path_371" data-name="Path 371" d="M74.111,69.262a1.991,1.991,0,0,1-.618.168c-.618,0-1.123-.337-1.516-1.348l-.281-.73H70.629v1.4h.9v.562H69v-.562h.9V65.162H69V64.6h2.752c1.067,0,1.741.562,1.741,1.348a1.29,1.29,0,0,1-1.236,1.292l.281.618c.281.73.618.9.955.9.168,0,.281-.056.393-.056ZM70.629,66.79h1.179a.91.91,0,0,0,1.011-.842c0-.505-.449-.786-1.011-.786H70.629Z" transform="translate(-37.941 -64.488)" fill="#004972"/>
    <path id="Path_372" data-name="Path 372" d="M82.533,67.464v1.292h.9v.562H80.9v-.562h.955V67.521l-1.685-2.359H79.5V64.6h2.19v.562h-.674l1.292,1.853L83.6,65.162h-.786V64.6H85v.562H84.33Z" transform="translate(-42.543 -64.488)" fill="#004972"/>
    <path id="Path_373" data-name="Path 373" d="M100.632,68.051c0,.786-.674,1.236-1.573,1.236a2.518,2.518,0,0,1-1.741-.786v.73H96.7V67.6h.393a2.426,2.426,0,0,0,1.966,1.123c.505,0,.9-.225.9-.618s-.393-.674-1.516-.955c-1.179-.281-1.685-.786-1.685-1.516,0-.786.674-1.236,1.516-1.236a1.915,1.915,0,0,1,1.573.73v-.618h.618v1.573h-.393a1.851,1.851,0,0,0-1.629-1.123c-.562,0-.955.225-.955.674s.393.674,1.348.955C99.9,66.871,100.632,67.264,100.632,68.051Z" transform="translate(-50.083 -64.4)" fill="#004972"/>
    <path id="Path_374" data-name="Path 374" d="M111.049,68.219a2.367,2.367,0,0,1-2.078,1.123,2.422,2.422,0,0,1-2.471-2.471,2.321,2.321,0,0,1,2.3-2.471,1.936,1.936,0,0,1,1.516.674v-.562h.618v1.573l-.449.056a1.73,1.73,0,0,0-1.629-1.123,1.752,1.752,0,0,0-1.685,1.91,1.712,1.712,0,0,0,1.741,1.853,1.867,1.867,0,0,0,1.629-.9Z" transform="translate(-54.379 -64.4)" fill="#004972"/>
    <path id="Path_375" data-name="Path 375" d="M122.111,65.162v3.595h.9v.562h-2.471v-.562h.9V67.184h-2.752v1.573h.9v.562H117v-.562h.9V65.162H117V64.6h2.471v.562h-.9v1.516h2.752V65.162h-.9V64.6H122.9v.562Z" transform="translate(-58.981 -64.488)" fill="#004972"/>
    <path id="Path_376" data-name="Path 376" d="M130.2,66.871a2.471,2.471,0,1,1,2.471,2.471A2.39,2.39,0,0,1,130.2,66.871Zm4.212,0a1.712,1.712,0,0,0-1.741-1.853,1.743,1.743,0,0,0-1.741,1.853,1.683,1.683,0,0,0,1.741,1.853A1.743,1.743,0,0,0,134.412,66.871Z" transform="translate(-64.767 -64.4)" fill="#004972"/>
    <path id="Path_377" data-name="Path 377" d="M141.7,66.871a2.471,2.471,0,1,1,2.471,2.471A2.39,2.39,0,0,1,141.7,66.871Zm4.212,0a1.712,1.712,0,0,0-1.741-1.853,1.743,1.743,0,0,0-1.741,1.853,1.683,1.683,0,0,0,1.741,1.853A1.743,1.743,0,0,0,145.912,66.871Z" transform="translate(-69.808 -64.4)" fill="#004972"/>
    <path id="Path_378" data-name="Path 378" d="M157.493,67.689v1.629H153v-.562h.9V65.162H153V64.6h2.471v.562h-.9v3.595h2.19V67.689Z" transform="translate(-74.762 -64.488)" fill="#004972"/>
  </g>
  <g id="Group_36" data-name="Group 36">
    <path id="Path_379" data-name="Path 379" d="M34.462,31.4v2.247H26.093V31.4h2.7l-5.448-6.628L19.41,28.311V31.4h3.2v2.247H13.4V31.4h3.314V17.247H13.4V15h9.211v2.247h-3.2v8.425l9.436-8.425H25.756V15h8.312v2.247h-2.19l-6.628,5.841,6.965,8.256h2.247Z" transform="translate(-13.4 -14.551)" fill="#004972"/>
    <path id="Path_380" data-name="Path 380" d="M68.132,27.49h-1.91L61.111,39.566c-1.4,3.314-3.145,5.055-5.617,5.055A5.857,5.857,0,0,1,51.9,43.273l1.011-2.022a4.284,4.284,0,0,0,2.584,1.011c1.46,0,2.64-.9,3.538-3.145l.168-.449L53.978,27.434H51.956V25.3h6.852v1.966H56.73l3.651,8.649,3.595-8.593H62.01V25.356h6.178V27.49Z" transform="translate(-30.276 -19.066)" fill="#004972"/>
    <path id="Path_381" data-name="Path 381" d="M91.788,31.162V33.3H83.7V31.162h2.752V22.625H83.7V20.491h5.28V31.162ZM85.441,15.941A1.81,1.81,0,0,1,87.407,14.2a1.829,1.829,0,0,1,2.022,1.741,1.819,1.819,0,0,1-2.022,1.629C86.284,17.514,85.441,16.84,85.441,15.941Z" transform="translate(-44.216 -14.2)" fill="#004972"/>
    <path id="Path_382" data-name="Path 382" d="M108.988,31.513v2.134H100.9V31.513h2.7V17.134h-2.7V15h5.223V31.513Z" transform="translate(-51.755 -14.551)" fill="#004972"/>
    <path id="Path_383" data-name="Path 383" d="M126.188,31.513v2.134H118.1V31.513h2.7V17.134h-2.7V15h5.223V31.513Z" transform="translate(-59.295 -14.551)" fill="#004972"/>
    <path id="Path_384" data-name="Path 384" d="M150.273,37.606a3.9,3.9,0,0,1-1.966.562,2.567,2.567,0,0,1-2.527-2.247,7.735,7.735,0,0,1-5.111,2.415,3.961,3.961,0,0,1-4.269-4.1c0-2.7,2.471-4.212,5.111-4.212a9.634,9.634,0,0,1,4.156.9V29.743c0-1.966-1.46-2.7-3.2-2.7a13.491,13.491,0,0,0-4.886,1.179l-.505-2.078a13.971,13.971,0,0,1,5.673-1.348c3.258,0,5.28,1.741,5.28,5.055v4.718c0,.955.337,1.348.9,1.348a1.453,1.453,0,0,0,.786-.225Zm-8.986-1.516a7.914,7.914,0,0,0,4.381-1.91v-1.46a11.305,11.305,0,0,0-3.707-.73c-1.573,0-3.033.73-3.033,2.134C138.871,35.471,139.995,36.089,141.286,36.089Z" transform="translate(-67.317 -18.846)" fill="#004972"/>
  </g>
</svg>
