<svg xmlns="http://www.w3.org/2000/svg" width="123.95" height="95.156" viewBox="0 0 123.95 95.156">
  <g id="Group_108" data-name="Group 108" transform="translate(984.724 1398.247) rotate(180)">
    <path id="Path_436" data-name="Path 436" d="M3.415,0C1.32.43-.029,1.7,0,3.661c.039,2.513.774,3.6,2.978,4.118a5.254,5.254,0,0,0,3.276-.118A3.616,3.616,0,0,0,8.7,4.431,3.974,3.974,0,0,0,6.3.572,20.41,20.41,0,0,0,3.415,0Z" transform="matrix(-0.259, -0.966, 0.966, -0.259, 863.025, 1378.832)" fill="#34945c"/>
    <path id="Path_437" data-name="Path 437" d="M4.412,8.534a4.941,4.941,0,0,0,3.874-5.29A4.209,4.209,0,0,0,3.787.03C1.7.316-.278,3.19.032,5.476A3.677,3.677,0,0,0,4.412,8.534Z" transform="matrix(-0.259, -0.966, 0.966, -0.259, 961.933, 1317.606)" fill="#003a60"/>
    <path id="Path_438" data-name="Path 438" d="M.034,3.632A3.367,3.367,0,0,0,3.806,6.819,3.76,3.76,0,0,0,7.092,2.914C6.844,1.156,4.783-.222,2.774.03A3.032,3.032,0,0,0,.034,3.632Z" transform="matrix(-0.259, -0.966, 0.966, -0.259, 865.926, 1389.848)" fill="#e4c24a"/>
    <path id="Path_439" data-name="Path 439" d="M.035,4.033A3.109,3.109,0,0,0,3.473,7.012,4.014,4.014,0,0,0,6.94,2.838,3.681,3.681,0,0,0,2.855.033,3.421,3.421,0,0,0,.035,4.033Z" transform="matrix(-0.259, -0.966, 0.966, -0.259, 951.037, 1312.591)" fill="#e4c24a"/>
    <path id="Path_440" data-name="Path 440" d="M3.635,6.573a3.707,3.707,0,0,0,3.3-4.395C6.71.822,4.7-.233,2.879.045S-.317,1.907.064,3.532C.564,5.671,1.748,6.922,3.635,6.573Z" transform="matrix(-0.259, -0.966, 0.966, -0.259, 971.725, 1324.297)" fill="#276ba4"/>
    <path id="Path_441" data-name="Path 441" d="M.036,3.252c.3,2.25,1.994,3.77,3.927,3.528A3.831,3.831,0,0,0,6.9,2.96,3.806,3.806,0,0,0,3.1.022C.784.361-.209,1.409.036,3.252Z" transform="matrix(-0.259, -0.966, 0.966, -0.259, 865.376, 1366.245)" fill="#59b7cc"/>
    <path id="Path_442" data-name="Path 442" d="M5.461,2.433C5.176.666,4.123-.195,2.534.037A2.833,2.833,0,0,0,.029,3.008,3.207,3.207,0,0,0,3.343,5.653,3.02,3.02,0,0,0,5.461,2.433Z" transform="matrix(-0.259, -0.966, 0.966, -0.259, 870.335, 1356.534)" fill="#003a60"/>
    <path id="Path_443" data-name="Path 443" d="M5.572,2.244a2.444,2.444,0,0,0-3-2.213C.963.235-.134,1.344.013,2.619A3.293,3.293,0,0,0,3.432,5.483,2.774,2.774,0,0,0,5.572,2.244Z" transform="matrix(-0.259, -0.966, 0.966, -0.259, 979.413, 1332.803)" fill="#59b7cc"/>
    <path id="Path_444" data-name="Path 444" d="M.025,3.076c.082,1.753,1.684,2.277,3,2.242,1.184-.033,2.165-1.543,2.019-2.942A2.658,2.658,0,0,0,2.1.019,2.577,2.577,0,0,0,.025,3.076Z" transform="matrix(-0.259, -0.966, 0.966, -0.259, 941.341, 1310.21)" fill="#59b7cc"/>
    <path id="Path_445" data-name="Path 445" d="M5.137,2.343C4.869.549,4.005-.178,2.4.036A2.678,2.678,0,0,0,.027,3.065a2.309,2.309,0,0,0,2.783,2.1A2.556,2.556,0,0,0,5.137,2.343Z" transform="matrix(-0.259, -0.966, 0.966, -0.259, 870.617, 1398.247)" fill="#34945c"/>
    <path id="Path_448" data-name="Path 448" d="M.025,2.258A2.565,2.565,0,0,0,2.753,4.706,2.658,2.658,0,0,0,4.788,2.055,2.64,2.64,0,0,0,2.153.016C.544.25-.146.978.025,2.258Z" transform="matrix(-0.259, -0.966, 0.966, -0.259, 874.406, 1347.148)" fill="#e4c24a"/>
    <path id="Path_449" data-name="Path 449" d="M.1,1.43A2.565,2.565,0,0,0,1.733,4.712,2.66,2.66,0,0,0,4.607,3,2.643,2.643,0,0,0,2.911.133C1.329-.244.42.177.1,1.43Z" transform="matrix(-0.259, -0.966, 0.966, -0.259, 878.633, 1338.595)" fill="#c22238"/>
    <path id="Path_450" data-name="Path 450" d="M1.208.454a2.565,2.565,0,0,0-.76,3.584,2.659,2.659,0,0,0,3.315.441,2.643,2.643,0,0,0,.451-3.3C3.206-.1,2.232-.334,1.208.454Z" transform="matrix(-0.259, -0.966, 0.966, -0.259, 882.537, 1330.526)" fill="#0a4b6f"/>
    <path id="Path_451" data-name="Path 451" d="M4.644,1.711A2.565,2.565,0,0,0,1.3.205,2.658,2.658,0,0,0,.167,3.349,2.642,2.642,0,0,0,3.3,4.493C4.758,3.781,5.194,2.88,4.644,1.711Z" transform="matrix(-0.259, -0.966, 0.966, -0.259, 889.129, 1322.798)" fill="#34945c"/>
    <path id="Path_452" data-name="Path 452" d="M4.775,2.374A2.566,2.566,0,0,1,1.93,4.683a2.661,2.661,0,0,1-1.9-2.749A2.641,2.641,0,0,1,2.761.029C4.357.343,5.01,1.1,4.775,2.374Z" transform="matrix(-0.259, -0.966, 0.966, -0.259, 897.063, 1316.213)" fill="#e4c24a"/>
    <path id="Path_453" data-name="Path 453" d="M3.7,4.287A2.565,2.565,0,0,1,.164,3.307,2.661,2.661,0,0,1,1.3.163,2.643,2.643,0,0,1,4.44,1.286C5.108,2.769,4.865,3.742,3.7,4.287Z" transform="matrix(-0.259, -0.966, 0.966, -0.259, 907.022, 1311.411)" fill="#c22238"/>
    <path id="Path_454" data-name="Path 454" d="M3.19.055A2.565,2.565,0,0,0,.026,1.9a2.659,2.659,0,0,0,1.9,2.749A2.643,2.643,0,0,0,4.676,2.766C4.943,1.162,4.461.284,3.19.055Z" transform="matrix(-0.259, -0.966, 0.966, -0.259, 917.822, 1309.236)" fill="#276ba4"/>
    <path id="Path_455" data-name="Path 455" d="M1.851,4.689a2.564,2.564,0,0,1-1.7-3.248A2.656,2.656,0,0,1,3.228.125,2.639,2.639,0,0,1,4.55,3.183C3.925,4.683,3.049,5.17,1.851,4.689Z" transform="matrix(-0.259, -0.966, 0.966, -0.259, 929.356, 1308.867)" fill="#34945c"/>
  </g>
</svg>
