<svg xmlns="http://www.w3.org/2000/svg" width="152.313" height="152.313" viewBox="0 0 152.313 152.313">
  <g id="Group_208" data-name="Group 208" transform="translate(-554 -737.754)">
    <circle id="Ellipse_7" data-name="Ellipse 7" cx="76.156" cy="76.156" r="76.156" transform="translate(554 737.754)" fill="#59b7cc"/>
    <g id="Group_155" data-name="Group 155" transform="translate(570.807 753.987)">
      <path id="Path_678" data-name="Path 678" d="M204.825,583.13c1.655,1.315,3.478.58,4.58-.027l1.287-.7a2.631,2.631,0,0,1,3.145-.087,2.262,2.262,0,0,1,.405,3.288,2.227,2.227,0,0,1-1.8.914,3.052,3.052,0,0,1-1.771-.656l-.964,1.958a4.555,4.555,0,0,0,2.883.783,4.112,4.112,0,0,0,3.17-1.716,4.337,4.337,0,0,0-.711-6.361c-1.254-1-2.858-1.359-5.3.019l-1.325.749c-1.285.734-1.954.391-2.284.129a1.746,1.746,0,0,1-.087-2.607,2.182,2.182,0,0,1,2.429-.819l.285-1.984a4.8,4.8,0,0,0-1.777-.038,4.164,4.164,0,0,0-2.505,1.621A3.8,3.8,0,0,0,204.825,583.13Z" transform="translate(-193.495 -555.322)" fill="#161615"/>
      <path id="Path_679" data-name="Path 679" d="M215.972,584.046a7.057,7.057,0,0,0,5.234-1.076,7.681,7.681,0,0,0,2.67-2.984l-1.389-2.142a5.6,5.6,0,0,1-2.3,3.427,5.083,5.083,0,0,1-7.188-1.631,5.026,5.026,0,0,1,1.393-7.285,5.49,5.49,0,0,1,4.052-.764l-1.374-2.125a6.724,6.724,0,0,0-3.7,1.188,6.978,6.978,0,0,0-3.271,4.305,7.375,7.375,0,0,0,1.1,5.85A6.9,6.9,0,0,0,215.972,584.046Z" transform="translate(-186.352 -562.479)" fill="#161615"/>
      <path id="Path_680" data-name="Path 680" d="M222.964,581.674l-1.4-6.327,5.895-1.307,1.4,6.327,2.1-.466-3.05-13.747-2.1.466,1.208,5.441-5.895,1.307-1.208-5.441-2.1.466,3.05,13.747Z" transform="translate(-177.556 -566.154)" fill="#161615"/>
      <path id="Path_681" data-name="Path 681" d="M233.345,580.739a7.3,7.3,0,1,0-6-8.415A7.135,7.135,0,0,0,233.345,580.739Zm-3.883-8.056a5.171,5.171,0,1,1,4.213,6.1A5.039,5.039,0,0,1,229.461,572.683Z" transform="translate(-167.099 -566.069)" fill="#161615"/>
      <path id="Path_682" data-name="Path 682" d="M240.361,583.555a7.3,7.3,0,1,0-2.035-10.139A7.142,7.142,0,0,0,240.361,583.555Zm-.245-8.944a5.174,5.174,0,1,1,1.346,7.3A5.04,5.04,0,0,1,240.116,574.611Z" transform="translate(-156.208 -561.763)" fill="#161615"/>
      <path id="Path_683" data-name="Path 683" d="M247.112,589.96l1.614-1.224-2.5-3.3,9.6-7.28-1.3-1.715-11.212,8.5Z" transform="translate(-149.238 -554.726)" fill="#161615"/>
      <path id="Path_684" data-name="Path 684" d="M214.6,610.8l-7.507,3.947a4.917,4.917,0,0,1-2.353.739,3.077,3.077,0,0,1-2.438-4.63,4.925,4.925,0,0,1,1.942-1.524l7.509-3.949-1-1.9-8.014,4.215a5.2,5.2,0,0,0-2.621,2.855,5.453,5.453,0,0,0,3.634,6.91,5.209,5.209,0,0,0,3.839-.54L215.6,612.7Z" transform="translate(-197.542 -524.707)" fill="#161615"/>
      <path id="Path_685" data-name="Path 685" d="M221.443,617.264l-6.532,7.232-.408-14.778-10.064,11.142,1.6,1.443,6.589-7.294.406,14.778,10.011-11.08Z" transform="translate(-192.406 -517.775)" fill="#161615"/>
      <rect id="Rectangle_57" data-name="Rectangle 57" width="14.083" height="2.153" transform="matrix(0.442, -0.897, 0.897, 0.442, 29.888, 116.43)" fill="#161615"/>
      <path id="Path_686" data-name="Path 686" d="M218,630.607l2.092.509,1.529-6.278,4.594,1.119.48-1.968-4.6-1.119.843-3.467,4.759,1.158.48-1.968-6.851-1.67Z" transform="translate(-177.346 -509.773)" fill="#161615"/>
      <path id="Path_687" data-name="Path 687" d="M231.859,617.748a7.3,7.3,0,1,0,7.874,6.695A7.139,7.139,0,0,0,231.859,617.748Zm1,12.577a5.318,5.318,0,1,1,4.73-5.709A5.032,5.032,0,0,1,232.858,630.324Z" transform="translate(-169.447 -508.887)" fill="#161615"/>
      <path id="Path_688" data-name="Path 688" d="M242.976,618.242A3.925,3.925,0,0,0,240.1,615.9a6.272,6.272,0,0,0-3.723.764l-2.292,1.022,5.736,12.844,1.963-.878-2.347-5.255.346-.156,6.026,3.615,2.37-1.057-6.458-3.7A3.857,3.857,0,0,0,242.976,618.242Zm-3.674,4.181-.616.277-1.826-4.084.675-.3c.962-.429,2.752-1.022,3.563.789C242.01,621.146,239.838,622.184,239.3,622.423Z" transform="translate(-159.48 -510.981)" fill="#161615"/>
      <path id="Path_689" data-name="Path 689" d="M251.554,620.736l-11.126-4.452,8.407,12.931,1.577-1.525-4.856-7.141,9.285,3.763-3.415-9.417,6.933,5.1,1.579-1.527L247.5,609.441Z" transform="translate(-152.439 -518.083)" fill="#161615"/>
      <path id="Path_690" data-name="Path 690" d="M258.2,606.847c-1.441-.705-3.081-.713-5.173,1.15l-1.136,1.019c-1.1.988-1.826.8-2.2.61a1.75,1.75,0,0,1-.642-2.528,2.256,2.256,0,0,1,1.125-1.138,2.229,2.229,0,0,1,1.074-.177l-.146-2a4.742,4.742,0,0,0-1.743.342,4.159,4.159,0,0,0-2.1,2.117,3.8,3.8,0,0,0,1.52,5.333c1.893.929,3.518-.177,4.466-1l1.108-.96a2.623,2.623,0,0,1,3.052-.756,2.258,2.258,0,0,1,1.1,3.124,2.218,2.218,0,0,1-1.568,1.274,3.016,3.016,0,0,1-1.87-.262l-.523,2.119a4.581,4.581,0,0,0,2.984.15,4.107,4.107,0,0,0,2.729-2.351A4.34,4.34,0,0,0,258.2,606.847Z" transform="translate(-145.418 -524.364)" fill="#161615"/>
      <path id="Path_691" data-name="Path 691" d="M205.287,595.19a3.274,3.274,0,1,0-3.273,3.276A3.274,3.274,0,0,0,205.287,595.19Z" transform="translate(-198.738 -537.546)" fill="#161615"/>
      <path id="Path_692" data-name="Path 692" d="M255.114,591.915a3.276,3.276,0,1,0,3.276,3.275A3.274,3.274,0,0,0,255.114,591.915Z" transform="translate(-139.765 -537.546)" fill="#161615"/>
      <path id="Path_693" data-name="Path 693" d="M254.316,585.827l-4.4-3.6a1.081,1.081,0,0,0-1.524.152l-7.737,9.464-7.63-9.459a1.085,1.085,0,0,0-1.517-.165l-4.519,3.613a1.057,1.057,0,0,0-.323.477h-3.383a8.251,8.251,0,0,0-8.242,8.242v13.039a1.084,1.084,0,0,0,1.083,1.083h6.131V635a1.082,1.082,0,0,0,1.083,1.081h34.623A1.082,1.082,0,0,0,259.041,635V608.671h6.131a1.084,1.084,0,0,0,1.083-1.083V594.55a8.252,8.252,0,0,0-8.242-8.242h-3.377A1.068,1.068,0,0,0,254.316,585.827Zm-4.934-1.241,2.853,2.334-5.92,10.31-4.179-3.784Zm-17.365-.007,7.146,8.862-4.187,3.788-5.912-10.289Zm32.074,9.97v11.958h-5.048V594.6a1.083,1.083,0,0,0-2.165,0v39.313h-32.46V594.6a1.082,1.082,0,1,0-2.163,0v11.9H217.2V594.55a6.083,6.083,0,0,1,6.078-6.076h4.168l6.321,11a1.094,1.094,0,0,0,.768.53,1.493,1.493,0,0,0,.169.011,1.081,1.081,0,0,0,.726-.279l4.145-3.753c0,.023-.013.042-.013.065v11.54a1.082,1.082,0,1,0,2.163,0v-11.54a.558.558,0,0,0-.013-.063l4.143,3.75a1.081,1.081,0,0,0,.726.279,1.463,1.463,0,0,0,.169-.011,1.091,1.091,0,0,0,.77-.532l6.315-11h4.175A6.082,6.082,0,0,1,264.09,594.55Z" transform="translate(-180.635 -548.579)" fill="#161615"/>
    </g>
  </g>
</svg>
