<svg xmlns="http://www.w3.org/2000/svg" width="197.888" height="144.035" viewBox="0 0 197.888 144.035">
  <g id="Group_282" data-name="Group 282" transform="translate(-50 -47.553)">
    <path id="Path_132" data-name="Path 132" d="M104.172,320.975V306.263h4.852v14c0,2.722.985,3.668,2.8,3.668,1.735,0,3.627-1.658,4.931-2.761l1.259-1.065V306.263h4.852v21.574h-4.852V324.13l-1.3,1.182a9.222,9.222,0,0,1-6.585,2.838c-3.706,0-5.957-2.17-5.957-7.175" transform="translate(-30.082 -143.662)" fill="#08121f"/>
    <path id="Path_133" data-name="Path 133" d="M157.653,306.115h4.891v3.944c1.382-2.168,3.47-4.063,6.231-4.063h1.539v4.576h-1.933c-2.8,0-4.141,1.538-5.838,3.233V327.69h-4.891Z" transform="translate(-59.78 -143.513)" fill="#08121f"/>
    <path id="Path_134" data-name="Path 134" d="M194.889,320.975V306.263h4.85v14c0,2.722.985,3.668,2.8,3.668,1.733,0,3.627-1.658,4.929-2.761l1.261-1.065V306.263h4.85v21.574h-4.85V324.13l-1.3,1.182a9.218,9.218,0,0,1-6.585,2.838c-3.707,0-5.955-2.17-5.955-7.175" transform="translate(-80.457 -143.662)" fill="#08121f"/>
    <path id="Path_135" data-name="Path 135" d="M255.155,311.056v-22.8h15.7v1.852H257.166V301.2h12.462v1.853H257.166v8.165c0,3.233,1.539,4.77,4.774,4.77h8.914v1.856H262.1c-4.654,0-6.942-2.169-6.942-6.785" transform="translate(-113.923 -133.665)" fill="#08121f"/>
    <path id="Path_136" data-name="Path 136" d="M300.4,305.87h1.854v4.77L303.8,309.1c1.065-1.064,3.548-3.549,6.466-3.549,3.985,0,5.524,2.485,5.524,6.468v15.423h-1.854V312.023c0-2.761-1.064-4.772-3.827-4.772-2.326,0-4.613,2.327-6.309,4.022l-1.539,1.537v14.635H300.4Z" transform="translate(-139.05 -143.269)" fill="#08121f"/>
    <path id="Path_137" data-name="Path 137" d="M346.692,315.573h7.1c2.918,0,4.616-1.064,4.616-3.983,0-2.959-2.289-4.338-5.21-4.338-4.177,0-6.506,2.483-6.506,6.625Zm-1.812,4.18v-5.876c0-5.086,3.388-8.321,8.317-8.321,3.984,0,7.063,2.011,7.063,6.034,0,3.824-2.763,5.678-6.628,5.678h-6.94v2.485c0,3.984,2.17,6.312,6.192,6.312a13,13,0,0,0,5.837-1.539h.315v1.539a11.853,11.853,0,0,1-6.152,1.694c-5.087,0-8-2.918-8-8.006" transform="translate(-163.747 -143.269)" fill="#08121f"/>
    <path id="Path_138" data-name="Path 138" d="M388.422,306.264h1.854v4.456l1.7-1.973a6.1,6.1,0,0,1,4.769-2.483h1.38v1.854h-1.38c-2.011,0-3.55,1.537-4.612,2.761l-1.854,2.168v14.792h-1.854Z" transform="translate(-187.926 -143.663)" fill="#08121f"/>
    <path id="Path_139" data-name="Path 139" d="M426.744,322.435V307.96h-3.551c-5.087,0-8.479,2.918-8.479,8.166V319.2c0,3.55,1.578,5.718,5.089,5.718A13.547,13.547,0,0,0,426,322.909Zm-12.621,11.121h4.457c5.563,0,8.164-3.232,8.164-8.794v-.631l-.748.47a13,13,0,0,1-6.35,2.015c-4.456,0-6.744-2.918-6.744-7.415v-2.918c0-6.468,4.612-10.016,10.451-10.016H428.6V324.6c0,6.785-3.39,10.651-10.173,10.651h-4.3Z" transform="translate(-201.519 -143.664)" fill="#08121f"/>
    <path id="Path_140" data-name="Path 140" d="M462.262,333.555h3.979c5.878,0,7.731-2.957,7.731-8.794v-1.854l-.472.316a13.412,13.412,0,0,1-6.626,2.128c-4.3,0-6.464-2.759-6.464-7.057V306.264h1.853v12.029c0,3.55,1.379,5.4,4.93,5.4a13.168,13.168,0,0,0,6.308-2.168l.472-.317V306.264h1.817v18.181c0,6.94-2.6,10.805-9.548,10.805h-3.979Z" transform="translate(-227.901 -143.663)" fill="#08121f"/>
    <path id="Path_141" data-name="Path 141" d="M60.308,313.441H58.721v0c-2.514,0-3.634-1.256-3.634-4.17v-.313l.008-.314v-4.362h5.551c3.075,0,4.632,1.9,4.632,4.974,0,3.16-1.854,4.189-4.971,4.189m-5.214-20.922h5.481c2.6,0,3.946,1.143,3.946,3.865,0,2.406-1.341,3.872-3.946,3.872H55.094Zm10.727,9.353c2.367-1.183,3.9-2.886,3.9-6,0-5.05-2.957-7.613-8.755-7.613H50.007v14.7l-.007,0v6.878c0,5.261,2.583,7.978,7.667,8v0h3.5c5.877,0,9.19-2.762,9.19-8.639,0-3.707-1.894-6.381-4.535-7.328" transform="translate(0 -133.664)" fill="#08121f"/>
    <path id="Path_142" data-name="Path 142" d="M178.658,137.154s1.766-10.214,1.762-10.186c2.882-16.1,9.894-18.91,18.015-22.17,1.9-.765,3.16-2.848,5.048-3.921,2.83-1.607,5.4-1.742,8.131-1.875,4.735-.233,11.893-.6,15.262-10.412a27.786,27.786,0,0,0,1.086-12.2c-.37-4.461-.573-6.92,4.491-12.243,4.255-4.475,6.311-4.065,10.824-3.163,3.876.78,11.968-.365,15.2,2.505l2.112,2.539V51.41c-5.1-3.281-12.5-2.408-14.8-2.95-5.326-1.253-13.476-2.705-22.587,6.88-9.007,9.474-8.435,16.474-7.962,22.1.22,2.679.416,4.552-.293,6.979-.229.78-1.023,2.69-5.7,2.952-3.519.2-4.975.673-10.616,3.451-1.52.746-3.182,1.412-4.942,2.123h-.006c-9.158,3.678-21.7,8.707-25.838,31.8,0,0-1.767,10.245-1.774,10.264-.426,2.543-.844,5.01-1.234,7.028h12.985c.266-1.484.542-3.095.844-4.883" transform="translate(-63.765)" fill="#08121f"/>
    <path id="Path_143" data-name="Path 143" d="M263.063,98.2c-6.78,5.7-5.132,7.793-4.663,13.432a23,23,0,0,1-.844,10.252c-2.315,6.749-6.519,6.956-10.969,7.178-3.015.153-6.436.324-10.26,2.493-1.735.985-3.567,1.858-5.341,2.694-8.433,3.98-17.238,8.626-20.59,27.334-.005.026-.673,3.9-1.188,6.867h9.724l.02-.113.8-4.655a3.513,3.513,0,0,0,.048-.435l.022.026c2.417-13.485,7.816-16.851,15.245-20.363,1.938-.912,3.949-1.862,5.991-3.025,1.842-1.045,3.589-1.135,6.006-1.253,4.912-.245,15.133-.753,19.556-13.636,2.01-5.877,1.757-6.681,1.472-10.175-.329-3.954-3.345-5.617.327-9.294,3.555-3.558,9.342-.007,16.81,4.369v-9.7c-5.2-3.534-14.666-8.3-22.168-1.994" transform="translate(-88.408 -26.415)" fill="#08121f"/>
  </g>
</svg>
