<svg xmlns="http://www.w3.org/2000/svg" width="267.381" height="80.907" viewBox="0 0 267.381 80.907">
  <g id="Group_354" data-name="Group 354" transform="translate(0 0)">
    <path id="Path_118" data-name="Path 118" d="M260.465,177.074V162.685h4.745v13.694c0,2.661.965,3.587,2.741,3.587,1.7,0,3.546-1.621,4.821-2.7L274,176.225v-13.54h4.747v21.1H274V180.16l-1.271,1.158a9.021,9.021,0,0,1-6.442,2.775c-3.624,0-5.827-2.122-5.827-7.018" transform="translate(-163.073 -110.129)" fill="#6dbe97"/>
    <path id="Path_119" data-name="Path 119" d="M314,162.535h4.784v3.858c1.351-2.122,3.394-3.973,6.094-3.973h1.506v4.473h-1.89c-2.74,0-4.051,1.5-5.71,3.163v13.58H314Z" transform="translate(-193.345 -109.979)" fill="#6dbe97"/>
    <path id="Path_120" data-name="Path 120" d="M351.271,177.074V162.685h4.744v13.694c0,2.661.963,3.587,2.74,3.587,1.7,0,3.548-1.621,4.821-2.7l1.234-1.041v-13.54h4.745v21.1h-4.745V180.16l-1.274,1.158a9.017,9.017,0,0,1-6.441,2.775c-3.626,0-5.825-2.122-5.825-7.018" transform="translate(-214.421 -110.129)" fill="#6dbe97"/>
    <path id="Path_121" data-name="Path 121" d="M411.6,166.961v-22.3h15.353v1.812H413.562v10.839h12.191v1.812H413.562v7.986c0,3.163,1.506,4.667,4.669,4.667h8.718V173.6h-8.564c-4.552,0-6.79-2.121-6.79-6.635" transform="translate(-248.533 -99.94)" fill="#6dbe97"/>
    <path id="Path_122" data-name="Path 122" d="M456.89,162.284H458.7v4.667l1.505-1.505c1.042-1.039,3.47-3.47,6.325-3.47,3.9,0,5.4,2.431,5.4,6.327v15.084h-1.814V168.3c0-2.7-1.039-4.669-3.741-4.669-2.277,0-4.513,2.277-6.171,3.935l-1.505,1.5v14.314H456.89Z" transform="translate(-274.146 -109.728)" fill="#6dbe97"/>
    <path id="Path_123" data-name="Path 123" d="M503.182,171.773h6.944c2.853,0,4.514-1.039,4.514-3.894,0-2.894-2.239-4.243-5.1-4.243-4.087,0-6.362,2.429-6.362,6.479Zm-1.773,4.091v-5.748c0-4.974,3.314-8.137,8.135-8.137,3.9,0,6.906,1.966,6.906,5.9,0,3.741-2.7,5.555-6.481,5.555h-6.787v2.429c0,3.9,2.121,6.173,6.055,6.173a12.738,12.738,0,0,0,5.708-1.5h.31v1.5a11.577,11.577,0,0,1-6.018,1.658c-4.976,0-7.828-2.855-7.828-7.83" transform="translate(-299.32 -109.729)" fill="#6dbe97"/>
    <path id="Path_124" data-name="Path 124" d="M544.993,162.685h1.814v4.358l1.659-1.929a5.962,5.962,0,0,1,4.665-2.429h1.35V164.5h-1.35c-1.968,0-3.472,1.5-4.51,2.7l-1.814,2.121v14.467h-1.814Z" transform="translate(-323.965 -110.129)" fill="#6dbe97"/>
    <path id="Path_125" data-name="Path 125" d="M583.035,178.5V164.343h-3.472c-4.977,0-8.295,2.855-8.295,7.986v3.009c0,3.472,1.545,5.592,4.977,5.592a13.253,13.253,0,0,0,6.057-1.966Zm-12.345,10.876h4.36c5.44,0,7.985-3.16,7.985-8.6v-.617l-.732.461a12.722,12.722,0,0,1-6.211,1.97c-4.359,0-6.6-2.854-6.6-7.252v-2.855c0-6.326,4.513-9.8,10.224-9.8h5.13V180.62c0,6.635-3.318,10.415-9.951,10.415h-4.206Z" transform="translate(-337.82 -110.129)" fill="#6dbe97"/>
    <path id="Path_126" data-name="Path 126" d="M618.863,189.377h3.892c5.75,0,7.562-2.892,7.562-8.6v-1.814l-.462.309a13.107,13.107,0,0,1-6.481,2.082c-4.2,0-6.323-2.7-6.323-6.9V162.683h1.812V174.45c0,3.471,1.348,5.284,4.821,5.284a12.861,12.861,0,0,0,6.171-2.121l.462-.309V162.683h1.775v17.784c0,6.788-2.544,10.568-9.337,10.568h-3.892Z" transform="translate(-364.712 -110.128)" fill="#6dbe97"/>
    <path id="Path_127" data-name="Path 127" d="M216.323,169.291h-1.551v0c-2.46,0-3.555-1.229-3.555-4.079V164.9l.008-.307v-4.265h5.428c3.009,0,4.531,1.853,4.531,4.864,0,3.09-1.814,4.1-4.862,4.1m-5.1-20.463h5.362c2.546,0,3.858,1.119,3.858,3.78,0,2.354-1.312,3.789-3.858,3.789h-5.362Zm10.492,9.149c2.316-1.156,3.818-2.823,3.818-5.87,0-4.938-2.892-7.445-8.562-7.445H206.247v14.38l0-.005v6.726c0,5.145,2.526,7.805,7.5,7.827v0h3.423c5.748,0,8.988-2.7,8.988-8.45,0-3.626-1.852-6.24-4.436-7.168" transform="translate(-132.412 -99.937)" fill="#6dbe97"/>
    <path id="Path_128" data-name="Path 128" d="M47.03,111.047s1.367-7.9,1.363-7.879c2.229-12.451,7.654-14.628,13.934-17.15,1.471-.591,2.445-2.2,3.906-3.033a12.872,12.872,0,0,1,6.289-1.451c3.664-.182,9.2-.463,11.807-8.054a21.494,21.494,0,0,0,.84-9.44c-.287-3.45-.443-5.352,3.473-9.47,3.292-3.461,4.882-3.145,8.374-2.446,3,.6,9.258-.283,11.756,1.938l1.635,1.965V44.72c-3.947-2.539-9.668-1.863-11.453-2.283-4.119-.968-10.422-2.092-17.471,5.323-6.969,7.33-6.525,12.745-6.16,17.094a13.517,13.517,0,0,1-.227,5.4c-.176.6-.79,2.081-4.411,2.285-2.721.151-3.848.521-8.211,2.67-1.177.576-2.462,1.092-3.823,1.641h0c-7.084,2.845-16.787,6.737-19.988,24.6,0,0-1.367,7.927-1.371,7.941-.331,1.966-.653,3.875-.955,5.436H46.377c.207-1.148.419-2.393.653-3.777" transform="translate(-36.333 -41.736)" fill="#6dbe97"/>
    <path id="Path_129" data-name="Path 129" d="M113.126,81.775c-5.245,4.408-3.969,6.03-3.607,10.39a17.8,17.8,0,0,1-.653,7.93c-1.79,5.221-5.041,5.382-8.485,5.553a16.4,16.4,0,0,0-7.937,1.928c-1.341.763-2.76,1.438-4.131,2.085-6.523,3.078-13.334,6.672-15.928,21.144l-.917,5.313h7.52c.01-.051.015-.088.015-.088l.622-3.6a2.653,2.653,0,0,0,.035-.337l.019.022c1.868-10.433,6.045-13.036,11.792-15.754,1.5-.7,3.055-1.439,4.635-2.339a9.579,9.579,0,0,1,4.646-.968c3.8-.191,11.705-.583,15.126-10.549,1.554-4.546,1.359-5.169,1.138-7.871-.253-3.058-2.587-4.345.254-7.189,2.749-2.753,7.225-.005,13,3.38V83.318c-4.022-2.735-11.344-6.418-17.149-1.543" transform="translate(-56.201 -63.03)" fill="#6dbe97"/>
  </g>
</svg>
