<svg xmlns="http://www.w3.org/2000/svg" xmlns:xlink="http://www.w3.org/1999/xlink" width="564" height="488" viewBox="0 0 564 488">
  <defs>
    <clipPath id="clip-path">
      <rect id="Rectangle_124" data-name="Rectangle 124" width="564" height="488" transform="translate(1286.802 480)" fill="#6dbe97" stroke="#707070" stroke-width="1"/>
    </clipPath>
    <clipPath id="clip-path-2">
      <path id="Path_131" data-name="Path 131" d="M0,27.184H547.425V-512.952H0Z" transform="translate(0 512.952)" fill="#6dbe97"/>
    </clipPath>
  </defs>
  <g id="Mask_Group_31" data-name="Mask Group 31" transform="translate(-1286.802 -480)" clip-path="url(#clip-path)">
    <g id="Group_276" data-name="Group 276" transform="translate(1328.497 498.084)">
      <g id="Group_275" data-name="Group 275" transform="translate(0 0)" clip-path="url(#clip-path-2)">
        <g id="Group_274" data-name="Group 274" transform="translate(0 0)">
          <path id="Path_130" data-name="Path 130" d="M27.551,5.314V-78.23C-1.611-96.986-43.9-92-57.08-95.095c-30.445-7.165-77.037-15.464-129.125,39.33C-237.7-1.6-234.422,38.411-231.722,70.565c1.256,15.315,2.377,26.023-1.675,39.9-1.307,4.462-5.847,15.375-32.6,16.874-20.118,1.119-28.439,3.847-60.687,19.731-8.691,4.266-18.191,8.073-28.249,12.139h-.036c-52.352,21.024-124.05,49.776-147.708,181.8,0,0-10.1,58.565-10.141,58.675-2.435,14.537-4.825,28.643-7.054,40.177h74.233c1.52-8.484,3.1-17.691,4.822-27.914,0,0,10.1-58.39,10.075-58.232,16.474-92.023,56.56-108.1,102.985-126.74,10.863-4.372,18.063-16.28,28.857-22.417,16.176-9.187,30.887-9.958,46.483-10.717,27.067-1.335,67.99-3.433,87.252-59.522,9.644-28.137,7.746-51.218,6.205-69.768-2.115-25.5-3.275-39.559,25.674-69.987,24.326-25.585,36.076-23.235,61.877-18.082C-49.255-19.062-2.993-25.609,15.478-9.2ZM-400.261,400.593c-.028.147-3.847,22.282-6.791,39.257h55.586c.066-.374.117-.643.117-.643l4.587-26.609a20.768,20.768,0,0,0,.275-2.486l.126.147c13.814-77.088,44.682-96.332,87.152-116.411,11.076-5.214,22.575-10.642,34.247-17.294,10.532-5.972,20.518-6.489,34.333-7.161,28.081-1.4,86.511-4.3,111.793-77.952,11.488-33.6,10.045-38.194,8.418-58.168-1.882-22.6-19.126-32.113,1.871-53.13,20.325-20.34,53.4-.038,96.1,24.975V49.645C-2.178,29.44-56.292,2.218-99.179,38.249c-38.759,32.57-29.337,44.552-26.658,76.784,1.482,17.653,2.972,35.911-4.823,58.605-13.232,38.584-37.269,39.768-62.706,41.036-17.236.877-36.791,1.851-58.654,14.254-9.917,5.631-20.394,10.622-30.535,15.4-48.21,22.751-98.543,49.312-117.707,156.26" transform="translate(519.874 100.281)" fill="#6dbe97"/>
        </g>
      </g>
    </g>
  </g>
</svg>
