<svg xmlns="http://www.w3.org/2000/svg" xmlns:xlink="http://www.w3.org/1999/xlink" width="984" height="787" viewBox="0 0 984 787">
  <defs>
    <clipPath id="clip-path">
      <rect id="Rectangle_128" data-name="Rectangle 128" width="984" height="787" transform="translate(0 1080)" fill="#fff" stroke="#707070" stroke-width="1"/>
    </clipPath>
    <clipPath id="clip-path-2">
      <path id="Path_145" data-name="Path 145" d="M0,916.339H1448.579V-512.952H0Z" transform="translate(0 512.952)" fill="none"/>
    </clipPath>
  </defs>
  <g id="Mask_Group_32" data-name="Mask Group 32" transform="translate(0 -1080)" clip-path="url(#clip-path)">
    <g id="Group_291" data-name="Group 291" transform="translate(-487.367 410.35)">
      <g id="Group_290" data-name="Group 290" transform="translate(0 0)" clip-path="url(#clip-path-2)">
        <g id="Group_289" data-name="Group 289" transform="translate(0 -0.001)">
          <path id="Path_144" data-name="Path 144" d="M928.7,179.143V-41.93c-77.167-49.631-189.06-36.435-223.946-44.627C624.2-105.516,500.906-127.478,363.076,17.518c-136.258,143.321-127.6,249.2-120.451,334.29,3.324,40.526,6.289,68.86-4.433,105.577-3.458,11.806-15.473,40.684-86.27,44.652C98.685,505,76.667,512.216-8.666,554.249c-23,11.288-48.138,21.363-74.751,32.122h-.095C-222.044,642-411.77,718.087-474.372,1067.432c0,0-26.733,154.974-26.833,155.264-6.445,38.466-12.77,75.793-18.669,106.315h196.433c4.021-22.45,8.192-46.814,12.759-73.865,0,0,26.716-154.509,26.66-154.091C-240.428,857.546-134.355,815-11.506,765.681c28.745-11.569,47.8-43.081,76.361-59.32,42.8-24.311,81.734-26.351,123-28.36,71.625-3.533,179.913-9.084,230.884-157.5,25.521-74.456,20.5-135.531,16.42-184.619-5.6-67.478-8.666-104.68,67.938-185.2,64.371-67.7,95.462-61.485,163.737-47.848,58.626,11.806,181.041-5.517,229.92,37.9ZM-203.358,1225.117c-.075.39-10.179,58.963-17.969,103.88H-74.239c.176-.989.309-1.7.309-1.7l12.138-70.412a54.926,54.926,0,0,0,.727-6.579l.334.39c36.555-203.987,118.235-254.911,230.62-308.042,29.31-13.8,59.738-28.159,90.622-45.764,27.87-15.8,54.293-17.17,90.851-18.95,74.308-3.714,228.923-11.391,295.824-206.275,30.4-88.9,26.58-101.068,22.274-153.924-4.979-59.816-50.609-84.977,4.951-140.591,53.783-53.822,141.315-.1,254.29,66.088V296.451c-78.666-53.468-221.859-125.5-335.346-30.157-102.562,86.186-77.632,117.893-70.541,203.185,3.92,46.714,7.863,95.027-12.762,155.08-35.014,102.1-98.619,105.234-165.93,108.589-45.611,2.321-97.354,4.9-155.208,37.719-26.242,14.9-53.964,28.107-80.8,40.76-127.573,60.2-260.763,130.487-311.473,413.491" transform="translate(519.874 100.281)" fill="#ecf7f1"/>
        </g>
      </g>
    </g>
  </g>
</svg>
