<?xml version="1.0" encoding="UTF-8"?>
<svg width="891px" height="47px" viewBox="0 0 891 47" version="1.1" xmlns="http://www.w3.org/2000/svg" xmlns:xlink="http://www.w3.org/1999/xlink">
    <title>slogan</title>
    <g id="Page-1" stroke="none" stroke-width="1" fill="none" fill-rule="evenodd">
        <g id="slogan" fill="#0A4B6F" fill-rule="nonzero">
            <path d="M25.124,28.664 C25.124,33.317 21.402,35.737 15.26,35.737 L-0.002,35.737 L-0.002,33.875 L5.582,33.875 L5.582,10.982 L-0.002,10.982 L-0.002,9.121 L14.888,9.121 C20.288,9.121 23.263,11.727 23.263,15.821 C23.2602489,18.739567 21.260877,21.2773108 18.424,21.963 C22.332,22.708 25.124,24.755 25.124,28.664 Z M7.624,10.983 L7.624,21.221 L14.324,21.221 C18.419,21.221 21.024,19.546 21.024,16.01 C21.024,12.474 18.232,10.985 14.51,10.985 L7.624,10.983 Z M22.886,28.483 C22.886,24.574 19.164,23.083 14.511,22.899 L7.629,22.899 L7.629,33.689 L15.074,33.689 C19.727,33.875 22.891,32.2 22.891,28.477 L22.886,28.483 Z" id="Path_300-2"></path>
            <path d="M53.601,35.551 C52.8597324,35.9526744 52.0233094,36.1455355 51.181,36.109 C49.134,36.109 47.831,34.62 47.831,31.828 L47.831,31.456 C45.411,34.248 42.806,36.109 39.642,36.109 C36.106,36.109 33.872,33.689 33.872,29.036 L33.872,19.172 L29.778,19.172 L29.778,17.311 L35.92,17.311 L35.92,28.85 C35.92,32.2 37.22,34.061 40.201,34.061 C42.807,34.061 45.412,32.2 47.832,29.594 L47.832,19.172 L44.109,19.172 L44.109,17.311 L49.878,17.311 L49.878,31.642 C49.878,33.503 50.622,34.062 51.367,34.062 C51.8878282,34.0748161 52.4023958,33.9462606 52.856,33.69 L53.601,35.551 Z" id="Path_301-2"></path>
            <path d="M68.865,33.873 L68.865,35.734 L57.698,35.734 L57.698,33.873 L62.165,33.873 L62.165,19.173 L57.698,19.173 L57.698,17.309 L64.398,17.309 L64.398,33.687 L68.865,33.687 L68.865,33.873 Z M60.49,10.422 C60.49,9.305 61.421,8.561 62.723,8.561 C64.212,8.561 65.143,9.305 65.143,10.422 C65.143,11.539 64.212,12.283 62.723,12.283 C61.42,12.283 60.49,11.539 60.49,10.422 Z" id="Path_302-2"></path>
            <polygon id="Path_303-2" points="83.375 33.875 83.375 35.736 72.208 35.736 72.208 33.875 76.675 33.875 76.675 10.982 72.208 10.982 72.208 9.121 78.908 9.121 78.908 33.875"></polygon>
            <path d="M109.248,35.55 C108.575121,35.9524779 107.79811,36.1466438 107.015,36.108 C105.154,36.108 104.037,34.991 103.851,32.944 C101.861695,34.9066142 99.1996146,36.0379536 96.406,36.108 C91.753,36.108 87.844,32.386 87.844,26.802 C87.844,20.846 92.125,16.938 97.15,16.938 C99.6631838,16.9533968 102.069579,17.9561814 103.85,19.73 L103.85,10.982 L99.387,10.982 L99.387,9.121 L105.901,9.121 L105.901,31.828 C105.901,33.689 106.459,34.248 107.39,34.248 C107.907716,34.235491 108.416232,34.1084474 108.879,33.876 L109.248,35.55 Z M96.592,34.25 C99.384,34.25 101.617,32.761 103.665,31.086 L103.665,21.405 C101.941677,19.7973934 99.6926377,18.8711929 97.337,18.799 C93.242,18.799 90.078,22.149 90.078,26.799 C89.895,31.455 92.873,34.433 96.596,34.247 L96.592,34.25 Z" id="Path_304-2"></path>
            <path d="M124.515,33.873 L124.515,35.734 L113.348,35.734 L113.348,33.873 L117.815,33.873 L117.815,19.173 L113.348,19.173 L113.348,17.309 L120.048,17.309 L120.048,33.687 L124.515,33.687 L124.515,33.873 Z M116.14,10.422 C116.14,9.305 117.071,8.561 118.373,8.561 C119.862,8.561 120.793,9.305 120.793,10.422 C120.793,11.539 119.862,12.283 118.373,12.283 C117.07,12.283 116.14,11.539 116.14,10.422 Z" id="Path_305-2"></path>
            <path d="M153.738,33.878 L153.738,35.741 L143.872,35.741 L143.872,33.878 L147.594,33.878 L147.594,24.386 C147.594,20.85 146.105,18.986 142.941,18.986 C140.149,18.986 137.171,20.847 134.752,23.639 L134.752,33.878 L138.474,33.878 L138.474,35.741 L128.238,35.741 L128.238,33.878 L132.705,33.878 L132.705,19.361 L128.238,19.361 L128.238,17.499 L134.938,17.499 L134.938,21.78 C137.544,18.988 140.522,16.941 143.872,16.941 C147.594,16.941 150.014,19.174 150.014,24.014 L150.014,33.692 L153.738,33.692 L153.738,33.878 Z" id="Path_306-2"></path>
            <path d="M177.181,36.856 C177.181,41.509 171.597,44.115 165.642,44.115 C160.431,44.115 156.708,41.882 156.708,38.531 C156.763606,36.9853616 157.516261,35.548075 158.755,34.622 C157.727878,33.9775201 157.097323,32.8564499 157.08,31.644 C157.08,29.597 158.569,28.108 160.244,26.991 C159.489817,25.9688304 159.096876,24.7249272 159.127,23.455 C159.127,19.174 163.222,16.755 166.944,16.755 C168.443726,16.7497406 169.919029,17.1346772 171.225,17.872 C171.97947,15.3186571 174.332585,13.572784 176.995,13.5908588 L176.995,15.452 C174.89244,15.4374044 172.985811,16.6840618 172.156,18.616 C173.697368,19.7430531 174.598863,21.54567 174.576,23.455 C174.576,27.736 170.854,30.155 166.759,30.155 C164.656972,30.1595597 162.618186,29.4362678 160.989,28.108 C159.827057,28.7610017 159.061378,29.9444938 158.942,31.272 C158.942,32.761 160.059,34.064 162.664,34.064 C165.642,34.064 168.62,32.764 171.97,32.764 C175.134,32.575 177.181,34.064 177.181,36.856 Z M175.32,37.042 C175.32,35.367 174.02,34.436 171.97,34.436 C168.992,34.436 166.2,35.925 162.85,35.925 C161.969562,35.9059167 161.094613,35.78102 160.244,35.553 C159.451501,36.2699927 158.982626,37.2769922 158.944,38.345 C158.944,40.765 161.922,42.44 166.203,42.44 C170.853,42.44 175.32,40.391 175.32,37.042 Z M161.361,23.641 C161.361,26.805 164.153,28.48 167.131,28.48 C170.295,28.48 172.901,26.805 172.901,23.455 C172.901,20.291 169.923,18.616 167.131,18.616 C164.153,18.616 161.361,20.291 161.361,23.641 Z" id="Path_307-2"></path>
            <path d="M214.783,35.181 C214.088408,35.7048556 213.231918,35.9681729 212.363,35.925 C210.688,35.925 209.571,34.808 209.199,32.761 C206.593,34.808 203.988,36.111 201.382,36.111 C197.846,36.111 194.868,34.064 194.868,30.527 C194.868,26.99 198.218,24.571 202.499,24.571 C204.793244,24.5889336 207.064527,25.0296304 209.199,25.871 L209.199,23.827 C209.199,20.105 206.779,18.802 203.988,18.802 C201.337271,18.844648 198.729762,19.4805507 196.357,20.663 L195.799,18.802 C198.368981,17.617272 201.158408,16.9833577 203.988,16.941 C208.083,16.941 211.061,18.988 211.061,23.827 L211.061,31.458 C211.061,33.133 211.619,34.064 212.736,34.064 C213.253711,34.051458 213.76222,33.9244161 214.225,33.692 L214.783,35.181 Z M201.568,34.25 C204.3436,34.0996652 206.978395,32.9799218 209.013,31.086 L209.013,27.55 C206.934666,26.7587009 204.722229,26.3793193 202.499,26.433 C199.521,26.433 196.729,27.733 196.729,30.528 C196.915,32.947 199.149,34.25 201.568,34.25 Z" id="Path_308-2"></path>
            <path d="M267.264,27.172 C267.264,32.942 262.425,36.478 256.097,36.478 C251.63,36.478 247.722,34.431 244.371,31.267 L244.371,35.734 L238.788,35.734 L238.788,24.008 L242.51,23.822 C245.86,28.475 251.444,31.267 255.724,31.267 C258.516,31.267 260.749,29.967 260.749,27.731 C260.749,25.311 257.957,23.636 250.326,21.403 C242.509,19.17 239.159,15.819 239.159,10.608 C239.159,5.024 244.37,1.302 249.954,1.302 C253.834013,1.12485613 257.5893,2.69536885 260.188,5.582 L260.188,1.859 L265.772,1.859 L265.772,13.401 L262.236,13.587 C259.816,8.748 255.722,6.328 251.441,6.328 C248.091,6.328 245.671,7.817 245.671,10.05 C245.671,12.47 248.091,13.959 254.419,15.634 C261.681,18.238 267.264,21.216 267.264,27.172 Z" id="Path_309-2"></path>
            <path d="M291.093,34.621 C289.08079,35.8628989 286.757448,36.5082333 284.393,36.482 C278.993,36.482 275.832,32.76 275.832,26.618 L275.832,17.684 L271.178,17.684 L271.178,12.845 L275.831,12.845 L275.831,6.331 L281.787,6.331 L281.787,12.659 L288.678,12.659 L288.678,17.498 L281.792,17.498 L281.792,26.618 C281.792,29.41 283.092,31.085 285.514,31.085 C286.929001,31.0637338 288.323893,30.7466043 289.609,30.154 L291.093,34.621 Z" id="Path_310-2"></path>
            <path d="M317.523,12.101 L317.523,22.338 L312.312,22.338 L312.312,18.057 C310.451,18.057 307.845,19.732 305.053,22.71 L305.053,30.71 L309.892,30.71 L309.892,35.549 L294.258,35.549 L294.258,30.713 L299.097,30.713 L299.097,17.313 L294.258,17.313 L294.258,12.473 L305.053,12.473 L305.053,18.057 C308.217,14.521 311.753,12.101 315.103,12.101 L317.523,12.101 Z" id="Path_311-2"></path>
            <path d="M321.618,24.201 C321.618,16.756 327.76,12.101 334.274,12.101 C340.788,12.101 346.93,16.754 346.93,24.201 C346.93,31.648 340.974,36.301 334.274,36.301 C327.76,36.301 321.618,31.644 321.618,24.201 Z M340.788,24.201 C340.788,19.734 337.996,16.942 334.274,16.942 C330.552,16.942 327.76,19.734 327.76,24.201 C327.76,28.668 330.552,31.46 334.274,31.46 C337.996,31.644 340.788,28.852 340.788,24.201 L340.788,24.201 Z" id="Path_312-2"></path>
            <path d="M384.523,30.901 L384.523,35.74 L370.564,35.74 L370.564,30.901 L374.472,30.901 L374.472,22.901 C374.472,19.923 372.797,17.876 369.819,17.876 C367.213,17.876 364.608,19.551 362.002,22.715 L362.002,30.901 L365.908,30.901 L365.908,35.74 L351.208,35.74 L351.208,30.901 L356.047,30.901 L356.047,17.501 L351.208,17.501 L351.208,12.659 L362.003,12.659 L362.003,17.871 C365.353,13.962 368.331,12.101 372.054,12.101 C377.454,12.101 380.429,15.637 380.429,22.896 L380.429,30.896 L384.524,30.896 L384.523,30.901 Z" id="Path_313-2"></path>
            <path d="M412.995,37.414 C412.995,42.998 406.109,46.162 397.919,46.162 C391.777,46.162 386.938,43.929 386.938,39.462 C386.938,37.415 388.238,35.926 389.544,34.623 C388.356167,33.6750239 387.669972,32.2336829 387.683,30.714 C387.747072,28.3446375 389.104524,26.2009692 391.219,25.13 C390.096484,23.8441874 389.498575,22.1832513 389.544,20.477 C389.544,14.893 395.314,12.102 400.153,12.102 C401.86714,12.1403515 403.563896,12.4547156 405.178,13.033 C406.295,9.497 409.273,7.822 412.809,7.822 L412.809,12.847 C410.973916,12.6819471 409.153035,13.2889075 407.784,14.522 C409.677256,15.8279428 410.794292,17.992247 410.762,20.292 C410.762,25.876 404.992,28.667 400.153,28.667 C398.014482,28.6823403 395.905076,28.1709588 394.011,27.178 C393.446036,27.7131286 393.112039,28.4474909 393.08,29.225 C393.08,30.9 394.38,31.458 396.244,31.458 C399.594,31.458 402.014,30.9 405.922,30.9 C409.83,30.9 412.995,33.133 412.995,37.414 Z M407.411,37.6 C407.411,36.111 406.294,35.739 404.247,35.739 C401.641,35.739 398.663,36.483 394.569,36.483 C393.824,36.483 393.08,36.297 392.335,36.297 C391.955932,36.9114373 391.762184,37.6221923 391.777,38.344 C391.777,40.391 394.011,41.508 398.477,41.508 C403.13,41.321 407.411,39.834 407.411,37.6 Z M395.311,20.477 C395.311,22.897 397.172,24.386 399.964,24.386 C402.756,24.386 404.617,22.711 404.617,20.291 C404.617,17.871 402.57,16.382 399.964,16.382 C397.175,16.383 395.313,18.058 395.313,20.477 L395.311,20.477 Z" id="Path_314-2"></path>
            <path d="M442.407,9.493 L442.407,12.657 L449.298,12.657 L449.298,17.501 L442.412,17.501 L442.412,30.901 L448.74,30.901 L448.74,35.74 L431.798,35.74 L431.798,30.901 L436.637,30.901 L436.637,17.501 L431.798,17.501 L431.798,12.657 L436.637,12.657 L436.637,9.679 C436.637,3.723 440.546,0.001 446.315,0.001 C449.32958,0.0560960104 452.278696,0.889744076 454.876,2.421 L452.829,7.074 C451.198343,5.7483487 449.160521,5.02539867 447.059,5.027 C445.833411,4.94087143 444.628573,5.37715373 443.742276,6.22801409 C442.855979,7.07887446 442.370924,8.26491845 442.407,9.493 L442.407,9.493 Z" id="Path_315-2"></path>
            <path d="M453.758,24.201 C453.758,16.756 459.9,12.101 466.414,12.101 C472.928,12.101 479.07,16.754 479.07,24.201 C479.07,31.648 473.115,36.301 466.414,36.301 C459.713,36.301 453.758,31.644 453.758,24.201 Z M472.928,24.201 C472.928,19.734 470.136,16.942 466.414,16.942 C462.692,16.942 459.9,19.734 459.9,24.201 C459.9,28.668 462.692,31.46 466.414,31.46 C470.137,31.644 472.928,28.852 472.928,24.201 Z" id="Path_316-2"></path>
            <path d="M513.506,35.181 C512.212782,35.7493988 510.822849,36.0654008 509.411,36.112 C507.978844,36.213596 506.565188,35.7406709 505.482467,34.7977461 C504.399745,33.8548212 503.737106,32.5195352 503.641,31.087 C500.663,34.623 497.871,36.298 494.521,36.298 C489.31,36.298 486.332,32.576 486.332,25.503 L486.332,17.503 L482.238,17.503 L482.238,12.661 L492.288,12.661 L492.288,25.503 C492.288,28.481 493.405,30.714 496.755,30.714 C498.989,30.714 501.222,29.225 503.455,26.619 L503.455,17.499 L499.738,17.499 L499.738,12.661 L509.416,12.661 L509.416,29.226 C509.416,30.526 509.974,31.087 510.716,31.087 C511.274,31.087 511.647,30.901 512.016,30.901 L513.506,35.181 Z" id="Path_317-2"></path>
            <path d="M550.163,30.901 L550.163,35.74 L536.204,35.74 L536.204,30.901 L540.113,30.901 L540.113,22.901 C540.113,19.923 538.438,17.876 535.46,17.876 C532.854,17.876 530.249,19.551 527.643,22.715 L527.643,30.901 L531.548,30.901 L531.548,35.74 L516.848,35.74 L516.848,30.901 L521.687,30.901 L521.687,17.501 L516.848,17.501 L516.848,12.659 L527.643,12.659 L527.643,17.871 C530.993,13.962 533.971,12.101 537.693,12.101 C543.093,12.101 546.068,15.637 546.068,22.896 L546.068,30.896 L550.163,30.896 L550.163,30.901 Z" id="Path_318-2"></path>
            <path d="M582.179,35.174 C580.893239,35.7646786 579.498758,36.0817145 578.084,36.105 C575.723606,36.1647076 573.572941,34.75642 572.684,32.569 C570.41026,34.8572703 567.347231,36.1889598 564.123,36.291 C558.167,36.291 552.956,31.266 552.956,24.379 C552.956,17.12 557.981,12.095 564.868,12.095 C567.550948,12.0891111 570.139512,13.0847401 572.127,14.887 L572.127,7.07 L567.474,7.07 L567.474,2.231 L578.083,2.231 L578.083,29.218 C578.083,30.518 578.641,31.079 579.383,31.079 C579.84491,31.0967611 580.300406,30.9664193 580.683,30.707 L582.179,35.174 Z M565.987,31.265 C568.22,31.265 570.454,29.965 572.501,28.287 L572.501,19.54 C570.855945,18.2150158 568.839436,17.434623 566.731,17.307 C562.45,17.307 559.658,20.285 559.658,24.566 C559.472,28.474 561.892,31.266 565.986,31.266 L565.987,31.265 Z" id="Path_319-2"></path>
            <path d="M612.707,34.988 C611.427045,35.7875988 609.933453,36.1773074 608.426,36.105 C606.049392,36.11843 603.972613,34.5028815 603.401,32.196 C600.423,34.802 597.259,36.477 594.095,36.477 C589.814,36.477 586.278,34.057 586.278,29.032 C586.278,24.007 591.117,21.401 595.77,21.401 C598.35168,21.3382938 600.908941,21.9136346 603.215,23.076 L603.215,21.215 C603.215,18.423 600.609,17.306 597.631,17.306 C594.611065,17.4236447 591.641593,18.1184902 588.883,19.353 L587.766,14.7 C591.182744,13.2297 594.843572,12.4090233 598.561,12.28 C605.261,12.28 608.984,15.816 608.984,21.586 L608.984,29.217 C608.984,30.517 609.542,31.078 610.284,31.078 C610.741939,31.0667106 611.189409,30.9386653 611.584,30.706 L612.707,34.988 Z M595.584,31.266 C597.259,31.266 600.051,30.335 603.029,28.102 L603.029,26.802 C601.066984,26.0579807 598.985343,25.6794081 596.887,25.685 C594.468,25.685 592.234,26.616 592.234,28.663 C592.048,30.521 593.723,31.265 595.584,31.265 L595.584,31.266 Z" id="Path_320-2"></path>
            <path d="M634.483,34.621 C632.47079,35.8628989 630.147448,36.5082333 627.783,36.482 C622.383,36.482 619.221,32.76 619.221,26.618 L619.221,17.684 L614.568,17.684 L614.568,12.845 L619.221,12.845 L619.221,6.331 L625.177,6.331 L625.177,12.659 L632.068,12.659 L632.068,17.498 L625.182,17.498 L625.182,26.618 C625.182,29.41 626.482,31.085 628.904,31.085 C630.319001,31.0637338 631.713893,30.7466043 632.999,30.154 L634.483,34.621 Z" id="Path_321-2"></path>
            <path d="M653.282,30.898 L653.282,35.737 L637.648,35.737 L637.648,30.898 L642.487,30.898 L642.487,17.498 L637.648,17.498 L637.648,12.658 L648.443,12.658 L648.443,30.712 L653.282,30.712 L653.282,30.898 Z M640.812,5.027 C640.812,2.98 642.673,1.491 644.907,1.491 C647.326,1.491 649.188,2.98 649.188,5.027 C649.188,6.888 647.513,8.377 644.907,8.377 C642.673,8.377 640.812,6.891 640.812,5.027 Z" id="Path_322-2"></path>
            <path d="M656.258,24.201 C656.258,16.756 662.4,12.101 668.914,12.101 C675.428,12.101 681.57,16.754 681.57,24.201 C681.57,31.648 675.614,36.301 668.914,36.301 C662.4,36.301 656.258,31.644 656.258,24.201 Z M675.428,24.201 C675.428,19.734 672.636,16.942 668.914,16.942 C665.192,16.942 662.4,19.734 662.4,24.201 C662.4,28.668 665.192,31.46 668.914,31.46 C672.637,31.644 675.428,28.852 675.428,24.201 Z" id="Path_323-2"></path>
            <path d="M719.164,30.901 L719.164,35.74 L705.204,35.74 L705.204,30.901 L709.113,30.901 L709.113,22.901 C709.113,19.923 707.438,17.876 704.46,17.876 C701.854,17.876 699.249,19.551 696.643,22.715 L696.643,30.901 L700.548,30.901 L700.548,35.74 L685.848,35.74 L685.848,30.901 L690.687,30.901 L690.687,17.501 L685.848,17.501 L685.848,12.659 L696.643,12.659 L696.643,17.871 C699.993,13.962 702.971,12.101 706.693,12.101 C712.093,12.101 715.068,15.637 715.068,22.896 L715.068,30.896 L719.163,30.896 L719.164,30.901 Z" id="Path_324-2"></path>
            <path d="M749.126,15.817 L749.126,18.609 L754.896,18.609 L754.896,20.284 L749.126,20.284 L749.126,34.243 L754.526,34.243 L754.526,35.918 L742.798,35.918 L742.798,34.243 L747.079,34.243 L747.079,20.284 L742.798,20.284 L742.798,18.609 L747.079,18.609 L747.079,15.817 C747.079,10.978 749.685,8.931 753.035,8.931 C755.087774,9.03720944 757.077011,9.6787986 758.805,10.792 L758.06,12.467 C756.631447,11.4748421 754.957222,10.8953162 753.221,10.792 C750.987,10.606 749.126,12.095 749.126,15.817 Z" id="Path_325-2"></path>
            <path d="M760.108,27.361 C760.046978,24.9240305 760.988223,22.5686985 762.711961,20.8449607 C764.435699,19.121223 766.791031,18.1799775 769.228,18.241 C771.673443,18.1503335 774.046204,19.0820406 775.776582,20.8124183 C777.506959,22.542796 778.438666,24.9155566 778.348,27.361 C778.438666,29.8064434 777.506959,32.179204 775.776582,33.9095817 C774.046204,35.6399594 771.673443,36.5716665 769.228,36.481 C766.791031,36.5420225 764.435699,35.600777 762.711961,33.8770393 C760.988223,32.1533015 760.046978,29.7979695 760.108,27.361 L760.108,27.361 Z M776.487,27.361 C776.487,22.894 773.509,19.916 769.414,19.916 C765.319,19.916 762.341,22.894 762.341,27.361 C762.341,31.828 765.319,34.806 769.414,34.806 C773.509,34.806 776.487,31.828 776.487,27.361 Z" id="Path_326-2"></path>
            <path d="M799.943,18.051 L799.943,24.937 L798.078,24.937 L798.078,20.098 C795.1,20.098 792.494,21.959 789.703,25.123 L789.703,34.243 L793.984,34.243 L793.984,35.918 L783.378,35.918 L783.378,34.243 L787.659,34.243 L787.659,20.284 L783.378,20.284 L783.378,18.609 L789.706,18.609 L789.706,23.262 C792.312,20.284 795.29,18.051 798.826,18.051 L799.943,18.051 Z" id="Path_327-2"></path>
            <polygon id="Path_328-2" points="827.857 34.242 827.857 35.917 817.248 35.917 817.248 34.242 821.529 34.242 821.529 12.466 817.248 12.466 817.248 10.791 823.576 10.791 823.576 34.242"></polygon>
            <path d="M842.377,34.251 L842.377,35.926 L831.768,35.926 L831.768,34.251 L836.049,34.251 L836.049,20.288 L831.768,20.288 L831.768,18.613 L838.096,18.613 L838.096,34.251 L842.377,34.251 Z M834.377,11.917 C834.49987,10.7977437 835.483617,9.97457248 836.607,10.051 C837.907,10.051 838.84,10.795 838.84,11.912 C838.84,13.029 837.909,13.587 836.607,13.587 C835.305,13.587 834.374,12.843 834.374,11.912 L834.377,11.917 Z" id="Path_329-2"></path>
            <path d="M852.426,15.817 L852.426,18.609 L858.198,18.609 L858.198,20.284 L852.428,20.284 L852.428,34.243 L857.828,34.243 L857.828,35.918 L846.098,35.918 L846.098,34.243 L850.379,34.243 L850.379,20.284 L846.098,20.284 L846.098,18.609 L850.379,18.609 L850.379,15.817 C850.379,10.978 852.984,8.931 856.335,8.931 C858.387783,9.03716333 860.377031,9.67875622 862.105,10.792 L861.361,12.467 C859.932423,11.4748886 858.258212,10.8953673 856.522,10.792 C854.287,10.606 852.426,12.095 852.426,15.817 Z" id="Path_330-2"></path>
            <path d="M879.973,33.499 C877.982222,35.4362628 875.305641,36.5068954 872.528,36.477 C867.875,36.477 863.408,33.499 863.408,27.729 C863.302101,25.1958447 864.236125,22.7294611 865.993433,20.9019058 C867.750742,19.0743505 870.178641,18.0444208 872.714,18.0509687 C876.809,18.0509687 879.786,20.284 879.786,23.451 C879.786,26.801 876.25,28.476 872.9,28.476 C870.330624,28.426656 867.797931,27.8568427 865.455,26.801 L865.455,27.732 C865.43748,29.6294137 866.209394,31.4487452 867.586028,32.7546414 C868.962662,34.0605376 870.820147,34.7354946 872.714,34.618 C875.084624,34.6186479 877.359332,33.6818764 879.042,32.012 L879.973,33.499 Z M865.828,25.499 C868.037181,26.3058465 870.36371,26.7450053 872.715,26.799 C875.321,26.799 877.926,25.682 877.926,23.449 C877.926,21.216 875.879,19.727 872.901,19.727 C869.525517,19.8704044 866.646987,22.2182401 865.828,25.496 L865.828,25.499 Z" id="Path_331-2"></path>
            <path d="M885.738,34.622 C885.855953,33.4991146 886.846283,32.6741357 887.972,32.761 C889.461,32.761 890.392,33.505 890.392,34.622 C890.392,35.739 889.461,36.483 887.972,36.483 C886.87,36.4992989 885.921072,35.7088094 885.738,34.622 L885.738,34.622 Z" id="Path_332-2"></path>
        </g>
    </g>
</svg>