<?xml version="1.0" encoding="UTF-8"?>
<svg width="308px" height="72px" viewBox="0 0 308 72" version="1.1" xmlns="http://www.w3.org/2000/svg" xmlns:xlink="http://www.w3.org/1999/xlink">
    <title>slogan-sm</title>
    <g id="Page-1" stroke="none" stroke-width="1" fill="none" fill-rule="evenodd">
        <g id="slogan-sm">
            <rect id="Rectangle_129" x="0" y="-1.44328993e-15" width="307.949" height="71.625"></rect>
            <g id="Group_193" transform="translate(4.063000, 4.063000)" fill="#0A4B6F" fill-rule="nonzero">
                <path d="M14.93,11.906 C14.93,14.646 12.757,16.064 9.166,16.064 L0,16.064 L0,14.93 L3.213,14.93 L3.213,1.512 L0,1.512 L0,0.378 L8.882,0.378 C12.095,0.378 13.89,1.984 13.89,4.347 C13.9176892,6.11675753 12.6913578,7.65961557 10.961,8.032 C13.229,8.41 14.93,9.638 14.93,11.906 Z M4.536,1.512 L4.536,7.559 L8.6,7.559 C10.962,7.559 12.663,6.52 12.663,4.441 C12.663,2.362 10.963,1.512 8.883,1.512 L4.536,1.512 Z M13.607,11.906 C13.607,9.544 11.434,8.693 8.693,8.693 L4.536,8.693 L4.536,15.118 L8.883,15.118 C11.717,15.024 13.607,14.078 13.607,11.906 Z" id="Path_740"></path>
                <path d="M31.843,16.064 C31.4072667,16.3004386 30.9216032,16.4299946 30.426,16.442 C29.198,16.442 28.442,15.592 28.442,13.891 L28.442,13.702 C26.93,15.308 25.418,16.442 23.528,16.442 C21.355,16.442 20.128,15.025 20.128,12.284 L20.128,6.426 L17.764,6.426 L17.764,5.292 L21.449,5.292 L21.449,12.092 C21.449,14.076 22.205,15.21 24,15.21 C25.512,15.21 27.118,14.171 28.536,12.564 L28.536,6.426 L26.364,6.426 L26.364,5.292 L29.764,5.292 L29.764,13.792 C29.764,14.831 30.142,15.304 30.709,15.304 C31.0188687,15.3278673 31.3252807,15.2258501 31.559,15.021 L31.843,16.064 Z" id="Path_741"></path>
                <path d="M40.915,15.024 L40.915,16.063 L34.301,16.063 L34.301,15.024 L36.947,15.024 L36.947,6.331 L34.301,6.331 L34.301,5.292 L38.27,5.292 L38.27,15.025 L40.915,15.024 Z M35.907,1.134 C35.907,0.473 36.474,-8.8817842e-16 37.324,-8.8817842e-16 C38.174,-8.8817842e-16 38.741,0.472 38.741,1.134 C38.741,1.796 38.174,2.173 37.324,2.173 C36.474,2.173 35.907,1.8 35.907,1.134 Z" id="Path_742"></path>
                <polygon id="Path_743" points="49.513 15.024 49.513 16.063 42.899 16.063 42.899 15.024 45.545 15.024 45.545 1.417 42.899 1.417 42.899 0.378 46.868 0.378 46.868 15.024"></polygon>
                <path d="M64.821,16.064 C64.3852667,16.3004386 63.8996032,16.4299946 63.404,16.442 C62.8980915,16.4576985 62.4081874,16.2636197 62.0502838,15.9057162 C61.6923803,15.5478126 61.4983015,15.0579085 61.514,14.552 C60.3371347,15.6808075 58.7951823,16.3512216 57.167,16.442 C55.7531533,16.4231306 54.408522,15.8268952 53.4453184,14.7917346 C52.4821148,13.756574 51.9841329,12.3725423 52.067,10.961 C51.9746382,9.44627757 52.5097157,7.96030195 53.5465254,6.85217726 C54.5833352,5.74405257 56.0304878,5.11145415 57.548,5.103 C59.030751,5.09539025 60.4567702,5.67240887 61.517,6.709 L61.517,1.417 L58.865,1.417 L58.865,0.378 L62.739,0.378 L62.739,13.796 C62.739,14.835 63.117,15.213 63.684,15.213 C64.0227896,15.2354378 64.3583093,15.1349595 64.629,14.93 L64.821,16.064 Z M57.356,15.308 C58.93426,15.2394097 60.4245624,14.5619995 61.514,13.418 L61.514,7.654 C60.4825827,6.69001272 59.1438687,6.12123635 57.734,6.048 C55.277,6.048 53.387,8.032 53.387,10.867 C53.388,13.607 55.089,15.402 57.357,15.308 L57.356,15.308 Z" id="Path_744"></path>
                <path d="M73.892,15.024 L73.892,16.063 L67.278,16.063 L67.278,15.024 L69.924,15.024 L69.924,6.331 L67.278,6.331 L67.278,5.292 L71.247,5.292 L71.247,15.025 L73.892,15.024 Z M68.884,1.134 C68.884,0.473 69.451,-8.8817842e-16 70.301,-8.8817842e-16 C71.151,-8.8817842e-16 71.718,0.472 71.718,1.134 C71.718,1.796 71.151,2.173 70.301,2.173 C69.451,2.173 68.884,1.8 68.884,1.134 Z" id="Path_745"></path>
                <path d="M91.28,15.024 L91.28,16.063 L85.516,16.063 L85.516,15.024 L87.595,15.024 L87.595,9.354 C87.595,7.275 86.745,6.141 84.855,6.141 C83.249,6.141 81.455,7.275 79.941,8.976 L79.941,15.023 L82.114,15.023 L82.114,16.062 L75.972,16.062 L75.972,15.024 L78.618,15.024 L78.618,6.424 L75.972,6.424 L75.972,5.291 L79.941,5.291 L79.941,7.937 C81.547,6.237 83.248,5.008 85.233,5.008 C87.406,5.008 88.824,6.331 88.824,9.26 L88.824,15.024 L91.28,15.024 Z" id="Path_746"></path>
                <path d="M105.17,16.824 C105.17,19.564 101.863,21.171 98.37,21.171 C95.346,21.171 93.078,19.848 93.078,17.864 C93.0866905,16.9513407 93.5464915,16.1021318 94.306,15.596 C93.7105444,15.1911277 93.3561262,14.5160453 93.361,13.796 C93.4365752,12.6293994 94.120319,11.5885895 95.161,11.056 C94.6618143,10.4428223 94.3941989,9.67360521 94.405,8.883 C94.405,6.332 96.862,4.914 99.035,4.914 C99.9297393,4.89725255 100.81198,5.1258536 101.586,5.575 C101.993976,4.04135545 103.399454,2.98683334 104.986,3.024 L104.986,4.158 C103.743897,4.15057216 102.621875,4.89858645 102.151,6.048 C103.050064,6.71156453 103.576902,7.7656125 103.568,8.883 C103.568,11.434 101.3,12.852 98.938,12.852 C97.7093893,12.8671092 96.5115586,12.4675974 95.538,11.718 C94.8588464,12.1097618 94.4300705,12.8243883 94.404,13.608 C94.404,14.458 95.065,15.214 96.577,15.214 C98.377,15.214 100.168,14.364 102.152,14.364 C103.942,14.363 105.17,15.213 105.17,16.824 Z M104.036,16.918 C104.036,15.879 103.186,15.406 102.052,15.406 C100.252,15.406 98.652,16.256 96.666,16.256 C96.1177362,16.2622327 95.57311,16.1662618 95.06,15.973 C94.5448283,16.3906215 94.2349941,17.0102898 94.21,17.673 C94.21,19.185 96.01,20.13 98.557,20.13 C101.39,20.124 104.036,18.899 104.036,16.914 L104.036,16.918 Z M95.721,8.981 C95.721,10.871 97.421,11.816 99.121,11.816 C101.011,11.816 102.521,10.777 102.521,8.887 C102.521,6.997 100.821,6.052 99.121,6.052 C97.421,6.052 95.721,7.087 95.721,8.977 L95.721,8.981 Z" id="Path_747"></path>
                <path d="M127.375,15.875 C126.949871,16.1370357 126.457157,16.2684724 125.958,16.253 C124.919,16.253 124.258,15.592 124.068,14.363 C122.742727,15.5078286 121.088309,16.2025094 119.343,16.347 C117.264,16.347 115.469,15.213 115.469,13.04 C115.469,10.867 117.453,9.54 120.005,9.54 C121.364234,9.53519585 122.711708,9.79185745 123.974,10.296 L123.974,9.071 C123.974,6.803 122.557,6.142 120.856,6.142 C119.291483,6.19518048 117.751678,6.54788268 116.32,7.181 L116.037,6.142 C117.580336,5.43331846 119.25219,5.04742744 120.95,5.008 C123.312,5.008 125.202,6.142 125.202,9.166 L125.202,13.702 C125.202,14.741 125.485,15.214 126.147,15.214 C126.454673,15.2217234 126.755361,15.1216121 126.997,14.931 L127.375,15.875 Z M119.627,15.308 C121.269013,15.1597377 122.822731,14.4985063 124.068,13.418 L124.068,11.244 C122.814052,10.8283513 121.512219,10.5743023 120.194,10.488 C118.494,10.488 116.794,11.338 116.794,12.945 C116.794,14.552 118.209,15.308 119.627,15.308 L119.627,15.308 Z" id="Path_748"></path>
            </g>
            <g id="Group_194" transform="translate(4.252000, 26.308000)" fill="#0A4B6F" fill-rule="nonzero">
                <path d="M17.764,17.914 C17.764,21.505 14.74,23.678 10.772,23.678 C8.00514751,23.5415113 5.38347747,22.398887 3.4,20.465 L3.4,23.205 L0,23.205 L0,15.93 L2.362,15.745 C4.535,18.674 7.937,20.47 10.583,20.47 C12.383,20.47 13.701,19.714 13.701,18.297 C13.701,16.785 11.901,15.746 7.181,14.423 C2.267,13.1 0.189,10.923 0.189,7.714 C0.189,4.214 3.402,1.95 6.898,1.95 C9.34003989,1.86525967 11.6936837,2.86899258 13.323,4.69 L13.323,2.417 L16.823,2.417 L16.823,9.598 L14.461,9.692 C13.2989226,7.00242871 10.6808884,5.2323582 7.752,5.156 C5.673,5.156 4.161,6.006 4.161,7.518 C4.161,9.03 5.673,9.975 9.547,11.018 C14.363,12.434 17.764,14.229 17.764,17.914 Z" id="Path_749"></path>
                <path d="M32.6,22.545 C31.3424134,23.2929108 29.9051678,23.6848869 28.442,23.6790653 C25.135,23.6790653 23.056,21.411 23.056,17.537 L23.056,11.869 L20.127,11.869 L20.127,8.843 L23.056,8.843 L23.056,4.969 L26.741,4.969 L26.741,8.938 L30.993,8.938 L30.993,11.962 L26.741,11.962 L26.741,17.632 C26.741,19.432 27.591,20.372 29.009,20.372 C29.86312,20.3973156 30.709345,20.2020329 31.466,19.805 L32.6,22.545 Z" id="Path_750"></path>
                <path d="M49.136,8.559 L49.136,14.985 L45.924,14.985 L45.924,12.339 C44.79,12.339 43.089,13.378 41.388,15.268 L41.388,20.182 L44.412,20.182 L44.412,23.206 L34.679,23.206 L34.679,20.182 L37.703,20.182 L37.703,11.865 L34.679,11.865 L34.679,8.843 L41.388,8.843 L41.388,12.15 C43.279,9.977 45.64,8.465 47.719,8.465 L49.136,8.465 L49.136,8.559 Z" id="Path_751"></path>
                <path d="M51.687,16.118 C51.687,11.488 55.467,8.559 59.624,8.559 C61.6857777,8.48395527 63.6906353,9.24389009 65.1846399,10.6667426 C66.6786444,12.0895951 67.5354278,14.0550155 67.561,16.118 C67.561,20.748 63.876,23.6770003 59.624,23.6770003 C55.467,23.678 51.687,20.748 51.687,16.118 Z M63.687,16.118 C63.687,13.283 61.887,11.582 59.624,11.582 C57.361,11.582 55.561,13.282 55.561,16.118 C55.561,18.954 57.361,20.654 59.624,20.654 C61.887,20.654 63.687,18.953 63.687,16.118 Z" id="Path_752"></path>
                <path d="M90.902,20.277 L90.902,23.301 L82.208,23.301 L82.208,20.277 L84.665,20.277 L84.665,15.363 C84.7652379,14.5428523 84.4961325,13.7205367 83.9304221,13.1183227 C83.3647117,12.5161087 82.5608067,12.1961755 81.736,12.245 C80.13,12.245 78.523,13.379 76.822,15.269 L76.822,20.369 L79.279,20.369 L79.279,23.393 L70.208,23.393 L70.208,20.371 L73.232,20.371 L73.232,12.054 L70.208,12.054 L70.208,9.032 L76.917,9.032 L76.917,12.339 C78.996,9.977 80.791,8.654 83.153,8.654 C86.553,8.654 88.445,10.922 88.445,15.363 L88.445,20.371 L90.902,20.371 L90.902,20.277 Z" id="Path_753"></path>
                <path d="M108.571,24.245 C108.571,27.645 104.319,29.726 99.122,29.726 C95.248,29.726 92.222,28.309 92.222,25.568 C92.303499,24.3776403 92.8874356,23.2781233 93.828,22.544 C93.0708245,21.9598227 92.6473039,21.0421949 92.694,20.087 C92.754578,18.6200351 93.5791106,17.2919798 94.867,16.587 C94.1784047,15.7681255 93.8093549,14.7277529 93.828,13.658 C93.828,10.158 97.419,8.458 100.348,8.458 C101.413312,8.45417052 102.470238,8.64636966 103.466,9.025 C104.128852,7.00545303 106.069191,5.68602223 108.191,5.812 L108.191,8.93 C107.055232,8.85091813 105.934309,9.22443915 105.073,9.969 C106.223366,10.8002767 106.895354,12.1408934 106.873,13.56 C106.873,17.06 103.282,18.76 100.259,18.76 C98.9078026,18.7841535 97.5733039,18.458624 96.385,17.815 C96.0266734,18.1624253 95.822462,18.6389185 95.818,19.138 C95.818,20.177 96.668,20.555 97.708,20.555 C99.787,20.555 101.299,20.177 103.755,20.177 C106.681,20.276 108.571,21.694 108.571,24.245 Z M105.171,24.528 C105.171,23.583 104.51,23.3 103.187,23.3 C101.581,23.3 99.787,23.772 97.234,23.772 C96.7566175,23.7555499 96.2820053,23.6922459 95.817,23.583 C95.5932899,23.9556271 95.4635619,24.3770716 95.439,24.811 C95.439,26.039 96.856,26.795 99.597,26.795 C102.524,26.702 105.169,25.851 105.169,24.528 L105.171,24.528 Z M97.612,13.756 C97.612,15.268 98.84,16.213 100.541,16.213 C101.274029,16.2918883 102.006746,16.0614849 102.562707,15.5772726 C103.118669,15.0930604 103.447494,14.398918 103.47,13.662 C103.47,12.15 102.242,11.205 100.541,11.205 C98.744,11.205 97.61,12.244 97.61,13.756 L97.612,13.756 Z" id="Path_754"></path>
                <path d="M126.902,6.953 L126.902,8.937 L131.249,8.937 L131.249,11.961 L126.902,11.961 L126.902,20.276 L130.871,20.276 L130.871,23.3 L120.288,23.3 L120.288,20.276 L123.312,20.276 L123.312,11.961 L120.288,11.961 L120.288,8.937 L123.312,8.937 L123.312,7.047 C123.193974,5.4098967 123.793061,3.80228326 124.953672,2.64167191 C126.114283,1.48106056 127.721897,0.881973784 129.359,1 C131.226637,1.02055741 133.05441,1.54277826 134.651,2.512 L133.328,5.441 C132.298882,4.63518545 131.04293,4.1724663 129.737,4.118 C128.976092,4.08721799 128.236975,4.37600756 127.698491,4.91449111 C127.160008,5.45297465 126.871218,6.19209165 126.902,6.953 Z" id="Path_755"></path>
                <path d="M133.99,16.118 C133.99,11.488 137.77,8.559 141.927,8.559 C143.988778,8.48395527 145.993635,9.24389009 147.48764,10.6667426 C148.981644,12.0895951 149.838428,14.0550155 149.864,16.118 C149.864,20.748 146.179,23.6770003 141.927,23.6770003 C137.77,23.678 133.99,20.748 133.99,16.118 Z M145.99,16.118 C145.99,13.283 144.19,11.582 141.927,11.582 C139.664,11.582 137.864,13.282 137.864,16.118 C137.864,18.954 139.664,20.654 141.927,20.654 C144.19,20.654 145.99,18.953 145.99,16.118 Z" id="Path_756"></path>
                <path d="M171.22,22.922 C170.455509,23.2974547 169.614708,23.4914857 168.763,23.489 C166.923361,23.5813323 165.338696,22.2053963 165.172,20.371 C163.282,22.544 161.581,23.678 159.502,23.678 C156.289,23.678 154.402,21.41 154.402,16.969 L154.402,11.961 L151.849,11.961 L151.849,8.937 L158.18,8.937 L158.18,16.874 C158.18,18.764 158.841,20.087 160.92,20.087 C162.243,20.087 163.66,19.142 165.172,17.536 L165.172,11.866 L162.81,11.866 L162.81,8.843 L168.857,8.843 L168.857,19.143 C168.857,19.993 169.235,20.277 169.707,20.277 C170.001193,20.2811278 170.292276,20.2164047 170.557,20.088 L171.22,22.922 Z" id="Path_757"></path>
                <path d="M194.087,20.277 L194.087,23.301 L185.393,23.301 L185.393,20.277 L187.85,20.277 L187.85,15.363 C187.950238,14.5428523 187.681132,13.7205367 187.115422,13.1183227 C186.549712,12.5161087 185.745807,12.1961755 184.921,12.245 C183.315,12.245 181.708,13.379 180.007,15.269 L180.007,20.369 L182.464,20.369 L182.464,23.393 L173.393,23.393 L173.393,20.371 L176.417,20.371 L176.417,12.054 L173.393,12.054 L173.393,9.032 L180.102,9.032 L180.102,12.339 C182.181,9.977 183.976,8.654 186.338,8.654 C189.738,8.654 191.63,10.922 191.63,15.363 L191.63,20.371 L194.087,20.371 L194.087,20.277 Z" id="Path_758"></path>
                <path d="M214.024,22.917 C213.263683,23.3040612 212.420042,23.4987477 211.567,23.484 C210.111904,23.5467948 208.779852,22.6715154 208.26,21.311 C206.870894,22.7574338 204.972281,23.6048497 202.968,23.673 C201.060537,23.6107755 199.257455,22.7871863 197.961499,21.3861928 C196.665542,19.9851994 195.984683,18.1235244 196.071,16.217 C195.982764,14.2106491 196.72137,12.2559272 198.114353,10.8092662 C199.507336,9.3626052 201.432748,8.5506522 203.441,8.563 C205.131048,8.5422167 206.761054,9.18904449 207.977,10.363 L207.977,5.441 L205.048,5.441 L205.048,2.417 L211.662,2.417 L211.662,19.237 C211.662,20.087 212.04,20.371 212.512,20.371 C212.806193,20.3751278 213.097276,20.3104047 213.362,20.182 L214.024,22.917 Z M203.913,20.46 C205.423964,20.306108 206.846853,19.6757364 207.976,18.66 L207.976,13.189 C206.961749,12.3440999 205.702908,11.8473644 204.385,11.772 C203.18822,11.7062277 202.020014,12.1529567 201.172485,13.0004853 C200.324957,13.8480139 199.878228,15.0162196 199.944,16.213 C199.826015,17.3231231 200.195959,18.429766 200.957833,19.2457576 C201.719707,20.0617492 202.798402,20.5066466 203.914,20.465 L203.913,20.46 Z" id="Path_759"></path>
                <path d="M233.017,22.828 C232.207421,23.2745109 231.295453,23.5023305 230.371,23.489 C228.876413,23.5252777 227.567227,22.4936324 227.253,21.032 C225.707511,22.626347 223.612957,23.5724363 221.395,23.678 C218.749,23.678 216.481,22.166 216.576,19.048 C216.576,15.93 219.6,14.229 222.434,14.229 C224.037791,14.2042264 225.624578,14.5603109 227.064,15.268 L227.064,14.135 C227.064,12.435 225.458,11.678 223.564,11.678 C221.708628,11.754149 219.883015,12.170386 218.178,12.906 L217.422,9.977 C219.540701,9.04749547 221.818407,8.5341715 224.131,8.465 C228.289,8.465 230.651,10.638 230.651,14.229 L230.651,19.143 C230.651,19.993 231.029,20.371 231.501,20.371 C231.795197,20.3751648 232.086288,20.3104399 232.351,20.182 L233.017,22.828 Z M222.434,20.56 C224.140948,20.376318 225.753667,19.6852523 227.064,18.576 L227.064,17.726 C225.822664,17.2754743 224.510496,17.051586 223.19,17.065 C221.678,17.065 220.261,17.632 220.261,18.955 C220.261,19.993 221.3,20.56 222.434,20.56 Z" id="Path_760"></path>
                <path d="M246.624,22.545 C245.366413,23.2929108 243.929168,23.6848869 242.466,23.6790653 C239.159,23.6790653 237.08,21.411 237.08,17.537 L237.08,11.869 L234.151,11.869 L234.151,8.843 L237.08,8.843 L237.08,4.969 L240.765,4.969 L240.765,8.938 L245.017,8.938 L245.017,11.962 L240.765,11.962 L240.765,17.632 C240.765,19.432 241.615,20.372 243.033,20.372 C243.88712,20.3973156 244.733345,20.2020329 245.49,19.805 L246.624,22.545 Z" id="Path_761"></path>
                <path d="M258.436,20.276 L258.436,23.3 L248.703,23.3 L248.703,20.276 L251.727,20.276 L251.727,11.961 L248.703,11.961 L248.703,8.937 L255.412,8.937 L255.412,20.276 L258.436,20.276 Z M250.593,4.118 C250.640906,3.49068191 250.937207,2.90842917 251.416146,2.50045802 C251.895085,2.09248687 252.517046,1.8925434 253.144,1.945 C253.784201,1.87645505 254.425095,2.06801912 254.922668,2.476646 C255.420241,2.88527288 255.732761,3.47668982 255.79,4.118 C255.79,5.346 254.751,6.197 253.144,6.197 C251.870377,6.31111191 250.738241,5.38844975 250.593,4.118 Z" id="Path_762"></path>
                <path d="M260.231,16.118 C260.231,11.488 264.011,8.559 268.168,8.559 C270.229778,8.48395527 272.234635,9.24389009 273.72864,10.6667426 C275.222644,12.0895951 276.079428,14.0550155 276.105,16.118 C276.105,20.748 272.42,23.6770003 268.168,23.6770003 C264.011,23.678 260.231,20.748 260.231,16.118 Z M272.231,16.118 C272.231,13.283 270.431,11.582 268.168,11.582 C265.905,11.582 264.105,13.282 264.105,16.118 C264.105,18.954 265.905,20.654 268.168,20.654 C270.431,20.654 272.231,18.953 272.231,16.118 Z" id="Path_763"></path>
                <path d="M299.445,20.277 L299.445,23.301 L290.751,23.301 L290.751,20.277 L293.208,20.277 L293.208,15.363 C293.308238,14.5428523 293.039132,13.7205367 292.473422,13.1183227 C291.907712,12.5161087 291.103807,12.1961755 290.279,12.245 C288.673,12.245 287.066,13.379 285.365,15.269 L285.365,20.369 L287.822,20.369 L287.822,23.393 L278.751,23.393 L278.751,20.371 L281.775,20.371 L281.775,12.054 L278.751,12.054 L278.751,9.032 L285.46,9.032 L285.46,12.339 C287.539,9.977 289.334,8.654 291.697,8.654 C295.097,8.654 296.989,10.922 296.989,15.363 L296.989,20.371 L299.446,20.371 L299.445,20.277 Z" id="Path_764"></path>
            </g>
            <g id="Group_195" transform="translate(211.945000, 50.175000)" fill="#0A4B6F" fill-rule="nonzero">
                <path d="M3.969,4.252 L3.969,6.052 L7.56,6.052 L7.56,7.091 L3.969,7.091 L3.969,15.78 L7.276,15.78 L7.276,16.82 L0,16.82 L0,15.78 L2.646,15.78 L2.646,7.087 L0,7.087 L0,6.047 L2.646,6.047 L2.646,4.347 C2.646,1.418 4.252,-7.10542736e-15 6.426,-7.10542736e-15 C7.70129755,0.0590064111 8.93910286,0.449892298 10.017,1.134 L9.545,2.173 C8.6469916,1.56459202 7.60331025,1.20599912 6.521,1.134 C5.2,1.134 3.969,1.984 3.969,4.252 Z" id="Path_765"></path>
                <path d="M10.867,11.434 C10.867,8.27658809 13.4265881,5.717 16.584,5.717 C19.7414119,5.717 22.301,8.27658809 22.301,11.434 C22.301,14.5914119 19.7414119,17.151 16.584,17.151 C13.4265881,17.151 10.867,14.5914119 10.867,11.434 Z M21.072,11.434 C20.9708277,9.00523613 18.9373821,7.10822719 16.5074489,7.17571329 C14.0775157,7.24319939 12.152494,9.25014614 12.1862809,11.6807815 C12.2200678,14.1114169 14.2001298,16.0640812 16.631,16.064 C17.8535827,16.102083 19.0349557,15.6198599 19.8816667,14.7371145 C20.7283777,13.8543692 21.1609744,12.6539354 21.072,11.434 L21.072,11.434 Z" id="Path_766"></path>
                <path d="M35.718,5.764 L35.718,10.016 L34.584,10.016 L34.584,6.992 C32.784,6.992 31.084,8.22 29.384,10.11 L29.384,15.874 L32.03,15.874 L32.03,16.914 L25.418,16.914 L25.418,15.875 L28.064,15.875 L28.064,7.181 L25.418,7.181 L25.418,6.142 L29.387,6.142 L29.387,9.071 C31.087,7.181 32.887,5.858 35.056,5.858 L35.717,5.858 L35.718,5.764 Z" id="Path_767"></path>
                <polygon id="Path_768" points="53.01 15.78 53.01 16.819 46.396 16.819 46.396 15.78 49.042 15.78 49.042 2.173 46.396 2.173 46.396 1.134 50.365 1.134 50.365 15.78"></polygon>
                <path d="M62.081,15.78 L62.081,16.819 L55.467,16.819 L55.467,15.78 L58.113,15.78 L58.113,7.087 L55.467,7.087 L55.467,6.048 L59.436,6.048 L59.436,15.781 L62.081,15.78 Z M57.073,1.89 C57.073,1.229 57.64,0.756 58.49,0.756 C59.34,0.756 59.907,1.228 59.907,1.89 C59.907,2.552 59.34,2.929 58.49,2.929 C57.64,2.929 57.073,2.456 57.073,1.89 Z" id="Path_769"></path>
                <path d="M68.318,4.252 L68.318,6.052 L71.909,6.052 L71.909,7.091 L68.318,7.091 L68.318,15.78 L71.625,15.78 L71.625,16.82 L64.349,16.82 L64.349,15.78 L66.995,15.78 L66.995,7.087 L64.349,7.087 L64.349,6.047 L66.995,6.047 L66.995,4.347 C66.995,1.418 68.601,-7.10542736e-15 70.775,-7.10542736e-15 C72.0502976,0.0590064111 73.2881029,0.449892298 74.366,1.134 L73.894,2.173 C72.9959916,1.56459202 71.9523102,1.20599912 70.87,1.134 C69.549,1.134 68.318,1.984 68.318,4.252 Z" id="Path_770"></path>
                <path d="M85.516,15.308 C84.2736299,16.5107127 82.6151315,17.187724 80.886,17.198 C79.4086205,17.2774652 77.9636997,16.7451264 76.8910048,15.7261609 C75.81831,14.7071954 75.2124897,13.2915109 75.216,11.812 C75.1448555,10.2365686 75.7198587,8.70035981 76.8079606,7.5588345 C77.8960624,6.41730918 79.4029691,5.76939076 80.98,5.765 C83.437,5.765 85.327,7.182 85.327,9.072 C85.327,11.151 83.154,12.19 80.98,12.19 C79.3951829,12.1319037 77.8308231,11.8126121 76.35,11.245 L76.35,11.812 C76.3567744,12.9958974 76.8430684,14.126506 77.6978424,14.9456644 C78.5526164,15.7648228 79.7028858,16.2025875 80.886,16.159 C82.3722813,16.1853152 83.8052413,15.6054881 84.855,14.553 L85.516,15.308 Z M76.634,10.394 C78.0271137,10.9119165 79.4954091,11.1990228 80.981,11.244 C82.587,11.244 84.194,10.583 84.194,9.165 C84.194,7.747 82.966,6.897 81.076,6.897 C78.9584797,6.87739304 77.1114575,8.33114882 76.633,10.394 L76.634,10.394 Z" id="Path_771"></path>
                <path d="M89.106,15.969 C89.177024,15.2481874 89.7994123,14.7088135 90.523,14.741 C91.373,14.741 92.035,15.213 92.035,15.969 C92.035,16.63 91.374,17.103 90.523,17.103 C89.8199958,17.17623 89.1886325,16.6709611 89.106,15.969 Z" id="Path_772"></path>
            </g>
        </g>
    </g>
</svg>