<svg xmlns="http://www.w3.org/2000/svg" width="60.072" height="60.07" viewBox="0 0 60.072 60.07">
  <g id="wordpress-seeklogo.com" transform="translate(4 -3)">
    <path id="Path_182" data-name="Path 182" d="M4.269,30.034A25.771,25.771,0,0,0,18.791,53.223L6.5,19.548A25.668,25.668,0,0,0,4.269,30.034Zm43.16-1.3A13.566,13.566,0,0,0,45.3,21.628c-1.306-2.122-2.53-3.92-2.53-6.042A4.462,4.462,0,0,1,47.1,11.013c.114,0,.223.014.334.021a25.76,25.76,0,0,0-38.928,4.85c.6.018,1.174.031,1.658.031,2.7,0,6.867-.327,6.867-.327a1.065,1.065,0,0,1,.165,2.122s-1.4.164-2.949.246l9.383,27.909L29.27,28.953l-4.014-11c-1.387-.081-2.7-.246-2.7-.246a1.065,1.065,0,0,1,.163-2.122s4.255.327,6.787.327c2.695,0,6.867-.327,6.867-.327a1.065,1.065,0,0,1,.165,2.122s-1.4.164-2.949.246l9.311,27.7,2.57-8.588c1.114-3.564,1.962-6.124,1.962-8.329ZM30.487,32.288,22.757,54.752a25.778,25.778,0,0,0,15.835-.411,2.263,2.263,0,0,1-.183-.355l-7.921-21.7ZM52.644,17.673a19.769,19.769,0,0,1,.174,2.649,24.305,24.305,0,0,1-1.959,9.229l-7.87,22.755a25.77,25.77,0,0,0,9.656-34.634ZM30.035,0A30.035,30.035,0,1,0,60.072,30.034,30.069,30.069,0,0,0,30.035,0Zm0,58.694A28.658,28.658,0,1,1,58.692,30.034,28.692,28.692,0,0,1,30.035,58.694Z" transform="translate(-4 3)"/>
  </g>
</svg>
